<svg width="39" height="75" viewBox="0 0 39 75" fill="none" xmlns="http://www.w3.org/2000/svg">
<path d="M5.67781 32.1902C5.81781 32.1202 6.23781 31.7702 6.30781 31.6302C6.16781 31.7002 5.74781 32.0502 5.67781 32.1902ZM1.54781 30.7902C1.12781 31.3502 1.26781 30.8602 1.54781 30.7902ZM29.8978 2.7202C30.1778 2.3702 30.5978 2.23019 30.6678 2.0202C30.3878 2.23019 30.0378 2.30019 29.7578 2.4402C29.7578 2.58019 29.7578 2.65019 29.8978 2.7202ZM0.0078125 34.5002C0.287813 34.2202 0.637812 34.1502 0.707812 33.8002C0.427812 34.0802 0.217813 34.1502 0.0078125 34.5002ZM5.18781 32.1902C5.25781 31.9802 5.53781 31.9102 5.53781 31.7702C5.46781 31.7702 4.97781 32.1902 5.18781 32.1902ZM1.89781 34.9902C2.17781 34.7102 2.73781 34.2902 2.59781 34.1502C2.38781 34.5002 1.96781 34.7802 1.89781 34.9902ZM10.6478 30.0202C10.8578 29.7402 11.1378 29.5302 11.2778 29.2502C11.0678 29.5302 10.7178 29.8102 10.6478 30.0202ZM7.63781 28.0602C7.49781 28.3402 7.14781 28.5502 7.07781 28.8302C7.28781 28.5502 7.70781 28.2002 7.63781 28.0602ZM6.79781 28.2002C6.86781 28.0602 7.00781 27.8502 7.00781 27.7102C6.93781 27.8502 6.51781 28.2002 6.65781 28.2002C6.72781 28.2002 6.79781 28.0602 6.79781 28.1302C6.79781 28.1302 6.65781 28.2702 6.79781 28.2002ZM6.93781 28.1302C6.86781 28.4102 6.44781 28.5502 6.37781 28.9002C6.65781 28.6902 7.07781 28.2702 6.93781 28.1302ZM7.77781 28.0602C7.84781 27.9902 7.84781 27.9902 7.91781 27.9202C8.47781 27.3602 7.84781 27.7102 7.77781 28.0602ZM7.49781 33.2402C7.35781 33.1702 7.00781 33.5902 6.93781 33.7302C7.07781 33.6602 7.28781 33.3102 7.49781 33.2402ZM7.77781 31.0702C7.49781 31.2802 7.35781 31.5602 7.70781 31.2102C7.91781 31.0002 8.26781 30.7202 8.26781 30.5802C8.19781 30.7202 8.05781 30.5802 8.12781 30.7202C8.12781 30.6502 8.12781 30.6502 8.19781 30.7202C7.98781 30.6502 7.91781 30.8602 7.77781 31.0702ZM8.61781 26.7302C8.54781 26.8702 8.47781 26.9402 8.33781 27.0102C8.40781 27.0802 8.40781 27.1502 8.47781 27.0802C8.40781 27.0102 8.68781 26.8702 8.61781 26.7302ZM10.2278 30.3002C10.1578 30.4402 9.87781 30.5802 9.94781 30.7202C10.0178 30.6502 9.94781 30.7202 9.94781 30.7902C10.0878 30.6502 10.2978 30.3002 10.2278 30.3002ZM5.39781 26.9402C5.18781 27.0802 5.11781 27.2202 5.04781 27.3602C5.18781 27.2202 5.39781 27.0802 5.39781 26.9402ZM18.7678 13.5002C18.6978 13.5702 18.5578 13.5002 18.6278 13.7102C18.7678 13.7102 18.6978 13.5702 18.7678 13.5702L19.1178 13.2902C19.0478 13.2202 18.9078 13.4302 18.7678 13.5002ZM22.9678 9.93019C22.7578 10.0702 22.6878 10.2102 22.6178 10.2802C22.8278 10.1402 22.8978 10.0702 22.9678 9.93019ZM24.1578 7.6902C24.0178 7.6202 23.2478 8.3202 23.3178 8.3202C23.5978 8.11019 23.8778 7.8302 24.1578 7.6902ZM20.9378 10.2802C20.9378 10.1402 20.5178 10.6302 20.3778 10.7002C20.3778 10.7002 20.3778 10.7002 20.3078 10.7002C20.4478 10.8402 20.7278 10.4202 20.9378 10.2802ZM20.8678 10.9802C20.6578 11.1902 20.4478 11.1902 20.4478 11.4702C20.5878 11.3302 20.8678 11.1202 20.8678 10.9802ZM22.7578 9.7902C22.6878 9.8602 22.1278 10.1402 21.9878 10.4202C22.2678 10.2802 22.5478 10.1402 22.7578 9.7902ZM24.6478 7.5502C24.6478 7.41019 25.3478 6.9902 25.0678 6.9902C25.1378 7.06019 24.4378 7.5502 24.6478 7.5502ZM25.2778 6.9202C25.3478 7.13019 25.6278 6.6402 25.7678 6.7102C25.6278 6.78019 25.2778 7.06019 25.4878 6.9902C25.8378 6.71019 26.7478 6.0102 26.6778 5.9402C26.6078 6.0102 26.4678 6.2202 26.3978 6.15019C26.3978 6.0102 26.6078 5.87019 26.6778 5.7302C26.3978 5.7302 26.4678 6.08019 26.2578 6.08019C26.1178 6.0102 26.4678 5.87019 26.3978 5.87019C25.9078 6.2202 25.4878 6.5702 25.1378 6.9202C25.3478 6.85019 25.4878 6.6402 25.6278 6.6402C25.5578 6.71019 25.4178 6.85019 25.2778 6.9202ZM28.2878 4.54019C28.4278 4.4002 28.7778 4.26019 28.7778 4.12019C28.6378 4.26019 28.3578 4.4002 28.2878 4.54019ZM27.5878 4.9602C27.5178 5.0302 27.4478 5.10019 27.3778 5.17019C27.3078 5.2402 27.1678 5.3102 27.0978 5.3802C26.9578 5.52019 26.8178 5.6602 26.8178 5.80019C27.0978 5.52019 27.4478 5.2402 27.5878 4.9602ZM25.4878 7.3402C26.0478 6.78019 26.4678 6.6402 26.8878 6.08019C26.3978 6.5702 25.7678 6.9202 25.4878 7.3402ZM17.8578 13.2902C17.5778 13.5002 17.2978 13.7802 17.0178 13.9202C17.2278 13.9202 17.7178 13.5002 17.8578 13.2902ZM11.9078 19.1002C11.9778 19.1702 11.9778 19.1702 11.9778 19.2402C12.1178 19.1002 12.1178 18.6802 12.3978 18.6102C12.3278 18.6802 12.3278 18.8202 12.3278 18.8202C12.6078 18.5402 13.0278 18.1202 13.0978 18.3302C13.0978 18.1202 13.3778 17.9102 13.4478 17.7702C13.3778 17.8402 13.4478 17.7002 13.4478 17.7002C13.1678 17.9802 12.8178 18.2602 12.6078 18.4002C12.6078 18.4002 12.6778 18.3302 12.6778 18.2602C12.2578 18.6102 11.1378 20.0102 11.9078 19.1002ZM11.9778 19.8702C12.1178 19.5202 12.7478 18.7502 12.6778 18.6802C12.3278 19.1002 11.7678 19.5902 11.9778 19.8702ZM20.6578 11.6802C20.5878 11.6802 20.4478 11.8902 20.3778 11.8202C20.7278 11.6102 20.8678 11.3302 21.0078 11.3302C21.0078 11.3302 20.8678 11.5402 20.9378 11.4702C21.1478 11.4002 21.0778 11.2602 21.2878 11.1902C21.4978 11.0502 21.7078 10.9102 21.8478 10.7002C21.7078 10.7702 21.4978 11.0502 21.2878 11.1902C21.2178 10.9802 21.0778 11.4002 21.0778 11.2602V11.1902C20.7278 11.4702 20.2378 11.8202 20.1678 12.1002C20.3078 11.9602 20.7978 11.7502 20.6578 11.6802ZM11.4878 20.1502C11.2778 20.3602 10.9278 20.6402 10.9978 20.8502C11.0678 20.6402 11.6278 20.2902 11.4878 20.1502ZM14.2178 16.9302C14.4978 16.7902 15.1978 16.0202 14.6378 16.5802C14.4278 16.6502 14.2878 16.8602 14.0778 16.8602C14.0078 17.1402 13.5178 17.4202 13.5878 17.6302C13.6578 17.4202 14.5678 16.8602 14.2178 16.9302ZM27.7278 4.7502C27.9378 4.6102 28.2178 4.3302 28.4978 4.19019C28.2878 4.1202 27.5878 4.82019 27.7278 4.7502ZM19.5378 12.5902C19.2578 12.7302 19.1178 12.8002 19.0478 13.0102C19.1878 12.8702 19.5378 12.7302 19.5378 12.5902ZM6.44781 25.6102C6.23781 25.8202 5.88781 26.1002 5.81781 26.2402C5.95781 26.0302 6.37781 25.8202 6.44781 25.6102ZM16.1078 14.6902C15.9678 14.9002 15.7578 15.0402 15.7578 15.1802C15.9678 15.0402 16.0378 14.8302 16.1078 14.6902ZM2.94781 33.3102C2.52781 33.5902 2.31781 33.8002 2.03781 34.1502C1.54781 34.7102 2.10781 34.1502 2.38781 33.8702C2.59781 33.7302 3.01781 33.5902 3.01781 33.3802C2.73781 33.6602 2.80781 33.4502 2.94781 33.3102ZM9.24781 66.6302C9.31781 66.2102 9.59781 65.9302 9.52781 65.7202C9.45781 65.7902 9.10781 66.8402 9.24781 66.6302ZM7.28781 70.3402C7.00781 71.1102 6.86781 71.6702 6.72781 72.3702C6.37781 73.6302 6.72781 72.3002 7.00781 71.6702C7.14781 71.1802 7.49781 70.6202 7.42781 70.4102C7.21781 70.9702 7.28781 70.6202 7.28781 70.3402ZM7.28781 71.8802C7.21781 72.5102 6.79781 73.2802 6.86781 73.7002C7.00781 73.0002 7.42781 71.8802 7.28781 71.8802ZM10.2278 64.7402C10.0878 65.0202 9.80781 65.8602 9.80781 66.1402C9.94781 65.8602 10.2278 65.0902 10.2278 64.7402ZM14.0078 59.2102C13.9378 59.4902 13.7278 59.9102 13.7978 59.9802C13.8678 59.8402 13.7978 60.0502 13.8678 60.1202C13.9378 59.8402 14.0778 59.1402 14.0078 59.2102ZM37.5978 8.8802C38.2978 7.8302 37.5978 7.76019 38.2978 6.7102C38.0178 6.7102 37.8078 6.50019 37.7378 6.2202C37.6678 5.9402 37.7378 5.45019 37.9478 4.9602C37.8778 4.9602 37.7378 5.2402 37.6678 5.2402C37.8078 4.47019 37.6678 4.26019 37.3878 4.19019C37.1778 4.0502 36.8278 4.0502 36.6878 3.6302C36.1978 4.0502 36.2678 3.49019 35.8478 3.91019C35.9178 3.7002 36.1278 3.28019 36.0578 3.21019C35.9178 3.4202 35.7778 3.56019 35.6378 3.56019C35.5678 3.28019 35.2878 3.3502 35.3578 3.14019C35.2878 3.0002 35.0778 3.49019 34.9378 3.49019C35.1478 3.0002 34.5878 3.0702 34.9378 2.51019C34.6578 2.58019 34.7278 2.3702 34.4478 2.65019C34.3078 1.67019 33.1878 2.65019 33.1178 2.1602C33.3978 1.88019 33.1178 2.0902 33.3278 1.8102C33.0478 2.0202 32.6978 2.51019 32.4178 2.86019C32.2778 2.86019 32.0678 3.0002 31.9278 3.0002C31.9978 2.93019 32.0678 2.86019 32.0678 2.7902C32.2778 2.51019 32.4878 2.23019 32.4878 2.0202C32.2778 2.0202 31.8578 2.51019 31.8578 2.0902C31.9278 2.0902 31.9978 2.0902 31.9978 2.1602C31.9978 2.0902 31.9978 2.0202 32.1378 1.95019C32.2778 1.95019 32.4178 1.88019 32.3478 2.0202C32.4178 1.88019 32.6278 1.7402 32.6278 1.60019C32.4878 1.67019 32.3478 1.67019 32.2778 1.67019C32.4178 1.4602 32.4878 1.3902 32.4878 1.4602C32.4878 1.3902 32.4878 1.25019 32.6278 1.1102C32.7678 1.04019 32.9778 0.760196 32.9078 1.04019C33.0478 0.760196 33.2578 0.410197 33.2578 0.200195C32.9078 0.690193 32.6278 0.550195 32.2778 0.970194C32.2078 1.1102 32.4178 1.1102 32.3478 1.25019C32.2778 1.3902 32.1378 1.53019 32.0678 1.60019C31.9978 1.60019 31.9278 1.60019 31.8578 1.67019C31.7878 1.7402 31.9278 1.8102 31.9278 1.8102C31.9278 1.88019 31.8578 1.88019 31.8578 1.95019C31.5078 2.1602 31.1578 2.3702 30.8078 2.51019C30.8078 2.51019 30.8078 2.51019 30.8078 2.4402C30.8078 2.51019 30.8078 2.51019 30.7378 2.58019C30.4578 2.7202 30.1078 2.93019 29.8278 3.21019C30.1078 3.0002 30.3878 2.7902 30.6678 2.7202C30.5278 2.86019 30.4578 2.93019 30.3878 3.0702C30.3178 3.0702 30.3178 3.0702 30.3178 3.0702C30.1778 3.21019 30.1078 3.28019 29.9678 3.3502C29.8278 3.49019 29.7578 3.56019 29.6178 3.6302C29.1978 3.9802 28.7778 4.3302 28.2178 4.6802C27.9378 5.17019 27.5878 5.45019 27.0278 6.0102C27.6578 5.52019 28.3578 4.89019 29.0578 4.4002C29.2678 4.19019 29.4778 4.0502 29.7578 3.91019C29.7578 3.9802 29.7578 4.0502 29.8978 4.0502C29.9678 3.91019 30.0378 3.84019 30.0378 3.7002C30.3178 3.6302 30.5278 3.56019 30.7378 3.49019C30.6678 3.56019 30.5278 3.7002 30.4578 3.84019C30.4578 3.84019 30.3878 3.91019 30.3878 3.9802C29.5478 4.47019 28.7078 4.9602 27.7278 5.5902C27.7278 5.52019 27.9378 5.45019 27.8678 5.3802C27.6578 5.5902 27.5878 5.7302 27.3778 5.87019C27.4478 6.08019 27.5178 5.7302 27.5178 5.87019C27.1678 6.2202 26.7478 6.5702 26.2578 6.9202C26.0478 7.06019 25.8378 7.2702 25.5578 7.41019C25.3478 7.5502 25.1378 7.76019 24.8578 7.9002C24.9278 7.8302 25.0678 7.76019 25.0678 7.76019C24.4378 8.39019 23.7378 8.8802 23.3878 9.37019C23.8778 8.9502 24.5078 8.5302 24.7878 8.3202C24.5078 8.74019 23.8078 9.30019 23.3878 9.5802C23.4578 9.65019 23.3178 9.72019 23.3178 9.8602C22.9678 10.0002 21.9878 11.1202 21.4278 11.2602C21.2878 11.5402 20.9378 11.8902 20.5178 12.1702C20.1678 12.4502 19.8178 12.7302 19.6078 12.9402C19.7478 12.8002 19.9578 12.6602 20.0978 12.6602C19.6778 12.9402 19.3278 13.2202 19.0478 13.5002C18.6978 13.7802 18.3478 14.0602 18.0678 14.3402C17.5078 14.7602 17.0878 15.3202 16.4578 15.5302C16.8078 15.0402 17.3678 14.8302 17.6478 14.3402C17.5778 14.4102 17.5778 14.4802 17.5078 14.4102C18.2078 13.7102 18.4878 13.4302 19.0478 13.1502C18.6278 13.2902 18.1378 13.7102 17.6478 14.1302C17.1578 14.5502 16.7378 14.9702 16.3178 15.1102C16.3878 15.2502 16.1778 15.3202 16.1778 15.4602C16.4578 15.2502 16.5978 15.1102 16.8078 14.9002C17.0178 14.7602 17.2278 14.6202 17.4378 14.4102C17.0178 14.9002 16.3878 15.4602 15.7578 15.9502C15.4078 16.2302 15.0578 16.5102 14.7778 16.7902C14.4978 17.0702 14.2178 17.3502 14.0078 17.6302C13.9378 17.5602 14.0078 17.4902 13.8678 17.6302C13.4478 18.0502 13.2378 18.2602 12.8178 18.6102C12.5378 19.5202 11.2778 20.7802 10.3678 21.4802C10.5778 21.3402 10.8578 21.1302 10.7178 20.9902C10.0878 21.5502 9.59781 22.3902 9.03781 22.8802C9.17781 22.8102 9.31781 22.6002 9.38781 22.6702C8.26781 23.7202 7.77781 24.3502 7.14781 24.9102C7.00781 25.0502 6.51781 25.5402 6.93781 25.1902C7.14781 25.0502 7.35781 24.7002 7.56781 24.6302C6.93781 25.3302 6.37781 25.7502 6.02781 26.3802C6.23781 26.1702 5.95781 26.4502 6.02781 26.5202C6.86781 25.8202 7.49781 25.1202 8.19781 24.7002C8.05781 24.8402 7.56781 25.2602 7.70781 25.2602C7.91781 25.0502 8.19781 24.7002 8.40781 24.6302C7.14781 25.7502 5.74781 27.2902 4.76781 28.2702C4.76781 28.3402 4.20781 28.9002 4.48781 28.6902C5.04781 28.3402 5.60781 27.7802 6.16781 27.2202C6.72781 26.5902 7.28781 25.9602 7.70781 25.4002C7.77781 25.6802 7.77781 25.3302 7.98781 25.4002C8.19781 24.9802 8.75781 24.7002 9.24781 24.2802C8.54781 25.0502 7.42781 25.8902 6.93781 26.5902C7.07781 26.3802 7.28781 26.2402 7.42781 26.1702C7.07781 26.5902 6.65781 26.8002 6.65781 27.0802C7.28781 26.5902 7.84781 26.0302 8.47781 25.5402C8.05781 25.8902 7.77781 26.2402 8.33781 25.6802C8.82781 25.2602 9.38781 24.6302 9.80781 24.4902C9.24781 25.1202 8.40781 25.6802 8.12781 26.1702C8.19781 26.1002 8.26781 26.1002 8.26781 26.1702C8.05781 26.2402 7.77781 26.7302 7.84781 26.5902C8.33781 26.3802 8.54781 25.8202 9.10781 25.5402C8.61781 26.1002 7.91781 26.5202 7.70781 27.0102C7.84781 26.9402 7.98781 26.7302 8.05781 26.8002C7.91781 26.9402 7.77781 27.0802 7.77781 27.1502C8.12781 26.7302 8.89781 26.2402 9.03781 25.8902C8.96781 25.8902 8.61781 26.3102 8.33781 26.3802C8.75781 26.0302 9.17781 25.4002 9.66781 25.1202C9.52781 25.4002 9.17781 25.4702 9.10781 25.7502C9.17781 25.6802 9.31781 25.4702 9.38781 25.6102C9.31781 25.8202 9.03781 25.7502 9.17781 25.8902C9.38781 25.6802 9.66781 25.3302 9.87781 25.3302C9.59781 25.5402 9.38781 25.8202 9.24781 26.0302C9.17781 26.0302 9.10781 25.9602 9.03781 26.0302C8.89781 26.3102 8.54781 26.5902 8.47781 26.7302C8.33781 26.8702 8.19781 27.0102 8.05781 27.1502C7.91781 27.2202 7.91781 27.2902 8.05781 27.2202C8.12781 27.1502 8.19781 27.0102 8.33781 26.9402C8.82781 26.5202 9.38781 25.8202 9.80781 25.6802C9.73781 25.7502 9.52781 25.8902 9.52781 25.9602C10.2278 25.5402 10.8578 24.7702 11.4178 24.4902C10.7178 25.4002 9.66781 25.8902 9.24781 26.8002C9.31781 26.5902 9.17781 26.9402 9.10781 26.8002C9.03781 26.7302 9.38781 26.5902 9.24781 26.5202C8.89781 26.7302 9.03781 27.1502 8.61781 27.0802C8.68781 27.6402 7.56781 28.2702 7.14781 28.8302C7.00781 29.1102 6.79781 29.5302 6.44781 29.6702C6.44781 29.6002 6.72781 29.3202 6.58781 29.3902C6.37781 29.6002 6.44781 29.7402 6.16781 29.9502C6.16781 29.8802 6.23781 29.8102 6.16781 29.8102C5.32781 30.6502 3.29781 32.3302 2.73781 33.1002C2.24781 33.5902 3.08781 32.8202 3.29781 32.6102C3.29781 32.6802 3.29781 32.6802 3.29781 32.7502C3.92781 32.0502 4.55781 31.4902 5.18781 30.9302C5.81781 30.4402 6.44781 30.0202 6.93781 29.7402C7.35781 29.1102 8.12781 28.5502 8.61781 28.2002C8.47781 28.5502 7.35781 29.2502 7.63781 29.1102C7.21781 29.4602 6.51781 30.2302 6.37781 30.3702C6.58781 30.3702 6.79781 29.9502 7.00781 29.8802C6.37781 30.5102 5.81781 30.9302 5.32781 31.4202C4.83781 31.8402 4.34781 32.2602 3.92781 32.8202C3.85781 32.8902 3.99781 32.8202 3.92781 32.8902C3.64781 33.1702 3.78781 33.1702 3.99781 32.8902C4.41781 32.4702 4.90781 31.9802 5.39781 31.5602C5.88781 31.1402 6.37781 30.7902 6.79781 30.5102C6.79781 30.7902 6.02781 31.2802 5.67781 31.6302C5.46781 31.8402 5.74781 31.7002 5.81781 31.5602C6.16781 31.4202 6.79781 30.6502 7.28781 30.4402C7.21781 30.5102 6.93781 30.6502 7.00781 30.7202C7.21781 30.5102 7.42781 30.3702 7.49781 30.3702C7.49781 30.5802 7.00781 31.0702 7.35781 30.5802C7.14781 30.8602 6.65781 31.0002 6.65781 31.2102C6.93781 31.0002 6.86781 31.0002 7.21781 30.9302C7.07781 31.0002 6.79781 31.2802 7.00781 31.2102C7.07781 31.0702 7.28781 30.8602 7.49781 30.6502C7.98781 30.3702 9.66781 28.5502 10.5778 28.1302C9.94781 28.6902 9.17781 29.4602 8.89781 29.8802C9.24781 29.6002 8.82781 30.0202 8.89781 30.0902C9.10781 29.8802 9.31781 29.6702 9.52781 29.6002C8.75781 30.3702 8.05781 31.0702 7.28781 31.7002C7.21781 31.8402 7.56781 31.4902 7.63781 31.4202C8.68781 30.7202 9.80781 29.1102 10.7878 28.6902C10.8578 28.4102 11.2078 28.4102 11.3478 28.2702C11.0678 28.6902 10.5078 28.9702 10.2278 29.3902C10.0178 29.6702 10.6478 29.0402 10.6478 29.0402C11.0678 28.6902 11.8378 28.2002 12.1878 27.9202C11.9078 28.2002 11.6278 28.4802 11.2078 28.8302C11.0678 28.9702 10.7878 29.3202 11.1378 28.9702C11.3478 28.8302 11.4878 28.6202 11.6978 28.4802C12.2578 28.1302 13.3078 26.7302 13.7978 26.6602C13.7278 26.6602 13.6578 26.8002 13.7278 26.8002C14.0078 26.5202 14.2878 26.2402 14.4978 26.1702C14.0778 26.5202 13.5178 27.2202 13.2378 27.2202C13.1678 27.3602 13.0278 27.6402 12.9578 27.7802C12.7478 27.9902 11.9778 28.6202 11.7678 28.9002C11.8378 28.9002 11.9078 28.6902 11.9778 28.8302C11.4878 29.2502 10.7878 29.8802 10.2278 30.5802C10.9278 30.0202 11.6278 29.2502 12.2578 28.8302C11.5578 29.5302 10.5778 30.3002 10.4378 30.9302C10.7878 30.5802 10.9978 30.3002 11.2778 30.0202C11.3478 30.0202 11.3478 30.0902 11.4878 30.0202C12.1178 29.4602 12.3278 28.9702 12.8878 28.6202C12.8178 28.7602 12.6778 28.9702 12.6778 29.1102C12.9578 28.8302 13.0978 28.4802 13.3078 28.4802C13.2378 28.6202 12.8178 29.0402 12.8878 29.0402C13.0278 28.8302 13.3778 28.6202 13.3778 28.4802C13.4478 28.4802 13.4478 28.5502 13.5178 28.5502C13.8678 28.0602 14.5678 27.4302 14.9878 27.0802C16.8078 25.5402 18.5578 23.8602 20.3778 22.3202C20.3078 22.6002 20.1678 22.8802 20.0978 23.0202C20.0278 23.0202 20.0278 23.0202 20.0278 23.0902C20.1678 23.1602 20.3078 22.6702 20.4478 22.2502C20.5878 22.1802 20.7278 22.0402 20.8678 21.9002C21.2178 21.6202 21.5678 21.3402 21.8478 21.1302C21.8478 21.1302 21.8478 21.2002 21.8478 21.2702C21.8478 21.2002 21.9178 21.0602 21.9878 20.9902C22.0578 20.9202 22.1278 20.8502 22.1978 20.7802C22.4078 20.6402 22.5478 20.5002 22.6878 20.3602C22.2678 21.2702 21.7778 22.4602 21.4278 22.8102C21.2878 23.4402 20.9378 24.1402 20.5878 24.8402C20.2378 25.5402 19.8178 26.3102 19.6778 26.8002C19.8178 26.4502 19.9578 26.1002 20.0978 25.9602C19.7478 26.7302 19.4678 27.4302 19.1178 28.0602C18.8378 28.7602 18.4878 29.3902 18.2078 30.0902C17.9978 30.5802 17.7878 31.1402 17.5078 31.6302C17.2978 32.1902 17.0878 32.6802 16.7378 33.1002C16.8778 32.6102 17.0878 32.1902 17.2978 31.7702C17.5078 31.2802 17.7178 30.8602 17.7878 30.4402C17.7178 30.5802 17.7178 30.6502 17.6478 30.6502C18.2778 29.0402 18.5578 28.4802 19.0478 27.5702C18.6278 28.1302 18.1378 29.1802 17.7178 30.1602C17.5078 30.6502 17.2978 31.1402 17.0878 31.6302C16.8778 32.0502 16.6678 32.4702 16.4578 32.7502C16.5278 32.8202 16.3878 33.1702 16.3878 33.3102C16.8778 32.3302 17.0878 31.6302 17.5778 30.7202C17.5078 31.0002 17.3678 31.2802 17.2978 31.5602C17.1578 31.8402 17.0178 32.1902 16.8778 32.4702C16.7378 32.8202 16.5978 33.1002 16.4578 33.4502C16.3878 33.5902 16.3178 33.7302 16.2478 33.9402C16.1778 34.0802 16.1078 34.2202 16.0378 34.4302C15.7578 35.0602 15.4078 35.7602 15.1978 36.3902C14.9178 37.0902 14.7078 37.7202 14.4978 38.2802C14.4278 38.2802 14.4978 38.1402 14.3578 38.3502C14.0078 39.4002 13.8678 39.8202 13.4478 40.7302C13.4478 41.5002 13.1678 42.5502 12.8178 43.7402C12.6078 44.3002 12.3978 44.8602 12.1878 45.4202C12.0478 45.9802 11.8378 46.5402 11.6278 46.9602C11.7678 46.5402 12.0478 45.9802 11.8378 45.9102C11.5578 46.6802 11.3478 47.3802 11.1378 48.0802C10.9978 48.8502 10.7878 49.5502 10.5778 50.1802C10.6478 49.9702 10.7878 49.4802 10.8578 49.4802C9.94781 52.0702 9.59781 53.3302 9.10781 54.7302C8.96781 55.0802 8.61781 56.2702 8.96781 55.3602C9.10781 54.9402 9.24781 54.2402 9.45781 53.9602C9.03781 55.5702 8.54781 56.5502 8.33781 57.8802C8.54781 57.3902 8.33781 58.0202 8.40781 58.0202C8.68781 57.1802 9.03781 56.3402 9.31781 55.5702C9.59781 54.8002 9.87781 54.1002 10.1578 53.4702C10.0878 53.7502 9.66781 54.8002 9.80781 54.6602C10.0178 54.1702 10.1578 53.4702 10.3678 53.1902C9.38781 55.9202 8.33781 59.3502 7.63781 61.7302C7.63781 61.7302 7.28781 63.0602 7.42781 62.5002C8.40781 60.5402 9.17781 57.2502 9.87781 54.8702C10.0178 55.2202 9.94781 54.7302 10.1578 54.6602C10.2278 54.2402 10.3678 53.8202 10.5078 53.3302C10.7178 52.9102 10.9278 52.4202 11.1378 51.8602C10.9978 52.3502 10.8578 52.7702 10.7178 53.2602C10.5078 53.7502 10.3678 54.2402 10.1578 54.6602C9.87781 55.6402 9.52781 56.5502 9.38781 57.2502C9.52781 56.8302 9.59781 56.4102 9.80781 56.2702C9.52781 57.1102 9.17781 57.8802 9.24781 58.2302C9.73781 56.9702 10.1578 55.6402 10.7178 54.3802C10.3678 55.2902 10.2278 55.9902 10.6478 54.7302C10.9978 53.6102 11.3478 52.2802 11.7678 51.6502C11.5578 52.3502 11.2778 53.0502 11.0678 53.7502C10.8578 54.4502 10.6478 55.0802 10.5078 55.5702C10.5778 55.4302 10.6478 55.2902 10.6478 55.3602C10.5078 55.7102 10.2978 56.6902 10.3678 56.3402C10.7878 55.6402 10.8578 54.6602 11.3478 53.7502C11.2078 54.3802 10.9278 55.0102 10.7178 55.5702C10.5778 56.1302 10.3678 56.6902 10.3678 57.1102C10.4378 56.9002 10.5078 56.4802 10.6478 56.4802C10.5078 56.7602 10.3678 57.1102 10.4378 57.2502C10.7178 56.3402 11.3478 54.9402 11.3478 54.3102C11.3478 54.3802 11.0678 55.2902 10.8578 55.6402C11.1378 54.7302 11.4178 53.4702 11.8378 52.7002C11.7678 53.1202 11.4878 53.6102 11.4178 54.1002C11.4878 53.8902 11.5578 53.4702 11.6978 53.6102C11.6278 53.8902 11.3478 54.1002 11.5578 54.1002C11.6978 53.6102 11.9078 52.9802 12.1178 52.7702C11.9078 53.3302 11.6978 53.8202 11.6278 54.2402C11.5578 54.4502 11.4878 54.3102 11.4178 54.5202C11.3478 55.0102 11.0678 55.7102 11.0678 56.0602C10.9278 56.3402 10.7878 56.6902 10.7178 57.0402C10.6478 57.3202 10.6478 57.1802 10.7178 57.0402C10.7878 56.8302 10.8578 56.6202 10.9278 56.4802C11.1378 55.9202 11.3478 55.2202 11.5578 54.6602C11.7678 54.1002 11.9778 53.5402 12.1878 53.2602C12.1178 53.4702 11.9078 53.8902 11.9778 53.9602C12.5378 52.7002 13.0278 51.0902 13.5178 50.1102C13.3778 50.6002 13.2378 51.0202 13.0978 51.5102C12.9578 51.9302 12.7478 52.4202 12.6078 52.8402C12.2578 53.6802 11.9778 54.5202 11.8378 55.3602C11.8378 55.0102 11.8378 55.5702 11.7678 55.5002C11.6978 55.4302 11.9778 55.0102 11.7678 55.0102C11.4878 55.6402 11.7678 56.0602 11.3478 56.3402C11.5578 57.0402 10.5778 59.0002 10.2978 60.1902C10.2278 60.6802 10.1578 61.4502 9.80781 62.0102C9.80781 61.8702 10.0178 61.2402 9.87781 61.4502C9.73781 61.8702 9.80781 62.0802 9.59781 62.5702C9.52781 62.5702 9.59781 62.3602 9.59781 62.3602C8.96781 64.3902 7.42781 68.6602 7.00781 70.2702C6.72781 71.3902 7.35781 69.5702 7.49781 69.0802V69.2202C8.33781 66.2102 9.45781 63.3402 10.2978 61.5902C10.4378 60.9602 10.7178 60.2602 10.9278 59.5602C11.1378 58.9302 11.4178 58.3702 11.6278 57.8802C11.5578 58.4402 10.6478 60.4702 10.9278 60.0502C10.5778 60.8902 10.0178 62.7102 9.94781 62.9902C10.1578 62.8502 10.2978 61.9402 10.4378 61.7302C9.52781 64.5302 8.75781 66.3502 8.19781 68.6602C8.12781 68.8702 8.26781 68.6602 8.26781 68.8002C7.98781 69.4302 8.19781 69.2902 8.33781 68.7302C8.89781 66.7002 9.73781 64.3902 10.4378 62.7102C10.5078 63.1302 9.87781 64.5302 9.66781 65.4402C9.52781 65.9302 9.73781 65.3702 9.80781 65.1602C9.87781 64.8802 10.0878 64.3202 10.2978 63.7602C10.5078 63.1302 10.7178 62.5702 10.9278 62.2202C10.8578 62.4302 10.6478 62.7802 10.7178 62.8502C10.9278 62.4302 11.0678 62.0102 11.1378 61.8702C11.2078 62.1502 10.8578 63.2702 11.0678 62.2902C10.9278 62.9202 10.4378 63.6202 10.5778 63.8302C10.7878 63.2702 10.7178 63.3402 10.9978 62.9202C10.9278 63.1302 10.6478 63.9002 10.8578 63.5502C10.9278 63.2002 11.0678 62.7802 11.2078 62.2902C11.4178 61.8702 11.8378 60.6102 12.3278 59.3502C12.7478 58.0202 13.2378 56.6202 13.6578 55.9202C13.3778 56.6202 13.1678 57.3902 12.9578 58.0902C12.6778 58.7902 12.5378 59.4202 12.3978 59.9102C12.6778 59.1402 12.3978 60.1902 12.4678 60.2602C12.6778 59.7702 12.8178 59.2102 13.0278 59.0002C12.7478 59.8402 12.4678 60.6802 12.1878 61.5202C11.9078 62.2902 11.6278 63.1302 11.3478 63.9002C11.3478 64.1802 11.5578 63.4102 11.6278 63.2002C12.3978 61.2402 13.1678 57.9502 14.0778 56.4802C14.0778 56.1302 14.3578 55.7102 14.4978 55.3602C14.3578 56.2002 13.8678 57.1102 13.7278 57.9502C13.5878 58.5802 14.0078 57.1802 14.0778 57.0402C14.4278 56.2002 15.0578 54.8702 15.3378 54.1002C15.1278 54.7302 14.8478 55.3602 14.5678 56.2702C14.4278 56.6202 14.2878 57.3202 14.4978 56.5502C14.7078 56.1302 14.8478 55.7102 14.9878 55.2902C15.1978 54.8002 15.5478 53.8202 15.8278 52.9102C16.1078 52.0002 16.4578 51.1602 16.6678 50.8802C16.5978 50.8802 16.5978 51.1602 16.5978 51.1602C16.7378 50.8802 16.8078 50.5302 16.9478 50.2502C17.0878 49.9002 17.1578 49.6902 17.2978 49.5502C16.9478 50.4602 16.5278 51.8602 16.2478 52.1402C16.1778 52.4202 16.1078 52.9102 16.1078 53.1902C15.9678 53.6102 15.3378 55.2902 15.1978 55.9202C15.1978 55.7102 15.2678 55.3602 15.4078 55.5002C15.1278 56.0602 14.9178 56.6902 14.7078 57.3902C14.4278 58.0902 14.2178 58.8602 14.0778 59.5602C14.3578 58.8602 14.5678 58.0902 14.8478 57.3202C15.1278 56.6202 15.3378 55.8502 15.6178 55.2902C15.4078 56.1302 15.0578 56.9702 14.7778 57.8102C14.5678 58.5802 14.3578 59.3502 14.3578 59.8402C14.6378 59.0702 14.7778 58.5102 14.9878 57.8102C15.0578 57.8102 15.1278 57.8802 15.1978 57.6702C15.4778 56.9702 15.6178 56.4102 15.7578 55.9202C15.8978 55.4302 16.0378 54.9402 16.3178 54.4502C16.2478 54.7302 16.1778 55.0102 16.1778 55.2202C16.3878 54.5902 16.4578 54.0302 16.6678 53.8202C16.6678 54.0302 16.3178 55.0102 16.3878 55.0102C16.5278 54.5902 16.7378 54.0302 16.7378 53.7502C16.8078 53.7502 16.8778 53.7502 16.9478 53.6802C17.0178 53.4002 17.0878 53.1902 17.1578 52.9102C17.2278 52.5602 17.3678 52.2802 17.4378 52.0002C17.7178 51.3702 17.9278 50.8102 18.0678 50.3902C18.4878 49.3402 18.9078 48.2902 19.3278 47.2402C19.4678 46.7502 19.6778 46.1902 19.8878 45.7002C20.0978 45.1402 20.3078 44.5802 20.5178 44.0902C21.3578 41.9902 22.2678 39.8902 23.1078 37.7902C23.5278 36.8802 23.9478 36.0402 24.3678 35.0602C25.7678 31.7002 27.2378 28.3402 28.7078 24.9802C30.2478 21.6202 31.8578 18.2602 33.7478 15.0402C33.8178 15.1102 33.7478 15.2502 33.8878 15.1102C34.4478 14.2002 35.1478 13.0102 35.8478 11.8202C35.9878 11.5402 36.1978 11.2602 36.3378 10.9802C36.5478 10.7002 36.6878 10.4202 36.8978 10.1402C37.1778 9.65019 37.5278 9.1602 37.8078 8.74019C37.7378 8.8102 37.4578 9.09019 37.5978 8.8802ZM9.73781 25.2602C9.59781 25.2602 10.0878 24.9102 10.0878 24.8402C10.1578 24.7702 10.0878 24.8402 10.1578 24.9102C10.0178 25.0502 9.87781 25.2602 9.73781 25.2602ZM10.0178 25.1902C9.80781 25.2602 10.2278 24.9102 10.2978 24.7702C10.3678 24.9102 10.0178 25.0502 10.0178 25.1902ZM10.0178 26.8002C9.59781 27.2202 9.59781 27.4302 9.17781 27.7102C9.03781 27.8502 9.10781 27.7802 9.03781 27.7102C9.17781 27.5002 9.59781 27.2202 9.87781 26.9402C9.94781 26.8002 10.2278 26.5902 10.0178 26.8002ZM13.9378 18.4002C13.8678 18.3302 14.0078 18.0502 14.2878 17.8402C14.2178 18.0502 14.0778 18.1902 13.9378 18.4002ZM14.4978 17.8402C14.4978 17.7002 14.7778 17.5602 14.9178 17.4202C14.9178 17.4902 14.6378 17.7002 14.4978 17.8402ZM14.9178 17.1402C15.0578 16.7202 15.4078 16.5102 15.6878 16.0902C15.6178 16.3702 15.2678 16.7202 14.9178 17.1402ZM15.4778 16.8602C15.4778 16.6502 15.8978 16.3702 16.1078 16.1602C16.3878 15.9502 15.5478 16.7202 15.4778 16.8602ZM11.9078 52.8402C11.8378 52.8402 12.2578 52.0002 12.1878 51.7902C12.2578 51.6502 12.2578 51.8602 12.3278 51.8602C12.1878 52.2102 12.0478 52.7002 11.9078 52.8402ZM12.2578 52.4202C12.0478 52.6302 12.3978 51.7902 12.3978 51.5802C12.5378 51.6502 12.1878 52.2102 12.2578 52.4202ZM12.7478 54.6602C12.3978 55.5702 12.3978 55.8502 12.0478 56.6902C11.9778 56.9702 11.9778 56.8302 11.9778 56.7602C12.0478 56.4102 12.3978 55.5702 12.6078 54.9402C12.6078 54.7302 12.8878 54.1702 12.7478 54.6602ZM14.6378 39.4002C14.5678 39.4002 14.6378 38.7702 14.8478 38.3502C14.8478 38.6302 14.7778 38.9802 14.6378 39.4002ZM15.1278 38.0702C15.0578 37.9302 15.4078 37.4402 15.4778 37.0902C15.4778 37.3002 15.1978 37.7902 15.1278 38.0702ZM15.4078 36.7402C15.4778 36.0402 15.8278 35.4102 16.0378 34.6402C16.0378 34.9902 15.6878 35.9002 15.4078 36.7402ZM15.9678 35.8302C15.8978 35.6202 16.3178 34.8502 16.4578 34.3602C16.8078 33.8002 16.0378 35.6202 15.9678 35.8302ZM31.1578 3.21019C31.0878 3.21019 31.0878 3.28019 31.0878 3.28019C31.0178 3.3502 30.9478 3.3502 30.8778 3.3502C30.9478 3.28019 30.9478 3.28019 30.9478 3.21019C31.0178 3.21019 31.0878 3.21019 31.1578 3.21019ZM31.5078 2.30019C31.5078 2.30019 31.5778 2.23019 31.6478 2.23019C31.5778 2.30019 31.5778 2.3702 31.5078 2.3702C31.5078 2.3702 31.5078 2.3702 31.5078 2.30019ZM30.7378 2.65019C30.8778 2.58019 30.9478 2.58019 31.0878 2.58019C30.9478 2.65019 30.8078 2.7202 30.6678 2.86019C30.6678 2.7902 30.7378 2.7202 30.7378 2.65019ZM30.7378 3.3502C30.7378 3.3502 30.8078 3.3502 30.8778 3.28019C30.8078 3.3502 30.8078 3.3502 30.8078 3.3502H30.7378ZM30.9478 3.4202C30.8778 3.49019 30.8078 3.56019 30.7378 3.56019C30.7378 3.56019 30.7378 3.49019 30.8078 3.49019C30.8778 3.49019 30.8778 3.4202 30.9478 3.4202ZM30.5978 3.7002C30.6678 3.7002 30.8078 3.6302 30.8778 3.56019C30.8778 3.6302 30.8078 3.6302 30.8078 3.7002C30.6678 3.7702 30.5978 3.84019 30.4578 3.91019C30.5278 3.84019 30.5978 3.7702 30.5978 3.7002ZM19.4678 26.3802C19.2578 26.8002 19.1178 27.0102 19.1178 27.3602C19.1878 27.0102 19.5378 26.5202 19.4678 26.3802ZM5.11781 68.2402C4.83781 69.5002 4.83781 68.6602 5.11781 68.2402ZM20.7278 22.9502C20.5178 23.4402 20.3078 23.6502 20.3078 23.9302C20.4478 23.6502 20.7278 23.1602 20.7278 22.9502ZM18.6978 28.6902C18.8378 28.5502 18.7678 28.4102 18.8378 28.4102C18.9778 28.1302 19.1178 27.8502 19.1878 27.6402C19.1178 27.6402 18.9778 28.0602 18.8378 28.2702C18.7678 28.4102 18.6278 28.5502 18.6978 28.6902ZM38.2978 7.9002C38.3678 7.76019 38.7878 7.41019 38.9978 6.9202C38.7178 6.7102 38.1578 7.9002 38.2978 7.9002ZM20.5878 24.0702C20.5178 24.2102 20.4478 24.6302 20.3078 24.5602C20.6578 24.0002 20.7278 23.4402 20.9378 23.3002C20.8678 23.3702 20.7978 23.6502 20.8678 23.6502C21.0778 23.3002 21.0078 23.1602 21.2178 22.8802C21.4278 22.4602 21.6378 22.1102 21.7778 21.7602C21.6378 21.9002 21.4278 22.5302 21.2178 22.8802C21.0778 22.6702 21.0078 23.3002 20.9378 23.2302C21.0078 23.1602 21.0078 23.0902 20.9378 23.0902C20.6578 23.7902 20.1678 24.7002 20.0978 25.1202C20.2378 24.8402 20.7278 24.0702 20.5878 24.0702ZM4.69781 74.8902C4.90781 74.1902 5.25781 73.7702 5.18781 73.2802C4.97781 73.9102 4.83781 74.1902 4.69781 74.8902ZM14.2878 58.4402C14.4278 57.8802 14.7078 57.2502 14.7778 56.7602C14.5678 57.3902 14.3578 58.0202 14.2878 58.4402ZM11.6278 66.9102C11.7678 66.8402 11.8378 66.0702 12.0478 65.8602C11.9078 65.7902 11.6278 66.7702 11.6278 66.9102ZM12.9578 43.1802C12.9578 42.6902 13.4478 41.0102 13.3078 41.0102C13.0978 41.8502 12.5378 43.1102 12.9578 43.1802ZM8.12781 57.9502C8.19781 57.4602 8.54781 56.7602 8.54781 56.4102C8.40781 56.9002 8.12781 57.6002 8.12781 57.9502ZM12.1178 45.4902C12.1178 45.1402 12.6778 44.1602 12.4678 44.0202C12.2578 44.5802 11.9778 45.2802 12.1178 45.4902ZM13.2378 40.4502C12.8878 41.2202 12.0478 44.2302 12.6778 42.2002C12.6778 42.2002 12.7478 42.2702 12.7478 42.3402C12.8178 42.0602 12.7478 41.5002 13.0278 41.1502C12.9578 41.2202 12.9578 41.4302 12.9578 41.4302C13.2378 40.8002 13.5878 39.8202 13.7278 40.0302C13.6578 39.7502 13.8678 39.2602 13.9378 38.9802C13.8678 39.1902 13.9378 38.9102 13.9378 38.8402C13.6578 39.5402 13.4478 40.2402 13.2378 40.6602C13.1678 40.5902 13.2378 40.4502 13.2378 40.4502ZM17.0178 30.4402C17.2278 30.2302 17.6478 29.2502 17.7878 28.8302C17.5078 29.3202 17.2278 30.0202 17.0178 30.4402ZM14.9178 36.2502C14.7778 36.4602 14.7078 36.9502 14.4278 37.1602C14.4278 37.5802 13.9378 38.4202 14.0778 38.6302C14.1478 38.2802 14.9878 36.7402 14.6378 37.0902C14.7778 36.8802 14.9178 36.3202 15.0578 35.9702C15.1978 35.6902 15.1978 35.5502 14.9178 36.2502ZM15.8978 33.3102C16.0378 32.8902 16.1078 32.6102 16.1078 32.4002C16.0378 32.7502 15.8278 33.1002 15.8978 33.3102ZM11.6278 62.7802C11.6978 62.3602 12.0478 61.6602 12.0478 61.3802C11.9778 61.6602 11.7678 61.6602 11.8378 61.8002C11.9078 61.7302 11.9078 61.6602 11.9078 61.6602C11.7678 61.8702 11.7678 62.2202 11.6278 62.5702C11.4178 63.2002 11.3478 63.6902 11.6278 62.7802ZM9.73781 59.6302C9.73781 59.2802 9.80781 58.9302 9.80781 58.7202C9.73781 59.0002 9.45781 59.9102 9.52781 59.8402C9.59781 59.7002 9.66781 59.4202 9.73781 59.4202C9.66781 59.5602 9.59781 59.8402 9.73781 59.6302ZM10.7178 58.4402C10.7878 58.3702 10.7878 58.2302 10.8578 58.1602C11.2078 56.8302 10.7178 57.8802 10.7178 58.4402ZM9.52781 60.8902C9.73781 60.4702 10.0878 59.4202 9.87781 59.3502C9.87781 59.7702 9.45781 60.4702 9.52781 60.8902ZM10.5778 58.6502C10.5078 59.0702 10.2278 59.7702 10.2278 60.1202C10.3678 59.6302 10.6478 58.7902 10.5778 58.6502ZM7.63781 60.1902C7.77781 59.8402 7.91781 59.4202 7.84781 59.2802C7.70781 59.6302 7.63781 59.9802 7.63781 60.1902ZM11.2078 55.8502C11.1378 56.0602 11.0678 56.2702 10.9978 56.4802C11.1378 56.4802 11.0678 56.6902 11.1378 56.5502C11.0678 56.4102 11.3478 55.9902 11.2078 55.8502Z" fill="black"/>
</svg>
