<svg width="56" height="58" viewBox="0 0 56 58" fill="none" xmlns="http://www.w3.org/2000/svg">
<path d="M25.7143 4.20965C25.7843 4.13965 25.1543 4.34965 24.9443 4.34965C24.9443 4.34965 24.9443 4.34965 24.8743 4.34965C24.9443 4.55965 25.4343 4.27965 25.7143 4.20965ZM27.8143 4.76965C27.6043 4.83965 27.3943 4.90965 27.3243 4.97965C27.5343 4.90965 27.7443 4.90965 27.8143 4.76965ZM25.2943 4.83965C25.0143 4.97965 24.8043 4.90965 24.6643 5.11965C24.7343 5.04965 24.8743 5.04965 25.0143 4.97965C25.1543 4.97965 25.2943 4.90965 25.2943 4.83965ZM26.6243 4.76965C26.9743 4.76965 27.3243 4.83965 27.7443 4.55965C27.6043 4.55965 26.9043 4.62965 26.6243 4.76965ZM24.7343 5.39965C24.6643 5.39965 24.4543 5.53965 24.3843 5.46965C24.8043 5.32965 25.0843 5.11965 25.2943 5.25965C25.2243 5.18965 25.0143 5.32965 25.0843 5.32965C25.2943 5.32965 25.3643 5.18965 25.5743 5.25965C25.8543 5.18965 26.1343 5.11965 26.4143 5.04965C26.2043 4.97965 25.8543 5.11965 25.5743 5.18965C25.5743 4.97965 25.2943 5.25965 25.2943 5.18965C25.3643 5.18965 25.3643 5.11965 25.3643 5.11965C25.2243 5.18965 25.1543 5.18965 25.0143 5.18965C24.8743 5.25965 24.7343 5.25965 24.5943 5.32965C24.3843 5.39965 24.1743 5.46965 24.0343 5.60965C24.2443 5.53965 24.8043 5.46965 24.7343 5.39965ZM23.1943 5.81965C22.9143 5.88965 22.7043 5.88965 22.5643 6.02965C22.7743 5.95965 23.1243 5.88965 23.1943 5.81965ZM35.8643 3.08965C36.0743 3.01965 36.4243 3.08965 36.5643 3.01965C36.3543 3.01965 35.9343 2.94965 35.8643 3.08965ZM35.2343 2.94965C35.4443 2.87965 35.9343 2.87965 36.2843 2.87965C36.1443 2.73965 35.0943 2.87965 35.2343 2.94965ZM32.2243 3.29965C32.0143 3.29965 31.8743 3.29965 31.6643 3.36965C31.5943 3.57965 32.1543 3.29965 32.2243 3.43965C32.0843 3.43965 31.5943 3.43965 31.8043 3.50965C31.9443 3.50965 32.1543 3.43965 32.2943 3.43965C32.5043 3.43965 32.7143 3.43965 32.8543 3.43965C33.2743 3.36965 33.5543 3.36965 33.5543 3.29965C33.4143 3.29965 33.1343 3.36965 33.1343 3.29965C33.2743 3.22965 33.4843 3.15965 33.6943 3.08965C33.4843 2.94965 33.2743 3.29965 33.0643 3.15965C32.9943 3.01965 33.4143 3.15965 33.3443 3.01965C32.9943 3.01965 32.7143 3.08965 32.4343 3.08965C32.3643 3.15965 32.2943 3.15965 32.2243 3.15965C32.1543 3.15965 32.0843 3.15965 32.0143 3.15965C31.8743 3.22965 31.7343 3.22965 31.5943 3.29965C31.8043 3.29965 32.0843 3.22965 32.2243 3.29965ZM1.4943 23.0396C1.4943 23.0396 1.4943 23.0396 1.5643 23.0396C1.6343 22.9696 1.6343 22.8996 1.7743 22.6896C1.6343 22.7596 1.4943 22.9696 1.4943 23.0396ZM29.6343 3.43965C29.8443 3.43965 30.0543 3.36965 30.1943 3.43965C30.0543 3.22965 29.0043 3.50965 29.0043 3.57965C29.2143 3.50965 29.4243 3.50965 29.6343 3.43965ZM31.6643 3.78965C31.8743 3.78965 32.0143 3.71965 32.2243 3.71965C32.3643 3.71965 32.5743 3.71965 32.7143 3.71965C32.9943 3.64965 33.2743 3.64965 33.6243 3.50965C33.2743 3.57965 32.9243 3.57965 32.5743 3.64965C32.2243 3.64965 31.8743 3.71965 31.6643 3.78965ZM30.7543 3.57965C30.8243 3.43965 31.6643 3.43965 31.4543 3.29965C31.4543 3.43965 30.5443 3.36965 30.7543 3.57965ZM2.5443 26.2596C2.6143 26.1896 2.6843 26.1197 2.7543 25.9797C2.8243 25.9096 2.8943 25.8397 2.9643 25.6996C3.1743 25.4897 3.5243 25.3496 3.5243 25.1396C3.2443 25.4196 3.3143 25.2096 3.3843 25.0696C3.1043 25.4196 2.8243 25.6296 2.6843 26.0496C2.4043 26.3996 2.4743 26.3996 2.5443 26.2596ZM6.6043 16.8796C6.3943 17.0896 5.9743 17.3696 5.9043 17.5796C6.1143 17.3696 6.5343 17.0896 6.6043 16.8796ZM39.5743 2.52965C39.1543 2.52965 38.8743 2.31965 38.4543 2.24965C38.3843 2.38965 38.3143 2.45965 38.3843 2.52965C38.8743 2.45965 39.3643 2.66965 39.5743 2.52965ZM3.0343 26.2596C2.9643 26.3296 2.8943 26.3996 2.8943 26.4697C2.7543 26.6796 2.6143 26.8196 2.6143 26.9597C2.7543 26.7496 2.8943 26.5396 3.0343 26.3296C3.1743 26.1896 3.2443 26.0496 3.1743 25.9797C3.1743 26.0496 3.1043 26.1896 3.0343 26.2596ZM5.4843 18.3496C5.2743 18.4896 5.1343 18.6296 5.1343 18.7696C5.2743 18.6296 5.4843 18.4196 5.4843 18.3496ZM1.2143 25.9797C1.0043 26.2596 0.864297 26.3996 0.654297 26.7496C0.864297 26.3996 1.2143 26.2596 1.2143 25.9797ZM13.1143 11.1396C13.2543 10.8596 14.0943 10.1596 14.0243 10.0896C13.6043 10.4396 12.8343 10.8596 13.1143 11.1396ZM18.8543 6.72965C18.6443 6.86965 18.3643 7.00965 18.3643 7.14965C18.6443 7.00965 18.7143 6.86965 18.8543 6.72965ZM20.6743 6.16965C20.8843 6.09965 21.0943 6.02965 21.2343 5.88965C21.0243 5.95965 20.8143 6.02965 20.6743 6.09965C20.4643 6.16965 20.2543 6.23965 20.1143 6.30965C20.1843 6.30965 20.4643 6.23965 20.6743 6.16965ZM15.9143 8.75965C16.1943 8.61965 16.3343 8.54965 16.1943 8.54965C16.3343 8.47965 16.6843 8.26965 16.8243 8.19965C17.0343 8.05965 17.1043 7.98965 16.6843 8.19965C16.4743 8.26965 16.2643 8.47965 16.0543 8.47965C15.8443 8.68965 15.2143 8.89965 15.3543 9.10965C15.3543 8.96965 15.7043 8.89965 15.9143 8.75965ZM12.4843 11.3496C12.2043 11.6296 11.8543 11.8397 11.8543 12.0496C11.9943 11.8397 12.6243 11.5596 12.4843 11.3496ZM22.0743 6.44965C21.9343 6.44965 21.7943 6.37965 21.7943 6.51965C21.9343 6.58965 21.9343 6.37965 22.0043 6.44965C22.1443 6.44965 22.3543 6.37965 22.4943 6.30965C22.4943 6.23965 22.4243 6.30965 22.2843 6.30965C22.2143 6.37965 22.1443 6.37965 22.0743 6.44965ZM13.1843 10.5096C13.3943 10.3696 13.4643 9.94965 13.8143 9.94965C13.7443 9.94965 13.6743 10.0896 13.6743 10.0896C13.8143 10.0196 14.0943 9.87965 14.2343 9.73965C14.4443 9.66965 14.5843 9.59965 14.5843 9.73965C14.6543 9.52965 15.0043 9.31965 15.0743 9.24965C15.0043 9.31965 15.0743 9.17965 15.0743 9.10965C14.7243 9.38965 14.3043 9.66965 14.0943 9.73965C14.0243 9.73965 14.1643 9.66965 14.1643 9.59965C13.6743 9.87965 12.1343 11.2096 13.1843 10.3696C13.2543 10.4396 13.1843 10.4396 13.1843 10.5096ZM33.7643 3.22965C34.1843 3.15965 34.6743 3.15965 34.9543 3.01965C34.5343 3.08965 33.9743 3.01965 33.7643 3.22965ZM7.7943 19.3296C7.6543 19.6096 7.3043 19.8896 7.2343 20.0996C7.4443 19.8196 7.8643 19.4696 7.7943 19.3296ZM7.9343 19.3296C8.0043 19.2596 8.0043 19.2596 8.0743 19.1896C8.6343 18.6296 8.0043 18.9796 7.9343 19.3296ZM7.0943 19.4696C7.0243 19.6796 6.6043 19.9596 6.5343 20.2396C6.7443 20.0296 7.2343 19.6096 7.0943 19.4696ZM8.7743 17.9997C8.7043 18.0697 8.6343 18.2096 8.5643 18.2796C8.6343 18.2796 8.5643 18.4196 8.6343 18.3496C8.6343 18.2796 8.8443 18.0697 8.7743 17.9997ZM6.8843 19.5396C7.0243 19.3296 7.0943 19.1897 7.1643 18.9796C7.0943 19.1196 6.6743 19.5396 6.7443 19.5396C6.8143 19.4696 6.8843 19.3996 6.9543 19.3996C6.8843 19.4696 6.8143 19.6096 6.8843 19.5396ZM7.9343 24.5096C7.7943 24.4396 7.4443 24.9296 7.4443 24.9996C7.5843 24.9996 7.7243 24.5796 7.9343 24.5096ZM6.0443 23.5996C6.1843 23.5296 6.5343 23.1796 6.6043 22.9696C6.4643 23.0396 6.0443 23.4596 6.0443 23.5996ZM8.0043 22.3396C7.7243 22.6196 7.6543 22.8996 8.0043 22.4796C8.1443 22.2696 8.4943 21.9896 8.4943 21.8496C8.4243 21.9896 8.2843 21.8496 8.3543 21.9896C8.3543 21.9196 8.3543 21.9196 8.4243 21.9896C8.2143 21.9896 8.1443 22.1996 8.0043 22.3396ZM5.8343 23.2496C5.7643 23.2496 5.3443 23.7396 5.4843 23.6696C5.6243 23.4596 5.9043 23.3896 5.8343 23.2496ZM35.6543 3.08965C35.6543 3.08965 35.6543 3.08965 35.7243 3.08965H35.6543ZM11.0843 20.9396C10.9443 21.0096 10.8743 21.1496 10.8043 21.2896C10.9443 21.1496 11.0143 21.0096 11.1543 20.8696C11.2943 20.7996 11.3643 20.6596 11.4343 20.5196C11.2943 20.6596 11.1543 20.7996 11.0843 20.9396ZM10.1743 22.0596C10.2443 21.9896 10.3143 21.8496 10.3843 21.7796C10.4543 21.6396 10.4543 21.5696 10.4543 21.5696C10.3843 21.7096 10.1043 21.8496 10.1743 21.9196C10.2443 21.8496 10.1743 21.9896 10.1743 22.0596ZM42.9343 7.84965C42.7943 8.12965 42.5843 8.47965 42.6543 8.61965C42.7943 8.33965 42.9343 8.05965 42.9343 7.84965ZM40.9043 7.91965C40.7643 8.19965 40.6943 8.54965 40.6243 8.75965C40.6943 8.54965 41.1843 7.70965 41.0443 7.77965C40.9743 7.91965 40.9043 8.12965 40.8343 8.12965C40.9043 7.98965 40.9743 7.77965 40.9043 7.91965ZM42.0243 2.31965C42.0243 2.10965 42.0943 2.24965 42.0243 2.31965ZM40.6243 8.12965C40.7643 7.77965 41.2543 7.14965 41.2543 6.79965C40.9743 7.14965 40.4843 8.05965 40.6243 8.12965ZM41.8843 1.82965C41.7443 1.96965 41.6043 2.17965 41.4643 2.38965C41.3243 2.66965 41.1843 2.87965 41.1843 3.01965C41.2543 2.94965 41.3943 2.73965 41.5343 2.45965C41.6743 2.24965 41.8143 1.96965 41.8843 1.82965ZM40.2743 0.639648C40.1343 0.779647 39.9243 1.40965 39.6443 1.61965C39.7843 1.68965 40.2743 0.779647 40.2743 0.639648ZM42.1643 9.80965C41.9543 10.2297 41.5343 10.8596 41.5343 11.1396C41.6743 10.7196 42.0943 10.1596 42.1643 9.80965ZM2.8943 49.0097C2.8243 49.2197 2.3343 49.4297 2.0543 49.9197C2.3343 50.1297 3.0343 49.0797 2.8943 49.0097ZM35.8643 21.4996C35.7243 21.6396 35.6543 21.7797 35.6543 21.8496C35.5843 21.9196 35.5843 22.0596 35.5843 22.0596C35.9343 21.5696 36.3543 21.0096 36.2843 20.7997C36.2843 20.8696 36.2143 20.9396 36.1443 21.0796C36.0043 21.2196 35.9343 21.3596 35.8643 21.4996ZM29.0743 31.7896C29.2843 31.5096 29.4943 31.2296 29.5643 31.0196C29.2843 31.3696 29.1443 31.5796 29.0743 31.7896ZM27.7443 33.2597C27.4643 33.3297 26.7643 34.0997 26.6243 34.4496C26.9743 34.0997 27.3943 33.5396 27.7443 33.2597ZM34.7443 23.5296C34.9543 23.1796 35.0943 22.8296 34.9543 22.7596C34.8143 23.2496 33.9043 24.6496 33.9743 24.7196C34.2543 24.3696 34.5343 23.9496 34.7443 23.5296ZM33.9743 25.2796C34.1143 25.1396 34.2543 24.8596 34.4643 24.5096C34.6743 24.2296 34.8843 23.8796 35.0943 23.6696C35.3743 23.1096 35.5143 22.8996 34.9543 23.7396C34.8843 23.7396 34.8843 23.6696 34.8843 23.5996C34.7443 23.8796 34.6743 24.4396 34.3243 24.6496C34.3943 24.6496 34.4643 24.3696 34.4643 24.3696C34.2543 24.6496 33.9743 24.9997 33.7643 25.2097C33.6243 25.4897 33.4143 25.6296 33.4143 25.4897C33.3443 25.7696 32.9943 26.1896 32.8543 26.3996C32.9943 26.2596 32.9243 26.4696 32.9243 26.5396C33.2743 25.9796 33.6943 25.4196 33.9743 25.0696C34.0443 25.1396 33.9043 25.2796 33.9743 25.2796ZM23.0543 38.0896C22.9143 38.3696 22.4943 38.7196 22.4243 38.8596C22.7743 38.5096 22.9843 38.3696 23.0543 38.0896ZM21.0243 40.1196C20.6043 40.5396 20.2543 40.8197 19.9743 41.3797C20.1143 41.2396 20.8143 40.6096 21.0243 40.1196ZM22.8443 37.9496C22.9143 37.8096 23.1243 37.5296 23.1943 37.5996C22.7743 38.0196 22.4943 38.4396 22.2843 38.5096C22.3543 38.5096 22.4943 38.2296 22.4943 38.2296C22.2143 38.5096 22.2143 38.6496 21.9343 38.8596C21.6543 39.1396 21.4443 39.4197 21.1643 39.6996C21.3743 39.6296 21.7243 39.1396 21.9343 38.8596C22.0743 39.0696 22.2143 38.5097 22.2843 38.6497C22.2843 38.6497 22.2143 38.7197 22.2843 38.7197C22.7043 38.1597 23.4043 37.5296 23.5443 37.1096C23.3343 37.3897 22.7043 37.8796 22.8443 37.9496ZM22.3543 39.8396C22.2843 39.9796 22.8443 39.2096 23.0543 38.9996C23.1243 39.0696 23.1243 39.0696 23.1943 38.9996C22.9843 38.8596 22.6343 39.5596 22.3543 39.8396ZM25.4343 34.6596C25.5743 34.5197 25.7143 34.5197 25.7143 34.3097C25.5043 34.3797 25.5743 34.5196 25.4343 34.5196C25.2943 34.7296 25.1543 34.9396 24.9443 35.1496C25.0843 35.1496 25.2943 34.7996 25.4343 34.6596ZM25.0143 35.4296C24.8043 35.6396 24.3843 35.9896 24.3843 36.1996C24.7343 35.8497 24.9443 35.7096 25.0143 35.4296ZM31.2443 28.6396C31.4543 28.4996 31.6643 28.0796 31.9443 27.9396C32.0843 27.5896 32.7843 26.9597 32.6443 26.7496C32.5743 26.8896 32.2243 27.2396 32.0143 27.5196C31.7343 27.8696 31.5243 28.0796 31.7343 27.9396C31.5943 28.1496 31.2443 28.5696 31.0343 28.8496C30.8243 29.0596 30.7543 29.1996 31.2443 28.6396ZM20.1843 40.6796C19.9043 40.8896 19.7643 41.1697 19.6943 41.3097C19.9743 41.0297 20.1143 40.8196 20.1843 40.6796ZM46.0143 45.2296C45.9443 45.2296 45.8043 45.2296 45.7343 45.2296C45.5943 45.2296 45.5243 45.2296 45.3843 45.2296C45.1743 45.2296 45.0343 45.2296 45.0343 45.2296C45.3143 45.2296 45.8043 45.3696 46.0143 45.2296ZM20.6043 50.3396C20.4643 50.4096 20.3943 50.4096 20.3243 50.4796C20.2543 50.5496 20.1843 50.5497 20.1143 50.6197C20.3243 50.5497 20.5343 50.4796 20.6043 50.3396ZM45.5943 45.9996C45.7343 45.9996 45.8743 45.9996 45.8743 45.9996C45.7343 45.9296 45.5943 45.9296 45.5943 45.9296C45.6643 45.9296 45.8743 45.9296 45.7343 45.8596C45.5243 45.9296 45.2443 45.9296 45.1043 45.9996C45.1743 45.9996 45.3843 45.9996 45.5943 45.9996ZM51.9643 46.2096C52.0343 46.2096 52.0343 46.2096 52.1043 46.1396C51.8243 46.1396 51.6143 46.0696 51.3343 45.9996C51.1943 45.9996 51.1243 45.9996 50.9843 45.9296C50.9143 45.9296 50.8443 45.9296 50.7743 45.9296C50.7043 45.9296 50.7043 45.8596 50.6343 45.8596C50.1443 45.7896 49.6543 45.6497 49.2343 45.5097C48.8143 45.4397 48.3943 45.2996 47.9743 45.1596C47.8343 45.1596 47.6243 45.0896 47.4843 45.0196C47.2743 44.9496 47.1343 44.8797 46.9943 44.8097C46.7143 44.8097 46.5043 44.8097 46.2943 44.8097C46.0143 44.8097 45.8043 44.7397 45.5943 44.6697C45.1743 44.5997 44.7543 44.5296 44.4043 44.4596C44.6143 44.3896 45.0343 44.4597 45.4543 44.5297C45.8043 44.5997 46.0843 44.6697 45.8743 44.5997C46.5043 44.7397 47.6943 44.8797 47.9043 44.8797C47.8343 44.8096 47.6943 44.8097 47.4843 44.8097C47.2743 44.7397 47.1343 44.7397 47.0643 44.6697C48.9543 44.9497 50.2143 45.3697 51.7543 45.5797C51.8243 45.6497 51.6843 45.5097 51.8243 45.5097C52.2443 45.6497 52.1043 45.5097 51.7543 45.5097C50.4243 45.2297 48.8143 44.8796 47.6943 44.4596C47.8343 44.3896 48.1843 44.4597 48.5343 44.5297C48.8843 44.5997 49.2343 44.6697 49.5143 44.7397C49.8643 44.8097 49.5143 44.6697 49.3743 44.6697C49.1643 44.5997 48.7443 44.5296 48.3943 44.4596C47.9743 44.3896 47.5543 44.2496 47.3443 44.1796C47.4143 44.1796 47.4843 44.1796 47.6243 44.1796C47.6943 44.2496 47.7643 44.2496 47.7643 44.1796C47.6243 44.1796 47.4843 44.1097 47.3443 44.0396C47.2043 44.0396 47.1343 44.0397 47.0643 43.9697C47.2743 43.8296 48.0443 43.9697 47.3443 43.9697C47.6243 43.9697 47.8343 44.0396 48.0443 44.1096C48.1843 44.1796 48.3943 44.2496 48.4643 44.1796C48.0443 44.0396 48.1143 44.1097 47.8343 43.8997C47.9743 43.9697 48.4643 44.0397 48.2543 43.8997C48.1143 43.8997 47.9743 43.8997 47.8343 43.8997C47.7643 43.8997 47.6943 43.8997 47.6243 43.8997C47.5543 43.8997 47.4843 43.8997 47.4143 43.8297C47.2043 43.7597 46.9243 43.6897 46.5743 43.6197C46.3643 43.6197 46.1543 43.5496 45.9443 43.5496C45.7343 43.4796 45.5243 43.4796 45.3143 43.4096C45.1043 43.4096 44.8243 43.3396 44.6143 43.3396C44.4743 43.3396 44.4043 43.2696 44.2643 43.2696C44.1943 43.2696 44.0543 43.2696 43.9843 43.1996C43.5643 43.1296 43.1443 43.0597 42.9343 42.9897C43.1443 42.9897 43.4243 42.9897 43.6343 43.0597C43.7743 43.0597 43.9143 43.0597 44.0543 43.0597C44.1943 43.0597 44.3343 43.1297 44.4043 43.1297C44.8943 43.1297 45.3843 43.1996 45.6643 43.1996C45.1743 43.0596 45.8743 43.1297 45.8743 43.0597C45.5243 42.9897 45.1743 42.9897 45.0343 42.8497C45.3143 42.8497 45.5943 42.9197 45.8743 42.9197C46.2243 42.9897 46.5043 43.0597 46.7843 43.0597C47.0643 43.1297 47.3443 43.1996 47.6243 43.1996C47.9043 43.2696 48.1843 43.3396 48.4643 43.4096C48.6743 43.3396 48.1143 43.2696 47.9743 43.2696C47.9043 43.1997 47.8343 43.1996 47.6943 43.1996C47.6243 43.1296 47.5543 43.1297 47.4143 43.1297C47.2043 43.0596 46.9943 43.0597 46.7843 42.9897C46.5743 42.9897 46.3643 42.9897 46.1543 42.9197C45.9443 42.9197 45.7343 42.9197 45.4543 42.8497C45.0343 42.8497 44.6143 42.7797 44.1943 42.7097C43.8443 42.6397 43.4943 42.5696 43.2143 42.4296C42.9343 42.5696 42.6543 42.2896 42.3743 42.2896C42.4443 42.2896 42.5843 42.2896 42.6543 42.2896C42.7243 42.2896 42.7943 42.2896 42.8643 42.2896C43.0043 42.2896 43.1443 42.2896 43.3543 42.3596C43.6343 42.3596 43.9143 42.4296 44.1943 42.4296C44.6843 42.3596 43.6343 42.2896 43.5643 42.2896C43.2843 42.2196 42.8643 42.1497 42.5143 42.0797C42.0943 42.0097 41.7443 41.8696 41.4643 41.8696C41.6743 41.8696 41.8843 41.8697 42.1643 41.9397C42.3743 41.9397 42.6543 41.9397 43.0043 42.0097C43.2843 42.0097 43.7043 42.0097 43.2143 41.9397H42.7243C42.5843 41.9397 42.4443 41.8696 42.3043 41.8696C42.0943 41.7996 41.8143 41.7996 41.5343 41.7996C41.3943 41.7296 41.2543 41.7296 41.0443 41.7296C40.9043 41.7296 40.6943 41.7296 40.5543 41.7296C40.2043 41.7296 39.9243 41.7296 39.6443 41.6596C39.5043 41.6596 39.3643 41.6596 39.2943 41.6596C39.1543 41.5896 39.0843 41.5896 39.0143 41.5896C39.0843 41.5896 39.2943 41.5196 39.2243 41.5196C38.8043 41.5196 38.3143 41.5197 38.0343 41.3797C38.3843 41.3797 38.8043 41.3797 39.1543 41.3797C39.5043 41.4497 39.8543 41.4496 39.9943 41.5196C40.2043 41.5196 40.5543 41.4497 40.6943 41.3797C40.7643 41.3797 40.9043 41.3797 41.0443 41.3797C41.2543 41.4497 41.4643 41.4496 41.6043 41.4496C42.0243 41.5196 42.4443 41.5196 42.6543 41.5196C42.5143 41.5196 42.3043 41.5196 42.3743 41.4496C42.5143 41.4496 42.5843 41.4496 42.7243 41.4496C42.7943 41.4496 42.9343 41.5196 43.0043 41.5196C43.2843 41.5196 43.4943 41.5896 43.7743 41.5896C43.9843 41.6596 44.2643 41.6596 44.5443 41.6596C44.7543 41.6596 45.0343 41.6596 45.3143 41.6596C45.0343 41.5896 44.7543 41.5896 44.5443 41.5196C44.2643 41.5196 43.9843 41.5196 43.7043 41.4496C43.1443 41.3796 42.6543 41.3097 42.1643 41.2397C43.3543 41.3097 44.7543 41.5897 45.4543 41.3097C44.8943 41.2397 44.4743 41.2397 43.9843 41.2397C43.9843 41.1697 43.9843 41.0997 43.8443 41.0997C43.3543 40.9597 42.9343 40.9596 42.5843 40.9596C42.2343 40.9596 41.8843 40.9596 41.5343 40.8196C41.6743 40.8196 41.9543 40.8196 42.0943 40.7496C41.6043 40.6796 41.1843 40.7496 40.9743 40.6796C41.1843 40.6097 41.8843 40.6796 41.8843 40.6096C41.5343 40.6096 41.1143 40.5396 40.9043 40.6096C40.9043 40.5396 40.9743 40.4697 40.9043 40.4697C40.5543 40.4697 40.0643 40.4697 39.6443 40.4697C39.5043 40.4697 39.4343 40.4697 39.2943 40.3997C39.2243 40.3997 39.0843 40.3997 39.0143 40.3997C38.8043 40.3997 38.5943 40.3997 38.3843 40.3997C38.2443 40.3997 38.0343 40.3997 37.8243 40.3297C37.7543 40.3297 37.6143 40.3297 37.5443 40.3297C37.4743 40.3297 37.3343 40.3297 37.2643 40.3297C36.8443 40.3297 36.4943 40.3297 36.0743 40.3297C35.8643 40.3297 35.6543 40.3297 35.4443 40.3297C35.2343 40.3297 35.0943 40.3297 34.8843 40.3297C34.6743 40.3297 34.4643 40.3297 34.2543 40.3297C34.0443 40.3297 33.8343 40.3297 33.6943 40.3297C33.2743 40.3997 32.8543 40.3997 32.4343 40.3997C32.0843 40.3997 31.6643 40.4697 31.2443 40.4697C30.8243 40.5397 30.4743 40.5396 30.0543 40.6096C29.8443 40.6096 29.6343 40.6097 29.4243 40.6796H28.8643C28.1643 40.8196 27.4643 40.8896 26.7643 40.9596C26.4143 41.0296 26.1343 41.0997 25.7843 41.1697C25.4343 41.1697 25.1543 41.2397 24.8043 41.3097C24.1743 41.4497 23.5443 41.6596 22.9143 41.7996C22.5643 41.8696 22.2843 41.9397 21.9343 42.0797C21.6543 42.1497 21.3043 42.2196 21.0243 42.3596C20.6743 42.4296 20.3943 42.5696 20.0443 42.6396C19.7643 42.7796 19.4143 42.8497 19.1343 42.9897C18.9243 43.0597 18.6443 43.1296 18.4343 43.1996C18.7143 42.8496 18.9943 42.4997 19.1343 42.2197C18.8543 42.5697 18.5043 42.9896 18.1543 43.3396C18.0843 43.3396 17.9443 43.4096 17.8743 43.4096C18.2943 42.9196 18.7843 42.3597 19.1343 42.0097C19.0643 41.9397 19.2743 41.7296 19.2743 41.5896C19.6943 41.1696 21.0943 39.2096 21.7943 38.7896C22.2843 37.8797 23.7543 36.5496 24.3143 35.7096C24.1043 35.9896 23.8943 36.2696 23.6843 36.3396C24.7343 35.2196 25.5743 34.2397 26.4843 33.2597C27.1843 32.4897 27.8843 31.5096 28.6543 30.9496C28.1643 31.7196 27.4643 32.2796 26.9743 32.9796C27.0443 32.9096 27.1843 32.8396 27.1843 32.9096C26.2043 34.0996 25.7843 34.5897 25.0843 35.2197C25.6443 34.7996 26.2743 34.0296 26.9743 33.2597C27.6043 32.4897 28.3043 31.7196 28.8643 31.3696C28.7943 31.2296 29.0743 31.0197 29.0743 30.8797C28.3743 31.5796 27.9543 32.1396 27.2543 32.8396C27.8843 31.9996 28.7943 31.0196 29.7043 29.9696C30.6143 28.9196 31.5243 27.8696 32.2243 26.8896C32.2243 26.8896 32.1543 27.0296 32.2943 26.8196C32.9243 26.0496 33.2043 25.6996 33.7643 24.9296C33.9043 24.5796 34.1143 24.1596 34.3243 23.7396C34.4643 23.5296 34.6043 23.2496 34.7443 23.0396C34.8143 22.8996 34.8843 22.7596 34.9543 22.6896C35.0243 22.5496 35.0943 22.4096 35.1643 22.2696C35.7943 21.2896 36.4943 20.2396 37.0543 19.4696C36.8443 19.8196 36.4943 20.3096 36.6343 20.3796C37.4743 19.1196 37.9643 17.7196 38.5943 16.5996C38.4543 16.8096 38.3143 17.2296 38.2443 17.2296C38.8743 16.1097 39.2943 15.1996 39.7143 14.4996C40.0643 13.7996 40.3443 13.2396 40.6943 12.6096C40.9043 12.3296 41.3943 11.2796 40.9743 12.0496C40.7643 12.3996 40.4843 13.0296 40.2743 13.2396C40.9743 11.8397 41.5343 10.9996 41.9543 9.80965C41.6743 10.2297 41.9543 9.73965 41.8843 9.66965C41.0443 11.1396 40.2743 12.5396 39.5043 13.5896C39.6443 13.3096 40.1343 12.4696 39.9943 12.5396C39.7843 12.9596 39.5043 13.5896 39.2943 13.7997C40.6243 11.4196 42.1643 8.40965 43.2143 6.44965C43.2143 6.37965 43.7743 5.25965 43.4943 5.67965C42.3043 7.28965 40.9743 10.2297 39.9943 12.3296C39.9243 11.9796 39.9243 12.4696 39.7143 12.4696C39.4343 13.2396 38.8743 14.0096 38.3143 14.8496C39.0843 13.3796 40.3443 11.4196 40.8343 10.2297C40.6243 10.5797 40.4843 10.9296 40.2743 10.9996C40.6943 10.2996 41.1143 9.66965 41.0443 9.31965C40.4143 10.4396 39.8543 11.5596 39.1543 12.6096C39.5743 11.8397 39.8543 11.2096 39.2243 12.3296C38.7343 13.2396 38.1743 14.4996 37.6843 14.9896C38.1743 13.9396 38.9443 12.6796 39.3643 11.8397H39.4343C39.4343 11.7696 39.4343 11.7696 39.4343 11.6996C39.4343 11.6996 39.4343 11.6296 39.4343 11.5596C39.4343 11.6296 39.4343 11.6996 39.3643 11.6996C39.3643 11.6996 39.3643 11.6996 39.2943 11.6996C39.5743 11.3496 39.8543 10.5796 39.7143 10.8596C39.5043 11.0696 39.3643 11.3496 39.2243 11.6296C39.2243 11.6296 39.2243 11.6296 39.1543 11.6296C39.5043 11.0696 39.7843 10.5796 39.8543 10.1596C39.7143 10.2996 39.5743 10.7196 39.5043 10.7196C39.6443 10.5096 39.7843 10.2296 39.7843 10.0896C39.9243 10.0196 40.0643 9.94965 40.2043 9.94965C40.1343 9.87965 39.9943 9.94965 39.9943 9.87965C40.3443 9.59965 40.4143 9.31965 40.4143 9.03965C40.4143 8.75965 40.3443 8.47965 40.5543 8.19965C40.2743 7.98965 40.4143 7.84965 40.3443 7.70965C40.3443 7.63965 40.3443 7.56965 40.4143 7.49965C40.4843 7.49965 40.5543 7.49965 40.6243 7.42965C40.5543 7.35965 40.4843 7.35965 40.4143 7.35965C40.4143 7.35965 40.4143 7.35965 40.3443 7.28965C40.5543 6.86965 40.6943 6.16965 41.1143 5.74965C41.1143 5.81965 40.8343 6.37965 40.9743 6.16965C41.1843 5.81965 41.1143 5.67965 41.3943 5.18965C41.4643 5.25965 41.3943 5.39965 41.3943 5.39965C41.8843 4.55965 41.7443 4.41965 40.6243 5.88965C40.6243 5.88965 40.6243 5.88965 40.6243 5.81965C40.8343 5.32965 41.1143 4.83965 41.1843 4.69965C40.9743 4.83965 40.6943 5.53965 40.4843 5.74965C41.1143 4.55965 41.7443 3.57965 42.3043 2.66965L40.6243 4.83965C40.6243 4.62965 40.9043 4.13965 41.2543 3.57965C41.3243 3.57965 41.3943 3.57965 41.4643 3.50965C41.3943 3.50965 41.3943 3.43965 41.3243 3.43965C41.5343 3.15965 41.7443 2.80965 41.8843 2.52965C42.1643 2.10965 41.8143 2.59965 41.7443 2.80965C41.6043 2.94965 41.4643 3.15965 41.3243 3.43965C41.1143 3.29965 41.0443 3.08965 40.7643 3.01965C40.6943 3.01965 40.7643 3.22965 40.6243 3.22965C40.4143 3.22965 40.2043 3.15965 39.9943 3.15965C39.7843 3.08965 39.5743 3.08965 39.3643 3.01965C39.1543 3.01965 38.9443 2.94965 38.7343 2.94965C38.5943 2.94965 38.5243 2.94965 38.3843 2.94965C38.3143 2.94965 38.1743 2.94965 38.1043 2.94965C38.3843 2.94965 38.6643 2.94965 38.8743 3.01965C39.1543 3.08965 39.3643 3.08965 39.5043 3.22965C39.1543 3.15965 38.8043 3.15965 38.5243 3.15965C38.3843 3.15965 38.1743 3.15965 38.0343 3.15965C37.8943 3.15965 37.7543 3.15965 37.6143 3.15965C37.2643 3.15965 36.9843 3.15965 36.6343 3.15965C36.3543 3.15965 36.0043 3.15965 35.7243 3.08965C35.1643 3.29965 34.6743 3.36965 33.8343 3.57965C34.2543 3.50965 34.7443 3.50965 35.2343 3.43965C35.6543 3.43965 36.1443 3.36965 36.6343 3.36965C36.8443 3.36965 37.0543 3.36965 37.2643 3.43965C37.4743 3.43965 37.6843 3.43965 37.8943 3.50965C38.0343 3.50965 38.2443 3.57965 38.3843 3.64965C38.5943 3.64965 38.7343 3.71965 38.8043 3.85965C38.6643 3.85965 38.4543 3.64965 38.3143 3.78965C38.5943 3.92965 39.0143 3.92965 39.3643 3.99965C39.3643 3.85965 39.5043 3.78965 39.7143 3.78965C39.7843 3.78965 39.7843 3.78965 39.7843 3.78965C39.7843 3.85965 39.7143 3.92965 39.6443 3.99965C39.6443 3.99965 39.6443 3.99965 39.5743 3.99965C39.1543 3.99965 38.8043 3.92965 38.3843 3.92965C37.9643 3.85965 37.6143 3.85965 37.1943 3.78965C36.8443 3.71965 36.4243 3.71965 36.0043 3.64965C35.7943 3.64965 35.5843 3.64965 35.3743 3.64965C35.1643 3.64965 34.9543 3.64965 34.6743 3.64965C34.7443 3.57965 34.9543 3.57965 34.9543 3.50965C34.6743 3.50965 34.5343 3.64965 34.1843 3.57965C34.1143 3.78965 34.3943 3.57965 34.3943 3.71965C34.2543 3.71965 34.1143 3.71965 33.9743 3.71965C33.8343 3.78965 33.6943 3.78965 33.5543 3.78965C33.2043 3.85965 32.9243 3.85965 32.5743 3.85965C32.2943 3.85965 31.9443 3.92965 31.6643 3.92965C31.3143 3.92965 31.0343 3.92965 30.7543 3.99965C30.8243 3.92965 30.9643 3.99965 30.9643 3.92965C30.7543 3.92965 30.5443 3.99965 30.2643 4.06965C30.0543 4.06965 29.8443 4.13965 29.6343 4.13965C29.4943 4.20965 29.4243 4.20965 29.2843 4.20965C29.2143 4.27965 29.1443 4.27965 29.0043 4.34965C28.8643 4.34965 28.6543 4.41965 28.5143 4.48965C28.7243 4.48965 28.8643 4.41965 29.0743 4.41965C29.2143 4.41965 29.4243 4.34965 29.5643 4.34965C29.9143 4.27965 30.1943 4.27965 30.4043 4.27965C30.1243 4.41965 29.7743 4.48965 29.4243 4.55965C29.0743 4.62965 28.7243 4.62965 28.4443 4.69965C28.4443 4.76965 28.2343 4.83965 28.1643 4.90965C28.1643 4.90965 28.0943 4.90965 28.0243 4.90965C27.8843 4.90965 27.8143 4.90965 27.7443 4.97965C27.5343 5.04965 27.2543 5.04965 26.9743 5.11965C26.9043 5.18965 26.7643 5.18965 26.6243 5.25965C26.4843 5.25965 26.4143 5.25965 26.2743 5.32965C26.0643 5.32965 25.8543 5.39965 25.7143 5.32965C25.5743 5.46965 25.3643 5.53965 25.0843 5.60965C24.8743 5.67965 24.6643 5.74965 24.3843 5.81965C24.1743 5.81965 23.8943 5.88965 23.6843 5.95965C23.4743 6.02965 23.2643 6.09965 23.1243 6.16965C23.3343 6.09965 23.5443 6.02965 23.6843 6.09965C23.1943 6.23965 22.7743 6.37965 22.2843 6.51965C21.8643 6.65965 21.4443 6.79965 20.9543 6.93965C20.6043 7.07965 20.3243 7.21965 19.9743 7.35965C19.9043 7.42965 19.7643 7.42965 19.6943 7.42965C19.6243 7.49965 19.5543 7.49965 19.4843 7.56965C19.2743 7.56965 19.1343 7.63965 18.9243 7.63965C19.0643 7.56965 19.2043 7.49965 19.3443 7.42965C19.4843 7.35965 19.6243 7.28965 19.7643 7.21965C20.0443 7.14965 20.3243 7.00965 20.6043 6.86965C20.5343 6.86965 20.4643 6.93965 20.3943 6.86965C20.8843 6.65965 21.2343 6.51965 21.5843 6.37965C21.7243 6.30965 21.8643 6.30965 22.0043 6.23965C22.1443 6.23965 22.2843 6.16965 22.4243 6.09965C22.3543 6.09965 22.2143 6.16965 22.0743 6.16965C21.9343 6.23965 21.7943 6.23965 21.5843 6.30965C21.4443 6.37965 21.3043 6.37965 21.1643 6.44965C21.0943 6.51965 20.9543 6.51965 20.8843 6.58965C20.8143 6.58965 20.7443 6.58965 20.6743 6.65965C20.3243 6.79965 20.0443 6.93965 19.6943 7.00965C19.6243 7.07965 19.5543 7.07965 19.4843 7.07965C19.4143 7.14965 19.3443 7.14965 19.2743 7.14965C19.1343 7.21965 18.9943 7.21965 18.9243 7.21965C18.9243 7.35965 18.7143 7.42965 18.6443 7.49965C18.9943 7.35965 19.2743 7.28965 19.4843 7.14965C19.7643 7.07965 20.0443 6.93965 20.3943 6.86965C19.6943 7.21965 18.8543 7.56965 18.0143 7.91965C17.5943 8.12965 17.1743 8.26965 16.7543 8.47965C16.4043 8.68965 15.9843 8.96965 15.7043 9.17965C15.7043 9.10965 15.7043 9.03965 15.5643 9.17965C15.0043 9.52965 14.7943 9.66965 14.2343 10.0196C14.0943 10.2297 13.8843 10.4396 13.6743 10.7196C13.5343 10.7896 13.3943 10.9296 13.2543 11.0696C13.1143 11.1396 12.9743 11.2796 12.8343 11.4196C12.5543 11.6296 12.2743 11.8397 11.9243 12.1196C11.6443 12.3296 11.3643 12.5396 11.0843 12.6796C11.2943 12.5396 11.6443 12.3296 11.5743 12.1896C11.3643 12.3296 11.1543 12.4696 11.0143 12.6096C10.8043 12.7496 10.6643 12.9596 10.4543 13.0996C10.1743 13.4497 9.8243 13.7996 9.5443 14.0796C9.6843 14.0096 9.8243 13.7296 9.8943 13.7997C9.5443 14.0796 9.3343 14.2896 9.0543 14.5696C8.8443 14.7797 8.6343 14.9896 8.4243 15.1297C8.0043 15.4796 7.7243 15.8296 7.3743 16.1096C7.3043 16.1796 7.2343 16.2496 7.1643 16.2496C7.0943 16.3196 7.0243 16.3896 7.0243 16.4596C6.8843 16.5996 6.8843 16.5996 7.0943 16.3897C7.3043 16.2496 7.5843 15.8996 7.7943 15.8296C7.6543 16.0397 7.4443 16.1796 7.3043 16.3196C7.1643 16.5296 7.0243 16.6696 6.8843 16.8096C6.6043 17.0896 6.3243 17.3697 6.1143 17.7197C6.3243 17.5096 6.1143 17.7896 6.1143 17.7896C6.5343 17.4396 6.9543 17.0897 7.3043 16.7397C7.5143 16.5996 7.7243 16.3897 7.9343 16.2496C8.0743 16.1096 8.2843 16.0397 8.4943 15.8996C8.3543 16.0397 7.7943 16.4596 7.9343 16.4596C8.2143 16.2496 8.4943 15.8996 8.7043 15.8296C8.3543 16.1096 8.0043 16.4596 7.6543 16.8096C7.3043 17.0896 6.9543 17.4396 6.6043 17.7896C6.6043 17.8596 6.5343 17.9296 6.4643 17.9296C6.4643 17.9997 6.3943 17.9996 6.3943 18.0696C6.3243 18.1396 6.1843 18.2796 6.1143 18.3496C5.9743 18.4896 5.8343 18.6996 5.6943 18.8396C5.3443 19.1896 5.1343 19.4696 4.8543 19.7496C4.8543 19.8196 4.3643 20.4496 4.5743 20.1696C4.8543 20.0296 5.1343 19.7496 5.4143 19.4696C5.5543 19.3296 5.6943 19.1896 5.8343 19.0496C5.9743 18.8396 6.1143 18.6996 6.2543 18.5596C6.3943 18.3496 6.5343 18.2096 6.7443 18.0696C6.8843 17.8596 7.0243 17.7196 7.1643 17.5796C7.3043 17.3696 7.4443 17.2296 7.5143 17.0896C7.5843 17.0197 7.6543 16.9496 7.7243 16.8796C7.7943 16.8096 7.8643 16.7397 7.9343 16.6696C8.0043 16.9496 8.0043 16.5296 8.2143 16.5996C8.4943 16.1796 9.0543 15.8996 9.5443 15.4796C9.4743 15.5496 9.3343 15.6896 9.2643 15.7597C9.1243 15.8296 9.0543 15.9696 8.9143 16.0396C8.7043 16.2496 8.4243 16.4596 8.2143 16.6696C8.0743 16.8096 8.0043 16.8796 7.8643 16.9496C7.7943 17.0897 7.6543 17.1596 7.5843 17.2996C7.3743 17.5096 7.2343 17.6497 7.0943 17.8596C7.2343 17.6497 7.4443 17.4396 7.5843 17.4396C7.2343 17.8596 6.8143 18.1396 6.8143 18.4196C7.0943 18.1396 7.4443 17.8596 7.7243 17.5796C7.8643 17.4396 8.0043 17.2996 8.2143 17.1596C8.3543 17.0197 8.4943 16.8796 8.7043 16.8096C8.2143 17.1596 8.0043 17.5096 8.5643 16.9496C8.8443 16.7397 9.1243 16.4596 9.3343 16.1796C9.6143 15.9696 9.8943 15.7596 10.1043 15.6896C9.4743 16.3196 8.6343 16.9496 8.2843 17.3696C8.3543 17.3696 8.4243 17.2996 8.4943 17.3696C8.3543 17.4396 8.2143 17.5796 8.1443 17.7197C8.0043 17.8596 8.0043 17.9296 8.0743 17.8596C8.1443 17.7896 8.2843 17.7196 8.3543 17.6497C8.4243 17.5096 8.5643 17.4396 8.6343 17.2996C8.8443 17.0896 9.0543 16.8796 9.3343 16.7397C9.0543 17.0197 8.7743 17.2996 8.4943 17.5796C8.2143 17.7896 8.0043 18.0696 7.8643 18.2796C8.0043 18.2096 8.1443 17.9997 8.2143 17.9997C8.0743 18.2097 7.9343 18.3496 7.9343 18.4196C8.1443 18.2096 8.4243 17.9997 8.6343 17.7197C8.9143 17.5096 9.1243 17.2996 9.1943 17.0896C9.1943 17.1596 8.7743 17.5796 8.5643 17.6497C8.7743 17.4396 8.9843 17.1596 9.1943 16.9496C9.3343 16.8096 9.4743 16.7396 9.5443 16.5996C9.6843 16.5296 9.8243 16.4596 9.9643 16.3897C9.8243 16.5296 9.7543 16.5996 9.6143 16.6696C9.4743 16.7397 9.4043 16.8796 9.3343 17.0196C9.4043 16.9496 9.5443 16.7397 9.6143 16.8796C9.5443 17.0197 9.2643 17.0197 9.4043 17.0896C9.5443 17.0197 9.6843 16.8796 9.7543 16.7397C9.8943 16.6696 10.0343 16.5996 10.1043 16.5996C9.8243 16.8096 9.6143 17.0197 9.4743 17.2296C9.4043 17.2996 9.3343 17.1596 9.2643 17.2996C9.1243 17.5796 8.7043 17.7896 8.6343 17.9997C8.4943 18.1396 8.3543 18.2796 8.2143 18.4196C8.0743 18.4896 8.1443 18.5597 8.2143 18.4896C8.2843 18.3496 8.4243 18.2796 8.4943 18.2097C8.7743 17.9296 9.0543 17.6497 9.2643 17.4396C9.5443 17.1596 9.8243 16.9496 10.0343 16.8796C9.9643 17.0197 9.7543 17.1596 9.7543 17.2296C9.8243 17.1596 9.9643 17.0896 10.0343 17.0196C10.1043 16.9496 10.1743 16.9496 10.3143 16.8796C10.4543 16.7397 10.6643 16.5996 10.8043 16.4596C11.0143 16.3196 11.1543 16.1796 11.2943 16.0396C11.5043 15.9696 11.6443 15.8296 11.7843 15.7597C11.3643 16.2496 10.9443 16.5996 10.5243 16.8796C10.3843 17.0197 10.3143 17.0896 10.1743 17.1596C10.1043 17.2296 9.9643 17.3697 9.8943 17.4396C9.6843 17.5796 9.5443 17.7896 9.4043 17.9997C9.4743 17.7896 9.4043 18.1396 9.2643 18.0696C9.2643 17.9996 9.5443 17.8596 9.4043 17.7896C9.0543 17.9996 9.1943 18.4196 8.7743 18.3496C8.8443 18.6296 8.5643 18.9096 8.2143 19.2596C8.1443 19.3296 8.0743 19.3996 7.9343 19.4696C7.8643 19.5396 7.7943 19.6096 7.7243 19.7496C7.5843 19.8896 7.3743 20.0296 7.3043 20.1696C7.2343 20.3096 7.1643 20.4496 7.0243 20.6596C6.9543 20.7996 6.8143 20.9396 6.6043 21.0096C6.6043 20.9396 6.8843 20.6596 6.7443 20.7296C6.6043 20.9396 6.6043 21.0796 6.3943 21.2896C6.3243 21.2896 6.3943 21.2196 6.3943 21.1496C6.2543 21.2896 6.1843 21.4296 6.0443 21.5696C5.9043 21.7096 5.7643 21.8496 5.6243 21.9896C5.2743 22.3396 4.9943 22.6896 4.6443 23.0396C4.0143 23.7396 3.3843 24.4396 3.1743 24.8596C2.7543 25.4196 3.4543 24.5796 3.6643 24.3696C3.7343 24.3696 3.6643 24.4396 3.7343 24.4396C4.7843 22.9696 6.1143 21.7096 7.0943 21.0796C7.2343 20.8696 7.3743 20.7296 7.5143 20.5896C7.5843 20.4496 7.7943 20.3096 7.9343 20.1696C8.0743 20.0296 8.2143 19.8896 8.3543 19.7496C8.4943 19.6096 8.6343 19.5396 8.7743 19.4696C8.6343 19.8196 7.5143 20.5196 7.8643 20.4496C7.7243 20.5196 7.5843 20.5896 7.4443 20.7296C7.3743 20.7996 7.3743 20.8696 7.3043 20.9396C7.2343 21.0096 7.1643 21.0796 7.0943 21.1496C6.8143 21.4296 6.6743 21.7096 6.6043 21.7796C6.7443 21.7096 7.0243 21.2896 7.1643 21.2196C6.8843 21.5696 6.6043 21.8496 6.3943 22.1297C6.2543 22.1996 6.1143 22.3396 5.9743 22.4796C5.8343 22.6196 5.7643 22.7597 5.6243 22.8997C5.4843 22.9696 5.4143 23.1096 5.2743 23.2496C5.2043 23.3896 5.0643 23.4596 4.9243 23.5996C4.7143 23.8796 4.5743 24.1596 4.3643 24.4396C4.2943 24.5097 4.4343 24.4396 4.3643 24.5096C4.0843 24.8596 4.2943 24.7896 4.4343 24.5096C4.6443 24.2296 4.8543 24.0196 5.0643 23.7396C5.0643 23.7396 5.1343 23.6696 5.2043 23.5996L5.3443 23.3897C5.4843 23.2497 5.5543 23.1796 5.6943 23.0396C5.9043 22.8296 6.1843 22.6196 6.3943 22.4096C6.6043 22.1996 6.8143 21.9896 7.0243 21.8496C7.0243 21.9896 6.8843 22.1996 6.6043 22.4096C6.3943 22.6196 6.1843 22.8997 5.9743 23.1096C5.7643 23.3196 6.0443 23.1096 6.1143 22.9696C6.1843 22.8996 6.3243 22.8296 6.3943 22.7596C6.4643 22.6896 6.5343 22.6196 6.6043 22.5496C6.6043 22.4796 6.6743 22.4097 6.7443 22.3396C7.0243 22.1296 7.2343 21.8496 7.4443 21.7796C7.4443 21.8496 7.1643 21.9896 7.2343 22.0596C7.4443 21.8496 7.6543 21.7096 7.7243 21.6396C7.7243 21.8496 7.3043 22.3396 7.5843 21.8496C7.3743 22.1996 6.8843 22.3396 6.9543 22.5496C7.2343 22.3396 7.1643 22.3396 7.4443 22.1996C7.3743 22.3396 7.0243 22.6196 7.3043 22.5496C7.3743 22.3396 7.5143 22.1296 7.7243 21.9896C7.9343 21.7796 8.4943 21.2896 9.0543 20.7296C9.1943 20.5896 9.3343 20.4496 9.4743 20.3097C9.6843 20.1697 9.8243 20.0296 9.9643 19.9596C10.1043 19.8196 10.2443 19.6796 10.3843 19.6096C10.4543 19.5396 10.5943 19.4696 10.7343 19.3996C10.3843 19.6796 10.0343 20.0296 9.7543 20.3097C9.6143 20.4496 9.4743 20.5896 9.3343 20.7296C9.2643 20.8696 9.1243 21.0096 9.0543 21.1496C9.4043 20.7996 8.9843 21.2897 9.0543 21.3596C9.2643 21.1497 9.4743 20.9396 9.6843 20.8696C9.6143 20.9396 9.4743 21.0796 9.4043 21.1496C9.3343 21.2196 9.2643 21.3596 9.1243 21.4296C8.9843 21.6396 8.7743 21.7796 8.6343 21.9896C8.4243 22.1296 8.2843 22.3396 8.1443 22.4796C7.9343 22.6896 7.7943 22.8296 7.5843 23.0396C7.5143 23.1796 7.8643 22.8296 7.9343 22.7596C8.0043 22.6196 8.1443 22.5496 8.2843 22.4096C8.4243 22.2696 8.4943 22.1296 8.6343 21.9896C8.9143 21.7796 9.1943 21.4996 9.4043 21.2196C9.4743 21.1496 9.5443 21.0796 9.6143 21.0096C9.6843 20.9396 9.7543 20.8696 9.8243 20.7997C9.9643 20.6596 10.0343 20.5196 10.1743 20.4496C10.3143 20.3096 10.4543 20.2396 10.5943 20.1696C10.6643 20.0996 10.8043 20.0296 10.9443 19.9596C11.0143 19.7496 11.3643 19.6797 11.5043 19.5396C11.3643 19.7496 11.1543 19.9596 10.9443 20.0996C10.7343 20.2396 10.5243 20.4496 10.4543 20.6596C10.1743 20.9396 10.8043 20.3097 10.8043 20.3097C11.0143 20.0996 11.2943 19.9596 11.5743 19.7496C11.8543 19.6096 12.1343 19.3996 12.3443 19.2596C12.2043 19.3996 12.0643 19.5396 11.9243 19.6796C11.7143 19.8196 11.5743 19.9596 11.3643 20.0996C11.2243 20.2396 10.9443 20.5896 11.2943 20.2396C11.5043 20.0996 11.6443 19.9596 11.8543 19.7496C11.9243 19.7496 11.9943 19.6796 12.0643 19.6096C12.1343 19.5396 12.2743 19.4696 12.3443 19.3996C12.5543 19.1896 12.7643 19.0496 12.9743 18.8396C13.3243 18.4896 13.7443 18.1396 13.9543 18.1396C13.9543 18.1396 13.8143 18.2796 13.8843 18.2796C14.0243 18.2096 14.1643 18.0696 14.3043 17.9296C14.3743 17.9296 14.4443 17.8596 14.5143 17.7896C14.5843 17.7896 14.6543 17.7896 14.7243 17.7896C14.5843 17.8596 14.4443 17.9296 14.3743 17.9997C14.2343 18.1396 14.0943 18.2096 14.0243 18.3496C13.7443 18.4896 13.5343 18.6296 13.3943 18.6296C13.3243 18.7696 13.1143 19.0496 13.1143 19.1896C13.0443 19.2596 12.7643 19.4696 12.4843 19.6796C12.2743 19.8896 11.9943 20.0996 11.9243 20.2396C11.9943 20.1696 12.0643 20.0296 12.1343 20.1696C11.9943 20.2396 11.8543 20.3796 11.7143 20.4496C11.5743 20.5896 11.4343 20.7296 11.2943 20.8696C10.9443 21.1496 10.6643 21.4296 10.4543 21.8496C10.7343 21.5696 11.0843 21.2196 11.4343 20.9396C11.5043 20.8696 11.5743 20.7996 11.6443 20.7296C11.7143 20.6596 11.7843 20.5896 11.9243 20.5196C12.0643 20.3796 12.2043 20.2396 12.3443 20.1696C12.2043 20.3096 11.9943 20.5196 11.8543 20.6596C11.7143 20.7296 11.6443 20.7996 11.5743 20.8696C11.4343 21.0096 11.3643 21.0796 11.2943 21.1496C10.9443 21.4996 10.6643 21.8496 10.5943 22.1297C10.9443 21.8496 11.1543 21.5696 11.4343 21.2896C11.5043 21.2896 11.5043 21.3596 11.5743 21.2896C11.7843 21.1496 11.9243 21.0096 11.9943 20.8696C12.1343 20.7996 12.2743 20.6596 12.3443 20.5896C12.4143 20.4496 12.5543 20.3796 12.6243 20.2396C12.6943 20.2396 12.7643 20.1696 12.8343 20.1696C12.9043 20.0996 12.9743 20.0296 13.0443 20.0296C12.9043 20.1697 12.7643 20.3096 12.7643 20.4496C12.8343 20.3796 12.9043 20.3097 12.9743 20.2396C13.0443 20.1696 13.1143 20.0996 13.1143 20.0996C13.2543 19.9596 13.3243 19.8896 13.3943 19.8896C13.3243 20.0296 12.9043 20.3796 12.9743 20.3796C13.1143 20.2396 13.4643 20.0296 13.5343 19.8896L13.6043 19.9596C13.7443 19.8196 13.8143 19.7496 13.9543 19.6096C14.0243 19.6096 14.0943 19.5396 14.1643 19.4696C14.2343 19.3996 14.3043 19.3296 14.3743 19.3296C14.5843 19.0496 14.8643 18.8396 15.0743 18.6996C17.0343 17.3697 19.1343 16.0397 21.3743 15.0596C21.4443 14.9896 21.5843 14.9196 21.7243 14.8496C21.7943 14.8496 21.9343 14.7796 22.0743 14.7096C22.2843 14.6396 22.5643 14.5696 22.7743 14.4297C24.5943 13.7296 26.3443 13.0296 28.2343 12.4696C29.9143 11.9796 31.5943 11.6296 33.3443 11.5596C33.2743 11.7696 33.1343 11.9796 33.1343 12.1196C33.0643 12.0496 32.9943 11.9796 32.9243 12.1196C32.5743 12.8896 31.8043 14.2196 31.3843 14.9196C30.8243 15.7596 30.2643 16.5996 29.7043 17.3696L29.4943 17.6497L29.2843 17.9997L28.8643 18.5596C28.5143 18.9796 28.2343 19.3996 27.8843 19.8196C26.6243 21.4296 25.2943 23.0396 23.8943 24.5796C23.3343 25.2796 22.7043 25.9797 22.0743 26.6796C20.9543 28.0096 19.7643 29.3396 18.6443 30.6696C17.5243 32.0696 16.4043 33.3996 15.2843 34.7996C13.0443 37.5296 10.8043 40.3297 8.4243 42.9897C8.3543 42.9197 8.4943 42.8497 8.2843 42.9197C6.8143 44.4597 4.7843 46.9097 3.5243 48.3097C3.5943 48.2397 3.8743 48.0297 3.7343 48.2397C2.8243 49.1497 3.5943 49.2896 2.7543 50.1996C3.2443 50.3396 3.4543 51.0396 2.8243 51.9496C2.9643 51.9496 3.1043 51.6697 3.1743 51.7397C2.7543 53.1397 3.8043 52.5797 4.0143 53.4197C4.5043 53.1397 4.3643 53.6297 4.8543 53.2797C4.7843 53.4897 4.5043 53.7696 4.5743 53.9096C4.7143 53.7696 4.8543 53.6297 4.9943 53.6297C5.0643 53.9097 5.3443 53.9097 5.2043 54.1197C5.2743 54.2597 5.5543 53.8396 5.6943 53.8396C5.4143 54.2596 5.9743 54.2596 5.5543 54.7496C5.8343 54.6796 5.8343 54.8896 6.1143 54.7496C6.1143 55.6596 7.3043 54.8897 7.3743 55.3797C7.0243 55.5897 7.3043 55.3796 7.0943 55.6596C7.3743 55.5196 7.7243 55.1696 8.0043 54.8896C8.0743 54.9596 8.1443 55.0297 8.2843 55.0297C8.0743 55.2397 7.9343 55.4496 7.8643 55.5896C8.1443 55.6596 8.5643 55.2396 8.4943 55.5896C8.1443 55.9396 7.8643 56.2897 7.8643 56.0797C7.8643 56.2197 7.7943 56.2896 7.6543 56.4296C7.5843 56.4996 7.3043 56.7096 7.3743 56.4296C7.3043 56.6396 7.0243 56.9897 7.0243 57.1297C7.4443 56.7796 7.6543 56.9196 8.0743 56.6396C8.1443 56.4996 7.8643 56.4996 8.0043 56.3596C8.2143 56.0796 8.4243 55.8696 8.7043 55.5896C8.9843 55.5196 9.3343 55.3797 9.5443 55.3797V55.4496C9.5443 55.3796 9.6143 55.3797 9.6843 55.3097C10.0343 55.1697 10.3143 54.9596 10.6643 54.8196C11.0143 54.6796 11.3643 54.5397 11.7143 54.3997C12.1343 54.1897 12.4843 54.1196 12.8343 53.9796C13.0443 53.8396 13.2543 53.7696 13.3943 53.6996C13.6043 53.6296 13.8143 53.5597 14.0243 53.4897C14.0243 53.5597 13.8143 53.5597 13.8143 53.6297C14.0943 53.5597 14.1643 53.4197 14.5143 53.2797C14.4443 53.0697 14.3043 53.4197 14.3043 53.2797C15.1443 52.7197 16.4743 52.2997 17.5243 51.8797C17.4543 51.9497 17.3143 52.0196 17.3143 52.0196C17.3843 52.0196 17.5243 51.9497 17.5943 51.8797C17.7343 51.8097 17.8043 51.8097 17.9443 51.7397C18.1543 51.6697 18.3643 51.5997 18.5043 51.5297C18.7143 51.3897 18.9243 51.3196 19.0643 51.2496C19.2043 51.1796 19.4143 51.1097 19.4843 50.9697C19.3443 51.0397 19.2043 51.1096 18.9943 51.1796C18.8543 51.1796 18.7143 51.2496 18.5743 51.3196C18.2243 51.4596 17.9443 51.5297 17.8043 51.5297C18.0143 51.3897 18.2943 51.2496 18.6443 51.1096C18.7143 51.0396 18.7843 51.0396 18.8543 51.0396C18.9943 50.9696 19.0643 50.9697 19.1343 50.8997C19.2743 50.8997 19.4143 50.8297 19.5543 50.8297C19.5543 50.6897 19.6943 50.6197 19.7643 50.5497C19.8343 50.5497 20.0443 50.4796 20.1843 50.4096C20.3943 50.3396 20.6043 50.2696 20.8843 50.1996C21.0943 50.1296 21.3743 50.0597 21.5843 49.9897C21.7943 49.9197 22.0043 49.9197 22.1443 49.9197C22.2843 49.8497 22.4943 49.7096 22.7043 49.6396C22.7743 49.6396 22.9143 49.5696 23.0543 49.5696C23.1243 49.5696 23.2643 49.4996 23.4043 49.4996C23.6143 49.4296 23.8243 49.3596 24.0343 49.3596C24.3143 49.2896 24.4543 49.2197 24.6643 49.1497C24.5243 49.2197 24.3843 49.2197 24.3143 49.2197C24.2443 49.2197 24.1043 49.2197 24.0343 49.2197C24.1743 49.2197 24.3143 49.1497 24.3843 49.1497C24.5243 49.1497 24.6643 49.0797 24.7343 49.0797C25.0143 49.0097 25.2243 49.0097 25.4343 48.9397C25.8543 48.8697 26.2743 48.7996 26.7643 48.7296C26.9043 48.7296 27.1143 48.6596 27.2543 48.5896C27.4643 48.5896 27.6043 48.5196 27.8143 48.5196C28.1643 48.4496 28.4443 48.4496 28.7943 48.5196C28.5143 48.5896 28.2343 48.6596 27.9543 48.6596C27.6743 48.7296 27.3943 48.7297 27.1143 48.8697C27.1843 48.8697 27.2543 48.8697 27.2543 48.9397C26.7643 49.0097 26.4143 49.0797 26.1343 49.1497C25.9943 49.1497 25.8543 49.2197 25.7143 49.2197C25.5743 49.2897 25.4343 49.2896 25.2243 49.2896C25.5043 49.2896 25.7843 49.2897 26.0643 49.2197C26.3443 49.2197 26.6943 49.1497 26.9743 49.0797C27.1843 49.0097 27.3243 49.0097 27.4643 48.9397C27.6043 48.9397 27.8143 48.9397 27.9543 48.8697C28.2343 48.8697 28.5143 48.8697 28.7243 48.9397C28.7243 48.8697 28.7943 48.7996 28.8643 48.7996C28.9343 48.7996 29.0043 48.7996 29.0043 48.7296C28.8643 48.7296 28.7243 48.7296 28.5843 48.7296C28.4443 48.7996 28.3043 48.7996 28.1643 48.7996C27.8843 48.8696 27.6043 48.8697 27.3243 48.9397C27.9543 48.7297 28.8643 48.5896 29.7043 48.5196C29.9143 48.5196 30.1243 48.5196 30.3343 48.4496C30.5443 48.4496 30.8243 48.4496 31.0343 48.3797C31.2443 48.3797 31.4543 48.3797 31.5943 48.3097C31.8043 48.3097 32.0143 48.2397 32.2243 48.2397C32.2243 48.2397 32.0843 48.3097 32.2943 48.3097C32.5743 48.2397 32.8543 48.2397 33.0643 48.1697C33.2743 48.1697 33.4843 48.1697 33.7643 48.1697C34.6043 47.6097 36.4943 47.5397 37.6843 47.6096C37.4743 47.6096 37.0543 47.5396 37.0543 47.7496C37.1943 47.7496 37.3343 47.7496 37.4043 47.7496C37.5443 47.7496 37.6143 47.7496 37.7543 47.7496C37.9643 47.7496 38.2443 47.6796 38.4543 47.6796C38.6643 47.6096 38.8743 47.6096 39.0843 47.6096C39.3643 47.5397 39.5743 47.5396 39.7843 47.5396C39.6443 47.5396 39.3643 47.6097 39.2943 47.4697C39.7143 47.5397 40.0643 47.5396 40.4143 47.5396C40.4843 47.5396 40.5543 47.5396 40.6243 47.5396C40.6943 47.5396 40.7643 47.5396 40.9043 47.5396C41.0443 47.5396 41.1843 47.5396 41.2543 47.5396C41.8143 47.6096 42.2343 47.6096 42.7243 47.6796C42.9343 47.6796 43.7043 47.7496 43.0743 47.6796C42.7943 47.6096 42.3743 47.6096 42.1643 47.5396C42.7243 47.5396 43.1443 47.5397 43.5643 47.6096C43.6343 47.6096 43.7043 47.6096 43.8443 47.6096C43.9143 47.6096 43.9843 47.6096 44.1243 47.6096C44.3343 47.6096 44.4743 47.6096 44.6843 47.6096C44.4043 47.5397 44.7543 47.6096 44.7543 47.5396C44.4743 47.4696 44.2643 47.3997 43.9843 47.3997C43.8443 47.3297 43.7043 47.3297 43.5643 47.3297C43.4243 47.3297 43.2843 47.2597 43.2143 47.2597C42.6543 47.1897 42.2343 47.1196 41.8143 46.9796C41.8843 46.9796 42.0943 46.9796 42.3043 47.0496C42.4443 47.0496 42.5843 47.0496 42.5843 46.9796C42.2343 46.9096 41.8143 46.9796 41.6043 46.9096C41.8143 46.9096 42.0243 46.9096 42.3043 46.9096C42.5143 46.9796 42.7943 46.9796 43.0043 46.9796C43.2843 47.0496 43.4943 47.0496 43.7743 47.0496C43.9843 47.1196 44.2643 47.1196 44.4743 47.1196C45.4543 47.1896 46.4343 47.3297 47.1343 47.3997C47.2043 47.4697 48.0443 47.5397 47.6943 47.4697C47.5543 47.3997 47.3443 47.3297 47.2043 47.2597C46.9943 47.1897 46.7843 47.1896 46.5743 47.1196C46.3643 47.1196 46.1543 47.0496 45.9443 47.0496C45.7343 46.9796 45.5243 46.9796 45.3143 46.9796C44.8243 46.9096 44.4043 46.9096 43.9843 46.9096C43.4943 46.9096 43.0743 46.9096 42.7243 46.9096C42.8643 46.6296 42.5843 46.9096 42.5143 46.6996C42.2343 46.6996 41.9543 46.6996 41.6743 46.6996C41.3943 46.6296 41.0443 46.5597 40.6943 46.4897C40.9743 46.4897 41.2543 46.5597 41.6043 46.5597C41.7443 46.5597 41.8843 46.5597 42.0943 46.5597C42.1643 46.6297 42.2343 46.6297 42.3043 46.6297C42.3743 46.6297 42.4443 46.6297 42.5143 46.6297C42.8643 46.6997 43.1443 46.6996 43.4243 46.7696C43.5643 46.7696 43.7043 46.7696 43.8443 46.7696C43.9843 46.7696 44.1243 46.7696 44.1943 46.7696C44.1243 46.7696 43.9843 46.7696 43.8443 46.6996C43.7043 46.6996 43.6343 46.6997 43.5643 46.6297C43.8443 46.6297 44.1243 46.6996 44.3343 46.6996C44.5443 46.6996 44.7543 46.6997 44.8243 46.6297C44.6143 46.5596 44.4043 46.5597 44.1943 46.5597C44.1243 46.4897 43.9843 46.4897 43.9143 46.4897C43.7743 46.4897 43.7043 46.4897 43.5643 46.4197C43.1443 46.4197 42.7243 46.3496 42.3043 46.2096C42.8643 46.3496 43.3543 46.2796 42.5143 46.2096C42.3043 46.2096 42.1643 46.2096 41.9543 46.1396C41.7443 46.1396 41.5343 46.1396 41.3943 46.1396C41.0443 46.1396 40.6943 46.0696 40.4843 45.9296C40.6943 45.9296 40.9043 45.9296 41.1843 45.9996C41.3943 45.9996 41.6043 45.9996 41.8843 46.0696C42.3043 46.0696 42.7243 46.1396 43.0043 46.0696C42.9343 46.0696 42.8643 46.0696 42.9343 45.9996C43.1443 46.0696 43.7743 45.9996 43.5643 45.9996C43.3543 45.9296 43.0743 45.9296 42.7243 45.9296C42.5843 45.8596 42.4443 45.8596 42.3043 45.8596C42.0943 45.8596 41.9543 45.7896 41.8143 45.7896C42.0243 45.7896 42.2343 45.7896 42.4443 45.7896C42.6543 45.7896 42.8643 45.8596 43.0743 45.8596C43.4243 45.9296 43.7743 45.9296 44.0543 45.8596C43.9143 45.7896 43.6343 45.8597 43.6343 45.7197C43.8443 45.7896 44.0543 45.7896 44.1243 45.7197C43.8443 45.7197 43.4243 45.6497 43.0743 45.5797C42.7243 45.5797 42.3743 45.5097 42.1643 45.6497C42.2343 45.6497 42.7943 45.6497 43.0743 45.7197C42.7943 45.7197 42.3743 45.7197 42.0243 45.7197C41.6743 45.7197 41.3243 45.7197 41.1143 45.5797C41.3943 45.5797 41.7443 45.7197 42.0243 45.6497C41.8843 45.5797 41.6043 45.6497 41.6743 45.5097C41.8843 45.4397 42.0243 45.6497 42.0243 45.5097C41.6743 45.4397 41.2543 45.5097 41.1143 45.3697C41.4643 45.3697 41.8143 45.3697 42.0943 45.3697C42.2343 45.3697 42.1643 45.5097 42.3043 45.4397C42.5843 45.3697 43.0743 45.5097 43.2843 45.4397C43.4943 45.5097 43.7043 45.5097 43.9843 45.5097C44.1243 45.5097 44.0543 45.5797 43.9843 45.5097C43.8443 45.4397 43.7043 45.4397 43.5643 45.4397C43.2143 45.3697 42.7943 45.3697 42.3743 45.3697C41.9543 45.2997 41.6043 45.2296 41.3943 45.1596C41.5343 45.1596 41.8143 45.2296 41.8143 45.1596C41.6043 45.0896 41.3943 45.0196 41.1843 45.0196C41.0443 45.0196 40.9043 45.0196 40.8343 44.9496C40.6943 44.9496 40.5543 44.9496 40.4843 44.9496C39.9943 44.8796 39.5043 44.8797 39.1543 44.8097C39.5043 44.7397 39.8543 44.7397 40.1343 44.7397C40.4843 44.7397 40.7643 44.8097 41.0443 44.8097C41.3243 44.8797 41.6743 44.8797 41.9543 44.8797C42.0943 44.8797 42.2343 44.8797 42.3043 44.8797C42.4443 44.8797 42.5843 44.8797 42.7243 44.8797C42.5143 44.9497 42.8643 44.8096 42.8643 44.8797C42.8643 45.0196 42.5143 44.8796 42.5143 45.0196C43.0043 45.1596 43.2143 44.8096 43.4943 45.0896C43.5643 45.0196 43.7043 44.9496 43.9143 44.9496C44.1243 44.9496 44.3343 44.9496 44.6143 45.0196C44.8943 45.0196 45.1043 45.0896 45.3843 45.0896C45.4543 45.1596 45.5943 45.1596 45.7343 45.1596C45.8043 45.1596 45.9443 45.1596 46.0143 45.1596C46.3643 45.1596 46.8543 45.0196 47.2743 45.2996C47.1343 45.2996 46.7143 45.2296 46.9243 45.2996C47.0643 45.2996 47.1343 45.2996 47.2743 45.2996C47.3443 45.2996 47.4843 45.2996 47.6243 45.2996C47.6243 45.3696 47.4843 45.3697 47.4843 45.3697C47.8343 45.4397 48.2543 45.5097 48.7443 45.5797C48.8843 45.6497 49.0243 45.6497 49.0943 45.6497C49.2343 45.7197 49.3743 45.7197 49.5143 45.7896C49.7243 45.8597 50.0043 45.8596 50.2843 45.9296C50.7743 46.0696 51.2643 46.2097 51.6843 46.2797C52.1043 46.4197 52.5243 46.4897 52.7343 46.4897C53.5043 46.6297 52.3143 46.2796 51.9643 46.2096ZM38.7343 3.64965C38.8043 3.57965 39.0843 3.71965 39.2943 3.78965C39.0843 3.85965 38.8743 3.64965 38.7343 3.64965ZM9.9643 16.5296C9.8943 16.4596 10.3843 16.1796 10.3843 16.0396C10.4543 15.9696 10.3843 16.1096 10.4543 16.1096C10.3143 16.2496 10.1043 16.5296 9.9643 16.5296ZM10.3143 16.4596C10.1043 16.4596 10.5243 16.1096 10.5943 16.0396C10.6643 16.1096 10.3143 16.3196 10.3143 16.4596ZM10.2443 18.0696C10.0343 18.2796 9.8943 18.4196 9.7543 18.5596C9.7543 18.6296 9.6843 18.6997 9.6143 18.7696C9.5443 18.8396 9.4043 18.9096 9.3343 18.9796C9.1943 19.1196 9.2643 19.0496 9.1943 18.9796C9.2643 18.9096 9.4043 18.7696 9.6143 18.6296C9.7543 18.4896 9.9643 18.3496 10.0343 18.2097C10.1743 18.0696 10.4543 17.8596 10.2443 18.0696ZM15.4243 9.94965C15.4243 9.94965 15.4943 9.80965 15.5643 9.73965C15.6343 9.59965 15.7743 9.52965 15.9143 9.45965C15.7743 9.59965 15.6343 9.80965 15.4243 9.94965ZM16.1943 9.52965C16.1943 9.38965 16.5443 9.24965 16.7543 9.10965C16.6843 9.24965 16.3343 9.38965 16.1943 9.52965ZM17.3143 8.40965C17.5243 8.33965 17.7343 8.19965 17.9443 8.05965C17.8743 8.12965 17.7343 8.26965 17.5243 8.40965C17.3143 8.54965 17.0343 8.68965 16.8243 8.82965C16.9643 8.68965 17.1743 8.54965 17.3143 8.40965ZM17.4543 8.68965C17.5243 8.54965 18.0843 8.33965 18.2943 8.19965C18.7143 8.05965 17.5943 8.61965 17.4543 8.68965ZM34.6043 12.0496C34.6043 11.9096 34.6743 11.7696 34.7443 11.6296H34.8143C34.7443 11.7696 34.6743 11.9096 34.6043 12.0496ZM37.1943 11.9796C37.2643 11.9096 37.3343 11.7696 37.3343 11.6996H37.4043C37.4043 11.6996 37.4043 11.7696 37.3343 11.7696C37.2643 11.9796 36.9843 12.3996 37.1943 11.9796ZM38.1043 11.6296H38.1743C38.1743 11.6296 38.1743 11.6996 38.1043 11.6996C38.1043 11.6296 38.1043 11.6296 38.1043 11.6296ZM38.0343 11.7696C38.1043 11.7696 38.1043 11.7696 38.1043 11.7696C38.1043 11.8396 38.1043 11.8397 38.1043 11.8397C38.1743 11.8397 38.1743 11.7696 38.2443 11.7696C38.2443 11.6996 38.2443 11.6996 38.3143 11.6296C38.5943 11.6296 38.6643 11.4196 38.8043 11.3496C38.3843 12.1196 37.9643 13.0296 37.5443 13.4497C37.6143 13.2396 37.8943 12.8896 37.8243 12.8197C37.1243 13.8696 36.3543 15.2696 35.7243 16.1096C36.4943 14.4297 37.5443 13.1696 38.0343 11.7696ZM37.0543 14.9196C36.9143 14.8496 37.3343 14.3596 37.3343 14.2196C37.5443 14.0096 37.0543 14.7796 37.0543 14.9196ZM37.2643 14.7796C37.1943 14.8496 37.2643 14.7096 37.1943 14.7096C37.3343 14.4296 37.5443 13.9396 37.6843 13.8696C37.8243 13.8696 37.2643 14.5696 37.2643 14.7796ZM38.0343 13.1697C38.1743 12.8896 38.4543 12.7496 38.2443 12.6796C38.0343 13.1696 37.7543 13.7296 37.5443 13.8696C37.8243 13.3796 38.0343 12.9596 38.1743 12.5396C38.2443 12.3996 38.3143 12.5396 38.3843 12.3296C38.5243 11.9796 38.8043 11.5596 38.9443 11.2097C39.0143 11.2097 39.0843 11.1396 39.1543 11.1396C39.0143 11.3496 38.9443 11.4896 38.8743 11.6996C38.8043 11.6996 38.8043 11.7696 38.8043 11.7696C38.6643 12.1196 38.5243 12.3996 38.4543 12.6096C38.5243 12.5396 38.7343 12.1196 38.9443 11.7696C38.9443 11.7696 38.9443 11.7696 39.0143 11.7696C38.5943 12.5396 38.2443 13.4497 37.7543 14.0096C37.8943 13.5896 38.2443 13.2396 38.3843 12.7496C38.2443 12.9596 38.1743 13.3096 38.0343 13.1697ZM39.1543 11.4196C39.1543 11.4896 39.0843 11.5597 39.0843 11.6296C39.0143 11.6296 39.0143 11.6296 39.0143 11.6296C39.0143 11.5597 39.0843 11.4896 39.1543 11.4196ZM39.1543 11.8397C38.9443 12.2596 38.7343 12.6796 38.3843 13.0996C38.5943 12.6796 38.8743 12.2596 39.0843 11.8397C39.0843 11.8397 39.0843 11.8397 39.1543 11.8397ZM39.3643 10.7896C39.3643 10.6496 39.4343 10.5096 39.5043 10.3696C39.5043 10.2996 39.6443 10.2297 39.7143 10.1596C39.6443 10.3696 39.5043 10.5796 39.3643 10.7896ZM40.3443 7.56965C40.3443 7.56965 40.3443 7.63965 40.2743 7.63965C40.2743 7.63965 40.2743 7.63965 40.2043 7.63965C40.2043 7.56965 40.2743 7.56965 40.2743 7.56965H40.3443ZM40.4843 6.16965C40.4143 6.30965 40.3443 6.51965 40.2743 6.65965C40.2043 6.65965 40.2043 6.65965 40.1343 6.58965C40.4143 6.58965 40.3443 6.30965 40.4843 6.16965ZM39.8543 3.78965C39.9943 3.78965 40.2043 3.78965 40.2743 3.78965C40.2043 3.50965 39.8543 3.43965 40.0643 3.29965C40.3443 3.29965 40.6243 3.36965 40.5543 3.50965C40.6243 3.43965 40.6943 3.36965 40.8343 3.43965C40.9043 3.50965 41.1143 3.50965 40.9043 3.64965C40.9743 3.57965 41.1143 3.57965 41.1843 3.57965C41.1143 3.71965 41.0443 3.85965 40.9743 3.99965C40.7643 4.27965 40.6243 4.55965 40.4143 4.83965C40.4143 4.76965 40.3443 4.62965 40.3443 4.55965C40.3443 4.48965 40.4143 4.41965 40.4843 4.34965C40.5543 4.41965 40.4143 4.34965 40.6243 4.34965C40.6243 4.34965 40.5543 4.27965 40.4843 4.27965C40.6243 4.06965 40.7643 3.92965 40.7643 3.78965C40.5543 4.06965 40.4843 4.13965 40.4143 4.27965C40.4143 4.27965 40.4143 4.27965 40.3443 4.20965C40.4843 4.06965 40.4843 3.85965 40.3443 4.06965C40.3443 4.06965 40.3443 4.13965 40.2743 4.20965C40.0643 4.13965 39.8543 4.13965 39.7143 4.06965C39.7843 3.92965 39.7843 3.85965 39.8543 3.78965ZM40.3443 4.41965V4.34965H40.4143C40.3443 4.34965 40.3443 4.41965 40.3443 4.41965ZM33.4843 11.4896C33.4843 11.4896 33.4843 11.4896 33.5543 11.4896C33.4143 11.7696 33.3443 11.9796 33.2043 12.0496C33.2743 11.9096 33.3443 11.6996 33.4843 11.4896ZM33.3443 13.6596C33.4843 13.3796 33.6243 12.9596 33.6243 12.6796C33.7643 12.5396 34.0443 12.1196 34.2543 11.6296C34.3943 11.6296 34.5343 11.6296 34.6043 11.6296H34.6743C34.3943 12.0496 34.1843 12.5396 33.9043 13.0296C33.6943 13.4497 33.4843 13.7996 33.2743 14.0796C33.1343 14.4296 32.9243 14.6396 32.7843 14.7796C32.8543 14.7096 32.9243 14.4996 32.9243 14.4996C32.7143 14.7096 32.5743 14.9896 32.4343 15.2696C32.2943 15.4796 32.0843 15.6896 31.9443 15.8296C32.4343 15.0596 33.0643 13.8696 33.3443 13.6596ZM32.3643 25.8396C32.3643 25.8396 32.2243 26.3996 31.8743 26.7496C31.9443 26.4697 32.1543 26.1896 32.3643 25.8396ZM31.5243 26.8896C31.5243 27.0296 31.1043 27.4496 30.9643 27.6596C30.9643 27.5196 31.3843 27.0996 31.5243 26.8896ZM29.7743 29.7596C29.8443 29.4096 30.4743 28.7096 30.9643 28.0796C30.6143 28.7096 30.1943 29.1296 29.7743 29.7596ZM30.1243 28.7097C30.1943 28.9196 29.5643 29.4796 29.2843 29.8996C28.7943 30.3196 30.0543 28.9196 30.1243 28.7097ZM29.4943 48.1697C29.2843 48.1697 29.4943 48.0997 29.7743 48.0997C29.9143 48.0297 30.0543 48.0297 30.1943 48.0297C30.3343 47.9597 30.4043 47.9596 30.4743 47.9596C30.4043 48.0296 30.2643 48.0997 30.0543 48.0997C29.8443 48.0997 29.6343 48.0997 29.4943 48.1697ZM29.7743 48.4496C29.9143 48.3797 30.1243 48.3097 30.3343 48.2397C30.5443 48.1697 30.8243 48.0997 31.1043 48.0997C30.6843 48.3097 30.2643 48.2396 29.7743 48.4496ZM31.5943 47.8196C31.5243 47.8196 31.3843 47.8196 31.2443 47.8196C31.3143 47.7496 31.7343 47.7496 31.8743 47.7496C31.8743 47.7496 31.7343 47.8196 31.5943 47.8196ZM32.0843 47.8896C32.2943 47.7496 32.5043 47.6796 32.7143 47.6096C32.7143 47.6796 32.4343 47.8896 32.0843 47.8896ZM41.1843 45.4397C41.1843 45.5097 41.0443 45.5097 40.8343 45.5097C40.6943 45.5097 40.5543 45.4397 40.4843 45.5097C40.4143 45.5097 40.4843 45.4397 40.4843 45.3697C40.6943 45.4397 41.0443 45.3697 41.1843 45.4397ZM40.8343 45.2996C40.9043 45.3696 40.8343 45.3697 40.6943 45.3697C40.5543 45.3697 40.3443 45.3697 40.2743 45.3697C40.3443 45.2297 40.7643 45.3696 40.8343 45.2996ZM43.7043 44.3896C43.4243 44.3896 42.8643 44.2496 42.3743 44.2496C42.2343 44.2496 41.8843 44.1796 42.1643 44.1796C42.5143 44.2496 42.7243 44.2496 42.9343 44.2496C43.1443 44.2496 43.2843 44.2496 43.6343 44.3196C43.7743 44.3196 43.7043 44.3196 43.7043 44.3896ZM44.8943 45.1596C44.8243 45.1596 44.7543 45.1596 44.6843 45.1596C43.7743 45.0896 44.5443 45.2996 44.8943 45.1596ZM46.5743 45.7896C46.2943 45.6497 45.5943 45.5797 45.5243 45.7896C45.8043 45.7197 46.2943 45.9297 46.5743 45.7896ZM43.5643 45.2296C43.4943 45.2996 43.2143 45.2296 43.1443 45.2996C43.2843 45.3696 43.4243 45.3697 43.5643 45.3697C43.5643 45.2997 43.7043 45.2296 43.5643 45.2296ZM11.2943 56.0097C10.9443 56.2897 10.4543 56.3596 10.3843 56.5696C10.7343 56.4296 11.0143 56.3596 11.3643 56.2896C11.4343 56.1496 11.4343 56.0797 11.2943 56.0097ZM22.2143 51.0396C22.0743 51.1096 22.7043 50.8997 22.8443 50.8997H22.9143C22.8443 50.6897 22.4243 50.9696 22.2143 51.0396ZM43.7743 47.7496C44.1243 47.7496 44.5443 47.8896 44.7543 47.8196C44.4743 47.8196 43.9843 47.6796 43.7743 47.7496ZM36.2143 47.6796C36.0743 47.6796 35.8643 47.7496 35.8643 47.8896C35.9343 47.8196 36.0743 47.8196 36.1443 47.8196C36.2143 47.8196 36.3543 47.8196 36.4243 47.8196C36.5643 47.8196 36.7043 47.7496 36.7743 47.6796C36.6343 47.7496 36.4243 47.6796 36.2143 47.6796ZM33.9743 48.1697C34.1143 48.1697 34.2543 48.0997 34.3943 48.0997C34.4643 48.0997 34.5343 48.0997 34.6043 48.0997C34.6743 48.0997 34.7443 48.0297 34.8143 48.0297C35.0943 48.0297 35.3043 47.8896 35.3043 47.6796C35.1643 47.8196 34.8143 47.8896 34.5343 47.9596C34.1843 48.0296 33.9743 48.0997 33.9743 48.1697ZM34.8143 48.3097C34.8143 48.3097 34.8143 48.2397 34.8843 48.1697C34.6743 48.2397 34.3943 48.5196 34.1143 48.3797C34.1843 48.3797 34.3243 48.3097 34.3243 48.3097C33.9043 48.3097 33.2743 48.4497 33.3443 48.2397C33.2043 48.3797 32.8543 48.3797 32.7143 48.3797C32.8543 48.4496 32.7143 48.4496 32.6443 48.5196C32.9243 48.4496 33.1343 48.4496 33.2743 48.3797C33.4843 48.3797 33.6943 48.3797 33.8343 48.3797C33.8343 48.4496 33.6943 48.4496 33.6943 48.5196C33.8343 48.5196 34.0443 48.4496 34.2543 48.4496C34.4643 48.3797 34.7443 48.3797 34.8843 48.3097C35.3043 48.3097 35.4443 48.2397 34.8143 48.3097ZM22.4943 50.4096C22.8443 50.2696 22.9843 50.3397 23.1243 50.1297C22.9143 50.2697 22.5643 50.2696 22.4943 50.4096ZM31.5243 48.5896C31.2443 48.5896 30.1243 48.7996 30.9643 48.7296C31.1743 48.7296 31.4543 48.6596 31.6643 48.7296C31.8743 48.5896 32.4343 48.6596 32.5043 48.4496C32.3643 48.5196 32.0843 48.5196 31.8043 48.5196C31.5943 48.5196 31.3843 48.5196 31.5243 48.5896ZM51.3343 48.7296C52.1743 48.7296 51.6143 48.8696 51.3343 48.7296ZM45.5943 47.7496C45.8743 47.8196 46.0843 47.8196 46.2243 47.7496C45.9443 47.7496 45.6643 47.6796 45.5943 47.7496ZM28.6543 49.4296C28.8643 49.3596 29.1443 49.2897 29.2143 49.1497C29.0743 49.2197 29.0043 49.2197 28.8643 49.2197C28.7943 49.2897 28.7243 49.3596 28.6543 49.4296ZM23.0543 49.8497C23.1243 49.8497 23.3343 49.7097 23.3343 49.8497C23.1243 49.8497 22.9843 49.9197 22.8443 49.9897C22.7043 50.0597 22.6343 50.0597 22.5643 49.9897C22.5643 50.0597 22.7743 49.9197 22.7043 49.9197C22.4943 49.9197 22.4243 50.0597 22.2143 50.0597C22.0043 50.1297 21.7243 50.1996 21.5143 50.2696C21.6543 50.3396 22.0043 50.1297 22.2143 50.0597C22.2143 50.2697 22.4943 49.9897 22.4943 50.0597L22.4243 50.1297C22.6343 50.0596 22.9143 49.9897 23.1943 49.9197C23.4043 49.8497 23.6143 49.7797 23.6843 49.7097C23.5443 49.7797 22.9143 49.7797 23.0543 49.8497ZM24.5243 49.5696C24.8043 49.4996 25.0143 49.4996 25.1543 49.3596C24.9443 49.4296 24.5943 49.4296 24.5243 49.5696ZM26.4143 49.7097C26.6943 49.6397 27.1143 49.5696 27.4643 49.5696C27.2543 49.4296 26.6243 49.5697 26.4143 49.7097ZM25.6443 49.0797C25.7843 49.0797 25.8543 49.1497 25.9243 49.0097C25.7843 48.9397 25.7843 49.0797 25.7143 49.0097C25.5743 49.0097 25.3643 49.0797 25.2243 49.1497C25.2243 49.2197 25.5043 49.0797 25.6443 49.0797ZM52.8743 46.0696C53.2943 46.2096 53.0143 46.2096 52.8043 46.2096C53.3643 46.3496 53.7143 46.4897 54.1343 46.4897C55.0443 46.6997 54.1343 46.4897 53.7143 46.3497C53.4343 46.2797 53.0143 45.9996 52.8743 46.0696ZM17.6643 52.2996C17.5943 52.4396 16.8243 52.6497 17.0343 52.7197C17.0343 52.6497 17.8743 52.4396 17.6643 52.2996ZM16.8243 52.7197C16.8243 52.5097 16.4043 52.9296 16.3343 52.8596C16.4043 52.7896 16.8943 52.6497 16.6843 52.6497C16.4043 52.7197 16.0543 52.9296 15.7043 53.0696C15.4243 53.2096 15.1443 53.3497 15.1443 53.3497C15.2843 53.3497 15.4943 53.1397 15.5643 53.2097C15.4243 53.3497 15.2843 53.4897 15.1443 53.5597C15.3543 53.6297 15.4243 53.2797 15.6343 53.3497C15.7743 53.4197 15.3543 53.4897 15.4943 53.5597C15.9843 53.2797 16.5443 53.0696 16.9643 52.7896C16.7543 52.8596 16.5443 52.9296 16.4043 52.9296C16.5443 52.8596 16.6843 52.7897 16.8243 52.7197ZM45.7343 41.7296C45.4543 41.7296 45.0343 41.7996 45.0343 41.7996C45.2443 41.7996 45.5943 41.9396 45.6643 41.7996C45.5243 41.7996 45.6643 41.7996 45.7343 41.7296ZM13.8843 54.3297C13.6743 54.3997 13.2543 54.6096 12.9743 54.7496C13.1143 54.8196 13.9543 54.3297 13.8843 54.3297ZM15.0043 53.4897C14.6543 53.6997 14.2343 53.9097 14.0243 54.1197C14.3743 53.9097 14.9343 53.7697 15.0043 53.4897ZM16.4043 52.5097C16.5443 52.5097 16.6143 52.4396 16.7543 52.2996C16.5443 52.4396 16.4043 52.5097 16.2643 52.5097C16.0543 52.5797 15.9143 52.6497 15.7743 52.7197C15.5643 52.8597 15.2843 52.9297 15.0043 53.2097C15.2843 52.9997 15.6343 52.8597 15.9843 52.7197C16.1243 52.6497 16.2643 52.5797 16.4043 52.5097ZM43.2843 41.6596C43.7743 41.7296 44.1943 41.7996 44.4743 41.7296C44.1243 41.6596 43.6343 41.6596 43.2843 41.6596ZM21.3043 50.4796C20.8843 50.5496 20.6043 50.5497 20.2543 50.8297C20.3943 50.7597 21.0243 50.6896 21.3043 50.4796ZM18.1543 52.3697C18.2943 52.5097 19.2743 52.0196 19.2043 52.0196C18.8543 52.0896 18.4343 52.2997 18.1543 52.3697ZM47.5543 43.3396C47.7643 43.4096 47.9743 43.4096 47.9743 43.4096C48.0443 43.4096 47.9743 43.4096 47.6943 43.3396C47.4143 43.3396 46.9243 43.1997 46.7143 43.2696C46.9243 43.1997 46.9243 43.4096 46.9943 43.3396C46.9243 43.3396 46.9243 43.2696 46.9243 43.2696C47.0643 43.4096 47.2743 43.3396 47.5543 43.3396ZM54.6943 47.8896C55.1143 48.0296 55.2543 48.0997 55.7443 48.1697C55.3243 48.0297 54.9743 47.7496 54.6943 47.8896ZM50.0043 44.4596C49.7943 44.3896 49.3043 44.1796 49.0943 44.2496C49.2343 44.3896 49.7943 44.5296 50.0043 44.4596ZM13.1843 54.3997C13.0443 54.5397 12.6943 54.6096 12.6943 54.7496C12.8343 54.6096 13.1843 54.5397 13.1843 54.3997ZM13.2543 54.3997C13.3243 54.3997 13.3243 54.3297 13.3243 54.3297L13.2543 54.3997ZM14.7943 53.2097C14.4443 53.4197 14.0243 53.6296 13.6743 53.8396C13.2543 54.0496 12.8343 54.2597 12.4143 54.4697C12.0643 54.6097 11.6443 54.8197 11.2943 54.9597C11.1543 55.0297 10.9443 55.0297 10.8043 55.0997C10.5943 55.0997 10.4543 55.0997 10.3143 55.0997C10.4543 55.0297 10.7343 55.0296 10.7343 54.8896C10.4543 54.9596 10.1043 55.1697 9.8243 55.2397C9.8943 55.3797 9.7543 55.5196 9.5443 55.5896C9.4043 55.7296 9.1943 55.7997 9.1243 55.9397C9.3343 56.0797 9.6843 55.9397 9.6143 56.2197C9.3343 56.3597 9.0543 56.4296 9.0543 56.2896C9.0543 56.3596 8.9843 56.4296 8.9143 56.4996C8.7743 56.4996 8.5643 56.5696 8.6343 56.4296C8.5643 56.5696 8.3543 56.6397 8.2843 56.7797C8.6343 56.7097 8.8443 56.9197 9.1243 56.8497C9.1943 56.7097 9.0543 56.6396 9.1243 56.5696C9.3343 56.4996 9.5443 56.3596 9.6843 56.2896C9.8943 56.2197 10.1043 56.1497 10.3143 56.0797C10.5243 56.0097 10.6643 55.8697 10.8743 55.7997C10.9443 55.7297 11.0843 55.7296 11.1543 55.6596C11.2243 55.5896 11.2943 55.5896 11.4343 55.5196C11.1543 55.5896 10.9443 55.7297 10.6643 55.8697C10.4543 55.9397 10.2443 56.0097 10.0343 56.0097C10.3843 55.8697 10.6643 55.7296 10.9443 55.5196C11.2243 55.3796 11.4343 55.2397 11.7143 55.0997C11.9943 54.9597 12.2043 54.8196 12.4843 54.6796C12.7643 54.5396 13.0443 54.3997 13.3243 54.3297C13.7443 53.9097 14.1643 53.6997 14.7943 53.2097ZM9.9643 55.3797C10.0343 55.1697 10.3843 55.2397 10.5243 55.2397C10.4543 55.3097 10.1043 55.3096 9.9643 55.3797ZM49.7243 44.8097C49.7943 44.8797 50.4943 45.0196 50.3543 44.8797C50.0743 44.9497 49.8643 44.7397 49.7243 44.8097ZM55.0443 46.2096C54.8343 46.2096 54.5543 46.0696 54.2743 46.0696C54.0643 45.9996 53.8543 45.9296 53.8543 45.9996C54.0643 45.9996 54.3443 46.0696 54.5543 46.1396C54.7643 46.2096 54.9743 46.2796 55.0443 46.2096ZM50.5643 42.5696C50.4243 42.4296 49.9343 42.4996 49.7943 42.3596C49.7243 42.4996 50.4243 42.5696 50.5643 42.5696Z" fill="black"/>
</svg>
