<svg width="55" height="55" viewBox="0 0 55 55" fill="none" xmlns="http://www.w3.org/2000/svg">
<path d="M47.9437 17.37C48.0837 17.23 48.1537 17.09 48.2937 17.02C48.3637 16.95 48.4337 16.88 48.5037 16.81C48.6437 16.67 48.7137 16.6 48.7137 16.53C48.7837 16.46 48.8537 16.39 48.8537 16.32C48.7137 16.46 48.5037 16.67 48.3637 16.88C48.1537 17.09 47.9437 17.23 47.9437 17.37ZM5.31367 14.92C5.03367 15.13 4.61367 15.27 4.26367 15.41C3.91367 15.55 3.63367 15.69 3.49367 15.83C3.84367 15.62 4.26367 15.48 4.68367 15.27C5.10367 15.13 5.38367 14.99 5.31367 14.92ZM50.8837 13.1C50.8137 13.1 50.8137 13.17 50.8137 13.24C50.7437 13.31 50.7437 13.38 50.6737 13.45C50.8137 13.31 50.8837 13.24 50.9537 13.1C50.9537 13.03 51.0237 13.03 51.0237 12.96C51.0237 12.96 51.0237 12.96 51.0937 12.89C51.0937 12.82 51.1637 12.75 51.1637 12.68C51.3737 12.4 51.4437 12.12 51.5137 11.91C51.3737 12.19 51.1637 12.54 51.0237 12.89C50.9537 12.96 50.8837 13.03 50.8837 13.1ZM51.7237 11C51.7937 10.72 51.9337 10.44 52.0037 10.23C52.0737 10.09 52.1437 9.95 52.1437 9.81C52.2137 9.74 52.2137 9.6 52.2137 9.53C52.1437 9.6 52.1437 9.67 52.0737 9.74C52.0737 9.74 52.0737 9.81 52.0737 9.88C52.0737 9.95 52.0737 10.02 52.0037 10.09C51.9337 10.16 51.9337 10.3 51.8637 10.44C51.8637 10.51 51.7937 10.65 51.7237 10.79C51.6537 11 51.5837 11.21 51.4437 11.49C51.5137 11.49 51.5137 11.42 51.5837 11.28C51.6537 11.21 51.6537 11.07 51.7237 11ZM21.6237 8.41C21.6937 8.34 22.1837 8.27 22.2537 8.13C21.9737 8.2 21.7637 8.27 21.5537 8.34C21.6237 8.34 21.4137 8.48 21.6237 8.41ZM7.13367 10.86C6.57367 10.93 5.80367 11.49 7.13367 10.86V10.86ZM0.973671 15.13C1.32367 14.92 1.67367 14.85 1.95367 14.71C2.23367 14.64 2.51367 14.5 2.65367 14.29C2.37367 14.43 2.09367 14.57 1.81367 14.64C1.60367 14.78 1.32367 14.92 0.973671 15.13ZM17.0737 7.43C16.6537 7.57 16.3037 7.64 16.0937 7.78C16.4437 7.71 16.9337 7.57 17.0737 7.43ZM6.71367 14.08C6.08367 14.29 6.36367 14.08 6.64367 13.94C6.22367 14.08 5.87367 14.22 5.52367 14.36C5.17367 14.5 4.89367 14.64 4.54367 14.85C3.14367 15.48 4.54367 14.85 5.31367 14.57C5.80367 14.36 6.57367 14.29 6.71367 14.08ZM19.5237 9.25C19.6637 9.25 19.8037 9.18 19.8737 9.18C21.3437 8.69 20.0837 8.9 19.5237 9.25ZM11.2637 13.1C11.6137 12.89 12.0337 12.89 12.2437 12.75C12.1037 12.75 10.9137 13.1 11.2637 13.1ZM35.9737 1.48C35.9737 1.48 35.9037 1.55 35.9037 1.62C36.0437 1.55 36.2537 1.48 36.5337 1.34C36.7437 1.27 37.0237 1.2 37.3037 1.2C37.1637 1.2 36.8837 1.34 36.9537 1.34C37.6537 1.2 38.8437 0.989998 38.7037 1.2C38.9837 0.989998 39.6837 0.919999 39.8937 0.849995C39.6837 0.849995 39.9637 0.779996 40.0337 0.779996C39.8237 0.779996 39.6137 0.849995 39.4037 0.849995C39.1937 0.919999 38.9837 0.919999 38.8437 0.989998C38.4237 1.06 38.1437 1.06 37.8637 1.13C37.8637 1.06 38.0737 1.06 38.0737 0.989998C37.0937 1.13 33.6637 2.04 35.9737 1.48ZM12.9437 14.99C13.2237 14.92 13.4337 14.78 13.6437 14.85C13.6437 14.71 13.3637 14.78 13.0837 14.92C12.8037 14.99 12.5237 15.13 12.4537 15.2C12.5237 15.2 12.7337 15.06 12.9437 14.99ZM36.6037 1.76C37.0937 1.55 37.5837 1.41 37.5137 1.41C36.6037 1.62 35.0637 1.83 35.1337 2.25C35.4137 2.11 36.0437 1.9 36.6037 1.76ZM13.5037 12.75C13.2237 12.75 12.2437 13.03 12.0337 13.24C12.3837 13.17 13.2237 12.89 13.5037 12.75ZM34.0837 2.25C33.4537 2.46 32.6137 2.6 32.4737 2.81C32.8937 2.6 34.0837 2.53 34.0837 2.25ZM41.3637 0.639998C41.4337 0.639998 41.5737 0.639998 41.7137 0.639998C42.2037 0.639998 42.6237 0.569999 42.2737 0.569999C42.4837 0.499996 42.6937 0.499996 42.9737 0.499996C43.1837 0.499996 43.3237 0.499996 43.4637 0.429997C43.5337 0.429997 43.5337 0.429997 43.5337 0.429997C43.6037 0.429997 43.6737 0.429997 43.7437 0.429997C43.8137 0.429997 43.8837 0.429997 43.9537 0.429997C44.3037 0.429997 44.5137 0.429997 44.5137 0.429997C44.5137 0.429997 44.3737 0.429997 44.2337 0.429997C44.1637 0.429997 44.0237 0.429997 43.9537 0.429997C43.8837 0.429997 43.8137 0.429997 43.7437 0.429997C43.6737 0.429997 43.6737 0.429997 43.6037 0.429997C43.6037 0.429997 43.5337 0.429997 43.4637 0.429997C43.4637 0.429997 43.4637 0.429997 43.3937 0.429997H43.3237C43.2537 0.429997 43.1837 0.429997 43.1837 0.429997C43.0437 0.429997 42.9037 0.429997 42.8337 0.429997C42.6937 0.429997 42.5537 0.429997 42.4837 0.429997C42.3437 0.429997 42.2737 0.429997 42.1337 0.359998C42.0637 0.429997 41.8537 0.429997 41.7137 0.499996C41.5737 0.499996 41.5037 0.499996 41.4337 0.499996C41.2937 0.499996 41.2237 0.569999 41.1537 0.569999C40.7337 0.639998 40.4537 0.709997 40.3837 0.779996C40.5237 0.779996 40.7337 0.709997 40.9437 0.709997C41.0837 0.709997 41.2237 0.709997 41.3637 0.639998ZM53.0537 6.1C53.0537 6.24 53.1237 6.31 53.1237 6.38V6.45C53.1237 6.52 53.1237 6.59 53.1237 6.59C53.1237 6.66 53.1237 6.73 53.1237 6.87C53.1237 6.94 53.1237 7.01 53.1937 7.08C53.1937 7.15 53.1937 7.29 53.1937 7.36C53.1937 7.5 53.1937 7.64 53.1937 7.85C53.1937 8.13 53.1237 8.41 53.1237 8.62C53.2637 8.06 53.2637 7.5 53.1937 6.87C53.1937 6.73 53.1937 6.59 53.1937 6.45C53.1937 6.31 53.1237 6.17 53.1237 6.03C53.1237 5.89 53.0537 5.75 53.0537 5.68C52.9837 5.54 52.9837 5.4 52.9837 5.33C52.9837 5.4 52.9837 5.68 53.0537 5.89C53.0537 5.96 53.0537 6.03 53.0537 6.1ZM50.5337 1.9C50.6737 1.97 50.7437 2.04 50.8837 2.04C50.6037 1.83 50.3237 1.62 50.0437 1.48C49.7637 1.34 49.4837 1.2 49.2737 1.2C49.6937 1.41 49.9737 1.55 50.2537 1.69C50.3237 1.76 50.4637 1.83 50.5337 1.9ZM23.5837 11.56C22.8837 11.7 22.1137 11.91 21.6937 12.12C22.3237 11.98 23.0937 11.77 23.5837 11.56ZM17.8437 9.18C18.1937 8.97 18.5437 8.83 18.7537 8.62C18.4737 8.76 17.4237 9.11 17.5637 9.11C17.7737 9.11 17.9837 8.97 18.0537 9.04C17.9137 9.11 17.6337 9.18 17.8437 9.18ZM19.8737 12.82C20.2237 12.68 20.9237 12.4 20.8537 12.4C20.5737 12.47 20.0137 12.54 19.9437 12.68C20.1537 12.61 19.9437 12.75 19.8737 12.82ZM17.5637 9.46C17.9137 9.32 18.1937 9.25 18.1937 9.11C17.7737 9.32 16.9337 9.46 16.5837 9.74C16.7937 9.74 17.2137 9.6 17.5637 9.46ZM19.3137 9.25C18.8237 9.46 17.9837 9.67 17.7037 9.88C18.2637 9.67 19.2437 9.39 19.3137 9.25ZM18.4737 6.8C18.9637 6.59 19.8037 6.45 20.0837 6.24C19.5937 6.45 18.7537 6.59 18.4737 6.8ZM16.3037 12.47C15.6737 12.68 15.1837 12.96 16.1637 12.61C16.3737 12.54 16.6537 12.4 16.9337 12.33C17.2837 12.26 17.4937 12.19 17.6337 12.05C17.4237 12.19 17.2837 12.05 17.2137 12.19C17.2837 12.19 17.3537 12.12 17.3537 12.19C17.0737 12.12 16.7237 12.33 16.3037 12.47ZM21.9037 48.03C21.4837 48.31 20.7837 48.52 20.5037 48.8C20.9937 48.52 21.8337 48.17 21.9037 48.03ZM10.8437 49.99C10.3537 50.06 9.65367 50.55 10.8437 49.99V49.99ZM25.8937 49.99C26.0337 49.92 26.1737 49.85 26.2437 49.78C25.9637 49.92 25.6137 50.06 25.3337 50.2C25.0537 50.34 24.7737 50.48 24.6337 50.62C24.9137 50.48 25.1937 50.34 25.4737 50.2C25.6137 50.13 25.7537 50.06 25.8937 49.99ZM20.5037 48.1C20.8537 47.89 21.1337 47.68 21.3437 47.47C21.0637 47.68 20.1537 48.03 20.2937 48.1C20.4337 48.03 20.6437 47.89 20.7137 47.96C20.5737 48.03 20.3637 48.1 20.5037 48.1ZM54.3837 22.9C54.1737 22.48 54.0337 22.13 53.7537 21.71C53.3337 20.94 52.7037 20.31 52.0037 19.75C51.3737 19.19 50.5337 18.77 49.6937 18.56C49.2737 18.42 48.7837 18.28 48.3637 18.21L48.0137 18.14H47.9437C48.0837 18 48.2237 17.86 48.2937 17.79C48.4337 17.65 48.5737 17.51 48.6437 17.44C48.6437 17.44 48.7137 17.44 48.7837 17.37C48.7137 17.3 48.4337 17.51 48.2237 17.79C48.1537 17.86 48.0137 18 47.8737 18.14L47.7337 18.07H47.6637H47.5937L47.5237 18L47.2437 17.93C47.1037 17.86 47.0337 17.86 46.8937 17.79C47.0337 17.65 47.2437 17.51 47.3837 17.37C47.3837 17.44 47.5237 17.37 47.5937 17.23C47.7337 17.09 47.8037 16.95 47.8037 17.02C47.8037 17.09 47.7337 17.16 47.7337 17.16C48.0837 16.81 48.5037 16.39 48.8537 15.97C49.0637 15.83 49.2037 15.62 49.3437 15.41C49.4137 15.27 49.5537 15.06 49.6237 14.92C49.4837 15.13 49.2037 15.41 48.9937 15.69C48.8537 15.83 48.7137 15.9 48.7137 15.97C48.6437 16.04 48.5737 16.11 48.6437 16.11C48.7137 16.04 48.8537 15.9 48.9237 15.76C48.9937 15.69 49.0637 15.55 49.1337 15.62C48.5737 16.25 48.1537 16.81 47.8737 16.88C47.9437 16.88 48.0137 16.81 48.0837 16.74C48.1537 16.67 48.1537 16.53 48.1537 16.6C47.9437 16.74 47.8737 16.88 47.7337 16.95C47.7337 17.02 47.6637 17.09 47.5937 17.16C47.5237 17.23 47.4537 17.23 47.3837 17.3C47.1737 17.51 47.0337 17.65 46.8237 17.79H46.7537C46.6837 17.79 46.6137 17.72 46.6137 17.72C46.8237 17.58 47.0337 17.44 47.1737 17.3C47.5937 16.74 48.3637 16.04 48.9937 15.2C49.3437 14.85 49.6937 14.43 49.9737 14.01C50.1137 13.8 50.2537 13.66 50.3237 13.45C50.4637 13.24 50.5337 13.1 50.6037 12.89C50.5337 13.03 50.4637 13.17 50.4637 13.24C50.3937 13.38 50.3237 13.45 50.2537 13.52C50.1837 13.59 50.1137 13.66 50.0437 13.73C49.9737 13.8 49.9737 13.87 49.9037 13.94C50.0437 13.73 50.1837 13.52 50.3237 13.24C50.3937 13.17 50.4637 13.03 50.5337 12.96C50.6037 12.82 50.6737 12.68 50.7437 12.54C50.8837 12.4 50.9537 12.26 51.0237 12.05C51.0937 11.91 51.1637 11.77 51.2337 11.63C51.3037 11.49 51.3737 11.35 51.4437 11.21C51.5137 11 51.5837 10.86 51.6537 10.72C52.1437 9.53 52.4237 8.27 52.3537 7.01C52.2837 6.59 52.2137 6.1 52.0737 5.61C52.0037 5.47 52.0037 5.4 51.9337 5.26C51.9337 5.19 51.8637 5.05 51.7937 4.91C51.7237 4.7 51.5837 4.49 51.4437 4.28C51.3737 4.07 51.2337 3.86 51.0237 3.72C50.8837 3.51 50.7437 3.3 50.6037 3.16C50.3237 2.81 49.9737 2.53 49.6937 2.25C50.0437 2.46 50.3937 2.67 50.6737 3.02C50.9537 3.3 51.2337 3.58 51.4437 3.93C51.6537 4.28 51.8637 4.63 52.0037 4.98C52.2137 5.33 52.2837 5.75 52.4237 6.1C52.4237 6.03 52.4237 5.96 52.3537 5.96C52.3537 5.89 52.3537 5.82 52.3537 5.82C52.3537 5.75 52.3537 5.68 52.4237 5.68C52.4237 5.89 52.4937 6.03 52.4937 6.24C52.5637 6.31 52.5637 6.38 52.5637 6.45C52.5637 6.52 52.5637 6.59 52.5637 6.73C52.6337 6.87 52.6337 7.01 52.6337 7.15C52.6337 7.22 52.6337 7.29 52.6337 7.36C52.6337 7.43 52.6337 7.5 52.6337 7.57C52.6337 8.13 52.5637 8.62 52.4937 9.04C52.4237 9.46 52.2837 9.88 52.1437 10.3C52.0737 10.51 52.0037 10.72 51.9337 10.93C51.7937 11.07 51.7237 11.28 51.6537 11.49C51.6537 11.42 51.7237 11.35 51.7237 11.28C51.7937 11.21 51.8637 11.14 51.8637 11.07C51.9337 10.86 52.0737 10.72 52.1437 10.51C52.2837 10.09 52.4237 9.67 52.4937 9.25C52.7037 8.34 52.7737 7.36 52.6337 6.45C52.5637 5.96 52.4237 5.54 52.2837 5.12C52.2137 4.98 52.2137 4.91 52.1437 4.77C52.0737 4.7 52.0737 4.56 52.0037 4.49C51.9337 4.35 51.9337 4.28 51.8637 4.14C51.7937 4.07 51.7237 4 51.6537 3.86C51.2337 3.16 50.6737 2.6 50.2537 2.18C50.1837 2.18 49.9737 2.11 49.8337 1.97C49.6237 1.9 49.4837 1.76 49.3437 1.76C49.7637 1.97 50.1137 2.25 50.3937 2.53C50.7437 2.81 51.0237 3.09 51.2337 3.37C51.5137 3.65 51.7237 4 51.9337 4.35C51.9337 4.42 51.9337 4.42 52.0037 4.49C52.0037 4.56 52.0037 4.56 52.0037 4.63C52.0737 4.7 52.1437 4.84 52.1437 4.91C52.2137 5.05 52.2137 5.12 52.2837 5.19C52.2837 5.33 52.3537 5.4 52.3537 5.54C52.2837 5.4 52.2837 5.33 52.2137 5.19C52.1437 5.05 52.1437 4.98 52.0737 4.84C51.9337 4.63 51.8637 4.35 51.6537 4.14C51.3737 3.65 51.0237 3.23 50.6037 2.81C49.7637 2.04 48.6437 1.41 47.3137 1.06C47.0337 0.989998 46.6837 0.919999 46.4037 0.849995C46.1937 0.849995 46.0537 0.849995 45.8437 0.779996C45.7037 0.779996 45.5637 0.779996 45.3537 0.709997C45.0037 0.709997 44.7237 0.709997 44.3737 0.709997C44.1637 0.709997 44.0237 0.709997 43.8137 0.709997C43.7437 0.709997 43.6737 0.709997 43.6037 0.709997H43.4637H43.3937C42.9037 0.709997 42.4837 0.779996 42.0637 0.849995C41.9237 0.849995 41.7137 0.849995 41.5037 0.919999C41.2937 0.919999 41.1537 0.989998 40.9437 0.989998C40.9437 0.919999 41.1537 0.849995 40.8037 0.919999C39.5437 1.06 39.0537 1.2 37.9337 1.34C37.5137 1.55 37.0237 1.76 36.4637 1.9C35.9037 2.11 35.2737 2.25 34.5737 2.39C33.3137 2.74 31.9137 3.02 30.7937 3.23C31.2837 3.09 31.9137 3.02 31.9137 2.88C31.4937 2.95 31.0737 3.02 30.6537 3.16C30.2337 3.23 29.8837 3.37 29.4637 3.51C28.6937 3.79 27.9237 4 27.1537 4.21C27.4337 4.21 27.9237 4 27.9937 4.07C26.5237 4.42 25.4037 4.77 24.4937 5.05C24.0737 5.12 23.6537 5.26 23.2337 5.4C22.8137 5.47 22.3937 5.61 22.0437 5.75C21.6237 5.82 20.3637 6.24 21.3437 5.96C21.8337 5.82 22.6037 5.54 22.9537 5.54C22.4637 5.68 22.1137 5.82 21.6937 5.96C21.3437 6.03 20.9937 6.17 20.6437 6.24C19.9437 6.45 19.3137 6.66 18.6137 7.01C19.1737 6.87 18.5437 7.01 18.5437 7.08C20.5037 6.59 22.3237 6.03 23.8637 5.82C23.5137 5.96 22.3237 6.24 22.5337 6.24C22.8137 6.17 23.1637 6.1 23.4437 5.96C23.7237 5.89 24.0737 5.82 24.2137 5.82C21.0637 6.66 17.2137 7.85 14.6937 8.76C14.6237 8.76 14.2737 8.9 13.9937 8.97C13.7137 9.11 13.5037 9.18 13.7837 9.11C16.1637 8.62 19.7337 7.29 22.3237 6.45C22.1137 6.73 22.5337 6.38 22.7437 6.52C23.1637 6.31 23.6537 6.17 24.1437 6.03C24.4237 6.03 24.7037 5.96 24.9837 5.89C25.2637 5.82 25.5437 5.75 25.8937 5.68C25.6137 5.75 25.4037 5.82 25.1237 5.89C24.8437 5.96 24.6337 6.03 24.3537 6.1C23.7937 6.24 23.2337 6.45 22.7437 6.59C22.4637 6.66 22.1837 6.73 21.9037 6.8C21.6237 6.87 21.4137 6.94 21.1337 7.01C20.6437 7.15 20.2237 7.29 19.8737 7.43C20.2937 7.29 20.7837 7.15 20.9937 7.15C20.0137 7.5 19.1737 7.64 18.8937 7.92C20.3637 7.57 21.8337 7.08 23.3037 6.8C22.2537 7.08 21.4837 7.36 22.9537 6.94C24.1437 6.59 25.6837 6.1 26.4537 6.1C24.9837 6.52 23.0937 6.94 22.1137 7.36C22.2537 7.29 22.3937 7.29 22.3937 7.36C21.9037 7.43 20.9237 7.85 21.2737 7.71C22.1137 7.64 23.1637 7.15 24.2837 6.94C23.5837 7.15 22.8837 7.36 22.1837 7.57C21.5537 7.71 20.9937 7.92 20.5737 8.13C20.7837 8.13 21.2737 7.92 21.3437 7.99C20.9237 8.06 20.5737 8.2 20.5037 8.34C20.9937 8.13 21.6237 7.99 22.2537 7.78C22.8837 7.64 23.4437 7.5 23.7937 7.29C23.7237 7.29 22.6737 7.64 22.1837 7.64C22.7437 7.5 23.3037 7.29 23.9337 7.08C24.4937 6.94 25.0537 6.8 25.5437 6.73C25.0537 6.94 24.4937 6.94 24.0037 7.22C24.2137 7.15 24.6337 6.94 24.5637 7.15C24.2837 7.29 23.9337 7.15 24.0737 7.36C24.6337 7.22 25.3337 6.94 25.6137 7.01C24.9837 7.15 24.4237 7.29 23.9337 7.5C23.7937 7.57 23.8637 7.43 23.5837 7.5C23.0937 7.71 22.2537 7.92 21.9737 8.06C21.6237 8.2 21.2037 8.27 20.8537 8.41C20.6437 8.41 20.5737 8.48 20.8537 8.41C21.0637 8.34 21.3437 8.27 21.5537 8.2C22.8137 7.85 24.3537 7.36 25.2637 7.29C24.9837 7.43 24.4937 7.5 24.4937 7.57C25.9637 7.29 27.7837 6.8 28.9737 6.59C26.8737 7.36 24.7737 7.57 23.0937 8.34C23.4437 8.13 22.8837 8.48 22.8837 8.34C22.8837 8.2 23.5137 8.2 23.3737 8.06C22.6037 8.2 22.3937 8.62 21.8337 8.48C21.3437 9.04 18.8937 9.46 17.7037 9.95C17.2137 10.16 16.4437 10.58 15.7437 10.65C15.8837 10.58 16.5837 10.37 16.3037 10.37C15.8137 10.51 15.6737 10.72 15.1137 10.86C15.1137 10.79 15.2537 10.79 15.2537 10.72C14.2037 11.07 12.3837 11.63 10.7037 12.19C9.02367 12.75 7.41367 13.31 6.57367 13.66C5.94367 13.94 6.15367 13.87 6.57367 13.73C6.99367 13.59 7.62367 13.38 7.90367 13.24C7.90367 13.31 7.83367 13.38 7.83367 13.38C10.9837 12.12 14.2737 11.21 16.4437 10.86C17.8437 10.23 19.5237 9.88 20.6437 9.6C20.0837 9.95 17.6337 10.37 18.1937 10.37C17.7037 10.51 16.9337 10.72 16.3037 10.93C15.6737 11.14 15.1137 11.35 14.9037 11.42C15.1837 11.42 16.0937 11 16.3737 11.07C14.8337 11.56 13.5037 11.91 12.3137 12.26C11.0537 12.68 9.93367 13.03 8.74367 13.59C8.53367 13.66 8.81367 13.59 8.67367 13.66C7.90367 13.94 8.18367 13.94 8.74367 13.66C9.86367 13.31 11.0537 12.89 12.1737 12.54C13.3637 12.12 14.4837 11.84 15.4637 11.63C15.1837 11.91 13.5037 12.33 12.5237 12.68C12.0337 12.82 12.6637 12.68 12.8737 12.61C13.5037 12.47 15.3937 11.77 16.2337 11.7C16.0237 11.77 15.5337 11.84 15.5337 11.91C16.0237 11.77 16.5137 11.7 16.6537 11.63C16.4437 11.91 15.2537 12.26 16.2337 11.84C15.8837 11.98 15.5337 12.05 15.1837 12.12C14.8337 12.19 14.6237 12.26 14.4837 12.4C15.1837 12.26 15.0437 12.19 15.6037 12.19C15.3937 12.26 14.5537 12.47 15.0437 12.47C15.3237 12.26 15.8137 12.12 16.3037 11.98C16.8637 11.91 18.1937 11.49 19.7337 11.07C21.2037 10.65 22.7437 10.23 23.6537 10.16C22.0437 10.58 20.2237 11.14 19.2437 11.49C20.0837 11.28 18.9637 11.63 18.9637 11.77C19.5237 11.56 20.0837 11.42 20.4337 11.42C18.5437 11.98 16.7237 12.54 14.9737 13.1C14.6937 13.24 15.5337 12.89 15.7437 12.89C16.8637 12.61 18.3337 12.12 19.7337 11.7C20.3637 11.42 21.0637 11.28 21.6937 11.07C22.3237 10.93 22.8837 10.79 23.3737 10.79C23.7237 10.58 24.2837 10.58 24.7037 10.51C24.2137 10.72 23.7237 10.79 23.2337 10.93C22.7437 11.07 22.2537 11.21 21.8337 11.35C21.1337 11.63 22.7437 11.14 22.8137 11.14C23.3037 11 24.0037 10.86 24.6337 10.79C25.2637 10.65 25.8937 10.51 26.3137 10.44C25.6137 10.65 24.8437 10.79 23.8637 11.07C23.4437 11.21 22.7437 11.42 23.5837 11.21C24.0737 11.07 24.5637 10.93 24.9837 10.79C25.3337 10.79 25.7537 10.65 26.1737 10.58C26.6637 10.44 27.2237 10.3 27.7137 10.16C28.7637 9.88 29.6737 9.6 30.0937 9.67C30.0237 9.67 29.7437 9.74 29.8137 9.74C30.1637 9.67 30.5137 9.6 30.8637 9.53C31.2137 9.46 31.4937 9.39 31.7037 9.46C31.4237 9.46 31.1437 9.53 30.8637 9.6C30.5137 9.67 30.2337 9.74 29.9537 9.81C29.3937 9.95 28.9037 10.09 28.6937 10.02C28.3437 10.16 27.8537 10.37 27.6437 10.58C27.3637 10.58 26.8037 10.72 26.1737 10.86C25.5437 11.07 24.9137 11.21 24.5637 11.35C24.7737 11.28 25.1237 11.14 25.0537 11.28C23.7937 11.56 22.1137 11.98 20.5737 12.61C22.1137 12.26 24.0037 11.63 25.4037 11.35C23.5837 11.91 21.4137 12.4 20.4337 13.03C21.3437 12.82 21.9037 12.54 22.7437 12.33C22.7437 12.4 22.7437 12.47 22.9537 12.4C23.7937 12.19 24.3537 11.98 24.9137 11.84C25.4037 11.63 25.9637 11.49 26.5937 11.42C26.3137 11.56 25.9637 11.63 25.7537 11.77C26.5237 11.63 27.0837 11.35 27.3637 11.35C27.2937 11.42 26.9437 11.49 26.5937 11.63C26.3137 11.7 26.0337 11.77 26.1037 11.84C26.5937 11.63 27.2237 11.56 27.5037 11.35C27.5737 11.42 27.5037 11.49 27.6437 11.49C28.1337 11.35 28.8337 11.14 29.5337 10.93C30.2337 10.79 30.8637 10.65 31.3537 10.51C31.9837 10.44 32.5437 10.3 33.1737 10.16C33.4537 10.09 33.7337 10.02 34.0837 9.95C34.3637 9.95 34.6437 9.88 34.9237 9.81C35.0637 9.74 35.2737 9.74 35.4137 9.74C35.5537 9.67 35.6937 9.67 35.8337 9.6C36.1837 9.6 36.4637 9.53 36.7437 9.46C37.3737 9.39 37.9337 9.25 38.5637 9.18C39.1237 9.04 39.7537 8.97 40.3137 8.9L41.2237 8.76C41.3637 8.76 41.5037 8.76 41.6437 8.76L42.0637 8.69H42.2737L42.4837 8.62H42.9037H43.1137C43.1837 8.62 43.2537 8.62 43.3237 8.62L43.7437 8.55H43.8137C43.8137 8.55 43.8837 8.55 43.8137 8.55C43.8837 8.55 43.8837 8.55 43.8837 8.55V8.62C43.9537 8.62 43.9537 8.62 43.9537 8.62C44.0237 8.62 44.0937 8.69 44.0937 8.76C44.1637 8.83 44.1637 8.9 44.1637 8.97C44.0937 8.97 44.0937 9.04 44.0937 9.11L44.0237 9.25C43.9537 9.32 43.8837 9.39 43.8837 9.46C43.7437 9.6 43.6737 9.81 43.6037 9.95C43.3937 10.23 43.1137 10.51 42.9037 10.86C42.4137 11.42 41.8537 11.98 41.2237 12.54C39.8937 13.66 38.3537 14.71 36.6737 15.69C36.2537 15.97 35.8337 16.18 35.4137 16.39C35.2037 16.53 34.9937 16.67 34.7837 16.74L34.0837 17.09C30.2337 19.12 31.9137 28.29 33.1737 27.8C32.2637 28.08 32.8937 27.66 33.8037 27.38C34.7837 27.1 35.6937 26.75 36.6737 26.61C37.4437 26.19 38.2137 25.98 39.3337 25.56C38.0737 25.84 36.6037 26.33 35.2737 26.68C33.9437 27.1 32.6837 27.38 31.7737 27.38C31.7737 27.31 31.7737 27.31 31.8437 27.31C32.0537 27.24 32.4037 27.24 32.4737 27.1C32.3337 27.1 32.1937 27.17 31.9837 27.17C32.0537 27.17 32.0537 27.1 32.1237 27.1C32.4737 27.03 32.8237 26.96 33.1037 26.82C32.9637 26.96 32.8237 27.03 32.7537 27.1C32.8937 27.03 33.1037 26.89 33.3137 26.82C33.5937 26.75 33.9437 26.68 34.2237 26.61C34.8537 26.47 35.4837 26.33 36.1137 26.19C36.7437 26.05 37.3737 25.91 38.0737 25.77C38.0037 25.84 37.6537 25.84 37.7237 25.91C37.9337 25.84 38.0737 25.84 38.2137 25.77C38.4237 25.7 38.5637 25.63 38.8437 25.63C38.8437 25.42 38.4937 25.7 38.4937 25.56C39.2637 25.35 40.1737 25.14 41.0137 25.07C41.0837 25.07 41.2237 25.07 41.2937 25C41.4337 25 41.5037 25 41.6437 25C41.8537 25 42.0637 25 42.2037 25C42.3437 25 42.4137 25 42.5537 25H42.6937C42.6937 25 42.7637 25 42.8337 25C42.9037 25 42.9737 25 43.0437 25C43.1837 25.07 43.2537 25.07 43.3237 25.07C43.2537 25.07 43.0437 25 43.0437 25.07C43.6037 25.07 44.0937 25.14 44.5137 25.21C44.5837 25.21 44.7237 25.28 44.7937 25.28C44.8637 25.28 44.8637 25.28 44.9337 25.35H45.0037H45.0737C45.1437 25.35 45.2137 25.42 45.2837 25.42H45.3537C45.3537 25.42 45.4237 25.42 45.4237 25.49C45.4937 25.49 45.5637 25.49 45.6337 25.49H45.7037C45.7737 25.49 45.7737 25.49 45.7737 25.49C45.8437 25.56 45.8437 25.49 45.8437 25.49C45.8437 25.49 45.8437 25.49 45.9137 25.49C45.9137 25.49 45.9137 25.49 45.9837 25.49C45.9137 25.49 45.9137 25.49 45.9137 25.49H45.8437H45.7737V25.42H45.7037H45.6337C45.4937 25.35 45.4237 25.35 45.2837 25.28C45.1437 25.28 45.0737 25.21 45.0037 25.21C44.9337 25.21 44.9337 25.21 44.8637 25.14C44.7937 25.14 44.7937 25.14 44.7237 25.14C44.7237 25.14 44.6537 25.07 44.5837 25.07C44.4437 25 44.3037 25 44.1637 24.93C44.0237 24.93 43.8837 24.86 43.8137 24.86C44.0937 24.79 44.4437 24.86 44.7937 25C44.9337 25 45.0037 25 45.0737 25.07C45.2137 25.07 45.3537 25.14 45.4237 25.21C45.5637 25.21 45.6337 25.21 45.7737 25.28C45.8437 25.28 45.8437 25.28 45.9137 25.28C45.9137 25.35 45.9137 25.35 45.9837 25.35C45.9837 25.35 46.0537 25.35 46.0537 25.42C46.1237 25.28 46.1937 25.28 46.3337 25.28C46.3337 25.28 46.4737 25.28 46.5437 25.35C46.6837 25.42 46.8237 25.49 46.9637 25.56C47.1037 25.7 47.1737 25.84 47.1737 25.98C47.2437 26.12 47.2437 26.26 47.1737 26.33C47.2437 26.4 47.2437 26.54 47.2437 26.68C47.2437 26.82 47.2437 26.96 47.1737 27.1C47.1737 27.24 47.1037 27.38 47.0337 27.52C47.0337 27.52 47.0337 27.59 46.9637 27.59C46.9637 27.66 46.9637 27.73 46.8937 27.73C46.8937 27.87 46.8237 27.94 46.8237 28.01C46.8237 27.94 46.8937 27.8 46.9637 27.73C46.9637 27.66 46.9637 27.66 47.0337 27.66C47.0337 27.66 47.0337 27.66 47.0337 27.59C47.1037 27.59 47.1037 27.59 47.1037 27.52C47.1037 27.59 47.1037 27.59 47.1037 27.59L47.0337 27.66C47.0337 27.73 46.9637 27.8 46.9637 27.87C46.9637 27.94 46.8937 28.01 46.8937 28.01L46.8237 28.08C46.8237 28.08 46.8237 28.08 46.8237 28.15L46.7537 28.22C46.6137 28.5 46.4037 28.78 46.2637 28.99C46.1237 29.13 46.0537 29.27 45.9837 29.41L45.7037 29.76C45.6337 29.83 45.5637 29.9 45.5637 29.97C45.4937 29.97 45.4237 30.04 45.4237 30.11C45.2837 30.25 45.2137 30.32 45.0737 30.46C45.0037 30.53 44.9337 30.67 44.8637 30.74C44.7237 30.81 44.6537 30.95 44.5837 31.02C44.5137 31.16 44.4437 31.23 44.3037 31.3C44.2337 31.37 44.1637 31.51 44.0937 31.58C44.0237 31.65 43.9537 31.65 43.9537 31.72C43.8837 31.79 43.8137 31.79 43.8137 31.86C43.6737 31.93 43.6037 32 43.5337 32.07C43.3237 32.21 43.1137 32.35 42.9037 32.49C43.1837 32.14 43.5337 31.86 43.8137 31.58C43.9537 31.44 44.0937 31.3 44.2337 31.16C44.3037 31.09 44.3037 31.09 44.3737 31.02C44.3737 31.02 44.4437 30.95 44.4437 30.88C44.5137 30.81 44.5837 30.74 44.6537 30.67C44.5137 30.74 44.4437 30.81 44.4437 30.74C44.5837 30.6 44.6537 30.53 44.7937 30.39C44.8637 30.25 44.9337 30.18 45.0737 30.04C45.1437 29.97 45.2137 29.83 45.2837 29.76C45.3537 29.69 45.4237 29.55 45.4937 29.48C45.7037 29.2 45.9137 28.92 46.1937 28.57C46.0537 28.64 45.9837 28.78 45.8437 28.92C45.7737 28.99 45.7037 29.06 45.7037 29.13C45.6337 29.2 45.5637 29.34 45.4937 29.41C45.3537 29.55 45.2137 29.69 45.0737 29.9C45.0037 29.97 44.9337 30.04 44.8637 30.18C44.7937 30.25 44.7237 30.32 44.6537 30.39C44.5137 30.6 44.3037 30.74 44.1637 30.95C44.0237 31.09 43.8837 31.23 43.6737 31.37C43.5337 31.51 43.3937 31.65 43.2537 31.79C43.1137 31.86 43.0437 31.86 42.9737 31.93C42.9037 32 42.8337 32 42.7637 32.07C42.8337 32.14 42.5537 32.35 42.4837 32.49C42.6937 32.35 42.9037 32.21 43.0437 32.07C43.1837 31.93 43.3237 31.79 43.4637 31.65C43.5337 31.58 43.6037 31.51 43.6737 31.44C43.7437 31.37 43.8137 31.3 43.8837 31.23C43.9537 31.16 44.0937 31.09 44.1637 31.02L44.2337 30.95C44.3037 30.88 44.3737 30.88 44.3737 30.81C43.7437 31.58 42.8337 32.42 41.7837 33.19C40.6637 34.03 39.5437 34.8 38.5637 35.5C38.5637 35.43 38.6337 35.36 38.4237 35.5C38.2137 35.64 38.0737 35.78 37.8637 35.85C37.7237 35.99 37.5837 36.06 37.3737 36.2C37.2337 36.27 37.0937 36.34 36.9537 36.48C36.7437 36.55 36.6037 36.69 36.3937 36.83C36.1137 37.11 35.7637 37.39 35.3437 37.74C35.1337 37.88 34.9237 38.09 34.7137 38.23C34.5037 38.37 34.2237 38.58 34.0137 38.72C33.7337 38.86 33.4537 39.07 33.2437 39.21C32.9637 39.35 32.6837 39.49 32.4737 39.63C32.1937 39.77 31.9137 39.91 31.7037 40.05C31.5637 40.12 31.4237 40.19 31.2837 40.26C31.2137 40.33 31.0737 40.33 31.0037 40.4C31.0737 40.33 31.1437 40.33 31.2837 40.26C31.3537 40.19 31.4937 40.12 31.5637 40.05C31.7037 39.98 31.8437 39.84 31.8437 39.77C31.1437 40.12 30.5137 40.54 29.8837 40.96C29.2537 41.38 28.6237 41.73 28.0637 42.08C28.2737 42.01 28.6237 41.73 28.6937 41.73C28.4137 41.94 28.1337 42.08 27.8537 42.22C27.6437 42.36 27.3637 42.5 27.1537 42.57C26.6637 42.85 26.2437 43.06 25.8937 43.27C25.6837 43.34 25.4737 43.48 25.3337 43.55C25.1237 43.62 24.9837 43.69 24.7737 43.83C24.4237 43.97 24.1437 44.11 23.7937 44.25C23.4437 44.46 22.3937 44.95 23.2337 44.6C23.6537 44.46 24.2837 44.04 24.5637 43.97C24.2137 44.18 23.8637 44.39 23.5837 44.53C23.2337 44.67 22.9537 44.81 22.6037 44.95C22.3237 45.09 22.0437 45.23 21.7637 45.37C21.6237 45.44 21.4837 45.58 21.3437 45.65C21.2037 45.72 21.0637 45.79 20.9237 45.86C21.4137 45.72 20.8537 45.93 20.8537 46C21.1337 45.93 21.3437 45.86 21.5537 45.72C21.7637 45.65 21.9037 45.58 22.1137 45.51C22.5337 45.3 22.9537 45.16 23.3037 44.95C23.5137 44.88 23.7237 44.81 23.8637 44.74C24.0737 44.67 24.2137 44.6 24.4237 44.53C24.7737 44.39 25.1237 44.25 25.4737 44.11C25.1937 44.32 24.1437 44.74 24.3537 44.74C24.7737 44.53 25.4737 44.11 25.8237 44.11C25.1237 44.39 24.4237 44.74 23.7237 45.09C22.9537 45.44 22.2537 45.79 21.5537 46.07C20.7837 46.42 20.0837 46.77 19.4537 47.05C18.7537 47.33 18.1237 47.61 17.5637 47.89C17.5637 47.89 16.3037 48.45 16.8637 48.31C17.0737 48.24 17.3537 48.1 17.7037 48.03C17.9837 47.96 18.2637 47.82 18.5437 47.68C18.8937 47.54 19.1737 47.4 19.5237 47.26C19.8737 47.19 20.1537 46.98 20.5037 46.84C20.8537 46.7 21.1337 46.56 21.4837 46.35C21.5537 46.35 21.6237 46.28 21.6937 46.28C21.7637 46.21 21.9037 46.14 21.9737 46.14C22.1137 46.07 22.2537 45.93 22.4637 45.86C23.0237 45.58 23.6537 45.23 24.2137 44.95C24.0737 45.23 24.3537 44.81 24.5637 44.95C24.9137 44.74 25.3337 44.53 25.8237 44.32C26.2437 44.11 26.7337 43.9 27.2237 43.69C26.8737 43.9 26.3837 44.11 25.9637 44.39C25.4737 44.6 25.0537 44.81 24.5637 45.02C24.1437 45.23 23.6537 45.44 23.2337 45.65C22.8137 45.86 22.4637 46 22.1137 46.21C22.5337 46 22.8837 45.86 23.0937 45.86C22.7437 46 22.3237 46.21 21.9737 46.35C21.6937 46.49 21.4137 46.63 21.3437 46.77C21.4837 46.7 21.6937 46.63 21.8337 46.56C21.9737 46.49 22.1137 46.42 22.3237 46.35C22.6037 46.21 22.8837 46.07 23.2337 45.93C23.8637 45.72 24.4937 45.37 25.1237 45.16C24.2137 45.58 23.6537 45.93 24.8437 45.37C25.8937 44.88 27.1537 44.11 27.8537 43.97C27.2237 44.32 26.5237 44.67 25.8937 45.02C25.1937 45.3 24.5637 45.58 24.2137 45.86C24.2837 45.79 24.4237 45.79 24.4237 45.86C24.2837 45.86 24.2137 45.93 24.0737 46C23.9337 46.07 23.7937 46.14 23.6537 46.21C23.4437 46.35 23.3037 46.42 23.4437 46.35C23.6537 46.28 23.8637 46.21 24.0737 46.14C24.2837 46 24.4937 45.93 24.7037 45.79C25.1237 45.58 25.5437 45.37 26.1037 45.16C25.4737 45.51 24.8437 45.79 24.2837 46.07C23.7237 46.28 23.2337 46.56 22.8837 46.84C23.0937 46.77 23.5137 46.49 23.5837 46.56C23.2337 46.7 22.8837 46.84 22.8137 46.98C23.3037 46.77 23.8637 46.56 24.4237 46.28C24.9837 46.07 25.4737 45.79 25.6837 45.58C25.6137 45.58 24.7737 46.07 24.3537 46.14C24.7737 45.93 25.2637 45.65 25.7537 45.37C26.2437 45.16 26.7337 44.88 27.2237 44.74C26.8037 45.02 26.2437 45.16 25.8937 45.44C25.9637 45.44 26.1037 45.37 26.2437 45.3C26.3137 45.23 26.3837 45.23 26.3837 45.3C26.1737 45.51 25.8237 45.44 25.9637 45.58C26.0337 45.51 26.1737 45.44 26.3137 45.37C26.4537 45.37 26.5937 45.3 26.7337 45.23C26.9437 45.09 27.1537 45.02 27.2937 45.02C26.8037 45.23 26.3137 45.51 25.8937 45.72C25.7537 45.79 25.7537 45.72 25.5437 45.79C25.1237 46.14 24.4237 46.42 24.1437 46.56C23.8637 46.7 23.5137 46.84 23.2337 47.05C23.0237 47.12 22.9537 47.19 23.2337 47.05C23.4437 46.98 23.5837 46.91 23.7937 46.77C24.3537 46.56 24.9837 46.21 25.5437 46C25.8237 45.86 26.1037 45.72 26.3137 45.58C26.5937 45.51 26.8037 45.44 27.0137 45.37C26.8037 45.51 26.3837 45.65 26.3837 45.79C27.0137 45.51 27.7137 45.16 28.4137 44.88C29.1137 44.53 29.7437 44.18 30.3037 44.04C29.8137 44.32 29.3937 44.53 28.9737 44.74C28.8337 44.81 28.7637 44.88 28.6237 44.95C28.4837 45.02 28.4137 45.02 28.2737 45.09C28.0637 45.23 27.8537 45.3 27.6437 45.37C27.2237 45.58 26.8037 45.79 26.3837 46C26.0337 46.21 25.6137 46.42 25.2637 46.7C25.5437 46.42 25.1237 46.84 25.0537 46.7C25.0537 46.63 25.6137 46.49 25.4737 46.35C24.7737 46.63 24.6337 47.12 24.1437 47.05C23.9337 47.33 23.3037 47.68 22.6037 47.96C21.8337 48.31 21.0637 48.59 20.5037 48.87C20.0837 49.15 19.4537 49.64 18.8237 49.71C18.8937 49.64 19.5237 49.36 19.2437 49.43C18.8237 49.57 18.7537 49.78 18.1937 49.92C18.1937 49.92 18.3337 49.85 18.3337 49.78C17.8437 49.99 17.2137 50.27 16.5137 50.55C16.1637 50.69 15.7437 50.83 15.3937 50.97C14.9737 51.11 14.5537 51.25 14.2037 51.39C13.4337 51.67 12.6637 51.95 11.9637 52.16C11.3337 52.37 10.7037 52.58 10.3537 52.72C9.23367 53.21 11.0537 52.58 11.6137 52.44L11.5437 52.51C11.8937 52.37 12.2437 52.23 12.6637 52.09C13.0137 51.95 13.3637 51.81 13.7137 51.67C14.1337 51.6 14.4837 51.46 14.8337 51.32C15.1837 51.18 15.5337 51.04 15.8837 50.97C16.2337 50.83 16.5137 50.76 16.8637 50.62C17.2137 50.55 17.4937 50.41 17.7737 50.34C18.4037 50.13 18.9637 49.99 19.4537 49.85C19.7337 49.71 20.0837 49.5 20.4337 49.36C20.7137 49.22 21.0637 49.08 21.4137 48.94C22.0437 48.66 22.6737 48.45 23.1637 48.24C23.0937 48.38 22.8137 48.45 22.6037 48.59C22.3237 48.73 22.0437 48.87 21.7637 48.94C21.2037 49.15 20.7837 49.29 21.0637 49.29C20.5737 49.43 19.9437 49.71 19.3137 49.92C19.0337 50.06 18.7537 50.2 18.5437 50.27C18.3337 50.41 18.1237 50.48 18.0537 50.48C18.1937 50.48 18.4737 50.41 18.7537 50.27C19.0337 50.13 19.2437 50.06 19.3837 50.06C19.0337 50.2 18.6837 50.34 18.4037 50.48C18.0537 50.62 17.7737 50.69 17.4237 50.83C17.1437 50.97 16.8637 51.04 16.5137 51.18C16.2337 51.25 15.9537 51.39 15.6737 51.46C15.1137 51.67 14.5537 51.88 14.0637 52.09C13.5037 52.3 12.9437 52.51 12.3837 52.72C12.1737 52.79 12.4537 52.79 12.3137 52.86C11.9637 52.93 11.8237 53 11.8937 53C11.9637 53 12.1737 53 12.4537 52.86C14.4137 52.09 16.7937 51.25 18.6137 50.69C18.4737 50.83 18.0537 51.04 17.4937 51.25C17.2137 51.32 16.9337 51.46 16.6537 51.53C16.4437 51.67 16.1637 51.74 15.9537 51.81C15.4637 52.02 16.0937 51.88 16.2337 51.74C16.5837 51.67 17.1437 51.46 17.7037 51.25C18.0537 51.11 18.3337 50.97 18.6137 50.9C18.8937 50.83 19.1037 50.76 19.3137 50.69C19.1737 50.76 18.6837 50.9 18.7537 50.97C19.1737 50.83 19.6637 50.69 19.7337 50.62C19.5937 50.9 18.4737 51.32 19.3837 50.83C19.2437 50.97 19.0337 51.04 18.8937 51.04C18.7537 51.11 18.5437 51.18 18.4037 51.25C18.1237 51.32 17.8437 51.39 17.7737 51.53C18.4037 51.32 18.2637 51.32 18.8237 51.25C18.6137 51.32 17.8437 51.6 18.2637 51.53C18.4037 51.46 18.6137 51.39 18.8237 51.25C19.0337 51.18 19.2437 51.04 19.4537 50.97C19.6637 50.9 20.1537 50.76 20.7137 50.55C20.7837 50.48 20.9937 50.41 21.1337 50.34C21.2737 50.34 21.4137 50.27 21.5537 50.2C21.9037 50.06 22.1837 49.92 22.5337 49.78C23.2337 49.5 23.8637 49.22 24.4937 48.94C24.8437 48.8 25.1237 48.73 25.4037 48.59C25.6137 48.52 25.8937 48.45 26.1037 48.38C25.4037 48.73 24.6337 49.08 23.9337 49.36C23.2337 49.71 22.6037 49.99 22.1837 50.27C22.9537 49.99 21.9037 50.48 21.9737 50.55C22.4637 50.34 22.9537 50.06 23.3037 50.06C21.5537 50.83 19.8737 51.53 18.2637 52.16C17.9837 52.3 18.8237 51.95 18.9637 51.88C20.0837 51.53 21.3437 50.97 22.6037 50.41C22.9537 50.27 23.2337 50.13 23.5837 49.99C23.8637 49.85 24.1437 49.71 24.4237 49.57C24.7037 49.43 24.9837 49.36 25.2637 49.29C25.3337 49.22 25.4737 49.22 25.6137 49.15C25.7537 49.15 25.8237 49.08 25.9637 49.08C26.2437 48.8 26.8037 48.73 27.1537 48.59C26.7337 48.8 26.3137 49.01 25.8937 49.22C25.4037 49.43 24.9837 49.57 24.6337 49.85C24.0037 50.2 25.4037 49.5 25.5437 49.43C25.9637 49.29 26.5937 49.08 27.1537 48.87C27.4337 48.73 27.7137 48.59 27.9937 48.52C28.2737 48.38 28.4837 48.31 28.6937 48.24C28.3437 48.38 28.0637 48.52 27.7137 48.73C27.2937 48.87 26.9437 49.08 26.5237 49.29C26.1037 49.43 25.4737 49.78 26.2437 49.43C26.6637 49.22 27.0837 49.01 27.5037 48.8C27.6437 48.8 27.8537 48.73 27.9937 48.66C28.2037 48.59 28.4137 48.45 28.6237 48.38C29.0437 48.17 29.4637 47.89 29.9537 47.68C30.8637 47.19 31.7037 46.77 32.0537 46.7C31.9837 46.7 31.7737 46.91 31.7737 46.91C32.1237 46.77 32.4737 46.56 32.7537 46.42C33.0337 46.28 33.3137 46.14 33.5237 46.14C33.2437 46.21 33.0337 46.35 32.7537 46.49C32.4737 46.63 32.2637 46.77 31.9837 46.91C31.4937 47.19 31.0737 47.4 30.8637 47.4C30.5137 47.61 30.0937 47.89 29.9537 48.1C29.4637 48.31 27.7837 49.08 27.2237 49.43C27.3637 49.36 27.6437 49.15 27.6437 49.29C27.3637 49.43 27.0137 49.57 26.7337 49.71C26.3837 49.85 26.0337 49.99 25.6837 50.13C25.3337 50.34 24.9837 50.48 24.6337 50.69C24.2837 50.83 23.9337 51.04 23.5837 51.25C23.9337 51.11 24.2837 50.9 24.7037 50.76C25.0537 50.62 25.4737 50.41 25.8237 50.27C26.5937 49.92 27.3637 49.57 27.9937 49.29C26.3837 50.13 24.3537 50.9 23.5137 51.67C23.7237 51.53 23.9337 51.46 24.0737 51.39C24.2837 51.32 24.4237 51.25 24.5637 51.18C24.9137 50.97 25.2637 50.83 25.6137 50.62C25.6137 50.69 25.6137 50.76 25.8237 50.69C26.2437 50.55 26.5237 50.34 26.8037 50.2C27.0837 50.06 27.3637 49.92 27.5737 49.85C27.8537 49.71 28.0637 49.57 28.3437 49.43C28.5537 49.36 28.8337 49.22 29.1137 49.15C28.9037 49.29 28.5537 49.5 28.4137 49.64C29.1137 49.36 29.6037 48.94 29.8837 48.87C29.6737 49.08 28.6937 49.57 28.7637 49.64C29.1837 49.36 29.8137 49.15 30.0237 48.94C30.0237 48.94 30.0237 49.08 30.1637 49.01C30.6537 48.73 31.2137 48.38 31.8437 48.1C32.4737 47.82 33.0337 47.47 33.5237 47.26C33.7337 47.12 34.0137 46.98 34.2937 46.84C34.5737 46.7 34.7837 46.56 35.0637 46.42C35.6237 46.14 36.1137 45.86 36.6737 45.58C37.2337 45.3 37.7237 45.02 38.2837 44.74C38.4937 44.53 38.7737 44.39 39.0537 44.25C39.3337 44.11 39.6137 43.97 39.8237 43.83C40.1037 43.62 40.3837 43.48 40.6637 43.34L41.0137 43.13L41.4337 42.85L41.8537 42.64L42.2037 42.36L42.6237 42.15L43.0437 41.87C44.0937 41.17 45.2137 40.47 46.2637 39.7C47.1737 39 48.0837 38.23 48.9937 37.39C50.6737 35.85 52.2137 33.96 53.3337 31.79C53.4037 31.65 53.5437 31.51 53.6137 31.37C53.6837 31.16 53.7537 31.02 53.8237 30.88C53.9637 30.53 54.1737 30.04 54.3137 29.62C54.5937 28.71 54.8037 27.8 54.8737 26.89C54.9437 25.98 54.8737 25.07 54.7337 24.23C54.6637 23.74 54.5237 23.32 54.3837 22.9ZM25.4737 6.87C25.4037 6.8 26.4537 6.66 26.5937 6.52C26.7337 6.52 26.5237 6.59 26.5937 6.66C26.2437 6.73 25.6837 6.94 25.4737 6.87ZM26.1037 6.94C25.6837 6.87 26.7337 6.66 26.9437 6.59C26.9437 6.73 26.2437 6.8 26.1037 6.94ZM24.2837 8.62C23.7237 8.76 23.4437 8.9 23.0937 8.97C22.7437 9.11 22.4637 9.18 21.9737 9.32C21.6937 9.39 21.8337 9.32 21.8337 9.25C22.0437 9.18 22.3937 9.11 22.7437 8.97C23.1637 8.9 23.5837 8.76 23.9337 8.69C24.1437 8.55 24.8437 8.48 24.2837 8.62ZM39.8937 1.62C39.8937 1.62 40.0337 1.55 40.2437 1.48C40.5237 1.41 40.8037 1.34 41.0837 1.34C40.8037 1.48 40.3837 1.55 39.8937 1.62ZM42.5537 1.34C42.4137 1.34 42.3437 1.34 42.2037 1.41C41.9237 1.41 41.6437 1.41 41.5037 1.41C41.5737 1.41 41.7837 1.34 42.0637 1.34C42.1337 1.34 42.2737 1.34 42.4137 1.34C42.4837 1.34 42.5537 1.27 42.5537 1.27C42.6237 1.27 42.6937 1.27 42.7637 1.27C42.6937 1.34 42.6237 1.34 42.5537 1.34ZM31.9137 27.45C31.8437 27.52 31.8437 27.45 31.9137 27.45V27.45ZM47.5937 1.55C47.8037 1.62 47.8037 1.69 47.6637 1.62C47.5237 1.55 47.1737 1.48 46.8237 1.41C46.4037 1.34 45.9837 1.27 45.6337 1.27C45.2137 1.2 44.9337 1.2 44.8637 1.2C45.0037 1.13 45.4937 1.13 46.0537 1.2C46.5437 1.27 47.1737 1.41 47.5937 1.55ZM43.5337 0.989998C43.3937 0.989998 43.2537 1.06 43.1137 1.06C43.1837 1.06 43.2537 0.989998 43.2537 0.989998C43.3237 0.989998 43.3937 0.989998 43.4637 0.989998H43.5337L43.6737 0.919999C43.7437 0.919999 43.8137 0.919999 43.8837 0.919999C44.2337 0.919999 44.5837 0.919999 44.9337 0.919999C45.5637 0.919999 46.2637 0.989998 46.9637 1.06C46.8237 1.06 46.5437 1.06 46.2637 1.06C46.1237 1.06 45.9837 0.989998 45.8437 0.989998C45.6337 0.989998 45.4937 0.989998 45.2837 0.989998C44.9337 0.989998 44.5137 0.989998 44.1637 0.989998C43.9537 0.989998 43.7437 0.989998 43.5337 0.989998ZM27.1537 44.95C27.0837 44.88 27.9937 44.53 28.0637 44.39C28.2037 44.32 28.0637 44.46 28.1337 44.53C27.7837 44.67 27.3637 44.88 27.1537 44.95ZM27.7137 44.88C27.3637 44.88 28.2737 44.46 28.4137 44.32C28.4137 44.53 27.7837 44.67 27.7137 44.88ZM26.3837 46.77C25.9637 46.98 25.6837 47.19 25.4037 47.33C25.1237 47.47 24.8437 47.61 24.4237 47.82C24.1437 47.89 24.2837 47.82 24.2837 47.75C24.4237 47.68 24.7037 47.54 25.0537 47.4C25.4037 47.26 25.7537 47.05 26.1037 46.91C26.3137 46.77 26.8737 46.56 26.3837 46.77ZM38.0737 36.41C38.0737 36.41 38.1437 36.34 38.2837 36.2C38.4237 36.06 38.6337 35.85 38.8437 35.71C38.7037 35.99 38.4237 36.2 38.0737 36.41ZM39.6837 35.43C39.6137 35.43 39.4737 35.5 39.4037 35.57C39.3337 35.64 39.2637 35.64 39.1937 35.71C39.2637 35.57 39.7537 35.29 40.0337 35.08C39.9637 35.22 39.8237 35.29 39.6837 35.43ZM40.5937 34.38C40.4537 34.52 40.3137 34.66 40.1037 34.73C40.3837 34.52 40.5937 34.31 40.8737 34.1C41.0137 33.96 41.1537 33.89 41.2937 33.75C41.4337 33.61 41.5737 33.54 41.6437 33.4C41.5737 33.54 41.3637 33.75 41.0837 34.03C40.9437 34.1 40.8037 34.24 40.5937 34.38ZM41.8537 33.68C41.5737 33.96 41.1537 34.24 41.0837 34.38C41.0837 34.24 41.2937 34.1 41.5037 33.89C41.7137 33.75 41.9937 33.54 42.1337 33.4C42.4137 33.19 42.2037 33.4 41.8537 33.68ZM47.5937 18.21C47.5237 18.35 47.5237 18.42 47.4537 18.56C47.3137 18.91 47.5237 18.42 47.5937 18.14V18.21ZM19.5237 51.46C19.3837 51.53 19.2437 51.6 19.1037 51.67C18.9637 51.74 18.8937 51.74 18.8937 51.81C18.8237 51.81 18.8237 51.81 18.8937 51.81C18.9637 51.74 19.1037 51.74 19.3137 51.6C19.8037 51.39 20.5037 51.18 20.7137 50.97C20.5037 51.11 20.3637 50.97 20.2937 51.11C20.3637 51.11 20.4337 51.04 20.4337 51.11C20.1537 51.11 19.8737 51.32 19.5237 51.46ZM22.1837 45.02C21.9737 45.16 21.6937 45.3 21.4137 45.37C21.1337 45.51 20.8537 45.58 20.7837 45.72C20.9937 45.58 21.2737 45.51 21.5537 45.37C21.8337 45.23 22.0437 45.16 22.1837 45.02ZM19.5937 46.42C19.2437 46.56 18.8937 46.7 18.7537 46.91C19.1037 46.7 19.5237 46.56 19.5937 46.42ZM19.4537 48.8C19.6637 48.73 20.0137 48.59 20.3637 48.45C20.6437 48.24 20.9237 48.1 20.8537 48.03C20.7137 48.17 20.4337 48.24 20.1537 48.38C19.8737 48.52 19.5937 48.59 19.4537 48.8ZM22.8837 47.61C22.7437 47.61 22.3237 47.82 22.1137 48.03C22.2537 47.96 22.3237 47.96 22.4637 47.89C23.0937 47.61 23.0937 47.54 22.8837 47.61ZM23.8637 46.98C23.9337 46.84 24.4237 46.7 24.4237 46.63C24.2137 46.7 24.0037 46.77 23.8637 46.84C23.9337 46.91 23.7237 47.05 23.8637 46.98ZM36.5337 26.68C36.6037 26.68 36.6037 26.61 36.6737 26.61C36.6037 26.61 36.5337 26.61 36.5337 26.68ZM7.34367 54.61C7.69367 54.47 8.18367 54.33 8.53367 54.26C8.88367 54.12 9.16367 53.98 9.16367 53.91C8.53367 54.26 7.69367 54.4 7.34367 54.61ZM15.6037 51.95C15.5337 51.88 14.4837 52.3 14.7637 52.3C15.1137 52.09 15.5337 52.09 15.6037 51.95ZM6.71367 53C6.08367 53.21 5.80367 53.28 5.10367 53.56C5.80367 53.35 6.36367 53.35 6.71367 53ZM10.4237 53.07C10.2137 53.07 10.0737 53.14 9.86367 53.21C9.72367 53.28 9.51367 53.35 9.37367 53.35C9.02367 53.49 8.74367 53.63 8.39367 53.77C7.06367 54.26 8.46367 53.77 9.16367 53.56C9.37367 53.49 9.72367 53.42 9.93367 53.42C10.2137 53.35 10.4237 53.28 10.4937 53.14C9.86367 53.35 10.1437 53.21 10.4237 53.07ZM36.7437 26.61H36.6737C36.6737 26.61 36.6737 26.61 36.7437 26.61ZM22.9537 51.46C23.3037 51.32 23.8637 50.97 23.7937 50.97C23.5837 51.11 23.0937 51.25 23.0237 51.32C23.2337 51.25 23.0237 51.39 22.9537 51.46ZM15.4637 52.44C15.8137 52.3 16.6537 52.09 16.8637 51.88C16.5837 51.95 15.6737 52.23 15.4637 52.44ZM15.9537 54.33C16.1637 54.33 16.7937 53.91 17.1437 53.98C17.0737 53.77 16.0937 54.26 15.9537 54.33ZM42.2037 25.14C41.2237 25.21 40.5237 25.21 39.6137 25.56C40.1037 25.42 40.5937 25.35 41.0837 25.28C41.5037 25.21 41.9237 25.21 42.2037 25.14ZM44.4437 29.9C44.3037 29.97 44.2337 30.04 44.1637 30.18C44.0937 30.25 43.9537 30.32 43.8837 30.39C43.9537 30.39 44.0237 30.32 44.1637 30.25C44.1637 30.18 44.2337 30.18 44.3037 30.11L44.3737 30.04C44.3737 29.97 44.4437 29.97 44.4437 29.97C44.5137 29.83 44.6537 29.69 44.7237 29.62C44.7937 29.55 44.7937 29.48 44.7937 29.48C44.8637 29.41 44.8637 29.34 44.8637 29.34C44.7937 29.41 44.7237 29.48 44.6537 29.55C44.5837 29.69 44.5137 29.76 44.4437 29.9ZM43.9537 25.84C43.9537 25.91 44.0237 25.91 44.0937 25.91H44.1637C44.2337 25.91 44.2337 25.91 44.2337 25.98C44.3737 25.98 44.5137 25.98 44.5837 25.98C44.6537 26.05 44.7237 26.05 44.7237 26.05C44.4437 25.91 44.0237 25.84 43.7437 25.77C43.7437 25.77 43.8137 25.84 43.9537 25.84ZM31.8437 28.78C32.1237 28.71 32.4037 28.71 32.7537 28.64C32.8237 28.5 32.8937 28.43 32.7537 28.36L31.8437 28.78ZM45.9837 26.82C46.0537 26.82 46.0537 26.75 46.0537 26.75C46.0537 26.68 46.0537 26.68 46.0537 26.68C45.9837 26.68 45.9837 26.68 45.9837 26.68C45.9837 26.75 46.0537 26.75 45.9837 26.82ZM46.6137 26.61C46.6137 26.68 46.6137 26.75 46.5437 26.75C46.5437 26.82 46.5437 26.82 46.6137 26.89C46.6137 26.82 46.6137 26.75 46.6137 26.75C46.6837 26.68 46.6137 26.61 46.6137 26.61ZM46.4737 28.01C46.4737 27.94 46.4737 27.94 46.5437 27.94V27.87C46.5437 27.87 46.5437 27.87 46.5437 27.8C46.6137 27.8 46.6137 27.73 46.6137 27.66C46.5437 27.73 46.4737 27.8 46.4737 27.87C46.4037 27.94 46.4037 27.94 46.4037 27.94C46.4037 28.01 46.4037 28.01 46.3337 28.01C46.2637 28.15 46.2637 28.29 46.2637 28.36C46.2637 28.29 46.4037 28.15 46.4737 28.01ZM46.4737 25.84C46.5437 25.91 46.6137 25.98 46.6837 25.98C46.6837 25.91 46.6137 25.84 46.6137 25.77C46.5437 25.7 46.4737 25.63 46.2637 25.63C46.3337 25.7 46.4037 25.77 46.4737 25.84ZM45.7737 29.27C45.7737 29.34 45.7737 29.34 45.7737 29.41C45.8437 29.41 45.8437 29.34 45.9137 29.34C45.9137 29.27 45.9137 29.2 45.9837 29.27C46.0537 29.06 46.1937 28.85 46.3337 28.64C46.2637 28.64 46.1237 28.99 45.9837 29.13C45.9137 29.2 45.8437 29.2 45.7737 29.27ZM38.8437 34.8C38.7737 34.87 38.6337 34.94 38.4937 35.08C38.4237 35.15 38.2837 35.22 38.2137 35.29C38.1437 35.36 38.0737 35.43 38.0737 35.5C38.2137 35.36 38.6337 35.15 38.9837 34.94C39.3337 34.73 39.5437 34.59 39.3337 34.66C39.7537 34.38 41.0837 33.33 40.0337 34.1C39.8937 34.17 39.7537 34.24 39.6137 34.38C39.4737 34.45 39.3337 34.52 39.1237 34.59C39.0537 34.66 38.9837 34.73 38.8437 34.8ZM38.7737 26.19C38.8437 26.12 38.9137 26.12 38.9837 26.12C39.0537 26.12 39.1237 26.05 39.1937 26.05C39.3337 25.98 39.4037 25.98 39.4737 25.91C38.9137 26.05 38.2137 26.19 37.7937 26.4C38.0737 26.33 38.4237 26.26 38.7737 26.19ZM36.8137 26.82C37.0237 26.82 37.2337 26.75 37.3037 26.68C37.4437 26.61 37.5137 26.61 37.4437 26.61C37.3037 26.68 37.0237 26.75 36.7437 26.82C36.4637 26.89 36.1837 26.96 35.9037 27.03C36.0437 27.1 36.4637 26.96 36.8137 26.82ZM36.0437 26.89C36.1837 26.82 36.3937 26.75 36.4637 26.68C36.1137 26.82 35.5537 26.89 35.4837 27.03C35.6237 26.96 35.8337 26.89 36.0437 26.89ZM34.7837 37.46C34.8537 37.53 34.7837 37.53 34.7837 37.6C35.0637 37.46 35.3437 36.97 35.7637 36.83C35.6937 36.9 35.5537 37.04 35.5537 37.04C36.1137 36.76 36.9537 36.13 36.9537 36.41C37.0937 36.13 37.5837 35.92 37.7237 35.71C37.5837 35.78 37.7937 35.64 37.7937 35.64C37.2337 35.99 36.6037 36.41 36.2537 36.62C36.1837 36.55 36.3937 36.48 36.3237 36.41C35.9737 36.62 35.1337 37.18 34.6437 37.53C34.1537 37.88 33.9437 38.02 34.7837 37.46ZM32.3337 39.63C32.4737 39.49 32.7537 39.28 33.0337 39.14C33.3137 39 33.5237 38.86 33.5237 38.72C33.3837 38.79 33.2437 38.86 33.1037 38.93C32.9637 39.07 32.8237 39.14 32.7537 39.21C32.5437 39.35 32.3337 39.49 32.3337 39.63ZM39.6137 25.98C39.7537 26.05 39.8937 25.98 40.0337 25.91C40.1737 25.84 40.2437 25.77 40.3837 25.84C40.5237 25.98 39.9637 25.91 40.1037 25.98C40.8737 25.84 41.6437 25.77 42.2737 25.63C42.1337 25.63 41.9937 25.63 41.8537 25.63C41.7137 25.63 41.5737 25.63 41.5037 25.63L41.8537 25.56H42.2037C42.2037 25.49 42.0637 25.49 41.9237 25.49C41.7137 25.49 41.5037 25.56 41.5037 25.49C41.5737 25.49 41.7837 25.49 41.9237 25.49C42.0637 25.42 42.1337 25.42 41.9937 25.42C41.9937 25.42 41.9237 25.42 41.8537 25.42C41.8537 25.42 41.7837 25.42 41.7137 25.42C41.6437 25.42 41.5037 25.42 41.3637 25.49C41.2937 25.49 41.1537 25.49 41.0137 25.49C40.8737 25.49 40.7337 25.56 40.6637 25.56C40.5237 25.56 40.3837 25.63 40.3137 25.63C40.1737 25.63 40.1037 25.63 39.9637 25.7C39.8237 25.7 39.7537 25.77 39.7537 25.77C39.8937 25.77 40.2437 25.63 40.3137 25.7C40.2437 25.77 40.1037 25.84 39.9637 25.84C39.8237 25.91 39.6837 25.98 39.6137 25.98ZM46.8937 27.24C46.8937 27.17 46.8937 27.03 46.9637 26.96C46.9637 26.89 47.0337 26.82 46.9637 26.82C46.8937 26.89 46.9637 27.03 46.8937 27.03C46.8937 26.89 46.8937 26.82 46.8937 26.75C46.8937 26.68 46.8937 26.61 46.9637 26.61C46.8937 26.61 46.9637 26.68 47.0337 26.68C47.0337 26.61 47.0337 26.61 47.0337 26.54C47.0337 26.54 47.0337 26.47 47.0337 26.4C47.0337 26.26 46.9637 26.12 46.8937 25.98C46.8937 26.05 46.8937 26.12 46.9637 26.19C46.9637 26.26 46.9637 26.33 46.9637 26.4C46.8937 26.4 46.8937 26.47 46.8937 26.47C46.9637 26.54 46.9637 26.54 46.8937 26.54C46.8937 26.68 46.8937 26.82 46.8237 26.89C46.8237 27.03 46.8237 27.1 46.8937 27.24ZM34.3637 38.37C34.7837 38.02 36.1837 37.04 36.0437 36.97C35.7637 37.18 35.2737 37.46 34.9237 37.74C34.5737 38.02 34.2937 38.23 34.3637 38.37ZM42.0637 32.21C42.1337 32.14 42.2037 32.07 42.2737 32.07C42.3437 32 42.4137 31.93 42.4137 31.86C42.4837 31.79 42.5537 31.65 42.6237 31.58C42.4837 31.72 42.3437 31.79 42.2737 31.93C42.2037 32 42.0637 32.14 42.0637 32.21ZM42.9037 25.56C42.9737 25.56 43.0437 25.56 43.0437 25.56C43.1137 25.56 43.1137 25.56 43.1837 25.56C43.2537 25.56 43.2537 25.56 43.2537 25.49C43.1837 25.49 43.1137 25.49 43.0437 25.49C42.9037 25.49 42.8337 25.49 42.6937 25.49C42.4837 25.49 42.2737 25.49 42.4137 25.63C42.4137 25.56 42.6937 25.56 42.9037 25.56ZM46.7537 25.49C46.6137 25.42 46.4737 25.42 46.4037 25.49C46.5437 25.49 46.6137 25.56 46.7537 25.49Z" fill="black"/>
</svg>
