<svg width="20" height="20" viewBox="0 0 20 20" fill="none" xmlns="http://www.w3.org/2000/svg">
<path d="M15.9187 20C15.7173 19.9996 15.5242 19.9194 15.3818 19.777C15.2394 19.6345 15.1592 19.4415 15.1588 19.2401V17.0255C15.1588 16.824 15.0787 16.6307 14.9362 16.4882C14.7937 16.3456 14.6004 16.2656 14.3988 16.2656C14.1973 16.2656 14.004 16.3456 13.8615 16.4882C13.719 16.6307 13.6389 16.824 13.6389 17.0255V18.0762C13.6389 18.2777 13.5588 18.471 13.4163 18.6135C13.2738 18.7561 13.0805 18.8361 12.879 18.8361C12.6774 18.8361 12.4842 18.7561 12.3416 18.6135C12.1991 18.471 12.1191 18.2777 12.1191 18.0762V17.0255C12.1191 16.824 12.039 16.6307 11.8965 16.4882C11.754 16.3456 11.5607 16.2656 11.3591 16.2656C11.1576 16.2656 10.9643 16.3456 10.8218 16.4882C10.6793 16.6307 10.5992 16.824 10.5992 17.0255V17.3115C10.5992 17.513 10.5192 17.7063 10.3766 17.8488C10.2341 17.9913 10.0408 18.0714 9.8393 18.0714C9.63775 18.0714 9.44446 17.9913 9.30195 17.8488C9.15944 17.7063 9.07938 17.513 9.07938 17.3115V17.0255C9.07938 16.824 8.99931 16.6307 8.8568 16.4882C8.71429 16.3456 8.521 16.2656 8.31945 16.2656C8.11791 16.2656 7.92462 16.3456 7.78211 16.4882C7.63959 16.6307 7.55953 16.824 7.55953 17.0255V18.0762C7.55953 18.2777 7.47947 18.471 7.33696 18.6135C7.19444 18.7561 7.00115 18.8361 6.79961 18.8361C6.59807 18.8361 6.40478 18.7561 6.26226 18.6135C6.11975 18.471 6.03969 18.2777 6.03969 18.0762V17.0255C6.03969 16.9257 6.02003 16.8269 5.98184 16.7347C5.94365 16.6425 5.88768 16.5587 5.81711 16.4882C5.74655 16.4176 5.66277 16.3616 5.57058 16.3234C5.47838 16.2852 5.37956 16.2656 5.27977 16.2656C5.17997 16.2656 5.08115 16.2852 4.98896 16.3234C4.89676 16.3616 4.81299 16.4176 4.74242 16.4882C4.67185 16.5587 4.61588 16.6425 4.57769 16.7347C4.5395 16.8269 4.51984 16.9257 4.51984 17.0255V19.2401C4.51984 19.3399 4.50019 19.4387 4.462 19.5309C4.42381 19.6231 4.36783 19.7069 4.29727 19.7774C4.2267 19.848 4.14293 19.904 4.05073 19.9422C3.95853 19.9803 3.85972 20 3.75992 20C3.66013 20 3.56131 19.9803 3.46911 19.9422C3.37691 19.904 3.29314 19.848 3.22258 19.7774C3.15201 19.7069 3.09604 19.6231 3.05785 19.5309C3.01966 19.4387 3 19.3399 3 19.2401V6.69476C3.03578 5.13714 3.60132 3.63821 4.60338 2.44516C5.60544 1.25211 6.98417 0.436182 8.51222 0.131928C10.0403 -0.172325 11.6264 0.0532639 13.009 0.771494C14.3916 1.48972 15.4882 2.65771 16.1179 4.08283C16.4829 4.90638 16.6811 5.79415 16.7008 6.69476C16.7021 6.70413 16.7007 6.71367 16.6967 6.72224C16.6927 6.73082 16.6864 6.73808 16.6784 6.74316V19.2401C16.6781 19.4415 16.598 19.6346 16.4556 19.7771C16.3132 19.9195 16.1201 19.9997 15.9187 20ZM9.07098 8.68856C8.878 8.68856 8.7998 8.76315 8.7998 8.94853C8.7998 9.39709 9.29575 9.76165 9.90529 9.76165C10.5148 9.76165 11.0092 9.39709 11.0092 8.94853C11.0092 8.76435 10.931 8.68976 10.7384 8.68976C10.6354 8.69338 10.5328 8.70381 10.4312 8.72096L10.4214 8.72116C10.2507 8.74922 10.0781 8.76499 9.90509 8.76835C9.73167 8.76498 9.55871 8.74921 9.38754 8.72116C9.28289 8.70305 9.17712 8.69216 9.07098 8.68856V8.68856ZM12.3786 4.99674C11.7061 4.99674 11.1588 5.62288 11.1588 6.393C11.1588 7.16312 11.7055 7.78805 12.3786 7.78805C13.0518 7.78805 13.5959 7.16232 13.5959 6.393C13.5959 5.62368 13.05 4.99674 12.3786 4.99674ZM7.32336 4.99674C6.65243 4.99674 6.10608 5.62288 6.10608 6.393C6.10608 7.16312 6.65243 7.78805 7.32336 7.78805C7.99429 7.78805 8.54163 7.16132 8.54163 6.3928C8.54163 5.62427 7.99469 4.99674 7.32336 4.99674Z" fill="white"/>
</svg>
