<svg width="25" height="20" viewBox="0 0 25 20" fill="none" xmlns="http://www.w3.org/2000/svg">
<path d="M23.75 8.76536H4.26728L10.8836 2.14911C11.003 2.0338 11.0982 1.89587 11.1637 1.74337C11.2292 1.59086 11.2637 1.42684 11.2652 1.26086C11.2666 1.09489 11.235 0.930288 11.1721 0.776668C11.1093 0.623047 11.0165 0.483482 10.8991 0.366116C10.7817 0.24875 10.6422 0.155934 10.4885 0.0930829C10.3349 0.0302318 10.1703 -0.00139507 10.0043 4.71963e-05C9.83836 0.00148947 9.67434 0.0359723 9.52183 0.101484C9.36932 0.166995 9.23139 0.262223 9.11608 0.381611L0.365987 9.13161C0.131646 9.36602 0 9.6839 0 10.0154C0 10.3468 0.131646 10.6647 0.365987 10.8991L9.11608 19.6491C9.35184 19.8768 9.66759 20.0028 9.99534 20C10.3231 19.9971 10.6366 19.8656 10.8684 19.6339C11.1001 19.4021 11.2316 19.0886 11.2344 18.7609C11.2373 18.4331 11.1113 18.1174 10.8836 17.8816L4.26728 11.2654H23.75C24.0815 11.2654 24.3995 11.1337 24.6339 10.8992C24.8683 10.6648 25 10.3469 25 10.0154C25 9.68384 24.8683 9.3659 24.6339 9.13148C24.3995 8.89706 24.0815 8.76536 23.75 8.76536Z" fill="black"/>
</svg>
