<svg width="1000" height="1000" viewBox="0 0 1000 1000" fill="none" xmlns="http://www.w3.org/2000/svg">
<circle cx="500" cy="500" r="500" fill="url(#paint0_radial)"/>
<path fill-rule="evenodd" clip-rule="evenodd" d="M618.198 550.224C720.573 565.363 792.001 599.604 792.001 639.419C792.001 693.262 661.371 736.912 500.232 736.912C339.094 736.912 208.465 693.262 208.465 639.419C208.465 599.604 279.893 565.363 382.267 550.224C417.43 557.374 457.589 561.424 500.232 561.424C541.807 561.424 581.019 557.575 615.545 550.76L618.198 550.224Z" fill="#7C7C7C"/>
<path fill-rule="evenodd" clip-rule="evenodd" d="M574.09 389.923C666.811 400.247 733.66 429.482 733.66 463.933C733.66 507.009 629.158 541.927 500.246 541.927C371.335 541.927 266.832 507.009 266.832 463.933C266.832 429.482 333.682 400.247 426.403 389.923C449.114 393.637 474.064 395.689 500.246 395.689C525.513 395.689 549.632 393.778 571.698 390.307L574.09 389.923Z" fill="#AAAAAA"/>
<path d="M500.252 380.096C596.936 380.096 675.313 353.906 675.313 321.599C675.313 289.293 596.936 263.104 500.252 263.104C403.569 263.104 325.191 289.293 325.191 321.599C325.191 353.906 403.569 380.096 500.252 380.096Z" fill="#D2D2D2"/>
<defs>
<radialGradient id="paint0_radial" cx="0" cy="0" r="1" gradientUnits="userSpaceOnUse" gradientTransform="translate(500 500) rotate(95.0556) scale(765.98)">
<stop stop-color="white"/>
<stop offset="1" stop-color="#E6E6E6"/>
</radialGradient>
</defs>
</svg>
