<svg width="21" height="25" viewBox="0 0 21 25" fill="none" xmlns="http://www.w3.org/2000/svg">
<path fill-rule="evenodd" clip-rule="evenodd" d="M1.02986 19.4841C0.390832 19.1032 0 18.4252 0 17.6969V13.6308C0 13.4752 0.0427919 13.3252 0.12267 13.1918C0.370863 12.7748 0.921451 12.6331 1.34937 12.8777L10.7693 18.2278C11.3199 18.5419 11.6594 19.1144 11.6594 19.7369V23.9504C11.6594 24.1421 11.6051 24.3339 11.5025 24.4979C11.1915 24.9926 10.5296 25.1482 10.0218 24.8453L1.02986 19.4841ZM15.0713 11.7631C15.6218 12.0772 15.9613 12.6498 15.9613 13.2723V21.8214C15.9613 22.0744 15.8215 22.3078 15.5962 22.4301L13.5336 23.5613C13.5079 23.5752 13.4794 23.5863 13.4509 23.5946V18.8476C13.4509 18.2333 13.12 17.6636 12.578 17.3468L4.30486 12.5247V7.16625C4.30486 7.0106 4.34766 6.86053 4.42753 6.72712C4.67572 6.31022 5.22631 6.16848 5.65423 6.41305L15.0713 11.7631ZM19.1936 5.44865C19.747 5.75992 20.0865 6.33802 20.0865 6.96058V19.448C20.0865 19.7036 19.941 19.9398 19.71 20.0621L17.7557 21.0905V12.3969C17.7557 11.7827 17.4249 11.2156 16.8857 10.8988L8.42999 5.95726V0.873939C8.42999 0.718299 8.47278 0.568217 8.54981 0.434811C8.798 0.0179181 9.34859 -0.123825 9.77652 0.117973L19.1936 5.44865Z" fill="white"/>
</svg>
