<svg width="75" height="75" viewBox="0 0 75 75" fill="none" xmlns="http://www.w3.org/2000/svg">
<path d="M40.52 39.27L53.67 52.42C53.9214 52.6728 54.1161 52.9762 54.2411 53.3102C54.3661 53.6441 54.4185 54.0008 54.3948 54.3565C54.3711 54.7122 54.272 55.0589 54.1039 55.3733C53.9358 55.6877 53.7027 55.9627 53.42 56.18C49.9107 58.9363 45.696 60.6487 41.2587 61.121C36.8214 61.5933 32.3408 60.8065 28.3298 58.8506C24.3189 56.8948 20.9399 53.8489 18.5796 50.0618C16.2193 46.2747 14.9732 41.8995 14.984 37.4371C14.9947 32.9748 16.2619 28.6056 18.6404 24.83C21.019 21.0543 24.4127 18.0248 28.433 16.0883C32.4533 14.1518 36.9377 13.3866 41.3727 13.8804C45.8077 14.3741 50.014 16.1068 53.51 18.88C53.7793 19.1011 53.9991 19.3766 54.1548 19.6883C54.3106 20 54.3989 20.3411 54.414 20.6893C54.4291 21.0374 54.3706 21.3849 54.2424 21.7089C54.1142 22.033 53.9192 22.3264 53.67 22.57L40.51 35.73C40.2787 35.962 40.0952 36.2372 39.97 36.54C39.8427 36.8579 39.7781 37.1975 39.78 37.54C39.7761 37.8836 39.8442 38.2243 39.98 38.54C40.1028 38.8441 40.2866 39.1197 40.52 39.35V39.27ZM37.5 0C30.0832 0 22.833 2.19934 16.6661 6.31989C10.4993 10.4404 5.69282 16.2971 2.85453 23.1494C0.0162482 30.0016 -0.726377 37.5416 0.720569 44.8159C2.16751 52.0902 5.73904 58.772 10.9835 64.0165C16.228 69.261 22.9098 72.8325 30.1841 74.2794C37.4584 75.7264 44.9984 74.9838 51.8506 72.1455C58.7029 69.3072 64.5596 64.5007 68.6801 58.3339C72.8007 52.167 75 44.9168 75 37.5C75 27.5544 71.0491 18.0161 64.0165 10.9835C56.9839 3.95088 47.4456 0 37.5 0V0Z" fill="white"/>
</svg>
