<svg width="248" height="117" viewBox="0 0 248 117" fill="none" xmlns="http://www.w3.org/2000/svg">
<mask id="mask0" mask-type="alpha" maskUnits="userSpaceOnUse" x="0" y="0" width="248" height="117">
<rect width="248" height="117" transform="matrix(1 0 0 -1 0 117)" fill="#7EE999"/>
</mask>
<g mask="url(#mask0)">
<path d="M66 -99.3509H182V117.24H66L66 -99.3509Z" fill="#58935E"/>
<path d="M80.1934 -71.3107L80.1934 89.6514C88.3223 89.6514 94.3648 96.1049 94.5906 103.782H153.408C153.634 96.1049 160.128 89.6514 168.257 89.6514V-71.3107C160.128 -71.3107 153.634 -77.3125 153.408 -84.9899H94.5906C94.3648 -77.3125 88.3223 -71.3107 80.1934 -71.3107Z" fill="#7FD695"/>
<path d="M80.6543 8.94374C80.6543 0.370842 83.1965 -8.00954 87.9593 -15.1376C92.7221 -22.2657 99.4918 -27.8214 107.412 -31.1021C115.332 -34.3828 124.048 -35.2412 132.456 -33.5687C140.864 -31.8962 148.587 -27.768 154.649 -21.706C160.711 -15.6441 164.84 -7.92068 166.512 0.487488C168.185 8.89566 167.326 17.611 164.045 25.5313C160.765 33.4516 155.209 40.2212 148.081 44.9841C140.953 49.7469 132.573 52.2891 124 52.2891C118.307 52.2892 112.671 51.1681 107.412 48.9898C102.153 46.8116 97.3746 43.6188 93.3496 39.5938C89.3246 35.5688 86.1318 30.7904 83.9535 25.5314C81.7753 20.2725 80.6542 14.636 80.6543 8.94374ZM124 -22.5378C117.773 -22.5378 111.687 -20.6915 106.509 -17.2323C101.332 -13.773 97.2972 -8.85625 94.9144 -3.10374C92.5317 2.64877 91.9082 8.97866 93.1229 15.0855C94.3377 21.1923 97.336 26.8018 101.739 31.2046C106.142 35.6074 111.751 38.6057 117.858 39.8204C123.965 41.0351 130.295 40.4117 136.047 38.0289C141.8 35.6462 146.716 31.6111 150.176 26.434C153.635 21.2569 155.481 15.1702 155.481 8.94374C155.481 0.594299 152.164 -7.41317 146.26 -13.3171C140.357 -19.2211 132.349 -22.5378 124 -22.5378Z" fill="#61B257"/>
<path d="M114.779 79.8452C114.778 78.0211 115.318 76.2377 116.331 74.7206C117.344 73.2035 118.784 72.0208 120.469 71.3221C122.154 70.6234 124.008 70.4402 125.797 70.7955C127.587 71.1508 129.23 72.0287 130.52 73.3182C131.81 74.6078 132.689 76.2509 133.045 78.0399C133.402 79.8289 133.219 81.6833 132.521 83.3687C131.824 85.054 130.642 86.4945 129.125 87.508C127.608 88.5215 125.825 89.0625 124.001 89.0625C121.556 89.0629 119.211 88.092 117.482 86.3635C115.752 84.6349 114.78 82.2903 114.779 79.8452Z" fill="#61B257"/>
<path d="M153.408 90.234H94.5906C94.3648 82.5567 88.3223 76.1032 80.1934 76.1032V89.6514C88.3223 89.6514 94.3648 96.1049 94.5906 103.782H153.408C153.634 96.1049 160.128 89.6514 168.257 89.6514V76.1032C160.128 76.1032 153.634 82.5567 153.408 90.234Z" fill="#6DB57C"/>
<path d="M120.974 8.94527C120.974 9.9962 120.662 11.0235 120.078 11.8974C119.494 12.7712 118.664 13.4522 117.693 13.8544C116.723 14.2566 115.654 14.3618 114.623 14.1568C113.593 13.9518 112.646 13.4457 111.903 12.7026C111.16 11.9594 110.654 11.0126 110.449 9.9819C110.244 8.95116 110.349 7.88277 110.751 6.91183C111.153 5.9409 111.834 5.11102 112.708 4.52715C113.582 3.94328 114.609 3.63165 115.66 3.63165C116.379 3.63165 117.068 3.34618 117.576 2.83802C118.084 2.32986 118.37 1.64065 118.37 0.922007C118.37 0.203363 118.084 -0.485847 117.576 -0.994005C117.068 -1.50216 116.379 -1.78764 115.66 -1.78764C113.286 -1.78479 110.979 -0.996159 109.1 0.455225C107.221 1.90661 105.876 3.9391 105.273 6.23562H102.807C102.089 6.23562 101.399 6.5211 100.891 7.02926C100.383 7.53741 100.098 8.22662 100.098 8.94527C100.098 9.66391 100.383 10.3531 100.891 10.8613C101.399 11.3694 102.089 11.6549 102.807 11.6549H105.273C105.932 14.1807 107.488 16.3799 109.651 17.8409C111.814 19.3019 114.436 19.9246 117.025 19.5924C119.614 19.2602 121.993 17.9959 123.717 16.0362C125.441 14.0764 126.392 11.5555 126.392 8.94527C126.392 7.89433 126.703 6.867 127.287 5.99318C127.871 5.11936 128.701 4.4383 129.672 4.03613C130.643 3.63395 131.711 3.52872 132.742 3.73375C133.773 3.93878 134.719 4.44485 135.463 5.18797C136.206 5.93109 136.712 6.87789 136.917 7.90863C137.122 8.93937 137.017 10.0078 136.614 10.9787C136.212 11.9496 135.531 12.7795 134.657 13.3634C133.784 13.9472 132.756 14.2589 131.705 14.2589C130.987 14.2589 130.297 14.5444 129.789 15.0525C129.281 15.5607 128.996 16.2499 128.996 16.9685C128.996 17.6872 129.281 18.3764 129.789 18.8845C130.297 19.3927 130.987 19.6782 131.705 19.6782C134.08 19.6755 136.386 18.8869 138.265 17.4355C140.144 15.9841 141.49 13.9515 142.092 11.6549L145.193 11.6549C145.912 11.6549 146.601 11.3694 147.109 10.8613C147.617 10.3531 147.903 9.66391 147.903 8.94527C147.903 8.22662 147.617 7.53741 147.109 7.02926C146.601 6.5211 145.912 6.23562 145.193 6.23562L142.091 6.23562C141.432 3.70985 139.876 1.51066 137.713 0.0496483C135.55 -1.41136 132.928 -2.03403 130.339 -1.70185C127.75 -1.36966 125.371 -0.105387 123.647 1.85437C121.923 3.81413 120.972 6.33504 120.972 8.94527H120.974Z" fill="#EADF53"/>
<path d="M49 2C49 0.895431 49.8954 0 51 0H197C198.105 0 199 0.895431 199 2V8H49V2Z" fill="#1F3622"/>
<path d="M49 8H66V15H51C49.8954 15 49 14.1046 49 13V8Z" fill="#1F3622"/>
<path d="M182 8H199V13C199 14.1046 198.105 15 197 15H182V8Z" fill="#1F3622"/>
</g>
</svg>
