<svg width="248" height="87" viewBox="0 0 248 87" fill="none" xmlns="http://www.w3.org/2000/svg">
<mask id="mask0" mask-type="alpha" maskUnits="userSpaceOnUse" x="0" y="0" width="248" height="87">
<rect width="248" height="87" transform="matrix(-1 0 0 1 248 0)" fill="black"/>
</mask>
<g mask="url(#mask0)">
<path d="M182 216.593L66 216.593L66 0.00195312L182 0.00195312L182 216.593Z" fill="#58935E"/>
<path d="M167.807 188.553L167.807 27.5908C159.678 27.5908 153.635 21.1373 153.409 13.46L94.592 13.46C94.3662 21.1373 87.872 27.5908 79.7431 27.5908L79.7431 188.553C87.872 188.553 94.3662 194.555 94.592 202.232H153.409C153.635 194.555 159.678 188.553 167.807 188.553Z" fill="#7FD695"/>
<path d="M167.346 108.298C167.346 116.871 164.804 125.252 160.041 132.38C155.278 139.508 148.508 145.064 140.588 148.344C132.668 151.625 123.952 152.483 115.544 150.811C107.136 149.138 99.4126 145.01 93.3506 138.948C87.2887 132.886 83.1604 125.163 81.4879 116.755C79.8154 108.347 80.6738 99.6312 83.9545 91.7109C87.2352 83.7906 92.7909 77.021 99.919 72.2581C107.047 67.4953 115.427 64.9531 124 64.9531C129.693 64.953 135.329 66.0741 140.588 68.2523C145.847 70.4306 150.625 73.6234 154.65 77.6484C158.675 81.6734 161.868 86.4518 164.046 91.7108C166.225 96.9697 167.346 102.606 167.346 108.298ZM124 139.78C130.227 139.78 136.313 137.934 141.491 134.474C146.668 131.015 150.703 126.098 153.086 120.346C155.468 114.593 156.092 108.264 154.877 102.157C153.662 96.0499 150.664 90.4404 146.261 86.0376C141.858 81.6348 136.249 78.6365 130.142 77.4218C124.035 76.207 117.705 76.8305 111.953 79.2133C106.2 81.596 101.284 85.6311 97.8244 90.8082C94.3651 95.9853 92.5188 102.072 92.5188 108.298C92.5188 116.648 95.8356 124.655 101.74 130.559C107.643 136.463 115.651 139.78 124 139.78Z" fill="#61B257"/>
<path d="M133.221 37.397C133.222 39.2211 132.682 41.0045 131.669 42.5216C130.656 44.0387 129.216 45.2214 127.531 45.9201C125.846 46.6188 123.992 46.802 122.203 46.4467C120.413 46.0914 118.77 45.2135 117.48 43.9239C116.19 42.6344 115.311 40.9913 114.955 39.2023C114.598 37.4133 114.781 35.5589 115.479 33.8735C116.176 32.1882 117.358 30.7477 118.875 29.7342C120.392 28.7207 122.175 28.1797 123.999 28.1797C126.444 28.1793 128.789 29.1502 130.518 30.8787C132.248 32.6072 133.22 34.9519 133.221 37.397Z" fill="#61B257"/>
<path d="M94.592 27.0082L153.409 27.0082C153.635 34.6855 159.678 41.139 167.807 41.139V27.5908C159.678 27.5908 153.635 21.1373 153.409 13.46L94.592 13.46C94.3662 21.1373 87.872 27.5908 79.7431 27.5908V41.139C87.872 41.139 94.3662 34.6855 94.592 27.0082Z" fill="#6DB57C"/>
<path d="M199 85.2412C199 86.3458 198.105 87.2412 197 87.2412L51 87.2412C49.8954 87.2412 49 86.3458 49 85.2412V79.2412L199 79.2412V85.2412Z" fill="#1F3622"/>
<path d="M199 79.2412H182V72.2412H197C198.105 72.2412 199 73.1366 199 74.2412V79.2412Z" fill="#1F3622"/>
<path d="M66 79.2412H49V74.2412C49 73.1366 49.8954 72.2412 51 72.2412H66V79.2412Z" fill="#1F3622"/>
</g>
</svg>
