<svg width="26" height="28" viewBox="0 0 26 28" fill="none" xmlns="http://www.w3.org/2000/svg">
<path d="M14.0642 23.916L14.7035 27.1124L15.7689 27.3255H20.2439L20.8832 26.8993V26.0469L20.6701 24.1291L19.6046 23.7029L20.0308 22.4243L20.6701 21.9981L21.7355 21.3589L23.0141 20.5065L24.5057 18.8018L25.3581 17.7363L25.5712 16.4577V9.85187L24.7188 9.42569L23.8665 9.85187L23.2272 13.4744L22.1617 12.8352H21.3094L20.6701 13.4744L19.8177 15.1792L18.5392 16.4577L17.0475 17.5232L15.5559 19.2279L14.9166 21.1458V23.916H14.0642Z" fill="white"/>
<path d="M11.9333 23.916L11.2941 27.1124L10.2286 27.3255H5.75367L5.11439 26.8993V26.0469L5.32748 24.1291L6.39295 23.7029L5.96676 22.4243L5.32748 21.9981L4.26202 21.3589L2.98347 20.5065L1.49182 18.8018L0.639451 17.7363L0.426358 16.4577V9.85187L1.27873 9.42569L2.1311 9.85187L2.77038 13.4744L3.83584 12.8352H4.68821L5.32748 13.4744L6.17985 15.1792L7.45841 16.4577L8.95006 17.5232L10.4417 19.2279L11.081 21.1458V23.916H11.9333Z" fill="white"/>
<path d="M10.6545 9.42566L13.2116 17.3101L15.7688 9.42566H10.6545Z" fill="#FFB3E2"/>
<path d="M10.6545 8.99948L9.37598 6.01618L9.58907 5.59L12.9985 5.80309L10.6545 8.99948Z" fill="#FFB3E2"/>
<path d="M15.7688 8.99948L13.6378 6.01618L14.064 5.59L17.0473 5.80309L15.7688 8.99948Z" fill="#FFB3E2"/>
<path d="M10.4414 9.42565H7.03194L6.81885 8.99947L8.94977 6.22927H9.37596L10.4414 9.42565Z" fill="#A8E7FF"/>
<path d="M17.2604 6.01617L15.9818 9.21256L19.1782 9.42565L19.8175 9.21256L17.2604 6.01617Z" fill="#A8E7FF"/>
<path d="M10.4414 9.63875H6.81885L12.5723 16.4577L10.4414 9.63875Z" fill="#FFF57D"/>
<path d="M19.3913 9.63875L15.9818 9.42565L14.064 15.3922V16.2446L14.2771 16.0315L19.3913 9.63875Z" fill="#FFF57D"/>
<path d="M13.2116 6.01617L15.3425 8.99947L12.9985 9.21256L11.2938 8.99947L13.2116 6.01617Z" fill="#FFF57D"/>
<path d="M13.5382 17.796L20.3571 9.69844C20.3743 9.67774 20.3887 9.6548 20.3997 9.63025L20.4296 9.58337C20.4481 9.5328 20.4582 9.47953 20.4594 9.42568V9.42568C20.4594 9.42568 20.4594 9.42568 20.4594 9.40011C20.4575 9.35782 20.4488 9.3161 20.4338 9.27652C20.4338 9.27652 20.4338 9.23816 20.404 9.22111C20.3957 9.2018 20.3857 9.18325 20.3742 9.16571L17.3909 5.33005C17.3909 5.33005 17.3909 5.33004 17.3653 5.30447C17.3382 5.27841 17.3081 5.25553 17.2758 5.23628L17.2161 5.20219H17.1863C17.1595 5.19822 17.1322 5.19822 17.1053 5.20219L17.0499 5.16383H9.37861H9.32746C9.30062 5.15987 9.27333 5.15987 9.24649 5.16383H9.21666L9.15699 5.19793C9.12466 5.21718 9.09463 5.24006 9.06749 5.26612C9.06749 5.26612 9.06749 5.26612 9.04192 5.29169L6.05863 9.12735C6.04705 9.1449 6.03707 9.16344 6.02879 9.18276C6.02879 9.18276 6.00748 9.21685 5.99896 9.23816C5.98396 9.27775 5.97533 9.31946 5.97339 9.36175C5.97339 9.36175 5.97339 9.36175 5.97339 9.38732C5.97506 9.43973 5.98513 9.49153 6.00322 9.54075L6.03305 9.58763C6.04412 9.61218 6.05845 9.63512 6.07567 9.65582L12.8946 17.7533C12.907 17.7636 12.9185 17.775 12.9287 17.7874L12.9927 17.8258L13.031 17.8471H13.0608C13.1467 17.8751 13.2392 17.8751 13.3251 17.8471V17.8471H13.3549L13.3933 17.8258L13.4572 17.7874L13.4913 17.7491L13.5382 17.796ZM9.22092 6.48927L10.0264 8.9995H7.24768L9.22092 6.48927ZM19.1809 8.9995H16.4021L17.2076 6.48927L19.1809 8.9995ZM15.2514 9.85187L13.2143 16.1296L11.1942 9.85187H15.2514ZM11.4712 8.9995L13.2143 6.35715L14.9744 8.9995H11.4712ZM16.1592 9.85187H19.1425L14.284 15.5926L16.1592 9.85187ZM15.6947 8.50086L14.0112 6.0162H16.4661L15.6947 8.50086ZM10.7935 8.50086L9.96248 6.0162H12.4173L10.7935 8.50086ZM10.2992 9.85187L12.1445 15.5926L7.31161 9.85187H10.2992Z" fill="black"/>
<path d="M13.2145 4.31146C13.3275 4.31146 13.4359 4.26656 13.5159 4.18663C13.5958 4.1067 13.6407 3.9983 13.6407 3.88527V1.32816C13.6407 1.21513 13.5958 1.10673 13.5159 1.0268C13.4359 0.946879 13.3275 0.901978 13.2145 0.901978C13.1015 0.901978 12.9931 0.946879 12.9132 1.0268C12.8332 1.10673 12.7883 1.21513 12.7883 1.32816V3.88527C12.7883 3.9983 12.8332 4.1067 12.9132 4.18663C12.9931 4.26656 13.1015 4.31146 13.2145 4.31146Z" fill="black"/>
<path d="M16.0615 4.18359C16.1199 4.21189 16.1841 4.22647 16.249 4.2262C16.3289 4.22636 16.4072 4.20407 16.475 4.16187C16.5428 4.11968 16.5974 4.05927 16.6326 3.98754L17.3826 2.45327C17.4173 2.35501 17.4148 2.24744 17.3755 2.15091C17.3363 2.05438 17.263 1.97558 17.1696 1.92939C17.0762 1.88321 16.9691 1.87285 16.8686 1.90028C16.7681 1.9277 16.6811 1.99101 16.624 2.07823L15.8739 3.6125C15.8234 3.71315 15.8147 3.82972 15.8499 3.93673C15.885 4.04374 15.9611 4.13249 16.0615 4.18359Z" fill="black"/>
<path d="M9.37888 3.98754C9.41402 4.05927 9.46862 4.11968 9.53644 4.16188C9.60426 4.20408 9.68257 4.22637 9.76244 4.22621C9.82738 4.22647 9.89152 4.2119 9.94996 4.18359C10.0004 4.15904 10.0455 4.12478 10.0827 4.08276C10.1198 4.04075 10.1484 3.99181 10.1666 3.93875C10.1848 3.88569 10.1923 3.82956 10.1888 3.77358C10.1853 3.71759 10.1707 3.66285 10.146 3.6125L9.37888 2.07824C9.35425 2.02787 9.31995 1.98284 9.27792 1.94573C9.23589 1.90861 9.18697 1.88014 9.13393 1.86194C9.0809 1.84373 9.02481 1.83615 8.96885 1.83963C8.91289 1.8431 8.85816 1.85757 8.80779 1.88219C8.75742 1.90682 8.71239 1.94112 8.67528 1.98315C8.63817 2.02518 8.6097 2.0741 8.59149 2.12713C8.57329 2.18016 8.56571 2.23626 8.56918 2.29222C8.57266 2.34818 8.58712 2.40291 8.61174 2.45328L9.37888 3.98754Z" fill="black"/>
<path d="M19.1809 6.01615C19.2369 6.01648 19.2925 6.00573 19.3445 5.98452C19.3964 5.96331 19.4436 5.93206 19.4834 5.89256L20.762 4.614C20.8423 4.53375 20.8873 4.42491 20.8873 4.31141C20.8873 4.19792 20.8423 4.08907 20.762 4.00882C20.6817 3.92857 20.5729 3.88348 20.4594 3.88348C20.3459 3.88348 20.2371 3.92857 20.1568 4.00882L18.8783 5.28738C18.8383 5.327 18.8066 5.37413 18.785 5.42607C18.7633 5.478 18.7522 5.53371 18.7522 5.58997C18.7522 5.64623 18.7633 5.70193 18.785 5.75387C18.8066 5.8058 18.8383 5.85294 18.8783 5.89256C18.9181 5.93206 18.9653 5.96331 19.0172 5.98452C19.0692 6.00573 19.1248 6.01648 19.1809 6.01615Z" fill="black"/>
<path d="M6.51913 5.89256C6.55875 5.9325 6.60588 5.96421 6.65782 5.98585C6.70975 6.00748 6.76546 6.01862 6.82172 6.01862C6.87798 6.01862 6.93368 6.00748 6.98562 5.98585C7.03755 5.96421 7.08469 5.9325 7.12431 5.89256C7.16425 5.85294 7.19596 5.8058 7.2176 5.75387C7.23923 5.70193 7.25037 5.64623 7.25037 5.58997C7.25037 5.53371 7.23923 5.478 7.2176 5.42607C7.19596 5.37413 7.16425 5.327 7.12431 5.28738L5.84575 4.00882C5.7655 3.92857 5.65666 3.88348 5.54316 3.88348C5.42967 3.88348 5.32082 3.92857 5.24057 4.00882C5.16032 4.08907 5.11523 4.19792 5.11523 4.31141C5.11523 4.42491 5.16032 4.53375 5.24057 4.614L6.51913 5.89256Z" fill="black"/>
<path d="M24.6661 8.99948C24.3426 9.00056 24.0303 9.11844 23.7868 9.33143C23.5432 9.54443 23.3848 9.8382 23.3407 10.1587L23.004 12.7158C22.8728 12.616 22.7296 12.5329 22.5778 12.4686C22.1759 12.308 21.7291 12.2999 21.3217 12.4459C20.9142 12.592 20.5743 12.882 20.3659 13.2613L19.3686 15.0513C18.8433 15.7733 18.1726 16.3772 17.3996 16.8242C17.0121 17.0539 16.653 17.3286 16.3299 17.6425C14.3141 19.5859 14.4249 21.9853 14.4931 23.136C14.4931 23.2767 14.4931 23.396 14.4931 23.4898C14.2714 23.5096 14.0656 23.6132 13.9177 23.7796C13.8351 23.8719 13.7737 23.9811 13.7376 24.0996C13.7015 24.2181 13.6917 24.3431 13.7089 24.4657L14.02 26.976C14.0465 27.1848 14.1472 27.3771 14.3036 27.5179C14.4601 27.6587 14.6619 27.7386 14.8724 27.7431H20.4128C20.5291 27.7459 20.6449 27.7256 20.7533 27.6833C20.8617 27.641 20.9607 27.5775 21.0444 27.4966C21.128 27.4157 21.1948 27.319 21.2407 27.212C21.2867 27.1051 21.3109 26.9901 21.312 26.8737V24.3677C21.312 24.1349 21.2195 23.9116 21.0549 23.7469C20.8902 23.5823 20.6669 23.4898 20.4341 23.4898H20.0335C20.0633 23.3039 20.1337 23.127 20.2398 22.9716C20.3459 22.8161 20.485 22.686 20.6472 22.5905C22.0365 21.9001 26.0001 19.2279 26.0001 16.2446V10.3334C25.9989 9.98 25.858 9.64135 25.6081 9.39143C25.3582 9.14151 25.0195 9.00061 24.6661 8.99948V8.99948ZM20.4597 24.3677V26.8737C20.4597 26.8805 20.457 26.887 20.4522 26.8918C20.4474 26.8966 20.4409 26.8992 20.4341 26.8992H14.8681L14.5783 24.3421L20.4597 24.3677ZM25.1477 16.2446C25.1477 18.5972 21.7979 21.0648 20.2679 21.8319C19.9732 21.9976 19.7214 22.23 19.5327 22.5105C19.344 22.791 19.2236 23.1118 19.1811 23.4471C19.1811 23.4471 19.1811 23.477 19.1811 23.4898H15.3454C15.3454 23.3832 15.3454 23.2511 15.3454 23.0977C15.2986 22.0706 15.1963 19.9311 16.9351 18.2562C17.21 17.9875 17.5162 17.7528 17.8471 17.5573C18.7321 17.0456 19.4978 16.3511 20.0931 15.5201L21.1288 13.6492C21.2394 13.4612 21.4135 13.3188 21.6198 13.2477C21.826 13.1766 22.0509 13.1815 22.2539 13.2613C22.4171 13.3262 22.5578 13.4374 22.6585 13.5813C22.7593 13.7252 22.8156 13.8955 22.8207 14.0711L22.6929 15.0556C22.6418 15.432 22.468 15.781 22.1985 16.0486L21.4868 16.7603C20.8321 17.415 20.4629 18.3021 20.4597 19.2279H21.312C21.3111 18.8786 21.3796 18.5326 21.5135 18.21C21.6474 17.8873 21.844 17.5945 22.0919 17.3484L22.8037 16.6367C23.2023 16.2331 23.4595 15.7113 23.5367 15.1493L23.6092 14.5953L24.1845 10.278C24.206 10.1608 24.2698 10.0555 24.3639 9.98225C24.4579 9.909 24.5756 9.87289 24.6946 9.88078C24.8135 9.88868 24.9254 9.94003 25.009 10.0251C25.0925 10.1101 25.1419 10.2229 25.1477 10.342V16.2446Z" fill="black"/>
<path d="M15.7716 26.0469C16.007 26.0469 16.1978 25.856 16.1978 25.6207C16.1978 25.3853 16.007 25.1945 15.7716 25.1945C15.5363 25.1945 15.3455 25.3853 15.3455 25.6207C15.3455 25.856 15.5363 26.0469 15.7716 26.0469Z" fill="black"/>
<path d="M11.5097 23.4897C11.5097 23.396 11.5097 23.2766 11.5097 23.136C11.5651 21.9853 11.6759 19.5859 9.66433 17.6425C9.33884 17.3295 8.97848 17.0549 8.59035 16.8242C7.81741 16.3772 7.14669 15.7732 6.62137 15.0513L5.63263 13.2613C5.42454 12.885 5.08652 12.5974 4.68177 12.4523C4.27702 12.3072 3.83327 12.3145 3.43351 12.4728C3.2817 12.5371 3.13853 12.6202 3.00733 12.72L2.67064 10.1629C2.65945 9.98774 2.61386 9.81648 2.53648 9.65892C2.4591 9.50136 2.35145 9.36058 2.21966 9.24463C1.95351 9.01045 1.60523 8.89159 1.25144 8.91419C0.897657 8.9368 0.567339 9.09902 0.333159 9.36517C0.0989778 9.63132 -0.0198834 9.9796 0.00272282 10.3334V16.2446C0.00272282 19.2279 3.96624 21.9 5.35134 22.5905C5.51431 22.6855 5.65423 22.8154 5.76107 22.9709C5.86791 23.1263 5.93902 23.3035 5.96931 23.4897H5.57296C5.45731 23.4892 5.34269 23.5114 5.23568 23.5553C5.12867 23.5992 5.03138 23.6638 4.9494 23.7453C4.86743 23.8269 4.80238 23.9239 4.75799 24.0307C4.7136 24.1375 4.69076 24.252 4.69076 24.3677V26.8736C4.69076 27.1065 4.78325 27.3298 4.9479 27.4944C5.11255 27.6591 5.33585 27.7516 5.5687 27.7516H11.1091C11.3195 27.7471 11.5214 27.6672 11.6778 27.5264C11.8343 27.3856 11.935 27.1932 11.9615 26.9844L12.2726 24.4742C12.2897 24.3515 12.2799 24.2266 12.2439 24.1081C12.2078 23.9896 12.1463 23.8804 12.0638 23.788C11.9225 23.6232 11.725 23.5169 11.5097 23.4897ZM5.73491 21.8319C4.20491 21.0647 0.855093 18.5971 0.855093 16.2446V10.3334C0.862462 10.2148 0.913036 10.103 0.99725 10.0192C1.08146 9.93535 1.19348 9.88529 1.31211 9.87847C1.43074 9.87165 1.54775 9.90853 1.64102 9.98215C1.73429 10.0558 1.79735 10.161 1.81827 10.278L2.46607 15.1493C2.54331 15.7112 2.80049 16.2331 3.19911 16.6367L3.91084 17.3484C4.1588 17.5944 4.35542 17.8873 4.4893 18.2099C4.62319 18.5325 4.69166 18.8786 4.69076 19.2279H5.54313C5.54374 18.7665 5.45334 18.3096 5.27709 17.8832C5.10084 17.4569 4.84222 17.0695 4.51602 16.7432L3.80429 16.0315C3.53473 15.7639 3.36096 15.4149 3.30992 15.0385L3.18206 14.0582C3.18904 13.8847 3.24635 13.717 3.34699 13.5755C3.44764 13.434 3.58728 13.3248 3.74889 13.2613C3.95541 13.1793 4.18467 13.1752 4.39399 13.2497C4.60332 13.3242 4.77846 13.4722 4.8868 13.6662L5.89686 15.4987L5.92243 15.5371C6.51776 16.3681 7.28345 17.0626 8.16843 17.5743C8.5 17.7708 8.80751 18.0054 9.08472 18.2732C10.8193 19.9481 10.717 22.1089 10.6701 23.1147C10.6701 23.2681 10.6701 23.4002 10.6701 23.5068H6.82168C6.82168 23.5068 6.82168 23.4769 6.82168 23.4641C6.78177 23.1257 6.66254 22.8015 6.4737 22.5179C6.28485 22.2343 6.03173 21.9992 5.73491 21.8319V21.8319ZM11.1134 26.8992H5.57296L5.54313 26.8736L5.5687 24.3421L11.45 24.3677L11.1134 26.8992Z" fill="black"/>
<path d="M10.2311 26.0469C10.4665 26.0469 10.6573 25.856 10.6573 25.6207C10.6573 25.3853 10.4665 25.1945 10.2311 25.1945C9.99574 25.1945 9.80493 25.3853 9.80493 25.6207C9.80493 25.856 9.99574 26.0469 10.2311 26.0469Z" fill="black"/>
</svg>
