<svg width="81" height="58" viewBox="0 0 81 58" fill="none" xmlns="http://www.w3.org/2000/svg">
<path d="M55.1077 51.9244C64.1769 49.3696 67.6385 43.7768 67.6385 43.7768C64.8 45.6411 62.1 46.953 59.6769 47.8506C56.2154 49.3006 52.8923 50.1982 49.6385 50.8196C42.9923 52.0625 36.9 51.7173 31.7077 50.7506C27.7615 49.9911 24.3692 48.9553 21.5308 47.7815C19.9385 47.1601 18.2077 46.4006 16.4769 45.4339C16.2692 45.2958 16.0615 45.2268 15.8538 45.0887C15.7154 45.0196 15.6462 44.9506 15.5769 44.9506C14.3308 44.2601 13.6385 43.7768 13.6385 43.7768C13.6385 43.7768 16.9615 49.2315 25.7538 51.8553C23.6769 54.4792 21.1154 57.5172 21.1154 57.5172C5.81538 57.0339 0 47.0911 0 47.0911C0 25.0649 9.96923 7.18154 9.96923 7.18154C19.9385 -0.206559 29.3538 0.000584004 29.3538 0.000584004L30.0462 0.829155C17.5846 4.35058 11.9077 9.80535 11.9077 9.80535C11.9077 9.80535 13.4308 8.97677 15.9923 7.87201C23.4 4.62677 29.2846 3.7982 31.7077 3.52201C32.1231 3.45296 32.4692 3.38392 32.8846 3.38392C37.1077 2.83154 41.8846 2.69344 46.8692 3.24582C53.4462 4.00535 60.5077 5.93868 67.7077 9.80535C67.7077 9.80535 62.2385 4.62677 50.4692 1.10535L51.4385 0.000584004C51.4385 0.000584004 60.9231 -0.206559 70.8231 7.18154C70.8231 7.18154 80.7923 25.0649 80.7923 47.0911C80.7923 47.022 74.9769 56.9649 59.6769 57.4482C59.6769 57.4482 57.1846 54.4792 55.1077 51.9244Z" fill="white"/>
<path d="M52.7546 25.4795C48.8084 25.4795 45.6931 28.8628 45.6931 33.0747C45.6931 37.2866 48.8777 40.67 52.7546 40.67C56.7007 40.67 59.8161 37.2866 59.8161 33.0747C59.8161 28.8628 56.6315 25.4795 52.7546 25.4795ZM27.4854 25.4795C23.5392 25.4795 20.4238 28.8628 20.4238 33.0747C20.4238 37.2866 23.6084 40.67 27.4854 40.67C31.4315 40.67 34.5469 37.2866 34.5469 33.0747C34.6161 28.8628 31.4315 25.4795 27.4854 25.4795Z" fill="#5A65EA"/>
</svg>
