<svg width="599" height="125" viewBox="0 0 599 125" fill="none" xmlns="http://www.w3.org/2000/svg">
<mask id="mask0" mask-type="alpha" maskUnits="userSpaceOnUse" x="0" y="0" width="599" height="125">
<path d="M4.3 123C3.15333 123 2.12133 122.599 1.204 121.796C0.401334 120.879 0 119.847 0 118.7V6.89989C0 5.63855 0.401334 4.60655 1.204 3.80389C2.12133 3.00122 3.15333 2.59988 4.3 2.59988H49.02C65.876 2.59988 78.948 6.61321 88.236 14.6399C97.524 22.6666 102.397 34.3052 102.856 49.5559C102.971 52.8812 103.028 57.2959 103.028 62.7999C103.028 68.3039 102.971 72.6612 102.856 75.8719C102.283 91.8106 97.524 103.679 88.58 111.476C79.7507 119.159 66.8507 123 49.88 123H4.3ZM49.02 98.2319C56.588 98.2319 62.1493 96.4546 65.704 92.8999C69.2587 89.2306 71.1507 83.4399 71.38 75.5279C71.6093 72.2026 71.724 67.9026 71.724 62.6279C71.724 57.3532 71.6093 53.1106 71.38 49.8999C71.1507 42.2172 69.0867 36.5412 65.188 32.8719C61.404 29.2025 55.728 27.3679 48.16 27.3679H30.96V98.2319H49.02Z" fill="black"/>
<path d="M172.313 124.72C156.145 124.72 143.417 120.764 134.129 112.852C124.841 104.94 119.91 93.3012 119.337 77.9359C119.222 74.6105 119.165 69.6799 119.165 63.1439C119.165 56.4932 119.222 51.5052 119.337 48.1799C119.91 33.0439 124.898 21.4052 134.301 13.2639C143.818 5.00788 156.489 0.879883 172.313 0.879883C188.137 0.879883 200.808 5.00788 210.325 13.2639C219.842 21.4052 224.83 33.0439 225.289 48.1799C225.518 54.8306 225.633 59.8186 225.633 63.1439C225.633 66.3546 225.518 71.2852 225.289 77.9359C224.716 93.3012 219.785 104.94 210.497 112.852C201.209 120.764 188.481 124.72 172.313 124.72ZM172.313 99.9519C178.62 99.9519 183.608 98.0599 187.277 94.2759C191.061 90.4919 193.068 84.7012 193.297 76.9039C193.526 70.2532 193.641 65.5519 193.641 62.7999C193.641 59.8186 193.526 55.1172 193.297 48.6959C193.068 40.8986 191.061 35.1079 187.277 31.3239C183.493 27.5399 178.505 25.6479 172.313 25.6479C166.121 25.6479 161.133 27.5399 157.349 31.3239C153.68 35.1079 151.673 40.8986 151.329 48.6959C151.214 51.9066 151.157 56.6079 151.157 62.7999C151.157 68.8772 151.214 73.5786 151.329 76.9039C151.673 84.7012 153.68 90.4919 157.349 94.2759C161.018 98.0599 166.006 99.9519 172.313 99.9519Z" fill="black"/>
<path d="M296.138 124.72C279.97 124.72 267.3 120.764 258.126 112.852C249.068 104.94 244.538 93.0146 244.538 77.0759V6.89989C244.538 5.63855 244.94 4.60655 245.742 3.80389C246.66 3.00122 247.692 2.59988 248.838 2.59988H271.026C272.288 2.59988 273.32 3.00122 274.122 3.80389C275.04 4.60655 275.498 5.63855 275.498 6.89989V76.9039C275.498 84.3572 277.218 89.9759 280.658 93.7599C284.213 97.4292 289.316 99.2639 295.966 99.2639C302.502 99.2639 307.548 97.3719 311.102 93.5879C314.657 89.8039 316.434 84.2426 316.434 76.9039V6.89989C316.434 5.63855 316.836 4.60655 317.638 3.80389C318.556 3.00122 319.588 2.59988 320.734 2.59988H343.094C344.356 2.59988 345.388 3.00122 346.19 3.80389C346.993 4.60655 347.394 5.63855 347.394 6.89989V77.0759C347.394 93.0146 342.808 104.94 333.634 112.852C324.576 120.764 312.077 124.72 296.138 124.72Z" fill="black"/>
<path d="M419.911 124.72C403.399 124.72 390.499 120.707 381.211 112.68C371.923 104.539 366.992 93.0146 366.419 78.1079C366.304 74.7826 366.247 69.5079 366.247 62.2839C366.247 55.0599 366.304 49.7852 366.419 46.4599C366.992 31.8972 371.98 20.6599 381.383 12.7479C390.9 4.83588 403.743 0.879883 419.911 0.879883C430.804 0.879883 440.264 2.65722 448.291 6.21189C456.432 9.76655 462.624 14.2959 466.867 19.7999C471.224 25.3039 473.518 30.9799 473.747 36.8279C473.747 37.8599 473.346 38.7199 472.543 39.4079C471.855 40.0959 470.995 40.4399 469.963 40.4399H444.851C443.704 40.4399 442.787 40.2679 442.099 39.9239C441.411 39.5799 440.838 38.9492 440.379 38.0319C438.888 34.7066 436.538 31.8399 433.327 29.4319C430.116 26.9092 425.644 25.6479 419.911 25.6479C406.266 25.6479 399.099 32.8719 398.411 47.3199C398.296 50.5306 398.239 55.5186 398.239 62.2839C398.239 68.9346 398.296 73.9226 398.411 77.2479C399.099 92.3839 406.438 99.9519 420.427 99.9519C427.192 99.9519 432.582 98.2319 436.595 94.7919C440.723 91.2372 442.787 85.8479 442.787 78.6239V75.3559H426.619C425.358 75.3559 424.326 74.9546 423.523 74.1519C422.72 73.2346 422.319 72.1452 422.319 70.8839V58.1559C422.319 56.8946 422.72 55.8626 423.523 55.0599C424.326 54.1426 425.358 53.6839 426.619 53.6839H469.963C471.224 53.6839 472.256 54.1426 473.059 55.0599C473.862 55.8626 474.263 56.8946 474.263 58.1559V77.7639C474.263 87.5106 472.027 95.9386 467.555 103.048C463.083 110.043 456.719 115.432 448.463 119.216C440.322 122.885 430.804 124.72 419.911 124.72Z" fill="black"/>
<path d="M498.296 123C497.035 123 496.003 122.599 495.2 121.796C494.397 120.993 493.996 119.961 493.996 118.7V6.89989C493.996 5.63855 494.397 4.60655 495.2 3.80389C496.117 3.00122 497.149 2.59988 498.296 2.59988H520.484C521.745 2.59988 522.777 3.00122 523.58 3.80389C524.497 4.60655 524.956 5.63855 524.956 6.89989V48.3519H567.268V6.89989C567.268 5.63855 567.669 4.60655 568.472 3.80389C569.275 3.00122 570.307 2.59988 571.568 2.59988H593.756C595.017 2.59988 596.049 3.00122 596.852 3.80389C597.655 4.60655 598.056 5.63855 598.056 6.89989V118.7C598.056 119.961 597.655 120.993 596.852 121.796C596.049 122.599 595.017 123 593.756 123H571.568C570.307 123 569.275 122.599 568.472 121.796C567.669 120.993 567.268 119.961 567.268 118.7V75.8719H524.956V118.7C524.956 119.961 524.497 120.993 523.58 121.796C522.777 122.599 521.745 123 520.484 123H498.296Z" fill="black"/>
</mask>
<g mask="url(#mask0)">
<path d="M396.68 422.808C346.24 391.257 302.09 417.461 258.339 413.939C230.466 411.7 204.469 398.512 183.761 379.743C151.091 350.136 133.592 303.754 94.3513 283.651C86.6783 279.708 78.2444 276.868 71.8315 271.112C66.855 266.652 63.4251 260.731 60.1126 254.93L-75.8007 18.0007C-18.5442 15.598 33.8293 47.5612 81.9429 78.6738C285.718 210.397 486.473 347.918 701.927 459.559L499.396 575.748C484.44 584.31 452.136 507.447 449.317 500.829C436.457 470.48 423.35 443.266 396.68 422.808Z" fill="#30C7FF"/>
<path d="M694.81 463.906C694.81 463.906 651.65 449.044 620.826 449.366C590.001 449.687 539.118 443.217 504.89 422.671C470.662 402.125 450.242 379.159 428.909 340.292C407.576 301.425 364.551 274.057 318.302 271.323C272.059 268.608 184.205 288.787 142.419 220.567C100.633 152.346 65.9604 46.3374 -72.3738 23.3431L-233.275 -256.704L-195.884 -278.098L793.149 355.272L832.171 385.199L694.81 463.906Z" fill="#6C5DFE"/>
<path d="M753.834 430.128C753.834 430.128 718.564 413.034 683.037 358.122C663.037 327.232 639.954 298.164 609.676 276.726C563.623 244.147 507.736 234.254 452.344 237.13C444.697 237.517 437.197 238.38 429.539 237.911C415.09 237.002 400.83 234.047 387.199 229.165C347.572 214.917 316.748 177.825 285.352 130.108C253.957 82.3919 194.988 27.2271 144.767 3.99012C94.5263 -19.2415 54.4265 -31.8627 -18.0572 -53.3244C-90.5408 -74.786 -173.848 -105.54 -223.759 -262.134L-89.7696 -338.813L635.65 41.8296L832.208 385.254L753.834 430.128Z" fill="#A20ED3"/>
<path d="M670.391 102.551C670.391 102.551 616.904 59.2907 530.45 63.6246C443.996 67.9585 417.38 114.649 327.768 25.028C238.156 -64.5933 234.796 -106.443 160.361 -143.188C85.9266 -179.933 34.4238 -188.751 -31.2773 -203.137C-96.9784 -217.524 -130.457 -223.435 -170.169 -292.826L5.03374 -393.088L583.728 -48.9373L670.391 102.551Z" fill="#D60A99"/>
<path d="M-40.3868 -367.064C0.612435 -359.982 48.5405 -352.754 81.2631 -316.764C113.986 -280.774 150.557 -241.507 192.538 -213.541C234.519 -185.576 264.419 -193.144 307.923 -176.978C351.406 -160.807 391.914 -111.502 417.266 -76.7654C442.617 -42.0286 469.422 -28.6249 509.793 -10.6662C550.164 7.29263 610.279 -2.49716 610.279 -2.49716L510.583 -176.69L404.165 -300.47L116.292 -456.75L-40.3868 -367.064Z" fill="#F005C4"/>
</g>
</svg>
