<svg width="173" height="173" viewBox="0 0 173 173" fill="none" xmlns="http://www.w3.org/2000/svg">
<g clip-path="url(#clip0)">
<path d="M86.8379 30.4102H76.7012C73.9017 30.4102 71.6328 28.1413 71.6328 25.3418C71.6328 22.5423 73.9017 20.2734 76.7012 20.2734H86.8379C89.6374 20.2734 91.9062 22.5423 91.9062 25.3418C91.9062 28.1413 89.6374 30.4102 86.8379 30.4102Z" fill="#F0CD00"/>
<path d="M86.8379 30.4102H76.7012C73.9017 30.4102 71.6328 28.1413 71.6328 25.3418C71.6328 22.5423 73.9017 20.2734 76.7012 20.2734H86.8379C89.6374 20.2734 91.9062 22.5423 91.9062 25.3418C91.9062 28.1413 89.6374 30.4102 86.8379 30.4102Z" fill="#FFB229"/>
<path d="M144.279 91.2305H110.49C94.6543 91.2305 81.7695 78.3457 81.7695 62.5098C81.7695 55.3138 84.4647 48.4728 89.1899 43.2474C84.5083 38.5552 81.7695 32.1313 81.7695 25.3418C81.7695 11.3682 93.1377 0 107.111 0C121.085 0 132.453 11.3682 132.453 25.3418C132.453 28.2469 131.957 31.1005 131.005 33.7891H135.303C146.274 33.7891 156.59 29.5166 164.348 21.7583C165.797 20.3091 167.977 19.8748 169.872 20.6588C171.765 21.4442 173 23.292 173 25.3418V62.5098C173 78.3457 160.115 91.2305 144.279 91.2305Z" fill="#FFF48A"/>
<path d="M169.871 20.6593C167.977 19.8753 165.797 20.3095 164.348 21.7588C156.59 29.5171 146.274 33.7895 135.303 33.7895H131.005C131.957 31.1009 132.453 28.2473 132.453 25.3423C132.453 17.0692 128.467 9.71087 122.316 5.08203V91.2309H144.279C160.115 91.2309 173 78.3462 173 62.5102V25.3423C173 23.2925 171.765 21.4446 169.871 20.6593Z" fill="#FFE54E"/>
<path d="M108.125 23.6523C108.125 26.4518 105.856 28.7207 103.057 28.7207C100.257 28.7207 97.9883 26.4518 97.9883 23.6523C97.9883 20.8529 100.257 18.584 103.057 18.584C105.856 18.584 108.125 20.8529 108.125 23.6523Z" fill="#525967"/>
<path d="M108.125 23.6523C108.125 26.4518 105.856 28.7207 103.057 28.7207C100.257 28.7207 97.9883 26.4518 97.9883 23.6523C97.9883 20.8529 100.257 18.584 103.057 18.584C105.856 18.584 108.125 20.8529 108.125 23.6523Z" fill="#525967"/>
<path d="M133.467 98.6641H128.179C125.742 70.0938 102.906 47.2585 74.3359 44.8207V39.5332C74.3359 36.7337 72.0671 34.4648 69.2676 34.4648C66.4681 34.4648 64.1992 36.7337 64.1992 39.5332V44.8207C35.629 47.2585 12.7936 70.0938 10.3558 98.6641H5.06836C2.26888 98.6641 0 100.933 0 103.732C0 106.532 2.26888 108.801 5.06836 108.801H10.3558C12.7936 137.371 35.629 160.206 64.1992 162.644V167.932C64.1992 170.731 66.4681 173 69.2676 173C72.0671 173 74.3359 170.731 74.3359 167.932V162.644C102.906 160.206 125.742 137.371 128.179 108.801H133.467C136.266 108.801 138.535 106.532 138.535 103.732C138.535 100.933 136.266 98.6641 133.467 98.6641ZM74.3359 152.465V147.658C74.3359 144.859 72.0671 142.59 69.2676 142.59C66.4681 142.59 64.1992 144.859 64.1992 147.658V152.465C41.2227 150.093 22.9066 131.777 20.5348 108.801H25.3418C28.1413 108.801 30.4102 106.532 30.4102 103.732C30.4102 100.933 28.1413 98.6641 25.3418 98.6641H20.5348C22.9066 75.6875 41.2227 57.3715 64.1992 54.9996V59.8066C64.1992 62.6061 66.4681 64.875 69.2676 64.875C72.0671 64.875 74.3359 62.6061 74.3359 59.8066V54.9996C97.3125 57.3715 115.629 75.6875 118 98.6641H113.193C110.394 98.6641 108.125 100.933 108.125 103.732C108.125 106.532 110.394 108.801 113.193 108.801H118C115.629 131.777 97.3125 150.093 74.3359 152.465Z" fill="#525967"/>
<path d="M133.467 98.6641H128.179C125.742 70.0938 102.906 47.2585 74.3359 44.8207V39.5332C74.3359 36.7337 72.0671 34.4648 69.2676 34.4648V64.875C72.0671 64.875 74.3359 62.6061 74.3359 59.8066V54.9996C97.3125 57.3715 115.629 75.6875 118 98.6641H113.193C110.394 98.6641 108.125 100.933 108.125 103.732C108.125 106.532 110.394 108.801 113.193 108.801H118C115.629 131.777 97.3125 150.093 74.3359 152.465V147.658C74.3359 144.859 72.0671 142.59 69.2676 142.59V173C72.0671 173 74.3359 170.731 74.3359 167.932V162.644C102.906 160.206 125.742 137.371 128.179 108.801H133.467C136.266 108.801 138.535 106.532 138.535 103.732C138.535 100.933 136.266 98.6641 133.467 98.6641Z" fill="#3B4851"/>
</g>
<defs>
<clipPath id="clip0">
<rect width="173" height="173" fill="white"/>
</clipPath>
</defs>
</svg>
