<svg width="160" height="160" viewBox="0 0 160 160" fill="none" xmlns="http://www.w3.org/2000/svg">
<path d="M160 80.4841C159.636 73.1228 153.529 67.3591 146.159 67.4208C143.388 60.3371 135.399 56.8411 128.315 59.6124C124.737 61.0121 121.907 63.8428 120.507 67.4208C113.136 67.3591 107.03 73.1224 106.666 80.4841C106.678 83.2378 107.621 85.9064 109.342 88.0568C109.045 89.1441 108.892 90.2661 108.888 91.3931C108.956 98.6898 114.925 104.55 122.222 104.484C126.098 104.487 129.915 103.532 133.333 101.705C136.751 103.532 140.568 104.487 144.444 104.484C151.741 104.55 157.71 98.6898 157.778 91.3931C157.774 90.2658 157.621 89.1441 157.324 88.0568C159.044 85.9064 159.987 83.2378 160 80.4841Z" fill="#4BAD32"/>
<path d="M19.5827 128.609C24.3567 125.157 25.429 118.489 21.9777 113.715C18.5263 108.941 11.858 107.869 7.084 111.32C2.31 114.771 1.23767 121.44 4.689 126.214C5.35467 127.134 6.16333 127.943 7.084 128.609C2.85667 130.043 0.00966667 134.008 0 138.472V154.666H26.6667V138.472C26.657 134.008 23.81 130.044 19.5827 128.609Z" fill="#FCD821"/>
<path d="M79.9987 39.9993C85.8897 39.9993 90.6654 35.2237 90.6654 29.3327C90.6654 23.4416 85.8897 18.666 79.9987 18.666C74.1077 18.666 69.332 23.4416 69.332 29.3327C69.332 35.2237 74.1077 39.9993 79.9987 39.9993Z" fill="#EC322C"/>
<path d="M77.332 0H82.6654V10.6667H77.332V0Z" fill="#EC322C"/>
<path d="M77.332 48H82.6654V58.6667H77.332V48Z" fill="#EC322C"/>
<path d="M50.666 26.666H61.3327V31.9993H50.666V26.666Z" fill="#EC322C"/>
<path d="M98.666 26.666H109.333V31.9993H98.666V26.666Z" fill="#EC322C"/>
<path d="M91.6914 13.883L99.4494 6.125L103.22 9.896L95.4624 17.654L91.6914 13.883Z" fill="#EC322C"/>
<path d="M56.7812 48.7814L64.5393 41.0234L68.3103 44.7944L60.5523 52.5524L56.7812 48.7814Z" fill="#EC322C"/>
<path d="M56.7793 9.88623L60.5503 6.11523L68.3083 13.8732L64.5373 17.6442L56.7793 9.88623Z" fill="#EC322C"/>
<path d="M91.6895 44.7899L95.4608 41.0195L103.218 48.7799L99.4471 52.5502L91.6895 44.7899Z" fill="#EC322C"/>
<path d="M145.6 92.8006L142.4 88.534L136 93.334V85.334H130.666V93.334L124.266 88.534L121.066 92.8006L130.666 100.001V133.334H136V100.001L145.6 92.8006Z" fill="#4C4B4B"/>
<path d="M29.334 93.3333C27.8777 93.3327 26.691 92.1643 26.6673 90.7083V90.7057V90.7003V90.6873V90.6797V90.6667C25.7077 88.2253 23.7753 86.293 21.334 85.3333V80C24.5313 80.4797 27.4083 82.2073 29.334 84.8047C31.2596 82.2073 34.1366 80.4797 37.334 80V85.3333C34.8926 86.293 32.9603 88.2253 32.0006 90.6667C32.0006 92.1393 30.8067 93.3333 29.334 93.3333Z" fill="#4B4B4B"/>
<path d="M56 93.3333C54.5437 93.3327 53.357 92.1643 53.3333 90.7083V90.7057V90.7003V90.6873V90.6797V90.6667C52.3737 88.2253 50.4413 86.293 48 85.3333V80C51.1973 80.4797 54.0743 82.2073 56 84.8047C57.9257 82.2073 60.8027 80.4797 64 80V85.3333C61.5587 86.293 59.6263 88.2253 58.6667 90.6667C58.6667 92.1393 57.4727 93.3333 56 93.3333Z" fill="#4B4B4B"/>
<path d="M42.668 106.667C41.2116 106.667 40.025 105.498 40.0013 104.042V104.04V104.034V104.021V104.014V104.001C39.0416 101.559 37.1093 99.627 34.668 98.6673V93.334C37.8653 93.8137 40.7423 95.5413 42.668 98.1387C44.5936 95.5413 47.4706 93.8137 50.668 93.334V98.6673C48.2266 99.627 46.2943 101.559 45.3346 104.001C45.3346 105.473 44.1406 106.667 42.668 106.667Z" fill="#4B4B4B"/>
<path d="M133.333 157.333C148.06 157.333 159.999 151.363 159.999 143.999C159.999 136.636 148.06 130.666 133.333 130.666C118.605 130.666 106.666 136.636 106.666 143.999C106.666 151.363 118.605 157.333 133.333 157.333Z" fill="#7FCDE5"/>
<path d="M138.666 141.334H149.333V146.667H138.666V141.334Z" fill="#344496"/>
<path d="M120 138.666H130.667V143.999H120V138.666Z" fill="#344496"/>
<path d="M8.49234 98.9818C8.165 96.2221 8.00067 93.4458 8 90.6667C7.99367 67.6387 19.425 46.1114 38.5053 33.2188L41.495 37.6354C23.8813 49.5371 13.3287 69.4091 13.3333 90.6667C13.3337 93.2351 13.486 95.8011 13.789 98.3517L8.49234 98.9818Z" fill="#344496"/>
<path d="M77.334 159.999C64.6156 160.01 52.1406 156.514 41.2793 149.898L44.0553 145.346C59.4206 154.673 77.9926 157.132 95.256 152.124L96.7456 157.244C90.438 159.076 83.9023 160.004 77.334 159.999Z" fill="#344496"/>
<path d="M131.094 55.9297C126.415 48.6854 120.319 42.4624 113.172 37.6354L116.162 33.2188C123.902 38.4474 130.505 45.1877 135.573 53.0337L131.094 55.9297Z" fill="#344496"/>
</svg>
