<svg width="21" height="20" viewBox="0 0 21 20" fill="none" xmlns="http://www.w3.org/2000/svg">
<path d="M11.278 1.99312C12.0984 1.99388 12.9188 1.99463 13.7392 1.9954C15.1164 1.99669 16.4936 1.99795 17.8708 1.99923C18.2958 1.99963 18.7208 2.00001 19.1458 2.00041C19.6849 2.00089 20.1391 1.55611 20.1427 1.01102C20.1463 0.470583 19.6992 0.00777185 19.1601 0.00728475C18.3397 0.00653196 17.5193 0.00577917 16.699 0.00500424C15.3217 0.00372007 13.9445 0.0024359 12.5673 0.00117387C12.1423 0.00077533 11.7173 0.000398936 11.2923 3.99696e-07C10.7532 -0.0004867 10.299 0.444302 10.2954 0.989388C10.2919 1.5298 10.7389 1.99261 11.278 1.99312Z" fill="black"/>
<path d="M20.1358 8.92575C20.1365 8.09971 20.1373 7.2737 20.138 6.44767C20.1393 5.06096 20.1406 3.67424 20.1419 2.28751C20.1423 1.85959 20.1426 1.43167 20.143 1.00376C20.1435 0.460973 19.7018 0.00363025 19.1604 2.12871e-05C18.6237 -0.00356554 18.164 0.446603 18.1635 0.989409C18.1628 1.81544 18.162 2.64145 18.1612 3.46748C18.16 4.85419 18.1587 6.24092 18.1574 7.62765C18.157 8.05556 18.1566 8.48348 18.1563 8.9114C18.1557 9.45418 18.5975 9.91152 19.1389 9.91513C19.6756 9.91872 20.1353 9.46855 20.1358 8.92575Z" fill="black"/>
<path d="M16.0413 11.8151C16.0413 12.8715 16.0413 13.9279 16.0413 14.9844C16.0413 15.4351 16.0413 15.8859 16.0413 16.3367C16.0413 16.5975 16.0545 16.8645 16.0202 17.1235C16.0319 17.0382 16.0437 16.9529 16.0554 16.8676C16.028 17.0546 15.9785 17.2354 15.9065 17.4099C15.939 17.3316 15.9716 17.2532 16.0041 17.1748C15.9315 17.3445 15.8398 17.503 15.7292 17.6504C15.7803 17.5829 15.8314 17.5153 15.8826 17.4478C15.7708 17.5927 15.6436 17.7224 15.5012 17.8369C15.5687 17.784 15.6362 17.7311 15.7037 17.6783C15.5512 17.7975 15.3861 17.8958 15.2087 17.9728C15.2904 17.9385 15.372 17.9042 15.4537 17.8699C15.2709 17.9462 15.0813 17.9975 14.8852 18.0238C14.973 18.0124 15.0607 18.001 15.1485 17.9896C14.9165 18.0174 14.6785 18.0069 14.4452 18.0069C14.016 18.0069 13.5868 18.0069 13.1575 18.0069C11.8204 18.0069 10.4833 18.0069 9.14622 18.0069C7.81104 18.0069 6.47585 18.0069 5.14067 18.0069C4.71383 18.0069 4.28701 18.0069 3.86017 18.0069C3.6198 18.0069 3.37482 18.0176 3.13612 17.9856C3.22084 17.9974 3.30555 18.0092 3.39025 18.021C3.20457 17.9935 3.025 17.9436 2.85164 17.8711C2.92948 17.9039 3.0073 17.9366 3.08512 17.9694C2.91662 17.8963 2.75919 17.8039 2.61281 17.6926C2.6799 17.744 2.74701 17.7955 2.8141 17.847C2.67016 17.7345 2.54132 17.6064 2.42764 17.463C2.48015 17.531 2.53266 17.5989 2.58517 17.6669C2.46671 17.5133 2.36908 17.3471 2.29264 17.1685C2.32673 17.2507 2.36079 17.3329 2.39487 17.4151C2.31905 17.2312 2.26815 17.0402 2.242 16.8428C2.2533 16.9311 2.26463 17.0195 2.27593 17.1078C2.24829 16.8743 2.25878 16.6347 2.25878 16.3998C2.25878 15.9676 2.25878 15.5354 2.25878 15.1032C2.25878 13.7569 2.25878 12.4106 2.25878 11.0643C2.25878 9.71992 2.25878 8.37557 2.25878 7.03117C2.25878 6.6014 2.25878 6.17164 2.25878 5.74186C2.25878 5.49984 2.24807 5.25317 2.27989 5.01283C2.26817 5.09814 2.25645 5.18343 2.2447 5.26874C2.27208 5.08178 2.32165 4.90095 2.3936 4.72642C2.36105 4.80477 2.32853 4.88315 2.29598 4.96151C2.36859 4.79184 2.46031 4.63331 2.57092 4.48594C2.51979 4.5535 2.46865 4.62107 2.41752 4.68862C2.52929 4.54369 2.65646 4.41394 2.79893 4.2995C2.73142 4.35237 2.66391 4.40524 2.59643 4.45811C2.74897 4.33886 2.91405 4.24053 3.09141 4.16357C3.00977 4.19789 2.92812 4.23219 2.84647 4.26651C3.02918 4.19016 3.21882 4.13891 3.4149 4.11258C3.32716 4.12396 3.2394 4.13537 3.15166 4.14675C3.53274 4.10102 3.93049 4.12948 4.31302 4.12948C5.00504 4.12948 5.69705 4.12948 6.38906 4.12948C7.04211 4.12948 7.69513 4.12948 8.34818 4.12948C8.88725 4.12948 9.34147 3.68555 9.34505 3.14009C9.34862 2.60003 8.90155 2.13635 8.36243 2.13635C7.31038 2.13635 6.25831 2.13635 5.20624 2.13635C4.66983 2.13635 4.13341 2.13635 3.597 2.13635C3.32318 2.13635 3.05623 2.15803 2.7842 2.20623C2.46997 2.26189 2.15908 2.39367 1.88122 2.54687C1.60806 2.69747 1.35219 2.90382 1.13957 3.13245C0.563073 3.75244 0.279297 4.55766 0.279297 5.40036C0.279297 5.70274 0.279297 6.00512 0.279297 6.30752C0.279297 7.53634 0.279297 8.76516 0.279297 9.994C0.279297 11.4104 0.279297 12.8268 0.279297 14.2431C0.279297 15.0737 0.279297 15.9042 0.279297 16.7347C0.279297 16.9548 0.305311 17.1692 0.334359 17.3885C0.376931 17.71 0.50447 18.022 0.646413 18.3099C0.785101 18.5912 0.988725 18.8515 1.20666 19.0738C1.81267 19.692 2.65496 20 3.50807 20C4.3329 20 5.15775 20 5.98258 20C7.38928 20 8.79597 20 10.2027 20C11.4231 20 12.6435 20 13.864 20C14.1643 20 14.4646 20 14.7649 20C14.8784 20 14.9911 19.9983 15.1043 19.9863C15.3007 19.9655 15.4982 19.9412 15.6895 19.8906C15.8871 19.8383 16.0789 19.7515 16.2641 19.6682C16.5499 19.5395 16.8097 19.3368 17.0391 19.1262C17.4954 18.7072 17.835 18.0931 17.9503 17.483C18.0013 17.2129 18.0209 16.9474 18.0209 16.675C18.0209 16.1376 18.0209 15.6002 18.0209 15.0628C18.0209 13.9854 18.0209 12.908 18.0209 11.8306C18.0209 11.8302 18.0209 11.8298 18.0209 11.8294C18.0209 11.2866 17.58 10.8293 17.0383 10.8257C16.5019 10.8221 16.0413 11.2723 16.0413 11.8151Z" fill="black"/>
<path d="M8.72957 12.89C9.0681 12.5494 9.40661 12.2089 9.74514 11.8683C10.5686 11.04 11.392 10.2117 12.2154 9.38337C13.2355 8.35716 14.2556 7.33097 15.2758 6.30479C16.2044 5.37064 17.133 4.43649 18.0616 3.50235C18.6105 2.95018 19.1594 2.398 19.7083 1.84583C19.7575 1.79637 19.8067 1.74693 19.8558 1.69747C20.2368 1.31421 20.2303 0.668025 19.8483 0.28822C19.4632 -0.094662 18.8304 -0.088219 18.4487 0.29577C18.1102 0.636297 17.7717 0.976846 17.4331 1.31737C16.6097 2.14571 15.7863 2.97402 14.9629 3.80236C13.9427 4.82856 12.9226 5.85475 11.9025 6.88094C10.9739 7.81508 10.0453 8.74923 9.11666 9.68338C8.56775 10.2355 8.01885 10.7877 7.46992 11.3399C7.42075 11.3894 7.37161 11.4388 7.32244 11.4883C6.94145 11.8715 6.94793 12.5177 7.32994 12.8975C7.71506 13.2804 8.34786 13.274 8.72957 12.89Z" fill="black"/>
</svg>
