<svg width="2000" height="2000" viewBox="0 0 2000 2000" fill="none" xmlns="http://www.w3.org/2000/svg">
<mask id="mask0" mask-type="alpha" maskUnits="userSpaceOnUse" x="0" y="0" width="2000" height="2000">
<circle cx="1000" cy="1000" r="1000" fill="black"/>
</mask>
<g mask="url(#mask0)">
<path d="M691.102 3217.2L1726.8 3494.5L2343.3 1182.3L846.002 2398.2L691.102 3217.2Z" fill="#6AEDCB"/>
<path d="M982.099 2378.6C1178.3 2169.6 1416.2 2237.4 1615.7 2167.2C1742.8 2122.5 1847.7 2029.1 1921.1 1916.2C2036.9 1738.1 2061.4 1500.5 2219.5 1358.6C2250.4 1330.8 2286.2 1307.2 2309 1272.5C2326.7 1245.6 2335.4 1213.8 2343.7 1182.7L2685.6 -88.2002C2415.9 -29.0002 2211.2 184.3 2025.3 388.4C1237.9 1252.6 471.699 2140.1 -394.801 2925.1L691.599 3217.4C771.799 3238.9 827.799 2841.1 832.799 2806.8C855.399 2649.6 882.999 2506.7 982.099 2378.6Z" fill="#30C7FF"/>
<path d="M-356.3 2936.6C-356.3 2936.6 -173.5 2814.3 -29.5 2777.9C114.5 2741.5 343.6 2648.8 477.8 2511C612 2373.2 678.9 2241.1 730.5 2033.8C782.1 1826.5 948.9 1646.1 1161 1576.5C1373.1 1507 1807.2 1493 1918 1123.8C2028.8 754.6 2060 218.1 2676.2 -59.0999L3081.5 -1561.6L2881 -1615.3L-948 2551.4L-1093 2738.8L-356.3 2936.6Z" fill="#6C5DFE"/>
<path d="M-672.802 2851.8C-672.802 2851.8 -529.502 2728.8 -431.502 2429.3C-376.302 2260.8 -304.502 2097 -189.802 1959.9C-15.3015 1751.5 232.898 1636.7 494.498 1582C530.598 1574.4 566.598 1569.2 601.698 1557.6C667.898 1535.6 730.698 1504.3 788.198 1464.8C955.298 1349.7 1053.3 1139 1140.9 878.1C1228.5 617.2 1435.4 287.7 1640.8 117.7C1846.3 -52.3002 2017.6 -160.4 2328.9 -349.5C2640.2 -538.6 2990.5 -784.3 3030.5 -1575.2L2312 -1767.7L-599.602 897.5L-1093.1 2739.1L-672.802 2851.8Z" fill="#A20ED3"/>
<path d="M-686.801 1223.1C-686.801 1223.1 -490.801 955.8 -82.7008 869.7C325.399 783.6 506.799 968.4 814.099 440.7C1121.4 -87.0001 1085.6 -286.1 1387.2 -548.8C1688.8 -811.5 1917.9 -915.9 2206.3 -1063.7C2494.7 -1211.5 2643.4 -1280.2 2743.1 -1652.3L1803.6 -1904L-469.301 410.8L-686.801 1223.1Z" fill="#D60A99"/>
<path d="M2047.2 -1838.6C1864.9 -1755.2 1650.5 -1662.6 1542.3 -1454.7C1434.1 -1246.8 1312 -1018.9 1150.8 -837C989.602 -655.1 841.002 -653.6 658.202 -524.8C475.502 -396 347.402 -116.5 272.002 76.5002C196.602 269.5 88.2016 364.9 -77.7984 498.2C-243.798 631.5 -535.898 659.8 -535.898 659.8L-285.598 -274.3L58.0016 -981.8L1207 -2063.8L2047.2 -1838.6Z" fill="#F005C4"/>
<path d="M-378.199 71C-376.499 64.6 -349.699 51.2 -344.399 47.2C-313.299 24.2 -283.899 -0.900146 -256.299 -27.9001C-145.199 -137.1 -123.499 -264.1 -95.7992 -410.5C-76.6992 -511.9 -66.7992 -666 6.60077 -746.2C79.2008 -825.5 140.501 -892.2 394.101 -954.4C551.701 -993 713.901 -1051.1 835.801 -1165.4C977.101 -1297.8 1014.1 -1484 1095.5 -1653.3C1161.9 -1791.3 1256.1 -1937.2 1392.6 -2014L261.701 -2317L-378.199 71Z" fill="#FF744B"/>
</g>
<circle cx="1000" cy="1000" r="902" fill="white"/>
<path d="M1404.05 959.754C1403.94 958.367 1403.67 957.036 1403.23 955.688C1402.95 954.849 1402.69 954.052 1402.3 953.272C1402.09 952.857 1402.05 952.401 1401.81 951.997L1322.4 819.308C1276.62 742.863 1192.86 695.369 1103.79 695.369H892.266C803.176 695.369 719.411 742.863 673.634 819.308L594.241 951.997C593.999 952.402 593.956 952.859 593.75 953.276C593.36 954.053 593.097 954.846 592.823 955.683C592.384 957.033 592.107 958.366 592.001 959.755C591.963 960.23 591.726 960.637 591.726 961.121C591.726 961.489 591.913 961.795 591.935 962.156C592.023 963.633 592.35 965.037 592.801 966.452C593.027 967.157 593.151 967.875 593.46 968.538C594.089 969.901 595.008 971.102 595.988 972.291C596.404 972.792 596.682 973.38 597.148 973.832C597.222 973.903 597.254 974 597.328 974.07L985.866 1338.67C986.139 1338.93 986.496 1339.01 986.78 1339.25C987.929 1340.2 989.172 1340.97 990.525 1341.61C991.068 1341.87 991.565 1342.18 992.127 1342.38C994 1343.05 995.963 1343.48 998.025 1343.48C1000.09 1343.48 1002.05 1343.05 1003.92 1342.38C1004.49 1342.18 1004.98 1341.87 1005.53 1341.61C1006.88 1340.97 1008.12 1340.2 1009.27 1339.25C1009.56 1339.01 1009.91 1338.93 1010.19 1338.67L1398.72 974.07C1398.8 974 1398.83 973.903 1398.9 973.832C1399.37 973.379 1399.65 972.79 1400.06 972.288C1401.04 971.101 1401.96 969.902 1402.59 968.541C1402.9 967.875 1403.02 967.154 1403.25 966.446C1403.7 965.033 1404.03 963.632 1404.12 962.157C1404.14 961.795 1404.33 961.489 1404.33 961.121C1404.33 960.637 1404.09 960.229 1404.05 959.754ZM840.627 978.884L951.962 1258.13L654.367 978.884H840.627ZM1117.17 978.884L998.025 1277.76L878.865 978.884H1117.17ZM884.769 943.359L998.025 751.016L1111.27 943.359H884.769ZM1155.41 978.884H1341.68L1044.08 1258.14L1155.41 978.884ZM1291.9 837.556L1355.24 943.359H1152.48L1027.39 730.894H1103.79C1180.44 730.894 1252.53 771.762 1291.9 837.556ZM704.129 837.556C743.505 771.762 815.596 730.894 892.266 730.894H968.656L843.552 943.359H640.813L704.129 837.556Z" fill="black"/>
<path d="M1017.26 416.295V306.763C1017.26 296.953 1009.32 289 999.5 289C989.682 289 981.737 296.953 981.737 306.763V416.295C981.737 426.104 989.682 434.058 999.5 434.058C1009.32 434.058 1017.26 426.104 1017.26 416.295Z" fill="black"/>
<path d="M1291.09 512.19C1297.23 512.19 1303.2 509.007 1306.49 503.308L1361.25 408.451C1366.16 399.951 1363.25 389.092 1354.75 384.183C1346.27 379.283 1335.39 382.189 1330.48 390.688L1275.72 485.546C1270.81 494.045 1273.73 504.904 1282.22 509.813C1285.02 511.426 1288.07 512.19 1291.09 512.19Z" fill="black"/>
<path d="M1504.59 725.657C1507.6 725.657 1510.66 724.894 1513.45 723.281L1608.32 668.51C1616.82 663.601 1619.73 652.742 1614.82 644.243C1609.89 635.734 1599.02 632.829 1590.55 637.738L1495.69 692.509C1487.19 697.418 1484.27 708.276 1489.18 716.776C1492.48 722.474 1498.45 725.657 1504.59 725.657Z" fill="black"/>
<path d="M1710 999.501C1710 989.692 1702.06 981.738 1692.24 981.738H1582.7C1572.88 981.738 1564.93 989.692 1564.93 999.501C1564.93 1009.31 1572.88 1017.26 1582.7 1017.26H1692.24C1702.06 1017.26 1710 1009.31 1710 999.501Z" fill="black"/>
<path d="M1495.69 1306.49L1590.55 1361.26C1593.35 1362.87 1596.4 1363.64 1599.42 1363.64C1605.56 1363.64 1611.53 1360.45 1614.82 1354.76C1619.73 1346.26 1616.82 1335.4 1608.32 1330.49L1513.45 1275.72C1504.95 1270.8 1494.09 1273.71 1489.18 1282.22C1484.27 1290.72 1487.19 1301.58 1495.69 1306.49Z" fill="black"/>
<path d="M1282.22 1489.18C1273.73 1494.09 1270.81 1504.95 1275.72 1513.45L1330.48 1608.3C1333.78 1614 1339.74 1617.19 1345.89 1617.19C1348.9 1617.19 1351.96 1616.42 1354.75 1614.81C1363.25 1609.9 1366.16 1599.04 1361.25 1590.54L1306.49 1495.68C1301.57 1487.18 1290.67 1484.26 1282.22 1489.18Z" fill="black"/>
<path d="M981.737 1582.71V1692.25C981.737 1702.06 989.682 1710.01 999.5 1710.01C1009.32 1710.01 1017.26 1702.06 1017.26 1692.25V1582.71C1017.26 1572.91 1009.32 1564.95 999.5 1564.95C989.682 1564.95 981.737 1572.91 981.737 1582.71Z" fill="black"/>
<path d="M692.507 1495.68L637.745 1590.54C632.836 1599.04 635.75 1609.9 644.25 1614.81C647.042 1616.42 650.095 1617.19 653.114 1617.19C659.254 1617.19 665.221 1614 668.517 1608.3L723.279 1513.45C728.188 1504.95 725.274 1494.09 716.774 1489.18C708.274 1484.26 697.416 1487.18 692.507 1495.68Z" fill="black"/>
<path d="M485.549 1275.72L390.683 1330.49C382.183 1335.4 379.269 1346.26 384.178 1354.76C387.474 1360.45 393.441 1363.64 399.581 1363.64C402.6 1363.64 405.653 1362.87 408.445 1361.26L503.312 1306.49C511.811 1301.58 514.725 1290.72 509.816 1282.22C504.89 1273.71 494.014 1270.8 485.549 1275.72Z" fill="black"/>
<path d="M306.762 1017.26H416.304C426.122 1017.26 434.066 1009.31 434.066 999.501C434.066 989.692 426.122 981.738 416.304 981.738H306.762C296.945 981.738 289 989.692 289 999.501C289 1009.31 296.945 1017.26 306.762 1017.26Z" fill="black"/>
<path d="M503.312 692.509L408.445 637.738C399.963 632.829 389.087 635.734 384.178 644.243C379.269 652.742 382.183 663.601 390.683 668.51L485.549 723.281C488.342 724.894 491.395 725.657 494.413 725.657C500.554 725.657 506.521 722.474 509.816 716.776C514.725 708.276 511.811 697.418 503.312 692.509Z" fill="black"/>
<path d="M707.91 512.19C710.928 512.19 713.981 511.426 716.774 509.813C725.274 504.904 728.188 494.045 723.279 485.546L668.517 390.688C663.591 382.189 652.715 379.283 644.25 384.183C635.75 389.092 632.836 399.951 637.745 408.451L692.507 503.308C695.803 509.007 701.77 512.19 707.91 512.19Z" fill="black"/>
</svg>
