<svg width="29" height="28" viewBox="0 0 29 28" fill="none" xmlns="http://www.w3.org/2000/svg">
<path d="M15.6133 23.9158L16.3102 27.1122L17.4718 27.3253H22.3505L23.0475 26.8991V26.0467L22.8152 24.1289L21.6536 23.7027L22.1182 22.4242L22.8152 21.998L23.9768 21.3587L25.3707 20.5063L26.9969 18.8016L27.9262 17.7361L28.1585 16.4576V9.85172L27.2292 9.42554L26.2999 9.85172L25.603 13.4743L24.4414 12.835H23.5121L22.8152 13.4743L21.8859 15.179L20.492 16.4576L18.8657 17.5231L17.2395 19.2278L16.5426 21.1456V23.9158H15.6133Z" fill="white"/>
<path d="M13.29 23.9158L12.5931 27.1122L11.4315 27.3253H6.55279L5.85584 26.8991V26.0467L6.08816 24.1289L7.24975 23.7027L6.78511 22.4242L6.08816 21.998L4.92656 21.3587L3.53265 20.5063L1.90642 18.8016L0.977141 17.7361L0.744823 16.4576V9.85172L1.6741 9.42554L2.60337 9.85172L3.30033 13.4743L4.46192 12.835H5.3912L6.08816 13.4743L7.01743 15.179L8.41134 16.4576L10.0376 17.5231L11.6638 19.2278L12.3608 21.1456V23.9158H13.29Z" fill="white"/>
<path d="M11.8968 9.42551L14.6847 17.3099L17.4725 9.42551H11.8968Z" fill="#FFB3E2"/>
<path d="M11.8968 8.99932L10.5029 6.01603L10.7352 5.58984L14.4523 5.80294L11.8968 8.99932Z" fill="#FFB3E2"/>
<path d="M17.4725 8.99932L15.1493 6.01603L15.6139 5.58984L18.8664 5.80294L17.4725 8.99932Z" fill="#FFB3E2"/>
<path d="M11.6643 9.42547H7.94716L7.71484 8.99929L10.038 6.22908H10.5027L11.6643 9.42547Z" fill="#A8E7FF"/>
<path d="M19.0985 6.01599L17.7046 9.21238L21.1893 9.42547L21.8863 9.21238L19.0985 6.01599Z" fill="#A8E7FF"/>
<path d="M11.6643 9.63856H7.71484L13.9875 16.4575L11.6643 9.63856Z" fill="#FFF57D"/>
<path d="M21.4217 9.63856L17.7046 9.42547L15.6137 15.3921V16.2444L15.846 16.0313L21.4217 9.63856Z" fill="#FFF57D"/>
<path d="M14.6844 6.01599L17.0076 8.99929L14.4521 9.21238L12.5935 8.99929L14.6844 6.01599Z" fill="#FFF57D"/>
<path d="M15.0403 17.7957L22.4745 9.69823C22.4933 9.67752 22.5089 9.65459 22.521 9.63004L22.5535 9.58316C22.5737 9.53259 22.5847 9.47931 22.586 9.42547C22.586 9.42547 22.586 9.42547 22.586 9.3999C22.5839 9.35761 22.5745 9.31589 22.5581 9.2763C22.5581 9.2763 22.5581 9.23795 22.5256 9.2209C22.5166 9.20158 22.5057 9.18304 22.4931 9.16549L19.2406 5.32983C19.2406 5.32983 19.2406 5.32983 19.2127 5.30426C19.1831 5.2782 19.1504 5.25532 19.1152 5.23607L19.0501 5.20198H19.0176C18.9883 5.19801 18.9586 5.19801 18.9293 5.20198L18.8689 5.16362H10.5054H10.4497C10.4204 5.15965 10.3907 5.15965 10.3614 5.16362H10.3289L10.2638 5.19771C10.2286 5.21696 10.1958 5.23984 10.1662 5.2659C10.1662 5.2659 10.1662 5.2659 10.1384 5.29147L6.8859 9.12714C6.87328 9.14468 6.8624 9.16323 6.85337 9.18254C6.85337 9.18254 6.83014 9.21664 6.82085 9.23795C6.80449 9.27753 6.79508 9.31925 6.79297 9.36154C6.79297 9.36154 6.79297 9.36154 6.79297 9.38711C6.79479 9.43952 6.80577 9.49132 6.82549 9.54054L6.85802 9.58742C6.87008 9.61197 6.88571 9.63491 6.90448 9.65561L14.3387 17.7531C14.3522 17.7634 14.3647 17.7748 14.3759 17.7872L14.4456 17.8256L14.4874 17.8469H14.5199C14.6135 17.8749 14.7144 17.8749 14.808 17.8469H14.8405L14.8823 17.8256L14.952 17.7872L14.9892 17.7489L15.0403 17.7957ZM10.3335 6.48905L11.2117 8.99928H8.18224L10.3335 6.48905ZM21.1921 8.99928H18.1627L19.0408 6.48905L21.1921 8.99928ZM16.9081 9.85165L14.6872 16.1294L12.4848 9.85165H16.9081ZM12.7868 8.99928L14.6872 6.35694L16.6061 8.99928H12.7868ZM17.8978 9.85165H21.1503L15.8534 15.5924L17.8978 9.85165ZM17.3914 8.50065L15.556 6.01599H18.2323L17.3914 8.50065ZM12.048 8.50065L11.142 6.01599H13.8183L12.048 8.50065ZM11.509 9.85165L13.5209 15.5924L8.25193 9.85165H11.509Z" fill="black"/>
<path d="M14.6863 4.31133C14.8095 4.31133 14.9277 4.26643 15.0149 4.18651C15.102 4.10658 15.151 3.99818 15.151 3.88515V1.32804C15.151 1.21501 15.102 1.10661 15.0149 1.02668C14.9277 0.946757 14.8095 0.901855 14.6863 0.901855C14.5631 0.901855 14.4449 0.946757 14.3578 1.02668C14.2706 1.10661 14.2217 1.21501 14.2217 1.32804V3.88515C14.2217 3.99818 14.2706 4.10658 14.3578 4.18651C14.4449 4.26643 14.5631 4.31133 14.6863 4.31133Z" fill="black"/>
<path d="M17.79 4.18359C17.8537 4.21189 17.9236 4.22647 17.9944 4.2262C18.0815 4.22636 18.1669 4.20407 18.2408 4.16187C18.3148 4.11968 18.3743 4.05927 18.4126 3.98754L19.2304 2.45327C19.2682 2.35501 19.2654 2.24744 19.2226 2.15091C19.1798 2.05438 19.1 1.97558 18.9981 1.92939C18.8963 1.88321 18.7795 1.87285 18.6699 1.90028C18.5603 1.9277 18.4655 1.99101 18.4033 2.07823L17.5856 3.6125C17.5304 3.71315 17.521 3.82972 17.5593 3.93673C17.5976 4.04374 17.6806 4.13249 17.79 4.18359Z" fill="black"/>
<path d="M10.5047 3.98761C10.5431 4.05933 10.6026 4.11974 10.6765 4.16194C10.7505 4.20414 10.8358 4.22643 10.9229 4.22627C10.9937 4.22653 11.0636 4.21196 11.1274 4.18365C11.1823 4.1591 11.2315 4.12484 11.272 4.08282C11.3126 4.04081 11.3436 3.99187 11.3635 3.93881C11.3834 3.88576 11.3916 3.82962 11.3878 3.77364C11.3839 3.71765 11.368 3.66291 11.3411 3.61256L10.5047 2.0783C10.4779 2.02793 10.4405 1.9829 10.3947 1.94579C10.3489 1.90867 10.2955 1.8802 10.2377 1.862C10.1799 1.84379 10.1187 1.83621 10.0577 1.83969C9.99671 1.84316 9.93704 1.85763 9.88213 1.88225C9.82721 1.90688 9.77812 1.94118 9.73766 1.98321C9.6972 2.02524 9.66616 2.07416 9.64631 2.12719C9.62647 2.18022 9.6182 2.23632 9.62199 2.29228C9.62578 2.34824 9.64155 2.40297 9.66839 2.45334L10.5047 3.98761Z" fill="black"/>
<path d="M21.191 6.01597C21.2521 6.01629 21.3127 6.00554 21.3693 5.98433C21.426 5.96312 21.4774 5.93187 21.5209 5.89238L22.9148 4.61382C23.0023 4.53357 23.0514 4.42472 23.0514 4.31123C23.0514 4.19774 23.0023 4.08889 22.9148 4.00864C22.8273 3.92839 22.7086 3.8833 22.5849 3.8833C22.4611 3.8833 22.3425 3.92839 22.255 4.00864L20.8611 5.28719C20.8175 5.32681 20.783 5.37395 20.7594 5.42588C20.7358 5.47782 20.7236 5.53352 20.7236 5.58978C20.7236 5.64605 20.7358 5.70175 20.7594 5.75368C20.783 5.80562 20.8175 5.85276 20.8611 5.89238C20.9045 5.93187 20.956 5.96312 21.0126 5.98433C21.0692 6.00554 21.1298 6.01629 21.191 6.01597Z" fill="black"/>
<path d="M7.387 5.89238C7.4302 5.93232 7.48159 5.96403 7.53821 5.98566C7.59483 6.0073 7.65556 6.01844 7.7169 6.01844C7.77823 6.01844 7.83897 6.0073 7.89559 5.98566C7.95221 5.96403 8.0036 5.93232 8.04679 5.89238C8.09034 5.85276 8.12491 5.80562 8.1485 5.75368C8.17208 5.70175 8.18423 5.64605 8.18423 5.58978C8.18423 5.53352 8.17208 5.47782 8.1485 5.42588C8.12491 5.37395 8.09034 5.32681 8.04679 5.28719L6.65288 4.00864C6.56538 3.92839 6.44672 3.8833 6.32298 3.8833C6.19925 3.8833 6.08058 3.92839 5.99309 4.00864C5.9056 4.08889 5.85645 4.19774 5.85645 4.31123C5.85645 4.42472 5.9056 4.53357 5.99309 4.61382L7.387 5.89238Z" fill="black"/>
<path d="M27.1716 8.99951C26.8188 9.00059 26.4784 9.11847 26.2129 9.33146C25.9474 9.54446 25.7747 9.83823 25.7265 10.1587L25.3595 12.7158C25.2164 12.616 25.0604 12.533 24.8948 12.4687C24.4567 12.308 23.9696 12.3 23.5254 12.446C23.0812 12.592 22.7106 12.882 22.4834 13.2614L21.3961 15.0513C20.8234 15.7733 20.0922 16.3773 19.2495 16.8243C18.827 17.054 18.4355 17.3286 18.0833 17.6425C15.8855 19.5859 16.0063 21.9854 16.0807 23.1361C16.0807 23.2767 16.0807 23.396 16.0807 23.4898C15.839 23.5096 15.6146 23.6132 15.4534 23.7796C15.3634 23.8719 15.2964 23.9811 15.2571 24.0996C15.2177 24.2181 15.207 24.3431 15.2257 24.4658L15.5649 26.976C15.5938 27.1848 15.7036 27.3771 15.8741 27.5179C16.0447 27.6588 16.2648 27.7387 16.4942 27.7431H22.5345C22.6613 27.746 22.7875 27.7256 22.9058 27.6833C23.024 27.641 23.1318 27.5775 23.2231 27.4966C23.3143 27.4157 23.3871 27.319 23.4372 27.212C23.4873 27.1051 23.5137 26.9901 23.5149 26.8737V24.3677C23.5149 24.1349 23.414 23.9116 23.2345 23.7469C23.055 23.5823 22.8116 23.4898 22.5577 23.4898H22.121C22.1535 23.304 22.2303 23.127 22.3459 22.9716C22.4616 22.8161 22.6132 22.686 22.79 22.5905C24.3048 21.9001 28.6259 19.2279 28.6259 16.2447V10.3335C28.6247 9.98003 28.471 9.64138 28.1986 9.39146C27.9261 9.14154 27.5569 9.00064 27.1716 8.99951ZM22.5856 24.3677V26.8737C22.5856 26.8805 22.5827 26.887 22.5774 26.8918C22.5722 26.8966 22.5651 26.8993 22.5577 26.8993H16.4895L16.1736 24.3422L22.5856 24.3677ZM27.6966 16.2447C27.6966 18.5972 24.0446 21.0648 22.3765 21.8319C22.0552 21.9976 21.7807 22.23 21.575 22.5105C21.3692 22.791 21.238 23.1118 21.1917 23.4472C21.1917 23.4472 21.1917 23.477 21.1917 23.4898H17.0099C17.0099 23.3833 17.0099 23.2511 17.0099 23.0977C16.9588 22.0706 16.8473 19.9312 18.743 18.2562C19.0427 17.9875 19.3766 17.7528 19.7374 17.5573C20.7022 17.0456 21.537 16.3511 22.186 15.5201L23.3151 13.6492C23.4357 13.4612 23.6256 13.3188 23.8504 13.2478C24.0753 13.1767 24.3204 13.1815 24.5417 13.2614C24.7197 13.3262 24.8731 13.4375 24.9829 13.5814C25.0927 13.7253 25.1542 13.8955 25.1597 14.0711L25.0203 15.0556C24.9646 15.432 24.7752 15.781 24.4813 16.0486L23.7054 16.7603C22.9917 17.4151 22.5892 18.3021 22.5856 19.2279H23.5149C23.5139 18.8786 23.5885 18.5326 23.7345 18.21C23.8805 17.8874 24.0948 17.5945 24.3652 17.3485L25.1411 16.6367C25.5757 16.2332 25.8561 15.7113 25.9403 15.1494L26.0193 14.5953L26.6465 10.2781C26.6699 10.1608 26.7395 10.0555 26.8421 9.98228C26.9446 9.90903 27.0729 9.87292 27.2026 9.88081C27.3323 9.88871 27.4543 9.94006 27.5454 10.0251C27.6365 10.1101 27.6903 10.2229 27.6966 10.342V16.2447Z" fill="black"/>
<path d="M17.4744 26.0467C17.731 26.0467 17.939 25.8559 17.939 25.6205C17.939 25.3851 17.731 25.1943 17.4744 25.1943C17.2178 25.1943 17.0098 25.3851 17.0098 25.6205C17.0098 25.8559 17.2178 26.0467 17.4744 26.0467Z" fill="black"/>
<path d="M12.8285 23.4894C12.8285 23.3956 12.8285 23.2763 12.8285 23.1356C12.8889 21.9849 13.0097 19.5855 10.8166 17.6421C10.4617 17.3292 10.0688 17.0546 9.64569 16.8238C8.80302 16.3769 8.07177 15.7729 7.49906 15.0509L6.42111 13.2609C6.19425 12.8847 5.82573 12.5971 5.38446 12.452C4.94319 12.3069 4.4594 12.3142 4.02358 12.4725C3.85807 12.5368 3.70198 12.6198 3.55894 12.7197L3.19187 10.1626C3.17967 9.9874 3.12997 9.81614 3.04561 9.65858C2.96125 9.50102 2.84388 9.36025 2.7002 9.24429C2.41004 9.01011 2.03034 8.89125 1.64463 8.91386C1.25892 8.93646 0.898801 9.09868 0.643491 9.36484C0.388182 9.63099 0.258596 9.97926 0.283242 10.3331V16.2442C0.283242 19.2275 4.60437 21.8997 6.11444 22.5901C6.29211 22.6851 6.44466 22.8151 6.56114 22.9705C6.67762 23.126 6.75515 23.3032 6.78817 23.4894H6.35606C6.22997 23.4888 6.10501 23.5111 5.98834 23.555C5.87168 23.5989 5.76561 23.6634 5.67624 23.745C5.58687 23.8266 5.51595 23.9236 5.46756 24.0304C5.41917 24.1372 5.39425 24.2517 5.39426 24.3673V26.8733C5.39426 27.1061 5.4951 27.3294 5.6746 27.4941C5.8541 27.6587 6.09756 27.7512 6.35141 27.7512H12.3917C12.6211 27.7468 12.8412 27.6669 13.0118 27.5261C13.1823 27.3852 13.2921 27.1929 13.321 26.9841L13.6602 24.4739C13.6788 24.3512 13.6682 24.2263 13.6288 24.1078C13.5895 23.9893 13.5225 23.88 13.4325 23.7877C13.2785 23.6229 13.0632 23.5166 12.8285 23.4894ZM6.53262 21.8315C4.86457 21.0644 1.21252 18.5968 1.21252 16.2442V10.3331C1.22055 10.2145 1.27569 10.1027 1.3675 10.0188C1.45931 9.93502 1.58143 9.88496 1.71077 9.87813C1.8401 9.87131 1.96767 9.9082 2.06936 9.98181C2.17104 10.0554 2.23979 10.1607 2.2626 10.2776L2.96885 15.1489C3.05305 15.7109 3.33344 16.2327 3.76802 16.6363L4.54397 17.3481C4.8143 17.5941 5.02867 17.8869 5.17463 18.2096C5.32059 18.5322 5.39524 18.8782 5.39426 19.2275H6.32353C6.3242 18.7662 6.22564 18.3092 6.03349 17.8829C5.84134 17.4565 5.55938 17.0691 5.20375 16.7429L4.42781 16.0311C4.13393 15.7636 3.94448 15.4145 3.88883 15.0381L3.74944 14.0579C3.75705 13.8844 3.81952 13.7167 3.92925 13.5752C4.03898 13.4336 4.19121 13.3245 4.36741 13.2609C4.59256 13.179 4.8425 13.1749 5.07072 13.2494C5.29893 13.3238 5.48987 13.4718 5.60799 13.6658L6.70918 15.4984L6.73706 15.5368C7.3861 16.3678 8.22088 17.0623 9.1857 17.5739C9.54719 17.7705 9.88244 18.0051 10.1847 18.2729C12.0757 19.9478 11.9642 22.1085 11.9131 23.1143C11.9131 23.2678 11.9131 23.3999 11.9131 23.5064H7.71744C7.71744 23.5064 7.71744 23.4766 7.71744 23.4638C7.67393 23.1254 7.54394 22.8012 7.33806 22.5176C7.13218 22.2339 6.85622 21.9989 6.53262 21.8315ZM12.3963 26.8989H6.35606L6.32353 26.8733L6.35141 24.3417L12.7634 24.3673L12.3963 26.8989Z" fill="black"/>
<path d="M11.4334 26.0467C11.69 26.0467 11.898 25.8559 11.898 25.6205C11.898 25.3851 11.69 25.1943 11.4334 25.1943C11.1768 25.1943 10.9688 25.3851 10.9688 25.6205C10.9688 25.8559 11.1768 26.0467 11.4334 26.0467Z" fill="black"/>
</svg>
