<svg width="888" height="387" viewBox="0 0 888 387" fill="none" xmlns="http://www.w3.org/2000/svg">
<rect width="888" height="387" fill="white"/>
<mask id="mask0" mask-type="alpha" maskUnits="userSpaceOnUse" x="0" y="0" width="877" height="387">
<rect width="877" height="387" fill="white"/>
</mask>
<g mask="url(#mask0)">
<path d="M147.032 39.1945H166.387C168.035 38.3663 167.696 36.1025 169.334 34.4563C170.773 33.011 171.469 32.2719 173.199 31.1658C174.9 30.0783 176.537 30.3185 178.177 29.5864C182.731 27.5527 191.327 27.6538 195.632 30.08C205.57 35.6817 211.188 45.0666 211.188 56.3376C211.188 63.7541 208.691 75.7966 198.546 73.2833C195.712 72.581 193.125 70.9466 190.687 69.4006C186.715 66.8828 182.346 65.2989 177.784 64.2017C168.067 61.865 156.897 62.3767 147.589 58.7396C144.815 57.6559 138.092 55.7158 138.092 51.8955C138.092 48.8914 138.411 44.8475 140.581 42.6165C142.745 40.3911 144.008 39.1945 147.032 39.1945Z" stroke="#F6F6F6" stroke-linecap="round" stroke-linejoin="round"/>
<path d="M770.668 112.26L753.029 104.292C751.186 104.368 750.564 106.571 748.393 107.396C746.487 108.121 745.548 108.508 743.516 108.804C741.518 109.095 740.125 108.202 738.33 108.194C733.342 108.172 725.549 104.541 722.626 100.558C715.875 91.361 714.619 80.4957 719.26 70.2243C722.313 63.4655 729.546 53.5186 737.756 59.9858C740.051 61.7929 741.735 64.3471 743.321 66.76C745.903 70.6897 749.233 73.932 752.939 76.8101C760.831 82.9398 771.222 87.0723 778.207 94.2191C780.289 96.3486 785.617 100.885 784.044 104.366C782.807 107.104 780.852 110.658 777.956 111.798C775.067 112.935 773.424 113.505 770.668 112.26Z" stroke="#F6F6F6" stroke-linecap="round" stroke-linejoin="round"/>
<path d="M839.436 329.581C826.579 336.169 803.651 343.456 780.11 340.932C757.237 338.479 730.931 330.025 710.776 320.734C695.864 313.859 680.287 305.244 662.339 303.305C649.129 301.877 640.712 306.368 626.108 303.548C604.968 299.466 593.629 291.125 577.521 282.078C572.087 279.027 565.601 277.879 559.074 276.198C545.272 272.645 533.198 268.979 519.865 268.802C499.316 268.529 484.269 261.54 466.183 252.894C448.256 244.324 437.412 245.287 422.704 248.574C403.647 252.833 379.897 252.519 355.587 250.35C345.728 249.471 328.399 246.711 320.22 241.55C312.815 236.877 309.806 230.974 306.298 225.916C301.704 219.291 297.535 213.742 285.412 208.88C271.556 203.323 259.117 203.427 245.417 202.76C227.255 201.876 209.552 198.747 190.83 193.928C180.005 191.141 165.562 188.267 158.307 181.901C139.487 165.387 183.38 142.458 142.777 127.7C120.652 119.659 96.474 116.861 75.9363 106.708C53.8978 95.8143 32.0279 80.8022 33.7823 67.362C35.9395 50.8358 70.9132 53.6559 98.7511 56.8545C117.469 59.0051 139.298 63.4763 155.004 72.38C164.36 77.6845 171.913 84.4391 184.229 87.2557C200.677 91.0171 214.441 88.2776 228.114 87.1555C249.585 85.3936 270.53 84.4631 295.344 92.7608C331.718 104.924 354.27 128.864 387.255 143.698C396.823 148.001 408.002 153.044 419.226 154.669C432.751 156.628 443.579 155.678 457.837 158.693C487.735 165.014 515.33 175.761 544.203 174.619C554.25 174.221 556.32 174.582 559.007 180.779C562.309 188.394 568.953 197.106 580.622 203.875C602.704 216.685 637.835 219.737 660.011 218.092C683.964 216.316 712.017 213.134 739.434 216.526C761.451 219.25 788.357 228.058 807.069 237.635C820.98 244.756 836.163 252.056 845.589 260.864C853.774 268.513 853.277 275.814 851.578 282.417C850.864 285.19 847.254 290.605 851.037 293.763C855.334 297.349 862.284 299.013 864.421 302.95C866.102 306.047 868.727 309.548 868.481 312.435C868.041 317.587 869.509 324.153 864.554 328.042C858.513 332.785 849.154 332.082 836.344 328.785" stroke="#F3F3F3" stroke-linecap="round" stroke-linejoin="round"/>
<path opacity="0.5" d="M715.463 274.632C706.919 265.046 690.802 252.273 672.282 248.849C654.288 245.521 632.483 247.151 615.222 251.124C602.451 254.063 588.827 258.523 574.705 255.926C564.311 254.016 558.752 247.568 547.016 246.658C530.027 245.34 519.703 250.592 505.588 255.337C500.827 256.937 495.635 256.432 490.306 256.432C479.041 256.432 469.074 256.973 458.832 253.82C443.047 248.961 430.15 251.978 414.6 255.842C399.187 259.672 391.075 256.036 380.462 249.186C366.712 240.31 348.468 234.694 329.43 230.733C321.709 229.127 307.898 227.479 300.62 230.438C294.03 233.117 290.563 238.084 286.88 242.108C282.058 247.378 277.773 251.713 267.533 253.399C255.83 255.326 246.328 252.124 235.708 249.354C221.63 245.682 207.46 244.299 192.177 244.299C183.341 244.299 171.718 243.481 164.909 247.838C147.246 259.138 176.33 292.285 142.337 296.455C123.814 298.727 104.753 295.409 87.0293 300.12C68.0103 305.176 48.3088 314.262 47.003 327.715C45.3975 344.257 72.7279 350.245 94.6701 354.088C109.424 356.671 127.016 357.784 140.795 353.077C149.004 350.272 156.117 345.614 166.101 345.957C179.434 346.415 189.432 352.499 199.678 356.995C215.768 364.054 231.619 370.177 252.252 368.327C282.495 365.617 304.479 348.055 332.655 341.912C340.828 340.131 350.38 338.034 359.292 339.258C370.032 340.734 378.135 344.353 389.645 344.988C413.78 346.32 437.024 342.792 458.902 351.097C466.516 353.986 468.172 354.153 471.45 348.822C475.478 342.27 482.282 335.49 492.55 331.843C511.98 324.943 539.476 330.746 556.129 337.868C574.116 345.56 594.965 355.635 616.624 359.185C634.016 362.036 656.35 360.214 672.563 355.604C684.616 352.177 697.678 348.893 706.631 342.713C714.405 337.346 715.463 330.152 715.463 323.333C715.463 320.47 713.767 314.326 717.286 312.211C721.282 309.809 726.931 309.931 729.343 306.65C731.239 304.07 733.939 301.335 734.32 298.477C734.998 293.378 737.416 287.385 734.39 282.384C730.699 276.284 723.396 274.632 712.939 274.632" stroke="#EDEDED" stroke-linecap="round" stroke-linejoin="round"/>
<path opacity="0.5" d="M84.3539 239.068C61.8274 242.496 49.7051 252.269 39.3119 261.865L34.9002 264.877C22.1811 264.877 13.2979 286.531 8.80909 292.637C5.12797 297.644 8.06882 303.642 8.89435 308.746C9.35702 311.607 12.6409 314.345 14.9482 316.928C17.882 320.211 24.7529 320.09 29.6138 322.494C33.8936 324.611 31.8306 330.761 31.8306 333.627C31.8306 340.453 33.118 347.654 42.574 353.026C53.463 359.213 69.3518 362.5 84.0128 365.931C103.733 370.545 130.9 372.369 152.054 369.515C178.399 365.962 203.759 355.876 225.638 348.177C245.894 341.048 263.48 341.269 287.114 348.177C299.603 351.827 323.738 352.583 328.638 359.141C332.626 364.478 334.64 364.311 343.901 361.418C370.513 353.105 398.786 356.637 428.142 355.304C442.142 354.668 451.998 351.045 465.062 349.568C475.855 348.348 487.418 350.423 497.33 352.201L497.463 352.225C531.735 358.374 558.475 375.953 595.262 378.667C620.359 380.518 639.64 374.389 659.211 367.322C671.674 362.823 683.835 356.732 700.053 356.274C712.196 355.93 720.849 360.593 730.833 363.4C747.593 368.112 768.992 366.999 786.938 364.413C813.627 360.566 846.871 354.572 844.918 338.013C843.33 324.547 832.134 309.061 809 304C787.442 299.284 786.938 283.5 759 265.5C717 246.659 722.986 249.368 701.502 238.056C693.22 233.696 679.082 234.514 668.334 234.514C649.745 234.514 632.509 235.899 615.384 239.574C602.467 242.347 590.909 245.552 576.674 243.623C564.219 241.935 559.007 237.596 553.141 232.321C548.662 228.293 544.444 223.321 536.429 220.639C527.576 217.677 510.777 219.327 501.385 220.935C478.228 224.899 456.037 230.521 439.312 239.406C426.403 246.263 416.536 249.903 397.788 246.069C378.874 242.201 363.187 239.18 343.986 244.045C331.528 247.201 319.405 246.659 305.702 246.659C299.221 246.659 292.905 247.165 287.114 245.563C269.945 240.813 257.387 235.557 236.722 236.875C222.447 237.786 215.686 244.24 203.043 246.153C185.865 248.752 169.294 244.288 153.76 241.346C132.764 237.369 106.241 235.738 84.3539 239.068Z" fill="#EFF2F4"/>
<path d="M352.291 327.774C352.507 327.937 352.773 328.031 353.064 328.031H368.906C369.619 328.031 370.219 327.431 370.219 326.717C370.219 326.003 369.619 325.403 368.906 325.403H353.471L325.119 304.26C324.548 303.831 323.72 303.945 323.292 304.517C322.864 305.088 322.978 305.917 323.549 306.345L352.207 327.717C352.235 327.737 352.262 327.756 352.291 327.774ZM447.43 328C448.115 328 448.715 327.429 448.715 326.715C448.715 326 448.144 325.429 447.43 325.429H402.074C401.36 325.429 400.789 326 400.789 326.715C400.789 327.429 401.36 328 402.074 328H447.43Z" fill="#FFCB3D"/>
<path d="M324.977 304.167C325.026 304.194 325.073 304.225 325.119 304.259L353.47 325.402H368.905C368.952 325.402 368.999 325.405 369.045 325.41C369.061 325.318 369.072 325.228 369.076 325.143C369.048 324.943 369.048 324.714 368.991 324.486C368.848 323.972 368.62 323.486 368.363 323.057C367.535 321.743 366.051 320.829 366.051 320.829C364.338 319.714 362.768 318.972 360.913 318.172C359.942 317.743 358.572 317.172 356.974 316.543C356.46 314.886 355.946 313.229 355.432 311.543C354.462 308.314 353.491 305.114 352.549 301.914L335.366 289.429L324.977 304.167ZM401.52 325.552C401.687 325.473 401.875 325.429 402.073 325.429H447.43C447.562 325.429 447.689 325.448 447.808 325.485C447.855 325.383 447.891 325.275 447.915 325.162V325.133C447.915 324.99 447.944 324.848 447.915 324.705C447.887 324.533 447.887 324.39 447.829 324.219C447.458 322.933 446.459 321.848 445.803 321.248C445.717 321.162 445.66 321.133 445.574 321.076C444.318 320.305 443.034 319.59 441.692 318.99C439.066 317.79 433.243 315.333 431.502 314.448C429.247 313.305 426.136 311.362 422.882 307.876C422.711 307.79 418.511 302.857 418.511 302.857C407.115 306.838 401.417 308.838 401.417 308.857V325.019C401.417 325.208 401.454 325.388 401.52 325.552Z" fill="#474961"/>
<path d="M380.991 279.984C384.963 287.483 389.601 296.715 394.906 307.678C395.861 309.652 398.15 310.586 400.212 309.842L421.469 302.169C421.594 302.124 421.716 302.073 421.837 302.016C423.977 301.01 424.897 298.457 423.892 296.315L403.368 252.585C403.783 252.02 404.191 251.459 404.591 250.904C404.616 250.852 404.654 250.839 404.679 250.788C409.148 244.546 407.92 236.064 401.913 232.051C399.924 230.73 397.934 229.409 395.945 228.088C393.384 226.397 390.381 225.793 387.46 226.19C386 225.276 384.313 224.524 382.397 224.113C380.457 223.705 378.642 223.725 376.974 223.988L310.291 223.647C308.122 247.486 311.979 260.115 321.862 261.535C328.872 262.541 339.177 262.815 352.778 262.356C346.585 270.031 340.401 277.877 334.378 285.758C333.949 286.311 333.018 287.637 333.021 289.323C333.038 292.414 336.291 293.875 343.478 298.591C351.923 304.176 355.102 307.222 358.365 305.732C359.445 305.274 360.089 304.54 360.353 304.192C363.903 299.392 372.046 290.313 380.991 279.984Z" fill="#A339FF"/>
<path opacity="0.176986" d="M380.935 280.194C378.361 275.331 376.065 271.192 374.048 267.777C372.729 265.544 371.48 263.439 370.342 261.534C364.007 261.94 358.175 262.234 352.847 262.416C346.636 270.114 340.432 277.983 334.39 285.888C333.962 286.442 333.031 287.767 333.034 289.453C333.05 292.544 336.304 294.005 343.49 298.722C351.935 304.307 355.114 307.353 358.378 305.863C359.458 305.405 360.101 304.67 360.366 304.322C363.907 299.535 372.017 290.49 380.935 280.194V280.194ZM403.311 252.81C403.75 252.213 404.181 251.621 404.603 251.034C404.628 250.983 404.667 250.969 404.692 250.918C409.16 244.677 407.932 236.195 401.926 232.181C399.936 230.86 397.947 229.54 395.958 228.219C393.386 226.521 390.369 225.918 387.437 226.325C391.708 229.042 394.018 233.127 394.479 233.991L403.311 252.81Z" fill="#444444"/>
<path d="M361.502 206.333C364.073 206.059 367.744 205.689 372.513 205.22C373.653 205.079 374.735 203.886 374.661 202.644C374.893 199.629 372.887 193.664 372.45 192.401C371.451 189.572 369.653 184.115 368.996 181.601C367.169 174.486 364.914 171.829 364.144 171.058C363.259 170.143 362.402 169.515 361.831 169.115C357.978 166.458 353.896 166.058 351.812 166.001C351.755 165.972 351.698 165.972 351.641 165.972L346.974 165.906C344.546 165.34 342.16 165.158 340.214 165.012C337.366 164.813 334.425 164.603 331.524 164.974L323.582 165.086C323.525 165.086 323.468 165.086 323.411 165.115C321.327 165.172 317.246 165.572 313.392 168.229C312.821 168.629 311.965 169.258 311.08 170.172C310.309 170.943 308.054 173.601 306.228 180.715C305.571 183.229 303.773 188.686 302.774 191.515C302.464 192.411 301.801 195.303 300.786 200.191C300.701 200.322 300.642 200.465 300.612 200.617C300.592 200.747 300.595 200.875 300.619 200.999C300.564 201.263 300.509 201.532 300.453 201.806C300.687 201.81 300.919 201.815 301.151 201.82C301.475 202.08 301.919 202.263 302.426 202.314L310.169 203.135C308.919 210.87 308.772 217.358 309.472 221.414C309.472 221.503 309.504 221.623 309.536 221.713C309.694 222.641 358.976 223.749 359.324 223.419C362.494 220.575 361.796 213.78 361.796 213.78C361.697 211.117 361.599 208.639 361.502 206.333Z" fill="url(#paint0_linear)"/>
<path d="M342.564 172.269L337.863 169.458L334.663 172.832L334.666 172.862C334.747 173.536 335.209 174.072 335.811 174.279L336.243 203.659C336.244 203.74 336.279 203.817 336.34 203.87L340.815 207.78C340.932 207.882 341.11 207.871 341.215 207.755L345.269 203.246C345.324 203.184 345.35 203.101 345.339 203.018L341.487 173.689C342.08 173.456 342.499 172.906 342.564 172.269Z" fill="#F3019E"/>
<path opacity="0.176986" d="M337.357 164.597C338.987 164.888 345 164.956 345.172 166.917C345.286 168.225 345.224 170.492 344.987 173.718L337.862 169.458L332.626 174.978C329.561 170.079 329.071 167.019 331.157 165.801C334.285 163.974 335.726 164.307 337.357 164.597Z" fill="#8C2A00"/>
<path d="M331.794 158.448L333.194 167.252C333.232 167.449 333.355 167.628 333.539 167.68C334.355 167.987 335.49 168.29 336.833 168.32C339.262 168.4 341.175 167.62 342.231 167.066C342.444 166.966 342.568 166.709 342.525 166.485L341.678 161.547C343.262 161.81 343.168 161.771 343.322 161.791C345.174 161.896 346.677 161.546 346.946 161.435C347.938 161.155 348.84 160.106 349.514 158.49C350.433 156.332 351.004 153.136 350.929 149.454C350.943 148.928 350.873 148.417 350.803 147.907L349.94 142.865C349.751 141.737 349.258 140.698 348.524 139.764C348.213 139.359 347.918 139.038 347.578 138.784C345.465 136.941 342.865 136.665 340.846 136.829C339.768 136.899 338.811 137.092 338.137 137.301C337.89 137.378 337.015 137.665 335.743 137.999C335.053 138.192 334.493 138.301 334.162 138.394C330.02 139.375 328.269 139.192 326.385 140.722C326.031 140.995 325.232 141.674 324.638 142.809C322.964 146.016 324.193 149.502 324.541 150.541C325.666 153.64 327.896 155.243 328.615 155.948C329.474 156.804 330.835 157.791 331.794 158.448ZM373.107 216.851L371.527 205.307L364.396 205.995L361.378 206.328L361.561 212.895C360.392 212.717 359.338 212.656 358.4 212.71C351.515 211.081 331.505 206.431 320.163 204.695L320.223 204.123L302.227 202.215C301.721 202.164 301.276 201.982 300.953 201.721C300.852 201.719 300.752 201.717 300.652 201.715C299.554 210.267 300.436 220.966 310.665 223.96H356.769C356.765 223.974 356.761 223.987 356.756 224.001H377.908C378.025 221.213 376.424 218.83 373.107 216.851Z" fill="#DB9E75"/>
<path opacity="0.2" d="M373.113 216.891L371.528 205.307L361.379 206.286L361.576 212.878C364.672 213.39 366.906 213.885 368.278 214.362C369.65 214.839 371.261 215.682 373.113 216.891Z" fill="#8C2A00"/>
<path d="M319.541 204.183C319.493 204.415 319.641 204.642 319.872 204.691C320.104 204.739 320.331 204.591 320.379 204.359C320.829 202.211 322.596 195.054 324.256 188.477C324.314 188.247 324.175 188.014 323.945 187.956C323.716 187.898 323.483 188.037 323.426 188.267C321.76 194.863 319.995 202.017 319.541 204.183ZM361.042 205.993C361.079 206.227 361.299 206.386 361.533 206.348C361.766 206.31 361.925 206.09 361.887 205.857C361.538 203.69 360.625 196.374 359.82 189.639C359.792 189.403 359.579 189.236 359.344 189.264C359.109 189.292 358.941 189.505 358.969 189.74C359.777 196.496 360.69 203.809 361.042 205.993Z" fill="#482D1F"/>
<path d="M341.743 161.57L337.397 160.584L342.136 164.083L341.743 161.57Z" fill="#482D1F"/>
<path d="M347.814 148.952C347.935 149.423 348.171 150.192 348.506 150.418C349.064 150.746 349.408 149.224 348.875 148.425C348.664 148.088 348.457 148.07 348.238 148.142C347.913 148.263 347.749 148.615 347.814 148.952ZM342.782 149.843C342.847 150.326 342.999 151.111 343.345 151.393C343.858 151.788 344.381 150.289 343.926 149.446C343.743 149.103 343.531 149.057 343.307 149.101C342.971 149.166 342.745 149.501 342.782 149.843Z" fill="#482D1F"/>
<path d="M346.202 155.174C345.995 155.156 345.492 155.109 345.348 154.817C345.337 154.761 345.292 154.682 345.309 154.62C345.383 154.402 345.741 154.449 346.251 154.379C347.159 154.261 347.871 154.035 347.871 154.035C347.871 154.035 347.784 154.634 347.676 154.829C347.45 155.31 346.499 155.204 346.202 155.174Z" fill="#482D1F"/>
<path d="M347.012 149.166L347.001 149.128L347.008 149.147L347.012 149.166ZM348.004 152.047C348.119 152.353 347.934 152.711 347.625 152.827C347.556 152.847 347.556 152.847 347.512 152.859C347.046 152.988 346.753 153.059 346.245 153.157C346.091 153.187 345.941 153.086 345.911 152.931C345.881 152.777 345.982 152.627 346.137 152.596C346.628 152.501 346.907 152.433 347.36 152.308L347.449 152.284C347.45 152.282 347.469 152.245 347.467 152.24L346.461 149.314L346.451 149.275L346.13 147.621C346.1 147.466 346.201 147.316 346.356 147.286C346.51 147.255 346.66 147.357 346.69 147.512L347.008 149.147L348.004 152.047Z" fill="#482D1F"/>
<path d="M329.143 150.301C329.174 151.148 329.495 152.014 330.008 152.661C330.637 153.479 331.37 153.85 332.268 154.07C332.421 154.108 332.515 154.262 332.477 154.416C332.44 154.569 332.285 154.663 332.132 154.625C331.737 154.528 331.419 154.423 331.036 154.229C330.472 153.945 329.969 153.547 329.558 153.013C328.973 152.274 328.608 151.291 328.572 150.322C328.566 150.165 328.689 150.032 328.847 150.026C329.004 150.02 329.137 150.144 329.143 150.301Z" fill="#482D1F"/>
<path d="M329.129 150.204C329.13 149.685 329.234 149.158 329.467 148.651C330.118 147.214 331.663 146.186 333.095 146.373C333.901 146.478 334.52 146.969 334.587 147.014C334.854 147.243 335.074 147.486 335.253 147.716L350.107 143.699C349.78 140.472 348.147 138.333 345.207 137.281C344.413 136.997 342.273 136.579 340.409 136.821C337.532 137.195 334.766 137.987 333.989 138.197C333.356 138.378 332.275 138.487 331.983 138.573C328.81 138.876 326.405 140.285 325.582 141.021C325.273 141.285 324.553 141.949 324.049 143.065C322.47 146.458 323.693 149.975 324.104 150.768C324.392 151.323 324.791 151.653 324.791 151.653C325.978 151.36 327.424 150.877 329.129 150.204ZM349.614 146.536C349.884 146.425 349.897 146.044 349.663 145.886C349.367 145.71 348.875 145.573 348.315 145.682C347.166 145.906 346.08 146.903 347.434 146.989C348.234 147.066 349.109 146.779 349.614 146.536ZM343.88 147.855C344.15 147.744 344.163 147.363 343.901 147.211C343.605 147.035 343.113 146.898 342.525 147.013C341.376 147.236 340.295 148.261 341.644 148.319C342.506 148.413 343.342 148.076 343.88 147.855Z" fill="#482D1F"/>
<path d="M466.015 266.471H443.811C443.137 266.471 442.548 265.91 442.548 265.236V265.095C442.548 264.422 443.137 263.86 443.867 263.86H464.443C476.906 263.86 489.369 263.86 501.804 263.86H520.892C521.565 263.86 522.155 264.422 522.155 265.095V265.236C522.155 265.91 521.593 266.471 520.892 266.471H493.804L501.271 280.169C506.576 289.938 511.881 299.678 517.215 309.446L526 325.559C526.309 326.12 526.057 326.85 525.467 327.187L525.355 327.243C524.765 327.552 524.007 327.383 523.727 326.85L490.857 266.471H468.962L436.092 326.85C435.811 327.383 435.053 327.58 434.464 327.243L434.351 327.187C433.762 326.85 433.509 326.12 433.818 325.559L442.604 309.446C447.909 299.678 453.215 289.938 458.548 280.169L466.015 266.471ZM442.632 255.471V239.15C442.632 226.702 442.632 214.283 442.632 201.864V187.032C442.632 184.707 444.517 182.822 446.843 182.822H492.653C494.979 182.822 496.864 184.707 496.864 187.032V255.519C496.864 257.845 494.979 259.73 492.653 259.73C492.652 259.73 492.65 259.73 492.649 259.73L446.838 259.681C444.514 259.679 442.632 257.795 442.632 255.471Z" fill="#D8DEED"/>
<path d="M679.778 265.295V265.347C679.778 266.021 679.188 266.583 678.515 266.583H657.321L664.788 280.281C670.122 290.049 675.427 299.79 680.732 309.558L689.518 325.67C689.827 326.232 689.574 326.961 688.985 327.298L688.872 327.354C688.283 327.691 687.525 327.495 687.244 326.961L654.374 266.583H632.479L599.609 326.961C599.329 327.495 598.571 327.663 597.981 327.354L597.869 327.298C597.279 326.961 597.027 326.232 597.336 325.67L606.122 309.558C611.455 299.79 616.76 290.049 622.065 280.281L629.533 266.583H601.434C600.732 266.583 600.171 266.021 600.171 265.347V265.207C600.171 264.533 600.76 263.972 601.434 263.972H620.522C632.957 263.972 645.42 263.972 657.883 263.972H677.299L679.665 244.828C681.293 231.804 682.893 218.751 684.522 205.698L687.188 184.14C687.272 183.383 687.918 182.821 688.62 182.905L688.76 182.933C689.434 183.018 689.911 183.719 689.827 184.421L679.806 265.151C679.798 265.2 679.789 265.248 679.778 265.295Z" fill="#D8DEED"/>
<path d="M679.776 265.295V265.347C679.776 266.021 679.186 266.583 678.513 266.583H657.319L664.786 280.281C670.12 290.049 675.425 299.79 680.73 309.558L689.516 325.67C689.825 326.232 689.572 326.961 688.983 327.298L688.87 327.354C688.281 327.691 687.523 327.495 687.242 326.961L654.372 266.583H632.478L599.607 326.961C599.327 327.495 598.569 327.663 597.979 327.354L597.867 327.298C597.278 326.961 597.025 326.232 597.334 325.67L606.12 309.558C611.453 299.79 616.758 290.049 622.063 280.281L629.531 266.583H601.432C600.73 266.583 600.169 266.021 600.169 265.347V265.207C600.169 264.533 600.758 263.972 601.432 263.972H620.52C632.955 263.972 645.418 263.972 657.881 263.972H677.297L679.663 244.828C681.292 231.804 682.892 218.751 684.52 205.698L687.186 184.14C687.27 183.383 687.916 182.821 688.618 182.905L688.758 182.933C689.432 183.018 689.909 183.719 689.825 184.421L679.804 265.151C679.797 265.2 679.787 265.248 679.776 265.295Z" fill="#D8DEED"/>
<path d="M514.091 327.439H469.488C468.786 327.439 468.225 326.878 468.225 326.176C468.225 325.474 468.786 324.913 469.488 324.913H514.091C514.793 324.913 515.355 325.474 515.355 326.176C515.355 326.878 514.793 327.439 514.091 327.439ZM432.351 327.439C431.649 327.439 431.088 326.953 431.088 326.37V325.981C431.088 325.398 431.677 324.913 432.351 324.913H461.123C461.825 324.913 462.386 325.398 462.386 325.981V326.37C462.386 326.953 461.797 327.439 461.123 327.439H432.351Z" fill="#A20ED3"/>
<path d="M514.533 324.991C514.396 324.94 514.247 324.913 514.092 324.913H469.488C469.285 324.913 469.093 324.96 468.924 325.044C468.889 324.922 468.87 324.794 468.87 324.66L469.853 309.137C469.797 308.295 470.442 307.65 471.256 307.622L489.137 307.509C489.446 307.509 489.727 307.593 489.979 307.79C493.179 311.215 496.239 313.123 498.456 314.246C500.169 315.116 505.895 317.53 508.477 318.709C509.797 319.299 511.06 320.001 512.295 320.758C512.379 320.815 512.435 320.843 512.52 320.927C513.165 321.516 514.148 322.583 514.513 323.846C514.569 324.015 514.569 324.155 514.597 324.323C514.625 324.464 514.597 324.604 514.597 324.744V324.772C514.581 324.848 514.56 324.921 514.533 324.991ZM461.285 324.922C461.232 324.916 461.178 324.913 461.123 324.913H432.351C432.35 324.913 432.349 324.913 432.348 324.913L438.863 307.537L458.962 310.26L461.285 324.922Z" fill="#474961"/>
<path d="M468.43 259.093C467.459 259.798 466.613 260.411 465.891 260.932L465.53 266.892C465.362 270.044 465.165 272.812 464.94 275.251C464.772 277.17 462.611 298.904 461.825 306.879C461.656 308.688 460.449 310.223 458.793 310.716C456.295 311.484 437.544 310.607 436.842 310.278C435.944 309.867 435.467 309.675 434.99 309.209C433.305 307.619 433.418 305.098 433.39 304.166C433.221 297.122 432.716 275.937 432.716 261.109C432.716 261.06 432.716 261.012 432.716 260.963C430.865 259.375 429.229 256.985 427.948 254.018C426.001 249.536 424.812 243.707 424.779 237.379C424.779 237.301 424.779 233.493 424.779 225.955C424.779 225.925 424.779 225.925 424.779 225.896C424.812 223.816 426.793 222.176 429.137 222.176H455.049C458.647 222.293 462.212 222.41 465.81 222.527C471.41 222.675 479.378 222.893 489.713 223.18C493.754 223.292 497.404 225.622 499.207 229.24C500.066 230.964 500.588 232.381 500.773 233.491C501.884 235.454 502.499 237.748 502.442 240.19C502.442 240.245 502.442 240.272 502.442 240.327C501.993 262.833 496.744 294.894 496.379 305.737C496.351 306.147 496.239 307.051 495.649 308.009C493.825 310.939 489.558 310.282 479.593 310.528C471.116 310.747 467.691 311.404 465.951 308.995C464.997 307.681 465.025 306.175 465.053 305.49C465.84 289.905 467.035 274.153 468.43 259.093Z" fill="#474BFF"/>
<path opacity="0.176986" d="M468.42 259.197C467.447 259.903 466.602 260.515 465.884 261.033L466.961 243.24C466.989 242.006 467.13 234.551 461.544 229.81C457.474 226.384 452.533 226.165 449.249 226.028C444.196 225.809 440.266 227.234 439.509 227.508C438.554 227.864 438.077 228.056 437.6 228.303C432.154 231.153 432.575 244.857 432.631 247.351C432.687 250.454 432.715 255.258 432.716 260.847C430.919 259.26 429.331 256.914 428.081 254.019C426.133 249.537 424.945 243.707 424.912 237.379C424.912 237.301 424.912 233.493 424.912 225.955C424.912 225.925 424.912 225.925 424.912 225.896C424.945 223.816 426.926 222.176 429.269 222.176H455.182C458.78 222.293 462.345 222.41 465.943 222.527C471.543 222.675 479.511 222.893 489.845 223.18C493.887 223.292 497.537 225.622 499.34 229.24C500.286 231.138 500.823 232.664 500.952 233.818C498.813 229.77 494.597 227.037 489.754 227.13C487.396 227.185 485.066 227.24 482.709 227.294C476.393 227.459 471.144 232.36 470.47 238.766C469.757 245.371 469.067 252.209 468.42 259.197Z" fill="#444444"/>
<path d="M461.312 164.063C463.508 164.103 466.964 164.519 470.378 166.503C470.967 166.839 471.836 167.399 472.788 168.211C473.601 168.911 475.983 171.235 478.253 177.788C479.066 180.084 481.448 184.564 482.821 187.029C483.269 187.841 482.737 188.849 481.784 188.933C478.78 189.148 475.076 190.381 471.575 190.388C471.863 195.626 472.067 201.874 472.144 208.842C472.144 208.842 472.592 217.136 470.014 219.824C469.568 220.297 461.196 219.805 452.303 220.087C442.767 220.39 432.608 221.373 430.244 218.895C426.422 214.888 428.607 213.803 432.115 190.976C431.566 191.033 431.054 191.083 430.599 191.125C427.055 191.461 419.634 191.237 416.063 191.097C415.114 191.068 414.5 190.002 414.891 189.104C416.063 186.381 418.127 181.47 418.741 178.972C420.499 171.843 422.703 169.233 423.456 168.447C424.321 167.549 425.189 166.938 425.716 166.51C427.482 165.078 433.053 164.044 442.428 163.41C446.469 162.033 451.082 162.429 454.069 162.695C456.157 162.884 458.79 163.119 461.312 164.063Z" fill="#A20ED3"/>
<path opacity="0.176986" d="M461.404 164.07C463.611 164.143 466.92 164.607 470.191 166.509C470.781 166.846 471.651 167.407 472.605 168.221C473.419 168.923 475.805 171.253 478.079 177.821C478.893 180.123 481.447 184.553 482.823 187.024C483.272 187.838 482.738 188.848 481.784 188.932C480.907 188.995 479.919 189.178 478.98 189.333C478.608 189.395 477.581 189.514 477.124 189.611C474.912 190.077 473.623 190.387 471.56 190.387C471.55 190.387 471.539 190.387 471.529 190.387C471.084 182.31 470.438 176.63 469.741 174.402C469.264 172.886 468.572 171.146 468.572 171.146C468.235 170.163 467.692 169.153 466.597 167.777C465.122 165.944 463.298 164.803 461.404 164.07ZM454.797 167.063C454.292 170.039 453.365 170.917 453.365 170.917C451.232 169.682 443.625 165.828 444.327 163.723C444.383 163.583 444.495 163.302 445.225 162.853C447.976 161.169 451.344 161.983 452.523 162.319C452.523 162.319 457.941 161.702 458.979 164.874C460.018 168.046 458.783 170.291 458.783 170.291C457.885 169.749 456.556 168.673 454.797 167.063Z" fill="#444444"/>
<path d="M472.109 213.012L471.561 190.388L478.998 189.334L481.271 217.076C481.466 217.177 481.655 217.277 481.839 217.376C483.447 218.238 484.78 219.807 485.838 222.084C485.891 222.199 485.918 222.324 485.916 222.451C485.91 222.916 485.527 223.287 485.062 223.281L425.95 222.425C411.839 219.627 415.677 200.486 418.44 191.186C422.318 191.307 427.797 191.404 430.696 191.13C433.435 190.881 438.191 190.332 440.988 189.914L435.973 204.941C449.442 205.609 462.668 209.361 472.109 213.012ZM456.366 160.493L456.239 165.671C450.87 167.651 447.061 164.604 447.061 164.604C447.061 164.604 447.262 160.745 447.665 153.027C447.6 152.887 447.537 152.74 447.475 152.583C446.97 151.32 445.151 147.173 445.544 145.741C445.616 145.439 444.117 140.94 446.313 138.671C448.399 136.515 454.182 136.576 454.415 136.59C455.397 136.618 456.38 136.59 457.446 136.365C457.559 136.365 457.671 136.337 457.783 136.337C458.738 136.253 464.099 136.001 466.85 139.987C467.103 140.323 467.327 140.688 467.524 141.137C467.945 142.176 468.141 143.299 468.057 144.422L467.664 149.418C467.608 149.923 467.524 150.429 467.411 150.906C466.597 154.443 465.278 157.334 463.875 159.158C462.836 160.534 461.713 161.32 460.731 161.348C460.45 161.376 458.934 161.348 457.166 160.815C457.051 160.776 457.08 160.803 456.366 160.493Z" fill="#F2A98A"/>
<path d="M441.693 189.867C441.6 190.08 441.352 190.178 441.139 190.085C440.926 189.992 440.828 189.744 440.921 189.531C441.464 188.281 441.682 187.583 442.103 185.759C442.156 185.532 442.382 185.391 442.608 185.443C442.835 185.495 442.976 185.721 442.924 185.948C442.492 187.819 442.259 188.565 441.693 189.867ZM436.271 204.353C436.502 204.332 436.708 204.502 436.729 204.733C436.751 204.965 436.581 205.17 436.35 205.192C436.295 205.197 436.188 205.209 436.036 205.229C435.781 205.263 435.496 205.309 435.188 205.366C434.311 205.529 433.434 205.757 432.619 206.059C432.138 206.237 431.693 206.437 431.292 206.657C431.088 206.769 430.832 206.695 430.72 206.491C430.608 206.288 430.682 206.031 430.886 205.919C431.326 205.678 431.808 205.462 432.326 205.27C433.191 204.949 434.112 204.71 435.034 204.538C435.356 204.478 435.655 204.431 435.925 204.395C436.019 204.382 436.104 204.372 436.177 204.363C436.222 204.358 436.253 204.355 436.271 204.353Z" fill="#482D1F"/>
<path opacity="0.2" d="M481.222 217.104C478.906 215.893 475.778 214.469 472.059 213.027L471.51 190.387L478.947 189.333L481.222 217.104Z" fill="#8C2A00"/>
<path d="M456.374 160.501L456.295 163.369L452.42 158.718C452.475 158.745 452.532 158.773 452.59 158.801C453.152 159.082 453.853 159.391 454.752 159.784C455.538 160.135 456.044 160.357 456.374 160.501Z" fill="#482D1F"/>
<path d="M453.26 147.151L453.235 146.611C453.235 146.611 453.123 145.6 452.421 144.59C452.365 144.534 451.888 143.916 451.158 143.607C449.838 143.102 448.098 143.692 447.144 144.899C446.133 146.134 446.133 147.79 446.667 149.053C447.2 150.316 448.238 150.906 448.603 151.074L450.231 151.579L450.238 151.576C448.816 153.662 447.577 155.481 447.577 155.481C447.577 155.481 445.235 153.32 444.196 151.607C443.691 150.765 441.895 148.716 441.586 145.488C441.502 144.421 441.165 140.8 443.579 138.134C444.421 137.207 445.375 136.758 445.768 136.562C447.986 135.579 449.614 136.169 453.881 136.253C454.217 136.253 454.779 136.281 455.509 136.253C456.828 136.225 457.754 136.169 458.007 136.169C460.112 136.085 464.688 136.73 466.709 139.846C466.821 140.071 466.961 140.267 467.074 140.435C466.484 140.632 465.838 140.997 465.053 141.137C462.919 141.474 461.095 141.053 460 140.66C457.867 142.681 455.705 144.674 453.572 146.695C453.474 146.838 453.37 146.99 453.26 147.151Z" fill="#DE6903"/>
<path d="M466.042 150.296C466.126 149.959 466.463 149.706 466.8 149.762C467.025 149.79 467.193 149.959 467.277 150.352C467.362 151.334 466.295 152.569 465.986 151.98C465.79 151.587 465.958 150.773 466.042 150.296ZM460.112 149.53C460.196 149.193 460.533 148.94 460.87 148.997C461.095 149.025 461.263 149.193 461.347 149.586C461.431 150.569 460.365 151.804 460.056 151.214C459.831 150.821 460 150.007 460.112 149.53Z" fill="#482D1F"/>
<path d="M464.128 150.488L464.156 153.295C464.156 153.305 464.113 153.348 464.1 153.348C463.946 153.348 463.789 153.338 463.544 153.314C463.497 153.31 463.447 153.305 463.375 153.297C463.285 153.288 463.235 153.283 463.188 153.278C463.026 153.262 462.892 153.249 462.748 153.237C462.594 153.223 462.458 153.338 462.444 153.492C462.431 153.647 462.545 153.783 462.7 153.796C462.84 153.808 462.972 153.821 463.132 153.837C463.179 153.842 463.228 153.847 463.318 153.856C463.391 153.863 463.441 153.868 463.49 153.873C463.751 153.898 463.924 153.909 464.1 153.909C464.423 153.909 464.717 153.615 464.717 153.292L464.689 150.482C464.687 150.327 464.561 150.203 464.405 150.204C464.25 150.206 464.126 150.333 464.128 150.488Z" fill="#482D1F"/>
<path d="M462.162 155.397C461.965 155.313 461.488 155.088 461.46 154.808C461.46 154.751 461.432 154.667 461.488 154.639C461.629 154.499 461.965 154.639 462.471 154.78C463.369 155.004 464.099 155.06 464.099 155.06C464.099 155.06 463.818 155.509 463.65 155.622C463.313 155.93 462.443 155.537 462.162 155.397Z" fill="#482D1F"/>
<path d="M463.408 150.795C462.961 152.506 461.404 153.769 459.552 153.769C457.351 153.769 455.566 151.984 455.566 149.783C455.566 149.295 455.654 148.827 455.814 148.395L453.589 147.437C453.367 147.368 453.243 147.132 453.312 146.91C453.381 146.688 453.617 146.563 453.839 146.633L456.188 147.644C456.895 146.534 458.138 145.797 459.552 145.797C461.753 145.797 463.538 147.581 463.538 149.783C463.538 149.843 463.537 149.902 463.534 149.961L464.41 150.052C464.79 148.247 466.392 146.892 468.31 146.892C470.511 146.892 472.296 148.676 472.296 150.878C472.296 153.079 470.511 154.864 468.31 154.864C466.113 154.864 464.33 153.085 464.324 150.89L463.408 150.795ZM456.702 148.455C456.513 148.858 456.408 149.308 456.408 149.783C456.408 151.519 457.816 152.927 459.552 152.927C461.288 152.927 462.696 151.519 462.696 149.783C462.696 148.047 461.288 146.639 459.552 146.639C458.36 146.639 457.323 147.303 456.79 148.28C456.788 148.29 456.785 148.299 456.782 148.308C456.765 148.364 456.737 148.413 456.702 148.455ZM465.175 150.638C465.169 150.717 465.166 150.797 465.166 150.878C465.166 152.614 466.574 154.021 468.31 154.021C470.046 154.021 471.454 152.614 471.454 150.878C471.454 149.141 470.046 147.734 468.31 147.734C466.711 147.734 465.392 148.927 465.192 150.471C465.195 150.499 465.195 150.527 465.192 150.556C465.189 150.584 465.183 150.612 465.175 150.638Z" fill="#482D1F"/>
<path d="M589.601 324.913H628.324C629.026 324.913 629.587 325.474 629.587 326.176C629.587 326.878 629.026 327.439 628.324 327.439H583.72H550.878C550.177 327.439 549.615 326.878 549.615 326.176C549.615 325.474 550.177 324.913 550.878 324.913H589.601Z" fill="#FF645F"/>
<path d="M551.159 324.913H550.878C550.797 324.913 550.717 324.92 550.641 324.935C550.562 324.801 550.503 324.652 550.47 324.492V324.464C550.47 324.323 550.441 324.183 550.47 324.043C550.498 323.874 550.498 323.734 550.554 323.565C550.742 322.914 551.226 322.151 552.008 321.276C552.451 320.78 552.972 320.358 553.55 320.027C554.839 319.291 555.852 318.758 556.589 318.429C559.171 317.25 564.898 314.836 566.61 313.965C568.827 312.843 571.887 310.934 575.087 307.509C575.34 307.313 575.62 307.229 575.929 307.229L592.029 307.341C592.843 307.341 593.489 308.014 593.432 308.857L594.786 316.46C596.211 315.843 597.493 315.25 599.075 314.33C600.394 313.572 602.247 312.337 604.324 310.485C605.475 309.474 606.654 308.464 607.804 307.453L625.18 307.229L628.755 324.94C628.816 324.952 628.876 324.97 628.933 324.991L628.951 325.077C628.772 324.976 628.566 324.917 628.345 324.913C628.338 324.913 628.331 324.913 628.324 324.913H589.601H583.162H551.159Z" fill="#474961"/>
<path opacity="0.176986" d="M589.685 324.913H589.601H550.878C550.797 324.913 550.717 324.92 550.641 324.935C550.562 324.801 550.503 324.652 550.47 324.492V324.464C550.47 324.323 550.441 324.183 550.47 324.043C550.498 323.874 550.498 323.734 550.554 323.565C550.742 322.914 551.226 322.151 552.008 321.276C552.451 320.78 552.972 320.358 553.55 320.027C554.839 319.291 555.852 318.758 556.589 318.429C559.171 317.25 564.898 314.836 566.61 313.965C568.827 312.843 571.887 310.934 575.087 307.509C575.34 307.313 575.62 307.229 575.929 307.229L592.029 307.341C592.843 307.341 593.489 308.014 593.432 308.857L594.798 316.527C593.305 317.17 591.64 317.851 589.306 318.962C587.959 319.607 586.668 320.337 585.404 321.151C584.787 321.713 583.72 322.864 583.383 324.211C583.327 324.436 583.327 324.66 583.299 324.857C583.299 324.876 583.31 324.894 583.33 324.913H589.769H589.685ZM628.951 325.077C628.772 324.976 628.566 324.917 628.345 324.913L628.492 324.913C628.648 324.913 628.796 324.94 628.933 324.991L628.951 325.077Z" fill="#474961"/>
<path d="M588.524 223.065C589.007 222.988 589.465 222.963 589.896 222.99L641.237 222.793L664.76 222.737C665.714 222.793 669.74 224.025 670.666 225.08C671.565 225.557 677.307 231.495 676.353 242.527C676.184 244.379 675.819 248.506 673.461 252.436C670.991 256.534 666.837 259.537 661.756 261.25C657.265 262.765 652.016 263.299 646.57 262.709C635.061 260.632 623.581 258.583 612.072 256.506V256.927L612.128 257.123C612.128 257.123 613.531 259.762 614.738 262.485C615.946 265.179 617.63 277.923 617.63 278.007C620.381 282.386 623.16 288.309 625.293 295.776C626.135 298.779 626.584 301.137 626.753 302.036C627.092 303.962 627.361 306.288 627.56 309.014C627.563 309.055 627.565 309.096 627.565 309.137C627.565 310.067 626.811 310.821 625.881 310.821C625.608 310.821 625.393 310.821 625.237 310.821L600.282 310.793L592.608 310.755C592.351 310.823 592.083 310.859 591.806 310.859L571.315 310.775H569.659C568.031 310.775 566.655 309.484 566.571 307.856C566.374 304.572 566.122 300.249 565.813 295.252C564.971 282.649 564.522 278.635 564.017 268.922C563.932 267.294 563.848 265.835 563.792 264.459C563.567 257.919 562.978 251.8 561.827 243.8C561.181 239.365 560.873 236.614 560.845 234.284C560.817 232.122 561.462 229.989 562.697 228.221C563.315 227.351 564.017 226.593 564.859 225.947C567.02 224.291 568.568 223.164 573.991 223.084C578.282 223.02 583.246 223.04 588.524 223.065Z" fill="#6CEDCA"/>
<path opacity="0.176986" d="M588.675 223.042C588.605 223.052 588.535 223.062 588.465 223.074C586.5 223.411 584.282 224.562 582.57 225.881C581.728 226.527 580.998 227.285 580.409 228.155C579.174 229.895 578.528 231.972 578.528 234.106V234.246C578.556 236.576 578.865 239.327 579.482 243.762C580.633 251.762 581.223 257.853 581.447 264.422C581.503 265.769 581.588 267.257 581.672 268.885C582.149 278.569 582.626 282.583 583.468 295.215C583.805 300.211 584.058 304.506 584.226 307.818C584.31 309.446 585.686 310.737 587.314 310.737H588.97L592.517 310.755C592.288 310.808 592.05 310.836 591.806 310.836L571.315 310.752H569.659C568.031 310.752 566.655 309.461 566.571 307.833C566.374 304.549 566.122 300.226 565.813 295.229C564.971 282.626 564.522 278.612 564.017 268.899C563.932 267.271 563.848 265.812 563.792 264.436C563.567 257.896 562.978 251.777 561.827 243.777C561.181 239.342 560.873 236.591 560.845 234.261C560.817 232.099 561.462 229.966 562.697 228.198C563.315 227.328 564.017 226.57 564.859 225.924C567.02 224.268 568.568 223.141 573.991 223.061C578.323 222.997 583.34 223.017 588.675 223.042L588.675 223.042Z" fill="#444444"/>
<path d="M611.931 255.881C611.583 255.539 611.22 255.18 610.84 254.805C610.738 254.704 610.738 254.704 610.635 254.602C609.566 253.542 608.69 252.669 606.994 250.972C606.774 250.753 606.419 250.753 606.2 250.972C605.98 251.191 605.98 251.547 606.2 251.766C607.898 253.464 608.774 254.338 609.845 255.399C609.948 255.501 609.948 255.501 610.051 255.603C610.43 255.979 610.794 256.338 611.143 256.682C611.364 256.899 611.72 256.896 611.937 256.675C612.155 256.454 612.152 256.098 611.931 255.881Z" fill="#482D1F"/>
<path d="M648.782 164.817C650.435 164.256 652.236 163.992 654.106 164.091C661.545 164.456 667.271 170.379 666.906 177.312C666.727 180.702 665.114 183.706 662.642 185.84L668.858 208.562C669.812 212.155 669.475 215.804 668.072 218.948C667.875 219.397 667.651 219.846 667.426 220.267C667.173 220.716 666.893 221.166 666.612 221.587C666.303 222.036 665.966 222.485 665.602 222.906H635.033C634.78 222.485 634.528 222.064 634.303 221.587C634.079 221.166 633.882 220.716 633.714 220.267C633.545 219.846 633.405 219.397 633.265 218.948C633.237 218.864 633.209 218.78 633.18 218.695L625.234 190.995L619.434 191.634C618.929 191.69 618.452 191.353 618.396 190.876L618.143 188.911C618.133 188.823 618.137 188.737 618.153 188.655C617.2 188.076 616.327 187.381 615.589 186.581C614.522 185.43 613.708 184.083 613.231 182.539C611.322 176.42 615.561 169.879 622.691 167.97C625.56 167.202 628.466 167.293 631.039 168.076C632.13 167.318 633.325 166.734 634.612 166.373L640.759 164.548C643.59 164.128 646.312 164.226 648.782 164.817Z" fill="#FF645F"/>
<path opacity="0.176986" d="M625.191 190.999L619.434 191.633C618.929 191.689 618.452 191.353 618.396 190.875L618.143 188.911C618.133 188.823 618.137 188.737 618.153 188.654C617.2 188.075 616.327 187.38 615.589 186.581C614.522 185.43 613.708 184.082 613.231 182.539C611.322 176.419 615.561 169.879 622.691 167.97C625.576 167.198 628.499 167.294 631.082 168.088C625.274 172.069 622.393 180.992 624.312 187.935L625.191 190.999Z" fill="#444444"/>
<path d="M620.323 169.207C620.323 169.207 619.79 171.341 622.625 170.751C625.46 170.162 626.274 169.881 626.274 169.881L625.544 167.944L620.323 169.207Z" fill="#482D1F"/>
<path d="M630.099 163.635C630.006 163.659 629.915 163.683 629.824 163.705L630.112 163.663L630.099 163.635ZM637.612 159.106L638.318 158.822L641.714 164.688L636.115 166.442L641.602 192.506C641.602 192.506 642.068 190.625 642.665 187.233C642.694 187.242 642.723 187.25 642.753 187.257L658.275 190.709C658.341 190.724 658.406 190.731 658.471 190.732C657.928 192.9 657.349 195.507 656.732 198.204C655.132 205.165 654.879 208.393 652.325 212.997C649.405 218.246 646.711 218.386 645.644 218.779C643.258 219.706 640.872 219.565 639.384 219.2C637.599 218.768 634.33 218.072 631.555 213.027L633.181 218.695C633.209 218.779 633.237 218.864 633.265 218.948C633.405 219.397 633.546 219.846 633.714 220.267C633.882 220.716 634.079 221.165 634.304 221.586C634.528 222.064 634.781 222.485 635.033 222.906H638.629L592.041 222.965C591.91 222.965 591.79 222.92 591.695 222.846C583.968 218.177 580.141 214.613 580.214 212.153C582.551 211.798 585.887 211.309 590.221 210.689C592.914 210.303 595.649 210.311 598.34 210.712L606.8 211.973C613.13 209.944 621.577 207.28 623.686 206.82L620.064 191.564L625.234 190.995L627.664 199.467C626.245 189.435 626.612 178.982 625.328 168.918L622.374 168.983C620.633 169.685 616.984 170.864 616.591 168.365C616.591 168.365 621.419 166.372 624.816 164.913L625.068 164.688C625.293 164.492 625.489 164.379 625.77 164.295C625.826 164.267 625.882 164.267 625.939 164.267L627.286 164.071L627.474 164.043C627.027 164.065 626.715 164.054 626.603 164.043C624.258 163.874 621.522 159.579 620.294 153.376C620.182 152.871 620.155 152.365 620.099 151.86L619.875 146.836C619.82 145.713 620.043 144.59 620.573 143.607C620.797 143.186 621.02 142.793 621.271 142.485C624.146 138.611 629.45 139.032 630.399 139.144C630.511 139.144 630.622 139.172 630.734 139.172C631.795 139.425 632.744 139.509 633.749 139.481C634.196 139.481 634.558 139.846 634.586 140.295L634.726 147.481C634.754 148.155 638.159 146.864 638.159 146.836C639.794 145.6 641.844 152.253 641.007 153.236C640.393 153.909 638.662 154.864 638.159 155.032C637.852 155.144 637.629 155.397 637.573 155.678C637.765 157.099 637.777 158.242 637.612 159.106Z" fill="#DB9E75"/>
<path opacity="0.2" d="M620.062 191.587L625.232 191.018L633.179 218.718C633.207 218.803 633.235 218.887 633.263 218.971C633.403 219.42 633.544 219.869 633.712 220.29C633.881 220.74 634.077 221.189 634.302 221.61C634.526 222.087 634.779 222.508 635.031 222.929H638.627L592.039 222.988C591.908 222.988 591.788 222.944 591.693 222.869C583.966 218.2 580.139 214.636 580.212 212.177C582.549 211.821 585.885 211.333 590.219 210.712C592.912 210.326 595.647 210.334 598.338 210.735L606.798 211.996C613.128 209.968 621.575 207.303 623.684 206.844L620.062 191.587Z" fill="#8C2A00"/>
<path d="M578.942 215.989C581.955 212.281 588.155 209.278 598.535 216.194C600.117 217.213 599.581 220.554 597.84 220.592L579.895 220.894C578.547 220.939 577.938 217.236 578.942 215.989Z" fill="#474961"/>
<path d="M646.235 145.89C649.836 148.254 653.273 151.728 652.661 154.021C652.184 155.874 650.388 156.857 648.563 157.867C647.089 158.675 644.368 159.926 640.45 160.188C640.45 160.191 640.451 160.194 640.451 160.197C639.524 160.337 638.626 160.478 637.7 160.618C637.223 160.674 636.774 160.337 636.746 159.86C636.886 158.85 637.026 157.839 637.167 156.828C637.293 156.324 637.426 155.687 637.506 155.005C637.955 154.897 638.954 154.607 639.721 153.713C640.563 152.73 641.012 151.243 640.451 149.811C639.946 148.436 638.542 147.369 637.195 147.481C636.437 147.537 635.847 147.958 635.763 148.014C635.154 148.476 634.647 149.107 634.371 149.485C633.05 148.972 631 147.878 629.307 145.713C628.914 145.226 628.455 144.506 627.932 143.551C625.136 144.185 622.787 144.026 620.886 143.074C621.301 142.284 621.948 141.569 622.827 140.929C624.146 139.97 624.292 139.854 625.956 139.387C626.998 139.094 628.968 139.001 630.378 139.144H630.43C632.03 139.313 633.349 139.369 634.219 139.369C638.486 139.453 640.142 138.892 642.303 139.958C642.696 140.155 643.623 140.66 644.437 141.614C645.59 142.963 646.063 144.524 646.235 145.89ZM620.808 155.543C621.871 159.334 623.001 160.73 622.857 160.73C622.713 160.73 622.339 160.927 619.448 160.113C618.016 159.72 616.669 159.327 616.051 158.176C615.181 156.548 617.774 153.184 620.076 150.939C620.076 152.601 620.351 153.854 620.808 155.543ZM619.117 149.979C618.837 149.923 618.724 149.586 618.921 149.39C619.174 149.165 619.595 148.885 620.156 148.857C621.307 148.8 622.57 149.474 621.335 149.867C620.549 150.148 619.651 150.064 619.117 149.979ZM624.563 149.979C624.282 149.923 624.17 149.586 624.395 149.39C624.647 149.165 625.068 148.885 625.658 148.857C626.809 148.8 628.072 149.502 626.837 149.867C625.995 150.148 625.124 150.064 624.563 149.979Z" fill="#482D1F"/>
<path d="M621.223 152.141C621.279 152.618 621.335 153.404 621.083 153.741C620.718 154.246 619.848 152.955 620.044 152.056C620.128 151.664 620.325 151.551 620.549 151.551C620.886 151.551 621.167 151.804 621.223 152.141ZM626.22 151.972C626.304 152.449 626.36 153.235 626.079 153.572C625.714 154.078 624.844 152.786 625.041 151.888C625.125 151.495 625.321 151.383 625.546 151.383C625.883 151.383 626.163 151.635 626.22 151.972Z" fill="#482D1F"/>
<path d="M641.28 192.653C641.214 192.43 641.342 192.196 641.565 192.13C641.788 192.064 642.022 192.191 642.088 192.414L644.867 201.818C644.933 202.041 644.805 202.275 644.582 202.341C644.359 202.407 644.125 202.28 644.059 202.057L641.28 192.653ZM660.29 187.814C660.298 187.864 660.296 187.916 660.284 187.967L659.807 190.071C659.645 190.802 658.915 191.255 658.182 191.092C657.955 191.042 657.812 190.817 657.863 190.59C657.913 190.363 658.138 190.22 658.365 190.27C658.648 190.333 658.925 190.161 658.986 189.886L659.396 188.078C659.321 188.038 659.257 187.976 659.216 187.894C659.112 187.686 659.197 187.433 659.405 187.329C660.603 186.73 661.718 185.94 662.668 185.018C662.835 184.856 663.101 184.86 663.263 185.026C663.425 185.193 663.421 185.46 663.255 185.622C662.379 186.473 661.372 187.216 660.29 187.814ZM642.946 184.065C642.944 184.084 642.941 184.103 642.937 184.122L642.46 186.225C642.397 186.508 642.569 186.785 642.842 186.846C643.069 186.896 643.212 187.121 643.162 187.348C643.111 187.575 642.886 187.718 642.659 187.668C641.928 187.505 641.475 186.776 641.638 186.041L642.116 183.935C642.134 183.854 642.175 183.783 642.231 183.729C641.9 183.329 641.65 182.977 641.442 182.621C641.256 182.301 641.099 181.973 640.934 181.563C640.821 181.283 640.751 181.096 640.502 180.411C640.423 180.192 640.536 179.951 640.754 179.871C640.973 179.792 641.214 179.905 641.294 180.123C641.539 180.797 641.607 180.981 641.715 181.248C641.866 181.622 642.005 181.915 642.17 182.196C642.39 182.573 642.667 182.951 643.069 183.416C643.221 183.592 643.202 183.858 643.026 184.01C643.001 184.032 642.974 184.05 642.946 184.065ZM632.052 163.148C631.014 163.626 630.308 164.47 628.688 164.632C627.396 164.941 626.302 164.576 625.74 164.295C625.796 164.267 625.853 164.267 625.909 164.267L627.256 164.071C627.902 164.071 628.939 163.958 630.146 163.622L632.052 163.148Z" fill="#482D1F"/>
<path d="M624.786 157.643C624.983 157.587 625.46 157.418 625.544 157.109C625.544 157.053 625.572 156.969 625.544 156.913C625.432 156.745 625.067 156.829 624.562 156.885C623.663 156.969 622.934 156.885 622.934 156.885C622.934 156.885 623.158 157.446 623.299 157.587C623.607 158.036 624.506 157.755 624.786 157.643Z" fill="#482D1F"/>
<path d="M622.683 152.375L622.684 152.334L622.682 152.354L622.683 152.375ZM622.347 155.337L622.346 155.369C622.346 155.675 622.555 155.959 622.861 156.01C622.917 156.016 622.948 156.018 622.98 156.02C623.277 156.039 623.49 156.042 624.254 156.042C624.41 156.042 624.535 155.917 624.535 155.762C624.535 155.607 624.41 155.481 624.254 155.481C623.503 155.481 623.296 155.478 623.016 155.46C622.987 155.458 622.958 155.456 622.929 155.454C622.935 155.454 622.911 155.421 622.908 155.38L623.242 152.396L623.244 152.356L623.188 150.699C623.182 150.544 623.053 150.423 622.898 150.428C622.743 150.434 622.621 150.563 622.627 150.718L622.682 152.354L622.347 155.337Z" fill="#482D1F"/>
<path d="M533.971 216.001L536.671 205.109H516.407C514.302 205.109 512.561 203.509 512.561 201.572V170.723C512.533 168.758 514.245 167.158 516.379 167.158H578.049C580.154 167.158 581.895 168.758 581.895 170.695V201.572C581.895 203.509 580.154 205.109 578.049 205.109H553.354L552.24 216.001H559.551C560.674 216.001 561.544 216.899 561.544 217.994C561.544 219.117 560.646 219.987 559.551 219.987H528.253C527.13 219.987 526.26 219.089 526.26 217.994C526.204 216.899 527.13 216.001 528.253 216.001H533.971Z" fill="#474961"/>
<path fill-rule="evenodd" clip-rule="evenodd" d="M554.191 197.17L554.274 216.029H552.262L554.191 197.17Z" fill="white"/>
<g clip-path="url(#clip0)">
<path d="M290.232 218.95C289.952 219.445 289.422 219.779 288.814 219.779H248.477C247.579 219.779 246.877 219.049 246.877 218.151C246.877 217.252 247.607 216.522 248.477 216.522H287.712L301.389 179.722C301.698 178.88 302.624 178.459 303.466 178.768C304.309 179.077 304.73 180.003 304.421 180.845L290.358 218.684C290.323 218.778 290.281 218.867 290.232 218.95Z" fill="#474961"/>
</g>
<path d="M670.701 220H251.299C250.029 220 249 220.896 249 222C249 223.105 250.029 224 251.299 224H670.701C671.971 224 673 223.105 673 222C673 220.896 671.971 220 670.701 220Z" fill="#D8DEED"/>
<g clip-path="url(#clip1)">
<path d="M368.405 4.1084H234.622C233.726 4.1084 233 4.83629 233 5.73419V107.888C233 108.786 233.726 109.514 234.622 109.514H368.405C369.301 109.514 370.027 108.786 370.027 107.888V5.73419C370.027 4.83629 369.301 4.1084 368.405 4.1084Z" fill="#F2F6FB"/>
<path d="M340.519 60.7397H348.725C349.93 60.7397 350.367 60.8655 350.807 61.1017C351.248 61.3378 351.593 61.6844 351.829 62.1259C352.064 62.5675 352.19 63.0055 352.19 64.2134V109.513H337.055V64.2134C337.055 63.0055 337.18 62.5675 337.416 62.1259C337.651 61.6844 337.997 61.3378 338.437 61.1017C338.878 60.8655 339.315 60.7397 340.519 60.7397Z" fill="#FF744B"/>
<path d="M323.221 72.3911H331.697C332.901 72.3911 333.338 72.5169 333.779 72.753C334.219 72.9892 334.565 73.3357 334.8 73.7773C335.036 74.2189 335.161 74.6569 335.161 75.8647V109.513H319.756V75.8647C319.756 74.6569 319.881 74.2189 320.117 73.7773C320.352 73.3357 320.698 72.9892 321.139 72.753C321.579 72.5169 322.016 72.3911 323.221 72.3911Z" fill="#F3019E"/>
<path d="M306.193 36.082H314.399C315.604 36.082 316.041 36.2078 316.481 36.4439C316.921 36.6801 317.267 37.0267 317.503 37.4682C317.738 37.9098 317.864 38.3478 317.864 39.5556V109.514H302.729V39.5556C302.729 38.3478 302.854 37.9098 303.09 37.4682C303.325 37.0267 303.671 36.6801 304.111 36.4439C304.552 36.2078 304.988 36.082 306.193 36.082Z" fill="#9111DA"/>
<path d="M288.896 45.5659H297.102C298.307 45.5659 298.744 45.6917 299.184 45.9278C299.625 46.164 299.97 46.5105 300.206 46.9521C300.441 47.3937 300.567 47.8317 300.567 49.0395V109.514H285.432V49.0395C285.432 47.8317 285.557 47.3937 285.793 46.9521C286.028 46.5105 286.374 46.164 286.814 45.9278C287.255 45.6917 287.692 45.5659 288.896 45.5659Z" fill="#6F53FE"/>
<path d="M271.869 67.7852H280.075C281.279 67.7852 281.716 67.9109 282.157 68.1471C282.597 68.3832 282.943 68.7298 283.178 69.1714C283.414 69.6129 283.539 70.0509 283.539 71.2588V109.514H268.404V71.2588C268.404 70.0509 268.53 69.6129 268.765 69.1714C269.001 68.7298 269.346 68.3832 269.787 68.1471C270.227 67.9109 270.664 67.7852 271.869 67.7852Z" fill="#1EBCFF"/>
<path d="M254.572 56.6753H262.778C263.983 56.6753 264.419 56.8011 264.86 57.0372C265.3 57.2734 265.646 57.6199 265.882 58.0615C266.117 58.5031 266.243 58.9411 266.243 60.1489V109.513H251.107V60.1489C251.107 58.9411 251.233 58.5031 251.468 58.0615C251.704 57.6199 252.05 57.2734 252.49 57.0372C252.931 56.8011 253.367 56.6753 254.572 56.6753Z" fill="#45E0DC"/>
</g>
<g clip-path="url(#clip2)">
<path d="M617.594 2.00049H491.378C488.393 2.00049 485.973 4.42679 485.973 7.41979V101.987C485.973 104.98 488.393 107.406 491.378 107.406H617.594C620.58 107.406 623 104.98 623 101.987V7.41979C623 4.42679 620.58 2.00049 617.594 2.00049Z" fill="#F2F6FB"/>
<path d="M507.212 85.7357L527.668 54.613C529.609 51.6581 533.865 51.3536 536.199 54.0017L544.452 63.3401C548.217 67.5938 555.045 66.9416 557.924 62.0598L577.605 28.6411C579.575 25.2933 584.28 25.0629 586.6 28.1893L607.476 56.6598C607.962 57.3229 608.893 57.4653 609.554 56.9778C610.216 56.4903 610.358 55.5575 609.871 54.8943L588.99 26.4171C585.4 21.5794 578.098 21.9371 575.045 27.1261L555.364 60.5436C553.512 63.6837 549.104 64.1049 546.676 61.3625L538.425 52.0266C534.795 47.908 528.203 48.3797 525.185 52.9732L504.73 84.0957C504.278 84.7829 504.468 85.7072 505.153 86.1601C505.839 86.613 506.761 86.4229 507.212 85.7357Z" fill="#E1E5F0"/>
<path d="M515.565 74.8896C518.028 74.8896 520.024 72.8879 520.024 70.4187C520.024 67.9495 518.028 65.9478 515.565 65.9478C513.102 65.9478 511.105 67.9495 511.105 70.4187C511.105 72.8879 513.102 74.8896 515.565 74.8896Z" fill="#3ABF7C"/>
<mask id="mask1" mask-type="alpha" maskUnits="userSpaceOnUse" x="507" y="62" width="16" height="16">
<circle cx="515.285" cy="70.2854" r="7.5" transform="rotate(-16.0898 515.285 70.2854)" fill="black"/>
</mask>
<g mask="url(#mask1)">
<path d="M517.669 86.9051L525.709 86.7506L525.346 68.807L517.083 80.6813L517.669 86.9051Z" fill="#6AEDCB"/>
<path d="M518.022 80.2576C519.002 78.3436 520.857 78.3377 522.149 77.4172C522.972 76.8309 523.534 75.9398 523.828 74.9736C524.292 73.4495 523.975 71.6864 524.819 70.3352C524.984 70.0706 525.193 69.8262 525.285 69.5287C525.357 69.2981 525.353 69.0508 525.349 68.8095L525.171 58.9404C523.35 59.9276 522.318 61.8902 521.403 63.7474C517.525 71.6117 513.849 79.5998 509.236 87.0577L517.672 86.906C518.295 86.8942 517.872 83.9112 517.836 83.6536C517.673 82.4738 517.574 81.3867 518.022 80.2576Z" fill="#30C7FF"/>
<path d="M509.536 87.0607C509.536 87.0607 510.599 85.7994 511.561 85.2378C512.523 84.6762 513.981 83.532 514.662 82.26C515.343 80.9881 515.55 79.8971 515.491 78.296C515.432 76.6949 516.259 75.0481 517.643 74.1057C519.027 73.164 522.126 72.1608 522.157 69.27C522.188 66.3791 521.298 62.4482 525.162 59.1698L524.96 47.5L523.403 47.5298L504.471 85.5148L503.816 87.1666L509.536 87.0607Z" fill="#6C5DFE"/>
<path d="M507.08 87.1074C507.08 87.1074 507.857 85.9232 507.941 83.5612C507.988 82.2322 508.165 80.9026 508.707 79.6762C509.531 77.8117 511.081 76.4685 512.852 75.5306C513.097 75.4008 513.345 75.2885 513.574 75.1319C514.006 74.8358 514.393 74.4797 514.725 74.0756C515.69 72.8988 515.958 71.1767 516.047 69.1146C516.136 67.0524 516.942 64.2479 518.069 62.5959C519.197 60.9437 520.206 59.8086 522.057 57.7989C523.907 55.7891 525.921 53.2904 524.565 47.5079L518.987 47.6141L503.545 72.8721L503.817 87.1689L507.08 87.1074Z" fill="#A20ED3"/>
<path d="M503.594 75.3998C503.594 75.3998 504.45 73.0662 507.212 71.5974C509.974 70.1287 511.666 71.0834 512.783 66.6419C513.901 62.2004 513.229 60.8401 514.856 58.3201C516.484 55.8002 517.918 54.5716 519.689 52.9071C521.46 51.2425 522.389 50.4384 522.334 47.5497L515.04 47.6887L503.473 69.0941L503.594 75.3998Z" fill="#D60A99"/>
<path d="M516.93 47.6536C515.79 48.6335 514.437 49.7464 514.09 51.4695C513.742 53.1926 513.336 55.0887 512.552 56.7346C511.769 58.3804 510.701 58.7001 509.652 60.0082C508.603 61.3162 508.261 63.5966 508.118 65.1441C507.976 66.6916 507.393 67.6044 506.474 68.91C505.555 70.2157 503.509 71.0267 503.509 71.0267L503.371 63.7752L504.376 57.9626L510.407 47.7772L516.93 47.6536Z" fill="#F005C4"/>
<path d="M503.423 66.456C503.422 66.4063 503.587 66.2541 503.617 66.2142C503.793 65.9838 503.953 65.7419 504.095 65.4899C504.669 64.4721 504.562 63.5118 504.457 62.3992C504.384 61.6288 504.135 60.4977 504.497 59.7672C504.855 59.0449 505.158 58.4368 506.857 57.4615C507.912 56.8557 508.96 56.0999 509.601 55.0228C510.344 53.775 510.224 52.3563 510.458 50.9671C510.65 49.8347 511.026 48.5875 511.85 47.7503L503.07 47.9175L503.423 66.456Z" fill="#FF744B"/>
</g>
<circle cx="515.285" cy="70.2858" r="6.765" transform="rotate(-16.0898 515.285 70.2858)" fill="white"/>
<circle cx="513.961" cy="65.6823" r="0.527344" transform="rotate(-16.0898 513.961 65.6823)" fill="#F7931A"/>
<circle cx="516.616" cy="74.8869" r="0.527344" transform="rotate(-16.0898 516.616 74.8869)" fill="#8A92B2"/>
<mask id="mask2" mask-type="alpha" maskUnits="userSpaceOnUse" x="509" y="66" width="12" height="9">
<path d="M519.515 66.9674C518.278 66.1922 516.669 66.4223 515.692 67.4976C515.485 67.7264 515.308 68.0118 515.168 68.3384L514.906 68.9606L514.24 70.571L513.83 71.5352C513.768 71.683 513.688 71.8103 513.609 71.898C513.184 72.3591 512.496 72.4533 511.96 72.1265C511.405 71.7791 511.197 71.0583 511.482 70.4687C511.646 70.1352 511.94 69.8942 512.288 69.7938C512.516 69.7281 512.764 69.7344 513 69.7838C513.125 69.8127 513.248 69.8811 513.379 69.9735L513.61 70.134L514.291 68.5345C514.018 68.3537 513.738 68.2189 513.461 68.1411C512.062 67.7509 510.577 68.4134 509.943 69.7284C509.287 71.1019 509.775 72.7957 511.059 73.5966C511.806 74.0707 512.692 74.1667 513.483 73.9383C514.011 73.7861 514.485 73.4932 514.878 73.0544C515.085 72.8256 515.263 72.5402 515.403 72.2136L515.665 71.5914L516.343 69.9775L516.753 69.0133C516.815 68.8655 516.895 68.7383 516.973 68.6505C517.399 68.1894 518.087 68.0952 518.623 68.4221C519.178 68.7695 519.386 69.4902 519.101 70.0798C518.821 70.642 518.189 70.9284 517.583 70.7648C517.458 70.7359 517.334 70.6675 517.204 70.575L516.964 70.4085L516.276 72.0248C516.551 72.2081 516.834 72.3445 517.113 72.4229C518.512 72.8131 519.997 72.1506 520.631 70.8356C521.287 69.4621 520.799 67.7683 519.515 66.9674Z" fill="black"/>
</mask>
<g mask="url(#mask2)">
<path d="M522.712 57.5429L518.011 54.837L511.983 65.3348L520.887 61.3441L522.712 57.5429Z" fill="#6AEDCB"/>
<path d="M520.196 61.2619C518.964 62.0276 517.89 61.386 516.823 61.469C516.143 61.5218 515.509 61.8415 515.003 62.2976C514.205 63.0172 513.775 64.1466 512.817 64.634C512.63 64.7296 512.424 64.7983 512.267 64.9381C512.146 65.0465 512.062 65.1906 511.981 65.3318L508.652 71.098C510.048 71.1603 511.327 70.3846 512.501 69.6294C517.477 66.4321 522.379 63.0932 527.638 60.3861L522.709 57.5408C522.345 57.3311 521.553 59.2025 521.484 59.3636C521.168 60.1025 520.847 60.765 520.196 61.2619Z" fill="#30C7FF"/>
<path d="M527.466 60.28C527.466 60.28 526.413 60.6394 525.661 60.6296C524.91 60.6197 523.669 60.7741 522.834 61.2727C521.998 61.7712 521.499 62.3297 520.976 63.2756C520.454 64.2216 519.403 64.8859 518.276 64.9495C517.148 65.0126 515.008 64.515 513.985 66.1751C512.962 67.8352 512.11 70.4169 508.737 70.9683L504.796 77.7838L505.706 78.3077L529.855 62.9344L530.808 62.2075L527.466 60.28Z" fill="#6C5DFE"/>
<path d="M528.903 61.1073C528.903 61.1073 528.042 61.5216 527.173 62.8578C526.683 63.6094 526.118 64.3164 525.379 64.837C524.254 65.6281 522.892 65.8655 521.542 65.7918C521.355 65.7819 521.172 65.7603 520.986 65.7713C520.633 65.7925 520.286 65.8636 519.953 65.9817C518.986 66.3264 518.233 67.2284 517.464 68.3895C516.696 69.5505 515.255 70.8912 514.029 71.4543C512.803 72.0173 511.825 72.3223 510.057 72.8407C508.288 73.3591 506.256 74.1032 505.029 77.9169L508.29 79.7947L525.997 70.5642L530.81 62.2062L528.903 61.1073Z" fill="#A20ED3"/>
<path d="M526.847 69.0862C526.847 69.0862 525.541 70.1372 523.434 70.0259C521.327 69.9146 520.681 68.7748 518.491 70.9534C516.301 73.132 516.216 74.1518 514.399 75.0426C512.583 75.9334 511.327 76.1449 509.724 76.4913C508.122 76.8376 507.305 76.9795 506.333 78.6683L510.597 81.1237L524.725 72.773L526.847 69.0862Z" fill="#D60A99"/>
<path d="M509.492 80.4865C510.492 80.3166 511.661 80.1435 512.461 79.2684C513.26 78.3933 514.154 77.4386 515.18 76.7597C516.205 76.0808 516.933 76.2673 517.994 75.8761C519.055 75.4847 520.046 74.2856 520.666 73.4406C521.286 72.5955 521.941 72.2706 522.926 71.8355C523.911 71.4004 525.376 71.643 525.376 71.643L522.934 75.8823L520.332 78.8925L513.305 82.6829L509.492 80.4865Z" fill="#F005C4"/>
<path d="M523.837 74.3151C523.82 74.3441 523.671 74.3747 523.64 74.3873C523.458 74.4592 523.282 74.5435 523.112 74.6395C522.426 75.0284 522.155 75.6209 521.828 76.3003C521.603 76.7711 521.353 77.5114 520.89 77.8077C520.432 78.1006 520.045 78.3467 518.725 78.32C517.904 78.3032 517.035 78.3757 516.29 78.7754C515.427 79.2383 515.003 80.1002 514.385 80.8216C513.88 81.4095 513.23 81.9998 512.462 82.1972L517.595 85.1529L523.837 74.3151Z" fill="#FF744B"/>
</g>
<path d="M565.295 50.7739C567.758 50.7739 569.755 48.7722 569.755 46.3029C569.755 43.8337 567.758 41.832 565.295 41.832C562.833 41.832 560.836 43.8337 560.836 46.3029C560.836 48.7722 562.833 50.7739 565.295 50.7739Z" fill="#FFBD35"/>
<mask id="mask3" mask-type="alpha" maskUnits="userSpaceOnUse" x="556" y="37" width="19" height="19">
<circle cx="565.285" cy="46.2854" r="7.5" transform="rotate(-16.0898 565.285 46.2854)" fill="black"/>
</mask>
<g mask="url(#mask3)">
<path d="M567.665 62.9046L575.705 62.7502L575.342 44.8065L567.079 56.6808L567.665 62.9046Z" fill="#6AEDCB"/>
<path d="M568.018 56.2571C568.998 54.3432 570.853 54.3372 572.145 53.4167C572.968 52.8304 573.53 51.9393 573.824 50.9731C574.288 49.449 573.971 47.6859 574.815 46.3347C574.98 46.0701 575.189 45.8257 575.281 45.5282C575.353 45.2976 575.349 45.0503 575.345 44.809L575.167 34.9399C573.346 35.9271 572.315 37.8897 571.399 39.7469C567.521 47.6112 563.845 55.5993 559.232 63.0573L567.669 62.9055C568.291 62.8937 567.868 59.9107 567.833 59.6531C567.669 58.4733 567.571 57.3862 568.018 56.2571Z" fill="#30C7FF"/>
<path d="M559.534 63.0602C559.534 63.0602 560.597 61.7989 561.559 61.2373C562.521 60.6757 563.979 59.5315 564.66 58.2595C565.341 56.9876 565.548 55.8966 565.489 54.2955C565.43 52.6944 566.257 51.0477 567.641 50.1052C569.025 49.1635 572.124 48.1603 572.155 45.2695C572.186 42.3787 571.296 38.4477 575.16 35.1693L574.958 23.4995L573.401 23.5293L554.469 61.5143L553.814 63.1661L559.534 63.0602Z" fill="#6C5DFE"/>
<path d="M557.078 63.1069C557.078 63.1069 557.855 61.9227 557.939 59.5607C557.986 58.2317 558.163 56.9021 558.705 55.6757C559.529 53.8112 561.079 52.4681 562.85 51.5301C563.095 51.4003 563.343 51.288 563.572 51.1315C564.004 50.8353 564.391 50.4792 564.723 50.0751C565.688 48.8983 565.956 47.1763 566.045 45.1141C566.134 43.0519 566.94 40.2474 568.067 38.5954C569.195 36.9432 570.205 35.8081 572.055 33.7984C573.905 31.7886 575.919 29.2899 574.563 23.5074L568.985 23.6136L553.543 48.8716L553.815 63.1684L557.078 63.1069Z" fill="#A20ED3"/>
<path d="M553.592 51.3988C553.592 51.3988 554.449 49.0652 557.21 47.5965C559.972 46.1277 561.664 47.0824 562.781 42.6409C563.899 38.1995 563.227 36.8391 564.854 34.3192C566.482 31.7992 567.916 30.5707 569.687 28.9061C571.458 27.2416 572.387 26.4374 572.332 23.5488L565.038 23.6878L553.471 45.0931L553.592 51.3988Z" fill="#D60A99"/>
<path d="M566.928 23.6531C565.788 24.633 564.435 25.7459 564.088 27.469C563.74 29.1921 563.334 31.0882 562.55 32.7341C561.767 34.3799 560.699 34.6996 559.65 36.0077C558.601 37.3157 558.259 39.5961 558.116 41.1436C557.974 42.6911 557.391 43.6039 556.472 44.9095C555.553 46.2152 553.507 47.0263 553.507 47.0263L553.369 39.7747L554.374 33.9621L560.405 23.7767L566.928 23.6531Z" fill="#F005C4"/>
<path d="M553.421 42.4555C553.42 42.4059 553.585 42.2536 553.615 42.2137C553.791 41.9834 553.951 41.7414 554.094 41.4894C554.667 40.4716 554.56 39.5113 554.455 38.3987C554.382 37.6283 554.133 36.4973 554.495 35.7668C554.853 35.0444 555.156 34.4363 556.855 33.461C557.91 32.8552 558.958 32.0994 559.599 31.0224C560.342 29.7745 560.222 28.3558 560.456 26.9666C560.648 25.8342 561.024 24.587 561.848 23.7498L553.068 23.917L553.421 42.4555Z" fill="#FF744B"/>
</g>
<circle cx="565.285" cy="46.2853" r="6.765" transform="rotate(-16.0898 565.285 46.2853)" fill="white"/>
<mask id="mask4" mask-type="alpha" maskUnits="userSpaceOnUse" x="559" y="40" width="12" height="12">
<path fill-rule="evenodd" clip-rule="evenodd" d="M570.786 46.2759C570.763 46.2281 570.726 46.2075 570.68 46.1904C570.103 45.9743 569.526 45.7578 568.949 45.5398C568.897 45.5203 568.846 45.5096 568.791 45.5045C567.243 45.3623 565.695 45.2202 564.146 45.0758C563.203 44.9878 562.261 44.8875 561.311 44.9146C561.27 44.9159 561.232 44.9157 561.194 44.9301C560.803 45.0772 560.412 45.2234 560.022 45.371C559.992 45.3823 559.958 45.3882 559.93 45.4194C559.938 45.5021 559.911 45.5903 559.936 45.6843C559.978 45.6723 560.013 45.662 560.048 45.6522C560.485 45.5311 560.923 45.4113 561.36 45.2877C561.456 45.2605 561.551 45.2548 561.65 45.2636C564.03 45.4768 566.411 45.6905 568.792 45.8994C569.035 45.9208 569.269 45.9667 569.501 46.0454C569.936 46.1938 570.375 46.3307 570.82 46.4745C570.844 46.3953 570.842 46.3959 570.786 46.2759Z" fill="black"/>
<path fill-rule="evenodd" clip-rule="evenodd" d="M570.686 46.6619C570.361 46.5741 570.036 46.4861 569.71 46.4001C569.585 46.3668 569.462 46.3214 569.331 46.3101C566.759 46.0879 564.186 45.8661 561.613 45.6431C561.554 45.6379 561.498 45.6422 561.441 45.6526C561.109 45.7136 560.777 45.7736 560.445 45.8342C560.27 45.866 560.096 45.8987 559.918 45.9314C559.915 46.021 559.897 46.1049 559.919 46.1919C560.323 46.1551 560.719 46.1166 561.116 46.0838C561.296 46.069 561.476 46.0329 561.657 46.0481C564.104 46.2532 566.551 46.4592 568.998 46.6659C569.243 46.6866 569.49 46.6911 569.732 46.7353C570.013 46.7866 570.292 46.8518 570.572 46.9096C570.603 46.916 570.634 46.9334 570.673 46.9165C570.699 46.8428 570.726 46.7652 570.752 46.6921C570.73 46.667 570.707 46.6672 570.686 46.6619Z" fill="black"/>
<path fill-rule="evenodd" clip-rule="evenodd" d="M562.572 46.4915C562.237 46.4642 561.902 46.4272 561.567 46.4156C561.202 46.4029 560.836 46.4144 560.471 46.4159C560.299 46.4167 560.127 46.4185 559.945 46.4199C559.97 46.5071 559.992 46.5831 560.019 46.6751C563.501 46.9506 566.982 47.226 570.469 47.5019C570.506 47.3943 570.541 47.294 570.579 47.1843C570.327 47.1497 570.088 47.1058 569.848 47.0858C567.423 46.8855 564.998 46.6887 562.572 46.4915Z" fill="black"/>
<path fill-rule="evenodd" clip-rule="evenodd" d="M560.012 45.1048C560.274 44.9805 560.535 44.8545 560.797 44.7312C560.918 44.6745 561.033 44.6135 561.176 44.616C561.632 44.6237 562.088 44.6187 562.544 44.6196C562.862 44.6201 563.182 44.5977 563.499 44.6271C565.173 44.7824 566.847 44.9435 568.521 45.1022C568.568 45.1066 568.614 45.1131 568.658 45.132C569.225 45.3742 569.793 45.6163 570.361 45.8562C570.446 45.8921 570.528 45.9397 570.626 45.9577C570.618 45.8911 570.575 45.8467 570.559 45.7912C570.54 45.7268 570.495 45.6919 570.436 45.6639C569.755 45.3462 569.074 45.0269 568.394 44.7063C568.34 44.681 568.287 44.6679 568.228 44.6622C567.17 44.5597 566.112 44.456 565.054 44.353C564.787 44.3271 564.521 44.2819 564.255 44.2831C563.136 44.2882 562.018 44.3078 560.9 44.3208C560.847 44.3215 560.802 44.3348 560.757 44.3617C560.636 44.434 560.512 44.5024 560.39 44.5733C560.243 44.6585 560.097 44.7449 559.952 44.8306C559.949 44.9309 559.946 45.024 559.944 45.115C559.973 45.1265 559.993 45.1138 560.012 45.1048Z" fill="black"/>
<path fill-rule="evenodd" clip-rule="evenodd" d="M562.624 47.2352C562.26 47.2071 561.894 47.1966 561.533 47.1392C561.076 47.0666 560.62 46.9889 560.163 46.9149C560.134 46.9102 560.101 46.8884 560.069 46.9206C560.09 46.9956 560.112 47.072 560.135 47.1524C560.15 47.1571 560.167 47.1635 560.184 47.1676C560.676 47.2884 561.168 47.4095 561.661 47.5289C561.706 47.54 561.754 47.5435 561.8 47.5471C563.098 47.6437 564.397 47.7399 565.695 47.8362C567.144 47.9435 568.594 48.0507 570.05 48.1583C570.138 48.0537 570.228 47.9475 570.331 47.8267C570.276 47.822 570.241 47.8187 570.207 47.816C567.679 47.6227 565.152 47.4304 562.624 47.2352Z" fill="black"/>
<path fill-rule="evenodd" clip-rule="evenodd" d="M569.722 48.4585C569.343 48.4317 568.964 48.4046 568.586 48.3775C566.339 48.2166 564.092 48.0557 561.845 47.8955C561.776 47.8906 561.71 47.8781 561.644 47.8568C561.196 47.7117 560.747 47.5684 560.298 47.4249C560.265 47.4142 560.233 47.3963 560.188 47.4009C560.211 47.484 560.234 47.5627 560.26 47.6528C560.748 47.8467 561.237 48.0407 561.725 48.2349C561.766 48.2512 561.809 48.2557 561.852 48.2587C563.937 48.4027 566.022 48.5478 568.107 48.6925C568.576 48.725 569.044 48.7568 569.514 48.7888C569.6 48.682 569.696 48.5862 569.77 48.4757C569.751 48.4569 569.736 48.4595 569.722 48.4585Z" fill="black"/>
<path fill-rule="evenodd" clip-rule="evenodd" d="M560.744 44.0667C562.01 44.0393 563.277 44.0096 564.543 43.9832C564.8 43.9778 565.057 43.9528 565.314 43.978C566.185 44.0632 567.056 44.1516 567.928 44.2377C567.997 44.2448 568.061 44.2626 568.124 44.2949C568.844 44.6659 569.565 45.0356 570.286 45.4047C570.317 45.4207 570.346 45.447 570.394 45.4434C570.339 45.3154 570.294 45.2 570.156 45.1252C569.427 44.7317 568.703 44.3292 567.981 43.9228C567.819 43.8319 567.657 43.7761 567.471 43.7616C566.822 43.7111 566.18 43.6142 565.524 43.6412C563.864 43.7098 562.202 43.7521 560.541 43.8055C560.503 43.8067 560.463 43.8059 560.428 43.8341C560.277 43.9573 560.125 44.0791 559.973 44.2009C559.97 44.3095 559.966 44.4129 559.962 44.5357C560.176 44.3897 560.371 44.2594 560.563 44.1228C560.62 44.0824 560.676 44.0681 560.744 44.0667Z" fill="black"/>
<path fill-rule="evenodd" clip-rule="evenodd" d="M561.885 48.5926C561.833 48.5892 561.786 48.5783 561.739 48.5561C561.306 48.3516 560.872 48.1484 560.438 47.9456C560.401 47.9282 560.364 47.906 560.311 47.9014C560.336 47.9913 560.359 48.0706 560.384 48.1574C560.831 48.3983 561.285 48.6424 561.738 48.8889C561.807 48.9263 561.876 48.9457 561.954 48.9507C563.982 49.0805 566.009 49.212 568.037 49.343C568.354 49.3634 568.672 49.383 568.992 49.4032C569.078 49.3027 569.162 49.204 569.262 49.0874C569.104 49.0763 568.968 49.0663 568.833 49.0571C566.517 48.9018 564.201 48.7467 561.885 48.5926Z" fill="black"/>
<path fill-rule="evenodd" clip-rule="evenodd" d="M560.375 43.5864C560.766 43.5723 561.157 43.5533 561.547 43.5372C563.128 43.4719 564.709 43.4052 566.29 43.3431C566.643 43.3292 566.997 43.286 567.352 43.3393C567.414 43.3487 567.469 43.3664 567.523 43.3986C568.207 43.8044 568.892 44.2093 569.577 44.6141C569.767 44.7264 569.957 44.8382 570.147 44.9501C570.109 44.8375 570.089 44.7223 569.979 44.6533C569.115 44.1157 568.254 43.5749 567.393 43.0338C567.35 43.0069 567.308 42.9979 567.26 43.0004C566.367 43.0458 565.474 43.0911 564.58 43.136C563.163 43.2073 561.745 43.28 560.327 43.3467C560.194 43.3529 560.089 43.3856 560.013 43.4959C560.009 43.5018 560.005 43.5078 559.997 43.5195C559.994 43.6281 559.991 43.7423 559.988 43.8778C560.086 43.7874 560.169 43.7131 560.25 43.6363C560.286 43.6016 560.324 43.5882 560.375 43.5864Z" fill="black"/>
<path fill-rule="evenodd" clip-rule="evenodd" d="M568.632 49.686C566.406 49.5464 564.18 49.4082 561.953 49.2704C561.897 49.267 561.848 49.2535 561.8 49.2241C561.413 48.9873 561.025 48.7523 560.637 48.5168C560.576 48.4801 560.516 48.4434 560.432 48.3926C560.463 48.5017 560.487 48.5836 560.513 48.6755C560.949 48.9693 561.395 49.2688 561.839 49.5708C561.891 49.6061 561.945 49.6111 562.003 49.6146C563.836 49.7243 565.67 49.834 567.503 49.9439C567.828 49.9634 568.152 49.9833 568.482 50.0031C568.566 49.904 568.649 49.8059 568.732 49.7075C568.698 49.6771 568.663 49.688 568.632 49.686Z" fill="black"/>
<path fill-rule="evenodd" clip-rule="evenodd" d="M562.022 49.9271C561.959 49.9233 561.905 49.9058 561.853 49.867C561.589 49.6687 561.323 49.4731 561.057 49.2771C560.901 49.1615 560.743 49.0466 560.586 48.9313C560.581 48.9346 560.575 48.9377 560.57 48.9411C560.593 49.0231 560.617 49.1051 560.645 49.2032C561.044 49.5228 561.457 49.8532 561.869 50.1862C561.928 50.2341 561.988 50.255 562.065 50.2593C563.748 50.3516 565.431 50.4465 567.114 50.5406C567.406 50.5571 567.698 50.5716 567.987 50.5868C568.071 50.4884 568.15 50.3952 568.241 50.287C568.19 50.2831 568.162 50.2806 568.133 50.2789C566.096 50.1615 564.059 50.0439 562.022 49.9271Z" fill="black"/>
<path fill-rule="evenodd" clip-rule="evenodd" d="M563.422 42.9669C564.694 42.8924 565.966 42.8194 567.239 42.7436C567.293 42.7403 567.335 42.7511 567.38 42.7806C568.191 43.3179 569.003 43.8538 569.815 44.3897C569.851 44.4138 569.886 44.4437 569.935 44.4533C569.886 44.3098 569.814 44.2022 569.688 44.1164C568.954 43.6159 568.223 43.1099 567.496 42.597C567.36 42.501 567.231 42.4464 567.067 42.482C567.011 42.494 566.951 42.4885 566.893 42.4925C565.82 42.5648 564.747 42.6378 563.674 42.7093C562.601 42.7807 561.527 42.8502 560.454 42.9222C560.419 42.9246 560.382 42.9168 560.349 42.9403C560.253 43.0094 560.155 43.0772 560.041 43.1573C560.088 43.1591 560.112 43.1621 560.136 43.1607C561.231 43.0964 562.326 43.0308 563.422 42.9669Z" fill="black"/>
<path fill-rule="evenodd" clip-rule="evenodd" d="M560.704 42.7231C561.311 42.6783 561.918 42.6327 562.525 42.5877C564.075 42.4728 565.625 42.3589 567.175 42.2407C567.259 42.2343 567.319 42.2559 567.384 42.303C568.139 42.851 568.895 43.3968 569.651 43.943C569.667 43.955 569.681 43.9766 569.713 43.9604C569.658 43.8739 569.646 43.7669 569.553 43.6976C568.812 43.1438 568.074 42.5868 567.335 42.0302C567.292 41.9982 567.251 41.9857 567.195 41.9904C566.737 42.0299 566.278 42.064 565.819 42.1014C564.223 42.2315 562.627 42.3625 561.031 42.4928C561.005 42.4947 560.98 42.4913 560.957 42.5074C560.865 42.5736 560.773 42.6397 560.678 42.7083C560.693 42.7171 560.699 42.7235 560.704 42.7231Z" fill="black"/>
<path fill-rule="evenodd" clip-rule="evenodd" d="M562.106 50.5621C562.023 50.5578 561.958 50.5336 561.893 50.477C561.539 50.1662 561.181 49.8604 560.823 49.5536C560.788 49.5235 560.759 49.486 560.694 49.4617C560.727 49.5659 560.715 49.6723 560.778 49.7353C560.92 49.8788 561.061 50.0281 561.229 50.1428C561.456 50.2989 561.694 50.4401 561.926 50.5885C561.97 50.6163 562.015 50.6346 562.066 50.6458C562.49 50.7392 562.914 50.8344 563.338 50.9295C563.394 50.9421 563.451 50.9495 563.51 50.9526C564.568 51.0068 565.626 51.0621 566.685 51.1168C566.959 51.1309 567.232 51.1443 567.505 51.1578C567.581 51.0564 567.67 50.9739 567.739 50.866C567.718 50.8623 567.707 50.8595 567.697 50.859C565.833 50.7597 563.97 50.6601 562.106 50.5621Z" fill="black"/>
<path fill-rule="evenodd" clip-rule="evenodd" d="M569.47 43.4974C569.477 43.4916 569.485 43.4858 569.492 43.48C569.44 43.396 569.422 43.2962 569.336 43.227C568.66 42.6859 567.986 42.1418 567.312 41.5969C567.263 41.5572 567.215 41.5462 567.153 41.5523C566.623 41.6047 566.093 41.6539 565.563 41.7043C564.957 41.762 564.351 41.8202 563.745 41.8777C563.064 41.9424 562.382 42.0074 561.7 42.0709C561.552 42.0848 561.389 42.17 561.281 42.3003C563.28 42.1239 565.274 41.948 567.257 41.773C568.002 42.3536 568.736 42.9255 569.47 43.4974Z" fill="black"/>
<path fill-rule="evenodd" clip-rule="evenodd" d="M569.27 43.044C569.219 42.8794 569.11 42.761 568.991 42.658C568.422 42.1637 567.847 41.6768 567.275 41.1857C567.235 41.1514 567.195 41.1431 567.145 41.1486C566.461 41.2239 565.776 41.2994 565.092 41.3726C564.151 41.4734 563.21 41.5765 562.269 41.6686C562.091 41.686 561.977 41.7892 561.853 41.8966C563.644 41.7154 565.435 41.5342 567.232 41.3524C567.91 41.9152 568.59 42.4796 569.27 43.044Z" fill="black"/>
<path fill-rule="evenodd" clip-rule="evenodd" d="M568.379 41.994C568.385 41.9872 568.391 41.9805 568.397 41.9737C568.066 41.507 567.617 41.1579 567.197 40.7722C566.644 40.8387 566.09 40.9063 565.536 40.9718C564.621 41.0799 563.707 41.1902 562.792 41.2907C562.624 41.3092 562.514 41.4057 562.397 41.5108C564.002 41.3294 565.606 41.1481 567.207 40.9673C567.6 41.3123 567.99 41.6532 568.379 41.994Z" fill="black"/>
<path fill-rule="evenodd" clip-rule="evenodd" d="M567.181 40.5569C567.172 40.5567 567.162 40.5557 567.151 40.5567C566.477 40.6164 565.802 40.6763 565.128 40.7365C564.543 40.7886 563.959 40.8451 563.377 40.9184C563.196 40.9412 563.044 41.0025 562.902 41.1435C564.348 40.9643 565.778 40.7873 567.209 40.61C567.21 40.5907 567.204 40.5712 567.181 40.5569Z" fill="black"/>
<path fill-rule="evenodd" clip-rule="evenodd" d="M567.204 51.4236C566.6 51.3935 565.997 51.3644 565.394 51.3332C565.352 51.3311 565.315 51.3374 565.264 51.3588C565.764 51.47 566.247 51.5768 566.73 51.6856C566.83 51.7083 566.929 51.7135 567.033 51.7106C567.11 51.6196 567.186 51.5297 567.261 51.4404C567.239 51.4171 567.22 51.4244 567.204 51.4236Z" fill="black"/>
</mask>
<g mask="url(#mask4)">
<path d="M565.723 58.7612L573.762 60.1705L576.889 42.2256L566.35 52.4474L565.723 58.7612Z" fill="#6AEDCB"/>
<path d="M567.369 52.2081C568.717 50.4921 570.566 50.8469 572.032 50.1811C572.965 49.7571 573.698 48.9786 574.179 48.0734C574.938 46.6455 574.965 44.8275 576.069 43.6457C576.284 43.4142 576.54 43.2113 576.69 42.933C576.806 42.7171 576.851 42.4702 576.893 42.2288L578.634 32.3634C576.629 32.9928 575.22 34.7471 573.947 36.4192C568.555 43.499 563.339 50.7414 557.294 57.2736L565.728 58.7628C566.35 58.8721 566.508 55.8183 566.523 55.5549C566.59 54.3478 566.703 53.2458 567.369 52.2081Z" fill="#30C7FF"/>
<path d="M557.594 57.3346C557.594 57.3346 558.898 56.2849 559.966 55.9125C561.033 55.5401 562.708 54.6839 563.634 53.5492C564.559 52.4145 564.978 51.3681 565.23 49.7617C565.483 48.1553 566.627 46.6757 568.188 46.006C569.75 45.3371 573.032 44.9403 573.625 42.0667C574.218 39.1931 574.096 35.1042 578.583 32.5899L580.65 20.9259L579.094 20.6529L552.849 54.8099L551.875 56.3279L557.594 57.3346Z" fill="#6C5DFE"/>
<path d="M555.136 56.9037C555.136 56.9037 556.141 55.8751 556.683 53.5386C556.989 52.224 557.424 50.9339 558.202 49.8176C559.385 48.1206 561.191 47.084 563.138 46.4941C563.406 46.4123 563.676 46.3488 563.934 46.2373C564.421 46.0262 564.877 45.7468 565.286 45.4088C566.476 44.4242 567.078 42.761 567.568 40.7241C568.057 38.6872 569.406 36.0503 570.849 34.6238C572.294 33.1972 573.52 32.2628 575.754 30.6206C577.988 28.9784 580.48 26.8809 580.253 20.8571L574.677 19.8784L554.383 42.0362L551.874 56.3305L555.136 56.9037Z" fill="#C908A4"/>
<path d="M553.941 44.5638C553.941 44.5638 555.248 42.4058 558.285 41.4797C561.322 40.5537 562.821 41.8335 564.798 37.6266C566.775 33.4196 566.37 31.9339 568.481 29.7401C570.592 27.5463 572.259 26.6013 574.347 25.2876C576.435 23.9738 577.516 23.3534 578.023 20.4652L570.731 19.1855L555.046 38.2589L553.941 44.5638Z" fill="#D60A99"/>
</g>
</g>
<g clip-path="url(#clip3)">
<path d="M489.001 13.5947H362.784C359.799 13.5947 357.379 16.021 357.379 19.014V113.581C357.379 116.574 359.799 119 362.784 119H489.001C491.986 119 494.406 116.574 494.406 113.581V19.014C494.406 16.021 491.986 13.5947 489.001 13.5947Z" fill="#F2F6FB"/>
<path d="M438.796 93.0137C452.074 85.3252 456.648 68.3387 449.011 55.0734C441.375 41.808 424.42 37.2871 411.142 44.9756C397.864 52.6642 393.29 69.6507 400.927 82.916C408.563 96.1814 425.518 100.702 438.796 93.0137ZM434.365 85.3156C425.331 90.5464 413.805 87.4731 408.618 78.4626C403.431 69.452 406.54 57.9046 415.574 52.6738C424.607 47.443 436.133 50.5163 441.32 59.5268C446.507 68.5374 443.398 80.0848 434.365 85.3156Z" fill="#E1E5F0"/>
<path d="M408.925 41.1269C393.525 50.0442 388.219 69.7503 397.08 85.143C405.941 100.536 425.61 105.78 441.011 96.8631C456.411 87.9457 461.717 68.2397 452.856 52.8469L445.165 57.3004C451.576 68.4383 447.735 82.7053 436.579 89.165C425.423 95.6246 411.183 91.8275 404.771 80.6896C398.359 69.5516 402.201 55.2847 413.357 48.825L408.925 41.1269Z" fill="#5A87F6"/>
<path d="M408.702 39.8583C392.877 49.0212 387.425 69.2705 396.531 85.0882C405.637 100.906 425.849 106.295 441.674 97.1324L436.362 87.9052C425.625 94.1222 411.92 90.468 405.75 79.7502C399.58 69.0324 403.277 55.3025 414.014 49.0855L408.702 39.8583Z" fill="#474961"/>
<path d="M357.379 19.0152C357.379 16.0216 359.801 13.5947 362.782 13.5947H489.003C491.987 13.5947 494.406 16.0218 494.406 19.0152V25.5172H357.379V19.0152Z" fill="#E1E5F0"/>
<path d="M365.353 22.2655C366.771 22.2655 367.92 21.113 367.92 19.6914C367.92 18.2697 366.771 17.1172 365.353 17.1172C363.935 17.1172 362.785 18.2697 362.785 19.6914C362.785 21.113 363.935 22.2655 365.353 22.2655Z" fill="#FF5645"/>
<path d="M373.73 22.2655C375.148 22.2655 376.297 21.113 376.297 19.6914C376.297 18.2697 375.148 17.1172 373.73 17.1172C372.312 17.1172 371.162 18.2697 371.162 19.6914C371.162 21.113 372.312 22.2655 373.73 22.2655Z" fill="#FFCB3D"/>
<path d="M382.378 22.2655C383.796 22.2655 384.946 21.113 384.946 19.6914C384.946 18.2697 383.796 17.1172 382.378 17.1172C380.96 17.1172 379.811 18.2697 379.811 19.6914C379.811 21.113 380.96 22.2655 382.378 22.2655Z" fill="#3ABF7C"/>
</g>
<path d="M672.428 91.4252C667.914 94.4042 660.851 92.1706 655.194 91.157C653.907 90.1656 653.775 87.7884 653.185 86.3169C651.479 82.0577 648.703 78.5595 648.686 74.0362C648.67 69.837 652.834 67.1394 652.269 62.8948C651.732 58.8631 649.699 54.7523 653.466 52.4477C656.551 50.5611 659.311 49.3332 661.516 46.4721C664.358 42.7848 661.255 38.9508 659.131 34.4277C656.815 29.4974 653.604 24.3486 655.55 19.7148C657.047 16.1499 660.229 12.7968 662.786 9.99685C665.663 6.84549 670.186 6.42446 675.072 7.21112C681.677 8.27438 687.276 13.0694 691.979 17.9138C696.761 22.8378 701.353 28.0167 704.014 34.0277C706.281 39.1508 704.86 42.1751 701.431 45.1546C699.116 47.1655 694.774 50.135 695.237 53.8521C695.457 55.6197 696.607 58.1958 695.515 59.6126C692.135 63.9979 687.07 64.4406 681.111 64.2354C674.052 63.9924 669.182 70.4922 671.553 77.3799C673.365 82.6445 677.757 87.908 672.428 91.4252Z" stroke="#F6F6F6" stroke-linecap="round" stroke-linejoin="round"/>
<circle cx="84.0835" cy="32.7319" r="14.2378" fill="#B007C1" stroke="white" stroke-width="2"/>
<circle cx="803.681" cy="200.598" r="14.2378" transform="rotate(121.073 803.681 200.598)" fill="#FE02AC" stroke="white" stroke-width="2"/>
<circle cx="90.9913" cy="67.2652" r="7.33112" fill="#FFBD35" stroke="white" stroke-width="2"/>
<circle cx="770.538" cy="188.69" r="7.33112" transform="rotate(121.073 770.538 188.69)" fill="#88B4F7" stroke="white" stroke-width="2"/>
<circle cx="114.588" cy="49.4228" r="10.2089" fill="#FE02AC" stroke="white" stroke-width="2"/>
<circle cx="773.641" cy="218.11" r="10.2089" transform="rotate(121.073 773.641 218.11)" fill="#FFBD35" stroke="white" stroke-width="2"/>
<path d="M816.458 144.636C806.932 154.582 806.011 166.814 806.741 171.687C803.513 168.858 797.067 159.361 797.103 143.997C797.149 124.792 813.311 110.126 827.308 116.27C838.506 121.185 824.74 137.229 816.458 144.636Z" fill="white"/>
<path d="M775 32.0005L788.291 38.4012L791.574 52.7833L782.376 64.317H767.624L758.426 52.7833L761.709 38.4012L775 32.0005Z" fill="#F8F7EE"/>
</g>
<path d="M25.3882 131.309C27.1446 126.194 34.1021 123.651 39.2015 121C40.8255 121 42.3817 122.802 43.747 123.607C47.6987 125.939 52.0327 127.015 54.8078 130.587C57.384 133.903 55.7337 138.581 58.7725 141.598C61.6588 144.464 65.7785 146.479 64.2018 150.604C62.911 153.981 61.4745 156.638 61.4745 160.251C61.4745 164.906 66.2729 166.049 70.7171 168.334C75.5614 170.825 81.2477 172.942 82.5354 177.8C83.5261 181.538 83.0527 186.136 82.7375 189.915C82.3827 194.167 79.0571 197.262 74.707 199.622C68.8274 202.812 61.4655 202.432 54.7825 201.467C47.9896 200.486 41.1907 199.188 35.4136 196.052C30.4898 193.379 29.7688 190.116 30.666 185.663C31.2715 182.657 32.8979 177.654 30.262 174.993C29.0085 173.727 26.5245 172.389 26.5245 170.6C26.5245 165.063 30.2659 161.62 35.1105 158.145C40.8497 154.028 40.7387 145.907 34.656 141.899C30.0066 138.836 23.3143 137.349 25.3882 131.309Z" stroke="#F6F6F6" stroke-linecap="round" stroke-linejoin="round"/>
<path d="M805.356 161.813C800.155 160.33 797.248 153.516 794.332 148.564C794.246 146.942 795.963 145.293 796.695 143.887C798.815 139.818 799.66 135.433 803.081 132.473C806.256 129.725 811.015 131.126 813.867 127.932C816.576 124.898 818.37 120.678 822.573 122.034C826.013 123.145 828.743 124.439 832.351 124.248C837 124.002 837.887 119.15 839.934 114.591C842.165 109.622 843.98 103.832 848.763 102.289C852.443 101.102 857.06 101.332 860.85 101.447C865.115 101.577 868.381 104.734 870.968 108.954C874.464 114.657 874.474 122.028 873.863 128.753C873.243 135.588 872.306 142.446 869.479 148.381C867.07 153.439 863.85 154.331 859.355 153.671C856.321 153.225 851.239 151.865 848.721 154.638C847.524 155.957 846.319 158.508 844.532 158.602C839.003 158.895 835.367 155.341 831.641 150.686C827.226 145.173 819.122 145.713 815.442 151.999C812.628 156.804 811.497 163.565 805.356 161.813Z" stroke="#F6F6F6" stroke-linecap="round" stroke-linejoin="round"/>
<path d="M161 172L169.6 176.142L171.724 185.448L165.773 192.911H156.227L150.276 185.448L152.4 176.142L161 172Z" fill="#F8F7EE"/>
<path d="M95.0941 142.681C104.754 158.892 102.221 175.509 99.7472 181.791C104.927 179.008 116.457 168.308 121.135 147.782C126.982 122.124 109.912 97.5671 89.3317 101.465C72.8675 104.584 86.3132 130.242 95.0941 142.681Z" fill="#EFF2F4"/>
<path d="M706.706 114.557C699.297 126.99 701.24 139.736 703.137 144.554C699.164 142.419 690.321 134.213 686.733 118.469C682.249 98.7895 695.341 79.9548 711.126 82.9447C723.754 85.3365 713.441 105.016 706.706 114.557Z" fill="#EFF2F4"/>
<defs>
<linearGradient id="paint0_linear" x1="337.566" y1="164.77" x2="337.566" y2="223.479" gradientUnits="userSpaceOnUse">
<stop stop-color="#FFCB3D"/>
<stop offset="1" stop-color="#FF4A7E"/>
</linearGradient>
<clipPath id="clip0">
<rect width="99.3684" height="74.6667" fill="white" transform="translate(226.947 145.264)"/>
</clipPath>
<clipPath id="clip1">
<rect width="137.027" height="105.405" fill="white" transform="translate(233 4.1084)"/>
</clipPath>
<clipPath id="clip2">
<rect width="137.027" height="105.405" fill="white" transform="translate(485.973 2.00049)"/>
</clipPath>
<clipPath id="clip3">
<rect width="137.027" height="105.405" fill="white" transform="translate(357.379 13.5947)"/>
</clipPath>
</defs>
</svg>
