<svg width="87" height="90" viewBox="0 0 87 90" fill="none" xmlns="http://www.w3.org/2000/svg">
<path d="M15.1999 29.0499C14.0999 30.0499 13.8999 31.2499 13.6999 32.4499C13.4999 34.0499 12.7999 35.5499 11.7999 36.8499C10.6999 38.2499 9.89992 38.3499 8.69992 37.1499C6.19992 34.6499 3.69993 32.1499 1.29993 29.5499C-7.4923e-05 28.2499 0.199925 27.2499 1.99992 26.1499C4.69992 28.4499 7.39993 30.7499 10.3999 33.2499C10.7999 32.1499 11.0999 31.1499 11.4999 30.1499C11.7999 29.1499 12.1999 28.2499 12.3999 27.2499C12.9999 24.8499 12.9999 24.8499 15.2999 24.1499C17.2999 25.5499 19.2999 26.9499 20.7999 28.9499C21.8999 30.4499 23.6999 31.1499 25.6999 31.9499C25.7999 30.3499 25.8999 28.8499 25.9999 27.4499C26.1999 25.4499 26.2999 23.4499 26.5999 21.5499C26.8999 19.5499 28.2999 18.8499 30.0999 19.7499C32.3999 20.9499 34.4999 22.4499 36.7999 23.6499C38.7999 24.7499 40.8999 25.5499 43.2999 26.6499C43.6999 24.9499 43.9999 23.4499 44.3999 21.9499C44.7999 20.3499 45.3999 18.8499 45.8999 17.3499C46.1999 16.5499 46.7999 16.3499 47.4999 16.5499C48.2999 16.7499 48.4999 17.4499 48.1999 18.1499C46.7999 21.0499 46.5999 24.2499 46.1999 27.3499C46.0999 27.9499 45.8999 28.4499 45.5999 28.9499C44.7999 30.2499 44.4999 30.4499 43.0999 29.8499C40.0999 28.5499 37.0999 27.1499 34.0999 25.6499C32.5999 24.9499 31.1999 24.0499 29.2999 23.0499C29.0999 24.7499 28.6999 26.0499 28.6999 27.4499C28.6999 29.4499 28.7999 31.4499 29.0999 33.3499C29.2999 34.7499 28.7999 35.7499 27.8999 36.4499C26.8999 37.1499 25.9999 36.3499 25.0999 35.7499C21.9999 33.5499 18.9999 31.3499 15.9999 29.2499C15.6999 29.2499 15.4999 29.1499 15.1999 29.0499Z" fill="black"/>
<path d="M24.7 89.9501C22.4 89.4501 20.2 89.05 18 88.55C16.8 88.25 15.6 87.95 14.4 87.55C12.3 86.95 11.4 85.3501 12.4 83.3501C13.5 81.2501 14.9 79.45 16.3 77.55C16.8 76.85 17.4 76.2501 18.1 75.3501C15.2 74.1501 12.7 73.15 10.1 72.05C9.2 71.65 8.3 71.45 7.4 71.05C5.1 70.15 4.9 68.1501 6.7 66.3501C8.6 64.3501 10.5 62.25 12.3 60.15C12.5 59.95 12.6 59.65 12.8 59.15C10.5 58.25 8.2 57.75 6 57.25C3.7 56.75 1.9 55.3501 0 53.6501C0.6 52.9501 1.2 52.35 1.9 51.55C5.6 54.25 10.1 54.05 14.1 55.05C16.9 55.75 17.5 57.25 16 59.65C14.4 62.15 12.6 64.4501 10.3 66.3501C9.7 66.8501 9.3 67.4501 8.6 68.2501C9.9 68.7501 10.9 69.15 12 69.65C14.4 70.75 16.7 71.65 19.3 72.05C21.8 72.45 22.5 74.3501 21 76.3501C19.8 77.9501 18.4 79.55 17.1 81.15C16.3 82.15 15.6 83.0501 14.6 84.3501C16.6 84.8501 18.2 85.2501 19.8 85.7501C21.1 86.1501 22.5 86.55 23.7 87.05C24.8 87.45 25.5 88.2501 24.7 89.9501Z" fill="black"/>
<path d="M49.4006 52.2499C48.3006 53.8499 47.4006 55.3499 46.4006 56.7499C45.9006 57.5499 45.3006 58.3499 44.7006 59.0499C43.5006 60.3499 41.7006 60.2499 40.4006 59.0499C38.5006 57.0499 36.8006 54.9499 35.8006 52.3499C35.5006 51.6499 35.0006 50.9499 34.5006 50.0499C32.0006 51.0499 31.4006 54.1499 28.6006 54.8499C28.6006 54.2499 28.4006 53.6499 28.6006 53.2499C29.3006 52.0499 30.0006 50.7499 30.9006 49.8499C32.3006 48.5499 33.9006 47.4499 35.5006 46.4499C36.9006 45.5499 37.3006 45.7499 38.0006 47.2499C38.9006 49.2499 39.7006 51.3499 40.5006 53.3499C41.2006 54.8499 41.2006 54.8499 42.9006 55.9499C44.4006 55.0499 45.0006 53.3499 45.8006 51.9499C46.7006 50.2499 47.9006 48.9499 49.4006 47.8499C50.7006 46.9499 51.1006 47.0499 52.0006 48.2499C53.3006 49.9499 54.3006 51.8499 55.6006 53.5499C57.1006 55.4499 58.7006 57.2499 60.5006 59.3499C61.7006 58.2499 62.8006 57.2499 63.9006 56.1499C65.1006 54.8499 66.3006 53.5499 67.5006 52.2499C67.5006 52.1499 67.6006 52.1499 67.7006 52.0499C68.6006 51.2499 69.9006 50.9499 70.3006 51.5499C71.1006 52.5499 70.2006 53.1499 69.8006 53.8499C68.9006 55.3499 67.7006 56.4499 66.3006 57.4499C65.1006 58.4499 64.2006 59.9499 63.2006 61.1499C62.4006 62.1499 61.7006 63.1499 60.2006 63.1499C59.0006 63.1499 58.1006 62.8499 57.3006 61.8499C54.9006 58.8499 51.9006 56.3499 50.1006 52.9499C50.1006 52.7499 49.9006 52.6499 49.4006 52.2499Z" fill="black"/>
<path d="M78.8 35.15C76.8 36.45 74.9 37.75 73 38.85C71.1 39.95 69.2 40.95 67.1 42.15C64.4 38.15 64.3 33.55 62.7 29.35C59.6 29.65 57.3 31.75 54.2 32.55C54.2 31.85 53.9 31.35 54.1 30.95C54.7 29.95 55.3 28.85 56.1 28.15C56.9 27.45 58.1 27.15 59.1 26.85C60.7 26.55 62 26.15 63.1 24.75C63.7 23.85 64.6 24.05 65 25.05C65.5 26.15 65.7 27.25 66 28.45C66.6 30.75 67.1 33.05 67.7 35.35C67.8 35.95 68.1 36.45 68.3 37.15C72.8 35.55 76.3 32.45 80.2 29.65C80.6 30.35 80.9 30.85 81.1 31.35C82.4 35.25 83.5 39.25 85.8 42.75C87.1 44.65 86.5 45.55 83.9 46.95C82.9 45.05 81.7 43.25 80.8 41.35C80 39.35 79.5 37.25 78.8 35.15Z" fill="black"/>
<path d="M47.0004 89.15C48.5004 87.15 50.1004 85.15 51.9004 82.85C47.5004 81.85 43.1004 82.95 38.7004 82.15C37.8004 78.65 40.9004 76.45 41.7004 73.15C37.8004 72.95 34.2004 72.75 30.4004 72.55C29.6004 71.35 30.7004 70.65 31.3004 69.85C31.8004 69.05 32.5004 68.95 33.4004 69.25C34.7004 69.65 36.1004 70.15 37.5004 70.25C39.0004 70.35 40.5004 70.05 42.1004 69.85C43.0004 69.75 44.0004 69.55 44.9004 69.55C46.1004 69.65 46.4004 70.55 45.8004 71.65C44.6004 73.75 43.3004 75.75 42.1004 77.85C41.9004 78.25 41.7004 78.75 41.5004 79.55C43.8004 79.25 45.8004 78.75 47.8004 78.65C50.2004 78.55 52.6004 78.65 55.0004 78.75C56.1004 78.85 56.6004 79.75 56.1004 80.85C55.4004 82.25 54.6004 83.75 53.5004 84.95C52.1004 86.55 50.4004 87.85 48.9004 89.35C48.3004 90.05 47.8004 90.35 47.0004 89.15Z" fill="black"/>
<path d="M74.7008 4.84995C78.1008 5.14995 81.4008 4.44995 84.8008 4.34995C85.1008 4.34995 85.5008 4.24995 85.7008 4.44995C86.1008 4.74995 86.6008 5.04995 86.7008 5.44995C86.8008 5.84995 86.4008 6.54995 86.1008 6.64995C84.9008 7.04995 83.7008 7.34995 82.5008 7.54995C80.7008 7.84995 78.9008 8.14995 76.9008 8.44995C77.5008 9.94995 77.9008 11.05 78.4008 12.25C78.6008 12.85 78.9008 13.45 79.1008 14.15C79.8008 16.95 79.4008 17.55 76.6008 17.65C73.8008 17.75 71.2008 16.75 68.3008 15.35C71.0008 14.15 73.4008 15.05 76.0008 14.95C75.4008 13.35 74.8008 11.95 74.2008 10.55C73.3008 8.44995 73.2008 6.64995 74.7008 4.84995Z" fill="black"/>
<path d="M75.1 80.0499C75.7 79.3499 76.4 78.8499 76.9 78.1499C78.5 76.2499 80.1 74.3499 81.7 72.4499C81.8 72.3499 81.9 72.1499 82 72.0499C82.8 71.2499 84.1 70.8499 84.5 71.3499C85.4 72.3499 84.4 72.9499 83.9 73.5499C82.3 75.5499 80.8 77.6499 79 79.5499C77.9 80.7499 76.4 81.7499 75 82.5499C73.8 83.2499 72.6 82.7499 72.3 81.5499C71.7 78.8499 69.7 76.7499 68.6 74.2499C68.2 73.4499 68 72.5499 67.5 71.2499C70.2 71.6499 71 73.5499 72.1 74.9499C73.3 76.5499 74 78.2499 75.1 80.0499Z" fill="black"/>
<path d="M11.9006 9.15C13.5006 10.05 14.7006 10.75 16.2006 10.95C17.1006 11.05 18.1006 11.15 19.0006 11.45C19.4006 11.55 19.9006 12.05 19.9006 12.45C19.9006 12.85 19.4006 13.35 19.0006 13.55C18.5006 13.75 17.9006 13.75 17.3006 13.65C14.4006 13.55 11.7006 12.85 8.90062 11.85C8.60062 10.55 8.80063 9.45 9.50063 8.25C10.7006 6.35 11.7006 4.25 12.8006 2.25C13.3006 1.45 14.0006 0.75 14.6006 0.15C14.8006 -0.05 15.5006 -0.05 15.8006 0.15C16.2006 0.35 16.3006 0.95 16.2006 1.25C15.7006 2.35 15.2006 3.35 14.6006 4.35C13.7006 5.95 12.9006 7.45 11.9006 9.15Z" fill="black"/>
</svg>
