<svg width="90" height="89" viewBox="0 0 90 89" fill="none" xmlns="http://www.w3.org/2000/svg">
<path d="M22.5648 58.6046C20.6648 55.7046 19.6648 52.4045 18.9648 49.1045C18.7648 47.9045 18.4648 46.8045 18.3648 45.6045C18.2648 44.4045 17.6648 43.8046 16.4648 43.5046C14.7648 43.0046 13.1648 42.3046 11.4648 41.8046C7.0648 40.4046 4.2648 37.0045 2.4648 33.1045C0.664798 29.3045 -0.435202 25.3046 0.164798 20.8046C0.764798 16.1046 2.8648 12.5045 6.1648 9.50455C11.3648 4.80455 17.5648 3.10455 24.3648 4.50455C29.9648 5.60455 34.2648 8.90455 37.2648 13.7045C38.1648 15.1045 39.0648 15.7045 40.6648 15.6045C42.3648 15.5045 43.9648 15.6045 45.6648 15.7045C48.7648 15.8045 51.6648 16.7045 54.0648 18.7045C57.2648 21.3045 59.9648 24.4046 61.7648 28.0046C63.4648 31.3046 65.6648 34.2045 68.0648 36.9045C68.6648 37.5045 69.1648 37.7046 69.9648 37.5046C70.4648 37.4046 70.9648 37.3045 71.3648 37.1045C77.6648 34.1045 82.8648 29.8045 85.3648 23.1045C86.1648 20.9045 86.6648 18.5045 85.9648 16.1045C85.7648 15.4045 85.6648 14.7046 85.4648 14.0046C84.8648 10.4046 82.8648 7.80455 79.8648 6.10455C75.8648 3.80455 71.3648 3.20455 66.8648 4.30455C64.8648 4.80455 63.0648 6.10455 61.1648 7.10455C60.4648 6.00455 60.4648 5.10455 61.5648 4.40455C64.1648 2.70455 66.3648 1.30455 68.7648 0.30455C70.2648 -0.19545 72.0648 0.00455043 73.7648 0.30455C78.7648 1.20455 83.0648 3.60455 86.1648 7.80455C87.3648 9.40455 88.2648 11.4046 88.8648 13.3046C89.5648 15.5046 90.0648 17.8045 89.9648 20.1045C89.8648 22.6045 89.7648 25.2046 87.9648 27.3046C87.7648 27.5046 87.5648 27.8045 87.4648 28.1045C86.1648 31.6045 83.3648 33.9046 80.8648 36.5046C80.1648 37.2046 79.1648 37.6045 78.2648 38.1045C76.3648 39.1045 74.5648 40.1046 72.5648 41.2046C72.8648 41.9046 72.9648 42.3046 73.2648 42.7046C76.4648 47.2046 79.7648 51.8046 82.9648 56.3046C84.4648 58.4046 85.7648 60.5046 87.0648 62.7046C88.7648 65.7046 89.2648 69.0045 88.5648 72.4045C88.2648 73.8045 87.9648 75.2046 87.7648 76.6046C87.2648 79.9046 85.2648 82.0046 82.6648 83.8046C79.4648 86.0046 75.9648 87.1045 72.1648 87.5045C69.5648 87.8045 66.9648 88.1045 64.3648 88.4045C60.9648 88.8045 57.6648 88.4046 54.6648 86.7046C53.4648 86.0046 52.3648 86.0045 50.9648 86.4045C48.1648 87.1045 45.4648 88.0046 42.5648 88.3046C39.8648 88.6046 36.9648 88.2046 34.2648 88.2046C28.7648 88.1046 23.7648 86.4046 18.8648 84.2046C13.3648 81.8046 10.5648 77.1046 9.7648 71.3046C9.4648 69.2046 9.5648 67.0046 9.6648 64.8046C9.7648 62.4046 11.0648 60.6046 13.3648 59.7046C15.3648 58.9046 17.3648 58.6046 19.4648 58.8046C20.3648 58.9046 21.3648 59.0046 22.2648 59.1046C22.3648 58.9046 22.4648 58.7046 22.5648 58.6046ZM60.2648 81.5045C61.4648 81.7045 62.1648 82.0045 62.8648 81.9045C64.9648 81.8045 66.9648 81.5046 69.0648 81.3046C72.8648 81.0046 76.3648 79.7045 79.4648 77.5045C80.7648 76.6045 81.7648 75.5045 82.2648 74.0045C82.6648 72.8045 82.9648 71.5046 83.3648 70.3046C84.8648 65.8046 83.4648 62.0046 80.5648 58.6046C76.3648 53.7046 72.0648 48.9046 67.8648 44.0046C66.7648 42.7046 65.5648 42.0045 63.7648 41.9045C62.1648 41.8045 60.4648 41.5045 58.8648 40.9045C56.8648 40.2045 54.8648 39.3046 52.8648 38.5046C50.2648 37.5046 47.9648 36.1045 46.2648 33.9045C45.8648 33.3045 45.3648 32.8045 44.7648 32.4045C42.0648 30.3045 40.0648 27.6046 38.7648 24.4046C38.2648 23.3046 37.6648 22.8045 36.3648 23.1045C35.4648 23.4045 34.4648 23.4045 33.5648 23.7045C32.8648 24.0045 32.0648 24.4046 31.6648 25.0046C29.8648 27.9046 28.1648 30.9045 26.5648 33.9045C25.8648 35.2045 25.4648 36.7046 25.8648 38.0046C28.4648 38.4046 30.8648 38.5045 33.0648 39.1045C38.3648 40.5045 43.1648 43.0046 47.7648 46.0046C54.7648 50.6046 59.9648 56.8046 62.9648 64.6046C65.2648 70.4046 65.4648 76.1045 60.2648 81.5045ZM30.1648 42.6045C30.1648 42.7045 30.0648 42.8045 30.0648 42.9045C29.4648 42.9045 28.7648 43.0046 28.1648 43.0046C27.9648 43.0046 27.6648 43.1045 27.4648 43.1045C25.9648 43.5045 25.4648 44.0046 25.9648 45.5046C26.5648 47.5046 26.9648 49.6046 28.0648 51.3046C30.0648 54.5046 31.8648 57.8046 33.0648 61.3046C33.4648 62.5046 34.1648 63.3046 35.1648 64.1046C38.0648 66.2046 40.9648 68.3046 43.5648 70.7046C45.9648 72.9046 48.0648 75.4046 50.2648 77.8046C51.9648 79.6046 52.4648 79.8046 54.5648 78.6046C56.8648 77.3046 58.7648 75.4046 60.0648 73.1046C60.8648 71.6046 61.4648 70.1046 61.0648 68.3046C59.8648 63.2046 57.1648 58.8046 53.3648 55.3046C48.2648 50.6046 41.9648 47.4046 35.7648 44.3046C34.0648 43.4046 32.0648 43.1045 30.1648 42.6045ZM34.2648 15.8046C33.8648 13.5046 31.9648 12.4045 30.4648 11.1045C26.7648 7.80455 22.5648 6.00455 17.5648 6.70455C13.0648 7.40455 9.3648 9.60455 6.4648 13.2045C5.8648 13.9045 5.2648 14.7045 4.9648 15.6045C3.4648 20.2045 3.9648 24.7045 5.7648 29.1045C7.7648 33.8045 11.6648 36.2045 16.0648 38.1045C16.6648 38.4045 17.3648 38.3046 17.9648 38.3046C18.1648 37.8046 18.3648 37.6045 18.3648 37.4045C19.1648 32.5045 21.9648 28.4046 23.6648 23.9046C23.8648 23.3046 24.2648 22.8046 24.6648 22.3046C27.1648 19.6046 29.8648 17.2045 33.5648 16.2045C33.8648 16.2045 34.0648 16.0046 34.2648 15.8046ZM34.6648 68.2046C34.2648 69.7046 33.8648 70.9046 33.4648 72.1046C32.8648 74.2046 31.5648 76.0045 30.0648 77.5045C28.8648 78.6045 27.2648 78.9046 26.6648 78.1046C26.1648 77.4046 26.5648 76.5045 27.9648 75.4045C29.6648 74.0045 30.0648 72.7046 29.2648 70.6046C28.9648 69.9046 28.4648 69.2045 28.2648 68.4045C27.4648 65.5045 25.3648 64.5045 22.6648 64.0045C18.6648 63.4045 14.8648 65.2045 13.1648 68.9045C12.7648 69.7045 12.6648 71.0045 13.0648 71.9045C14.6648 75.4045 16.9648 78.4046 20.6648 79.8046C27.9648 82.7046 35.4648 84.0045 43.3648 82.0045C44.8648 81.6045 46.3648 81.2046 48.1648 80.6046C44.5648 75.2046 39.7648 71.7046 34.6648 68.2046ZM42.1648 23.0046C42.5648 25.2046 44.6648 28.6045 46.4648 30.6045C50.5648 35.2045 56.1648 36.9045 61.5648 38.9045C61.8648 39.0045 62.3648 38.7045 63.0648 38.6045C60.9648 33.4045 58.1648 29.0046 53.5648 25.8046C50.1648 23.3046 46.3648 22.4046 42.1648 23.0046Z" fill="white"/>
</svg>
