<svg width="86" height="90" viewBox="0 0 86 90" fill="none" xmlns="http://www.w3.org/2000/svg">
<path d="M58.6426 29.0559C60.5426 27.7559 62.2426 26.6559 63.9426 25.4559C67.3426 23.0559 70.6426 20.4559 74.0426 18.1559C76.0426 16.8559 78.1426 15.6559 80.3426 14.6559C81.3426 14.2559 82.6426 14.2559 83.6426 14.5559C85.5426 15.1559 85.8426 17.2559 84.3426 18.4559C79.6426 22.3559 74.9426 26.2559 70.0426 29.8559C68.1426 31.3559 65.7426 32.2559 63.5426 33.3559C62.3426 33.9559 61.4426 33.4559 60.7426 32.5559C60.0426 31.5559 59.4426 30.4559 58.6426 29.0559Z" fill="black"/>
<path d="M50.2422 56.0559C50.9422 56.9559 51.7422 57.7559 52.3422 58.6559C56.3422 65.3559 60.3422 72.0559 63.5422 79.1559C64.4422 81.2559 64.0422 83.3559 63.6422 85.3559C63.5422 85.8559 62.7422 86.4559 62.1422 86.6559C61.9422 86.7559 61.2422 86.2559 60.9422 85.8559C57.7422 80.5559 54.5422 75.2559 51.4422 69.8559C50.1422 67.5559 49.8422 65.0559 49.9422 62.3559C50.0422 60.3559 49.8422 58.2559 49.7422 56.2559C50.0422 56.2559 50.1422 56.1559 50.2422 56.0559Z" fill="black"/>
<path d="M24.6424 55.0559C24.9424 55.4559 25.0424 55.4559 25.0424 55.5559C23.0424 61.9559 20.2424 67.6559 13.3424 70.2559C11.3424 71.0559 9.44238 71.8559 7.44238 72.7559C6.34238 73.2559 5.44238 73.2559 4.54238 72.3559C3.64238 71.4559 3.14238 70.3559 3.74238 69.2559C4.54238 67.8559 5.34238 66.5559 6.44238 65.3559C9.54238 62.1559 13.6424 60.6559 17.4424 58.4559C18.9424 57.5559 20.5424 56.8559 22.1424 56.0559C22.9424 55.6559 23.8424 55.3559 24.6424 55.0559Z" fill="black"/>
<path d="M71.343 47.0561C72.543 47.3561 74.843 47.9561 77.043 48.6561C77.943 48.9561 79.043 49.3561 79.443 50.0561C80.343 51.6561 81.043 53.3561 81.443 55.1561C81.743 56.3561 80.343 57.3561 78.843 57.1561C73.143 56.3561 67.643 54.6561 62.443 52.1561C60.943 51.3561 59.843 48.4561 60.243 46.7561C60.543 45.4561 61.643 45.1561 62.743 45.3561C65.343 45.7561 67.843 46.3561 71.343 47.0561Z" fill="black"/>
<path d="M50.543 24.756C48.943 23.056 48.343 21.756 48.543 19.856C48.843 17.456 48.543 15.056 48.743 12.756C49.143 9.55602 49.643 6.25602 50.343 3.15602C50.743 1.35602 52.443 0.556021 54.243 0.656021C55.943 0.756021 57.743 1.75602 58.143 3.35602C58.443 4.75602 58.743 6.45602 58.343 7.75602C56.643 12.256 54.643 16.556 52.743 20.956C52.243 22.056 51.443 23.156 50.543 24.756Z" fill="black"/>
<path d="M37.6426 59.9561C37.5426 65.7561 37.1426 71.3561 34.5426 76.5561C33.0426 79.6561 32.2426 83.2561 31.1426 86.5561C30.9426 87.1561 30.8426 87.7561 30.6426 88.3561C30.3426 89.2561 29.6426 90.1561 28.7426 89.8561C28.0426 89.6561 27.1426 88.7561 27.0426 88.1561C26.9426 85.9561 26.8426 83.6561 27.3426 81.5561C28.5426 77.1561 30.2426 72.9561 32.4426 69.0561C33.6426 66.9561 34.4426 64.7561 35.5426 62.5561C36.1426 61.6561 36.9426 60.8561 37.6426 59.9561Z" fill="black"/>
<path d="M34.543 20.556C32.143 21.856 31.943 21.856 30.643 20.356C26.343 15.656 22.343 10.756 19.243 5.15598C18.143 3.15598 18.243 1.85598 19.643 0.655979C20.943 -0.344021 22.843 -0.244021 24.143 1.25598C25.143 2.45598 25.943 3.85598 26.743 5.25598C29.343 10.256 31.943 15.356 34.543 20.556Z" fill="black"/>
<path d="M25.0423 28.9559C24.9423 32.4559 22.2423 33.4559 19.2423 32.3559C15.3423 30.8559 11.3423 29.1559 7.44234 27.5559C6.24234 27.0559 4.94234 26.4559 4.04234 25.5559C2.54234 24.0559 2.84234 23.0559 4.74234 22.1559C6.34234 21.3559 7.84234 21.2559 9.54234 21.9559C14.3423 24.0559 19.3423 25.6559 23.8423 28.3559C24.2423 28.4559 24.6423 28.7559 25.0423 28.9559Z" fill="black"/>
<path d="M22.7431 42.2561C20.4431 44.9561 18.0431 46.9561 14.8431 47.2561C10.5431 47.6561 6.14313 47.7561 1.84313 47.8561C0.443133 47.9561 -0.556867 46.3561 0.343133 45.0561C1.34313 43.5561 2.54313 41.9561 4.54313 41.6561C9.94313 40.9561 15.3431 40.3561 20.6431 41.6561C21.1431 41.7561 21.6431 41.9561 22.7431 42.2561Z" fill="black"/>
</svg>
