<svg width="888" height="387" viewBox="0 0 888 387" fill="none" xmlns="http://www.w3.org/2000/svg">
<g clip-path="url(#clip0)">
<rect width="888" height="387" fill="white"/>
<path d="M147.032 39.1945H166.387C168.035 38.3663 167.696 36.1025 169.334 34.4563C170.773 33.011 171.469 32.2719 173.199 31.1658C174.9 30.0783 176.537 30.3185 178.177 29.5864C182.731 27.5527 191.327 27.6538 195.632 30.08C205.57 35.6817 211.188 45.0666 211.188 56.3376C211.188 63.7541 208.691 75.7966 198.546 73.2833C195.712 72.581 193.125 70.9466 190.687 69.4006C186.715 66.8828 182.346 65.2989 177.784 64.2017C168.067 61.865 156.897 62.3767 147.589 58.7396C144.815 57.6559 138.092 55.7158 138.092 51.8955C138.092 48.8914 138.411 44.8475 140.581 42.6165C142.745 40.3911 144.008 39.1945 147.032 39.1945Z" stroke="#E0E0E0" stroke-linecap="round" stroke-linejoin="round"/>
<path d="M790.668 122.26L773.029 114.291C771.186 114.367 770.564 116.57 768.393 117.396C766.487 118.121 765.548 118.508 763.516 118.803C761.518 119.094 760.125 118.201 758.33 118.193C753.342 118.172 745.549 114.54 742.626 110.557C735.875 101.361 734.619 90.4952 739.26 80.2238C742.313 73.465 749.546 63.5181 757.756 69.9853C760.051 71.7925 761.735 74.3466 763.321 76.7596C765.903 80.6892 769.233 83.9316 772.939 86.8096C780.831 92.9393 791.222 97.0718 798.207 104.219C800.289 106.348 805.617 110.884 804.044 114.366C802.807 117.103 800.852 120.657 797.956 121.797C795.067 122.934 793.424 123.505 790.668 122.26Z" stroke="#E0E0E0" stroke-linecap="round" stroke-linejoin="round"/>
<path d="M839.543 341.573C826.685 348.162 803.754 355.449 780.21 352.925C757.334 350.473 731.024 342.017 710.867 332.724C695.953 325.849 680.374 317.233 662.424 315.293C649.212 313.866 640.794 318.357 626.188 315.537C605.045 311.454 593.705 303.112 577.595 294.064C572.16 291.012 565.673 289.864 559.145 288.183C545.342 284.63 533.266 280.963 519.932 280.786C499.38 280.513 484.331 273.523 466.243 264.876C448.313 256.305 437.468 257.268 422.757 260.556C403.698 264.815 379.946 264.501 355.633 262.332C345.772 261.452 328.441 258.693 320.261 253.531C312.855 248.857 309.845 242.953 306.337 237.894C301.742 231.269 297.573 225.719 285.448 220.856C271.59 215.299 259.15 215.403 245.448 214.736C227.284 213.852 209.578 210.722 190.854 205.902C180.027 203.115 165.583 200.241 158.327 193.874C139.504 177.358 183.403 154.426 142.794 139.666C120.667 131.624 96.4858 128.825 75.9455 118.672C53.9041 107.776 32.0314 92.7621 33.786 79.3201C35.9435 62.7918 70.9217 65.6123 98.7632 68.8113C117.483 70.9622 139.315 75.4339 155.023 84.3388C164.381 89.644 171.934 96.3995 184.252 99.2164C200.702 102.978 214.468 100.238 228.143 99.1162C249.616 97.354 270.564 96.4234 295.382 104.722C331.76 116.887 354.315 140.83 387.305 155.666C396.874 159.97 408.054 165.014 419.279 166.639C432.806 168.597 443.636 167.648 457.896 170.663C487.798 176.985 515.396 187.734 544.272 186.591C554.321 186.193 556.391 186.554 559.079 192.752C562.381 200.368 569.026 209.081 580.696 215.851C602.781 228.663 637.917 231.715 660.096 230.07C684.051 228.293 712.108 225.11 739.529 228.503C761.548 231.228 788.458 240.037 807.172 249.615C821.085 256.737 836.27 264.038 845.697 272.847C853.884 280.497 853.387 287.799 851.687 294.403C850.973 297.176 847.363 302.592 851.146 305.75C855.444 309.337 862.395 311.001 864.532 314.939C866.213 318.036 868.838 321.537 868.592 324.425C868.152 329.577 869.62 336.144 864.665 340.034C858.623 344.778 849.263 344.075 836.452 340.777" stroke="#E0E0E0" stroke-linecap="round" stroke-linejoin="round"/>
<path opacity="0.5" d="M715.584 286.877C707.039 277.281 690.921 264.496 672.4 261.068C654.404 257.737 632.597 259.368 615.335 263.345C602.562 266.288 588.938 270.751 574.814 268.153C564.419 266.24 558.86 259.786 547.123 258.875C530.133 257.556 519.807 262.813 505.691 267.562C500.93 269.164 495.737 268.659 490.409 268.659C479.142 268.659 469.175 269.2 458.932 266.044C443.145 261.18 430.247 264.2 414.696 268.068C399.281 271.902 391.168 268.263 380.555 261.405C366.804 252.521 348.559 246.899 329.519 242.934C321.796 241.326 307.985 239.677 300.706 242.639C294.116 245.321 290.648 250.293 286.965 254.32C282.142 259.596 277.857 263.935 267.616 265.622C255.913 267.551 246.41 264.346 235.789 261.574C221.71 257.898 207.538 256.513 192.254 256.513C183.417 256.513 171.793 255.695 164.983 260.056C147.319 271.367 176.406 304.548 142.41 308.722C123.885 310.996 104.823 307.674 87.0973 312.39C68.0766 317.451 48.3735 326.546 47.0676 340.013C45.4619 356.571 72.7946 362.566 94.7387 366.412C109.493 368.998 127.088 370.112 140.867 365.4C149.077 362.593 156.191 357.93 166.175 358.273C179.51 358.731 189.508 364.822 199.755 369.322C215.847 376.388 231.699 382.517 252.334 380.666C282.58 377.953 304.565 360.373 332.744 354.225C340.917 352.441 350.47 350.342 359.383 351.568C370.124 353.045 378.228 356.667 389.739 357.303C413.875 358.637 437.121 355.105 459.002 363.418C466.616 366.311 468.272 366.477 471.551 361.141C475.579 354.583 482.384 347.796 492.652 344.146C512.084 337.238 539.582 343.048 556.237 350.176C574.226 357.876 595.076 367.961 616.737 371.515C634.13 374.368 656.466 372.545 672.68 367.93C684.735 364.5 697.798 361.212 706.751 355.026C714.526 349.654 715.584 342.452 715.584 335.627C715.584 332.76 713.888 326.61 717.407 324.494C721.404 322.09 727.053 322.211 729.465 318.927C731.362 316.344 734.062 313.606 734.442 310.746C735.121 305.642 737.539 299.643 734.513 294.636C730.822 288.531 723.518 286.877 713.061 286.877" stroke="#E0E0E0" stroke-linecap="round" stroke-linejoin="round"/>
<path opacity="0.5" d="M84.3539 276.428C61.8274 279.063 49.7051 286.576 39.3119 293.952L34.9002 296.268C22.1811 296.268 13.2979 312.915 8.80909 317.608C5.12797 321.457 8.06882 326.069 8.89435 329.993C9.35702 332.192 12.6409 334.296 14.9482 336.282C17.882 338.806 24.7529 338.713 29.6138 340.561C33.8936 342.189 31.8306 346.916 31.8306 349.12C31.8306 354.367 33.118 359.903 42.574 364.033C53.463 368.788 69.3518 371.316 84.0128 373.953C103.733 377.501 130.9 378.902 152.054 376.709C178.399 373.977 203.759 366.224 225.638 360.305C245.894 354.825 263.48 354.995 287.114 360.305C299.603 363.111 323.738 363.692 328.638 368.734C332.626 372.836 334.64 372.708 343.901 370.484C370.513 364.094 398.786 366.809 428.142 365.783C442.142 365.295 451.998 362.51 465.062 361.374C475.855 360.437 487.418 362.031 497.33 363.399L497.463 363.417C531.735 368.144 558.475 381.658 595.262 383.744C620.359 385.167 639.64 380.455 659.211 375.023C671.674 371.564 683.835 366.881 700.052 366.529C712.196 366.265 720.849 369.85 730.833 372.008C747.593 375.63 768.992 374.774 786.938 372.786C813.627 369.829 846.871 365.221 844.918 352.492C843.329 342.139 832.134 330.235 809 326.344C787.442 322.719 786.938 310.585 759 296.747C717 282.263 722.986 284.345 701.502 275.65C693.22 272.297 679.082 272.926 668.334 272.926C649.745 272.926 632.509 273.991 615.384 276.817C602.467 278.948 590.909 281.412 576.674 279.929C564.219 278.632 559.007 275.296 553.141 271.241C548.662 268.144 544.444 264.322 536.429 262.26C527.575 259.983 510.777 261.251 501.385 262.487C478.228 265.535 456.037 269.857 439.312 276.687C426.403 281.959 416.536 284.757 397.788 281.809C378.874 278.836 363.187 276.514 343.986 280.253C331.528 282.679 319.405 282.263 305.702 282.263C299.221 282.263 292.905 282.652 287.114 281.42C269.945 277.769 257.387 273.728 236.722 274.742C222.447 275.442 215.686 280.404 203.043 281.874C185.865 283.872 169.294 280.44 153.76 278.178C132.764 275.121 106.241 273.867 84.3539 276.428Z" fill="#EFF2F4"/>
<path d="M344.817 361.129C345.057 361.31 345.353 361.415 345.676 361.415H363.28C364.073 361.415 364.74 360.748 364.74 359.954C364.74 359.16 364.073 358.494 363.28 358.494H346.128L314.622 334.999C313.988 334.522 313.068 334.649 312.592 335.284C312.117 335.919 312.243 336.84 312.878 337.316L344.724 361.065C344.755 361.088 344.785 361.109 344.817 361.129ZM450.541 361.381C451.303 361.381 451.969 360.746 451.969 359.952C451.969 359.158 451.334 358.523 450.541 358.523H400.139C399.346 358.523 398.711 359.158 398.711 359.952C398.711 360.746 399.346 361.381 400.139 361.381H450.541Z" fill="#FFCB3D"/>
<path d="M314.464 334.896C314.518 334.926 314.571 334.96 314.621 334.998L346.127 358.493H363.279C363.332 358.493 363.384 358.496 363.435 358.502C363.453 358.4 363.465 358.3 363.47 358.205C363.438 357.983 363.438 357.729 363.375 357.475C363.216 356.903 362.962 356.364 362.677 355.887C361.757 354.427 360.108 353.411 360.108 353.411C358.204 352.173 356.46 351.347 354.398 350.458C353.319 349.982 351.797 349.347 350.021 348.648C349.45 346.807 348.879 344.965 348.308 343.092C347.229 339.504 346.151 335.948 345.104 332.392L326.009 318.518L314.464 334.896ZM399.523 358.66C399.709 358.572 399.917 358.523 400.138 358.523H450.54C450.687 358.523 450.828 358.544 450.961 358.585C451.013 358.472 451.053 358.352 451.08 358.226V358.194C451.08 358.036 451.111 357.877 451.08 357.718C451.048 357.528 451.048 357.369 450.984 357.178C450.572 355.75 449.462 354.543 448.732 353.876C448.637 353.781 448.574 353.749 448.479 353.686C447.083 352.829 445.656 352.035 444.165 351.368C441.247 350.035 434.776 347.304 432.841 346.32C430.335 345.05 426.878 342.891 423.261 339.017C423.071 338.922 418.405 333.44 418.405 333.44C405.74 337.864 399.408 340.086 399.408 340.108V358.067C399.408 358.278 399.449 358.478 399.523 358.66Z" fill="#474961"/>
<path d="M376.71 308.023C381.124 316.356 386.278 326.614 392.173 338.798C393.234 340.991 395.778 342.029 398.069 341.202L421.691 332.675C421.83 332.625 421.966 332.569 422.1 332.506C424.478 331.387 425.501 328.551 424.383 326.17L401.576 277.574C402.038 276.947 402.491 276.324 402.935 275.706C402.963 275.649 403.006 275.635 403.033 275.578C407.999 268.642 406.635 259.216 399.96 254.756C397.749 253.289 395.538 251.821 393.328 250.353C390.482 248.474 387.144 247.802 383.898 248.243C382.276 247.227 380.402 246.392 378.272 245.936C376.117 245.482 374.1 245.504 372.246 245.797L298.144 245.418C295.734 271.909 300.02 285.943 311.002 287.52C318.792 288.639 330.244 288.943 345.358 288.433C338.477 296.962 331.604 305.681 324.911 314.438C324.435 315.053 323.4 316.526 323.403 318.4C323.421 321.835 327.037 323.459 335.023 328.7C344.408 334.906 347.94 338.291 351.567 336.635C352.767 336.126 353.482 335.31 353.776 334.923C357.721 329.589 366.77 319.501 376.71 308.023Z" fill="#A339FF"/>
<path opacity="0.176986" d="M376.647 308.256C373.787 302.851 371.236 298.252 368.994 294.458C367.528 291.977 366.14 289.637 364.876 287.52C357.836 287.971 351.356 288.298 345.435 288.5C338.532 297.055 331.638 305.799 324.924 314.583C324.448 315.199 323.413 316.672 323.417 318.545C323.435 321.98 327.05 323.604 335.037 328.845C344.421 335.051 347.954 338.436 351.581 336.781C352.781 336.271 353.496 335.455 353.79 335.069C357.725 329.748 366.737 319.697 376.647 308.256V308.256ZM401.513 277.825C402.001 277.162 402.48 276.504 402.949 275.852C402.977 275.795 403.019 275.78 403.047 275.723C408.013 268.787 406.648 259.361 399.973 254.902C397.762 253.434 395.552 251.966 393.341 250.498C390.484 248.611 387.131 247.942 383.872 248.394C388.619 251.413 391.185 255.953 391.698 256.913L401.513 277.825Z" fill="#444444"/>
<path d="M355.055 226.176C357.913 225.873 361.992 225.461 367.291 224.94C368.558 224.783 369.761 223.458 369.679 222.078C369.936 218.727 367.707 212.098 367.221 210.694C366.111 207.551 364.113 201.487 363.383 198.693C361.353 190.787 358.847 187.834 357.991 186.977C357.008 185.961 356.056 185.262 355.422 184.818C351.139 181.865 346.603 181.421 344.288 181.357C344.224 181.325 344.161 181.325 344.098 181.325L338.911 181.252C336.213 180.623 333.562 180.421 331.399 180.258C328.234 180.037 324.966 179.805 321.743 180.217L312.917 180.341C312.854 180.341 312.79 180.341 312.727 180.373C310.411 180.436 305.875 180.881 301.593 183.834C300.959 184.278 300.007 184.977 299.024 185.993C298.167 186.85 295.662 189.803 293.632 197.709C292.902 200.503 290.904 206.567 289.793 209.71C289.449 210.706 288.713 213.919 287.585 219.351C287.49 219.497 287.424 219.656 287.392 219.825C287.369 219.969 287.372 220.111 287.399 220.25C287.338 220.543 287.277 220.841 287.214 221.146C287.474 221.151 287.733 221.156 287.99 221.162C288.35 221.451 288.844 221.654 289.407 221.71L298.011 222.623C296.623 231.219 296.459 238.428 297.237 242.935C297.237 243.035 297.272 243.168 297.308 243.268C297.484 244.299 352.248 245.53 352.636 245.164C356.157 242.004 355.383 234.452 355.383 234.452C355.272 231.494 355.163 228.739 355.055 226.176Z" fill="url(#paint0_linear)"/>
<path d="M334.011 188.323L328.787 185.2L325.23 188.949L325.234 188.982C325.324 189.731 325.838 190.327 326.506 190.557L326.986 223.206C326.988 223.296 327.027 223.381 327.095 223.44L332.067 227.785C332.198 227.899 332.396 227.887 332.511 227.758L337.016 222.747C337.078 222.678 337.107 222.585 337.095 222.493L332.814 189.901C333.473 189.643 333.939 189.031 334.011 188.323Z" fill="#F3019E"/>
<path opacity="0.176986" d="M328.223 179.798C330.035 180.121 336.717 180.196 336.908 182.376C337.035 183.829 336.966 186.348 336.703 189.933L328.785 185.199L322.966 191.334C319.56 185.889 319.016 182.49 321.334 181.136C324.81 179.105 326.412 179.476 328.223 179.798Z" fill="#8C2A00"/>
<path d="M322.041 172.965L323.598 182.748C323.64 182.966 323.776 183.166 323.981 183.224C324.888 183.565 326.149 183.902 327.641 183.935C330.341 184.024 332.467 183.157 333.64 182.541C333.877 182.43 334.015 182.145 333.967 181.895L333.026 176.409C334.785 176.7 334.682 176.657 334.852 176.679C336.911 176.796 338.58 176.407 338.879 176.284C339.982 175.972 340.984 174.807 341.734 173.012C342.755 170.614 343.39 167.062 343.306 162.97C343.322 162.385 343.244 161.818 343.166 161.251L342.207 155.648C341.996 154.395 341.449 153.24 340.633 152.202C340.287 151.752 339.959 151.395 339.582 151.113C337.234 149.065 334.344 148.758 332.101 148.941C330.903 149.018 329.84 149.233 329.09 149.465C328.816 149.55 327.844 149.869 326.43 150.241C325.664 150.455 325.041 150.576 324.673 150.68C320.07 151.77 318.124 151.566 316.031 153.267C315.637 153.57 314.75 154.325 314.09 155.585C312.229 159.149 313.596 163.024 313.981 164.178C315.232 167.622 317.711 169.404 318.509 170.186C319.464 171.138 320.976 172.235 322.041 172.965ZM367.951 237.865L366.195 225.037L358.271 225.801L354.917 226.171L355.12 233.469C353.821 233.271 352.651 233.203 351.608 233.264C343.956 231.453 321.721 226.286 309.116 224.356L309.184 223.722L289.185 221.601C288.623 221.544 288.129 221.341 287.769 221.052C287.658 221.05 287.546 221.047 287.435 221.045C286.215 230.549 287.196 242.438 298.562 245.765H349.795C349.791 245.78 349.786 245.795 349.781 245.81H373.286C373.416 242.713 371.638 240.064 367.951 237.865Z" fill="#DB9E75"/>
<path opacity="0.2" d="M367.959 237.91L366.197 225.037L354.919 226.125L355.138 233.45C358.579 234.019 361.062 234.569 362.586 235.099C364.11 235.629 365.901 236.566 367.959 237.91Z" fill="#8C2A00"/>
<path d="M308.425 223.788C308.371 224.045 308.536 224.298 308.793 224.352C309.05 224.406 309.302 224.241 309.356 223.983C309.856 221.596 311.819 213.643 313.664 206.334C313.729 206.079 313.574 205.82 313.319 205.755C313.065 205.691 312.806 205.845 312.742 206.1C310.891 213.431 308.929 221.381 308.425 223.788ZM354.543 225.799C354.585 226.059 354.829 226.235 355.088 226.194C355.348 226.152 355.524 225.907 355.482 225.648C355.094 223.239 354.079 215.11 353.185 207.625C353.154 207.364 352.917 207.177 352.656 207.209C352.395 207.24 352.209 207.477 352.24 207.738C353.137 215.245 354.151 223.371 354.543 225.799Z" fill="#482D1F"/>
<path d="M333.1 176.434L328.269 175.338L333.537 179.227L333.1 176.434Z" fill="#482D1F"/>
<path d="M339.844 162.412C339.978 162.936 340.241 163.79 340.613 164.042C341.233 164.406 341.615 162.714 341.023 161.827C340.789 161.452 340.558 161.432 340.315 161.512C339.954 161.647 339.771 162.038 339.844 162.412ZM334.252 163.403C334.323 163.939 334.493 164.812 334.877 165.125C335.447 165.564 336.028 163.898 335.523 162.962C335.32 162.581 335.084 162.529 334.835 162.578C334.461 162.651 334.21 163.023 334.252 163.403Z" fill="#482D1F"/>
<path d="M338.052 169.326C337.822 169.306 337.263 169.253 337.103 168.929C337.091 168.866 337.042 168.779 337.061 168.711C337.143 168.468 337.541 168.52 338.107 168.442C339.115 168.311 339.907 168.06 339.907 168.06C339.907 168.06 339.81 168.726 339.69 168.943C339.439 169.477 338.382 169.359 338.052 169.326Z" fill="#482D1F"/>
<path d="M338.953 162.651L338.942 162.608L338.949 162.629L338.953 162.651ZM340.057 165.853C340.184 166.193 339.978 166.591 339.635 166.719C339.559 166.741 339.559 166.741 339.509 166.755C338.992 166.898 338.666 166.977 338.102 167.087C337.93 167.12 337.763 167.008 337.73 166.835C337.697 166.663 337.809 166.497 337.981 166.463C338.527 166.357 338.838 166.282 339.341 166.143L339.44 166.115C339.44 166.114 339.462 166.073 339.46 166.067L338.342 162.815L338.331 162.772L337.973 160.933C337.94 160.761 338.052 160.594 338.224 160.561C338.396 160.527 338.563 160.64 338.596 160.812L338.949 162.629L340.057 165.853Z" fill="#482D1F"/>
<path d="M319.095 163.911C319.13 164.852 319.487 165.815 320.057 166.534C320.756 167.444 321.571 167.855 322.569 168.1C322.739 168.142 322.843 168.314 322.801 168.484C322.76 168.654 322.588 168.759 322.418 168.717C321.979 168.609 321.625 168.492 321.199 168.277C320.572 167.961 320.013 167.519 319.557 166.925C318.907 166.104 318.501 165.012 318.461 163.935C318.455 163.76 318.591 163.612 318.766 163.606C318.942 163.599 319.089 163.736 319.095 163.911Z" fill="#482D1F"/>
<path d="M319.08 163.803C319.081 163.227 319.197 162.641 319.456 162.078C320.18 160.481 321.896 159.339 323.488 159.547C324.383 159.663 325.071 160.209 325.145 160.259C325.442 160.513 325.687 160.783 325.886 161.038L342.393 156.575C342.029 152.989 340.214 150.612 336.947 149.443C336.065 149.128 333.686 148.663 331.615 148.932C328.418 149.347 325.345 150.227 324.481 150.461C323.777 150.662 322.577 150.783 322.252 150.878C318.726 151.215 316.054 152.781 315.138 153.599C314.795 153.892 313.995 154.63 313.435 155.871C311.68 159.641 313.04 163.549 313.497 164.43C313.816 165.047 314.259 165.414 314.259 165.414C315.579 165.088 317.185 164.551 319.08 163.803ZM341.845 159.727C342.144 159.604 342.159 159.181 341.898 159.005C341.57 158.81 341.023 158.658 340.4 158.779C339.124 159.027 337.917 160.135 339.422 160.231C340.311 160.316 341.283 159.998 341.845 159.727ZM335.473 161.193C335.772 161.07 335.787 160.647 335.495 160.477C335.167 160.282 334.62 160.13 333.966 160.257C332.69 160.505 331.489 161.645 332.988 161.709C333.945 161.814 334.874 161.439 335.473 161.193Z" fill="#482D1F"/>
<path d="M471.196 293.005H446.521C445.773 293.005 445.118 292.381 445.118 291.633V291.477C445.118 290.728 445.773 290.104 446.584 290.104H469.448C483.298 290.104 497.148 290.104 510.966 290.104H532.178C532.926 290.104 533.581 290.728 533.581 291.477V291.633C533.581 292.381 532.958 293.005 532.178 293.005H502.076L510.374 308.228C516.269 319.083 522.165 329.907 528.091 340.762L537.855 358.667C538.198 359.291 537.917 360.102 537.262 360.476L537.137 360.538C536.482 360.881 535.64 360.694 535.328 360.102L498.801 293.005H474.471L437.943 360.102C437.631 360.694 436.789 360.913 436.134 360.538L436.009 360.476C435.354 360.102 435.074 359.291 435.417 358.667L445.18 340.762C451.076 329.907 456.971 319.083 462.898 308.228L471.196 293.005ZM445.211 280.781V262.645C445.211 248.812 445.211 235.012 445.211 221.211V204.729C445.211 202.145 447.306 200.05 449.89 200.05H500.797C503.382 200.05 505.476 202.145 505.476 204.729V280.835C505.476 283.419 503.382 285.514 500.797 285.514C500.796 285.514 500.794 285.514 500.793 285.514L449.885 285.46C447.303 285.458 445.211 283.364 445.211 280.781Z" fill="#D8DEED"/>
<path d="M708.738 291.699V291.757C708.738 292.505 708.083 293.129 707.334 293.129H683.783L692.081 308.351C698.008 319.207 703.903 330.031 709.799 340.886L719.562 358.791C719.905 359.415 719.624 360.226 718.969 360.6L718.845 360.662C718.189 361.037 717.347 360.818 717.035 360.226L680.508 293.129H656.178L619.65 360.226C619.338 360.818 618.496 361.005 617.841 360.662L617.716 360.6C617.061 360.226 616.781 359.415 617.124 358.791L626.887 340.886C632.814 330.031 638.709 319.207 644.605 308.351L652.903 293.129H621.678C620.898 293.129 620.274 292.505 620.274 291.757V291.601C620.274 290.852 620.929 290.228 621.678 290.228H642.889C656.708 290.228 670.558 290.228 684.407 290.228H705.984L708.613 268.955C710.422 254.481 712.2 239.976 714.01 225.471L716.973 201.515C717.066 200.673 717.784 200.049 718.564 200.143L718.72 200.174C719.468 200.267 719.999 201.047 719.905 201.827L708.769 291.538C708.761 291.593 708.751 291.646 708.738 291.699Z" fill="#D8DEED"/>
<path d="M708.816 291.728V291.787C708.816 292.537 708.16 293.162 707.411 293.162H683.846L692.149 308.411C698.079 319.285 703.978 330.129 709.877 341.003L719.646 358.94C719.989 359.565 719.708 360.377 719.053 360.752L718.928 360.815C718.273 361.19 717.43 360.971 717.118 360.377L680.569 293.162H656.224L619.675 360.377C619.363 360.971 618.521 361.159 617.865 360.815L617.74 360.752C617.085 360.377 616.804 359.565 617.147 358.94L626.917 341.003C632.847 330.129 638.746 319.285 644.645 308.411L652.947 293.162H621.704C620.924 293.162 620.3 292.537 620.3 291.787V291.63C620.3 290.88 620.955 290.255 621.704 290.255H642.928C656.755 290.255 670.613 290.255 684.471 290.255H706.06L708.691 268.944C710.501 254.444 712.28 239.914 714.09 225.383L717.055 201.384C717.149 200.541 717.867 199.916 718.647 200.009L718.803 200.041C719.552 200.134 720.083 200.916 719.989 201.697L708.847 291.568C708.839 291.622 708.828 291.676 708.816 291.728Z" fill="#D8DEED"/>
<path d="M524.621 360.756H475.055C474.275 360.756 473.651 360.132 473.651 359.352C473.651 358.573 474.275 357.949 475.055 357.949H524.621C525.401 357.949 526.025 358.573 526.025 359.352C526.025 360.132 525.401 360.756 524.621 360.756ZM433.787 360.756C433.007 360.756 432.383 360.216 432.383 359.568V359.136C432.383 358.489 433.038 357.949 433.787 357.949H465.759C466.539 357.949 467.163 358.489 467.163 359.136V359.568C467.163 360.216 466.508 360.756 465.759 360.756H433.787Z" fill="#A20ED3"/>
<path d="M525.114 358.036C524.962 357.98 524.796 357.949 524.623 357.949H475.058C474.832 357.949 474.619 358.001 474.431 358.095C474.392 357.96 474.371 357.817 474.371 357.668L475.463 340.419C475.401 339.483 476.118 338.765 477.023 338.734L496.893 338.609C497.236 338.609 497.548 338.703 497.829 338.921C501.385 342.727 504.785 344.848 507.249 346.096C509.152 347.063 515.515 349.745 518.385 351.055C519.851 351.71 521.255 352.49 522.627 353.333C522.721 353.395 522.783 353.426 522.877 353.52C523.594 354.175 524.686 355.36 525.091 356.764C525.154 356.951 525.154 357.107 525.185 357.294C525.216 357.45 525.185 357.606 525.185 357.762V357.793C525.167 357.877 525.144 357.958 525.114 358.036ZM465.942 357.959C465.883 357.952 465.823 357.949 465.762 357.949H433.789C433.788 357.949 433.786 357.949 433.785 357.949L441.026 338.641L463.36 341.666L465.942 357.959Z" fill="#474961"/>
<path d="M473.88 284.807C472.802 285.589 471.861 286.271 471.058 286.85L470.657 293.473C470.47 296.975 470.252 300.052 470.002 302.762C469.815 304.894 467.413 329.046 466.54 337.909C466.353 339.919 465.011 341.625 463.171 342.173C460.395 343.026 439.558 342.051 438.778 341.686C437.78 341.229 437.25 341.016 436.719 340.498C434.848 338.731 434.972 335.929 434.941 334.894C434.754 327.067 434.193 303.524 434.193 287.047C434.193 286.993 434.193 286.938 434.193 286.885C432.136 285.119 430.318 282.464 428.895 279.167C426.73 274.186 425.41 267.708 425.373 260.677C425.373 260.59 425.373 256.358 425.373 247.981C425.373 247.949 425.373 247.949 425.373 247.916C425.41 245.605 427.611 243.782 430.215 243.782H459.01C463.009 243.912 466.97 244.042 470.969 244.172C477.192 244.337 486.046 244.579 497.53 244.897C502.021 245.022 506.078 247.611 508.081 251.632C509.036 253.548 509.616 255.122 509.822 256.356C511.056 258.537 511.739 261.086 511.676 263.8C511.676 263.861 511.676 263.892 511.676 263.952C511.177 288.962 505.344 324.591 504.939 336.639C504.907 337.095 504.783 338.099 504.128 339.164C502.1 342.42 497.359 341.69 486.285 341.964C476.865 342.207 473.059 342.937 471.125 340.26C470.065 338.799 470.096 337.126 470.127 336.365C471.002 319.046 472.33 301.541 473.88 284.807Z" fill="#474BFF"/>
<path opacity="0.176986" d="M473.87 284.922C472.788 285.707 471.849 286.387 471.052 286.962L472.249 267.189C472.28 265.818 472.436 257.534 466.228 252.265C461.705 248.458 456.216 248.215 452.566 248.062C446.951 247.819 442.584 249.402 441.742 249.707C440.681 250.103 440.151 250.316 439.621 250.59C433.569 253.758 434.037 268.986 434.1 271.757C434.161 275.206 434.192 280.545 434.193 286.756C432.197 284.991 430.432 282.385 429.043 279.167C426.879 274.186 425.558 267.708 425.521 260.677C425.521 260.59 425.521 256.358 425.521 247.981C425.521 247.949 425.521 247.949 425.521 247.916C425.558 245.605 427.759 243.782 430.363 243.782H459.159C463.157 243.912 467.119 244.042 471.117 244.172C477.34 244.337 486.194 244.579 497.679 244.897C502.17 245.022 506.226 247.611 508.23 251.632C509.281 253.741 509.878 255.437 510.021 256.719C507.644 252.22 502.959 249.183 497.578 249.287C494.957 249.348 492.368 249.409 489.748 249.47C482.73 249.652 476.897 255.099 476.148 262.218C475.356 269.557 474.589 277.157 473.87 284.922Z" fill="#444444"/>
<path d="M465.97 179.203C468.411 179.248 472.251 179.71 476.045 181.915C476.699 182.288 477.665 182.911 478.723 183.813C479.627 184.591 482.274 187.174 484.796 194.455C485.699 197.007 488.346 201.986 489.872 204.724C490.37 205.627 489.779 206.747 488.72 206.84C485.382 207.08 481.265 208.45 477.375 208.457C477.696 214.278 477.921 221.221 478.007 228.965C478.007 228.965 478.505 238.181 475.64 241.169C475.145 241.694 465.841 241.147 455.959 241.461C445.362 241.797 434.073 242.889 431.446 240.136C427.199 235.683 429.627 234.477 433.525 209.111C432.915 209.174 432.346 209.23 431.84 209.276C427.902 209.65 419.655 209.401 415.687 209.245C414.633 209.214 413.951 208.028 414.385 207.03C415.687 204.005 417.981 198.547 418.663 195.771C420.616 187.849 423.066 184.949 423.903 184.075C424.864 183.077 425.828 182.398 426.414 181.923C428.377 180.331 434.568 179.183 444.985 178.478C449.475 176.948 454.602 177.387 457.921 177.683C460.242 177.894 463.167 178.154 465.97 179.203Z" fill="#A20ED3"/>
<path opacity="0.176986" d="M466.073 179.212C468.525 179.292 472.203 179.808 475.838 181.922C476.493 182.296 477.46 182.92 478.52 183.825C479.425 184.605 482.076 187.194 484.603 194.493C485.507 197.051 488.346 201.974 489.874 204.719C490.373 205.623 489.781 206.746 488.72 206.84C487.746 206.91 486.648 207.113 485.604 207.286C485.191 207.354 484.05 207.487 483.541 207.594C481.083 208.112 479.651 208.457 477.359 208.457C477.347 208.457 477.335 208.457 477.324 208.457C476.83 199.481 476.112 193.168 475.337 190.692C474.807 189.008 474.038 187.074 474.038 187.074C473.664 185.982 473.06 184.859 471.844 183.331C470.204 181.294 468.177 180.026 466.073 179.212V179.212ZM458.731 182.538C458.169 185.844 457.14 186.821 457.14 186.821C454.769 185.448 446.316 181.165 447.096 178.826C447.158 178.67 447.283 178.358 448.094 177.859C451.151 175.987 454.894 176.892 456.204 177.266C456.204 177.266 462.224 176.58 463.378 180.105C464.532 183.63 463.16 186.125 463.16 186.125C462.162 185.522 460.685 184.326 458.731 182.538Z" fill="#444444"/>
<path d="M477.969 233.598L477.359 208.457L485.624 207.286L488.15 238.114C488.366 238.227 488.577 238.338 488.781 238.447C490.568 239.405 492.05 241.149 493.225 243.679C493.284 243.807 493.314 243.946 493.312 244.087C493.305 244.604 492.88 245.017 492.363 245.009L426.675 244.059C410.993 240.949 415.258 219.679 418.329 209.344C422.639 209.478 428.727 209.587 431.948 209.282C434.991 209.005 440.277 208.395 443.386 207.93L437.812 224.629C452.779 225.372 467.478 229.541 477.969 233.598ZM460.474 175.236L460.334 180.99C454.366 183.191 450.133 179.805 450.133 179.805C450.133 179.805 450.357 175.516 450.805 166.94C450.733 166.784 450.662 166.62 450.594 166.446C450.033 165.043 448.012 160.434 448.449 158.843C448.529 158.507 446.862 153.508 449.303 150.986C451.621 148.591 458.048 148.659 458.306 148.674C459.398 148.705 460.489 148.674 461.675 148.424C461.8 148.424 461.924 148.393 462.049 148.393C463.11 148.3 469.068 148.019 472.124 152.448C472.405 152.823 472.655 153.228 472.873 153.727C473.341 154.881 473.559 156.129 473.466 157.377L473.029 162.929C472.967 163.491 472.873 164.052 472.748 164.582C471.844 168.513 470.378 171.726 468.818 173.753C467.664 175.282 466.416 176.155 465.324 176.186C465.012 176.217 463.328 176.186 461.363 175.594C461.235 175.551 461.267 175.581 460.474 175.236Z" fill="#F2A98A"/>
<path d="M444.167 207.878C444.064 208.115 443.789 208.224 443.552 208.121C443.315 208.018 443.206 207.742 443.309 207.505C443.913 206.116 444.156 205.34 444.624 203.313C444.682 203.061 444.933 202.904 445.185 202.962C445.437 203.02 445.594 203.272 445.536 203.523C445.056 205.603 444.796 206.432 444.167 207.878ZM438.142 223.977C438.399 223.952 438.627 224.141 438.652 224.398C438.676 224.656 438.487 224.884 438.23 224.908C438.169 224.914 438.05 224.927 437.881 224.95C437.598 224.988 437.281 225.038 436.939 225.102C435.964 225.283 434.989 225.537 434.084 225.872C433.55 226.07 433.055 226.292 432.609 226.537C432.383 226.661 432.099 226.579 431.974 226.352C431.849 226.126 431.932 225.841 432.159 225.717C432.647 225.448 433.183 225.208 433.759 224.995C434.719 224.639 435.744 224.373 436.768 224.182C437.126 224.115 437.458 224.062 437.757 224.022C437.863 224.008 437.956 223.997 438.038 223.988C438.087 223.982 438.123 223.978 438.142 223.977Z" fill="#482D1F"/>
<path opacity="0.2" d="M488.096 238.146C485.521 236.801 482.046 235.218 477.913 233.616L477.303 208.457L485.568 207.286L488.096 238.146Z" fill="#8C2A00"/>
<path d="M460.482 175.245L460.395 178.433L456.088 173.264C456.149 173.294 456.212 173.325 456.277 173.357C456.901 173.669 457.681 174.012 458.679 174.448C459.554 174.838 460.115 175.086 460.482 175.245Z" fill="#482D1F"/>
<path d="M457.023 160.41L456.995 159.81C456.995 159.81 456.87 158.687 456.091 157.564C456.028 157.502 455.498 156.815 454.687 156.472C453.221 155.911 451.287 156.566 450.226 157.907C449.103 159.28 449.103 161.12 449.696 162.524C450.289 163.927 451.443 164.582 451.848 164.77L453.658 165.331L453.665 165.328C452.084 167.646 450.708 169.667 450.708 169.667C450.708 169.667 448.105 167.265 446.951 165.362C446.39 164.426 444.393 162.149 444.05 158.562C443.956 157.377 443.582 153.353 446.265 150.39C447.201 149.36 448.261 148.861 448.698 148.643C451.162 147.551 452.971 148.206 457.713 148.3C458.087 148.3 458.711 148.331 459.522 148.3C460.988 148.268 462.017 148.206 462.298 148.206C464.637 148.112 469.722 148.83 471.968 152.292C472.093 152.542 472.249 152.76 472.373 152.947C471.718 153.166 471.001 153.571 470.127 153.727C467.757 154.102 465.729 153.634 464.513 153.197C462.142 155.443 459.74 157.658 457.369 159.903C457.261 160.062 457.145 160.231 457.023 160.41Z" fill="#DE6903"/>
<path d="M471.227 163.905C471.321 163.53 471.695 163.249 472.07 163.312C472.319 163.343 472.506 163.53 472.6 163.967C472.694 165.059 471.508 166.432 471.165 165.776C470.947 165.34 471.134 164.435 471.227 163.905ZM464.637 163.054C464.73 162.679 465.105 162.398 465.479 162.461C465.728 162.492 465.916 162.679 466.009 163.116C466.103 164.208 464.917 165.581 464.574 164.925C464.325 164.489 464.512 163.584 464.637 163.054Z" fill="#482D1F"/>
<path d="M469.098 164.118L469.129 167.237C469.129 167.248 469.082 167.296 469.067 167.296C468.896 167.296 468.722 167.285 468.45 167.258C468.397 167.253 468.342 167.248 468.262 167.24C468.162 167.229 468.107 167.224 468.054 167.219C467.874 167.2 467.725 167.186 467.565 167.172C467.394 167.157 467.243 167.284 467.228 167.456C467.213 167.628 467.34 167.779 467.511 167.794C467.668 167.807 467.814 167.821 467.992 167.839C468.044 167.844 468.098 167.85 468.199 167.86C468.279 167.868 468.335 167.874 468.39 167.879C468.68 167.907 468.872 167.92 469.067 167.92C469.426 167.92 469.753 167.593 469.753 167.234L469.722 164.112C469.72 163.939 469.579 163.801 469.407 163.803C469.234 163.804 469.096 163.946 469.098 164.118Z" fill="#482D1F"/>
<path d="M466.914 169.574C466.696 169.48 466.166 169.231 466.135 168.919C466.135 168.856 466.104 168.763 466.166 168.732C466.322 168.576 466.696 168.732 467.258 168.888C468.256 169.137 469.067 169.199 469.067 169.199C469.067 169.199 468.755 169.698 468.568 169.823C468.193 170.166 467.226 169.73 466.914 169.574Z" fill="#482D1F"/>
<path d="M468.301 164.459C467.804 166.361 466.074 167.764 464.016 167.764C461.57 167.764 459.587 165.781 459.587 163.335C459.587 162.792 459.684 162.273 459.862 161.793L457.39 160.728C457.143 160.651 457.005 160.389 457.082 160.142C457.158 159.895 457.421 159.757 457.667 159.834L460.277 160.958C461.064 159.724 462.444 158.905 464.016 158.905C466.462 158.905 468.445 160.888 468.445 163.335C468.445 163.401 468.444 163.467 468.441 163.533L469.414 163.634C469.837 161.628 471.617 160.122 473.748 160.122C476.195 160.122 478.178 162.105 478.178 164.551C478.178 166.998 476.195 168.981 473.748 168.981C471.306 168.981 469.326 167.005 469.319 164.564L468.301 164.459ZM460.848 161.859C460.639 162.307 460.522 162.807 460.522 163.335C460.522 165.264 462.086 166.828 464.016 166.828C465.945 166.828 467.51 165.264 467.51 163.335C467.51 161.405 465.945 159.841 464.016 159.841C462.691 159.841 461.539 160.578 460.946 161.665C460.944 161.675 460.941 161.685 460.938 161.696C460.919 161.757 460.888 161.813 460.848 161.859ZM470.265 164.285C470.258 164.373 470.255 164.462 470.255 164.551C470.255 166.481 471.819 168.045 473.748 168.045C475.678 168.045 477.242 166.481 477.242 164.551C477.242 162.622 475.678 161.058 473.748 161.058C471.972 161.058 470.505 162.383 470.284 164.099C470.287 164.13 470.287 164.162 470.283 164.194C470.28 164.226 470.274 164.256 470.265 164.285Z" fill="#482D1F"/>
<path d="M608.532 357.95H651.563C652.343 357.95 652.967 358.574 652.967 359.353C652.967 360.133 652.343 360.757 651.563 360.757H601.997H565.501C564.722 360.757 564.098 360.133 564.098 359.353C564.098 358.574 564.722 357.95 565.501 357.95H608.532Z" fill="#FF645F"/>
<path d="M565.813 357.95H565.501C565.411 357.95 565.323 357.958 565.237 357.974C565.149 357.825 565.084 357.659 565.047 357.482V357.45C565.047 357.294 565.016 357.139 565.047 356.983C565.078 356.795 565.078 356.639 565.141 356.452C565.35 355.729 565.888 354.881 566.756 353.909C567.249 353.357 567.828 352.888 568.47 352.521C569.902 351.702 571.028 351.11 571.847 350.744C574.717 349.434 581.08 346.751 582.983 345.784C585.447 344.536 588.847 342.415 592.403 338.61C592.684 338.391 592.996 338.298 593.339 338.298L611.23 338.423C612.135 338.423 612.852 339.171 612.79 340.107L614.294 348.556C615.877 347.871 617.302 347.211 619.06 346.19C620.526 345.348 622.584 343.975 624.893 341.916C626.172 340.793 627.482 339.67 628.761 338.547L648.069 338.298L652.042 357.979C652.11 357.994 652.176 358.013 652.24 358.036L652.26 358.132C652.061 358.019 651.832 357.954 651.587 357.95C651.579 357.95 651.571 357.95 651.563 357.95H608.532H601.377H565.813Z" fill="#474961"/>
<path opacity="0.176986" d="M608.626 357.95H608.532H565.501C565.411 357.95 565.323 357.958 565.237 357.974C565.149 357.825 565.084 357.659 565.047 357.482V357.45C565.047 357.294 565.016 357.139 565.047 356.983C565.078 356.795 565.078 356.639 565.141 356.452C565.35 355.729 565.888 354.881 566.756 353.909C567.249 353.357 567.828 352.888 568.47 352.521C569.902 351.702 571.028 351.11 571.847 350.744C574.717 349.434 581.08 346.751 582.983 345.784C585.447 344.536 588.847 342.415 592.403 338.61C592.684 338.391 592.996 338.298 593.339 338.298L611.23 338.423C612.135 338.423 612.852 339.171 612.79 340.107L614.307 348.631C612.648 349.345 610.798 350.102 608.204 351.337C606.707 352.054 605.272 352.865 603.869 353.77C603.182 354.394 601.997 355.672 601.623 357.17C601.56 357.419 601.56 357.669 601.529 357.887C601.529 357.908 601.541 357.929 601.564 357.95H608.719H608.626ZM652.26 358.132C652.061 358.019 651.832 357.954 651.587 357.95L651.75 357.95C651.923 357.95 652.088 357.98 652.24 358.036L652.26 358.132Z" fill="#474961"/>
<path d="M607.336 244.77C607.873 244.685 608.381 244.658 608.861 244.687L665.913 244.469L692.053 244.407C693.114 244.469 697.588 245.838 698.617 247.01C699.615 247.54 705.996 254.139 704.936 266.398C704.749 268.457 704.343 273.042 701.723 277.409C698.978 281.963 694.361 285.301 688.715 287.204C683.725 288.888 677.891 289.481 671.84 288.826C659.051 286.517 646.293 284.24 633.504 281.932V282.4L633.566 282.618C633.566 282.618 635.126 285.55 636.467 288.576C637.808 291.571 639.68 305.732 639.68 305.826C642.737 310.692 645.825 317.274 648.196 325.571C649.131 328.909 649.63 331.529 649.818 332.527C650.194 334.668 650.494 337.253 650.715 340.283C650.719 340.328 650.72 340.374 650.72 340.419C650.72 341.453 649.882 342.291 648.849 342.291C648.546 342.291 648.307 342.291 648.133 342.291L620.402 342.26L611.874 342.217C611.589 342.292 611.29 342.333 610.983 342.333L588.212 342.239H586.372C584.563 342.239 583.034 340.804 582.941 338.995C582.722 335.345 582.441 330.542 582.098 324.989C581.163 310.984 580.663 306.523 580.102 295.73C580.008 293.921 579.915 292.299 579.852 290.77C579.603 283.502 578.948 276.702 577.669 267.812C576.951 262.884 576.608 259.827 576.577 257.238C576.546 254.836 577.263 252.465 578.636 250.5C579.322 249.533 580.102 248.691 581.038 247.974C583.44 246.133 585.16 244.881 591.186 244.792C595.954 244.721 601.47 244.743 607.336 244.77Z" fill="#6CEDCA"/>
<path opacity="0.176986" d="M607.503 244.746C607.426 244.756 607.349 244.768 607.27 244.781C605.087 245.155 602.622 246.434 600.72 247.9C599.784 248.618 598.973 249.46 598.318 250.427C596.945 252.361 596.228 254.669 596.228 257.04V257.196C596.259 259.785 596.602 262.842 597.288 267.77C598.567 276.66 599.222 283.429 599.472 290.729C599.534 292.226 599.628 293.879 599.721 295.688C600.252 306.45 600.782 310.911 601.718 324.947C602.092 330.5 602.373 335.272 602.56 338.953C602.654 340.762 604.182 342.197 605.991 342.197H607.832L611.773 342.217C611.519 342.276 611.254 342.307 610.983 342.307L588.212 342.214H586.372C584.563 342.214 583.034 340.779 582.941 338.969C582.722 335.32 582.441 330.516 582.098 324.964C581.163 310.958 580.663 306.497 580.102 295.705C580.008 293.895 579.915 292.273 579.852 290.745C579.603 283.477 578.948 276.677 577.669 267.787C576.951 262.858 576.608 259.801 576.577 257.212C576.546 254.81 577.263 252.44 578.636 250.475C579.322 249.508 580.102 248.665 581.038 247.948C583.44 246.108 585.16 244.855 591.186 244.766C596 244.695 601.575 244.718 607.503 244.746L607.503 244.746Z" fill="#444444"/>
<path d="M633.347 281.238C632.96 280.858 632.557 280.46 632.136 280.042C632.021 279.93 632.021 279.93 631.907 279.816C630.719 278.639 629.746 277.668 627.86 275.782C627.616 275.539 627.221 275.539 626.978 275.782C626.734 276.026 626.734 276.421 626.978 276.665C628.865 278.552 629.839 279.523 631.029 280.703C631.143 280.816 631.143 280.816 631.258 280.929C631.68 281.347 632.084 281.746 632.472 282.128C632.718 282.37 633.113 282.366 633.354 282.121C633.596 281.875 633.593 281.48 633.347 281.238Z" fill="#482D1F"/>
<path d="M674.299 180.043C676.136 179.419 678.138 179.126 680.217 179.236C688.483 179.642 694.846 186.223 694.441 193.928C694.242 197.695 692.449 201.033 689.701 203.404L696.609 228.654C697.67 232.647 697.295 236.702 695.736 240.196C695.517 240.695 695.268 241.194 695.018 241.662C694.737 242.161 694.425 242.66 694.114 243.128C693.77 243.627 693.396 244.126 692.991 244.594H659.021C658.741 244.126 658.46 243.658 658.21 243.128C657.961 242.66 657.742 242.161 657.555 241.662C657.368 241.194 657.212 240.695 657.056 240.196C657.025 240.102 656.994 240.009 656.963 239.915L648.132 209.133L641.687 209.843C641.126 209.905 640.595 209.531 640.533 209L640.252 206.817C640.241 206.719 640.245 206.624 640.264 206.532C639.204 205.889 638.234 205.117 637.414 204.228C636.228 202.949 635.324 201.452 634.794 199.736C632.672 192.936 637.383 185.668 645.306 183.547C648.495 182.693 651.724 182.794 654.583 183.664C655.795 182.821 657.123 182.173 658.553 181.771L665.385 179.744C668.53 179.277 671.555 179.385 674.299 180.043V180.043Z" fill="#FF645F"/>
<path opacity="0.176986" d="M648.085 209.138L641.687 209.843C641.126 209.905 640.595 209.531 640.533 209L640.252 206.817C640.241 206.719 640.245 206.624 640.264 206.532C639.204 205.889 638.234 205.117 637.414 204.228C636.228 202.949 635.324 201.452 634.794 199.736C632.672 192.936 637.383 185.668 645.306 183.547C648.512 182.688 651.76 182.796 654.631 183.678C648.177 188.101 644.975 198.017 647.108 205.732L648.085 209.138Z" fill="#444444"/>
<path d="M642.673 184.922C642.673 184.922 642.08 187.293 645.231 186.638C648.382 185.983 649.287 185.671 649.287 185.671L648.476 183.518L642.673 184.922Z" fill="#482D1F"/>
<path d="M653.536 178.729C653.433 178.756 653.331 178.782 653.23 178.806L653.55 178.76L653.536 178.729ZM661.884 173.696L662.669 173.38L666.443 179.899L660.221 181.848L666.318 210.812C666.318 210.812 666.837 208.721 667.5 204.952C667.532 204.962 667.564 204.971 667.597 204.978L684.847 208.815C684.92 208.831 684.992 208.84 685.064 208.841C684.46 211.25 683.817 214.147 683.131 217.144C681.353 224.88 681.073 228.467 678.234 233.583C674.99 239.416 671.995 239.572 670.81 240.008C668.159 241.038 665.507 240.882 663.854 240.476C661.87 239.996 658.237 239.222 655.153 233.616L656.96 239.915C656.992 240.008 657.023 240.102 657.054 240.195C657.21 240.695 657.366 241.194 657.553 241.662C657.74 242.161 657.959 242.66 658.208 243.128C658.458 243.658 658.738 244.126 659.019 244.594H663.015L611.243 244.659C611.098 244.659 610.965 244.61 610.859 244.527C602.272 239.339 598.02 235.378 598.101 232.645C600.698 232.25 604.405 231.707 609.221 231.018C612.214 230.589 615.253 230.598 618.243 231.043L627.645 232.445C634.679 230.19 644.066 227.229 646.41 226.719L642.385 209.765L648.129 209.133L650.83 218.547C649.252 207.4 649.66 195.783 648.234 184.6L644.951 184.672C643.017 185.452 638.962 186.762 638.525 183.986C638.525 183.986 643.89 181.771 647.665 180.149L647.946 179.899C648.195 179.681 648.413 179.556 648.725 179.463C648.788 179.431 648.85 179.431 648.913 179.431L650.41 179.213L650.619 179.183C650.122 179.207 649.776 179.194 649.651 179.182C647.045 178.995 644.005 174.222 642.64 167.328C642.516 166.767 642.485 166.205 642.423 165.644L642.175 160.06C642.113 158.813 642.361 157.565 642.95 156.473C643.198 156.005 643.447 155.569 643.726 155.225C646.921 150.921 652.815 151.389 653.869 151.513C653.993 151.513 654.117 151.545 654.242 151.545C655.42 151.825 656.475 151.919 657.592 151.888C658.088 151.888 658.491 152.293 658.522 152.792L658.677 160.778C658.708 161.526 662.493 160.092 662.493 160.06C664.309 158.688 666.588 166.081 665.657 167.172C664.975 167.921 663.051 168.982 662.493 169.169C662.152 169.294 661.904 169.574 661.841 169.886C662.054 171.466 662.068 172.736 661.884 173.696Z" fill="#DB9E75"/>
<path opacity="0.2" d="M642.383 209.791L648.127 209.159L656.958 239.941C656.99 240.034 657.021 240.128 657.052 240.222C657.208 240.721 657.364 241.22 657.551 241.688C657.738 242.187 657.957 242.686 658.206 243.154C658.456 243.684 658.736 244.152 659.017 244.62H663.013L611.241 244.685C611.096 244.685 610.963 244.636 610.857 244.553C602.27 239.365 598.018 235.404 598.099 232.671C600.696 232.276 604.403 231.734 609.219 231.044C612.212 230.615 615.251 230.624 618.241 231.069L627.643 232.471C634.677 230.216 644.064 227.255 646.408 226.745L642.383 209.791Z" fill="#8C2A00"/>
<path d="M596.687 236.908C600.035 232.787 606.926 229.451 618.46 237.136C620.218 238.268 619.623 241.981 617.688 242.023L597.747 242.359C596.248 242.408 595.571 238.294 596.687 236.908Z" fill="#474961"/>
<path d="M671.468 159.01C675.469 161.637 679.289 165.497 678.609 168.046C678.079 170.105 676.082 171.196 674.055 172.319C672.417 173.217 669.393 174.607 665.039 174.899C665.04 174.902 665.04 174.905 665.04 174.908C664.011 175.064 663.012 175.22 661.983 175.376C661.453 175.439 660.954 175.064 660.923 174.534C661.078 173.411 661.234 172.288 661.39 171.165C661.53 170.605 661.678 169.897 661.768 169.139C662.266 169.019 663.377 168.697 664.229 167.703C665.165 166.611 665.664 164.958 665.04 163.367C664.479 161.838 662.919 160.653 661.422 160.778C660.579 160.84 659.924 161.308 659.831 161.37C659.154 161.883 658.591 162.584 658.284 163.005C656.816 162.435 654.538 161.219 652.656 158.813C652.22 158.272 651.71 157.471 651.128 156.411C648.021 157.115 645.411 156.939 643.298 155.88C643.76 155.002 644.479 154.207 645.456 153.497C646.922 152.431 647.083 152.302 648.933 151.783C650.09 151.458 652.28 151.354 653.846 151.513H653.904C655.682 151.701 657.148 151.763 658.115 151.763C662.856 151.857 664.697 151.233 667.099 152.418C667.535 152.636 668.565 153.198 669.469 154.258C670.751 155.757 671.276 157.492 671.468 159.01ZM643.212 169.736C644.393 173.95 645.648 175.501 645.489 175.501C645.329 175.501 644.913 175.719 641.7 174.815C640.109 174.378 638.612 173.941 637.926 172.662C636.959 170.853 639.84 167.115 642.398 164.62C642.398 166.467 642.704 167.86 643.212 169.736ZM641.333 163.554C641.021 163.492 640.897 163.117 641.115 162.899C641.396 162.649 641.864 162.337 642.487 162.306C643.766 162.244 645.17 162.993 643.797 163.429C642.924 163.741 641.926 163.648 641.333 163.554ZM647.385 163.554C647.073 163.492 646.948 163.117 647.198 162.899C647.478 162.649 647.946 162.337 648.601 162.306C649.88 162.244 651.284 163.024 649.911 163.429C648.976 163.741 648.009 163.648 647.385 163.554Z" fill="#482D1F"/>
<path d="M643.674 165.956C643.736 166.486 643.799 167.36 643.518 167.734C643.112 168.296 642.145 166.861 642.364 165.862C642.457 165.426 642.676 165.301 642.925 165.301C643.3 165.301 643.612 165.582 643.674 165.956ZM649.227 165.769C649.321 166.299 649.383 167.173 649.071 167.547C648.666 168.109 647.698 166.674 647.917 165.675C648.01 165.239 648.229 165.114 648.478 165.114C648.853 165.114 649.165 165.395 649.227 165.769Z" fill="#482D1F"/>
<path d="M665.96 210.976C665.887 210.728 666.029 210.468 666.276 210.394C666.524 210.321 666.785 210.463 666.858 210.71L669.946 221.16C670.019 221.408 669.878 221.668 669.63 221.741C669.382 221.815 669.122 221.673 669.048 221.425L665.96 210.976ZM687.086 205.599C687.093 205.654 687.092 205.711 687.079 205.768L686.549 208.106C686.368 208.919 685.557 209.422 684.743 209.241C684.49 209.185 684.331 208.935 684.387 208.683C684.444 208.431 684.693 208.272 684.946 208.328C685.26 208.398 685.568 208.207 685.636 207.901L686.091 205.891C686.008 205.847 685.937 205.778 685.892 205.687C685.776 205.456 685.87 205.175 686.101 205.059C687.433 204.393 688.672 203.516 689.727 202.491C689.913 202.311 690.209 202.315 690.389 202.5C690.569 202.686 690.565 202.982 690.379 203.162C689.406 204.108 688.288 204.934 687.086 205.599ZM667.811 201.432C667.809 201.453 667.806 201.474 667.801 201.495L667.271 203.833C667.201 204.147 667.392 204.455 667.696 204.522C667.948 204.578 668.107 204.828 668.051 205.08C667.995 205.333 667.745 205.492 667.493 205.436C666.68 205.255 666.177 204.444 666.358 203.628L666.889 201.288C666.909 201.197 666.955 201.119 667.016 201.058C666.649 200.614 666.372 200.223 666.141 199.827C665.933 199.472 665.759 199.107 665.575 198.652C665.45 198.341 665.373 198.133 665.096 197.372C665.008 197.129 665.133 196.86 665.376 196.772C665.619 196.684 665.887 196.809 665.975 197.052C666.248 197.801 666.324 198.005 666.443 198.301C666.611 198.718 666.766 199.043 666.949 199.356C667.193 199.775 667.501 200.194 667.949 200.711C668.117 200.907 668.096 201.202 667.9 201.371C667.872 201.395 667.842 201.416 667.811 201.432ZM655.706 178.188C654.551 178.719 653.767 179.657 651.967 179.837C650.532 180.18 649.315 179.775 648.691 179.463C648.754 179.432 648.816 179.432 648.879 179.432L650.376 179.213C651.093 179.213 652.246 179.089 653.587 178.714L655.706 178.188Z" fill="#482D1F"/>
<path d="M647.633 172.07C647.851 172.008 648.381 171.82 648.475 171.477C648.475 171.415 648.506 171.321 648.475 171.259C648.35 171.072 647.945 171.165 647.383 171.228C646.385 171.321 645.574 171.228 645.574 171.228C645.574 171.228 645.824 171.852 645.98 172.008C646.323 172.507 647.321 172.195 647.633 172.07Z" fill="#482D1F"/>
<path d="M645.294 166.216L645.296 166.171L645.294 166.193L645.294 166.216ZM644.922 169.509L644.92 169.543C644.92 169.884 645.153 170.2 645.493 170.257C645.555 170.263 645.59 170.265 645.625 170.267C645.955 170.289 646.191 170.292 647.041 170.292C647.214 170.292 647.353 170.152 647.353 169.98C647.353 169.808 647.214 169.668 647.041 169.668C646.206 169.668 645.976 169.665 645.665 169.645C645.633 169.643 645.6 169.64 645.568 169.638C645.575 169.638 645.549 169.602 645.544 169.556L645.916 166.24L645.918 166.195L645.856 164.354C645.85 164.182 645.705 164.047 645.533 164.053C645.361 164.059 645.226 164.203 645.232 164.375L645.294 166.193L644.922 169.509Z" fill="#482D1F"/>
<path d="M546.711 236.92L549.71 224.817H527.192C524.853 224.817 522.918 223.039 522.918 220.886V186.605C522.888 184.422 524.79 182.644 527.161 182.644H595.692C598.032 182.644 599.966 184.422 599.966 186.574V220.886C599.966 223.039 598.032 224.817 595.692 224.817H568.25L567.012 236.92H575.136C576.384 236.92 577.351 237.918 577.351 239.135C577.351 240.383 576.353 241.35 575.136 241.35H540.356C539.108 241.35 538.141 240.351 538.141 239.135C538.079 237.918 539.108 236.92 540.356 236.92H546.711Z" fill="#474961"/>
<path fill-rule="evenodd" clip-rule="evenodd" d="M569.179 215.995L569.272 236.952H567.035L569.179 215.995Z" fill="white"/>
<path d="M276.056 239.911C275.746 240.46 275.159 240.831 274.486 240.831H229.834C228.839 240.831 228.062 240.02 228.062 239.022C228.062 238.023 228.87 237.212 229.834 237.212H273.267L288.407 196.305C288.749 195.369 289.774 194.901 290.707 195.244C291.639 195.587 292.105 196.617 291.763 197.553L276.195 239.614C276.157 239.719 276.11 239.818 276.056 239.911Z" fill="#474961"/>
<path d="M698.652 241.365H232.59C231.179 241.365 230.035 242.36 230.035 243.588C230.035 244.815 231.179 245.81 232.59 245.81H698.652C700.063 245.81 701.207 244.815 701.207 243.588C701.207 242.36 700.063 241.365 698.652 241.365Z" fill="#D8DEED"/>
<g clip-path="url(#clip1)">
<path d="M361.189 5H211.811C210.811 5 210 5.81486 210 6.82005V121.18C210 122.185 210.811 123 211.811 123H361.189C362.189 123 363 122.185 363 121.18V6.82005C363 5.81486 362.189 5 361.189 5Z" fill="#F2F6FB"/>
<path d="M330.052 68.3984H339.214C340.56 68.3984 341.047 68.5392 341.539 68.8036C342.031 69.068 342.417 69.4559 342.68 69.9503C342.943 70.4446 343.083 70.9349 343.083 72.2871V123H326.184V72.2871C326.184 70.9349 326.324 70.4446 326.587 69.9503C326.85 69.4559 327.236 69.068 327.727 68.8036C328.219 68.5392 328.707 68.3984 330.052 68.3984Z" fill="#FF744B"/>
<path d="M310.738 81.4419H320.202C321.547 81.4419 322.035 81.5827 322.527 81.8471C323.018 82.1114 323.404 82.4994 323.667 82.9937C323.93 83.4881 324.07 83.9784 324.07 85.3306V123H306.869V85.3306C306.869 83.9784 307.009 83.4881 307.272 82.9937C307.535 82.4994 307.921 82.1114 308.413 81.8471C308.905 81.5827 309.393 81.4419 310.738 81.4419Z" fill="#F3019E"/>
<path d="M291.726 40.7944H300.888C302.233 40.7944 302.721 40.9352 303.213 41.1996C303.705 41.464 304.091 41.8519 304.354 42.3463C304.617 42.8406 304.757 43.3309 304.757 44.6831V123H287.857V44.6831C287.857 43.3309 287.997 42.8406 288.26 42.3463C288.523 41.8519 288.909 41.464 289.401 41.1996C289.893 40.9352 290.381 40.7944 291.726 40.7944Z" fill="#9111DA"/>
<path d="M272.412 51.4116H281.574C282.919 51.4116 283.407 51.5524 283.899 51.8168C284.39 52.0812 284.776 52.4691 285.039 52.9634C285.302 53.4578 285.442 53.9481 285.442 55.3003V123H268.543V55.3003C268.543 53.9481 268.683 53.4578 268.946 52.9634C269.209 52.4691 269.595 52.0812 270.087 51.8168C270.579 51.5524 271.066 51.4116 272.412 51.4116Z" fill="#6F53FE"/>
<path d="M253.4 76.2856H262.562C263.907 76.2856 264.395 76.4264 264.887 76.6908C265.379 76.9552 265.765 77.3431 266.028 77.8375C266.291 78.3318 266.431 78.8221 266.431 80.1743V123H249.531V80.1743C249.531 78.8221 249.671 78.3318 249.934 77.8375C250.197 77.3431 250.583 76.9552 251.075 76.6908C251.567 76.4264 252.055 76.2856 253.4 76.2856Z" fill="#1EBCFF"/>
<path d="M234.087 63.8486H243.25C244.595 63.8486 245.083 63.9894 245.574 64.2538C246.066 64.5182 246.452 64.9061 246.715 65.4005C246.978 65.8948 247.118 66.3851 247.118 67.7373V123H230.219V67.7373C230.219 66.3851 230.359 65.8948 230.622 65.4005C230.885 64.9061 231.271 64.5182 231.763 64.2538C232.254 63.9894 232.742 63.8486 234.087 63.8486Z" fill="#45E0DC"/>
</g>
<path d="M639.965 3H499.036C495.702 3 493 5.71622 493 9.06684V114.933C493 118.284 495.702 121 499.036 121H639.965C643.298 121 646 118.284 646 114.933V9.06684C646 5.71622 643.298 3 639.965 3Z" fill="#F2F6FB"/>
<path d="M516.716 96.7404L539.556 61.899C541.723 58.591 546.475 58.2501 549.081 61.2147L558.296 71.6689C562.501 76.4308 570.124 75.7007 573.339 70.2357L595.314 32.8238C597.514 29.076 602.767 28.818 605.357 32.3181L628.667 64.1904C629.21 64.9328 630.249 65.0922 630.988 64.5464C631.726 64.0006 631.885 62.9564 631.342 62.214L608.026 30.3341C604.018 24.9184 595.865 25.3188 592.455 31.1278L570.481 68.5383C568.413 72.0536 563.49 72.525 560.78 69.455L551.567 59.0036C547.514 54.3928 540.153 54.9209 536.784 60.0632L513.944 94.9045C513.44 95.6739 513.651 96.7086 514.417 97.2156C515.182 97.7226 516.211 97.5099 516.716 96.7404Z" fill="#E1E5F0"/>
<path d="M526.044 84.5986C528.794 84.5986 531.023 82.3578 531.023 79.5935C531.023 76.8293 528.794 74.5884 526.044 74.5884C523.294 74.5884 521.064 76.8293 521.064 79.5935C521.064 82.3578 523.294 84.5986 526.044 84.5986Z" fill="#3ABF7C"/>
<mask id="mask0" mask-type="alpha" maskUnits="userSpaceOnUse" x="517" y="71" width="18" height="17">
<ellipse rx="8.38317" ry="8.38722" transform="matrix(0.960503 -0.278272 0.276019 0.961153 525.728 79.4444)" fill="black"/>
</mask>
<g mask="url(#mask0)">
<path d="M528.376 98.0517L537.361 97.8699L536.974 77.7896L527.728 91.0872L528.376 98.0517Z" fill="#6AEDCB"/>
<path d="M528.778 90.604C529.874 88.4614 531.947 88.4528 533.391 87.4213C534.311 86.7644 534.94 85.7667 535.27 84.6853C535.79 82.9794 535.438 81.0069 536.382 79.4941C536.567 79.1979 536.801 78.9241 536.904 78.5912C536.984 78.3331 536.981 78.0564 536.976 77.7864L536.788 66.7438C534.753 67.8504 533.598 70.0475 532.573 72.1266C528.232 80.9304 524.116 89.8726 518.954 98.2227L528.38 98.0435C529.075 98.0296 528.606 94.6923 528.567 94.4042C528.385 93.0842 528.276 91.8679 528.778 90.604Z" fill="#30C7FF"/>
<path d="M519.286 98.2193C519.286 98.2193 520.475 96.8068 521.55 96.1773C522.626 95.5478 524.256 94.2659 525.018 92.8419C525.78 91.4179 526.013 90.1969 525.949 88.4055C525.885 86.614 526.81 84.7705 528.358 83.7145C529.905 82.6593 533.368 81.5333 533.406 78.2986C533.444 75.0639 532.454 70.6664 536.775 66.9938L536.561 53.9362L534.822 53.9713L513.629 96.4951L512.895 98.3441L519.286 98.2193Z" fill="#6C5DFE"/>
<path d="M516.539 98.2732C516.539 98.2732 517.409 96.9473 517.505 94.3042C517.559 92.8171 517.758 91.3291 518.365 89.9563C519.288 87.8691 521.021 86.3644 523.001 85.3129C523.274 85.1674 523.552 85.0415 523.808 84.8661C524.29 84.5342 524.724 84.1353 525.095 83.6827C526.175 82.3649 526.476 80.4377 526.578 78.1301C526.679 75.8225 527.583 72.6835 528.844 70.8338C530.105 68.9838 531.235 67.7126 533.304 65.4617C535.374 63.2109 537.626 60.4127 536.118 53.9438L529.886 54.0688L512.606 82.3485L512.893 98.3456L516.539 98.2732Z" fill="#A20ED3"/>
<path d="M512.652 85.1696C512.652 85.1696 513.612 82.5577 516.699 80.9115C519.786 79.2652 521.674 80.3314 522.928 75.361C524.181 70.3906 523.432 68.8694 525.253 66.0482C527.073 63.2271 528.677 61.851 530.657 59.9867C532.637 58.1225 533.676 57.2218 533.617 53.99L525.47 54.1535L512.524 78.1148L512.652 85.1696Z" fill="#D60A99"/>
<path d="M527.581 54.1069C526.306 55.2047 524.794 56.4514 524.404 58.3798C524.013 60.3081 523.557 62.4302 522.68 64.2726C521.803 66.1151 520.61 66.474 519.436 67.9388C518.263 69.4034 517.878 71.9554 517.717 73.6871C517.557 75.4188 516.905 76.4408 515.876 77.9027C514.848 79.3646 512.561 80.2744 512.561 80.2744L512.415 72.1606L513.545 65.6557L520.294 54.2524L527.581 54.1069Z" fill="#F005C4"/>
<path d="M512.469 75.1573C512.468 75.1018 512.653 74.9312 512.686 74.8866C512.883 74.6286 513.062 74.3576 513.222 74.0755C513.864 72.9358 513.745 71.8613 513.629 70.6164C513.548 69.7543 513.271 68.4888 513.677 67.6709C514.078 66.8622 514.417 66.1814 516.316 65.088C517.496 64.4089 518.668 63.562 519.385 62.356C520.217 60.9587 520.084 59.3712 520.348 57.8164C520.563 56.5488 520.984 55.1527 521.906 54.215L512.096 54.4117L512.469 75.1573Z" fill="#FF744B"/>
</g>
<ellipse rx="7.55955" ry="7.56736" transform="matrix(0.960545 -0.278125 0.276165 0.961111 525.728 79.4445)" fill="white"/>
<ellipse rx="0.58928" ry="0.589886" transform="matrix(0.960546 -0.278124 0.276166 0.96111 524.25 74.2912)" fill="#F7931A"/>
<ellipse rx="0.589281" ry="0.589892" transform="matrix(0.960545 -0.278127 0.276163 0.961111 527.213 84.5954)" fill="#8A92B2"/>
<mask id="mask1" mask-type="alpha" maskUnits="userSpaceOnUse" x="519" y="75" width="14" height="9">
<path d="M530.455 75.7293C529.075 74.8634 527.277 75.1223 526.186 76.326C525.954 76.5821 525.756 76.9015 525.6 77.2669L525.306 77.9631L524.561 79.765L524.101 80.8438C524.033 81.0092 523.943 81.1516 523.855 81.2498C523.379 81.766 522.612 81.872 522.013 81.5069C521.394 81.1189 521.162 80.3129 521.481 79.6531C521.664 79.28 521.993 79.0101 522.381 78.8976C522.636 78.8238 522.914 78.8307 523.176 78.8856C523.316 78.9178 523.454 78.9942 523.6 79.0975L523.858 79.2768L524.62 77.4871C524.315 77.2851 524.002 77.1345 523.693 77.0479C522.131 76.6127 520.472 77.3552 519.763 78.8266C519.029 80.3634 519.573 82.2575 521.005 83.1521C521.84 83.6816 522.828 83.7882 523.712 83.532C524.302 83.3612 524.832 83.0331 525.271 82.5421C525.503 82.2859 525.701 81.9665 525.857 81.6011L526.151 80.9049L526.91 79.0992L527.369 78.0203C527.438 77.8549 527.527 77.7125 527.615 77.6143C528.091 77.0981 528.859 76.9921 529.457 77.3572C530.077 77.7453 530.308 78.5512 529.99 79.211C529.677 79.84 528.971 80.1609 528.294 79.9785C528.154 79.9463 528.016 79.8699 527.87 79.7666L527.603 79.5806L526.833 81.3891C527.14 81.5939 527.456 81.7461 527.767 81.8336C529.329 82.2688 530.988 81.5263 531.698 80.0548C532.432 78.518 531.888 76.6239 530.455 75.7293Z" fill="black"/>
</mask>
<g mask="url(#mask1)">
<path d="M534.02 65.1771L528.773 62.149L522.04 73.9045L531.981 69.4335L534.02 65.1771Z" fill="#6AEDCB"/>
<path d="M531.211 69.3417C529.836 70.1995 528.637 69.4815 527.446 69.5747C526.687 69.634 525.979 69.9922 525.414 70.5031C524.522 71.309 524.043 72.5737 522.973 73.1198C522.764 73.2268 522.534 73.3038 522.359 73.4605C522.224 73.5819 522.13 73.7432 522.039 73.9014L518.322 80.3586C519.879 80.4279 521.307 79.559 522.619 78.7131C528.174 75.1315 533.648 71.3915 539.52 68.3587L534.018 65.1745C533.612 64.9398 532.727 67.0354 532.65 67.2159C532.297 68.0433 531.938 68.7851 531.211 69.3417Z" fill="#30C7FF"/>
<path d="M539.329 68.2388C539.329 68.2388 538.153 68.6416 537.314 68.6308C536.476 68.62 535.09 68.7933 534.157 69.3518C533.224 69.9102 532.667 70.5357 532.083 71.595C531.5 72.6543 530.327 73.3984 529.068 73.4701C527.809 73.5411 525.42 72.9846 524.278 74.8438C523.135 76.7029 522.183 79.5937 518.417 80.2122L514.016 87.8446L515.032 88.4309L541.996 71.21L543.06 70.3958L539.329 68.2388Z" fill="#6C5DFE"/>
<path d="M540.933 69.1644C540.933 69.1644 539.972 69.6286 539.001 71.1249C538.454 71.9666 537.823 72.7584 536.998 73.3415C535.742 74.2276 534.22 74.4939 532.713 74.4118C532.505 74.4008 532.301 74.3767 532.093 74.389C531.7 74.4129 531.311 74.4926 530.94 74.6249C529.861 75.0112 529.019 76.0215 528.161 77.3216C527.303 78.6218 525.693 80.1235 524.325 80.7544C522.956 81.3851 521.864 81.7269 519.89 82.3079C517.916 82.8889 515.646 83.7228 514.276 87.9931L517.915 90.0946L537.685 79.7538L543.062 70.3942L540.933 69.1644Z" fill="#A20ED3"/>
<path d="M538.637 78.0971C538.637 78.0971 537.178 79.2743 534.826 79.1504C532.474 79.0264 531.753 77.7504 529.308 80.1905C526.862 82.6306 526.767 83.7726 524.738 84.7706C522.71 85.7685 521.308 86.0058 519.519 86.3942C517.73 86.7825 516.818 86.9417 515.732 88.8329L520.491 91.5808L536.267 82.2259L538.637 78.0971Z" fill="#D60A99"/>
<path d="M519.258 90.8674C520.374 90.6768 521.679 90.4827 522.572 89.5026C523.465 88.5225 524.464 87.4532 525.608 86.6928C526.753 85.9323 527.566 86.1408 528.751 85.7024C529.935 85.2639 531.042 83.921 531.734 82.9746C532.427 82.0283 533.158 81.6642 534.258 81.1767C535.358 80.6893 536.993 80.9604 536.993 80.9604L534.266 85.7078L531.36 89.079L523.514 93.3253L519.258 90.8674Z" fill="#F005C4"/>
<path d="M535.275 83.953C535.256 83.9856 535.09 84.0198 535.056 84.034C534.852 84.1145 534.655 84.209 534.466 84.3165C533.7 84.7521 533.397 85.4156 533.032 86.1764C532.78 86.7035 532.502 87.5325 531.984 87.8643C531.473 88.1925 531.041 88.4681 529.567 88.4387C528.651 88.4201 527.681 88.5016 526.85 88.9494C525.886 89.4679 525.412 90.433 524.722 91.2409C524.158 91.8993 523.432 92.5605 522.575 92.7817L528.304 96.0893L535.275 83.953Z" fill="#FF744B"/>
</g>
<path d="M581.569 57.6016C584.319 57.6016 586.548 55.3607 586.548 52.5964C586.548 49.8322 584.319 47.5913 581.569 47.5913C578.819 47.5913 576.59 49.8322 576.59 52.5964C576.59 55.3607 578.819 57.6016 581.569 57.6016Z" fill="#FFBD35"/>
<mask id="mask2" mask-type="alpha" maskUnits="userSpaceOnUse" x="573" y="44" width="17" height="17">
<ellipse rx="8.38317" ry="8.38722" transform="matrix(0.960503 -0.278272 0.276019 0.961153 581.559 52.5767)" fill="black"/>
</mask>
<g mask="url(#mask2)">
<path d="M584.204 71.1835L593.189 71.0018L592.802 50.9215L583.556 64.2191L584.204 71.1835Z" fill="#6AEDCB"/>
<path d="M584.604 63.7354C585.7 61.5928 587.773 61.5841 589.217 60.5526C590.138 59.8957 590.766 58.898 591.096 57.8166C591.616 56.1107 591.264 54.1383 592.209 52.6255C592.393 52.3293 592.627 52.0555 592.73 51.7226C592.81 51.4644 592.807 51.1878 592.802 50.9177L592.614 39.8751C590.579 40.9818 589.424 43.1789 588.399 45.258C584.058 54.0618 579.942 63.004 574.78 71.354L584.206 71.1748C584.902 71.161 584.432 67.8237 584.393 67.5355C584.211 66.2156 584.103 64.9993 584.604 63.7354Z" fill="#30C7FF"/>
<path d="M575.112 71.3506C575.112 71.3506 576.301 69.9381 577.377 69.3087C578.452 68.6792 580.083 67.3973 580.844 65.9733C581.606 64.5493 581.839 63.3283 581.775 61.5368C581.711 59.7453 582.637 57.9019 584.184 56.8458C585.731 55.7906 589.195 54.6647 589.232 51.43C589.27 48.1953 588.28 43.7977 592.601 40.1251L592.387 27.0676L590.649 27.1026L569.455 69.6264L568.721 71.4754L575.112 71.3506Z" fill="#6C5DFE"/>
<path d="M572.367 71.4051C572.367 71.4051 573.237 70.0791 573.333 67.4361C573.387 65.9489 573.586 64.461 574.193 63.0881C575.116 61.0009 576.849 59.4962 578.829 58.4448C579.102 58.2993 579.38 58.1733 579.636 57.9979C580.118 57.6661 580.552 57.2672 580.923 56.8146C582.003 55.4968 582.304 53.5696 582.406 51.262C582.508 48.9544 583.411 45.8154 584.672 43.9656C585.934 42.1156 587.063 40.8444 589.132 38.5936C591.202 36.3427 593.454 33.5445 591.946 27.0756L585.714 27.2007L568.434 55.4803L568.722 71.4775L572.367 71.4051Z" fill="#A20ED3"/>
<path d="M568.481 58.3014C568.481 58.3014 569.44 55.6896 572.527 54.0433C575.614 52.397 577.502 53.4632 578.756 48.4928C580.009 43.5225 579.26 42.0012 581.081 39.1801C582.902 36.3589 584.505 34.9828 586.485 33.1186C588.465 31.2543 589.504 30.3536 589.446 27.1218L581.298 27.2854L568.352 51.2466L568.481 58.3014Z" fill="#D60A99"/>
<path d="M583.409 27.2388C582.134 28.3365 580.622 29.5833 580.232 31.5116C579.841 33.44 579.386 35.562 578.508 37.4045C577.631 39.2469 576.438 39.6058 575.264 41.0706C574.091 42.5352 573.706 45.0872 573.545 46.8189C573.385 48.5506 572.733 49.5726 571.704 51.0345C570.676 52.4964 568.389 53.4062 568.389 53.4062L568.243 45.2924L569.373 38.7875L576.122 27.3843L583.409 27.2388Z" fill="#F005C4"/>
<path d="M568.295 48.2892C568.294 48.2336 568.479 48.063 568.512 48.0184C568.709 47.7604 568.888 47.4894 569.048 47.2073C569.69 46.0676 569.571 44.9931 569.455 43.7482C569.374 42.8861 569.097 41.6207 569.503 40.8028C569.904 39.994 570.243 39.3132 572.142 38.2198C573.322 37.5408 574.494 36.6938 575.211 35.4878C576.043 34.0906 575.91 32.5031 576.174 30.9482C576.389 29.6807 576.81 28.2845 577.732 27.3468L567.922 27.5436L568.295 48.2892Z" fill="#FF744B"/>
</g>
<ellipse rx="7.55955" ry="7.56736" transform="matrix(0.960545 -0.278125 0.276165 0.961111 581.558 52.5763)" fill="white"/>
<mask id="mask3" mask-type="alpha" maskUnits="userSpaceOnUse" x="575" y="46" width="13" height="13">
<path fill-rule="evenodd" clip-rule="evenodd" d="M587.701 52.559C587.676 52.5055 587.635 52.4825 587.584 52.4635C586.939 52.2225 586.295 51.981 585.651 51.7379C585.594 51.7162 585.536 51.7043 585.475 51.6987C583.746 51.5414 582.017 51.3843 580.289 51.2245C579.235 51.1271 578.183 51.0161 577.122 51.0475C577.077 51.0489 577.034 51.0487 576.992 51.0649C576.555 51.2298 576.118 51.3937 575.682 51.5591C575.649 51.5718 575.611 51.5785 575.58 51.6134C575.588 51.7059 575.559 51.8045 575.587 51.9096C575.634 51.896 575.672 51.8845 575.711 51.8736C576.2 51.7376 576.689 51.6032 577.177 51.4645C577.285 51.434 577.39 51.4275 577.5 51.4373C580.159 51.673 582.817 51.9093 585.475 52.1402C585.747 52.1639 586.008 52.2149 586.267 52.3027C586.753 52.468 587.243 52.6207 587.739 52.7809C587.767 52.6924 587.764 52.693 587.701 52.559Z" fill="black"/>
<path fill-rule="evenodd" clip-rule="evenodd" d="M587.588 52.991C587.226 52.8932 586.863 52.7953 586.499 52.6994C586.359 52.6623 586.221 52.6117 586.075 52.5992C583.203 52.3537 580.331 52.1086 577.458 51.8621C577.392 51.8564 577.329 51.8612 577.265 51.873C576.894 51.9415 576.524 52.0089 576.153 52.077C575.958 52.1128 575.763 52.1496 575.565 52.1863C575.561 52.2865 575.541 52.3803 575.566 52.4775C576.016 52.436 576.459 52.3925 576.902 52.3553C577.103 52.3386 577.304 52.298 577.507 52.3148C580.239 52.5415 582.971 52.7691 585.703 52.9974C585.977 53.0203 586.253 53.0251 586.523 53.0741C586.837 53.1312 587.148 53.2039 587.46 53.2682C587.495 53.2753 587.529 53.2947 587.574 53.2757C587.602 53.1933 587.633 53.1065 587.661 53.0247C587.637 52.9967 587.611 52.997 587.588 52.991Z" fill="black"/>
<path fill-rule="evenodd" clip-rule="evenodd" d="M578.529 52.81C578.155 52.7799 577.781 52.7389 577.406 52.7263C576.999 52.7125 576.591 52.7258 576.183 52.7278C575.991 52.7289 575.798 52.7311 575.596 52.7329C575.624 52.8304 575.648 52.9153 575.678 53.0182C579.566 53.3223 583.453 53.6263 587.346 53.9309C587.388 53.8105 587.427 53.6984 587.469 53.5757C587.188 53.5373 586.922 53.4885 586.653 53.4664C583.945 53.2451 581.237 53.0278 578.529 52.81Z" fill="black"/>
<path fill-rule="evenodd" clip-rule="evenodd" d="M575.67 51.2601C575.963 51.121 576.255 50.9798 576.548 50.8415C576.682 50.7781 576.811 50.7097 576.971 50.7123C577.48 50.7205 577.989 50.7143 578.499 50.7148C578.854 50.7151 579.211 50.6896 579.565 50.7222C581.434 50.8939 583.303 51.0723 585.173 51.2478C585.225 51.2528 585.276 51.2599 585.326 51.281C585.959 51.5511 586.592 51.8212 587.227 52.0888C587.322 52.1289 587.413 52.182 587.523 52.2021C587.513 52.1276 587.465 52.078 587.447 52.016C587.427 51.944 587.377 51.905 587.31 51.8737C586.55 51.5193 585.79 51.1631 585.032 50.8053C584.972 50.7771 584.912 50.7625 584.846 50.7562C583.665 50.6427 582.483 50.528 581.302 50.414C581.004 50.3854 580.706 50.3351 580.409 50.3367C579.161 50.3436 577.912 50.3668 576.663 50.3826C576.604 50.3834 576.554 50.3984 576.503 50.4285C576.368 50.5094 576.23 50.5861 576.093 50.6655C575.929 50.7609 575.767 50.8577 575.603 50.9536C575.6 51.0658 575.597 51.1699 575.594 51.2717C575.627 51.2845 575.649 51.2702 575.67 51.2601Z" fill="black"/>
<path fill-rule="evenodd" clip-rule="evenodd" d="M578.586 53.6425C578.18 53.6114 577.772 53.6001 577.368 53.5364C576.858 53.4557 576.348 53.3693 575.838 53.287C575.806 53.2818 575.769 53.2575 575.733 53.2935C575.757 53.3774 575.781 53.4627 575.807 53.5527C575.824 53.5578 575.842 53.565 575.861 53.5696C576.411 53.7041 576.961 53.8389 577.51 53.972C577.561 53.9843 577.614 53.9881 577.666 53.9921C579.116 54.0987 580.565 54.2048 582.015 54.311C583.633 54.4294 585.252 54.5476 586.877 54.6663C586.976 54.5493 587.077 54.4304 587.191 54.2953C587.13 54.2901 587.092 54.2864 587.053 54.2834C584.231 54.0702 581.408 53.8579 578.586 53.6425Z" fill="black"/>
<path fill-rule="evenodd" clip-rule="evenodd" d="M586.513 55.003C586.09 54.9735 585.667 54.9436 585.245 54.9138C582.736 54.7363 580.227 54.5589 577.718 54.3823C577.641 54.3769 577.567 54.363 577.493 54.3392C576.993 54.1775 576.492 54.0178 575.991 53.8578C575.954 53.8459 575.918 53.8259 575.867 53.8311C575.894 53.924 575.919 54.012 575.948 54.1126C576.493 54.3289 577.038 54.5453 577.584 54.762C577.629 54.7801 577.677 54.785 577.726 54.7884C580.054 54.9471 582.382 55.1071 584.71 55.2665C585.233 55.3023 585.756 55.3373 586.28 55.3726C586.377 55.2531 586.484 55.1459 586.567 55.0222C586.546 55.0012 586.529 55.0042 586.513 55.003Z" fill="black"/>
<path fill-rule="evenodd" clip-rule="evenodd" d="M576.487 50.0975C577.902 50.0655 579.316 50.0308 580.731 49.9999C581.018 49.9937 581.305 49.9654 581.591 49.9933C582.564 50.0875 583.537 50.1855 584.51 50.2808C584.588 50.2886 584.659 50.3085 584.729 50.3445C585.533 50.7585 586.337 51.1711 587.142 51.583C587.177 51.6009 587.209 51.6303 587.263 51.6263C587.201 51.4831 587.152 51.3541 586.997 51.2707C586.183 50.8315 585.375 50.3822 584.569 49.9286C584.389 49.8272 584.208 49.7649 584 49.7489C583.276 49.6931 582.559 49.5856 581.826 49.6165C579.972 49.695 578.117 49.7441 576.262 49.8057C576.219 49.8071 576.174 49.8062 576.135 49.8378C575.967 49.9758 575.796 50.1121 575.627 50.2485C575.623 50.3699 575.619 50.4855 575.614 50.6229C575.853 50.4594 576.072 50.3135 576.285 50.1605C576.349 50.1153 576.412 50.0992 576.487 50.0975Z" fill="black"/>
<path fill-rule="evenodd" clip-rule="evenodd" d="M577.761 55.1619C577.703 55.1581 577.651 55.1459 577.599 55.1211C577.115 54.893 576.631 54.6662 576.146 54.4399C576.105 54.4205 576.064 54.3958 576.004 54.3906C576.033 54.4911 576.058 54.5798 576.086 54.6769C576.585 54.9457 577.092 55.2182 577.597 55.4933C577.674 55.535 577.751 55.5567 577.838 55.5622C580.102 55.705 582.367 55.8498 584.631 55.9941C584.985 56.0166 585.339 56.0382 585.698 56.0603C585.793 55.9479 585.887 55.8374 585.999 55.707C585.823 55.6946 585.671 55.6836 585.52 55.6735C582.933 55.5024 580.347 55.3316 577.761 55.1619Z" fill="black"/>
<path fill-rule="evenodd" clip-rule="evenodd" d="M576.075 49.5607C576.512 49.5445 576.948 49.5228 577.384 49.5044C579.149 49.4296 580.915 49.3533 582.68 49.2821C583.075 49.2661 583.47 49.2175 583.866 49.2766C583.936 49.2871 583.997 49.3068 584.057 49.3427C584.821 49.7958 585.585 50.2478 586.35 50.6997C586.562 50.825 586.774 50.9497 586.986 51.0747C586.943 50.9488 586.922 50.8201 586.798 50.743C585.835 50.1429 584.874 49.5391 583.913 48.9349C583.865 48.9049 583.818 48.8949 583.764 48.8978C582.766 48.9495 581.769 49.0012 580.771 49.0524C579.188 49.1337 577.605 49.2165 576.022 49.2927C575.873 49.2998 575.756 49.3364 575.671 49.4599C575.667 49.4664 575.662 49.4731 575.653 49.4863C575.65 49.6078 575.646 49.7354 575.642 49.8869C575.752 49.7857 575.845 49.7026 575.935 49.6167C575.975 49.5777 576.018 49.5628 576.075 49.5607Z" fill="black"/>
<path fill-rule="evenodd" clip-rule="evenodd" d="M585.296 56.3778C582.809 56.2241 580.323 56.072 577.837 55.9204C577.774 55.9167 577.72 55.9016 577.666 55.8688C577.234 55.6045 576.801 55.342 576.367 55.0791C576.3 55.0382 576.232 54.9971 576.139 54.9404C576.174 55.0624 576.2 55.154 576.229 55.2567C576.716 55.5848 577.213 55.9192 577.709 56.2564C577.767 56.2959 577.828 56.3014 577.892 56.3053C579.94 56.4259 581.987 56.5466 584.034 56.6674C584.397 56.6888 584.759 56.7108 585.127 56.7325C585.221 56.6216 585.314 56.5118 585.407 56.4017C585.369 56.3677 585.33 56.3799 585.296 56.3778Z" fill="black"/>
<path fill-rule="evenodd" clip-rule="evenodd" d="M577.914 56.6554C577.843 56.6513 577.782 56.6318 577.724 56.5884C577.43 56.367 577.133 56.1485 576.837 55.9297C576.662 55.8006 576.486 55.6722 576.311 55.5435C576.305 55.5472 576.299 55.5507 576.292 55.5544C576.319 55.6461 576.345 55.7378 576.377 55.8474C576.821 56.2045 577.282 56.5735 577.742 56.9454C577.808 56.9989 577.875 57.0222 577.961 57.0269C579.841 57.1283 581.72 57.2325 583.6 57.336C583.925 57.354 584.251 57.37 584.575 57.3867C584.668 57.2765 584.756 57.1722 584.859 57.051C584.802 57.0467 584.77 57.044 584.737 57.0422C582.463 56.913 580.188 56.7838 577.914 56.6554Z" fill="black"/>
<path fill-rule="evenodd" clip-rule="evenodd" d="M579.477 48.8638C580.898 48.7792 582.319 48.6961 583.74 48.61C583.8 48.6062 583.847 48.6182 583.897 48.6512C584.802 49.2511 585.708 49.8493 586.615 50.4477C586.655 50.4746 586.694 50.508 586.748 50.5187C586.695 50.3582 586.614 50.238 586.474 50.1422C585.654 49.5834 584.838 49.0184 584.027 48.4457C583.876 48.3385 583.732 48.2776 583.548 48.3176C583.485 48.331 583.419 48.325 583.354 48.3295C582.156 48.4115 580.957 48.4944 579.758 48.5756C578.56 48.6565 577.361 48.7355 576.163 48.8172C576.124 48.8199 576.082 48.8113 576.045 48.8375C575.938 48.9149 575.829 48.9908 575.702 49.0805C575.753 49.0825 575.78 49.0858 575.807 49.0842C577.03 49.0111 578.253 48.9366 579.477 48.8638Z" fill="black"/>
<path fill-rule="evenodd" clip-rule="evenodd" d="M576.444 48.5933C577.122 48.5426 577.8 48.4909 578.477 48.4399C580.208 48.3097 581.939 48.1806 583.67 48.0467C583.764 48.0395 583.831 48.0635 583.903 48.1161C584.745 48.728 585.589 49.3375 586.433 49.9475C586.451 49.9609 586.467 49.9849 586.503 49.9668C586.441 49.8702 586.428 49.7506 586.324 49.6732C585.498 49.0547 584.673 48.4327 583.849 47.8112C583.802 47.7754 583.756 47.7615 583.693 47.7668C583.181 47.8114 582.668 47.8501 582.156 47.8924C580.374 48.0397 578.591 48.1879 576.808 48.3354C576.78 48.3376 576.751 48.3338 576.726 48.3518C576.624 48.4259 576.521 48.5 576.414 48.5768C576.431 48.5866 576.438 48.5937 576.444 48.5933Z" fill="black"/>
<path fill-rule="evenodd" clip-rule="evenodd" d="M578.007 57.3655C577.915 57.3608 577.842 57.3339 577.77 57.2707C577.375 56.9234 576.975 56.5818 576.577 56.2391C576.537 56.2054 576.504 56.1636 576.432 56.1364C576.468 56.253 576.456 56.372 576.525 56.4423C576.684 56.6027 576.842 56.7695 577.028 56.8976C577.282 57.0719 577.547 57.2295 577.807 57.3953C577.855 57.4264 577.906 57.4468 577.963 57.4592C578.436 57.5633 578.91 57.6692 579.383 57.775C579.446 57.7892 579.51 57.7974 579.575 57.8008C580.757 57.8602 581.939 57.9209 583.121 57.9809C583.427 57.9964 583.732 58.011 584.036 58.0258C584.122 57.9123 584.222 57.8199 584.299 57.6992C584.275 57.6951 584.263 57.692 584.252 57.6915C582.17 57.5824 580.089 57.4731 578.007 57.3655Z" fill="black"/>
<path fill-rule="evenodd" clip-rule="evenodd" d="M586.231 49.4498C586.239 49.4433 586.247 49.4368 586.255 49.4303C586.197 49.3364 586.178 49.2248 586.082 49.1476C585.327 48.5432 584.575 47.9356 583.824 47.327C583.769 47.2827 583.715 47.2704 583.646 47.2773C583.054 47.3365 582.462 47.3921 581.87 47.4491C581.193 47.5143 580.516 47.58 579.84 47.645C579.078 47.7181 578.317 47.7915 577.556 47.8633C577.39 47.879 577.208 47.9744 577.088 48.1203C579.319 47.9208 581.546 47.7219 583.762 47.524C584.593 48.1724 585.412 48.8111 586.231 49.4498Z" fill="black"/>
<path fill-rule="evenodd" clip-rule="evenodd" d="M586.007 48.9425C585.951 48.7584 585.829 48.6262 585.696 48.5112C585.061 47.9591 584.419 47.4151 583.781 46.8667C583.737 46.8284 583.692 46.8192 583.637 46.8253C582.872 46.9102 582.108 46.9955 581.343 47.0781C580.292 47.1919 579.242 47.3081 578.19 47.4122C577.991 47.4318 577.864 47.5474 577.726 47.6676C579.726 47.463 581.727 47.2584 583.733 47.0531C584.489 47.6817 585.248 48.3121 586.007 48.9425Z" fill="black"/>
<path fill-rule="evenodd" clip-rule="evenodd" d="M585.013 47.7682C585.02 47.7606 585.027 47.7531 585.034 47.7455C584.664 47.2241 584.163 46.8342 583.695 46.4035C583.077 46.4784 582.458 46.5546 581.839 46.6285C580.818 46.7504 579.798 46.8747 578.776 46.9881C578.587 47.009 578.465 47.117 578.334 47.2345C580.126 47.03 581.918 46.8256 583.705 46.6216C584.145 47.0068 584.579 47.3876 585.013 47.7682Z" fill="black"/>
<path fill-rule="evenodd" clip-rule="evenodd" d="M583.675 46.1612C583.665 46.161 583.653 46.1599 583.642 46.1611C582.889 46.2285 582.136 46.2961 581.383 46.3642C580.73 46.4231 580.078 46.4869 579.428 46.5693C579.226 46.595 579.056 46.6637 578.897 46.8214C580.512 46.6196 582.108 46.4202 583.706 46.2206C583.708 46.199 583.7 46.1772 583.675 46.1612Z" fill="black"/>
<path fill-rule="evenodd" clip-rule="evenodd" d="M583.701 58.3274C583.028 58.2944 582.354 58.2626 581.681 58.2283C581.634 58.2261 581.593 58.2331 581.536 58.2571C582.094 58.3808 582.633 58.4997 583.172 58.6209C583.283 58.6461 583.395 58.6518 583.511 58.6485C583.597 58.5466 583.681 58.446 583.765 58.3462C583.741 58.3201 583.72 58.3283 583.701 58.3274Z" fill="black"/>
</mask>
<g mask="url(#mask3)">
<path d="M582.033 66.5439L591.016 68.1131L594.529 48.0312L582.739 59.4787L582.033 66.5439Z" fill="#6AEDCB"/>
<path d="M583.877 59.2019C585.385 57.2807 587.451 57.6759 589.089 56.9296C590.133 56.4544 590.953 55.5828 591.491 54.5697C592.341 52.9714 592.372 50.9376 593.607 49.6144C593.848 49.3552 594.134 49.128 594.302 48.8164C594.432 48.5748 594.482 48.2985 594.529 48.0285L596.485 36.99C594.243 37.6961 592.667 39.6601 591.243 41.5319C585.211 49.4576 579.376 57.5648 572.615 64.8786L582.037 66.5364C582.732 66.6581 582.912 63.2415 582.929 62.9468C583.004 61.5963 583.132 60.3634 583.877 59.2019Z" fill="#30C7FF"/>
<path d="M572.944 64.9404C572.944 64.9404 574.403 63.7647 575.596 63.3471C576.789 62.9295 578.662 61.9699 579.697 60.6996C580.732 59.4292 581.201 58.2582 581.485 56.4608C581.768 54.6634 583.048 53.0071 584.794 52.2563C586.54 51.5064 590.208 51.0594 590.873 47.844C591.539 44.6285 591.406 40.0542 596.422 37.237L598.743 24.186L597.005 23.8821L567.645 62.1204L566.555 63.8197L572.944 64.9404Z" fill="#6C5DFE"/>
<path d="M570.198 64.4598C570.198 64.4598 571.321 63.3081 571.93 60.6935C572.273 59.2225 572.76 57.7788 573.63 56.5291C574.955 54.6294 576.973 53.468 579.149 52.8061C579.449 52.7144 579.751 52.643 580.039 52.5181C580.584 52.2814 581.093 51.9684 581.551 51.5899C582.882 50.4872 583.556 48.6259 584.105 46.3466C584.654 44.0673 586.163 41.1159 587.778 39.5185C589.394 37.9211 590.765 36.8747 593.263 35.0352C595.761 33.1958 598.547 30.8468 598.3 24.1078L592.069 23.0183L569.371 47.8273L566.553 63.8217L570.198 64.4598Z" fill="#C908A4"/>
<path d="M568.869 50.6482C568.869 50.6482 570.331 48.233 573.725 47.1942C577.119 46.1554 578.793 47.5856 581.006 42.8778C583.218 38.1699 582.768 36.5084 585.129 34.0524C587.489 31.5964 589.353 30.5377 591.687 29.0662C594.021 27.5946 595.23 26.8995 595.799 23.6683L587.653 22.244L570.11 43.5946L568.869 50.6482Z" fill="#D60A99"/>
</g>
<path d="M495.965 16H355.036C351.702 16 349 18.7162 349 22.0668V127.933C349 131.284 351.702 134 355.036 134H495.965C499.298 134 502 131.284 502 127.933V22.0668C502 18.7162 499.298 16 495.965 16Z" fill="#F2F6FB"/>
<path d="M439.895 104.895C454.729 96.281 459.847 77.2649 451.327 62.4216C442.807 47.5783 423.876 42.5288 409.043 51.1431C394.21 59.7574 389.092 78.7736 397.612 93.6169C406.131 108.46 425.062 113.51 439.895 104.895ZM434.951 96.2815C424.86 102.142 411.99 98.7095 406.203 88.6272C400.416 78.5448 403.896 65.6176 413.987 59.7569C424.079 53.8962 436.948 57.3289 442.735 67.4113C448.522 77.4937 445.043 90.4208 434.951 96.2815Z" fill="#E1E5F0"/>
<path d="M406.572 46.8362C389.368 56.8274 383.43 78.888 393.316 96.1118C403.202 113.336 425.164 119.194 442.368 109.202C459.572 99.2112 465.509 77.1506 455.623 59.9268L447.032 64.9165C454.185 77.3793 449.886 93.351 437.424 100.589C424.961 107.826 409.061 103.585 401.908 91.1221C394.755 78.6593 399.053 62.6876 411.516 55.4501L406.572 46.8362Z" fill="#5A87F6"/>
<path d="M406.329 45.4013C388.647 55.6694 382.544 78.3424 392.705 96.045C402.867 113.748 425.44 119.768 443.122 109.5L437.194 99.1734C425.197 106.14 409.892 102.058 403.006 90.0631C396.121 78.0682 400.259 62.6949 412.256 55.728L406.329 45.4013Z" fill="#474961"/>
<path d="M349 22.0682C349 18.7168 351.704 16 355.033 16H495.967C499.299 16 502 18.7171 502 22.0682V29.347H349V22.0682Z" fill="#E1E5F0"/>
<path d="M357.902 25.7069C359.485 25.7069 360.769 24.4167 360.769 22.8251C360.769 21.2336 359.485 19.9434 357.902 19.9434C356.319 19.9434 355.035 21.2336 355.035 22.8251C355.035 24.4167 356.319 25.7069 357.902 25.7069Z" fill="#FF5645"/>
<path d="M367.257 25.7069C368.841 25.7069 370.124 24.4167 370.124 22.8251C370.124 21.2336 368.841 19.9434 367.257 19.9434C365.674 19.9434 364.391 21.2336 364.391 22.8251C364.391 24.4167 365.674 25.7069 367.257 25.7069Z" fill="#FFCB3D"/>
<path d="M376.914 25.7069C378.497 25.7069 379.781 24.4167 379.781 22.8251C379.781 21.2336 378.497 19.9434 376.914 19.9434C375.33 19.9434 374.047 21.2336 374.047 22.8251C374.047 24.4167 375.33 25.7069 376.914 25.7069Z" fill="#3ABF7C"/>
<path d="M672.428 91.4248C667.914 94.4037 660.851 92.1701 655.194 91.1565C653.907 90.1651 653.775 87.788 653.185 86.3164C651.479 82.0572 648.703 78.559 648.686 74.0357C648.67 69.8365 652.834 67.1389 652.269 62.8943C651.732 58.8626 649.699 54.7518 653.466 52.4472C656.551 50.5606 659.311 49.3327 661.516 46.4716C664.358 42.7843 661.255 38.9503 659.131 34.4272C656.815 29.4969 653.604 24.3482 655.55 19.7143C657.047 16.1495 660.229 12.7963 662.786 9.99636C665.663 6.845 670.186 6.42397 675.072 7.21063C681.677 8.27389 687.276 13.0689 691.979 17.9133C696.761 22.8373 701.353 28.0162 704.014 34.0272C706.281 39.1503 704.86 42.1746 701.431 45.1541C699.116 47.165 694.774 50.1345 695.237 53.8516C695.457 55.6192 696.607 58.1953 695.515 59.6122C692.135 63.9974 687.07 64.4401 681.111 64.235C674.052 63.9919 669.182 70.4917 671.553 77.3794C673.365 82.644 677.757 87.9075 672.428 91.4248Z" stroke="#E0E0E0" stroke-linecap="round" stroke-linejoin="round"/>
<circle cx="84.0835" cy="32.7319" r="14.2378" fill="#B007C1" stroke="white" stroke-width="2"/>
<circle cx="803.681" cy="200.598" r="14.2378" transform="rotate(121.073 803.681 200.598)" fill="#FE02AC" stroke="white" stroke-width="2"/>
<circle cx="90.9913" cy="67.2652" r="7.33112" fill="#FFBD35" stroke="white" stroke-width="2"/>
<circle cx="770.538" cy="200.69" r="7.33112" transform="rotate(121.073 770.538 200.69)" fill="#88B4F7" stroke="white" stroke-width="2"/>
<circle cx="114.588" cy="49.4228" r="10.2089" fill="#FE02AC" stroke="white" stroke-width="2"/>
<circle cx="773.641" cy="230.11" r="10.2089" transform="rotate(121.073 773.641 230.11)" fill="#FFBD35" stroke="white" stroke-width="2"/>
<path d="M816.458 144.636C806.932 154.582 806.011 166.814 806.741 171.687C803.513 168.858 797.067 159.361 797.103 143.997C797.149 124.792 813.311 110.126 827.308 116.27C838.506 121.185 824.74 137.229 816.458 144.636Z" fill="white"/>
<path d="M815 22L828.291 28.4007L831.574 42.7829L822.376 54.3165H807.624L798.426 42.7829L801.709 28.4007L815 22Z" fill="#D5DBE2"/>
<path d="M243.34 362.203H200.291C199.505 362.203 198.877 362.824 198.877 363.601C198.877 364.379 199.505 365 200.291 365H250.221H285.773C286.549 365 287.17 364.379 287.17 363.601C287.17 362.824 286.549 362.203 285.773 362.203H243.34Z" fill="#DE3190"/>
<path d="M286.191 362.233C286.254 362.108 286.302 361.973 286.332 361.83V361.799C286.332 361.643 286.363 361.488 286.332 361.332C286.301 361.146 286.301 360.99 286.239 360.804C285.835 359.405 284.749 358.224 284.035 357.571C283.942 357.478 283.88 357.447 283.787 357.385C282.422 356.545 281.025 355.768 279.566 355.115C276.711 353.81 270.38 351.137 268.487 350.173C266.035 348.929 262.653 346.816 259.115 343.023C258.835 342.806 258.525 342.713 258.184 342.713L236.863 342.837C235.963 342.837 235.249 343.583 235.311 344.515L235.512 351.92C234.609 351.492 233.691 351.019 232.658 350.422C231.191 349.582 229.13 348.215 226.819 346.163C225.539 345.044 224.228 343.925 222.947 342.806L203.619 342.557L199.582 362.468C199.815 362.301 200.103 362.203 200.415 362.203H243.465H285.897C285.998 362.203 286.096 362.213 286.191 362.233Z" fill="#474961"/>
<path opacity="0.176986" d="M249.897 362.202H285.85C285.931 362.06 285.99 361.904 286.025 361.736V361.705C286.025 361.55 286.056 361.394 286.025 361.239C285.994 361.052 285.994 360.897 285.932 360.71C285.529 359.312 284.443 358.13 283.729 357.478C283.636 357.384 283.574 357.353 283.48 357.291C282.115 356.452 280.718 355.675 279.26 355.022C276.405 353.716 270.074 351.043 268.18 350.079C265.729 348.836 262.346 346.722 258.808 342.93C258.529 342.712 258.218 342.619 257.877 342.619L236.556 342.743C235.656 342.743 235.245 343.398 235.307 344.331L235.517 352.079C237.652 353.069 239.785 353.863 243.26 355.519C244.749 356.234 246.177 357.042 247.574 357.944C248.256 358.566 249.436 359.84 249.808 361.332C249.87 361.581 249.87 361.829 249.901 362.047C249.901 362.099 249.9 362.151 249.897 362.202H249.897Z" fill="#444444"/>
<path d="M239.606 347.041C239.713 347.053 239.82 347.06 239.93 347.06L260.083 346.843H261.711C263.313 346.843 264.665 345.607 264.748 343.774C264.941 340.079 265.19 335.214 265.494 329.591C266.322 315.409 266.763 310.892 267.26 299.962C267.343 298.13 267.426 296.487 267.481 294.94C267.702 287.58 268.282 280.694 269.414 271.691C270.049 266.7 270.352 263.605 270.38 260.983C270.408 258.55 269.773 256.15 268.558 254.16C267.951 253.181 267.26 252.328 266.432 251.601C264.306 249.737 261.463 248.158 259.199 248.316C253.332 248.344 247.464 248.347 241.597 248.368C240.368 248.076 238.997 247.932 237.484 247.935L234.542 247.967C234.558 247.931 222.17 247.865 197.375 247.769C189.695 241.73 181.208 239.198 171.916 240.173C168.207 240.562 164.847 241.622 161.835 243.353C158.51 245.239 155.606 247.937 153.125 251.448C151.595 253.05 147.001 260.365 147.913 271.506C148.09 273.557 148.472 278.127 150.944 282.479C153.533 287.017 156.711 290.343 162.037 292.239C166.744 293.918 172.247 294.508 177.955 293.856C185.997 292.322 195.299 291.048 205.86 290.032C203.008 297.849 201.16 302.763 200.317 304.773C199.051 307.757 195.617 320.641 194.327 330.511C193.696 335.339 193.916 339.607 194.988 343.315C195.641 345.577 197.71 347.133 200.061 347.131L226.474 347.104L238.332 347.041H239.606Z" fill="#3ABF7C"/>
<path opacity="0.176986" d="M241.169 248.37C243.786 248.93 245.784 250.134 247.161 251.984C250.134 255.978 249.277 259.818 249.277 262.18V262.336C249.248 264.916 248.924 267.962 248.277 272.873C247.071 281.733 246.453 288.478 246.217 295.752C246.159 297.244 246.07 298.891 245.982 300.694C245.482 311.418 244.982 315.863 244.099 329.852C243.746 335.385 243.481 340.141 243.304 343.809C243.216 345.611 241.774 347.041 240.068 347.041H239.597C239.707 347.057 239.817 347.064 239.93 347.064L260.083 346.843H261.711C263.313 346.843 264.748 345.515 264.748 343.474C264.941 339.79 265.19 334.941 265.494 329.336C266.322 315.198 266.763 310.695 267.26 299.8C267.343 297.973 267.426 296.336 267.481 294.793C267.702 287.456 268.282 280.592 269.414 271.618C270.049 266.642 270.352 263.556 270.38 260.943C270.408 258.518 269.773 256.125 268.558 254.141C267.951 253.165 267.26 252.315 266.432 251.591C264.306 249.733 261.463 248.159 259.199 248.316C253.189 248.344 247.179 248.347 241.169 248.37Z" fill="#444444"/>
<path d="M193.05 191.101C195.75 193.211 197.931 196.457 198.339 197.647C201.728 207.52 205.81 207.128 206.136 209.267C206.623 212.466 202.884 212.856 202.884 212.856C201.147 213.022 199.827 213.149 198.923 213.237L198.708 222.067L198.687 222.379L198.326 237.85L198.245 240.87C198.254 241.119 198.231 241.337 198.208 241.587C198.187 241.867 198.165 242.117 198.143 242.398C198.075 243.116 197.944 243.804 197.751 244.495C197.667 244.778 197.615 245.06 197.501 245.344C171.675 246.247 158.684 244.441 158.526 239.927L159.17 212.978L155.253 212.845C155.253 212.845 150.996 212.558 151.482 209.34C151.807 207.189 156.476 207.364 160.127 197.335C160.628 195.958 163.693 191.802 167.315 189.663C167.429 189.595 167.544 189.53 167.66 189.466C170.132 188.068 173 187.298 176.04 187.371L183.189 187.556C186.936 187.631 190.35 188.947 193.05 191.101Z" fill="url(#paint1_linear)"/>
<path opacity="0.176986" d="M196.41 194.518C197.435 195.827 198.149 197.035 198.365 197.666C201.754 207.538 205.809 207.129 206.135 209.267C206.623 212.467 202.928 212.846 202.928 212.846L199.023 213.224L199.231 204.68L199.243 204.12C199.34 200.561 198.284 197.241 196.41 194.518Z" fill="#444444"/>
<path d="M178.747 174.564C178.691 174.512 178.636 174.458 178.581 174.402C177.598 173.364 177.023 171.715 177.565 170.121C178.07 168.586 179.574 167.342 181.065 167.405C181.905 167.431 184.16 167.947 184.145 167.198L183.981 159.269C183.972 158.77 184.36 158.344 184.86 158.334C185.957 158.293 187.032 158.157 188.188 157.842C188.315 157.824 188.442 157.806 188.569 157.788C189.616 157.618 195.497 156.895 198.866 161.049C199.173 161.393 199.443 161.795 199.706 162.259C200.312 163.319 200.621 164.535 200.615 165.78L200.593 171.322C200.565 171.88 200.538 172.438 200.449 172.989C199.379 179.885 196.526 184.757 193.937 185.046C193.618 185.106 191.953 185.211 189.973 184.754C189.793 184.705 189.937 184.781 187.354 183.872L186.928 188.078C185.696 187.756 184.404 187.573 183.07 187.547L177.739 187.409L178.412 181.011L178.704 178.239L178.747 174.564ZM198.384 234.501L198.646 223.35L198.673 222.303L198.689 222.063L198.814 216.948L198.911 213.246L201.434 213.003L210.143 236.74C210.957 236.895 211.899 237.087 213.002 237.322C214.778 237.312 216.248 237.353 217.412 237.444C222.127 237.814 226.177 237.967 230.92 240.79C239.566 245.937 240.24 248.306 232.942 247.899L218.057 247.812C217.872 247.88 217.686 247.924 217.502 247.94C217.502 247.94 195.749 247.748 152.244 247.365C150.494 247.349 148.851 246.52 147.797 245.121C147.29 244.448 146.922 243.216 146.693 241.427C145.982 237.65 148.013 232.242 151.871 221.736C153.098 218.405 154.26 215.377 155.354 212.686L179.401 213.598C177.546 218.213 174.274 229.192 173.347 230.875C173.345 230.876 173.342 230.877 173.34 230.878C180.265 231.812 188.563 232.971 198.384 234.501Z" fill="#F2A98A"/>
<path d="M187.124 186.175L184.24 182.513L187.364 183.871L187.124 186.175Z" fill="#482D1F"/>
<path d="M184.638 169.685C184.511 169.455 184.024 168.648 183.136 168.024C183.05 167.952 182.376 167.538 181.536 167.512C180.045 167.448 178.541 168.697 178.036 170.238C177.494 171.837 178.038 173.488 179.021 174.53C179.78 175.333 180.702 175.651 181.265 175.788C181.26 176.844 181.282 177.991 181.331 179.229C178.924 179.072 176.803 178.021 174.968 176.078C174.21 175.279 172.195 173.066 171.568 169.531C171.495 169.081 171.352 168.222 171.34 167.158C166.564 167.237 162.702 165.101 161.282 162.069C159.959 159.215 160.877 155.797 161.008 155.313C162.318 150.444 166.729 150.5 167.106 150.49C167.106 150.49 173.465 148.278 178.492 158.465C178.495 158.471 178.498 158.478 178.501 158.484C179.942 158.372 181.69 158.473 184.353 158.312C185.326 158.258 186.746 158.02 188.489 157.766C188.612 157.779 190.102 157.627 190.229 157.609C190.858 157.609 192.968 157.41 195.696 158.634C198.424 159.857 199.431 161.697 199.39 161.774C199.312 161.922 197.919 162.553 197.088 162.747C194.754 163.283 192.726 162.975 191.48 162.657C191.152 163.404 190.688 164.261 190.069 165.102C188.278 167.602 186.02 168.896 184.612 169.529C184.62 169.581 184.629 169.633 184.638 169.685Z" fill="#482D1F"/>
<path d="M198.564 171.025C198.599 170.599 198.938 170.283 199.364 170.286C199.625 170.267 199.867 170.445 199.996 170.892C200.269 171.979 199.236 173.613 198.764 172.962C198.474 172.56 198.539 171.612 198.564 171.025ZM191.709 170.882C191.745 170.456 192.084 170.14 192.51 170.142C192.771 170.124 193.012 170.302 193.142 170.749C193.414 171.836 192.382 173.469 191.91 172.819C191.62 172.417 191.685 171.469 191.709 170.882Z" fill="#482D1F"/>
<path d="M196.971 171.357L197.46 174.344C197.488 174.724 197.224 175.094 196.862 175.119C196.649 175.151 196.512 175.16 195.96 175.189C195.713 175.201 195.545 175.211 195.345 175.225C195.174 175.237 195.026 175.108 195.014 174.937C195.002 174.766 195.131 174.617 195.302 174.605C195.506 174.591 195.678 174.581 195.928 174.568C196.458 174.541 196.587 174.532 196.796 174.501C196.81 174.499 196.846 174.448 196.844 174.416L196.359 171.457C196.331 171.288 196.446 171.128 196.615 171.1C196.784 171.072 196.944 171.187 196.971 171.357Z" fill="#482D1F"/>
<path d="M195.018 177.129C194.806 177.076 194.288 176.874 194.206 176.539C194.201 176.471 194.164 176.371 194.191 176.335C194.298 176.157 194.691 176.266 195.229 176.331C196.185 176.434 196.981 176.378 196.981 176.378C196.981 176.378 196.756 176.974 196.62 177.154C196.324 177.583 195.352 177.242 195.018 177.129Z" fill="#482D1F"/>
<path d="M187.056 169.584C187.61 167.989 189.07 166.797 190.858 166.672C193.252 166.504 195.328 168.312 195.495 170.71C195.498 170.744 195.5 170.779 195.501 170.813C195.54 170.806 195.581 170.803 195.623 170.806L196.497 170.867C196.688 168.781 198.366 167.081 200.52 166.93C202.914 166.762 204.99 168.57 205.158 170.968C205.325 173.365 203.52 175.445 201.126 175.612C198.809 175.775 196.79 174.086 196.511 171.803L195.558 171.736C195.52 171.734 195.484 171.727 195.45 171.716C195.133 173.664 193.515 175.211 191.464 175.354C189.07 175.522 186.994 173.714 186.827 171.317C186.807 171.037 186.815 170.761 186.847 170.493L184.587 169.937C184.337 169.875 184.185 169.623 184.246 169.373C184.307 169.123 184.559 168.97 184.809 169.031L187.056 169.584ZM197.412 171.415C197.414 171.446 197.416 171.478 197.418 171.51C197.549 173.394 199.181 174.814 201.061 174.682C202.942 174.55 204.36 172.917 204.229 171.033C204.097 169.149 202.466 167.729 200.585 167.86C198.777 167.987 197.396 169.503 197.409 171.294C197.415 171.328 197.416 171.363 197.414 171.399C197.413 171.404 197.413 171.41 197.412 171.415ZM191.399 174.424C193.28 174.292 194.698 172.658 194.567 170.775C194.435 168.891 192.804 167.47 190.923 167.602C189.042 167.734 187.624 169.368 187.756 171.252C187.887 173.136 189.518 174.556 191.399 174.424Z" fill="#482D1F"/>
<path d="M169.851 233.528C169.625 233.651 169.342 233.568 169.219 233.342C169.096 233.116 169.179 232.832 169.405 232.709L173.284 230.588C173.51 230.465 173.792 230.548 173.916 230.774C174.039 231 173.956 231.284 173.73 231.407L169.851 233.528ZM179.708 213.931C179.607 214.168 179.334 214.279 179.097 214.178C178.86 214.077 178.75 213.804 178.85 213.567L183.007 203.754C183.107 203.517 183.38 203.406 183.617 203.507C183.854 203.607 183.964 203.881 183.864 204.118L179.708 213.931Z" fill="#482D1F"/>
<path opacity="0.2" d="M198.381 234.591L198.665 222.408L198.685 222.096L198.901 213.241L201.426 212.997L210.117 236.798L198.381 234.591Z" fill="#8C2A00"/>
<path d="M206.318 290.283L215.32 280.822C215.498 280.635 215.49 280.34 215.304 280.162C215.118 279.985 214.824 279.992 214.646 280.178L205.644 289.64C205.467 289.827 205.474 290.122 205.66 290.299C205.846 290.477 206.141 290.47 206.318 290.283Z" fill="#482D1F"/>
<path d="M147.076 292.158V292.216C147.076 292.962 147.725 293.583 148.467 293.583H171.803L163.581 308.737C157.708 319.544 151.867 330.32 146.025 341.127L136.351 358.953C136.011 359.574 136.289 360.381 136.938 360.754L137.062 360.816C137.711 361.189 138.545 360.971 138.854 360.381L175.048 293.583H199.157L235.351 360.381C235.66 360.971 236.494 361.158 237.143 360.816L237.267 360.754C237.916 360.381 238.194 359.574 237.854 358.953L228.18 341.127C222.307 330.32 216.465 319.544 210.624 308.737L202.402 293.583H233.341C234.114 293.583 234.732 292.962 234.732 292.216V292.061C234.732 291.316 234.083 290.695 233.341 290.695H212.324C198.631 290.695 184.908 290.695 171.184 290.695H149.805L147.199 269.516C145.407 255.106 143.645 240.666 141.852 226.226L138.916 202.376C138.823 201.537 138.112 200.916 137.34 201.009L137.185 201.04C136.443 201.133 135.918 201.91 136.011 202.686L147.045 291.999C147.053 292.053 147.063 292.107 147.076 292.158Z" fill="#D8DEED"/>
<path d="M25.3882 131.309C27.1446 126.194 34.1021 123.651 39.2015 121C40.8255 121 42.3817 122.802 43.747 123.607C47.6987 125.939 52.0327 127.015 54.8078 130.587C57.384 133.903 55.7337 138.581 58.7725 141.598C61.6588 144.464 65.7785 146.479 64.2018 150.604C62.911 153.981 61.4745 156.638 61.4745 160.251C61.4745 164.906 66.2729 166.049 70.7171 168.334C75.5614 170.825 81.2477 172.942 82.5354 177.8C83.5261 181.538 83.0527 186.136 82.7375 189.915C82.3827 194.167 79.0571 197.262 74.707 199.622C68.8274 202.812 61.4655 202.432 54.7825 201.467C47.9896 200.486 41.1907 199.188 35.4136 196.052C30.4898 193.379 29.7688 190.116 30.666 185.663C31.2715 182.657 32.8979 177.654 30.262 174.993C29.0085 173.727 26.5245 172.389 26.5245 170.6C26.5245 165.063 30.2659 161.62 35.1105 158.145C40.8497 154.028 40.7387 145.907 34.656 141.899C30.0066 138.836 23.3143 137.349 25.3882 131.309Z" stroke="#E0E0E0" stroke-linecap="round" stroke-linejoin="round"/>
<path d="M805.356 161.813C800.155 160.33 797.248 153.516 794.332 148.564C794.246 146.942 795.963 145.293 796.695 143.887C798.815 139.818 799.66 135.433 803.081 132.473C806.256 129.725 811.015 131.126 813.867 127.932C816.576 124.898 818.37 120.678 822.573 122.034C826.013 123.145 828.743 124.439 832.351 124.248C837 124.002 837.887 119.15 839.934 114.591C842.165 109.622 843.98 103.832 848.763 102.289C852.443 101.102 857.06 101.332 860.85 101.447C865.115 101.577 868.381 104.734 870.968 108.954C874.464 114.657 874.474 122.028 873.863 128.753C873.243 135.588 872.306 142.446 869.479 148.381C867.07 153.439 863.85 154.331 859.355 153.671C856.321 153.225 851.239 151.865 848.721 154.638C847.524 155.957 846.319 158.508 844.532 158.602C839.003 158.895 835.367 155.341 831.641 150.686C827.226 145.173 819.122 145.713 815.442 151.999C812.628 156.804 811.497 163.565 805.356 161.813Z" stroke="#E0E0E0" stroke-linecap="round" stroke-linejoin="round"/>
<path d="M22 218L31.382 222.706L33.6991 233.282L27.2066 241.762H16.7934L10.3009 233.282L12.618 222.706L22 218Z" fill="#D5DBE2"/>
<path d="M95.1056 154.65C104.767 170.863 102.234 187.482 99.7592 193.765C104.94 190.981 116.471 180.28 121.149 159.751C126.997 134.09 109.925 109.53 89.3424 113.429C72.8761 116.547 86.3236 142.209 95.1056 154.65Z" fill="#EFF2F4"/>
<path d="M706.706 126.557C699.297 138.99 701.24 151.736 703.137 156.554C699.164 154.419 690.321 146.213 686.733 130.469C682.249 110.789 695.341 91.9548 711.126 94.9447C723.754 97.3365 713.441 117.016 706.706 126.557Z" fill="#EFF2F4"/>
</g>
<defs>
<linearGradient id="paint0_linear" x1="328.457" y1="179.99" x2="328.457" y2="245.23" gradientUnits="userSpaceOnUse">
<stop stop-color="#FFCB3D"/>
<stop offset="1" stop-color="#FF4A7E"/>
</linearGradient>
<linearGradient id="paint1_linear" x1="180.779" y1="187.307" x2="175.689" y2="245.394" gradientUnits="userSpaceOnUse">
<stop stop-color="#DE3190"/>
<stop offset="1" stop-color="#C7018A"/>
</linearGradient>
<clipPath id="clip0">
<rect width="888" height="387" fill="white"/>
</clipPath>
<clipPath id="clip1">
<rect width="153" height="118" fill="white" transform="translate(210 5)"/>
</clipPath>
</defs>
</svg>
