<svg width="320" height="400" viewBox="0 0 320 400" fill="none" xmlns="http://www.w3.org/2000/svg">
<g clip-path="url(#clip0)">
<rect width="320" height="400" fill="white"/>
<path d="M-1.51793 162.124C-1.71948 158.131 2.35758 154.47 5.1292 151.247C6.24418 150.8 7.80839 151.608 8.96745 151.785C12.3221 152.297 15.5938 151.842 18.482 153.53C21.1632 155.096 21.3173 158.761 24.2338 159.994C27.004 161.166 30.3868 161.415 30.4394 164.679C30.4824 167.352 30.2274 169.571 31.2215 172.05C32.5025 175.245 36.1111 174.708 39.7912 175.053C43.8026 175.428 48.2893 175.316 50.5102 178.295C52.2187 180.587 53.159 183.873 53.9822 186.553C54.9087 189.569 53.4772 192.608 51.1399 195.425C47.9808 199.233 42.822 200.999 37.9681 202.177C33.0344 203.374 28.0093 204.355 23.1799 203.793C19.0638 203.314 17.6711 201.273 17.0616 197.97C16.6503 195.741 16.3903 191.86 13.8482 190.759C12.6394 190.236 10.5658 190.002 10.0736 188.774C8.55007 184.974 10.1714 181.582 12.5413 177.863C15.3487 173.458 13.0379 167.916 7.75898 166.84C3.72399 166.018 -1.27995 166.84 -1.51793 162.124Z" stroke="#E0E0E0" stroke-linecap="round" stroke-linejoin="round"/>
<path d="M288.668 172.26L271.029 164.291C269.186 164.367 268.564 166.57 266.393 167.396C264.487 168.121 263.548 168.508 261.516 168.803C259.518 169.094 258.125 168.201 256.33 168.193C251.342 168.172 243.549 164.54 240.626 160.557C233.875 151.361 232.619 140.495 237.26 130.224C240.313 123.465 247.546 113.518 255.756 119.985C258.051 121.792 259.735 124.347 261.321 126.76C263.903 130.689 267.233 133.932 270.939 136.81C278.831 142.939 289.222 147.072 296.207 154.219C298.289 156.348 303.617 160.884 302.044 164.366C300.807 167.103 298.852 170.657 295.956 171.797C293.067 172.934 291.424 173.505 288.668 172.26Z" stroke="#E0E0E0" stroke-linecap="round" stroke-linejoin="round"/>
<path d="M303.356 211.813C298.155 210.33 295.248 203.516 292.332 198.564C292.246 196.942 293.963 195.293 294.695 193.887C296.815 189.818 297.66 185.433 301.081 182.473C304.256 179.725 309.015 181.126 311.867 177.932C314.576 174.898 316.37 170.678 320.573 172.034C324.013 173.145 326.743 174.439 330.351 174.248C335 174.002 335.887 169.15 337.934 164.591C340.165 159.622 341.98 153.832 346.763 152.289C350.443 151.102 355.06 151.332 358.85 151.447C363.115 151.577 366.381 154.734 368.968 158.954C372.464 164.657 372.474 172.028 371.863 178.753C371.243 185.588 370.306 192.446 367.479 198.381C365.07 203.439 361.85 204.331 357.355 203.671C354.321 203.225 349.239 201.865 346.721 204.638C345.524 205.957 344.319 208.508 342.532 208.602C337.003 208.895 333.367 205.341 329.641 200.686C325.226 195.173 317.122 195.713 313.442 201.999C310.628 206.804 309.497 213.565 303.356 211.813Z" stroke="#E0E0E0" stroke-linecap="round" stroke-linejoin="round"/>
<path opacity="0.5" d="M35.8769 246.322C27.7588 249.964 23.3901 260.348 19.6446 270.543L18.0547 273.744C13.471 273.744 10.2697 296.752 8.65196 303.239C7.32535 308.558 8.38518 314.932 8.68269 320.355C8.84943 323.394 10.0329 326.303 10.8644 329.048C11.9217 332.537 14.3978 332.408 16.1496 334.962C17.6919 337.211 16.9485 343.745 16.9485 346.791C16.9485 354.043 17.4124 361.695 20.8202 367.402C24.7444 373.975 30.4705 377.468 35.754 381.113C42.8609 386.016 52.6512 387.954 60.2749 384.922C69.7691 381.146 78.9084 370.431 86.7932 362.25C94.0931 354.675 100.431 354.911 108.948 362.25C113.449 366.128 122.147 366.932 123.913 373.899C125.35 379.57 126.076 379.393 129.413 376.319C139.003 367.486 149.192 371.239 159.772 369.822C164.817 369.146 168.369 365.297 173.077 363.728C176.967 362.432 181.134 364.636 184.706 366.526L184.754 366.551C197.105 373.084 206.742 391.762 219.999 394.645C229.043 396.612 235.992 390.1 243.045 382.592C247.536 377.811 251.919 371.34 257.764 370.853C262.14 370.488 265.258 375.443 268.856 378.425C274.896 383.431 282.608 382.248 289.075 379.5C298.694 375.413 310.674 369.045 309.97 351.451C309.398 337.143 305.363 320.69 297.026 315.312C289.257 310.302 289.075 293.531 279.007 274.406C263.871 254.387 266.028 257.265 258.286 245.247C255.301 240.614 250.206 241.483 246.333 241.483C239.633 241.483 233.422 242.955 227.251 246.86C222.595 249.806 218.43 253.211 213.3 251.161C208.812 249.368 206.933 244.758 204.819 239.153C203.205 234.874 201.685 229.591 198.797 226.741C195.606 223.594 189.552 225.347 186.167 227.055C177.822 231.267 169.825 237.241 163.797 246.681C159.145 253.967 155.589 257.834 148.833 253.76C142.017 249.65 136.363 246.441 129.444 251.609C124.954 254.963 120.585 254.387 115.647 254.387C113.311 254.387 111.035 254.925 108.948 253.222C102.761 248.176 98.2349 242.591 90.7878 243.992C85.6432 244.96 83.2066 251.817 78.6503 253.85C72.4597 256.611 66.4879 251.868 60.8895 248.742C53.3232 244.516 43.7647 242.783 35.8769 246.322Z" fill="#EFF2F4"/>
<path d="M311.194 399.676C306.206 402.232 297.311 405.059 288.178 404.08C279.305 403.128 269.099 399.848 261.28 396.244C255.495 393.577 249.452 390.235 242.489 389.482C237.364 388.929 234.099 390.671 228.433 389.577C220.232 387.993 215.833 384.757 209.583 381.248C207.475 380.064 204.959 379.618 202.427 378.966C197.073 377.588 192.388 376.166 187.216 376.097C179.244 375.991 173.406 373.28 166.39 369.925C159.435 366.601 155.228 366.974 149.522 368.25C142.129 369.902 132.915 369.78 123.484 368.939C119.659 368.597 112.936 367.527 109.763 365.525C106.89 363.712 105.723 361.421 104.362 359.459C102.58 356.889 100.962 354.736 96.2592 352.85C90.8837 350.694 86.0581 350.735 80.7431 350.476C73.6972 350.133 66.829 348.919 59.5657 347.049C55.3661 345.968 49.7632 344.853 46.9486 342.384C39.6473 335.977 56.6757 327.082 40.9235 321.356C32.3402 318.237 22.9603 317.151 14.9927 313.212C6.44277 308.986 -2.0417 303.162 -1.36109 297.948C-0.5242 291.537 13.0439 292.631 23.8437 293.872C31.1053 294.706 39.5739 296.44 45.667 299.895C49.297 301.953 52.227 304.573 57.005 305.666C63.3859 307.125 68.726 306.062 74.0303 305.627C82.3599 304.943 90.4855 304.582 100.112 307.801C114.224 312.52 122.973 321.808 135.77 327.563C139.481 329.232 143.818 331.189 148.172 331.819C153.42 332.579 157.62 332.21 163.152 333.38C174.751 335.832 185.456 340.002 196.658 339.558C200.555 339.404 201.359 339.544 202.401 341.948C203.682 344.903 206.26 348.282 210.787 350.909C219.353 355.878 232.982 357.062 241.586 356.424C250.878 355.735 261.761 354.5 272.398 355.816C280.939 356.873 291.378 360.29 298.637 364.006C304.034 366.768 309.924 369.6 313.581 373.017C316.757 375.985 316.564 378.817 315.904 381.379C315.627 382.455 314.227 384.556 315.695 385.781C317.362 387.172 320.058 387.817 320.887 389.345C321.539 390.546 322.557 391.904 322.462 393.025C322.291 395.023 322.861 397.571 320.939 399.079C318.595 400.919 314.964 400.647 309.994 399.367" stroke="#E0E0E0" stroke-linecap="round" stroke-linejoin="round"/>
<g clip-path="url(#clip1)">
<path d="M165.189 14H15.8107C14.8107 14 14 14.8149 14 15.8201V130.18C14 131.185 14.8107 132 15.8107 132H165.189C166.189 132 167 131.185 167 130.18V15.8201C167 14.8149 166.189 14 165.189 14Z" fill="#F2F6FB"/>
<path d="M134.052 77.3984H143.214C144.56 77.3984 145.047 77.5392 145.539 77.8036C146.031 78.068 146.417 78.4559 146.68 78.9503C146.943 79.4446 147.083 79.9349 147.083 81.2871V132H130.184V81.2871C130.184 79.9349 130.324 79.4446 130.587 78.9503C130.85 78.4559 131.236 78.068 131.727 77.8036C132.219 77.5392 132.707 77.3984 134.052 77.3984Z" fill="#FF744B"/>
<path d="M114.738 90.4419H124.202C125.547 90.4419 126.035 90.5827 126.527 90.8471C127.018 91.1114 127.404 91.4994 127.667 91.9937C127.93 92.4881 128.07 92.9784 128.07 94.3306V132H110.869V94.3306C110.869 92.9784 111.009 92.4881 111.272 91.9937C111.535 91.4994 111.921 91.1114 112.413 90.8471C112.905 90.5827 113.393 90.4419 114.738 90.4419Z" fill="#F3019E"/>
<path d="M95.726 49.7944H104.888C106.233 49.7944 106.721 49.9352 107.213 50.1996C107.705 50.464 108.091 50.8519 108.354 51.3463C108.617 51.8406 108.757 52.3309 108.757 53.6831V132H91.8574V53.6831C91.8574 52.3309 91.9975 51.8406 92.2605 51.3463C92.5235 50.8519 92.9095 50.464 93.4012 50.1996C93.893 49.9352 94.3808 49.7944 95.726 49.7944Z" fill="#9111DA"/>
<path d="M76.4116 60.4116H85.5738C86.919 60.4116 87.4068 60.5524 87.8986 60.8168C88.3904 61.0812 88.7763 61.4691 89.0393 61.9634C89.3023 62.4578 89.4424 62.9481 89.4424 64.3003V132H72.543V64.3003C72.543 62.9481 72.683 62.4578 72.946 61.9634C73.209 61.4691 73.595 61.0812 74.0868 60.8168C74.5786 60.5524 75.0664 60.4116 76.4116 60.4116Z" fill="#6F53FE"/>
<path d="M57.3998 85.2856H66.5621C67.9073 85.2856 68.3951 85.4264 68.8868 85.6908C69.3786 85.9552 69.7646 86.3431 70.0276 86.8375C70.2906 87.3318 70.4306 87.8221 70.4306 89.1743V132H53.5312V89.1743C53.5312 87.8221 53.6713 87.3318 53.9343 86.8375C54.1973 86.3431 54.5833 85.9552 55.0751 85.6908C55.5668 85.4264 56.0546 85.2856 57.3998 85.2856Z" fill="#1EBCFF"/>
<path d="M38.0873 72.8486H47.2496C48.5948 72.8486 49.0826 72.9894 49.5743 73.2538C50.0661 73.5182 50.4521 73.9061 50.7151 74.4005C50.9781 74.8948 51.1182 75.3851 51.1182 76.7373V132H34.2188V76.7373C34.2188 75.3851 34.3588 74.8948 34.6218 74.4005C34.8848 73.9061 35.2708 73.5182 35.7626 73.2538C36.2543 72.9894 36.7421 72.8486 38.0873 72.8486Z" fill="#45E0DC"/>
</g>
<path d="M299.965 25H159.036C155.702 25 153 27.7162 153 31.0668V136.933C153 140.284 155.702 143 159.036 143H299.965C303.298 143 306 140.284 306 136.933V31.0668C306 27.7162 303.298 25 299.965 25Z" fill="#F2F6FB"/>
<path d="M243.895 113.895C258.729 105.281 263.847 86.2649 255.327 71.4216C246.807 56.5783 227.876 51.5288 213.043 60.1431C198.21 68.7574 193.092 87.7736 201.612 102.617C210.131 117.46 229.062 122.51 243.895 113.895ZM238.951 105.282C228.86 111.142 215.99 107.71 210.203 97.6272C204.416 87.5448 207.896 74.6176 217.987 68.7569C228.079 62.8962 240.948 66.3289 246.735 76.4113C252.522 86.4937 249.043 99.4208 238.951 105.282Z" fill="#E1E5F0"/>
<path d="M210.572 55.8362C193.368 65.8274 187.43 87.888 197.316 105.112C207.202 122.336 229.164 128.194 246.368 118.202C263.572 108.211 269.509 86.1506 259.623 68.9268L251.032 73.9165C258.185 86.3793 253.886 102.351 241.424 109.589C228.961 116.826 213.061 112.585 205.908 100.122C198.755 87.6593 203.053 71.6876 215.516 64.4501L210.572 55.8362Z" fill="#5A87F6"/>
<path d="M210.329 54.4013C192.647 64.6694 186.544 87.3424 196.705 105.045C206.867 122.748 229.44 128.768 247.122 118.5L241.194 108.173C229.197 115.14 213.892 111.058 207.006 99.0631C200.121 87.0682 204.259 71.6949 216.256 64.728L210.329 54.4013Z" fill="#474961"/>
<path d="M153 31.0682C153 27.7168 155.704 25 159.033 25H299.967C303.299 25 306 27.7171 306 31.0682V38.347H153V31.0682Z" fill="#E1E5F0"/>
<path d="M161.902 34.7069C163.485 34.7069 164.769 33.4167 164.769 31.8251C164.769 30.2336 163.485 28.9434 161.902 28.9434C160.319 28.9434 159.035 30.2336 159.035 31.8251C159.035 33.4167 160.319 34.7069 161.902 34.7069Z" fill="#FF5645"/>
<path d="M171.257 34.7069C172.841 34.7069 174.124 33.4167 174.124 31.8251C174.124 30.2336 172.841 28.9434 171.257 28.9434C169.674 28.9434 168.391 30.2336 168.391 31.8251C168.391 33.4167 169.674 34.7069 171.257 34.7069Z" fill="#FFCB3D"/>
<path d="M180.914 34.7069C182.497 34.7069 183.781 33.4167 183.781 31.8251C183.781 30.2336 182.497 28.9434 180.914 28.9434C179.33 28.9434 178.047 30.2336 178.047 31.8251C178.047 33.4167 179.33 34.7069 180.914 34.7069Z" fill="#3ABF7C"/>
<path d="M69.7892 307.629H47.8986C47.2344 307.629 46.6532 307.076 46.6532 306.412V306.273C46.6532 305.609 47.2344 305.056 47.9539 305.056H68.239C80.5263 305.056 92.8136 305.056 105.073 305.056H123.892C124.556 305.056 125.137 305.609 125.137 306.273V306.412C125.137 307.076 124.583 307.629 123.892 307.629H97.1856L104.547 321.134C109.778 330.765 115.008 340.368 120.266 349.998L128.928 365.883C129.233 366.437 128.984 367.156 128.402 367.488L128.292 367.544C127.711 367.848 126.963 367.682 126.687 367.156L94.2803 307.629H72.6945L40.2882 367.156C40.0115 367.682 39.2643 367.876 38.6831 367.544L38.5724 367.488C37.9913 367.156 37.7422 366.437 38.0466 365.883L46.7086 349.998C51.939 340.368 57.1694 330.765 62.4275 321.134L69.7892 307.629ZM46.7363 296.785V280.694C46.7363 268.422 46.7363 256.178 46.7363 243.934V229.312C46.7363 227.019 48.5948 225.161 50.8874 225.161H96.0514C98.344 225.161 100.203 227.019 100.203 229.312V296.832C100.203 299.125 98.344 300.983 96.0514 300.983C96.05 300.983 96.0485 300.983 96.0471 300.983L50.883 300.936C48.5921 300.933 46.7363 299.075 46.7363 296.785Z" fill="#D8DEED"/>
<path d="M130.188 367.737H86.2136C85.5217 367.737 84.9682 367.183 84.9682 366.491C84.9682 365.8 85.5217 365.246 86.2136 365.246H130.188C130.88 365.246 131.433 365.8 131.433 366.491C131.433 367.183 130.88 367.737 130.188 367.737ZM49.6008 367.737C48.9089 367.737 48.3555 367.258 48.3555 366.683V366.3C48.3555 365.725 48.9366 365.246 49.6008 365.246H77.9667C78.6586 365.246 79.212 365.725 79.212 366.3V366.683C79.212 367.258 78.6309 367.737 77.9667 367.737H49.6008Z" fill="#A20ED3"/>
<path d="M130.625 365.323C130.49 365.274 130.343 365.246 130.19 365.246H86.2159C86.0155 365.246 85.8267 365.293 85.6597 365.375C85.6254 365.256 85.607 365.129 85.607 364.997L86.5756 349.693C86.5203 348.863 87.1568 348.227 87.9593 348.199L105.588 348.088C105.892 348.088 106.169 348.171 106.418 348.365C109.573 351.741 112.589 353.623 114.775 354.73C116.464 355.588 122.109 357.968 124.655 359.13C125.956 359.711 127.201 360.403 128.419 361.151C128.502 361.206 128.557 361.234 128.64 361.317C129.277 361.898 130.245 362.949 130.605 364.195C130.66 364.361 130.66 364.499 130.688 364.665C130.716 364.804 130.688 364.942 130.688 365.08V365.108C130.673 365.182 130.651 365.254 130.625 365.323ZM78.1284 365.255C78.0762 365.249 78.023 365.246 77.969 365.246H49.6031C49.6019 365.246 49.6008 365.246 49.5996 365.246L56.0235 348.116L75.8381 350.8L78.1284 365.255Z" fill="#474961"/>
<path d="M85.1716 300.356C84.2146 301.05 83.3801 301.654 82.6679 302.168L82.3123 308.044C82.1462 311.152 81.9525 313.881 81.7311 316.286C81.5651 318.177 79.4342 339.604 78.6593 347.467C78.4933 349.251 77.3033 350.764 75.6705 351.25C73.2075 352.007 54.7213 351.142 54.0294 350.818C53.1438 350.413 52.6734 350.223 52.2029 349.764C50.5425 348.197 50.6532 345.711 50.6255 344.792C50.4594 337.848 49.9613 316.961 49.9613 302.343C49.9613 302.295 49.9613 302.247 49.9613 302.199C48.1366 300.633 46.5238 298.277 45.2609 295.352C43.3408 290.934 42.1693 285.186 42.1367 278.948C42.1367 278.871 42.1367 275.117 42.1367 267.685C42.1367 267.656 42.1367 267.656 42.1367 267.627C42.1693 265.576 44.1219 263.959 46.4325 263.959H71.9792C75.5265 264.075 79.0412 264.19 82.5884 264.306C88.1096 264.452 95.9647 264.666 106.154 264.949C110.138 265.059 113.737 267.356 115.514 270.924C116.361 272.623 116.876 274.02 117.058 275.115C118.154 277.05 118.76 279.311 118.704 281.719C118.704 281.773 118.704 281.8 118.704 281.854C118.261 304.042 113.086 335.651 112.726 346.341C112.698 346.745 112.588 347.636 112.007 348.581C110.208 351.469 106.001 350.821 96.177 351.064C87.8194 351.28 84.4432 351.928 82.7274 349.553C81.7865 348.257 81.8141 346.772 81.8418 346.098C82.6181 330.732 83.796 315.202 85.1716 300.356Z" fill="#474BFF"/>
<path opacity="0.176986" d="M85.1618 300.458C84.2021 301.154 83.3687 301.757 82.6616 302.267L83.7233 284.726C83.751 283.51 83.8894 276.16 78.3822 271.485C74.3695 268.108 69.4988 267.892 66.261 267.757C61.2797 267.54 57.4053 268.946 56.6581 269.216C55.7172 269.567 55.2467 269.756 54.7763 269.999C49.4075 272.809 49.8226 286.32 49.8779 288.779C49.9324 291.838 49.9601 296.575 49.9609 302.085C48.1901 300.519 46.6243 298.207 45.3918 295.352C43.4717 290.934 42.3001 285.186 42.2676 278.948C42.2676 278.871 42.2676 275.117 42.2676 267.685C42.2676 267.656 42.2676 267.656 42.2676 267.627C42.3001 265.576 44.2527 263.959 46.5633 263.959H72.1101C75.6573 264.075 79.172 264.19 82.7193 264.306C88.2404 264.452 96.0955 264.666 106.285 264.949C110.269 265.059 113.868 267.356 115.645 270.924C116.577 272.795 117.107 274.299 117.234 275.437C115.125 271.446 110.969 268.751 106.195 268.843C103.87 268.897 101.573 268.951 99.2485 269.005C93.0218 269.167 87.8467 273.999 87.1826 280.315C86.4799 286.827 85.7995 293.569 85.1618 300.458Z" fill="#444444"/>
<path d="M78.1533 206.665C80.3186 206.705 83.7258 207.115 87.0916 209.071C87.6718 209.403 88.5283 209.955 89.4677 210.755C90.2689 211.446 92.6173 213.737 94.8552 220.197C95.6564 222.461 98.0048 226.878 99.3586 229.307C99.8006 230.108 99.2757 231.102 98.3363 231.185C95.3753 231.397 91.7228 232.613 88.2716 232.619C88.5557 237.783 88.7561 243.943 88.8322 250.813C88.8322 250.813 89.2743 258.99 86.7325 261.64C86.2925 262.107 78.0386 261.621 69.2714 261.9C59.8699 262.198 49.8545 263.167 47.5242 260.724C43.7556 256.774 45.91 255.704 49.3686 233.2C48.827 233.255 48.3224 233.305 47.8733 233.346C44.38 233.678 37.0633 233.456 33.5425 233.318C32.6073 233.29 32.0022 232.239 32.3872 231.353C33.5425 228.669 35.578 223.827 36.1831 221.364C37.916 214.336 40.089 211.763 40.8317 210.988C41.6844 210.103 42.5401 209.5 43.0597 209.079C44.8011 207.666 50.2932 206.647 59.5358 206.022C63.5192 204.665 68.0676 205.055 71.012 205.317C73.0708 205.504 75.6666 205.735 78.1533 206.665Z" fill="#A20ED3"/>
<path opacity="0.176986" d="M78.2444 206.673C80.4202 206.745 83.6828 207.202 86.9076 209.078C87.4888 209.41 88.3467 209.963 89.2876 210.766C90.0902 211.458 92.4424 213.755 94.684 220.23C95.4866 222.5 98.0048 226.867 99.3608 229.303C99.8036 230.105 99.2778 231.102 98.3369 231.185C97.4722 231.247 96.4984 231.427 95.5727 231.58C95.206 231.641 94.1935 231.758 93.7425 231.854C91.5614 232.314 90.2906 232.619 88.2574 232.619C88.247 232.619 88.2366 232.619 88.2262 232.619C87.7881 224.656 87.1514 219.056 86.4639 216.859C85.9934 215.365 85.3113 213.649 85.3113 213.649C84.9792 212.68 84.4437 211.684 83.3644 210.328C81.9096 208.521 80.1115 207.396 78.2444 206.673V206.673ZM71.7306 209.624C71.2325 212.558 70.3192 213.424 70.3192 213.424C68.216 212.206 60.7163 208.407 61.4082 206.331C61.4635 206.193 61.5742 205.916 62.2938 205.473C65.0058 203.813 68.3267 204.615 69.489 204.947C69.489 204.947 74.8301 204.338 75.854 207.466C76.878 210.593 75.6603 212.807 75.6603 212.807C74.7748 212.272 73.4648 211.211 71.7306 209.624Z" fill="#444444"/>
<path d="M88.799 254.924L88.258 232.619L95.5905 231.58L97.8313 258.931C98.0234 259.031 98.21 259.129 98.3909 259.226C99.9767 260.076 101.291 261.623 102.334 263.868C102.387 263.981 102.413 264.105 102.411 264.23C102.404 264.688 102.027 265.055 101.569 265.048L43.2914 264.204C29.3789 261.446 33.1631 242.575 35.8874 233.406C39.7107 233.525 45.1118 233.621 47.9696 233.351C50.6699 233.106 55.3596 232.565 58.1171 232.152L53.1723 246.967C66.4512 247.626 79.4911 251.325 88.799 254.924ZM73.2779 203.146L73.153 208.251C67.8592 210.203 64.1036 207.199 64.1036 207.199C64.1036 207.199 64.3023 203.395 64.6997 195.786C64.6354 195.648 64.573 195.502 64.5125 195.348C64.0144 194.103 62.2215 190.014 62.609 188.603C62.6799 188.304 61.2012 183.869 63.3667 181.632C65.4233 179.507 71.125 179.567 71.3542 179.581C72.3228 179.608 73.2914 179.581 74.343 179.359C74.4537 179.359 74.5644 179.332 74.6751 179.332C75.616 179.249 80.9017 178.999 83.6138 182.929C83.8629 183.261 84.0843 183.621 84.278 184.064C84.6931 185.088 84.8868 186.195 84.8038 187.302L84.4164 192.228C84.361 192.726 84.278 193.224 84.1673 193.694C83.3647 197.181 82.0641 200.032 80.6804 201.831C79.6564 203.187 78.5494 203.961 77.5809 203.989C77.3041 204.017 75.8097 203.989 74.0663 203.463C73.9528 203.425 73.9815 203.452 73.2779 203.146Z" fill="#F2A98A"/>
<path d="M58.8106 232.106C58.7192 232.316 58.4747 232.413 58.2644 232.321C58.0542 232.23 57.9579 231.985 58.0493 231.775C58.585 230.543 58.8004 229.854 59.2155 228.056C59.267 227.832 59.4899 227.693 59.7133 227.745C59.9367 227.796 60.076 228.019 60.0244 228.242C59.5987 230.087 59.3685 230.823 58.8106 232.106ZM53.465 246.388C53.6932 246.367 53.8957 246.534 53.9172 246.762C53.9388 246.991 53.7712 247.193 53.543 247.215C53.489 247.22 53.3835 247.232 53.2339 247.252C52.9821 247.285 52.7008 247.33 52.3977 247.386C51.5326 247.548 50.6681 247.772 49.8649 248.07C49.3907 248.246 48.9522 248.442 48.5566 248.66C48.3558 248.77 48.1034 248.697 47.9929 248.496C47.8824 248.295 47.9557 248.043 48.1565 247.932C48.5902 247.694 49.0657 247.481 49.5764 247.291C50.4284 246.976 51.3373 246.739 52.2456 246.57C52.5632 246.511 52.8584 246.464 53.1238 246.429C53.2172 246.416 53.3004 246.406 53.3725 246.398C53.4166 246.393 53.4477 246.39 53.465 246.388Z" fill="#482D1F"/>
<path opacity="0.2" d="M97.7826 258.959C95.4985 257.765 92.4154 256.361 88.7483 254.94L88.207 232.619L95.5395 231.58L97.7826 258.959Z" fill="#8C2A00"/>
<path d="M73.2854 203.154L73.208 205.982L69.3867 201.396C69.4411 201.423 69.497 201.451 69.5545 201.478C70.1081 201.755 70.8 202.06 71.6857 202.447C72.4616 202.793 72.9597 203.013 73.2854 203.154Z" fill="#482D1F"/>
<path d="M70.2155 189.992L70.1908 189.46C70.1908 189.46 70.0801 188.464 69.3882 187.468C69.3329 187.412 68.8624 186.803 68.1429 186.499C66.8422 186.001 65.1264 186.582 64.1855 187.772C63.1892 188.99 63.1892 190.623 63.715 191.868C64.2408 193.113 65.2648 193.694 65.6245 193.86L67.2296 194.359L67.2366 194.356C65.834 196.412 64.6126 198.205 64.6126 198.205C64.6126 198.205 62.3036 196.074 61.2797 194.386C60.7816 193.556 59.0104 191.536 58.706 188.353C58.623 187.302 58.2909 183.732 60.6709 181.103C61.5011 180.189 62.442 179.747 62.8295 179.553C65.0157 178.584 66.6208 179.165 70.8273 179.248C71.1593 179.248 71.7128 179.276 72.4324 179.248C73.733 179.221 74.6463 179.165 74.8953 179.165C76.9709 179.082 81.4818 179.719 83.4743 182.791C83.585 183.012 83.7234 183.206 83.8341 183.372C83.2529 183.566 82.6164 183.925 81.8415 184.064C79.7383 184.396 77.9395 183.981 76.8602 183.593C74.757 185.586 72.6261 187.551 70.5228 189.543C70.4267 189.684 70.3239 189.834 70.2155 189.992Z" fill="#DE6903"/>
<path d="M82.8164 193.093C82.8994 192.761 83.2315 192.512 83.5637 192.567C83.7851 192.595 83.9511 192.761 84.0342 193.148C84.1172 194.117 83.0655 195.335 82.761 194.753C82.5673 194.366 82.7333 193.563 82.8164 193.093ZM76.9692 192.338C77.0522 192.006 77.3843 191.757 77.7165 191.812C77.9379 191.84 78.104 192.006 78.187 192.393C78.27 193.362 77.2183 194.58 76.9138 193.998C76.6924 193.611 76.8585 192.808 76.9692 192.338Z" fill="#482D1F"/>
<path d="M80.9278 193.282L80.9555 196.049C80.9555 196.059 80.9134 196.102 80.9002 196.102C80.7488 196.102 80.5941 196.092 80.3526 196.068C80.3058 196.064 80.2567 196.059 80.1861 196.052C80.0972 196.043 80.0484 196.038 80.0018 196.033C79.842 196.017 79.7097 196.004 79.5683 195.992C79.416 195.979 79.2819 196.091 79.2686 196.244C79.2554 196.396 79.3681 196.53 79.5203 196.543C79.6589 196.555 79.7889 196.568 79.9463 196.584C79.9926 196.588 80.041 196.593 80.1301 196.602C80.2016 196.609 80.2514 196.614 80.2993 196.619C80.557 196.644 80.7274 196.655 80.9002 196.655C81.219 196.655 81.5089 196.365 81.5089 196.046L81.4812 193.276C81.4797 193.124 81.3546 193.001 81.2018 193.002C81.049 193.004 80.9263 193.129 80.9278 193.282Z" fill="#482D1F"/>
<path d="M78.9916 198.123C78.798 198.04 78.3276 197.818 78.2999 197.542C78.2999 197.486 78.2722 197.403 78.3276 197.376C78.4659 197.237 78.798 197.376 79.296 197.514C80.1815 197.735 80.9009 197.791 80.9009 197.791C80.9009 197.791 80.6242 198.233 80.4582 198.344C80.1261 198.649 79.2684 198.261 78.9916 198.123Z" fill="#482D1F"/>
<path d="M80.2207 193.585C79.7792 195.272 78.2444 196.517 76.4188 196.517C74.2485 196.517 72.4891 194.758 72.4891 192.587C72.4891 192.106 72.5756 191.645 72.7338 191.219L70.5401 190.274C70.3211 190.206 70.1988 189.974 70.2669 189.755C70.3349 189.536 70.5675 189.414 70.7865 189.482L73.1021 190.479C73.7996 189.384 75.0244 188.658 76.4188 188.658C78.5891 188.658 80.3485 190.417 80.3485 192.587C80.3485 192.646 80.3472 192.705 80.3446 192.763L81.2078 192.853C81.5827 191.073 83.1619 189.737 85.0531 189.737C87.2234 189.737 88.9828 191.496 88.9828 193.667C88.9828 195.837 87.2234 197.596 85.0531 197.596C82.8867 197.596 81.1297 195.843 81.1234 193.678L80.2207 193.585ZM73.6085 191.278C73.4229 191.676 73.3193 192.12 73.3193 192.587C73.3193 194.299 74.707 195.687 76.4188 195.687C78.1306 195.687 79.5183 194.299 79.5183 192.587C79.5183 190.876 78.1306 189.488 76.4188 189.488C75.2435 189.488 74.2209 190.142 73.6954 191.106C73.6933 191.115 73.6908 191.124 73.688 191.133C73.671 191.188 73.6435 191.237 73.6085 191.278ZM81.9624 193.431C81.9566 193.509 81.9536 193.587 81.9536 193.667C81.9536 195.379 83.3413 196.766 85.0531 196.766C86.7649 196.766 88.1526 195.379 88.1526 193.667C88.1526 191.955 86.7649 190.567 85.0531 190.567C83.4772 190.567 82.176 191.743 81.9793 193.266C81.982 193.293 81.982 193.321 81.9791 193.35C81.9762 193.378 81.9705 193.405 81.9624 193.431Z" fill="#482D1F"/>
<path d="M214.631 365.247H252.807C253.499 365.247 254.052 365.801 254.052 366.492C254.052 367.184 253.499 367.738 252.807 367.738H208.833H176.454C175.762 367.738 175.209 367.184 175.209 366.492C175.209 365.801 175.762 365.247 176.454 365.247H214.631Z" fill="#FF645F"/>
<path d="M176.731 365.247H176.454C176.374 365.247 176.296 365.255 176.22 365.269C176.142 365.137 176.084 364.99 176.051 364.832V364.804C176.051 364.666 176.024 364.528 176.051 364.389C176.079 364.223 176.079 364.085 176.134 363.919C176.32 363.277 176.798 362.525 177.568 361.662C178.005 361.172 178.518 360.757 179.088 360.431C180.359 359.705 181.358 359.179 182.084 358.854C184.63 357.692 190.276 355.312 191.964 354.454C194.15 353.347 197.167 351.465 200.322 348.089C200.571 347.896 200.847 347.812 201.152 347.812L217.024 347.923C217.827 347.923 218.463 348.587 218.408 349.418L219.742 356.913C221.147 356.306 222.411 355.72 223.971 354.814C225.271 354.067 227.098 352.849 229.146 351.023C230.28 350.026 231.443 349.03 232.577 348.034L249.707 347.812L253.232 365.274C253.292 365.286 253.351 365.303 253.408 365.324L253.425 365.409C253.249 365.309 253.046 365.251 252.828 365.247C252.821 365.247 252.814 365.247 252.807 365.247H214.631H208.282H176.731Z" fill="#474961"/>
<path opacity="0.176986" d="M214.714 365.247H214.631H176.454C176.374 365.247 176.296 365.255 176.22 365.269C176.142 365.137 176.084 364.99 176.051 364.832V364.804C176.051 364.666 176.024 364.528 176.051 364.389C176.079 364.223 176.079 364.085 176.134 363.919C176.32 363.277 176.798 362.525 177.568 361.662C178.005 361.172 178.518 360.757 179.088 360.431C180.359 359.705 181.358 359.179 182.084 358.854C184.63 357.692 190.276 355.312 191.964 354.454C194.15 353.347 197.167 351.465 200.322 348.089C200.571 347.896 200.847 347.812 201.152 347.812L217.024 347.923C217.827 347.923 218.463 348.587 218.408 349.418L219.754 356.98C218.282 357.614 216.641 358.285 214.34 359.38C213.012 360.017 211.739 360.736 210.493 361.539C209.884 362.092 208.833 363.227 208.501 364.555C208.445 364.777 208.445 364.998 208.418 365.192C208.418 365.211 208.428 365.229 208.448 365.247H214.797H214.714ZM253.425 365.409C253.249 365.309 253.046 365.251 252.828 365.247L252.973 365.247C253.126 365.247 253.273 365.274 253.408 365.324L253.425 365.409Z" fill="#474961"/>
<path d="M213.569 264.836C214.045 264.761 214.496 264.736 214.922 264.763L265.538 264.569L288.729 264.514C289.67 264.569 293.639 265.784 294.552 266.823C295.438 267.294 301.099 273.148 300.158 284.024C299.992 285.85 299.632 289.918 297.308 293.793C294.872 297.833 290.777 300.794 285.768 302.482C281.34 303.977 276.165 304.503 270.796 303.922C259.449 301.874 248.131 299.853 236.784 297.806V298.221L236.84 298.414C236.84 298.414 238.223 301.016 239.413 303.7C240.603 306.357 242.264 318.921 242.264 319.004C244.976 323.321 247.716 329.16 249.819 336.522C250.649 339.483 251.092 341.807 251.258 342.693C251.592 344.592 251.858 346.886 252.054 349.573C252.057 349.614 252.059 349.654 252.059 349.694C252.059 350.611 251.315 351.355 250.398 351.355C250.129 351.355 249.918 351.355 249.764 351.355L225.161 351.327L217.595 351.29C217.342 351.356 217.077 351.392 216.805 351.392L196.603 351.309H194.97C193.365 351.309 192.009 350.036 191.926 348.431C191.732 345.193 191.483 340.931 191.178 336.005C190.348 323.58 189.905 319.622 189.407 310.047C189.324 308.442 189.241 307.003 189.186 305.647C188.965 299.199 188.383 293.166 187.249 285.279C186.612 280.906 186.308 278.194 186.28 275.897C186.252 273.766 186.889 271.663 188.107 269.92C188.715 269.062 189.407 268.315 190.238 267.678C192.368 266.045 193.895 264.934 199.241 264.855C203.471 264.793 208.365 264.812 213.569 264.836Z" fill="#6CEDCA"/>
<path opacity="0.176986" d="M213.717 264.814C213.649 264.824 213.58 264.834 213.511 264.846C211.573 265.178 209.387 266.313 207.699 267.613C206.869 268.25 206.149 268.997 205.568 269.855C204.35 271.571 203.714 273.619 203.714 275.722V275.86C203.742 278.157 204.046 280.869 204.655 285.242C205.79 293.129 206.371 299.134 206.592 305.61C206.647 306.938 206.73 308.405 206.813 310.01C207.284 319.557 207.754 323.515 208.585 335.968C208.917 340.894 209.166 345.128 209.332 348.394C209.415 349.999 210.771 351.272 212.376 351.272H214.009L217.505 351.289C217.28 351.342 217.045 351.369 216.805 351.369L196.603 351.286H194.97C193.365 351.286 192.009 350.013 191.926 348.408C191.732 345.17 191.483 340.909 191.178 335.983C190.348 323.557 189.905 319.6 189.407 310.024C189.324 308.419 189.241 306.98 189.186 305.624C188.965 299.176 188.383 293.143 187.249 285.256C186.612 280.884 186.308 278.172 186.28 275.875C186.252 273.744 186.889 271.641 188.107 269.897C188.715 269.039 189.407 268.292 190.238 267.655C192.368 266.023 193.895 264.912 199.241 264.833C203.511 264.769 208.458 264.79 213.717 264.814L213.717 264.814Z" fill="#444444"/>
<path d="M236.647 297.19C236.304 296.852 235.946 296.499 235.572 296.129C235.471 296.029 235.471 296.029 235.37 295.929C234.315 294.884 233.452 294.023 231.779 292.35C231.563 292.133 231.212 292.133 230.996 292.35C230.78 292.566 230.78 292.916 230.996 293.132C232.67 294.807 233.534 295.669 234.59 296.715C234.692 296.816 234.692 296.816 234.793 296.916C235.168 297.287 235.527 297.641 235.871 297.979C236.089 298.194 236.439 298.191 236.653 297.973C236.868 297.755 236.865 297.404 236.647 297.19Z" fill="#482D1F"/>
<path d="M272.978 207.411C274.608 206.857 276.384 206.597 278.228 206.695C285.562 207.055 291.207 212.894 290.848 219.729C290.671 223.071 289.081 226.033 286.643 228.137L292.771 250.538C293.712 254.08 293.38 257.678 291.996 260.778C291.803 261.22 291.581 261.663 291.36 262.078C291.111 262.521 290.834 262.964 290.557 263.379C290.253 263.822 289.921 264.265 289.561 264.68H259.424C259.175 264.265 258.926 263.849 258.705 263.379C258.483 262.964 258.289 262.521 258.123 262.078C257.957 261.663 257.819 261.22 257.681 260.778C257.653 260.695 257.625 260.612 257.598 260.529L249.763 233.219L244.046 233.849C243.547 233.904 243.077 233.572 243.022 233.101L242.773 231.164C242.762 231.078 242.766 230.993 242.782 230.912C241.843 230.341 240.982 229.656 240.254 228.867C239.203 227.733 238.4 226.404 237.93 224.882C236.048 218.849 240.227 212.401 247.256 210.519C250.085 209.762 252.95 209.852 255.487 210.623C256.562 209.876 257.74 209.301 259.009 208.944L265.07 207.145C267.86 206.732 270.544 206.827 272.978 207.411V207.411Z" fill="#FF645F"/>
<path opacity="0.176986" d="M249.721 233.223L244.046 233.849C243.547 233.904 243.077 233.572 243.022 233.101L242.773 231.164C242.762 231.077 242.766 230.993 242.782 230.912C241.843 230.341 240.982 229.656 240.254 228.867C239.203 227.733 238.4 226.404 237.93 224.882C236.048 218.849 240.227 212.401 247.256 210.519C250.101 209.758 252.982 209.853 255.529 210.636C249.803 214.56 246.962 223.357 248.854 230.202L249.721 233.223Z" fill="#444444"/>
<path d="M244.92 211.739C244.92 211.739 244.394 213.843 247.19 213.261C249.985 212.68 250.788 212.403 250.788 212.403L250.068 210.494L244.92 211.739Z" fill="#482D1F"/>
<path d="M254.557 206.245C254.466 206.269 254.375 206.292 254.286 206.314L254.57 206.273L254.557 206.245ZM261.964 201.78L262.66 201.499L266.008 207.283L260.488 209.012L265.898 234.708C265.898 234.708 266.357 232.854 266.946 229.51C266.974 229.519 267.003 229.527 267.032 229.533L282.336 232.937C282.4 232.951 282.465 232.959 282.529 232.96C281.993 235.097 281.422 237.667 280.814 240.326C279.236 247.189 278.987 250.372 276.469 254.91C273.591 260.085 270.934 260.224 269.883 260.611C267.53 261.524 265.178 261.386 263.711 261.026C261.951 260.6 258.728 259.914 255.992 254.94L257.595 260.528C257.623 260.611 257.651 260.694 257.678 260.777C257.817 261.22 257.955 261.663 258.121 262.078C258.287 262.521 258.481 262.963 258.702 263.379C258.924 263.849 259.173 264.264 259.422 264.679H262.967L217.036 264.737C216.907 264.737 216.789 264.694 216.695 264.62C209.077 260.017 205.304 256.503 205.376 254.079C207.68 253.728 210.969 253.247 215.242 252.635C217.897 252.254 220.593 252.262 223.246 252.658L231.587 253.901C237.828 251.901 246.156 249.274 248.235 248.821L244.664 233.78L249.761 233.219L252.157 241.571C250.757 231.681 251.119 221.376 249.854 211.454L246.941 211.517C245.225 212.209 241.627 213.372 241.24 210.909C241.24 210.909 246 208.944 249.348 207.505L249.598 207.283C249.819 207.09 250.013 206.979 250.289 206.896C250.345 206.868 250.4 206.868 250.455 206.868L251.784 206.674L251.97 206.648C251.529 206.669 251.221 206.658 251.11 206.647C248.799 206.481 246.102 202.247 244.891 196.131C244.781 195.632 244.753 195.134 244.698 194.636L244.478 189.683C244.423 188.576 244.643 187.469 245.166 186.5C245.386 186.085 245.606 185.697 245.854 185.393C248.688 181.574 253.917 181.989 254.853 182.1C254.963 182.1 255.073 182.128 255.183 182.128C256.229 182.377 257.165 182.46 258.156 182.432C258.596 182.432 258.954 182.792 258.981 183.234L259.119 190.319C259.146 190.983 262.504 189.71 262.504 189.683C264.115 188.465 266.136 195.024 265.311 195.992C264.705 196.656 262.999 197.597 262.504 197.763C262.201 197.874 261.981 198.123 261.926 198.4C262.115 199.801 262.127 200.928 261.964 201.78Z" fill="#DB9E75"/>
<path opacity="0.2" d="M244.662 233.803L249.759 233.242L257.593 260.551C257.621 260.634 257.649 260.717 257.676 260.8C257.815 261.243 257.953 261.686 258.119 262.101C258.285 262.544 258.479 262.987 258.7 263.402C258.922 263.872 259.171 264.287 259.42 264.702H262.965L217.034 264.76C216.905 264.76 216.787 264.717 216.693 264.643C209.075 260.04 205.302 256.526 205.374 254.102C207.678 253.751 210.967 253.27 215.24 252.658C217.895 252.277 220.591 252.285 223.244 252.681L231.585 253.924C237.826 251.924 246.154 249.297 248.233 248.844L244.662 233.803Z" fill="#8C2A00"/>
<path d="M204.122 257.86C207.092 254.205 213.205 251.244 223.438 258.063C224.998 259.067 224.47 262.361 222.754 262.398L205.062 262.696C203.733 262.74 203.132 259.09 204.122 257.86Z" fill="#474961"/>
<path d="M270.467 188.751C274.017 191.081 277.405 194.506 276.802 196.767C276.332 198.594 274.561 199.562 272.762 200.558C271.309 201.355 268.626 202.588 264.764 202.847C264.764 202.85 264.764 202.853 264.764 202.855C263.851 202.994 262.965 203.132 262.052 203.271C261.582 203.326 261.139 202.994 261.111 202.523C261.25 201.527 261.388 200.531 261.526 199.535C261.651 199.038 261.782 198.41 261.861 197.737C262.303 197.63 263.289 197.345 264.045 196.463C264.875 195.494 265.318 194.027 264.764 192.616C264.266 191.26 262.882 190.208 261.554 190.319C260.807 190.374 260.226 190.79 260.143 190.845C259.542 191.3 259.043 191.922 258.77 192.295C257.468 191.789 255.447 190.71 253.778 188.576C253.39 188.096 252.938 187.386 252.422 186.445C249.665 187.07 247.35 186.913 245.475 185.974C245.885 185.195 246.523 184.49 247.39 183.86C248.69 182.914 248.833 182.8 250.474 182.339C251.501 182.051 253.443 181.959 254.833 182.1H254.885C256.462 182.266 257.763 182.321 258.621 182.321C262.827 182.404 264.46 181.851 266.591 182.902C266.978 183.096 267.891 183.594 268.694 184.535C269.831 185.864 270.297 187.404 270.467 188.751ZM245.399 198.267C246.446 202.005 247.56 203.381 247.418 203.381C247.277 203.381 246.908 203.575 244.058 202.772C242.646 202.385 241.318 201.998 240.709 200.863C239.851 199.258 242.408 195.942 244.677 193.728C244.677 195.367 244.948 196.602 245.399 198.267ZM243.732 192.782C243.455 192.727 243.344 192.395 243.538 192.201C243.787 191.98 244.202 191.703 244.756 191.675C245.89 191.62 247.136 192.284 245.918 192.671C245.143 192.948 244.258 192.865 243.732 192.782ZM249.101 192.782C248.824 192.727 248.713 192.395 248.935 192.201C249.184 191.98 249.599 191.703 250.18 191.675C251.315 191.62 252.56 192.312 251.342 192.671C250.512 192.948 249.654 192.865 249.101 192.782Z" fill="#482D1F"/>
<path d="M245.808 194.913C245.863 195.384 245.918 196.159 245.669 196.491C245.31 196.989 244.452 195.716 244.645 194.83C244.728 194.443 244.922 194.332 245.144 194.332C245.476 194.332 245.752 194.581 245.808 194.913ZM250.734 194.747C250.817 195.218 250.873 195.993 250.596 196.325C250.236 196.823 249.378 195.55 249.572 194.664C249.655 194.277 249.849 194.166 250.07 194.166C250.402 194.166 250.679 194.415 250.734 194.747Z" fill="#482D1F"/>
<path d="M265.581 234.854C265.516 234.634 265.641 234.403 265.861 234.338C266.081 234.273 266.312 234.399 266.377 234.619L269.116 243.889C269.181 244.109 269.056 244.34 268.836 244.405C268.616 244.47 268.385 244.345 268.32 244.125L265.581 234.854ZM284.322 230.083C284.329 230.132 284.328 230.183 284.316 230.234L283.846 232.308C283.686 233.029 282.967 233.476 282.244 233.315C282.02 233.265 281.879 233.044 281.929 232.82C281.979 232.596 282.2 232.455 282.424 232.505C282.703 232.567 282.976 232.397 283.036 232.126L283.44 230.343C283.366 230.304 283.304 230.242 283.263 230.162C283.161 229.957 283.244 229.708 283.449 229.605C284.631 229.014 285.73 228.236 286.666 227.326C286.831 227.167 287.094 227.17 287.253 227.335C287.413 227.499 287.409 227.762 287.245 227.922C286.381 228.761 285.389 229.494 284.322 230.083ZM267.222 226.387C267.221 226.406 267.218 226.424 267.214 226.443L266.744 228.517C266.682 228.796 266.851 229.068 267.12 229.128C267.344 229.178 267.485 229.4 267.435 229.624C267.386 229.847 267.164 229.989 266.94 229.939C266.219 229.779 265.773 229.059 265.934 228.335L266.404 226.259C266.422 226.179 266.463 226.109 266.517 226.055C266.191 225.661 265.945 225.315 265.74 224.963C265.556 224.648 265.402 224.324 265.239 223.92C265.128 223.645 265.059 223.46 264.814 222.785C264.735 222.569 264.846 222.331 265.062 222.253C265.277 222.174 265.516 222.285 265.594 222.501C265.835 223.165 265.903 223.347 266.009 223.609C266.158 223.979 266.295 224.267 266.457 224.545C266.674 224.916 266.948 225.288 267.344 225.748C267.494 225.921 267.475 226.183 267.302 226.333C267.277 226.355 267.25 226.372 267.222 226.387ZM256.483 205.766C255.459 206.236 254.763 207.068 253.166 207.228C251.893 207.533 250.813 207.173 250.26 206.896C250.315 206.869 250.37 206.869 250.426 206.869L251.754 206.675C252.391 206.675 253.413 206.564 254.603 206.232L256.483 205.766Z" fill="#482D1F"/>
<path d="M249.32 200.337C249.514 200.282 249.984 200.116 250.067 199.811C250.067 199.756 250.095 199.673 250.067 199.618C249.957 199.452 249.597 199.535 249.099 199.59C248.214 199.673 247.494 199.59 247.494 199.59C247.494 199.59 247.716 200.143 247.854 200.282C248.158 200.724 249.044 200.448 249.32 200.337Z" fill="#482D1F"/>
<path d="M247.246 195.144L247.248 195.104L247.246 195.124L247.246 195.144ZM246.916 198.065L246.914 198.096C246.914 198.398 247.121 198.678 247.422 198.729C247.477 198.734 247.508 198.736 247.539 198.738C247.832 198.757 248.042 198.76 248.796 198.76C248.949 198.76 249.073 198.636 249.073 198.483C249.073 198.33 248.949 198.207 248.796 198.207C248.055 198.207 247.851 198.204 247.575 198.186C247.546 198.184 247.518 198.182 247.489 198.18C247.495 198.18 247.472 198.148 247.468 198.107L247.798 195.165L247.8 195.125L247.744 193.492C247.739 193.339 247.611 193.22 247.458 193.225C247.305 193.23 247.186 193.358 247.191 193.511L247.246 195.124L246.916 198.065Z" fill="#482D1F"/>
<path d="M147.108 257.871L149.77 247.133H129.792C127.716 247.133 126 245.556 126 243.646V213.232C125.973 211.295 127.661 209.718 129.764 209.718H190.564C192.64 209.718 194.356 211.295 194.356 213.205V243.646C194.356 245.556 192.64 247.133 190.564 247.133H166.218L165.119 257.871H172.327C173.434 257.871 174.292 258.757 174.292 259.836C174.292 260.943 173.407 261.801 172.327 261.801H141.471C140.364 261.801 139.506 260.915 139.506 259.836C139.451 258.757 140.364 257.871 141.471 257.871H147.108Z" fill="#474961"/>
<path fill-rule="evenodd" clip-rule="evenodd" d="M167.043 239.307L167.125 257.9H165.141L167.043 239.307Z" fill="white"/>
<path d="M295.503 262H22.4965C21.67 262 21 262.895 21 264C21 265.105 21.67 266 22.4965 266H295.503C296.33 266 297 265.105 297 264C297 262.895 296.33 262 295.503 262Z" fill="#D8DEED"/>
<path d="M137.561 179.883C142.4 188.002 141.131 196.325 139.892 199.472C142.487 198.078 148.262 192.719 150.605 182.437C153.533 169.586 144.983 157.286 134.675 159.238C126.428 160.8 133.163 173.652 137.561 179.883Z" fill="#EFF2F4"/>
<mask id="mask0" mask-type="alpha" maskUnits="userSpaceOnUse" x="154" y="187" width="18" height="18">
<ellipse rx="8.38317" ry="8.38722" transform="matrix(0.960503 -0.278272 0.276019 0.961153 163.377 196.262)" fill="black"/>
</mask>
<g mask="url(#mask0)">
<path d="M166.025 214.87L175.009 214.688L174.623 194.607L165.377 207.905L166.025 214.87Z" fill="#6AEDCB"/>
<path d="M166.426 207.422C167.523 205.279 169.596 205.271 171.04 204.239C171.96 203.582 172.588 202.585 172.918 201.503C173.439 199.797 173.086 197.825 174.031 196.312C174.215 196.016 174.449 195.742 174.552 195.409C174.633 195.151 174.629 194.874 174.624 194.604L174.436 183.562C172.401 184.668 171.246 186.865 170.222 188.944C165.881 197.748 161.764 206.691 156.603 215.041L166.028 214.861C166.724 214.848 166.254 211.51 166.215 211.222C166.033 209.902 165.925 208.686 166.426 207.422Z" fill="#30C7FF"/>
<path d="M156.934 215.037C156.934 215.037 158.123 213.625 159.199 212.995C160.274 212.366 161.905 211.084 162.667 209.66C163.429 208.236 163.662 207.015 163.597 205.223C163.533 203.432 164.459 201.588 166.006 200.532C167.553 199.477 171.017 198.351 171.055 195.116C171.092 191.882 170.102 187.484 174.423 183.812L174.21 170.754L172.471 170.789L151.278 213.313L150.544 215.162L156.934 215.037Z" fill="#6C5DFE"/>
<path d="M154.188 215.091C154.188 215.091 155.057 213.765 155.153 211.122C155.208 209.635 155.407 208.147 156.013 206.774C156.936 204.687 158.669 203.182 160.65 202.131C160.923 201.985 161.201 201.859 161.456 201.684C161.939 201.352 162.372 200.953 162.744 200.501C163.823 199.183 164.125 197.256 164.226 194.948C164.328 192.64 165.232 189.501 166.492 187.652C167.754 185.802 168.883 184.53 170.953 182.28C173.022 180.029 175.275 177.231 173.766 170.762L167.534 170.887L150.254 199.166L150.542 215.163L154.188 215.091Z" fill="#A20ED3"/>
<path d="M150.301 201.987C150.301 201.987 151.261 199.376 154.347 197.729C157.434 196.083 159.323 197.149 160.576 192.179C161.83 187.208 161.081 185.687 162.901 182.866C164.722 180.045 166.325 178.669 168.305 176.805C170.286 174.94 171.324 174.04 171.266 170.808L163.118 170.971L150.172 194.933L150.301 201.987Z" fill="#D60A99"/>
<path d="M165.23 170.925C163.954 172.023 162.442 173.269 162.052 175.198C161.662 177.126 161.206 179.248 160.329 181.09C159.451 182.933 158.258 183.292 157.084 184.757C155.911 186.221 155.526 188.773 155.366 190.505C155.205 192.237 154.553 193.259 153.525 194.721C152.496 196.182 150.209 197.092 150.209 197.092L150.063 188.978L151.193 182.474L157.942 171.07L165.23 170.925Z" fill="#F005C4"/>
<path d="M150.117 191.975C150.116 191.92 150.301 191.749 150.334 191.704C150.532 191.446 150.71 191.175 150.87 190.893C151.512 189.754 151.393 188.679 151.277 187.434C151.197 186.572 150.92 185.307 151.325 184.489C151.726 183.68 152.066 182.999 153.964 181.906C155.144 181.227 156.316 180.38 157.034 179.174C157.865 177.777 157.732 176.189 157.996 174.634C158.211 173.367 158.633 171.971 159.554 171.033L149.744 171.23L150.117 191.975Z" fill="#FF744B"/>
</g>
<ellipse rx="7.55955" ry="7.56736" transform="matrix(0.960545 -0.278125 0.276165 0.961111 163.377 196.262)" fill="white"/>
<ellipse rx="0.58928" ry="0.589886" transform="matrix(0.960546 -0.278124 0.276166 0.96111 161.899 191.109)" fill="#F7931A"/>
<ellipse rx="0.589281" ry="0.589892" transform="matrix(0.960545 -0.278127 0.276163 0.961111 164.862 201.413)" fill="#8A92B2"/>
<mask id="mask1" mask-type="alpha" maskUnits="userSpaceOnUse" x="157" y="192" width="13" height="9">
<path d="M168.104 192.547C166.723 191.681 164.925 191.94 163.834 193.144C163.603 193.4 163.404 193.719 163.248 194.085L162.954 194.781L162.209 196.583L161.75 197.662C161.681 197.827 161.592 197.969 161.504 198.068C161.028 198.584 160.26 198.69 159.662 198.325C159.042 197.937 158.811 197.131 159.129 196.471C159.312 196.098 159.641 195.828 160.03 195.715C160.284 195.642 160.562 195.649 160.825 195.703C160.964 195.736 161.103 195.812 161.248 195.915L161.506 196.095L162.268 194.305C161.964 194.103 161.65 193.952 161.342 193.866C159.78 193.431 158.121 194.173 157.411 195.644C156.677 197.181 157.221 199.075 158.654 199.97C159.488 200.5 160.477 200.606 161.361 200.35C161.95 200.179 162.48 199.851 162.92 199.36C163.151 199.104 163.35 198.784 163.506 198.419L163.799 197.723L164.558 195.917L165.017 194.838C165.086 194.673 165.176 194.53 165.264 194.432C165.739 193.916 166.507 193.81 167.106 194.175C167.725 194.563 167.957 195.369 167.638 196.029C167.325 196.658 166.619 196.979 165.943 196.796C165.803 196.764 165.665 196.688 165.519 196.584L165.251 196.398L164.481 198.207C164.788 198.412 165.105 198.564 165.416 198.651C166.978 199.087 168.637 198.344 169.346 196.873C170.081 195.336 169.536 193.442 168.104 192.547Z" fill="black"/>
</mask>
<g mask="url(#mask1)">
<path d="M171.668 181.995L166.422 178.967L159.689 190.722L169.63 186.251L171.668 181.995Z" fill="#6AEDCB"/>
<path d="M168.86 186.16C167.484 187.017 166.285 186.299 165.094 186.393C164.336 186.452 163.627 186.81 163.062 187.321C162.171 188.127 161.691 189.392 160.622 189.938C160.412 190.045 160.183 190.122 160.008 190.278C159.872 190.4 159.778 190.561 159.688 190.719L155.97 197.176C157.528 197.246 158.956 196.377 160.267 195.531C165.823 191.949 171.297 188.209 177.169 185.177L171.667 181.992C171.261 181.758 170.375 183.853 170.298 184.034C169.946 184.861 169.587 185.603 168.86 186.16Z" fill="#30C7FF"/>
<path d="M176.977 185.057C176.977 185.057 175.801 185.459 174.963 185.449C174.124 185.438 172.739 185.611 171.806 186.17C170.873 186.728 170.315 187.354 169.732 188.413C169.148 189.472 167.975 190.216 166.716 190.288C165.458 190.359 163.069 189.803 161.926 191.662C160.784 193.521 159.832 196.412 156.066 197.03L151.665 204.662L152.68 205.249L179.644 188.028L180.708 187.214L176.977 185.057Z" fill="#6C5DFE"/>
<path d="M178.581 185.982C178.581 185.982 177.62 186.446 176.649 187.943C176.102 188.784 175.472 189.576 174.646 190.159C173.39 191.045 171.869 191.312 170.362 191.23C170.154 191.219 169.95 191.195 169.741 191.207C169.348 191.231 168.96 191.31 168.589 191.443C167.509 191.829 166.667 192.839 165.809 194.14C164.951 195.44 163.342 196.941 161.973 197.572C160.605 198.203 159.512 198.545 157.538 199.126C155.564 199.707 153.295 200.541 151.924 204.811L155.564 206.912L175.334 196.572L180.71 187.212L178.581 185.982Z" fill="#A20ED3"/>
<path d="M176.286 194.915C176.286 194.915 174.827 196.092 172.475 195.968C170.122 195.844 169.402 194.568 166.956 197.008C164.51 199.448 164.415 200.59 162.387 201.588C160.358 202.586 158.956 202.824 157.167 203.212C155.378 203.6 154.467 203.76 153.38 205.651L158.14 208.399L173.915 199.044L176.286 194.915Z" fill="#D60A99"/>
<path d="M156.906 207.685C158.022 207.495 159.327 207.301 160.22 206.32C161.114 205.34 162.112 204.271 163.257 203.511C164.401 202.75 165.214 202.959 166.399 202.52C167.584 202.082 168.69 200.739 169.383 199.793C170.075 198.846 170.806 198.482 171.906 197.995C173.006 197.507 174.641 197.778 174.641 197.778L171.914 202.526L169.008 205.897L161.162 210.143L156.906 207.685Z" fill="#F005C4"/>
<path d="M172.923 200.771C172.905 200.803 172.739 200.838 172.704 200.852C172.501 200.932 172.304 201.027 172.114 201.134C171.349 201.57 171.045 202.233 170.681 202.994C170.429 203.521 170.15 204.35 169.633 204.682C169.121 205.01 168.69 205.286 167.215 205.257C166.299 205.238 165.33 205.319 164.498 205.767C163.534 206.286 163.061 207.251 162.37 208.059C161.807 208.717 161.08 209.378 160.223 209.6L165.952 212.907L172.923 200.771Z" fill="#FF744B"/>
</g>
<mask id="mask2" mask-type="alpha" maskUnits="userSpaceOnUse" x="167" y="165" width="18" height="17">
<ellipse rx="8.38317" ry="8.38722" transform="matrix(0.960503 -0.278272 0.276019 0.961153 176.377 173.395)" fill="black"/>
</mask>
<g mask="url(#mask2)">
<path d="M179.023 192.001L188.007 191.82L187.621 171.739L178.375 185.037L179.023 192.001Z" fill="#6AEDCB"/>
<path d="M179.422 184.553C180.519 182.411 182.592 182.402 184.036 181.371C184.956 180.714 185.585 179.716 185.914 178.635C186.435 176.929 186.082 174.956 187.027 173.443C187.211 173.147 187.445 172.873 187.548 172.54C187.629 172.282 187.625 172.006 187.62 171.736L187.432 160.693C185.397 161.8 184.242 163.997 183.218 166.076C178.877 174.88 174.76 183.822 169.599 192.172L179.024 191.993C179.72 191.979 179.25 188.642 179.211 188.353C179.029 187.033 178.921 185.817 179.422 184.553Z" fill="#30C7FF"/>
<path d="M169.93 192.168C169.93 192.168 171.12 190.756 172.195 190.127C173.27 189.497 174.901 188.215 175.663 186.791C176.425 185.367 176.658 184.146 176.593 182.355C176.529 180.563 177.455 178.72 179.002 177.664C180.549 176.608 184.013 175.483 184.051 172.248C184.089 169.013 183.098 164.616 187.419 160.943L187.206 147.885L185.467 147.921L164.274 190.444L163.54 192.293L169.93 192.168Z" fill="#6C5DFE"/>
<path d="M167.186 192.223C167.186 192.223 168.055 190.897 168.151 188.254C168.206 186.767 168.405 185.279 169.011 183.906C169.934 181.819 171.667 180.314 173.648 179.263C173.921 179.117 174.199 178.991 174.454 178.816C174.937 178.484 175.37 178.085 175.742 177.632C176.821 176.315 177.123 174.387 177.224 172.08C177.326 169.772 178.23 166.633 179.49 164.783C180.752 162.933 181.881 161.662 183.951 159.411C186.02 157.161 188.273 154.362 186.764 147.893L180.532 148.019L163.252 176.298L163.54 192.295L167.186 192.223Z" fill="#A20ED3"/>
<path d="M163.299 179.119C163.299 179.119 164.259 176.507 167.346 174.861C170.432 173.215 172.321 174.281 173.574 169.311C174.828 164.34 174.079 162.819 175.899 159.998C177.72 157.177 179.323 155.801 181.303 153.936C183.284 152.072 184.322 151.171 184.264 147.94L176.116 148.103L163.171 172.065L163.299 179.119Z" fill="#D60A99"/>
<path d="M178.228 148.057C176.953 149.154 175.44 150.401 175.05 152.329C174.66 154.258 174.204 156.38 173.327 158.222C172.45 160.065 171.256 160.424 170.082 161.889C168.909 163.353 168.524 165.905 168.364 167.637C168.203 169.368 167.551 170.39 166.523 171.852C165.494 173.314 163.208 174.224 163.208 174.224L163.061 166.11L164.191 159.605L170.94 148.202L178.228 148.057Z" fill="#F005C4"/>
<path d="M163.113 169.107C163.112 169.051 163.297 168.881 163.331 168.836C163.528 168.578 163.707 168.307 163.866 168.025C164.508 166.886 164.389 165.811 164.274 164.566C164.193 163.704 163.916 162.439 164.321 161.621C164.722 160.812 165.062 160.131 166.96 159.038C168.141 158.359 169.312 157.512 170.03 156.306C170.861 154.908 170.728 153.321 170.992 151.766C171.208 150.499 171.629 149.102 172.55 148.165L162.74 148.361L163.113 169.107Z" fill="#FF744B"/>
</g>
<ellipse rx="7.55955" ry="7.56736" transform="matrix(0.960545 -0.278125 0.276165 0.961111 176.377 173.394)" fill="white"/>
<mask id="mask3" mask-type="alpha" maskUnits="userSpaceOnUse" x="170" y="166" width="13" height="14">
<path fill-rule="evenodd" clip-rule="evenodd" d="M182.52 173.377C182.495 173.323 182.453 173.3 182.402 173.281C181.758 173.04 181.113 172.799 180.47 172.556C180.412 172.534 180.354 172.522 180.294 172.517C178.565 172.359 176.836 172.202 175.107 172.042C174.054 171.945 173.002 171.834 171.941 171.865C171.896 171.867 171.853 171.867 171.81 171.883C171.374 172.048 170.937 172.212 170.501 172.377C170.467 172.39 170.43 172.396 170.399 172.431C170.407 172.524 170.377 172.622 170.405 172.727C170.452 172.714 170.491 172.702 170.53 172.691C171.018 172.556 171.507 172.421 171.996 172.282C172.103 172.252 172.209 172.245 172.319 172.255C174.977 172.491 177.635 172.727 180.294 172.958C180.566 172.982 180.827 173.033 181.085 173.121C181.571 173.286 182.061 173.439 182.557 173.599C182.585 173.51 182.583 173.511 182.52 173.377Z" fill="black"/>
<path fill-rule="evenodd" clip-rule="evenodd" d="M182.407 173.809C182.044 173.711 181.681 173.613 181.317 173.517C181.177 173.48 181.04 173.43 180.894 173.417C178.021 173.172 175.149 172.926 172.276 172.68C172.211 172.674 172.148 172.679 172.084 172.691C171.713 172.759 171.342 172.827 170.971 172.895C170.776 172.931 170.581 172.967 170.383 173.004C170.38 173.104 170.359 173.198 170.384 173.295C170.835 173.254 171.277 173.21 171.721 173.173C171.922 173.156 172.122 173.116 172.325 173.133C175.057 173.359 177.789 173.587 180.522 173.815C180.795 173.838 181.071 173.843 181.341 173.892C181.655 173.949 181.966 174.022 182.279 174.086C182.313 174.093 182.348 174.113 182.392 174.094C182.421 174.011 182.451 173.924 182.48 173.843C182.456 173.815 182.429 173.815 182.407 173.809Z" fill="black"/>
<path fill-rule="evenodd" clip-rule="evenodd" d="M173.348 173.628C172.973 173.598 172.599 173.557 172.225 173.544C171.817 173.53 171.409 173.544 171.001 173.546C170.809 173.547 170.617 173.549 170.414 173.551C170.442 173.648 170.466 173.733 170.496 173.836C174.384 174.14 178.271 174.444 182.164 174.749C182.206 174.628 182.245 174.516 182.288 174.394C182.006 174.355 181.74 174.306 181.471 174.284C178.764 174.063 176.055 173.846 173.348 173.628Z" fill="black"/>
<path fill-rule="evenodd" clip-rule="evenodd" d="M170.489 172.078C170.781 171.939 171.073 171.798 171.366 171.659C171.501 171.596 171.629 171.528 171.79 171.53C172.299 171.538 172.808 171.532 173.317 171.533C173.672 171.533 174.029 171.508 174.383 171.54C176.253 171.712 178.122 171.89 179.991 172.066C180.044 172.071 180.094 172.078 180.144 172.099C180.777 172.369 181.411 172.639 182.045 172.907C182.14 172.947 182.231 173 182.341 173.02C182.332 172.946 182.283 172.896 182.266 172.834C182.245 172.762 182.195 172.723 182.129 172.692C181.368 172.337 180.609 171.981 179.85 171.623C179.79 171.595 179.73 171.58 179.665 171.574C178.483 171.461 177.301 171.346 176.12 171.232C175.822 171.203 175.525 171.153 175.228 171.155C173.979 171.161 172.73 171.185 171.482 171.201C171.423 171.201 171.372 171.216 171.322 171.246C171.186 171.327 171.048 171.404 170.912 171.483C170.748 171.579 170.585 171.676 170.422 171.772C170.419 171.884 170.416 171.988 170.413 172.09C170.446 172.102 170.468 172.088 170.489 172.078Z" fill="black"/>
<path fill-rule="evenodd" clip-rule="evenodd" d="M173.405 174.46C172.998 174.429 172.59 174.418 172.187 174.354C171.676 174.274 171.167 174.187 170.656 174.105C170.624 174.1 170.588 174.075 170.551 174.111C170.575 174.195 170.6 174.281 170.626 174.371C170.642 174.376 170.661 174.383 170.68 174.387C171.229 174.522 171.779 174.657 172.329 174.79C172.379 174.802 172.432 174.806 172.484 174.81C173.934 174.917 175.383 175.023 176.833 175.129C178.452 175.247 180.07 175.365 181.696 175.484C181.795 175.367 181.895 175.248 182.01 175.113C181.949 175.108 181.91 175.104 181.871 175.101C179.049 174.888 176.227 174.676 173.405 174.46Z" fill="black"/>
<path fill-rule="evenodd" clip-rule="evenodd" d="M181.331 175.821C180.909 175.791 180.486 175.761 180.063 175.732C177.554 175.554 175.045 175.377 172.536 175.2C172.459 175.195 172.385 175.181 172.311 175.157C171.811 174.995 171.31 174.836 170.809 174.676C170.772 174.664 170.736 174.644 170.686 174.649C170.712 174.742 170.738 174.83 170.766 174.93C171.311 175.147 171.856 175.363 172.402 175.58C172.448 175.598 172.495 175.603 172.544 175.606C174.872 175.765 177.2 175.925 179.528 176.084C180.051 176.12 180.574 176.155 181.099 176.191C181.195 176.071 181.302 175.964 181.385 175.84C181.364 175.819 181.347 175.822 181.331 175.821Z" fill="black"/>
<path fill-rule="evenodd" clip-rule="evenodd" d="M171.306 170.915C172.72 170.883 174.135 170.849 175.549 170.818C175.836 170.812 176.123 170.783 176.409 170.811C177.382 170.905 178.355 171.003 179.328 171.099C179.406 171.107 179.477 171.126 179.547 171.162C180.351 171.576 181.156 171.989 181.961 172.401C181.995 172.419 182.027 172.448 182.081 172.444C182.019 172.301 181.97 172.172 181.815 172.089C181.002 171.649 180.193 171.2 179.388 170.746C179.207 170.645 179.026 170.583 178.818 170.567C178.095 170.511 177.377 170.403 176.644 170.434C174.79 170.513 172.935 170.562 171.08 170.624C171.037 170.625 170.992 170.624 170.954 170.656C170.785 170.794 170.615 170.93 170.445 171.066C170.441 171.188 170.437 171.303 170.433 171.441C170.671 171.277 170.89 171.131 171.104 170.978C171.167 170.933 171.231 170.917 171.306 170.915Z" fill="black"/>
<path fill-rule="evenodd" clip-rule="evenodd" d="M172.579 175.98C172.521 175.976 172.469 175.964 172.417 175.939C171.934 175.711 171.449 175.484 170.965 175.258C170.923 175.238 170.882 175.214 170.822 175.208C170.851 175.309 170.877 175.398 170.904 175.495C171.403 175.764 171.91 176.036 172.416 176.311C172.492 176.353 172.569 176.375 172.657 176.38C174.921 176.523 177.185 176.668 179.449 176.812C179.803 176.834 180.158 176.856 180.516 176.878C180.612 176.766 180.706 176.655 180.817 176.525C180.641 176.513 180.49 176.501 180.338 176.491C177.752 176.32 175.166 176.149 172.579 175.98Z" fill="black"/>
<path fill-rule="evenodd" clip-rule="evenodd" d="M170.894 170.379C171.33 170.362 171.766 170.341 172.202 170.322C173.968 170.247 175.733 170.171 177.499 170.1C177.893 170.084 178.289 170.035 178.684 170.094C178.754 170.105 178.815 170.125 178.876 170.161C179.639 170.614 180.404 171.066 181.168 171.518C181.38 171.643 181.592 171.768 181.805 171.893C181.762 171.767 181.74 171.638 181.617 171.561C180.653 170.961 179.692 170.357 178.731 169.753C178.683 169.723 178.636 169.713 178.582 169.716C177.585 169.767 176.587 169.819 175.59 169.87C174.007 169.952 172.423 170.034 170.84 170.111C170.691 170.118 170.574 170.154 170.489 170.278C170.485 170.284 170.48 170.291 170.471 170.304C170.468 170.426 170.464 170.553 170.46 170.705C170.57 170.604 170.663 170.52 170.753 170.435C170.794 170.396 170.836 170.381 170.894 170.379Z" fill="black"/>
<path fill-rule="evenodd" clip-rule="evenodd" d="M180.114 177.196C177.628 177.042 175.141 176.89 172.655 176.738C172.593 176.735 172.538 176.719 172.485 176.687C172.052 176.422 171.619 176.16 171.186 175.897C171.118 175.856 171.051 175.815 170.957 175.758C170.992 175.88 171.018 175.972 171.048 176.075C171.534 176.403 172.032 176.737 172.527 177.074C172.585 177.114 172.646 177.119 172.711 177.123C174.758 177.244 176.805 177.364 178.853 177.485C179.215 177.507 179.577 177.529 179.945 177.55C180.039 177.439 180.132 177.33 180.226 177.22C180.188 177.186 180.148 177.198 180.114 177.196Z" fill="black"/>
<path fill-rule="evenodd" clip-rule="evenodd" d="M172.732 177.473C172.661 177.469 172.601 177.45 172.543 177.406C172.248 177.185 171.951 176.966 171.655 176.748C171.48 176.618 171.305 176.49 171.129 176.361C171.123 176.365 171.117 176.369 171.111 176.372C171.137 176.464 171.164 176.556 171.195 176.665C171.64 177.022 172.101 177.391 172.56 177.763C172.626 177.817 172.694 177.84 172.779 177.845C174.659 177.946 176.538 178.05 178.418 178.154C178.744 178.172 179.07 178.188 179.393 178.205C179.486 178.094 179.574 177.99 179.677 177.869C179.62 177.865 179.588 177.862 179.556 177.86C177.281 177.731 175.007 177.602 172.732 177.473Z" fill="black"/>
<path fill-rule="evenodd" clip-rule="evenodd" d="M174.295 169.682C175.716 169.597 177.137 169.514 178.558 169.428C178.619 169.424 178.665 169.436 178.715 169.469C179.621 170.069 180.527 170.667 181.433 171.266C181.474 171.292 181.512 171.326 181.567 171.337C181.513 171.176 181.432 171.056 181.292 170.96C180.472 170.401 179.656 169.836 178.846 169.264C178.694 169.156 178.55 169.095 178.366 169.135C178.303 169.149 178.237 169.143 178.172 169.147C176.974 169.229 175.775 169.312 174.577 169.393C173.378 169.474 172.18 169.553 170.981 169.635C170.942 169.638 170.9 169.629 170.864 169.655C170.756 169.733 170.647 169.809 170.52 169.898C170.572 169.9 170.599 169.904 170.626 169.902C171.849 169.829 173.072 169.754 174.295 169.682Z" fill="black"/>
<path fill-rule="evenodd" clip-rule="evenodd" d="M171.262 169.411C171.94 169.36 172.618 169.309 173.296 169.258C175.027 169.128 176.758 168.998 178.488 168.865C178.582 168.857 178.649 168.881 178.722 168.934C179.564 169.546 180.408 170.155 181.251 170.765C181.27 170.779 181.285 170.803 181.321 170.785C181.259 170.688 181.246 170.568 181.143 170.491C180.316 169.873 179.492 169.251 178.667 168.629C178.62 168.593 178.574 168.579 178.511 168.585C177.999 168.629 177.487 168.668 176.975 168.71C175.192 168.858 173.409 169.006 171.626 169.153C171.598 169.155 171.57 169.152 171.545 169.17C171.442 169.244 171.339 169.318 171.232 169.395C171.249 169.405 171.256 169.412 171.262 169.411Z" fill="black"/>
<path fill-rule="evenodd" clip-rule="evenodd" d="M172.826 178.183C172.733 178.179 172.661 178.152 172.589 178.089C172.194 177.741 171.794 177.4 171.395 177.057C171.356 177.023 171.322 176.981 171.25 176.954C171.287 177.071 171.274 177.19 171.344 177.26C171.503 177.421 171.66 177.587 171.847 177.716C172.1 177.89 172.366 178.047 172.625 178.213C172.674 178.244 172.725 178.265 172.781 178.277C173.255 178.381 173.728 178.487 174.201 178.593C174.265 178.607 174.328 178.615 174.393 178.619C175.575 178.678 176.757 178.739 177.939 178.799C178.245 178.814 178.551 178.829 178.855 178.844C178.94 178.73 179.04 178.638 179.117 178.517C179.093 178.513 179.081 178.51 179.07 178.509C176.989 178.4 174.907 178.291 172.826 178.183Z" fill="black"/>
<path fill-rule="evenodd" clip-rule="evenodd" d="M181.049 170.268C181.057 170.261 181.066 170.255 181.074 170.248C181.016 170.154 180.996 170.043 180.9 169.965C180.145 169.361 179.393 168.753 178.642 168.145C178.587 168.101 178.534 168.088 178.464 168.095C177.872 168.154 177.28 168.21 176.688 168.267C176.011 168.332 175.334 168.398 174.658 168.463C173.897 168.536 173.135 168.609 172.374 168.681C172.208 168.697 172.027 168.792 171.906 168.938C174.138 168.739 176.365 168.54 178.58 168.342C179.411 168.99 180.23 169.629 181.049 170.268Z" fill="black"/>
<path fill-rule="evenodd" clip-rule="evenodd" d="M180.825 169.76C180.769 169.576 180.647 169.444 180.515 169.329C179.88 168.777 179.238 168.233 178.6 167.685C178.555 167.646 178.511 167.637 178.455 167.643C177.69 167.728 176.926 167.813 176.161 167.896C175.111 168.01 174.06 168.126 173.008 168.23C172.81 168.25 172.683 168.365 172.544 168.485C174.545 168.281 176.545 168.076 178.551 167.871C179.308 168.5 180.067 169.13 180.825 169.76Z" fill="black"/>
<path fill-rule="evenodd" clip-rule="evenodd" d="M179.832 168.586C179.839 168.578 179.845 168.571 179.852 168.563C179.483 168.042 178.981 167.652 178.513 167.221C177.895 167.296 177.277 167.372 176.658 167.446C175.637 167.568 174.616 167.693 173.594 167.806C173.406 167.827 173.283 167.935 173.153 168.052C174.944 167.848 176.736 167.643 178.524 167.439C178.963 167.825 179.398 168.205 179.832 168.586Z" fill="black"/>
<path fill-rule="evenodd" clip-rule="evenodd" d="M178.493 166.979C178.484 166.979 178.472 166.978 178.46 166.979C177.707 167.046 176.954 167.114 176.201 167.182C175.548 167.241 174.896 167.305 174.246 167.387C174.044 167.413 173.875 167.482 173.715 167.639C175.33 167.437 176.927 167.238 178.524 167.038C178.526 167.017 178.519 166.995 178.493 166.979Z" fill="black"/>
<path fill-rule="evenodd" clip-rule="evenodd" d="M178.52 179.145C177.846 179.112 177.173 179.08 176.499 179.046C176.453 179.044 176.411 179.051 176.354 179.075C176.912 179.199 177.452 179.318 177.99 179.439C178.102 179.464 178.213 179.47 178.329 179.466C178.415 179.364 178.5 179.264 178.584 179.164C178.56 179.138 178.538 179.146 178.52 179.145Z" fill="black"/>
</mask>
<g mask="url(#mask3)">
<path d="M176.851 187.362L185.835 188.931L189.347 168.849L177.557 180.297L176.851 187.362Z" fill="#6AEDCB"/>
<path d="M178.696 180.02C180.203 178.099 182.269 178.494 183.908 177.747C184.952 177.272 185.771 176.401 186.31 175.388C187.159 173.789 187.191 171.755 188.425 170.432C188.667 170.173 188.952 169.946 189.12 169.634C189.25 169.393 189.3 169.116 189.347 168.846L191.303 157.808C189.062 158.514 187.485 160.478 186.061 162.35C180.029 170.275 174.194 178.383 167.433 185.696L176.855 187.354C177.551 187.476 177.731 184.059 177.748 183.765C177.823 182.414 177.951 181.181 178.696 180.02Z" fill="#30C7FF"/>
<path d="M167.762 185.758C167.762 185.758 169.221 184.583 170.414 184.165C171.607 183.747 173.48 182.788 174.515 181.517C175.55 180.247 176.019 179.076 176.303 177.279C176.587 175.481 177.867 173.825 179.612 173.074C181.358 172.324 185.026 171.877 185.692 168.662C186.357 165.446 186.224 160.872 191.24 158.055L193.562 145.004L191.823 144.7L162.463 182.938L161.373 184.638L167.762 185.758Z" fill="#6C5DFE"/>
<path d="M165.016 185.278C165.016 185.278 166.14 184.126 166.748 181.511C167.091 180.04 167.578 178.597 168.449 177.347C169.773 175.447 171.791 174.286 173.967 173.624C174.268 173.532 174.569 173.461 174.858 173.336C175.402 173.099 175.911 172.786 176.369 172.408C177.7 171.305 178.375 169.444 178.924 167.164C179.473 164.885 180.982 161.934 182.596 160.336C184.212 158.739 185.583 157.693 188.081 155.853C190.579 154.014 193.366 151.665 193.119 144.926L186.888 143.836L164.189 168.645L161.371 184.64L165.016 185.278Z" fill="#C908A4"/>
<path d="M163.687 171.466C163.687 171.466 165.15 169.051 168.544 168.012C171.937 166.973 173.611 168.403 175.824 163.696C178.037 158.988 177.586 157.326 179.947 154.87C182.308 152.414 184.171 151.356 186.505 149.884C188.839 148.412 190.048 147.717 190.618 144.486L182.471 143.062L164.928 164.412L163.687 171.466Z" fill="#D60A99"/>
</g>
<path d="M163.084 166.876C160.07 171.933 160.86 177.118 161.632 179.078C160.016 178.209 156.419 174.871 154.96 168.467C153.135 160.462 158.461 152.801 164.882 154.017C170.018 154.99 165.823 162.995 163.084 166.876Z" fill="#EFF2F4"/>
<circle cx="196.802" cy="179.004" r="6.13137" transform="rotate(121.073 196.802 179.004)" fill="#FE02AC" stroke="white" stroke-width="0.6"/>
<circle cx="182.203" cy="179.045" r="3.08891" transform="rotate(121.073 182.203 179.045)" fill="#88B4F7" stroke="white" stroke-width="0.6"/>
<circle cx="183.568" cy="192.005" r="4.3566" transform="rotate(121.073 183.568 192.005)" fill="#FFBD35" stroke="white" stroke-width="0.6"/>
</g>
<defs>
<clipPath id="clip0">
<rect width="320" height="400" fill="white"/>
</clipPath>
<clipPath id="clip1">
<rect width="153" height="118" fill="white" transform="translate(14 14)"/>
</clipPath>
</defs>
</svg>
