<svg width="16" height="16" viewBox="0 0 16 16" fill="none" xmlns="http://www.w3.org/2000/svg">
<path fill-rule="evenodd" clip-rule="evenodd" d="M8 16C12.418 16 16 12.4185 16 8C16 3.58154 12.418 0 8 0C3.58203 0 0 3.58154 0 8C0 12.4185 3.58203 16 8 16ZM7.31641 10.1919C7.36328 10.2402 7.41992 10.2642 7.48438 10.2642H8.66016C8.8125 10.2642 8.91992 10.1641 8.98438 9.96387L9.01562 9.74561L9.04492 9.55615C9.06836 9.44727 9.10156 9.34229 9.14453 9.24121C9.19141 9.13379 9.25 9.03076 9.32031 8.93213C9.46484 8.73193 9.66406 8.49219 9.91992 8.21191C10.1387 7.97803 10.3242 7.76221 10.4746 7.56348C10.5723 7.43652 10.6562 7.31641 10.7246 7.2041C10.7734 7.12402 10.8164 7.04004 10.8535 6.95166C10.9512 6.71387 11 6.4458 11 6.14795C11 5.88037 10.9414 5.61963 10.8262 5.36572C10.791 5.28564 10.748 5.20654 10.6992 5.12793C10.5078 4.7998 10.1953 4.53223 9.76367 4.32422C9.33984 4.10791 8.79688 4 8.13281 4C7.5 4 6.94727 4.12012 6.47656 4.35986C6.00391 4.5918 5.64453 4.8999 5.39648 5.28418C5.14844 5.66797 5.01562 6.08008 5 6.52002C5 6.60791 5.02344 6.68018 5.07227 6.73584C5.11914 6.78418 5.18359 6.80811 5.26367 6.80811H6.2832C6.46094 6.80811 6.57617 6.71582 6.63281 6.53223C6.79297 5.75586 7.26367 5.36816 8.04883 5.36816C8.1543 5.36816 8.25586 5.37695 8.35156 5.39502C8.57617 5.43701 8.77344 5.52783 8.94727 5.66797C9.19531 5.85986 9.30469 6.12012 9.27148 6.44824C9.24805 6.64014 9.16797 6.82812 9.03125 7.01221C8.89648 7.1958 8.69531 7.41602 8.43164 7.67188C8.07227 8.04004 7.79297 8.36816 7.5918 8.65576C7.40039 8.93604 7.2832 9.26416 7.24414 9.64014V10.0239L7.25 10.0771C7.25977 10.1196 7.28125 10.1577 7.31641 10.1919ZM7.16016 12.2319C7.16016 12.312 7.1875 12.3799 7.24414 12.436C7.30078 12.4922 7.36719 12.52 7.44727 12.52H8.61133C8.69922 12.52 8.77148 12.4922 8.82812 12.436C8.88477 12.3799 8.91211 12.312 8.91211 12.2319V11.188C8.91211 11.1001 8.88477 11.0278 8.82812 10.9722C8.80664 10.9512 8.7832 10.9341 8.75781 10.9209C8.71484 10.8994 8.66602 10.8882 8.61133 10.8882H7.44727C7.40625 10.8882 7.36914 10.8965 7.33594 10.9126C7.30273 10.9282 7.27148 10.9521 7.24414 10.9839C7.1875 11.04 7.16016 11.1079 7.16016 11.188V12.2319Z" fill="#151414"/>
</svg>
