<svg width="371" height="70" viewBox="0 0 371 70" fill="none" xmlns="http://www.w3.org/2000/svg">
<path d="M327.825 35.1068C325.904 33.8352 323.785 32.931 321.778 31.8007C320.478 31.066 319.094 30.4161 317.964 29.4836C316.042 27.9012 316.438 24.7928 318.444 23.4365C321.326 21.515 326.102 22.5888 326.61 26.5165C326.61 26.6013 326.695 26.6578 326.78 26.6578H331.132C331.245 26.6578 331.329 26.5731 331.301 26.46C331.075 23.7473 330.029 21.4867 328.108 20.0456C326.271 18.661 324.18 17.9263 321.948 17.9263C310.447 17.9263 309.402 30.1052 315.59 33.9482C316.296 34.4004 322.372 37.4522 324.519 38.7803C326.667 40.1084 327.345 42.5385 326.413 44.46C325.565 46.212 323.361 47.427 321.157 47.2858C318.755 47.1445 316.89 45.8446 316.24 43.8101C316.127 43.4428 316.07 42.7363 316.07 42.4255C316.07 42.3407 315.986 42.2559 315.901 42.2559H311.182C311.097 42.2559 311.012 42.3407 311.012 42.4255C311.012 45.8446 311.86 47.7379 314.177 49.4616C316.353 51.1005 318.726 51.7787 321.185 51.7787C327.628 51.7787 330.962 48.1335 331.64 44.347C332.234 40.6453 331.132 37.3109 327.825 35.1068Z" fill="#161616"/>
<path d="M122.931 18.5479H120.84H118.551C118.466 18.5479 118.41 18.6044 118.381 18.6609L114.51 31.4332C114.453 31.6028 114.227 31.6028 114.171 31.4332L110.3 18.6609C110.271 18.5761 110.215 18.5479 110.13 18.5479H107.841H105.75H102.924C102.84 18.5479 102.755 18.6326 102.755 18.7174V51.3265C102.755 51.4113 102.84 51.496 102.924 51.496H107.643C107.728 51.496 107.813 51.4113 107.813 51.3265V26.5447C107.813 26.3469 108.096 26.3186 108.152 26.4882L112.052 39.3453L112.334 40.2496C112.362 40.3343 112.419 40.3626 112.504 40.3626H116.121C116.205 40.3626 116.262 40.3061 116.29 40.2496L116.573 39.3453L120.472 26.4882C120.529 26.2904 120.811 26.3469 120.811 26.5447V51.3265C120.811 51.4113 120.896 51.496 120.981 51.496H125.7C125.785 51.496 125.869 51.4113 125.869 51.3265V18.7174C125.869 18.6326 125.785 18.5479 125.7 18.5479H122.931Z" fill="#161616"/>
<path d="M255.571 18.5479C255.487 18.5479 255.43 18.6044 255.402 18.6609L251.531 31.4332C251.474 31.6028 251.248 31.6028 251.191 31.4332L247.32 18.6609C247.292 18.5761 247.235 18.5479 247.151 18.5479H239.973C239.888 18.5479 239.804 18.6326 239.804 18.7174V51.3265C239.804 51.4113 239.888 51.496 239.973 51.496H244.692C244.777 51.496 244.862 51.4113 244.862 51.3265V26.5447C244.862 26.3469 245.144 26.3186 245.201 26.4882L249.1 39.3453L249.383 40.2496C249.411 40.3343 249.468 40.3626 249.553 40.3626H253.17C253.254 40.3626 253.311 40.3061 253.339 40.2496L253.622 39.3453L257.521 26.4882C257.578 26.2904 257.86 26.3469 257.86 26.5447V51.3265C257.86 51.4113 257.945 51.496 258.03 51.496H262.749C262.834 51.496 262.918 51.4113 262.918 51.3265V18.7174C262.918 18.6326 262.834 18.5479 262.749 18.5479H255.571Z" fill="#161616"/>
<path d="M194.704 18.5479H185.916H181.197H172.409C172.325 18.5479 172.24 18.6326 172.24 18.7174V22.7865C172.24 22.8712 172.325 22.956 172.409 22.956H181.028V51.3265C181.028 51.4113 181.113 51.496 181.197 51.496H185.916C186.001 51.496 186.086 51.4113 186.086 51.3265V22.956H194.704C194.789 22.956 194.874 22.8712 194.874 22.7865V18.7174C194.874 18.6326 194.817 18.5479 194.704 18.5479Z" fill="#161616"/>
<path d="M222.538 51.4958H226.833C226.946 51.4958 227.031 51.3828 227.003 51.2697L218.13 18.5476C218.102 18.4628 218.045 18.4346 217.96 18.4346H216.321H213.439H211.8C211.716 18.4346 211.659 18.4911 211.631 18.5476L202.758 51.2697C202.73 51.3828 202.814 51.4958 202.927 51.4958H207.223C207.307 51.4958 207.364 51.4393 207.392 51.3828L209.964 41.86C209.992 41.7752 210.048 41.747 210.133 41.747H219.628C219.712 41.747 219.769 41.8035 219.797 41.86L222.369 51.3828C222.397 51.4393 222.482 51.4958 222.538 51.4958ZM211.263 37.0845L214.711 24.3404C214.767 24.1708 214.993 24.1708 215.05 24.3404L218.497 37.0845C218.526 37.1975 218.441 37.3106 218.328 37.3106H211.433C211.32 37.3106 211.235 37.1975 211.263 37.0845Z" fill="#161616"/>
<path d="M295.782 51.4958H300.077C300.19 51.4958 300.275 51.3828 300.246 51.2697L291.374 18.5476C291.345 18.4628 291.289 18.4346 291.204 18.4346H289.565H286.683H285.044C284.959 18.4346 284.903 18.4911 284.874 18.5476L276.002 51.2697C275.973 51.3828 276.058 51.4958 276.171 51.4958H280.466C280.551 51.4958 280.608 51.4393 280.636 51.3828L283.207 41.86C283.235 41.7752 283.292 41.747 283.377 41.747H292.871C292.956 41.747 293.013 41.8035 293.041 41.86L295.612 51.3828C295.641 51.4393 295.697 51.4958 295.782 51.4958ZM284.507 37.0845L287.954 24.3404C288.011 24.1708 288.237 24.1708 288.294 24.3404L291.741 37.0845C291.769 37.1975 291.684 37.3106 291.571 37.3106H284.677C284.564 37.3106 284.479 37.1975 284.507 37.0845Z" fill="#161616"/>
<path d="M145.028 46.6641V36.5479C145.028 36.4631 145.113 36.3784 145.197 36.3784H157.772C157.857 36.3784 157.941 36.2936 157.941 36.2088V32.1398C157.941 32.055 157.857 31.9702 157.772 31.9702H145.197C145.113 31.9702 145.028 31.8854 145.028 31.8007V23.1539C145.028 23.0691 145.113 22.9843 145.197 22.9843H159.496C159.58 22.9843 159.665 22.8996 159.665 22.8148V18.7457C159.665 18.6609 159.58 18.5762 159.496 18.5762H145.028H140.139C140.055 18.5762 139.97 18.6609 139.97 18.7457V22.9843V31.9985V36.4066V46.8619V51.3266C139.97 51.4113 140.055 51.4961 140.139 51.4961H145.028H160.089C160.174 51.4961 160.259 51.4113 160.259 51.3266V47.0314C160.259 46.9467 160.174 46.8619 160.089 46.8619H145.169C145.084 46.8336 145.028 46.7771 145.028 46.6641Z" fill="#161616"/>
<path d="M370.946 51.2135L354.613 34.3438C354.557 34.2873 354.557 34.1743 354.613 34.1178L369.307 18.8587C369.42 18.7457 369.336 18.5762 369.194 18.5762H363.175C363.119 18.5762 363.091 18.6044 363.062 18.6327L350.601 31.5746C350.488 31.6876 350.318 31.6029 350.318 31.4616V18.7457C350.318 18.6609 350.234 18.5762 350.149 18.5762H345.43C345.345 18.5762 345.26 18.6609 345.26 18.7457V51.3548C345.26 51.4396 345.345 51.5244 345.43 51.5244H350.149C350.234 51.5244 350.318 51.4396 350.318 51.3548V37C350.318 36.8587 350.516 36.774 350.601 36.887L364.73 51.4679C364.758 51.4961 364.814 51.5244 364.843 51.5244H370.862C370.975 51.4961 371.059 51.2983 370.946 51.2135Z" fill="#161616"/>
<path d="M70.5131 1L41.9448 22.1931L47.2572 9.7033L70.5131 1Z" fill="#E17726" stroke="#E17726" stroke-linecap="round" stroke-linejoin="round"/>
<path d="M4.6167 1L32.9307 22.3909L27.8726 9.7033L4.6167 1Z" fill="#E27625" stroke="#E27625" stroke-linecap="round" stroke-linejoin="round"/>
<path d="M60.2272 50.1396L52.626 61.7817L68.9023 66.2747L73.5647 50.394L60.2272 50.1396Z" fill="#E27625" stroke="#E27625" stroke-linecap="round" stroke-linejoin="round"/>
<path d="M1.59326 50.394L6.22749 66.2747L22.4755 61.7817L14.9025 50.1396L1.59326 50.394Z" fill="#E27625" stroke="#E27625" stroke-linecap="round" stroke-linejoin="round"/>
<path d="M21.5993 30.4723L17.0781 37.3106L33.1849 38.0453L32.648 20.667L21.5993 30.4723Z" fill="#E27625" stroke="#E27625" stroke-linecap="round" stroke-linejoin="round"/>
<path d="M53.5304 30.4724L42.3122 20.4692L41.9448 38.0454L58.0516 37.3107L53.5304 30.4724Z" fill="#E27625" stroke="#E27625" stroke-linecap="round" stroke-linejoin="round"/>
<path d="M22.4756 61.782L32.2244 57.063L23.8319 50.5073L22.4756 61.782Z" fill="#E27625" stroke="#E27625" stroke-linecap="round" stroke-linejoin="round"/>
<path d="M42.9058 57.063L52.6263 61.782L51.2982 50.5073L42.9058 57.063Z" fill="#E27625" stroke="#E27625" stroke-linecap="round" stroke-linejoin="round"/>
<path d="M52.6263 61.7815L42.9058 57.0625L43.697 63.3922L43.6122 66.0766L52.6263 61.7815Z" fill="#D5BFB2" stroke="#D5BFB2" stroke-linecap="round" stroke-linejoin="round"/>
<path d="M22.4756 61.7815L31.518 66.0766L31.4615 63.3922L32.2244 57.0625L22.4756 61.7815Z" fill="#D5BFB2" stroke="#D5BFB2" stroke-linecap="round" stroke-linejoin="round"/>
<path d="M31.6876 46.3248L23.606 43.9512L29.314 41.3232L31.6876 46.3248Z" fill="#233447" stroke="#233447" stroke-linecap="round" stroke-linejoin="round"/>
<path d="M43.4429 46.3248L45.8165 41.3232L51.5528 43.9512L43.4429 46.3248Z" fill="#233447" stroke="#233447" stroke-linecap="round" stroke-linejoin="round"/>
<path d="M22.4758 61.7817L23.8887 50.1396L14.9028 50.394L22.4758 61.7817Z" fill="#CC6228" stroke="#CC6228" stroke-linecap="round" stroke-linejoin="round"/>
<path d="M51.2422 50.1396L52.6268 61.7817L60.2281 50.394L51.2422 50.1396Z" fill="#CC6228" stroke="#CC6228" stroke-linecap="round" stroke-linejoin="round"/>
<path d="M58.0521 37.3105L41.9453 38.0452L43.443 46.3247L45.8166 41.3231L51.5528 43.951L58.0521 37.3105Z" fill="#CC6228" stroke="#CC6228" stroke-linecap="round" stroke-linejoin="round"/>
<path d="M23.6061 43.951L29.3141 41.3231L31.6877 46.3247L33.1854 38.0452L17.0786 37.3105L23.6061 43.951Z" fill="#CC6228" stroke="#CC6228" stroke-linecap="round" stroke-linejoin="round"/>
<path d="M17.0786 37.3105L23.8321 50.5068L23.6061 43.951L17.0786 37.3105Z" fill="#E27525" stroke="#E27525" stroke-linecap="round" stroke-linejoin="round"/>
<path d="M51.5527 43.951L51.2983 50.5068L58.0519 37.3105L51.5527 43.951Z" fill="#E27525" stroke="#E27525" stroke-linecap="round" stroke-linejoin="round"/>
<path d="M33.1856 38.0454L31.688 46.3248L33.5812 56.1019L34.0051 43.2165L33.1856 38.0454Z" fill="#E27525" stroke="#E27525" stroke-linecap="round" stroke-linejoin="round"/>
<path d="M41.945 38.0454L41.1538 43.1883L41.5494 56.1019L43.4427 46.3248L41.945 38.0454Z" fill="#E27525" stroke="#E27525" stroke-linecap="round" stroke-linejoin="round"/>
<path d="M43.4426 46.3248L41.5493 56.1019L42.9057 57.0626L51.2981 50.5069L51.5525 43.9512L43.4426 46.3248Z" fill="#F5841F" stroke="#F5841F" stroke-linecap="round" stroke-linejoin="round"/>
<path d="M23.606 43.9512L23.832 50.5069L32.2245 57.0626L33.5808 56.1019L31.6876 46.3248L23.606 43.9512Z" fill="#F5841F" stroke="#F5841F" stroke-linecap="round" stroke-linejoin="round"/>
<path d="M43.6122 66.0769L43.6969 63.3924L42.9622 62.7707H32.1679L31.4615 63.3924L31.518 66.0769L22.4756 61.7817L25.6404 64.3814L32.0549 68.8178H43.047L49.4897 64.3814L52.6263 61.7817L43.6122 66.0769Z" fill="#C0AC9D" stroke="#C0AC9D" stroke-linecap="round" stroke-linejoin="round"/>
<path d="M42.9057 57.0628L41.5493 56.1021H33.5807L32.2244 57.0628L31.4614 63.3925L32.1679 62.7708H42.9622L43.6969 63.3925L42.9057 57.0628Z" fill="#161616" stroke="#161616" stroke-linecap="round" stroke-linejoin="round"/>
<path d="M71.7284 23.5777L74.1303 11.8791L70.5133 1L42.9058 21.4867L53.5306 30.4725L68.5353 34.8524L71.8414 30.9812L70.4003 29.9356L72.6891 27.8446L70.9372 26.4882L73.226 24.7363L71.7284 23.5777Z" fill="#763E1A" stroke="#763E1A" stroke-linecap="round" stroke-linejoin="round"/>
<path d="M1 11.8791L3.43014 23.5777L1.87598 24.7363L4.19309 26.4882L2.44113 27.8446L4.72998 29.9356L3.28886 30.9812L6.59498 34.8524L21.5997 30.4725L32.2245 21.4867L4.61696 1L1 11.8791Z" fill="#763E1A" stroke="#763E1A" stroke-linecap="round" stroke-linejoin="round"/>
<path d="M68.5354 34.8526L53.5307 30.4727L58.0519 37.311L51.2983 50.5072L60.2277 50.3942H73.5652L68.5354 34.8526Z" fill="#F5841F" stroke="#F5841F" stroke-linecap="round" stroke-linejoin="round"/>
<path d="M21.5995 30.4727L6.59483 34.8526L1.59326 50.3942H14.9025L23.8319 50.5072L17.0783 37.311L21.5995 30.4727Z" fill="#F5841F" stroke="#F5841F" stroke-linecap="round" stroke-linejoin="round"/>
<path d="M41.9453 38.0454L42.906 21.4865L47.2577 9.70312H27.873L32.2247 21.4865L33.1854 38.0454L33.5528 43.2447L33.5811 56.1019H41.5497L41.5779 43.2447L41.9453 38.0454Z" fill="#F5841F" stroke="#F5841F" stroke-linecap="round" stroke-linejoin="round"/>
</svg>
