<svg fill="none" height="512" viewBox="0 0 2589 512" width="2589" xmlns="http://www.w3.org/2000/svg" xmlns:xlink="http://www.w3.org/1999/xlink"><mask id="a" height="512" maskUnits="userSpaceOnUse" width="512" x="0" y="0"><circle cx="256" cy="256" fill="#c4c4c4" r="256"/></mask><g fill="#000"><path d="m672.825 455.754c-3.726 0-7.08-1.305-10.061-3.913-2.608-2.981-3.912-6.334-3.912-10.06v-362.7313c0-4.0987 1.304-7.4521 3.912-10.0603 2.609-2.9809 5.962-4.4713 10.061-4.4713h158.171c48.438 0 86.444 10.9919 114.017 32.9756 27.573 21.9833 41.359 54.2143 41.359 96.6913s-13.786 74.334-41.359 95.573c-27.573 20.866-65.579 31.299-114.017 31.299h-63.716v120.724c0 3.726-1.304 7.079-3.912 10.06-2.608 2.608-5.962 3.913-10.061 3.913zm155.376-214.621c15.277 0 27.2-3.912 35.77-11.737 8.943-8.197 13.414-20.121 13.414-35.77 0-14.532-4.099-26.269-12.296-35.211-7.825-8.943-20.121-13.414-36.888-13.414h-62.598v96.132z"/><path d="m1034.61 124.88c-4.1 0-7.45-1.304-10.06-3.912-2.61-2.981-3.92-6.521-3.92-10.619v-51.9789c0-4.0987 1.31-7.4521 3.92-10.0603 2.98-2.9809 6.33-4.4713 10.06-4.4713h69.86c4.1 0 7.45 1.4904 10.06 4.4713 2.98 2.6082 4.47 5.9616 4.47 10.0603v51.9789c0 4.098-1.49 7.638-4.47 10.619-2.61 2.608-5.96 3.912-10.06 3.912zm0 330.874c-3.73 0-7.08-1.305-10.06-3.913-2.61-2.981-3.92-6.334-3.92-10.06v-262.687c0-4.098 1.31-7.452 3.92-10.06 2.98-2.608 6.33-3.913 10.06-3.913h69.86c4.1 0 7.45 1.305 10.06 3.913 2.98 2.608 4.47 5.962 4.47 10.06v262.687c0 4.099-1.49 7.452-4.47 10.06-2.61 2.608-5.96 3.913-10.06 3.913z"/><path d="m1307.71 461.343c-45.46 0-81.23-12.11-107.31-36.329-26.09-24.592-39.5-60.176-40.24-106.752v-17.326c1.49-44.34 15.27-78.992 41.35-103.957 26.09-24.964 61.3-37.447 105.64-37.447 32.04 0 59.06 6.521 81.04 19.562 22.36 12.669 38.94 30.368 49.74 53.096 11.18 22.357 16.77 47.88 16.77 76.571v13.973c0 4.098-1.49 7.638-4.47 10.619-2.61 2.608-5.96 3.912-10.06 3.912h-177.18v3.354c.38 16.767 4.29 30.367 11.74 40.8 7.45 10.06 18.07 15.09 31.86 15.09 8.94 0 16.02-1.676 21.24-5.03 5.59-3.726 10.8-8.383 15.65-13.973 3.35-3.726 5.96-5.961 7.82-6.706 2.24-1.118 5.59-1.677 10.06-1.677h73.22c3.35 0 6.15 1.118 8.38 3.353 2.61 1.863 3.92 4.285 3.92 7.266 0 9.688-5.59 21.052-16.77 34.093-10.81 13.042-26.83 24.22-48.07 33.535-20.86 9.315-45.64 13.973-74.33 13.973zm44.15-181.086v-1.118c0-17.885-3.91-31.672-11.74-41.359-7.82-10.061-18.81-15.091-32.97-15.091s-25.15 5.03-32.98 15.091c-7.45 9.687-11.18 23.474-11.18 41.359v1.118z"/><path d="m1524.94 455.754c-3.72 0-7.08-1.305-10.06-3.913-2.61-2.981-3.91-6.334-3.91-10.06v-362.7313c0-4.0987 1.3-7.4521 3.91-10.0603 2.61-2.9809 5.96-4.4713 10.06-4.4713h147c55.14 0 97.99 13.2275 128.54 39.6829 30.56 26.082 46.58 63.715 48.07 112.899.37 10.805.56 25.151.56 43.036s-.19 32.044-.56 42.477c-3.73 102.094-61.67 153.141-173.82 153.141zm147-83.837c23.47 0 40.8-5.589 51.97-16.767 11.18-11.178 17.14-29.063 17.89-53.655.74-10.806 1.12-24.778 1.12-41.918s-.38-30.926-1.12-41.359c-.75-23.847-7.27-41.359-19.56-52.538-11.93-11.55-29.62-17.326-53.1-17.326h-53.09v223.563z"/><path d="m1859.34 455.754c-2.98 0-5.77-1.118-8.38-3.354-2.24-2.608-3.35-5.403-3.35-8.384 0-2.235.18-3.912.55-5.03l130.23-358.2596c3.73-10.8055 11.18-16.2083 22.36-16.2083h87.19c11.17 0 18.63 5.4028 22.35 16.2083l130.23 358.2596c.37 1.118.56 2.795.56 5.03 0 2.981-1.31 5.776-3.92 8.384-2.23 2.236-4.84 3.354-7.82 3.354h-72.66c-8.94 0-15.28-4.099-19-12.296l-20.12-54.215h-146.44l-20.12 54.215c-3.72 8.197-10.06 12.296-19 12.296zm135.26-150.347h99.48l-49.74-142.521z"/><path d="m2414.48 461.343c-52.91 0-94.64-12.855-125.19-38.565s-46.76-63.529-48.63-113.458c-.37-10.433-.56-26.455-.56-48.066s.19-37.82.56-48.625c1.49-49.184 17.7-87.004 48.63-113.4586 31.3-26.8276 73.03-40.2414 125.19-40.2414 51.8 0 93.16 13.4138 124.08 40.2414 31.3 26.4546 47.7 64.2746 49.19 113.4586.74 21.611 1.11 37.819 1.11 48.625 0 11.178-.37 27.2-1.11 48.066-1.87 49.929-18.08 87.748-48.63 113.458-30.18 25.71-71.73 38.565-124.64 38.565zm0-83.837c19.38 0 34.84-5.775 46.39-17.326 11.55-11.923 17.7-29.994 18.45-54.214.74-21.611 1.12-37.074 1.12-46.389s-.38-24.406-1.12-45.272c-.75-24.219-6.9-42.104-18.45-53.655-11.55-11.923-27.01-17.885-46.39-17.885-19.74 0-35.39 5.962-46.94 17.885-11.55 11.551-17.7 29.436-18.45 53.655-.37 10.433-.56 25.524-.56 45.272 0 20.121.19 35.584.56 46.389.75 24.22 6.9 42.291 18.45 54.214 11.55 11.551 27.2 17.326 46.94 17.326z"/></g><g mask="url(#a)"><path d="m-48.3542-491.769h747v1344h-747z" transform="matrix(.96592583 .25881905 -.25881905 .96592583 -128.926812 -4.241634)"/></g></svg>