<svg width="2000" height="2000" viewBox="0 0 2000 2000" fill="none" xmlns="http://www.w3.org/2000/svg">
<mask id="mask0" mask-type="alpha" maskUnits="userSpaceOnUse" x="0" y="0" width="2000" height="2000">
<circle cx="1000" cy="1000" r="1000" fill="black"/>
</mask>
<g mask="url(#mask0)">
<path d="M691.102 3217.2L1726.8 3494.5L2343.3 1182.3L846.002 2398.2L691.102 3217.2Z" fill="#6AEDCB"/>
<path d="M982.099 2378.6C1178.3 2169.6 1416.2 2237.4 1615.7 2167.2C1742.8 2122.5 1847.7 2029.1 1921.1 1916.2C2036.9 1738.1 2061.4 1500.5 2219.5 1358.6C2250.4 1330.8 2286.2 1307.2 2309 1272.5C2326.7 1245.6 2335.4 1213.8 2343.7 1182.7L2685.6 -88.2002C2415.9 -29.0002 2211.2 184.3 2025.3 388.4C1237.9 1252.6 471.699 2140.1 -394.801 2925.1L691.599 3217.4C771.799 3238.9 827.799 2841.1 832.799 2806.8C855.399 2649.6 882.999 2506.7 982.099 2378.6Z" fill="#30C7FF"/>
<path d="M-356.3 2936.6C-356.3 2936.6 -173.5 2814.3 -29.5 2777.9C114.5 2741.5 343.6 2648.8 477.8 2511C612 2373.2 678.9 2241.1 730.5 2033.8C782.1 1826.5 948.9 1646.1 1161 1576.5C1373.1 1507 1807.2 1493 1918 1123.8C2028.8 754.6 2060 218.1 2676.2 -59.0999L3081.5 -1561.6L2881 -1615.3L-948 2551.4L-1093 2738.8L-356.3 2936.6Z" fill="#6C5DFE"/>
<path d="M-672.802 2851.8C-672.802 2851.8 -529.502 2728.8 -431.502 2429.3C-376.302 2260.8 -304.502 2097 -189.802 1959.9C-15.3015 1751.5 232.898 1636.7 494.498 1582C530.598 1574.4 566.598 1569.2 601.698 1557.6C667.898 1535.6 730.698 1504.3 788.198 1464.8C955.298 1349.7 1053.3 1139 1140.9 878.1C1228.5 617.2 1435.4 287.7 1640.8 117.7C1846.3 -52.3002 2017.6 -160.4 2328.9 -349.5C2640.2 -538.6 2990.5 -784.3 3030.5 -1575.2L2312 -1767.7L-599.602 897.5L-1093.1 2739.1L-672.802 2851.8Z" fill="#A20ED3"/>
<path d="M-686.801 1223.1C-686.801 1223.1 -490.801 955.8 -82.7008 869.7C325.399 783.6 506.799 968.4 814.099 440.7C1121.4 -87.0001 1085.6 -286.1 1387.2 -548.8C1688.8 -811.5 1917.9 -915.9 2206.3 -1063.7C2494.7 -1211.5 2643.4 -1280.2 2743.1 -1652.3L1803.6 -1904L-469.301 410.8L-686.801 1223.1Z" fill="#D60A99"/>
<path d="M2047.2 -1838.6C1864.9 -1755.2 1650.5 -1662.6 1542.3 -1454.7C1434.1 -1246.8 1312 -1018.9 1150.8 -837C989.602 -655.1 841.002 -653.6 658.202 -524.8C475.502 -396 347.402 -116.5 272.002 76.5002C196.602 269.5 88.2016 364.9 -77.7984 498.2C-243.798 631.5 -535.898 659.8 -535.898 659.8L-285.598 -274.3L58.0016 -981.8L1207 -2063.8L2047.2 -1838.6Z" fill="#F005C4"/>
<path d="M-378.199 71C-376.499 64.6 -349.699 51.2 -344.399 47.2C-313.299 24.2 -283.899 -0.900146 -256.299 -27.9001C-145.199 -137.1 -123.499 -264.1 -95.7992 -410.5C-76.6992 -511.9 -66.7992 -666 6.60077 -746.2C79.2008 -825.5 140.501 -892.2 394.101 -954.4C551.701 -993 713.901 -1051.1 835.801 -1165.4C977.101 -1297.8 1014.1 -1484 1095.5 -1653.3C1161.9 -1791.3 1256.1 -1937.2 1392.6 -2014L261.701 -2317L-378.199 71Z" fill="#FF744B"/>
</g>
<circle cx="1000" cy="1000" r="902" fill="white"/>
<path d="M1049.36 1425.16L1079.01 1573.42L1128.44 1583.3H1336L1365.66 1563.53V1524L1355.77 1435.04L1306.35 1415.27L1326.12 1355.97L1355.77 1336.2L1405.19 1306.55L1464.5 1267.01L1533.69 1187.94L1573.22 1138.51L1583.11 1079.21V772.799L1543.57 753.03L1504.04 772.799L1474.38 940.83L1424.96 911.177H1385.42L1355.77 940.83L1316.24 1019.9L1256.93 1079.21L1187.74 1128.63L1118.55 1207.7L1088.9 1296.66V1425.16H1049.36Z" fill="white"/>
<path d="M950.52 1425.16L920.868 1573.42L871.447 1583.3H663.878L634.226 1563.53V1524L644.11 1435.04L693.531 1415.27L673.763 1355.97L644.11 1336.2L594.689 1306.55L535.384 1267.01L466.194 1187.94L426.658 1138.51L416.773 1079.21V772.799L456.31 753.03L495.847 772.799L525.5 940.83L574.921 911.177H614.457L644.11 940.83L683.647 1019.9L742.952 1079.21L812.141 1128.63L881.331 1207.7L910.983 1296.66V1425.16H950.52Z" fill="white"/>
<path d="M891.215 753.03L1009.83 1118.75L1128.44 753.03H891.215Z" fill="#F20197"/>
<path d="M891.215 733.261L831.91 594.883L841.794 575.114L999.941 584.998L891.215 733.261Z" fill="#F20197"/>
<path d="M1128.44 733.261L1029.59 594.883L1049.36 575.114L1187.74 584.998L1128.44 733.261Z" fill="#F20197"/>
<path d="M881.331 753.03H723.184L713.299 733.262L812.141 604.767H831.91L881.331 753.03Z" fill="#30C7FF"/>
<path d="M1197.63 594.883L1138.32 743.146L1286.58 753.03L1316.24 743.146L1197.63 594.883Z" fill="#30C7FF"/>
<path d="M881.331 762.914H713.299L980.173 1079.21L881.331 762.914Z" fill="#F8E71C"/>
<path d="M1296.47 762.914L1138.32 753.03L1049.36 1029.79V1069.32L1059.25 1059.44L1296.47 762.914Z" fill="#F8E71C"/>
<path d="M1009.83 594.883L1108.67 733.262L999.941 743.146L920.868 733.262L1009.83 594.883Z" fill="#F8E71C"/>
<path d="M1024.98 1141.28L1341.27 765.685C1342.07 764.724 1342.74 763.66 1343.25 762.522L1344.63 760.347C1345.49 758.002 1345.96 755.53 1346.02 753.033V753.033C1346.02 753.033 1346.02 753.033 1346.02 751.847C1345.93 749.885 1345.53 747.95 1344.83 746.114C1344.83 746.114 1344.83 744.335 1343.45 743.544C1343.06 742.648 1342.6 741.788 1342.06 740.974L1203.69 563.059C1203.69 563.059 1203.69 563.059 1202.5 561.872C1201.24 560.664 1199.85 559.602 1198.35 558.71L1195.58 557.128H1194.2C1192.95 556.944 1191.69 556.944 1190.44 557.128L1187.87 555.349H832.04H829.668C828.423 555.165 827.157 555.165 825.912 555.349H824.528L821.761 556.93C820.261 557.823 818.868 558.884 817.609 560.093C817.609 560.093 817.609 560.093 816.423 561.279L678.044 739.195C677.508 740.009 677.045 740.869 676.661 741.765C676.661 741.765 675.672 743.346 675.277 744.335C674.581 746.171 674.181 748.106 674.091 750.068C674.091 750.068 674.091 750.068 674.091 751.254C674.168 753.685 674.635 756.087 675.474 758.37L676.858 760.545C677.371 761.684 678.036 762.748 678.835 763.708L995.129 1139.31C995.705 1139.78 996.235 1140.31 996.711 1140.89L999.676 1142.67L1001.46 1143.66H1002.84C1006.82 1144.95 1011.11 1144.95 1015.1 1143.66V1143.66H1016.48L1018.26 1142.67L1021.22 1140.89L1022.81 1139.11L1024.98 1141.28ZM824.726 616.829L862.088 733.265H733.198L824.726 616.829ZM1286.71 733.265H1157.82L1195.19 616.829L1286.71 733.265ZM1104.45 772.801L1009.96 1063.99L916.254 772.801H1104.45ZM929.103 733.265L1009.96 610.7L1091.6 733.265H929.103ZM1146.56 772.801H1284.93L1059.57 1039.08L1146.56 772.801ZM1125.01 710.135L1046.92 594.886H1160.79L1125.01 710.135ZM897.671 710.135L859.123 594.886H972.989L897.671 710.135ZM874.74 772.801L960.337 1039.08L736.163 772.801H874.74Z" fill="black"/>
<path d="M1009.95 515.809C1015.19 515.809 1020.22 513.727 1023.93 510.019C1027.64 506.312 1029.72 501.284 1029.72 496.041V377.431C1029.72 372.188 1027.64 367.159 1023.93 363.452C1020.22 359.745 1015.19 357.662 1009.95 357.662C1004.71 357.662 999.68 359.745 995.972 363.452C992.265 367.159 990.182 372.188 990.182 377.431V496.041C990.182 501.284 992.265 506.312 995.972 510.019C999.68 513.727 1004.71 515.809 1009.95 515.809Z" fill="black"/>
<path d="M1142.01 509.887C1144.72 511.2 1147.69 511.877 1150.7 511.864C1154.41 511.872 1158.04 510.838 1161.19 508.88C1164.33 506.923 1166.87 504.121 1168.5 500.794L1203.29 429.628C1204.9 425.07 1204.78 420.08 1202.96 415.603C1201.14 411.125 1197.74 407.47 1193.41 405.328C1189.08 403.186 1184.11 402.705 1179.44 403.977C1174.78 405.249 1170.75 408.186 1168.1 412.231L1133.31 483.398C1130.96 488.066 1130.56 493.473 1132.19 498.437C1133.82 503.401 1137.35 507.517 1142.01 509.887Z" fill="black"/>
<path d="M832.034 500.786C833.664 504.114 836.197 506.916 839.342 508.873C842.488 510.83 846.121 511.864 849.826 511.857C852.838 511.869 855.813 511.193 858.524 509.88C860.863 508.741 862.955 507.152 864.679 505.203C866.403 503.254 867.726 500.984 868.571 498.523C869.415 496.062 869.766 493.459 869.602 490.862C869.439 488.265 868.764 485.726 867.617 483.39L832.034 412.224C830.892 409.888 829.301 407.799 827.351 406.078C825.402 404.356 823.132 403.036 820.673 402.191C818.213 401.347 815.611 400.995 813.015 401.156C810.419 401.317 807.881 401.988 805.544 403.131C803.208 404.273 801.119 405.864 799.398 407.813C797.676 409.763 796.356 412.032 795.511 414.492C794.667 416.952 794.315 419.554 794.477 422.15C794.638 424.745 795.309 427.284 796.451 429.62L832.034 500.786Z" fill="black"/>
<path d="M1286.71 594.887C1289.31 594.902 1291.89 594.403 1294.3 593.419C1296.7 592.436 1298.9 590.986 1300.74 589.154L1360.05 529.849C1363.77 526.126 1365.86 521.078 1365.86 515.813C1365.86 510.549 1363.77 505.5 1360.05 501.778C1356.33 498.055 1351.28 495.964 1346.01 495.964C1340.75 495.964 1335.7 498.055 1331.98 501.778L1272.67 561.083C1270.82 562.921 1269.35 565.107 1268.34 567.516C1267.34 569.925 1266.82 572.509 1266.82 575.118C1266.82 577.728 1267.34 580.312 1268.34 582.721C1269.35 585.13 1270.82 587.316 1272.67 589.154C1274.52 590.986 1276.71 592.436 1279.12 593.419C1281.53 594.403 1284.11 594.902 1286.71 594.887Z" fill="black"/>
<path d="M699.393 589.154C701.231 591.007 703.417 592.477 705.826 593.481C708.235 594.485 710.819 595.001 713.428 595.001C716.038 595.001 718.622 594.485 721.031 593.481C723.44 592.477 725.626 591.007 727.464 589.154C729.317 587.316 730.788 585.13 731.791 582.721C732.795 580.312 733.311 577.728 733.311 575.118C733.311 572.509 732.795 569.925 731.791 567.516C730.788 565.107 729.317 562.921 727.464 561.083L668.159 501.778C664.436 498.055 659.388 495.964 654.123 495.964C648.859 495.964 643.81 498.055 640.088 501.778C636.365 505.5 634.274 510.549 634.274 515.813C634.274 521.078 636.365 526.126 640.088 529.849L699.393 589.154Z" fill="black"/>
<path d="M1541.12 733.263C1526.12 733.313 1511.63 738.781 1500.34 748.66C1489.04 758.54 1481.69 772.166 1479.65 787.033L1464.03 905.643C1457.94 901.012 1451.3 897.16 1444.26 894.177C1425.62 886.727 1404.89 886.353 1386 893.126C1367.1 899.899 1351.33 913.351 1341.66 930.947L1295.4 1013.97C1271.04 1047.46 1239.93 1075.48 1204.07 1096.21C1186.1 1106.87 1169.44 1119.61 1154.46 1134.17C1060.95 1224.31 1066.09 1335.61 1069.25 1388.98C1069.25 1395.5 1069.25 1401.04 1069.25 1405.39C1058.97 1406.31 1049.42 1411.11 1042.57 1418.83C1038.74 1423.11 1035.88 1428.18 1034.21 1433.68C1032.54 1439.17 1032.08 1444.97 1032.88 1450.66L1047.31 1567.09C1048.54 1576.78 1053.21 1585.7 1060.47 1592.23C1067.72 1598.76 1077.09 1602.47 1086.85 1602.68H1343.84C1349.23 1602.81 1354.6 1601.86 1359.63 1599.9C1364.66 1597.94 1369.25 1595 1373.13 1591.24C1377.01 1587.49 1380.11 1583 1382.24 1578.04C1384.37 1573.08 1385.5 1567.75 1385.55 1562.35V1446.11C1385.55 1435.31 1381.26 1424.95 1373.62 1417.32C1365.98 1409.68 1355.63 1405.39 1344.82 1405.39H1326.24C1327.63 1396.77 1330.89 1388.56 1335.81 1381.35C1340.73 1374.14 1347.19 1368.11 1354.71 1363.68C1419.15 1331.65 1603 1207.7 1603 1069.33V795.138C1602.95 778.744 1596.41 763.036 1584.82 751.443C1573.23 739.851 1557.52 733.315 1541.12 733.263V733.263ZM1346.01 1446.11V1562.35C1346.01 1562.66 1345.89 1562.97 1345.66 1563.19C1345.44 1563.41 1345.14 1563.54 1344.82 1563.54H1086.65L1073.21 1444.93L1346.01 1446.11ZM1563.46 1069.33C1563.46 1178.45 1408.08 1292.91 1337.12 1328.49C1323.45 1336.17 1311.77 1346.95 1303.01 1359.96C1294.26 1372.98 1288.68 1387.85 1286.71 1403.41C1286.71 1403.41 1286.71 1404.8 1286.71 1405.39H1108.79C1108.79 1400.45 1108.79 1394.32 1108.79 1387.2C1106.62 1339.56 1101.87 1240.32 1182.53 1162.63C1195.28 1150.17 1209.48 1139.28 1224.83 1130.21C1265.88 1106.48 1301.4 1074.26 1329.01 1035.72L1377.05 948.936C1382.18 940.216 1390.26 933.613 1399.82 930.315C1409.39 927.018 1419.82 927.242 1429.24 930.947C1436.81 933.955 1443.33 939.116 1448.01 945.79C1452.68 952.465 1455.29 960.362 1455.53 968.507L1449.6 1014.17C1447.23 1031.63 1439.17 1047.82 1426.67 1060.23L1393.65 1093.25C1363.29 1123.61 1346.16 1164.76 1346.01 1207.7H1385.55C1385.51 1191.5 1388.68 1175.45 1394.89 1160.49C1401.1 1145.52 1410.22 1131.94 1421.72 1120.53L1454.74 1087.51C1473.23 1068.79 1485.16 1044.59 1488.74 1018.52L1492.1 992.822L1518.79 792.568C1519.78 787.129 1522.74 782.246 1527.11 778.848C1531.47 775.45 1536.93 773.775 1542.45 774.142C1547.96 774.508 1553.15 776.89 1557.03 780.834C1560.9 784.779 1563.19 790.01 1563.46 795.533V1069.33Z" fill="black"/>
<path d="M1128.56 1524C1139.48 1524 1148.33 1515.15 1148.33 1504.23C1148.33 1493.31 1139.48 1484.46 1128.56 1484.46C1117.64 1484.46 1108.79 1493.31 1108.79 1504.23C1108.79 1515.15 1117.64 1524 1128.56 1524Z" fill="black"/>
<path d="M930.878 1405.39C930.878 1401.05 930.878 1395.51 930.878 1388.99C933.448 1335.61 938.588 1224.32 845.281 1134.17C830.183 1119.65 813.468 1106.92 795.464 1096.22C759.612 1075.48 728.501 1047.47 704.134 1013.98L658.272 930.952C648.62 913.499 632.941 900.16 614.167 893.428C595.393 886.697 574.809 887.036 556.267 894.381C549.225 897.364 542.584 901.216 536.498 905.847L520.881 787.236C520.362 779.111 518.248 771.167 514.658 763.859C511.069 756.55 506.076 750.02 499.963 744.642C487.618 733.78 471.463 728.266 455.053 729.315C438.642 730.363 423.321 737.888 412.458 750.233C401.596 762.579 396.083 778.733 397.131 795.144V1069.33C397.131 1207.71 580.977 1331.66 645.225 1363.68C652.784 1368.09 659.274 1374.12 664.23 1381.33C669.185 1388.54 672.484 1396.76 673.889 1405.39H655.504C650.14 1405.37 644.823 1406.4 639.859 1408.44C634.896 1410.47 630.383 1413.47 626.581 1417.25C622.778 1421.04 619.761 1425.53 617.702 1430.49C615.643 1435.44 614.584 1440.75 614.584 1446.12V1562.36C614.584 1573.16 618.874 1583.51 626.511 1591.15C634.148 1598.79 644.506 1603.08 655.306 1603.08H912.296C922.057 1602.87 931.419 1599.16 938.676 1592.63C945.933 1586.1 950.602 1577.18 951.832 1567.49L966.263 1451.06C967.058 1445.37 966.604 1439.57 964.931 1434.08C963.258 1428.58 960.407 1423.51 956.577 1419.23C950.027 1411.59 940.866 1406.65 930.878 1405.39ZM663.016 1328.5C592.048 1292.91 436.668 1178.45 436.668 1069.33V795.144C437.01 789.643 439.356 784.458 443.262 780.569C447.168 776.681 452.364 774.359 457.866 774.042C463.369 773.726 468.797 775.437 473.123 778.852C477.449 782.266 480.374 787.148 481.345 792.574L511.393 1018.53C514.975 1044.59 526.904 1068.8 545.394 1087.52L578.407 1120.53C589.909 1131.94 599.029 1145.53 605.239 1160.49C611.449 1175.46 614.626 1191.51 614.584 1207.71H654.12C654.149 1186.31 649.956 1165.12 641.781 1145.34C633.605 1125.56 621.609 1107.59 606.479 1092.46L573.465 1059.45C560.962 1047.03 552.902 1030.84 550.534 1013.39L544.603 967.919C544.927 959.871 547.585 952.091 552.254 945.527C556.922 938.963 563.399 933.899 570.895 930.952C580.475 927.151 591.109 926.961 600.818 930.415C610.528 933.87 618.651 940.735 623.677 949.732L670.528 1034.74L671.714 1036.52C699.328 1075.06 734.845 1107.28 775.894 1131.01C791.274 1140.13 805.537 1151.01 818.396 1163.43C898.853 1241.12 894.109 1341.34 891.934 1388C891.934 1395.11 891.934 1401.24 891.934 1406.18H713.426C713.426 1406.18 713.426 1404.8 713.426 1404.21C711.574 1388.51 706.044 1373.47 697.284 1360.32C688.525 1347.16 676.784 1336.26 663.016 1328.5V1328.5ZM912.493 1563.54H655.504L654.12 1562.36L655.306 1444.93L928.11 1446.12L912.493 1563.54Z" fill="black"/>
<path d="M871.572 1524C882.49 1524 891.34 1515.15 891.34 1504.23C891.34 1493.31 882.49 1484.46 871.572 1484.46C860.654 1484.46 851.804 1493.31 851.804 1504.23C851.804 1515.15 860.654 1524 871.572 1524Z" fill="black"/>
</svg>
