<svg width="26" height="26" viewBox="0 0 26 26" fill="none" xmlns="http://www.w3.org/2000/svg">
<path d="M0.870117 19.4212L6.62982 13.6615L8.37024 15.4019L2.61053 21.1616L0.870117 19.4212Z" fill="#FB6A3B"/>
<path d="M1.65668 20.2084L7.41642 14.4488L8.36968 15.402L2.60994 21.1617L1.65668 20.2084Z" fill="#FB5532"/>
<path d="M8.37325 15.403L6.95221 16.8241C6.63879 16.5692 6.33304 16.2928 6.03772 15.9975C5.74281 15.7026 5.46599 15.3965 5.21155 15.0834L6.63259 13.6624L8.37325 15.403Z" fill="#FB5532"/>
<path d="M6.1201 17.656L5.52306 18.253L4.51276 15.7819L5.10979 15.1848L6.1201 17.656Z" fill="#EC462E"/>
<path d="M4.41563 19.3609L3.81859 19.958L2.80829 17.4868L3.40533 16.8898L4.41563 19.3609Z" fill="#EC462E"/>
<path d="M1.8504 21.8035L0.231771 20.1848C-0.0772571 19.8758 -0.0772571 19.3748 0.231771 19.0658L0.245935 19.0516C0.554963 18.7426 1.05598 18.7426 1.36501 19.0516L2.98364 20.6702C3.29267 20.9793 3.29267 21.4803 2.98364 21.7893L2.96948 21.8035C2.66045 22.1124 2.15943 22.1124 1.8504 21.8035Z" fill="#FCA62F"/>
<path d="M2.97685 21.7964C2.82035 21.9529 2.6156 22.0312 2.41051 22.0312C2.20541 22.0312 1.99992 21.9529 1.84341 21.7964L0.890015 20.843C1.04652 20.9995 1.25161 21.0774 1.45676 21.0774C1.66185 21.0774 1.86695 20.9995 2.02351 20.843C2.33616 20.5303 2.33616 20.023 2.0231 19.7099L2.9765 20.6633C3.28951 20.9764 3.28951 21.4837 2.97685 21.7964Z" fill="#F98824"/>
<path d="M21.2892 3.19078L8.80167 15.6783L6.35626 13.2329L18.8438 0.745314C18.9982 0.590926 19.1954 0.486438 19.4099 0.445359L21.71 0.00517848C21.8992 -0.0310118 22.0652 0.134969 22.0291 0.324137L21.5891 2.62454C21.5481 2.83906 21.4436 3.03634 21.2892 3.19078Z" fill="#B5DBFD"/>
<path d="M21.2906 3.191L8.80319 15.6784L7.84979 14.725L20.3371 2.23756C20.4917 2.08297 20.5958 1.88559 20.6371 1.67086L20.9274 0.155359L21.7116 0.00500319C21.9005 -0.0312375 22.0667 0.134945 22.0308 0.324213L21.5905 2.62426C21.5493 2.83898 21.4452 3.03641 21.2906 3.191Z" fill="#8DCAFC"/>
<path d="M9.68642 12.7402C9.58677 12.7402 9.48712 12.7022 9.41111 12.6261C9.25904 12.4741 9.25904 12.2275 9.41111 12.0755L19.1062 2.38041C19.2583 2.22834 19.5048 2.22834 19.6569 2.38041C19.809 2.53248 19.809 2.77901 19.6569 2.93108L9.96173 12.6262C9.88572 12.7022 9.78607 12.7402 9.68642 12.7402Z" fill="#7EC0ED"/>
<path d="M12.8732 16.3269C11.997 16.4441 10.7919 16.0303 9.58081 15.1994C9.48555 15.134 9.44079 15.0162 9.47002 14.9044L10.1811 12.1862C10.2338 11.9846 10.05 11.8007 9.84836 11.8535L7.13011 12.5646C7.01836 12.5938 6.90056 12.5491 6.83519 12.4538C6.00423 11.2427 5.59046 10.0376 5.7077 9.16144C5.35688 9.20847 5.05925 9.34032 4.83485 9.56472C3.81628 10.5833 4.69951 13.1181 6.80797 15.2266C8.91643 17.335 11.4513 18.2183 12.4698 17.1997C12.6942 16.9753 12.8261 16.6777 12.8732 16.3269Z" fill="#FCA62F"/>
<path d="M12.8737 16.3271C12.8338 16.6222 12.7343 16.8794 12.5701 17.0869C11.4869 16.8998 9.77077 16.2943 8.7209 15.6962C8.40693 15.5176 8.25118 15.1514 8.34272 14.8021L8.95624 12.4565C8.99404 12.3122 8.91047 12.1764 8.78557 12.1316L9.84839 11.8535C10.0504 11.8008 10.234 11.9848 10.1813 12.1864L9.47026 14.9046C9.44088 15.0165 9.48568 15.134 9.5812 15.1996C10.7923 16.0306 11.9974 16.4441 12.8737 16.3271Z" fill="#F98824"/>
<path d="M5.15304 10.7225C5.83701 10.7225 6.39148 10.168 6.39148 9.48404C6.39148 8.80007 5.83701 8.24561 5.15304 8.24561C4.46908 8.24561 3.91461 8.80007 3.91461 9.48404C3.91461 10.168 4.46908 10.7225 5.15304 10.7225Z" fill="#BCEA73"/>
<path d="M6.02903 10.36C5.55684 10.8322 4.7977 10.8435 4.31256 10.3929C4.60007 10.3734 4.88218 10.2539 5.10189 10.0343C5.58537 9.5508 5.58537 8.76631 5.10189 8.28283C5.0906 8.27154 5.07876 8.2602 5.06691 8.24946C5.41203 8.22471 5.76521 8.34422 6.02903 8.60859C6.51306 9.09202 6.51306 9.87596 6.02903 10.36Z" fill="#99D53B"/>
<path d="M12.5518 18.1215C13.2358 18.1215 13.7903 17.567 13.7903 16.883C13.7903 16.1991 13.2358 15.6446 12.5518 15.6446C11.8679 15.6446 11.3134 16.1991 11.3134 16.883C11.3134 17.567 11.8679 18.1215 12.5518 18.1215Z" fill="#BCEA73"/>
<path d="M13.4284 17.7588C12.9556 18.231 12.1965 18.2423 11.7114 17.7916C11.9989 17.7723 12.281 17.6527 12.5007 17.4331C12.9842 16.9496 12.9842 16.1656 12.5007 15.6816C12.4894 15.6703 12.4781 15.6595 12.4662 15.6488C12.8113 15.624 13.1645 15.7435 13.4284 16.0073C13.9119 16.4909 13.9119 17.2748 13.4284 17.7588Z" fill="#99D53B"/>
<path d="M8.12366 14.3015C8.03001 14.3015 7.93605 14.2679 7.86141 14.1998C7.70248 14.0549 7.69114 13.8087 7.83605 13.6498L7.84603 13.6389C7.99094 13.48 8.23727 13.4686 8.39609 13.6135C8.55502 13.7584 8.56636 14.0047 8.42145 14.1636L8.41147 14.1745C8.33465 14.2588 8.22931 14.3015 8.12366 14.3015Z" fill="#FB5532"/>
<path d="M13.6035 5.15643C13.253 5.51566 13.3297 6.10619 13.7585 6.36694C15.1795 7.23102 17.9016 9.42335 18.8053 13.9012C19.4258 16.9764 17.3764 18.7806 15.3649 19.5147C14.9142 19.6793 14.9932 20.3435 15.47 20.3979C17.1409 20.5887 19.4294 20.4287 21.0978 18.6755C21.3087 18.4539 21.6629 18.7136 21.5131 18.9802C20.7306 20.3732 18.7764 22.214 13.8999 22.4786C13.3545 22.5082 13.3085 23.2967 13.8472 23.387C18.5843 24.1812 25.8019 23.9406 25.8019 15.0994C25.8019 5.15663 21.6687 1.47505 19.7558 0.303659C19.2377 -0.0136359 18.5698 0.0671117 18.1455 0.501949L13.6035 5.15643Z" fill="#EAF6FF"/>
<path d="M25.8027 15.0992C25.8027 23.9405 18.5853 24.1814 13.8485 23.3871C13.3097 23.2968 13.3553 22.5081 13.901 22.4785C14.8967 22.4246 15.7704 22.3047 16.5377 22.1364C20.5535 21.9796 24.5879 20.1771 24.5879 13.5671C24.5879 7.83143 23.2126 4.17914 21.6816 1.89069C23.6113 3.93932 25.8027 7.85951 25.8027 15.0992Z" fill="#C4E1FF"/>
<path d="M21.7216 1.93444L21.5898 2.62442C21.5482 2.83884 21.4444 3.03663 21.2897 3.19081L16.1219 8.35856C15.8016 7.99565 15.4787 7.68002 15.1677 7.40642L20.3365 2.23762C20.4907 2.08293 20.595 1.88564 20.636 1.67067L20.7601 1.02484C21.0649 1.27772 21.3899 1.57828 21.7216 1.93444Z" fill="#C4E1FF"/>
<path d="M19.6559 2.9312L15.175 7.41209C14.9662 7.22832 14.7623 7.06375 14.5681 6.91732L19.105 2.38039C19.2571 2.22827 19.5037 2.22827 19.6558 2.38039C19.808 2.53251 19.808 2.77908 19.6559 2.9312Z" fill="#B5DBFD"/>
<path d="M22.6109 15.713C22.5783 15.713 22.5451 15.7089 22.5121 15.7002C22.3041 15.6458 22.1796 15.433 22.2339 15.225C23.3834 10.8325 21.2533 7.19775 21.2317 7.16156C21.1213 6.97698 21.1814 6.73791 21.366 6.62752C21.5506 6.51714 21.7896 6.57732 21.9 6.76185C21.9241 6.80212 22.4946 7.7658 22.9156 9.31503C23.3036 10.7433 23.6311 12.9622 22.9873 15.4222C22.9416 15.5971 22.7838 15.713 22.6109 15.713Z" fill="#B5DBFD"/>
<path d="M20.8503 12.8336C20.6353 12.8336 20.4609 12.6593 20.4609 12.4443C20.4609 8.99894 17.9861 6.72692 17.9611 6.70434C17.8014 6.56033 17.7887 6.31411 17.9327 6.15443C18.0767 5.9947 18.323 5.98204 18.4826 6.12605C18.5951 6.22756 21.2397 8.65629 21.2397 12.4442C21.2397 12.6593 21.0653 12.8336 20.8503 12.8336Z" fill="#B5DBFD"/>
<path d="M17.2814 15.8687C17.2624 15.8687 17.2432 15.8672 17.2238 15.8644C17.0111 15.8329 16.8642 15.6349 16.8957 15.4222C17.2384 13.1093 15.8293 11.2695 15.8151 11.2511C15.6831 11.0817 15.7129 10.8372 15.8821 10.7048C16.0512 10.5725 16.2953 10.6018 16.428 10.7707C16.4948 10.8558 18.059 12.8839 17.6661 15.5363C17.6374 15.7296 17.4712 15.8687 17.2814 15.8687Z" fill="#EAF6FF"/>
<path d="M20.2004 25.3984C20.0012 25.3984 19.8314 25.2463 19.8131 25.0441C19.7937 24.8299 19.9516 24.6406 20.1658 24.6212C23.2703 24.3402 25.0879 21.9765 25.1059 21.9526C25.2353 21.7812 25.4793 21.7467 25.6509 21.8758C25.8225 22.0049 25.8574 22.2484 25.7286 22.4203C25.6472 22.5289 23.6947 25.0837 20.236 25.3967C20.2241 25.3978 20.2122 25.3984 20.2004 25.3984Z" fill="#EAF6FF"/>
<path d="M24.5741 3.6497C24.4455 3.6497 24.3197 3.58609 24.2455 3.46961C23.7571 2.70372 23.3054 2.18501 23.3009 2.17981C23.1593 2.01802 23.1756 1.77204 23.3373 1.63046C23.499 1.48887 23.7449 1.505 23.8866 1.66665C23.9064 1.68933 24.3798 2.23193 24.902 3.05095C25.0176 3.23225 24.9644 3.47299 24.7831 3.58861C24.7182 3.62999 24.6458 3.6497 24.5741 3.6497Z" fill="#EAF6FF"/>
<path d="M15.862 14.1697C15.6843 14.1697 15.5239 14.0473 15.4827 13.8668C15.3952 13.4829 15.2953 13.2036 15.2943 13.2009C15.2215 12.9986 15.3265 12.7755 15.5288 12.7026C15.7313 12.6298 15.9542 12.7348 16.027 12.9371C16.0318 12.9503 16.1441 13.2641 16.242 13.6937C16.2898 13.9034 16.1586 14.1121 15.9489 14.1599C15.9198 14.1666 15.8907 14.1697 15.862 14.1697Z" fill="#EAF6FF"/>
</svg>
