<svg width="1000" height="1000" viewBox="0 0 1000 1000" fill="none" xmlns="http://www.w3.org/2000/svg">
<circle cx="500" cy="500" r="500" fill="url(#paint0_radial)"/>
<path fill-rule="evenodd" clip-rule="evenodd" d="M759.609 576.994L656.276 721.031C640.024 743.905 608.491 754.918 567.497 751.546C514.618 747.18 444.515 719.235 377.324 671.037C310.132 622.815 261.136 565.375 239.79 516.741C223.538 479.046 223.779 445.766 240.273 422.868L343.364 278.831C359.859 255.957 391.392 244.944 432.143 248.316C485.022 252.682 555.367 280.65 622.558 328.848C689.749 377.046 738.747 434.486 759.85 483.121C776.345 520.816 775.861 554.12 759.609 576.994ZM371.018 298.625C381.691 283.828 403.036 279.996 429.476 282.179C477.746 286.157 541.3 312.451 602.669 356.452C664.039 400.43 709.399 452.267 728.804 496.657C739.235 520.986 742.628 542.428 731.955 557.225L628.622 701.261C618.192 716.033 596.846 719.89 570.406 717.683C522.135 713.729 458.34 687.411 396.971 643.433C335.601 599.432 290.24 547.596 271.077 503.23C260.404 478.876 257.254 457.433 267.927 442.661L371.018 298.625Z" fill="white"/>
<path fill-rule="evenodd" clip-rule="evenodd" d="M358.502 292.288C392.219 245.23 506.466 269.39 613.681 346.187C720.896 423.008 780.568 523.599 746.852 570.657L643.76 714.695C610.044 761.753 495.55 737.593 388.335 660.772C281.12 583.951 221.453 483.382 255.17 436.324L358.502 292.288Z" fill="white"/>
<path fill-rule="evenodd" clip-rule="evenodd" d="M350.994 283.393C365.993 262.394 394.99 253.146 432.488 256.146C484.234 260.395 552.73 288.143 618.726 335.14C684.472 382.387 732.72 438.634 753.219 486.131C768.218 520.629 768.716 551.125 753.717 572.124L650.726 716.116C635.727 737.115 606.479 746.363 569.232 743.363C517.485 738.863 448.74 711.367 382.994 664.12C316.998 617.123 269 560.875 248.251 513.378C233.252 478.88 232.754 448.383 247.753 427.385L350.994 283.393ZM739.47 561.627C751.469 545.128 748.968 520.628 737.219 493.13C717.47 447.883 671.224 394.635 608.228 349.638C545.482 304.641 480.236 277.893 430.989 273.894C400.991 271.394 377.245 276.894 365.246 293.643L364.743 294.642C353.494 311.391 355.996 335.139 367.746 362.137C387.494 407.635 433.742 460.881 496.488 505.878C559.234 550.875 624.475 577.626 673.722 581.625C703.22 583.875 726.469 578.626 738.718 562.877L739.47 561.627ZM578.982 390.388C610.48 412.886 633.726 439.634 643.475 462.383C649.225 475.132 650.724 486.381 644.974 494.131C639.474 501.88 628.227 504.13 614.478 502.88C589.73 500.881 557.232 487.381 525.734 464.882C494.236 442.384 470.985 415.885 461.236 393.136C455.736 380.387 454.237 369.138 459.737 361.388C465.237 353.638 476.488 351.39 490.487 352.39C514.985 354.639 547.734 367.889 578.982 390.388Z" fill="#0E0F23"/>
<path fill-rule="evenodd" clip-rule="evenodd" d="M322.643 614.272C287.681 580.343 261.931 545.076 248.24 513.535C233.272 479.049 232.742 448.574 247.747 427.634L350.963 283.599C365.969 262.659 394.997 253.364 432.464 256.455C484.196 260.721 552.81 288.283 618.656 335.475C684.513 382.667 732.663 438.774 753.341 486.391C755.129 490.519 756.716 494.589 758.088 498.59C753.161 496.028 747.266 494.265 740.088 493.528C739.064 493.422 738.041 493.349 737.04 493.306C717.296 447.937 671.07 394.816 608.351 349.868C545.565 304.876 480.326 278.169 431.008 274.102C401.099 271.636 377.336 277.196 365.357 293.913L364.638 294.916C353.458 311.594 355.967 335.469 367.682 362.455C387.387 407.856 433.645 461.041 496.436 506.037C547.511 542.636 600.195 567.135 644.621 577.193C626.598 602.47 607.203 624.912 581.688 629.999C559.436 634.434 537.442 624.436 517.316 601.691C496.402 578.064 479.392 544.412 455.45 538.989C412.499 529.262 374.193 603.166 331.695 612.786C328.678 613.468 325.662 613.96 322.643 614.272ZM579.078 390.705C610.5 413.221 633.708 439.779 643.575 462.497C649.132 475.305 650.662 486.589 645.082 494.366C639.513 502.143 628.342 504.326 614.426 503.178C589.743 501.142 557.13 487.7 525.708 465.184C494.287 442.668 471.08 416.11 461.219 393.392C455.659 380.584 454.133 369.3 459.706 361.523C465.279 353.746 476.455 351.564 490.372 352.712C515.055 354.747 547.657 368.19 579.078 390.705Z" fill="url(#paint1_linear)"/>
<path fill-rule="evenodd" clip-rule="evenodd" d="M647.732 601.482C667.231 604.731 685.23 605.483 700.229 602.983C702.229 602.733 703.73 600.733 703.48 598.733C702.98 596.733 701.228 595.234 699.228 595.484C684.729 597.983 667.731 597.232 648.982 593.982C646.982 593.732 644.984 595.232 644.734 597.231C644.484 599.231 645.732 601.232 647.732 601.482ZM618.232 594.983C623.232 596.233 627.982 597.481 632.982 598.481C634.982 598.981 636.985 597.732 637.235 595.733C637.735 593.733 636.481 591.733 634.481 591.233C629.731 590.233 624.983 588.982 620.234 587.733C618.234 586.983 615.983 588.233 615.483 590.232C614.983 592.232 616.232 594.233 618.232 594.983ZM339.002 358.248C353.001 415.494 407.999 468.991 452.246 506.988C453.746 508.488 456.245 508.239 457.495 506.739C458.745 504.989 458.742 502.738 456.992 501.488C413.995 464.24 360 412.244 346.501 356.497C346.001 354.498 343.75 353.249 341.751 353.749C339.751 354.249 338.502 356.248 339.002 358.248ZM335.75 335.249C335.75 337.749 336.003 340.5 336.253 343C336.503 345 338.501 346.499 340.501 346.249C342.501 345.999 344.002 344.248 343.752 342.248C343.502 339.748 343.25 337.25 343.25 335C343.25 332.75 341.501 331.25 339.251 331.25C337.251 331.5 335.75 333.249 335.75 335.249Z" fill="white"/>
<defs>
<radialGradient id="paint0_radial" cx="0" cy="0" r="1" gradientUnits="userSpaceOnUse" gradientTransform="translate(500 500) rotate(95.0556) scale(765.98)">
<stop stop-color="white"/>
<stop offset="1" stop-color="#E6E6E6"/>
</radialGradient>
<linearGradient id="paint1_linear" x1="558.637" y1="665.258" x2="554.488" y2="-43.976" gradientUnits="userSpaceOnUse">
<stop stop-color="#A7A7A7"/>
<stop offset="1" stop-color="#FBFBFB"/>
</linearGradient>
</defs>
</svg>
