<svg width="25" height="17" viewBox="0 0 25 17" fill="none" xmlns="http://www.w3.org/2000/svg">
<path d="M12.306 0.343536L8.89699 2.51051L8.45654 3.25926V13.7506L12.4646 16.1642L16.3405 13.7506V2.51051L12.306 0.343536Z" fill="#D8F4FF"/>
<path d="M22.1717 6.18381L19.811 7.02946H19.6876L17.6704 13.7946L19.6876 16.0409L22.4096 15.2305L24.1625 8.19222L22.1717 6.18381Z" fill="#BEFFC1"/>
<path d="M2.92471 6.18381L5.28548 7.02946H5.4088L7.42603 13.7946L5.4088 16.0409L2.68687 15.2305L0.933908 8.19222L2.92471 6.18381Z" fill="#FFBEBE"/>
<path fill-rule="evenodd" clip-rule="evenodd" d="M16.8425 2.8778V2.87069C16.842 2.85541 16.8409 2.84066 16.8393 2.82539L16.8378 2.81275C16.8356 2.79562 16.8322 2.77798 16.828 2.76086C16.828 2.7598 16.8275 2.75928 16.8275 2.75822C16.8227 2.74242 16.8183 2.72714 16.8119 2.71134C16.8114 2.70976 16.8104 2.70818 16.8098 2.70607C16.809 2.7042 16.8083 2.70241 16.8075 2.70065L16.8075 2.70058C16.8062 2.69764 16.8049 2.6948 16.8038 2.69185C16.7982 2.67973 16.7924 2.66762 16.7864 2.65603L16.7863 2.6559C16.7837 2.65094 16.7811 2.64598 16.7788 2.64101L16.7756 2.63616L16.7756 2.63606C16.769 2.62593 16.7627 2.61603 16.7561 2.60651C16.7535 2.60256 16.7508 2.59914 16.7479 2.59597C16.7263 2.56595 16.701 2.53961 16.6723 2.51669C16.6687 2.51327 16.6652 2.5109 16.6615 2.50827C16.6505 2.49984 16.6386 2.49194 16.6268 2.48403C16.6255 2.48341 16.6244 2.4827 16.6234 2.48197C16.6228 2.48151 16.6222 2.48104 16.6216 2.48058C16.621 2.48015 16.6205 2.47972 16.6199 2.47932C16.6197 2.47913 16.6194 2.47894 16.6191 2.47877L12.6833 0.0690078C12.6825 0.0683825 12.6816 0.0679223 12.6808 0.0675287C12.6803 0.0673051 12.6799 0.0671029 12.6794 0.0669045C12.6787 0.0665706 12.6779 0.066247 12.6772 0.0658475C12.6606 0.0563655 12.6448 0.0476739 12.6277 0.0400355L12.6246 0.0384548C12.6066 0.030553 12.5874 0.0242318 12.5685 0.0184371C12.5666 0.0179107 12.5647 0.0175155 12.5628 0.0171204C12.5609 0.0167252 12.559 0.01633 12.5571 0.0158031C12.5421 0.011589 12.5263 0.00842819 12.5102 0.00579424C12.5055 0.00526789 12.5016 0.00474099 12.4968 0.0036872C12.4778 0.00158015 12.4584 0 12.4391 0C12.4191 0 12.3996 0.00158015 12.3804 0.0036872C12.3757 0.00474099 12.3717 0.00526789 12.3675 0.00579424C12.3509 0.00842819 12.3351 0.011589 12.3201 0.0158031C12.3187 0.0161918 12.3173 0.0165091 12.3159 0.0168074L12.3144 0.017122C12.3125 0.0175166 12.3106 0.0179112 12.3088 0.0184371C12.2903 0.0242318 12.2711 0.030553 12.2527 0.0384548C12.2516 0.0389817 12.2505 0.0395086 12.25 0.0400355C12.2326 0.0474104 12.2166 0.0563655 12.2005 0.0658475C12.1999 0.0661491 12.1993 0.0664502 12.1986 0.0667513C12.197 0.0675035 12.1954 0.0682556 12.1944 0.0690078L8.25807 2.47877C8.25746 2.47913 8.25683 2.47956 8.2562 2.48001C8.25565 2.4804 8.2551 2.48081 8.25454 2.48122C8.25298 2.48238 8.2514 2.48355 8.24991 2.4843C8.23858 2.49167 8.22726 2.49957 8.21646 2.508C8.21501 2.50924 8.21353 2.51044 8.21204 2.51164C8.20972 2.51351 8.20738 2.5154 8.20513 2.51748C8.17695 2.53987 8.15114 2.56621 8.12954 2.59571C8.12638 2.5994 8.12401 2.60282 8.12137 2.6073C8.11374 2.61784 8.10636 2.62943 8.09925 2.64128C8.09688 2.64503 8.09495 2.64879 8.09302 2.65254C8.0926 2.65336 8.09219 2.65418 8.09176 2.655C8.09154 2.65543 8.09131 2.65586 8.09108 2.65629C8.08595 2.66612 8.08138 2.67595 8.07674 2.68593L8.07672 2.68597C8.07589 2.68775 8.07506 2.68953 8.07423 2.69132C8.0733 2.69377 8.07226 2.69601 8.07124 2.69823C8.06994 2.70102 8.06867 2.70378 8.06764 2.70686C8.06738 2.70765 8.06698 2.70844 8.06659 2.70924C8.06639 2.70962 8.0662 2.71001 8.06602 2.71039C8.06584 2.7108 8.06567 2.7112 8.06554 2.7116C8.06 2.72741 8.05474 2.74268 8.05052 2.75849C8.05029 2.75918 8.05016 2.75977 8.05004 2.76031C8.04995 2.76073 8.04987 2.76112 8.04975 2.76149C8.04967 2.76172 8.04958 2.76195 8.04947 2.76217C8.04525 2.77877 8.04236 2.79589 8.03972 2.81248C8.03937 2.81562 8.03902 2.81876 8.03868 2.82175C8.0385 2.82327 8.03832 2.82475 8.03814 2.82618C8.03656 2.84093 8.03551 2.85568 8.03551 2.87043C8.03551 2.87178 8.03537 2.87313 8.03524 2.87445C8.03511 2.8757 8.03498 2.87691 8.03498 2.87807V14.1219C8.03498 14.1235 8.03551 14.1256 8.03551 14.1272C8.03551 14.1443 8.03656 14.1625 8.03867 14.1796C8.03867 14.1807 8.03867 14.1817 8.0392 14.1828C8.0413 14.2012 8.04473 14.2191 8.04947 14.2376C8.05052 14.2423 8.0521 14.247 8.05421 14.2518C8.05594 14.2577 8.05744 14.2634 8.05909 14.2692C8.05995 14.2722 8.06085 14.2751 8.06185 14.2781C8.0629 14.2813 8.06448 14.2834 8.06554 14.2866C8.07159 14.3029 8.07949 14.319 8.08713 14.335C8.08977 14.3398 8.09135 14.3442 8.09372 14.3492C8.10452 14.3679 8.11637 14.3866 8.1298 14.4038C8.13454 14.4101 8.13955 14.4159 8.14482 14.4219C8.14702 14.4245 8.14923 14.427 8.15144 14.4296L8.15146 14.4296C8.15849 14.4377 8.16559 14.4459 8.173 14.4535C8.17698 14.4574 8.18105 14.461 8.1851 14.4646C8.18776 14.467 8.19041 14.4693 8.19302 14.4717C8.20329 14.4801 8.21303 14.4886 8.22383 14.4965C8.23147 14.5023 8.23885 14.5075 8.24596 14.5125C8.24831 14.5143 8.25057 14.516 8.25285 14.5176C8.25466 14.5189 8.25647 14.5201 8.25834 14.5212L12.1947 16.931C12.1968 16.932 12.1989 16.9331 12.2008 16.9342C12.2168 16.9436 12.2321 16.9518 12.2498 16.9594C12.2503 16.9597 12.2508 16.9601 12.2513 16.9605C12.2519 16.9609 12.2524 16.9613 12.2529 16.9615C12.2714 16.9694 12.2901 16.9758 12.309 16.981C12.3105 16.9814 12.312 16.9819 12.3136 16.9823L12.3148 16.9826C12.3169 16.9831 12.319 16.9837 12.3209 16.9842C12.3359 16.9884 12.3512 16.9916 12.3667 16.9937C12.3712 16.9947 12.376 16.9952 12.3805 16.9957L12.3812 16.9958C12.4001 16.9984 12.4194 17 12.4394 17C12.4584 17 12.4776 16.9984 12.4966 16.9958C12.5018 16.9953 12.5063 16.9947 12.511 16.9937C12.5271 16.9916 12.5424 16.9881 12.5569 16.9842C12.5582 16.9839 12.5594 16.9835 12.5607 16.9832L12.5633 16.9826C12.5652 16.9821 12.5672 16.9815 12.5692 16.981C12.5877 16.9755 12.6069 16.9689 12.6248 16.9615C12.6251 16.9614 12.6254 16.9612 12.6257 16.961C12.6265 16.9605 12.6274 16.96 12.6285 16.96C12.6454 16.9521 12.6614 16.9436 12.6775 16.9342L12.6776 16.9341C12.6797 16.9331 12.6817 16.932 12.6836 16.931L16.6194 14.5212C16.6215 14.5199 16.6237 14.5184 16.6259 14.5169C16.628 14.5154 16.6302 14.5139 16.6323 14.5125C16.638 14.5085 16.6435 14.5045 16.6494 14.5003L16.6539 14.497C16.6647 14.4888 16.6755 14.4804 16.6852 14.4712C16.6875 14.4692 16.6898 14.4671 16.6921 14.465C16.6945 14.463 16.6968 14.4608 16.6992 14.4587C16.7011 14.457 16.7029 14.4553 16.7047 14.4535C16.7145 14.443 16.7242 14.4325 16.734 14.4209C16.7346 14.4202 16.7352 14.4195 16.7358 14.4188L16.7372 14.4172C16.7409 14.4129 16.7447 14.4087 16.7479 14.4038C16.7619 14.3866 16.7732 14.3679 16.7845 14.3492C16.785 14.3482 16.7855 14.3472 16.7859 14.3461C16.7866 14.3445 16.7873 14.3429 16.7879 14.3414C16.7886 14.3396 16.7893 14.3378 16.7901 14.3361C16.7913 14.3335 16.7926 14.331 16.7938 14.3285C16.8008 14.3145 16.8076 14.3008 16.8127 14.2863C16.8138 14.2834 16.8154 14.2808 16.8159 14.2784C16.819 14.27 16.8212 14.2618 16.8235 14.2526C16.8251 14.2478 16.8272 14.2426 16.8283 14.2378C16.833 14.2194 16.8364 14.2015 16.8391 14.1838V14.1788C16.8412 14.1622 16.8422 14.1446 16.8428 14.128V2.8778H16.8425ZM8.97055 3.55603L11.9713 4.69783V12.3983L8.97055 13.4598V3.55603ZM12.9064 1.30299L15.318 2.77929L12.9064 3.69668V1.30299ZM11.9713 3.69695L9.55975 2.77956L11.9713 1.30325V3.69695ZM11.9713 13.391V15.6967L9.58424 14.2352L11.9713 13.391ZM12.9064 13.391L15.2935 14.2352L12.9064 15.6967V13.391ZM12.9064 12.3986V4.69783L15.9072 3.55603V13.46L12.9064 12.3986Z" fill="black"/>
<path fill-rule="evenodd" clip-rule="evenodd" d="M24.8743 8.58015C24.8743 8.57804 24.8738 8.57593 24.8733 8.57461C24.8731 8.57302 24.8729 8.57148 24.8727 8.56996C24.8725 8.56896 24.8724 8.56797 24.8722 8.56698C24.8718 8.56447 24.8714 8.56197 24.8712 8.55934C24.8703 8.55503 24.8696 8.55078 24.8688 8.54658L24.8688 8.54652C24.8675 8.53967 24.8663 8.53299 24.865 8.5265C24.8645 8.52434 24.864 8.5222 24.8635 8.52009C24.8628 8.51752 24.8622 8.51506 24.8616 8.51261L24.8614 8.51206C24.8608 8.50943 24.8601 8.50679 24.8593 8.50402C24.8556 8.49033 24.8517 8.47716 24.8464 8.46425C24.8456 8.46282 24.8449 8.4613 24.8443 8.45974C24.8439 8.45848 24.8434 8.4572 24.843 8.4559C24.8426 8.45466 24.8421 8.4534 24.8417 8.45214C24.8282 8.4179 24.8103 8.38655 24.7893 8.35732C24.7881 8.35546 24.7869 8.35374 24.7858 8.3521C24.7839 8.34934 24.782 8.34679 24.78 8.34415C24.7724 8.33414 24.7634 8.32413 24.7548 8.31465C24.7539 8.31357 24.753 8.31253 24.7522 8.3115C24.7507 8.30951 24.7492 8.3076 24.7476 8.30569L22.7269 6.18435C22.7265 6.18376 22.726 6.18326 22.7256 6.18279C22.7252 6.18242 22.7249 6.18206 22.7245 6.18171C22.7238 6.18092 22.723 6.18013 22.7222 6.17908C22.7201 6.17716 22.7181 6.17525 22.7161 6.17334C22.7048 6.16263 22.6936 6.15204 22.6811 6.1422C22.68 6.14115 22.679 6.1401 22.6779 6.13957C22.6624 6.12745 22.6466 6.11586 22.6295 6.10586C22.6283 6.10521 22.6272 6.10456 22.6261 6.10392L22.6244 6.10294C22.6233 6.1023 22.6222 6.10166 22.621 6.10102C22.6201 6.10053 22.6191 6.10003 22.6181 6.09954C22.6047 6.09242 22.5913 6.08531 22.5776 6.07925C22.5767 6.07886 22.5758 6.07845 22.5749 6.07804L22.574 6.07762L22.574 6.07761C22.5705 6.07597 22.5669 6.07431 22.5626 6.07293C22.546 6.06635 22.5286 6.06029 22.5107 6.05529C22.5091 6.05529 22.5075 6.05476 22.5065 6.05423C22.488 6.04923 22.4704 6.04633 22.4519 6.0437C22.448 6.04296 22.4432 6.04245 22.4385 6.04196L22.4374 6.04185C22.4219 6.04027 22.4061 6.03922 22.3911 6.03922H22.3787C22.3587 6.03922 22.3397 6.0408 22.3194 6.04396C22.3184 6.04396 22.3173 6.04449 22.3163 6.04449C22.2978 6.04712 22.2797 6.05133 22.2612 6.0566L22.2591 6.05714C22.2582 6.05736 22.2574 6.05758 22.2566 6.05779C22.2561 6.05792 22.2556 6.05805 22.2552 6.05818L19.4469 6.89287C19.4456 6.89331 19.4443 6.89386 19.4429 6.89442C19.4411 6.89517 19.4393 6.89595 19.4372 6.89655C19.427 6.89987 19.4172 6.90351 19.4072 6.90723C19.4045 6.90823 19.4017 6.90924 19.399 6.91025C19.3979 6.91073 19.3968 6.9112 19.3958 6.91168L19.3929 6.91298L19.389 6.91476C19.3877 6.91536 19.3864 6.91597 19.385 6.91657C19.3521 6.93132 19.3213 6.95002 19.2923 6.9732C19.2905 6.97452 19.2887 6.97597 19.2869 6.97742C19.2851 6.97886 19.2833 6.98031 19.2815 6.98163C19.2707 6.99058 19.261 6.99928 19.2512 7.00902C19.2491 7.01113 19.2472 7.01323 19.2453 7.01534C19.2441 7.01666 19.2429 7.01798 19.2416 7.01931C19.2409 7.02009 19.2401 7.02088 19.2394 7.02166C19.2301 7.03115 19.222 7.04116 19.2141 7.0509C19.2122 7.0532 19.2104 7.05537 19.2085 7.0575C19.2068 7.05951 19.2051 7.0615 19.2033 7.06354C19.2029 7.06428 19.2024 7.06497 19.202 7.06561C19.2014 7.06656 19.2007 7.06739 19.2001 7.06802C19.1931 7.07784 19.187 7.08765 19.1807 7.09757C19.1783 7.10149 19.1758 7.10542 19.1732 7.10937L19.1717 7.11253C19.1635 7.12781 19.1561 7.14361 19.149 7.15942C19.1474 7.16363 19.1459 7.16732 19.1443 7.17153C19.139 7.18576 19.134 7.19972 19.1298 7.21394C19.1294 7.21491 19.1291 7.21578 19.1288 7.21661C19.1281 7.21827 19.1275 7.21973 19.1272 7.22131L17.289 14.1179C17.2886 14.1191 17.2885 14.1207 17.2882 14.1221C17.2881 14.1226 17.288 14.123 17.2879 14.1235C17.2837 14.1401 17.2803 14.1574 17.2782 14.1748C17.2782 14.1752 17.2781 14.1755 17.278 14.1759C17.278 14.176 17.2779 14.1762 17.2779 14.1764C17.2778 14.1769 17.2776 14.1775 17.2776 14.178C17.2745 14.1962 17.2734 14.2149 17.2734 14.2338C17.2734 14.237 17.2734 14.2401 17.2736 14.2435C17.2737 14.2451 17.2738 14.2468 17.2739 14.2486C17.2739 14.2573 17.2739 14.2667 17.2745 14.276C17.2747 14.2781 17.2751 14.2802 17.2755 14.2823L17.2755 14.2823C17.2759 14.2844 17.2763 14.2865 17.2766 14.2886C17.2768 14.2914 17.2772 14.2941 17.2776 14.2969L17.2776 14.297C17.278 14.2997 17.2784 14.3025 17.2787 14.3052C17.2808 14.3194 17.2834 14.3329 17.2863 14.346C17.2867 14.3478 17.2871 14.3494 17.2874 14.3509C17.2877 14.3522 17.2879 14.3535 17.2882 14.3547C17.2884 14.3557 17.2887 14.3566 17.289 14.3576C17.2937 14.3755 17.2992 14.3929 17.3058 14.4098L17.306 14.4102L17.3062 14.4108C17.3066 14.4118 17.307 14.4126 17.3074 14.4134L17.3074 14.4134C17.3135 14.4293 17.3208 14.4443 17.329 14.459C17.3311 14.463 17.3332 14.4664 17.335 14.4701C17.3422 14.4838 17.3511 14.4969 17.3603 14.5096C17.3619 14.5117 17.363 14.5143 17.3645 14.5162C17.3759 14.5309 17.3872 14.5444 17.3991 14.5575C17.4001 14.5586 17.4017 14.5599 17.4027 14.5609L19.4229 16.6828C19.425 16.6855 19.4277 16.6876 19.4301 16.6894C19.4324 16.6917 19.4348 16.694 19.4371 16.6963L19.4385 16.6977C19.4427 16.7018 19.4467 16.7058 19.4506 16.7094C19.4527 16.7111 19.4549 16.7128 19.4571 16.7146L19.4577 16.7151C19.4602 16.7171 19.4627 16.7191 19.4651 16.721C19.4722 16.7271 19.4796 16.7331 19.4877 16.7387C19.4904 16.7409 19.4931 16.7427 19.4958 16.7446C19.498 16.7461 19.5001 16.7476 19.5022 16.7492C19.5045 16.7506 19.5067 16.752 19.509 16.7534L19.509 16.7534C19.5148 16.757 19.5206 16.7605 19.5265 16.7639C19.5299 16.7661 19.5334 16.768 19.537 16.7699C19.5391 16.7711 19.5412 16.7722 19.5433 16.7734C19.5447 16.7741 19.546 16.7747 19.5474 16.7754C19.55 16.7767 19.5526 16.7779 19.5552 16.7792C19.5574 16.7803 19.5596 16.7814 19.5617 16.7824C19.5635 16.7833 19.5653 16.7842 19.567 16.785C19.5698 16.7861 19.5725 16.7873 19.5753 16.7886L19.5754 16.7886C19.5791 16.7902 19.583 16.7919 19.587 16.7934C19.5941 16.7966 19.6015 16.799 19.6097 16.8016C19.6168 16.8045 19.6242 16.8071 19.6323 16.809C19.6355 16.8095 19.6379 16.8111 19.641 16.8116C19.6447 16.8127 19.6476 16.8127 19.6508 16.8137C19.6642 16.8171 19.6766 16.8195 19.6898 16.8216C19.6954 16.8221 19.7007 16.8231 19.7063 16.824L19.7077 16.8243C19.7232 16.8258 19.7395 16.8269 19.7551 16.8274C19.7577 16.8274 19.7598 16.828 19.7617 16.828C19.7827 16.828 19.8033 16.8258 19.8244 16.8232C19.8265 16.8227 19.828 16.8227 19.8299 16.8222C19.8504 16.819 19.8704 16.8148 19.8902 16.809C19.8918 16.8085 19.8934 16.8085 19.8944 16.8085L22.7027 15.9732C22.7055 15.9726 22.7081 15.9716 22.7107 15.9706C22.7121 15.97 22.7135 15.9694 22.715 15.9689C22.7153 15.9688 22.7157 15.9686 22.7161 15.9685C22.7228 15.9662 22.7293 15.9639 22.7358 15.9615C22.7399 15.96 22.7439 15.9585 22.748 15.9569C22.7496 15.9562 22.7512 15.9555 22.7528 15.9548C22.7584 15.9523 22.7642 15.9498 22.7701 15.9469C22.7804 15.9422 22.7907 15.9364 22.8004 15.9311C22.807 15.9269 22.8138 15.9232 22.8209 15.919C22.8302 15.9129 22.8399 15.9058 22.8491 15.899C22.8512 15.8973 22.8534 15.8957 22.8556 15.894C22.8572 15.8928 22.8589 15.8915 22.8606 15.8902C22.863 15.8883 22.8655 15.8864 22.8681 15.8842C22.8763 15.8776 22.8847 15.8695 22.8928 15.8616C22.8989 15.856 22.9052 15.85 22.9108 15.8439C22.9143 15.8403 22.9178 15.8363 22.9211 15.8323C22.9245 15.8283 22.9277 15.8242 22.9308 15.8202C22.9368 15.8131 22.9432 15.8049 22.9487 15.7976C22.9492 15.7967 22.9498 15.796 22.9504 15.7952C22.9508 15.7947 22.9512 15.7943 22.9516 15.7938C22.9528 15.7923 22.954 15.7909 22.9547 15.7894C22.96 15.782 22.965 15.7733 22.9692 15.7662C22.9704 15.764 22.9716 15.7621 22.9728 15.7603C22.9743 15.758 22.9757 15.7557 22.9769 15.7531C22.9861 15.7365 22.9943 15.7199 23.0016 15.7033C23.0016 15.7022 23.0022 15.7012 23.0027 15.7006C23.0087 15.6838 23.0151 15.6669 23.0195 15.6503C23.0201 15.6485 23.0206 15.6469 23.0211 15.6454L23.0211 15.6453L24.8593 8.74819C24.8594 8.74773 24.8595 8.74724 24.8596 8.74673L24.8598 8.74566C24.86 8.74406 24.8602 8.74233 24.8609 8.74081C24.8641 8.72659 24.867 8.7121 24.8696 8.69735C24.8697 8.69622 24.8699 8.69509 24.8701 8.69396C24.8703 8.69275 24.8705 8.69155 24.8707 8.69036L24.8707 8.69029C24.8711 8.68821 24.8715 8.68617 24.8717 8.68418C24.8738 8.66733 24.8749 8.64942 24.8754 8.6323V8.62887C24.877 8.61281 24.8759 8.59647 24.8743 8.58015ZM22.2886 14.7651L20.9214 13.8279L22.119 9.33529L23.7821 9.16303L22.2886 14.7651ZM18.7581 14.6265L19.7619 14.5459L19.5254 15.432L18.7581 14.6265ZM19.857 8.11684L21.2151 9.09428L20.0174 13.5877L18.3646 13.7189L19.857 8.11684ZM23.4133 8.26091L22.3766 8.36785L22.6255 7.43361L23.4133 8.26091ZM21.4724 8.12685L20.6266 7.51815L21.7218 7.1926L21.4724 8.12685ZM20.6656 14.7872L21.4964 15.3559L20.4294 15.673L20.6656 14.7872Z" fill="black"/>
<path fill-rule="evenodd" clip-rule="evenodd" d="M0.0158037 8.74078C0.0121159 8.72656 0.00921853 8.71207 0.00658459 8.69732C0.0062335 8.69434 0.005648 8.69135 0.0050625 8.68837C0.00477002 8.68687 0.00447754 8.68538 0.00421409 8.68389C0.00210705 8.66703 0.000526896 8.64912 0.000526896 8.632C0.000526896 8.6311 0.000278502 8.63032 0.000122584 8.62958C5.16143e-05 8.62924 0 8.62891 0 8.62858C0 8.61225 0.00105379 8.59618 0.00263394 8.57959C0.00288933 8.5787 0.00302105 8.57774 0.00314847 8.57681C0.0032845 8.57583 0.00341622 8.57487 0.00368774 8.57406C0.00392161 8.57172 0.00426033 8.56948 0.00461034 8.56725C0.00504745 8.56447 0.0055023 8.56171 0.00579478 8.55878C0.00630179 8.55619 0.00679911 8.55362 0.00729429 8.55105C0.00937069 8.5403 0.0114078 8.52974 0.0139595 8.51954C0.0150133 8.514 0.0160671 8.509 0.0176473 8.50347C0.0213345 8.49004 0.0258125 8.47634 0.0305535 8.46317C0.0326606 8.45948 0.0337138 8.4558 0.0352945 8.45211C0.049254 8.41734 0.0671647 8.38494 0.0887626 8.35544C0.0903616 8.35225 0.0925552 8.34964 0.0948273 8.34695L0.0958741 8.3457C0.104566 8.33411 0.114311 8.32252 0.124057 8.31146C0.124696 8.31071 0.125336 8.30992 0.126011 8.30909C0.127003 8.30786 0.12807 8.30655 0.129325 8.30514L2.15006 6.18379C2.15108 6.18243 2.1521 6.18151 2.15326 6.18046C2.1539 6.17988 2.15458 6.17927 2.15532 6.17852C2.16823 6.16535 2.1814 6.15324 2.19588 6.14112C2.19641 6.14086 2.19694 6.14046 2.19747 6.14007C2.19799 6.13967 2.19852 6.13928 2.19905 6.13901C2.21459 6.1269 2.23065 6.11531 2.24804 6.1053C2.24975 6.1043 2.25155 6.10338 2.25342 6.10236C2.25499 6.10151 2.25662 6.10059 2.25831 6.09951C2.27174 6.09187 2.28544 6.08476 2.30045 6.0787C2.30347 6.07737 2.30663 6.07578 2.30993 6.0744C2.31123 6.07386 2.31254 6.07335 2.31388 6.0729C2.33127 6.06579 2.34944 6.05947 2.36841 6.0542C2.38684 6.0492 2.40607 6.04577 2.42503 6.04314C2.42837 6.04281 2.43139 6.04247 2.4345 6.04214C2.43629 6.04194 2.43812 6.04175 2.44005 6.04156C2.45559 6.03998 2.47086 6.03893 2.48588 6.03893H2.49931C2.51906 6.03893 2.53803 6.04051 2.55752 6.04367C2.5591 6.04367 2.56068 6.04419 2.56226 6.04419C2.58017 6.04735 2.59835 6.05157 2.61573 6.05631C2.61757 6.05684 2.62021 6.05684 2.62231 6.05789L5.43005 6.89336C5.43167 6.8939 5.43308 6.89444 5.43449 6.89498C5.43584 6.89549 5.4372 6.89601 5.43875 6.89652C5.45244 6.90074 5.46535 6.90601 5.47878 6.91127C5.48187 6.91282 5.48481 6.91408 5.48782 6.91537C5.48892 6.91584 5.49003 6.91631 5.49116 6.91681C5.52435 6.93208 5.55595 6.95078 5.58466 6.97396C5.58729 6.97565 5.58951 6.9776 5.59171 6.97953C5.59261 6.98032 5.5935 6.9811 5.59441 6.98186C5.60521 6.99082 5.61548 7.00004 5.62575 7.01005C5.6276 7.01189 5.62951 7.01387 5.63142 7.01584C5.63333 7.01782 5.63524 7.01979 5.63708 7.02163C5.6463 7.03164 5.65473 7.04165 5.66289 7.05192C5.66605 7.0564 5.66948 7.05983 5.67316 7.06404C5.67422 7.06588 5.67527 7.06747 5.67632 7.06852C5.68633 7.08222 5.69503 7.09565 5.70319 7.10987C5.70372 7.11092 5.70424 7.11198 5.70477 7.11251C5.71294 7.12831 5.72084 7.14411 5.72742 7.15991C5.72953 7.16413 5.73058 7.16782 5.73216 7.17203C5.73723 7.18447 5.74129 7.1967 5.7454 7.20909L5.74718 7.21444C5.7477 7.21707 5.74876 7.21918 5.74928 7.22181L7.58748 14.1184C7.58801 14.12 7.58801 14.1224 7.58854 14.124C7.59275 14.1405 7.59618 14.1579 7.59881 14.1758C7.59881 14.1769 7.59881 14.1774 7.59934 14.1785C7.60197 14.1966 7.60302 14.2154 7.60355 14.2343C7.60355 14.2367 7.60342 14.2389 7.60329 14.2412C7.60316 14.2436 7.60302 14.246 7.60302 14.2485C7.60281 14.2522 7.60277 14.2559 7.60273 14.2595C7.60267 14.265 7.6026 14.2705 7.60197 14.2762C7.60197 14.2775 7.60183 14.2787 7.60161 14.28C7.60111 14.2829 7.60023 14.2859 7.59986 14.2888C7.59955 14.2922 7.59923 14.2955 7.59879 14.2989C7.59851 14.3011 7.59817 14.3032 7.59776 14.3054C7.59565 14.3194 7.59328 14.3331 7.59012 14.3468C7.58963 14.3486 7.58925 14.3504 7.58888 14.3521C7.58846 14.354 7.58805 14.3559 7.58748 14.3578C7.58301 14.3758 7.57774 14.3931 7.57063 14.4105C7.57036 14.411 7.5701 14.4114 7.56984 14.4118C7.56957 14.4122 7.56931 14.4126 7.56905 14.4132C7.56299 14.429 7.55561 14.4445 7.54745 14.4592C7.54613 14.4632 7.54403 14.4666 7.54192 14.4703C7.53402 14.4837 7.52532 14.4969 7.51663 14.5098C7.51569 14.5109 7.51474 14.5123 7.51379 14.5137C7.51316 14.5146 7.51252 14.5156 7.51189 14.5164C7.50057 14.5309 7.48924 14.5446 7.47739 14.5578C7.47647 14.5584 7.47573 14.5591 7.47507 14.5598C7.47459 14.5602 7.47414 14.5607 7.4737 14.5612L5.45402 16.6831C5.45282 16.6843 5.45154 16.6854 5.45024 16.6866C5.44897 16.6878 5.44768 16.689 5.44638 16.6904C5.4398 16.6965 5.43295 16.7036 5.42584 16.7097C5.42222 16.7125 5.41875 16.7156 5.41521 16.7188C5.41411 16.7198 5.413 16.7208 5.41188 16.7218C5.40477 16.7273 5.39687 16.7334 5.3887 16.7389C5.38396 16.7428 5.37896 16.7457 5.37422 16.7494C5.3691 16.7526 5.36409 16.7557 5.35918 16.7588C5.35625 16.7606 5.35336 16.7624 5.35051 16.7642C5.34755 16.7658 5.34466 16.7674 5.34183 16.7689C5.33886 16.7705 5.33596 16.772 5.33313 16.7737C5.32601 16.7773 5.31759 16.7816 5.30942 16.7853C5.30336 16.7879 5.29652 16.791 5.28993 16.7937C5.28386 16.7961 5.27722 16.7984 5.27066 16.8007L5.26728 16.8018C5.25964 16.8045 5.25227 16.8071 5.2441 16.8092C5.24094 16.8097 5.23857 16.8113 5.23541 16.8119C5.23225 16.8129 5.22882 16.8129 5.22566 16.814C5.21302 16.8171 5.20011 16.8198 5.18668 16.8219C5.18115 16.8224 5.17483 16.8234 5.16877 16.8245C5.15323 16.8261 5.1369 16.8271 5.12136 16.8277C5.12014 16.8277 5.11899 16.8278 5.11787 16.8279C5.11682 16.8281 5.1158 16.8282 5.11478 16.8282C5.09371 16.8282 5.07316 16.8261 5.05262 16.8234C5.05167 16.8232 5.05064 16.823 5.04959 16.8229C5.0486 16.8228 5.04758 16.8226 5.04656 16.8224C5.02628 16.8192 5.00626 16.8147 4.98624 16.8092C4.98562 16.8089 4.98482 16.8088 4.98395 16.8087C4.98333 16.8087 4.98268 16.8087 4.98203 16.8087L2.17376 15.9735C2.17154 15.9729 2.1694 15.9721 2.1671 15.9712C2.16503 15.9704 2.16283 15.9695 2.16033 15.9687C2.15765 15.9678 2.15494 15.9668 2.15221 15.9659C2.14443 15.9631 2.13645 15.9603 2.12846 15.9572C2.12135 15.954 2.11397 15.9508 2.10633 15.9471C2.09606 15.9424 2.08579 15.9363 2.07604 15.9308C2.07436 15.9299 2.07262 15.9289 2.07086 15.928C2.06576 15.9252 2.06053 15.9224 2.05602 15.9192C2.04628 15.9132 2.03653 15.9061 2.02732 15.8992C2.02568 15.8979 2.02403 15.8967 2.02237 15.8954C2.01787 15.892 2.0133 15.8885 2.00888 15.8845C2.00281 15.8799 1.99713 15.8745 1.9913 15.869C1.98878 15.8666 1.98622 15.8642 1.98359 15.8618C1.9801 15.8586 1.9767 15.8553 1.97339 15.8518C1.97095 15.8493 1.96855 15.8467 1.96621 15.8442C1.96041 15.8386 1.95537 15.8324 1.9504 15.8262C1.94882 15.8243 1.94725 15.8224 1.94566 15.8204C1.93961 15.8133 1.93328 15.8052 1.92775 15.7978C1.92735 15.7972 1.92694 15.7965 1.92651 15.7959C1.92499 15.7937 1.92334 15.7917 1.9217 15.7896C1.91899 15.7856 1.9165 15.7815 1.91406 15.7774C1.91176 15.7736 1.90952 15.7699 1.90721 15.7665C1.90608 15.7641 1.90489 15.762 1.90367 15.7601C1.90233 15.7579 1.90095 15.7558 1.89957 15.7533C1.89035 15.737 1.88192 15.7201 1.87534 15.7035C1.87481 15.7025 1.87429 15.7014 1.87376 15.7001C1.86744 15.6838 1.86138 15.6672 1.85716 15.6508C1.85664 15.6485 1.85558 15.6469 1.85506 15.6453L0.0168569 8.74816C0.0165757 8.74717 0.0164445 8.74589 0.0163031 8.7445C0.01618 8.74329 0.0160488 8.74201 0.0158037 8.74078ZM2.50142 8.36782L2.25251 7.43358L1.46471 8.26089L2.50142 8.36782ZM4.86087 13.5874L6.51312 13.7186L5.02075 8.11655L3.66323 9.09399L4.86087 13.5874ZM5.11609 14.5459L5.35262 15.432L6.1204 14.6265L5.11609 14.5459ZM3.38114 15.3558L4.44866 15.673L4.21187 14.7872L3.38114 15.3558ZM3.15647 7.19258L3.40537 8.12682L4.25112 7.51813L3.15647 7.19258ZM3.95691 13.8282L2.75928 9.33552L1.0957 9.16326L2.5886 14.7653L3.95691 13.8282Z" fill="black"/>
</svg>
