<svg width="153" height="38" viewBox="0 0 153 38" fill="none" xmlns="http://www.w3.org/2000/svg">
<g clip-path="url(#clip0_404_823)">
<path d="M98.0402 38H91.5602C90.3602 38 89.3402 37.0471 89.3402 35.7963V18.8809L78.0002 25.9091C77.0402 26.5047 75.8402 26.5047 74.8802 25.9091L63.6002 18.8809V35.7963C63.6002 36.9875 62.6402 38 61.3802 38H54.9602C53.7602 38 52.7402 37.0471 52.7402 35.7963V3.15678C52.7402 1.54863 54.0602 0.238281 55.6802 0.238281C56.2802 0.238281 56.8202 0.416965 57.3002 0.774331L75.1802 12.9844C75.9002 13.5204 76.9202 13.5204 77.6402 12.9844L95.5202 0.774331C96.8402 -0.119086 98.7002 0.238281 99.6002 1.54863C99.9602 2.02511 100.08 2.62073 100.14 3.15678V35.7963C100.2 36.9875 99.2402 38 98.0402 38Z" fill="white"/>
<path d="M43.0795 37.9404H2.87945C1.25945 37.9404 -0.0605469 36.6301 -0.0605469 35.0219V2.20376C-0.000546872 0.952978 0.959453 0 2.21945 0H8.69945C9.89945 0 10.9195 0.952978 10.9195 2.20376V27.1599H35.2795V2.20376C35.2795 1.01254 36.2395 0 37.4995 0H43.7995C44.9995 0 46.0195 0.952978 46.0195 2.20376V35.0219C46.0195 36.6301 44.6995 37.9404 43.0795 37.9404Z" fill="white"/>
<path d="M109.919 0H150.119C151.739 0 153.059 1.31034 153.059 2.9185V35.7367C153.059 36.9279 152.099 37.9404 150.899 37.9404H144.419C143.219 37.9404 142.199 36.9875 142.199 35.7367V12.21C142.199 11.4357 141.539 10.7806 140.759 10.7806H119.339C118.559 10.7806 117.899 11.4357 117.899 12.21V35.7367C117.899 36.9279 116.939 37.9404 115.679 37.9404H109.199C107.999 37.9404 106.979 36.9875 106.979 35.7367V2.9185C106.979 1.31034 108.299 0 109.919 0Z" fill="white"/>
<path d="M126.779 17.6895H133.199C134.399 17.6895 135.419 18.6424 135.419 19.8932V26.3854C135.419 27.5766 134.459 28.5891 133.199 28.5891H126.779C125.579 28.5891 124.559 27.6362 124.559 26.3854V19.8337C124.559 18.6424 125.579 17.6895 126.779 17.6895Z" fill="white"/>
</g>
<defs>
<clipPath id="clip0_404_823">
<rect width="153" height="38" fill="white"/>
</clipPath>
</defs>
</svg>
