<svg width="2000" height="2000" viewBox="0 0 2000 2000" fill="none" xmlns="http://www.w3.org/2000/svg">
<mask id="mask0" mask-type="alpha" maskUnits="userSpaceOnUse" x="0" y="0" width="2000" height="2000">
<circle cx="1000" cy="1000" r="1000" fill="black"/>
</mask>
<g mask="url(#mask0)">
<path d="M691.102 3217.2L1726.8 3494.5L2343.3 1182.3L846.002 2398.2L691.102 3217.2Z" fill="#6AEDCB"/>
<path d="M982.099 2378.6C1178.3 2169.6 1416.2 2237.4 1615.7 2167.2C1742.8 2122.5 1847.7 2029.1 1921.1 1916.2C2036.9 1738.1 2061.4 1500.5 2219.5 1358.6C2250.4 1330.8 2286.2 1307.2 2309 1272.5C2326.7 1245.6 2335.4 1213.8 2343.7 1182.7L2685.6 -88.2002C2415.9 -29.0002 2211.2 184.3 2025.3 388.4C1237.9 1252.6 471.699 2140.1 -394.801 2925.1L691.599 3217.4C771.799 3238.9 827.799 2841.1 832.799 2806.8C855.399 2649.6 882.999 2506.7 982.099 2378.6Z" fill="#30C7FF"/>
<path d="M-356.3 2936.6C-356.3 2936.6 -173.5 2814.3 -29.5 2777.9C114.5 2741.5 343.6 2648.8 477.8 2511C612 2373.2 678.9 2241.1 730.5 2033.8C782.1 1826.5 948.9 1646.1 1161 1576.5C1373.1 1507 1807.2 1493 1918 1123.8C2028.8 754.6 2060 218.1 2676.2 -59.0999L3081.5 -1561.6L2881 -1615.3L-948 2551.4L-1093 2738.8L-356.3 2936.6Z" fill="#6C5DFE"/>
<path d="M-672.802 2851.8C-672.802 2851.8 -529.502 2728.8 -431.502 2429.3C-376.302 2260.8 -304.502 2097 -189.802 1959.9C-15.3015 1751.5 232.898 1636.7 494.498 1582C530.598 1574.4 566.598 1569.2 601.698 1557.6C667.898 1535.6 730.698 1504.3 788.198 1464.8C955.298 1349.7 1053.3 1139 1140.9 878.1C1228.5 617.2 1435.4 287.7 1640.8 117.7C1846.3 -52.3002 2017.6 -160.4 2328.9 -349.5C2640.2 -538.6 2990.5 -784.3 3030.5 -1575.2L2312 -1767.7L-599.602 897.5L-1093.1 2739.1L-672.802 2851.8Z" fill="#A20ED3"/>
<path d="M-686.801 1223.1C-686.801 1223.1 -490.801 955.8 -82.7008 869.7C325.399 783.6 506.799 968.4 814.099 440.7C1121.4 -87.0001 1085.6 -286.1 1387.2 -548.8C1688.8 -811.5 1917.9 -915.9 2206.3 -1063.7C2494.7 -1211.5 2643.4 -1280.2 2743.1 -1652.3L1803.6 -1904L-469.301 410.8L-686.801 1223.1Z" fill="#D60A99"/>
<path d="M2047.2 -1838.6C1864.9 -1755.2 1650.5 -1662.6 1542.3 -1454.7C1434.1 -1246.8 1312 -1018.9 1150.8 -837C989.602 -655.1 841.002 -653.6 658.202 -524.8C475.502 -396 347.402 -116.5 272.002 76.5002C196.602 269.5 88.2016 364.9 -77.7984 498.2C-243.798 631.5 -535.898 659.8 -535.898 659.8L-285.598 -274.3L58.0016 -981.8L1207 -2063.8L2047.2 -1838.6Z" fill="#F005C4"/>
<path d="M-378.199 71C-376.499 64.6 -349.699 51.2 -344.399 47.2C-313.299 24.2 -283.899 -0.900146 -256.299 -27.9001C-145.199 -137.1 -123.499 -264.1 -95.7992 -410.5C-76.6992 -511.9 -66.7992 -666 6.60077 -746.2C79.2008 -825.5 140.501 -892.2 394.101 -954.4C551.701 -993 713.901 -1051.1 835.801 -1165.4C977.101 -1297.8 1014.1 -1484 1095.5 -1653.3C1161.9 -1791.3 1256.1 -1937.2 1392.6 -2014L261.701 -2317L-378.199 71Z" fill="#FF744B"/>
</g>
<circle cx="1000" cy="1000" r="902" fill="white"/>
<path d="M426.131 970.873C422.096 970.873 418.465 969.463 415.237 966.643C412.412 963.42 411 959.794 411 955.765V563.565C411 559.133 412.412 555.507 415.237 552.687C418.061 549.464 421.692 547.853 426.131 547.853H597.411C649.864 547.853 691.02 559.738 720.878 583.507C750.736 607.277 765.665 642.126 765.665 688.054C765.665 733.982 750.736 768.427 720.878 791.391C691.02 813.952 649.864 825.233 597.411 825.233H528.415V955.765C528.415 959.794 527.002 963.42 524.178 966.643C521.354 969.463 517.722 970.873 513.284 970.873H426.131ZM594.385 738.816C610.928 738.816 623.839 734.586 633.119 726.125C642.803 717.262 647.645 704.37 647.645 687.449C647.645 671.737 643.206 659.047 634.33 649.378C625.857 639.709 612.542 634.874 594.385 634.874H526.599V738.816H594.385Z" fill="black"/>
<path d="M817.898 613.119C813.459 613.119 809.828 611.709 807.004 608.889C804.179 605.666 802.767 601.838 802.767 597.407V541.205C802.767 536.774 804.179 533.148 807.004 530.328C810.231 527.105 813.863 525.493 817.898 525.493H893.551C897.99 525.493 901.621 527.105 904.446 530.328C907.673 533.148 909.287 536.774 909.287 541.205V597.407C909.287 601.838 907.673 605.666 904.446 608.889C901.621 611.709 897.99 613.119 893.551 613.119H817.898ZM817.898 970.873C813.863 970.873 810.231 969.463 807.004 966.643C804.179 963.42 802.767 959.794 802.767 955.765V671.737C802.767 667.306 804.179 663.68 807.004 660.86C810.231 658.039 813.863 656.629 817.898 656.629H893.551C897.99 656.629 901.621 658.039 904.446 660.86C907.673 663.68 909.287 667.306 909.287 671.737V955.765C909.287 960.197 907.673 963.822 904.446 966.643C901.621 969.463 897.99 970.873 893.551 970.873H817.898Z" fill="black"/>
<path d="M1113.63 976.916C1064.41 976.916 1025.67 963.822 997.428 937.635C969.183 911.046 954.658 872.571 953.851 822.211V803.478C955.465 755.535 970.394 718.068 998.638 691.075C1026.88 664.083 1065.01 650.586 1113.03 650.586C1147.73 650.586 1176.98 657.637 1200.78 671.737C1224.99 685.435 1242.95 704.572 1254.65 729.147C1266.75 753.32 1272.81 780.917 1272.81 811.938V827.046C1272.81 831.478 1271.19 835.305 1267.97 838.528C1265.14 841.348 1261.51 842.758 1257.07 842.758H1065.21V846.384C1065.62 864.513 1069.85 879.218 1077.92 890.499C1085.99 901.377 1097.49 906.815 1112.42 906.815C1122.1 906.815 1129.77 905.003 1135.42 901.377C1141.47 897.348 1147.12 892.312 1152.37 886.269C1156 882.24 1158.82 879.823 1160.84 879.017C1163.26 877.808 1166.89 877.204 1171.73 877.204H1251.02C1254.65 877.204 1257.68 878.413 1260.1 880.83C1262.92 882.844 1264.33 885.463 1264.33 888.686C1264.33 899.161 1258.28 911.449 1246.18 925.549C1234.48 939.65 1217.13 951.736 1194.13 961.808C1171.53 971.88 1144.7 976.916 1113.63 976.916ZM1161.44 781.118V779.909C1161.44 760.571 1157.21 745.665 1148.74 735.19C1140.26 724.313 1128.36 718.874 1113.03 718.874C1097.69 718.874 1085.79 724.313 1077.32 735.19C1069.25 745.665 1065.21 760.571 1065.21 779.909V781.118H1161.44Z" fill="black"/>
<path d="M426.128 1468.46C422.094 1468.46 418.463 1467.05 415.236 1464.23C412.412 1461.01 411 1457.38 411 1453.35V1061.09C411 1056.65 412.412 1053.03 415.236 1050.21C418.06 1046.98 421.691 1045.37 426.128 1045.37H585.277C644.983 1045.37 691.376 1059.68 724.456 1088.29C757.536 1116.49 774.883 1157.19 776.497 1210.38C776.9 1222.06 777.102 1237.58 777.102 1256.92C777.102 1276.26 776.9 1291.57 776.497 1302.85C772.463 1413.26 709.731 1468.46 588.302 1468.46H426.128ZM585.277 1377.8C610.692 1377.8 629.451 1371.76 646.683 1359.67C658.786 1347.58 660.111 1328.24 660.918 1301.64C661.724 1289.96 662.128 1274.85 662.128 1256.31C662.128 1237.78 661.724 1222.87 660.918 1211.59C660.111 1185.8 653.051 1166.86 639.738 1154.77C626.829 1142.28 607.666 1136.03 582.251 1136.03H524.764V1377.8H585.277Z" fill="black"/>
<path d="M793.311 1468.46C790.084 1468.46 787.058 1467.25 784.234 1464.84C781.813 1462.02 780.603 1458.99 780.603 1455.77C780.603 1453.35 780.805 1451.54 781.208 1450.33L922.203 1062.9C926.237 1051.21 934.306 1045.37 946.408 1045.37H1040.81C1052.91 1045.37 1060.98 1051.21 1065.01 1062.9L1206.01 1450.33C1206.41 1451.54 1206.61 1453.35 1206.61 1455.77C1206.61 1458.99 1205.2 1462.02 1202.38 1464.84C1199.96 1467.25 1197.13 1468.46 1193.91 1468.46H1115.24C1105.56 1468.46 1098.7 1464.03 1094.66 1455.17L1072.88 1396.54H914.336L892.552 1455.17C888.518 1464.03 881.659 1468.46 871.977 1468.46H793.311ZM939.752 1305.87H1047.46L993.608 1151.75L939.752 1305.87Z" fill="black"/>
<path d="M1401.2 1474.51C1343.92 1474.51 1298.73 1460.6 1265.65 1432.8C1232.57 1405 1215.02 1364.1 1213.01 1310.11C1212.6 1298.82 1212.4 1281.5 1212.4 1258.13C1212.4 1234.76 1212.6 1217.23 1213.01 1205.54C1214.62 1152.35 1232.17 1111.45 1265.65 1082.85C1299.54 1053.83 1344.72 1039.33 1401.2 1039.33C1457.28 1039.33 1502.05 1053.83 1535.54 1082.85C1569.43 1111.45 1587.18 1152.35 1588.79 1205.54C1589.6 1228.91 1590 1246.44 1590 1258.13C1590 1270.21 1589.6 1287.54 1588.79 1310.11C1586.77 1364.1 1569.22 1405 1536.14 1432.8C1503.47 1460.6 1458.49 1474.51 1401.2 1474.51ZM1401.2 1383.84C1422.18 1383.84 1438.92 1377.6 1451.43 1365.11C1463.93 1352.21 1470.59 1332.67 1471.4 1306.48C1472.2 1283.11 1472.61 1266.39 1472.61 1256.31C1472.61 1246.24 1472.2 1229.92 1471.4 1207.36C1470.59 1181.16 1463.93 1161.82 1451.43 1149.33C1438.92 1136.44 1422.18 1129.99 1401.2 1129.99C1379.82 1129.99 1362.88 1136.44 1350.37 1149.33C1337.86 1161.82 1331.21 1181.16 1330.4 1207.36C1330 1218.64 1329.8 1234.96 1329.8 1256.31C1329.8 1278.07 1330 1294.79 1330.4 1306.48C1331.21 1332.67 1337.86 1352.21 1350.37 1365.11C1362.88 1377.6 1379.82 1383.84 1401.2 1383.84Z" fill="black"/>
<mask id="mask1" mask-type="alpha" maskUnits="userSpaceOnUse" x="1125" y="312" width="566" height="566">
<circle cx="1408" cy="595" r="283" fill="black"/>
</mask>
<g mask="url(#mask1)">
<path d="M1190.4 1338.5L1483.5 1416.97L1657.97 762.622L1234.24 1106.72L1190.4 1338.5Z" fill="#6AEDCB"/>
<path d="M1272.75 1101.17C1328.28 1042.03 1395.6 1061.21 1452.06 1041.35C1488.03 1028.7 1517.72 1002.27 1538.49 970.314C1571.26 919.912 1578.2 852.671 1622.94 812.514C1631.68 804.646 1641.81 797.968 1648.27 788.147C1653.28 780.535 1655.74 771.535 1658.09 762.734L1754.84 403.069C1678.52 419.823 1620.59 480.187 1567.98 537.947C1345.15 782.516 1128.31 1033.68 883.091 1255.83L1190.54 1338.55C1213.24 1344.64 1229.09 1232.06 1230.5 1222.35C1236.9 1177.87 1244.71 1137.43 1272.75 1101.17Z" fill="#30C7FF"/>
<path d="M893.987 1259.09C893.987 1259.09 945.719 1224.48 986.471 1214.18C1027.22 1203.88 1092.06 1177.64 1130.04 1138.64C1168.02 1099.65 1186.95 1062.26 1201.55 1003.6C1216.15 944.931 1263.36 893.878 1323.38 874.181C1383.41 854.512 1506.26 850.55 1537.61 746.067C1568.97 641.583 1577.8 489.754 1752.18 411.306L1866.88 -13.9015L1810.14 -29.0986L726.536 1150.08L685.501 1203.11L893.987 1259.09Z" fill="#6C5DFE"/>
<path d="M804.417 1235.09C804.417 1235.09 844.971 1200.28 872.705 1115.52C888.327 1067.84 908.646 1021.48 941.106 982.682C990.49 923.705 1060.73 891.217 1134.76 875.737C1144.98 873.586 1155.17 872.114 1165.1 868.831C1183.84 862.605 1201.61 853.748 1217.88 842.569C1265.17 809.996 1292.9 750.368 1317.69 676.533C1342.49 602.698 1401.04 509.45 1459.17 461.34C1517.32 413.23 1565.8 382.637 1653.9 329.122C1742 275.607 1841.13 206.074 1852.45 -17.751L1649.12 -72.2285L825.133 682.023L685.472 1203.2L804.417 1235.09Z" fill="#A20ED3"/>
<path d="M800.455 774.168C800.455 774.168 855.923 698.522 971.416 674.155C1086.91 649.789 1138.24 702.087 1225.21 552.748C1312.18 403.409 1302.04 347.064 1387.4 272.72C1472.75 198.376 1537.59 168.831 1619.2 127.003C1700.82 85.1758 1742.9 65.7337 1771.12 -39.5707L1505.24 -110.802L862.008 544.287L800.455 774.168Z" fill="#D60A99"/>
<path d="M1574.18 -92.2938C1522.59 -68.6916 1461.91 -42.4858 1431.29 16.3499C1400.67 75.1856 1366.12 139.681 1320.5 191.159C1274.88 242.637 1232.82 243.061 1181.09 279.512C1129.39 315.962 1093.13 395.061 1071.8 449.68C1050.46 504.299 1019.78 531.297 972.803 569.021C925.825 606.744 843.161 614.753 843.161 614.753L913.996 350.403L1011.23 150.181L1336.4 -156.025L1574.18 -92.2938Z" fill="#F005C4"/>
<path d="M887.79 448.123C888.271 446.312 895.855 442.52 897.355 441.388C906.156 434.879 914.476 427.776 922.287 420.135C953.729 389.231 959.87 353.29 967.709 311.859C973.114 283.163 975.916 239.552 996.688 216.856C1017.23 194.414 1034.58 175.538 1106.35 157.935C1150.95 147.011 1196.85 130.569 1231.35 98.2221C1271.34 60.7529 1281.81 8.05833 1304.85 -39.8536C1323.64 -78.9076 1350.3 -120.197 1388.93 -141.932L1068.88 -227.681L887.79 448.123Z" fill="#FF744B"/>
</g>
<path d="M1293.45 697C1290.34 697 1287.9 696.334 1286.13 695.002C1284.57 693.448 1283.24 691.339 1282.13 688.675L1219.19 534.163L1218.53 531.166C1218.53 529.168 1219.19 527.503 1220.53 526.171C1222.08 524.617 1223.97 523.84 1226.19 523.84H1263.82C1268.7 523.84 1271.92 526.171 1273.47 530.833L1311.1 633.064L1349.06 530.833C1350.62 526.171 1353.84 523.84 1358.72 523.84H1396.35C1398.35 523.84 1400.12 524.617 1401.68 526.171C1403.23 527.503 1404.01 529.168 1404.01 531.166L1403.34 534.163L1340.41 688.675C1339.3 691.339 1337.85 693.448 1336.08 695.002C1334.3 696.334 1331.86 697 1328.75 697H1293.45Z" fill="white"/>
<path d="M1496.65 700.33C1470.01 700.33 1449.03 693.115 1433.71 678.685C1418.39 664.255 1410.4 643.276 1409.73 615.748V604.093C1410.62 577.897 1418.73 557.473 1434.04 542.821C1449.58 527.947 1470.34 520.51 1496.31 520.51C1515.18 520.51 1531.06 524.395 1543.93 532.165C1557.03 539.713 1566.8 550.147 1573.24 563.467C1579.9 576.787 1583.23 592.105 1583.23 609.421V617.413C1583.23 619.633 1582.45 621.631 1580.9 623.407C1579.34 624.961 1577.34 625.738 1574.9 625.738H1468.34V628.069C1468.79 638.503 1471.34 646.939 1476 653.377C1480.66 659.815 1487.43 663.034 1496.31 663.034C1501.86 663.034 1506.42 661.924 1509.97 659.704C1513.52 657.262 1516.74 654.376 1519.62 651.046C1521.62 648.604 1523.18 647.161 1524.29 646.717C1525.62 646.051 1527.62 645.718 1530.28 645.718H1571.57C1573.57 645.718 1575.24 646.384 1576.57 647.716C1578.12 648.826 1578.9 650.38 1578.9 652.378C1578.9 658.15 1575.57 664.81 1568.91 672.358C1562.47 679.906 1553.04 686.455 1540.6 692.005C1528.17 697.555 1513.52 700.33 1496.65 700.33ZM1524.62 592.771V592.105C1524.62 581.227 1522.07 572.68 1516.96 566.464C1512.08 560.026 1505.19 556.807 1496.31 556.807C1487.66 556.807 1480.77 560.026 1475.67 566.464C1470.78 572.68 1468.34 581.227 1468.34 592.105V592.771H1524.62Z" fill="white"/>
</svg>
