<svg width="2000" height="2000" viewBox="0 0 2000 2000" fill="none" xmlns="http://www.w3.org/2000/svg">
<mask id="mask0" mask-type="alpha" maskUnits="userSpaceOnUse" x="0" y="0" width="2000" height="2000">
<circle cx="1000" cy="1000" r="1000" fill="black"/>
</mask>
<g mask="url(#mask0)">
<path d="M231.102 3627.2L1266.8 3904.5L1883.3 1592.3L386.002 2808.2L231.102 3627.2Z" fill="#6AEDCB"/>
<path d="M522.099 2788.6C718.299 2579.6 956.199 2647.4 1155.7 2577.2C1282.8 2532.5 1387.7 2439.1 1461.1 2326.2C1576.9 2148.1 1601.4 1910.5 1759.5 1768.6C1790.4 1740.8 1826.2 1717.2 1849 1682.5C1866.7 1655.6 1875.4 1623.8 1883.7 1592.7L2225.6 321.8C1955.9 381 1751.2 594.3 1565.3 798.4C777.899 1662.6 11.6992 2550.1 -854.801 3335.1L231.599 3627.4C311.799 3648.9 367.799 3251.1 372.799 3216.8C395.399 3059.6 422.999 2916.7 522.099 2788.6Z" fill="#30C7FF"/>
<path d="M-816.3 3346.6C-816.3 3346.6 -633.5 3224.3 -489.5 3187.9C-345.5 3151.5 -116.4 3058.8 17.8 2921C152 2783.2 218.9 2651.1 270.5 2443.8C322.1 2236.5 488.9 2056.1 701 1986.5C913.1 1917 1347.2 1903 1458 1533.8C1568.8 1164.6 1600 628.1 2216.2 350.9L2621.5 -1151.6L2421 -1205.3L-1408 2961.4L-1553 3148.8L-816.3 3346.6Z" fill="#6C5DFE"/>
<path d="M-1132.8 3261.8C-1132.8 3261.8 -989.502 3138.8 -891.502 2839.3C-836.302 2670.8 -764.502 2507 -649.802 2369.9C-475.302 2161.5 -227.102 2046.7 34.4984 1992C70.5984 1984.4 106.598 1979.2 141.698 1967.6C207.898 1945.6 270.698 1914.3 328.198 1874.8C495.298 1759.7 593.298 1549 680.898 1288.1C768.498 1027.2 975.399 697.7 1180.8 527.7C1386.3 357.7 1557.6 249.6 1868.9 60.5C2180.2 -128.6 2530.5 -374.3 2570.5 -1165.2L1852 -1357.7L-1059.6 1307.5L-1553.1 3149.1L-1132.8 3261.8Z" fill="#A20ED3"/>
<path d="M-1146.8 1633.1C-1146.8 1633.1 -950.801 1365.8 -542.701 1279.7C-134.601 1193.6 46.7993 1378.4 354.099 850.7C661.399 323 625.599 123.9 927.199 -138.8C1228.8 -401.5 1457.9 -505.9 1746.3 -653.7C2034.7 -801.5 2183.4 -870.2 2283.1 -1242.3L1343.6 -1494L-929.301 820.8L-1146.8 1633.1Z" fill="#D60A99"/>
<path d="M1587.2 -1428.6C1404.9 -1345.2 1190.5 -1252.6 1082.3 -1044.7C974.102 -836.8 852.002 -608.9 690.802 -427C529.602 -245.1 381.002 -243.6 198.202 -114.8C15.5015 14.0002 -112.598 293.5 -187.998 486.5C-263.398 679.5 -371.798 774.9 -537.798 908.2C-703.798 1041.5 -995.898 1069.8 -995.898 1069.8L-745.598 135.7L-401.998 -571.8L747.002 -1653.8L1587.2 -1428.6Z" fill="#F005C4"/>
<path d="M-838.199 481C-836.499 474.6 -809.699 461.2 -804.399 457.2C-773.299 434.2 -743.899 409.1 -716.299 382.1C-605.199 272.9 -583.499 145.9 -555.799 -0.5C-536.699 -101.9 -526.799 -256 -453.399 -336.2C-380.799 -415.5 -319.499 -482.2 -65.8992 -544.4C91.7008 -583 253.901 -641.1 375.801 -755.4C517.101 -887.8 554.101 -1074 635.501 -1243.3C701.901 -1381.3 796.101 -1527.2 932.601 -1604L-198.299 -1907L-838.199 481Z" fill="#FF744B"/>
</g>
<circle cx="1000" cy="1000" r="781" fill="white"/>
<path d="M1225.58 963.586C1278.48 936.659 1311.58 889.237 1303.85 810.235C1293.44 702.27 1200.14 666.066 1082.36 655.756L1082.33 506H991.076L991.051 651.818C967.04 651.818 942.564 652.289 918.198 652.778L918.178 506.02L827.003 506.011L826.986 655.731C807.226 656.134 787.821 656.517 768.874 656.517V656.074L643 656.023L643.017 753.366C643.017 753.366 710.409 752.099 709.299 753.329C746.249 753.355 758.314 774.792 761.783 793.297L761.812 963.901V1203.54C760.185 1215.16 753.339 1233.71 727.503 1233.75C728.678 1234.78 661.119 1233.74 661.119 1233.74L643.017 1342.59H761.755C783.88 1342.61 805.619 1342.96 826.946 1343.13L827.026 1494.58L918.178 1494.6L918.153 1344.74C943.231 1345.25 967.438 1345.47 991.082 1345.44L991.056 1494.6H1082.31L1082.36 1343.4C1235.76 1334.6 1343.14 1295.99 1356.5 1152.07C1367.26 1036.19 1312.67 984.467 1225.58 963.586ZM920.379 759.936C971.847 759.936 1133.71 743.561 1133.74 850.981C1133.71 953.966 971.898 941.935 920.379 941.935V759.936V759.936ZM920.339 1234.49L920.379 1033.81C982.217 1033.8 1176.17 1016.04 1176.2 1134.1C1176.22 1247.33 982.217 1234.44 920.339 1234.49Z" fill="black"/>
<path d="M1505.8 1125C1502.7 1125 1499.91 1123.91 1497.44 1121.72C1495.27 1119.23 1494.18 1116.42 1494.18 1113.3V1028.56H1412.4C1409.3 1028.56 1406.51 1027.47 1404.03 1025.28C1401.87 1022.78 1400.78 1019.98 1400.78 1016.85V980.805C1400.78 977.372 1401.87 974.563 1404.03 972.378C1406.2 969.881 1408.99 968.633 1412.4 968.633H1494.18V886.704C1494.18 883.271 1495.27 880.462 1497.44 878.277C1499.91 876.092 1502.7 875 1505.8 875H1545.76C1549.17 875 1551.96 876.092 1554.13 878.277C1556.61 880.462 1557.84 883.271 1557.84 886.704V968.633H1638.7C1642.11 968.633 1644.9 969.881 1647.06 972.378C1649.54 974.563 1650.78 977.372 1650.78 980.805V1016.85C1650.78 1020.29 1649.54 1023.1 1647.06 1025.28C1644.9 1027.47 1642.11 1028.56 1638.7 1028.56H1557.84V1113.3C1557.84 1116.73 1556.61 1119.54 1554.13 1121.72C1551.96 1123.91 1549.17 1125 1545.76 1125H1505.8Z" fill="black"/>
<path d="M455.019 1125C451.921 1125 449.133 1123.91 446.654 1121.72C444.486 1119.23 443.401 1116.42 443.401 1113.3V1028.56H361.617C358.519 1028.56 355.731 1027.47 353.253 1025.28C351.084 1022.78 350 1019.98 350 1016.85V980.805C350 977.372 351.084 974.563 353.253 972.378C355.421 969.881 358.209 968.633 361.617 968.633H443.401V886.704C443.401 883.271 444.486 880.462 446.654 878.277C449.133 876.092 451.921 875 455.019 875H494.981C498.389 875 501.177 876.092 503.346 878.277C505.824 880.462 507.063 883.271 507.063 886.704V968.633H587.918C591.326 968.633 594.114 969.881 596.283 972.378C598.761 974.563 600 977.372 600 980.805V1016.85C600 1020.29 598.761 1023.1 596.283 1025.28C594.114 1027.47 591.326 1028.56 587.918 1028.56H507.063V1113.3C507.063 1116.73 505.824 1119.54 503.346 1121.72C501.177 1123.91 498.389 1125 494.981 1125H455.019Z" fill="black"/>
</svg>
