<svg width="2000" height="2000" viewBox="0 0 2000 2000" fill="none" xmlns="http://www.w3.org/2000/svg">
<mask id="mask0" mask-type="alpha" maskUnits="userSpaceOnUse" x="0" y="0" width="2000" height="2000">
<circle cx="1000" cy="1000" r="1000" fill="black"/>
</mask>
<g mask="url(#mask0)">
<path d="M691.102 3217.2L1726.8 3494.5L2343.3 1182.3L846.002 2398.2L691.102 3217.2Z" fill="#6AEDCB"/>
<path d="M982.099 2378.6C1178.3 2169.6 1416.2 2237.4 1615.7 2167.2C1742.8 2122.5 1847.7 2029.1 1921.1 1916.2C2036.9 1738.1 2061.4 1500.5 2219.5 1358.6C2250.4 1330.8 2286.2 1307.2 2309 1272.5C2326.7 1245.6 2335.4 1213.8 2343.7 1182.7L2685.6 -88.2002C2415.9 -29.0002 2211.2 184.3 2025.3 388.4C1237.9 1252.6 471.699 2140.1 -394.801 2925.1L691.599 3217.4C771.799 3238.9 827.799 2841.1 832.799 2806.8C855.399 2649.6 882.999 2506.7 982.099 2378.6Z" fill="#30C7FF"/>
<path d="M-356.3 2936.6C-356.3 2936.6 -173.5 2814.3 -29.5 2777.9C114.5 2741.5 343.6 2648.8 477.8 2511C612 2373.2 678.9 2241.1 730.5 2033.8C782.1 1826.5 948.9 1646.1 1161 1576.5C1373.1 1507 1807.2 1493 1918 1123.8C2028.8 754.6 2060 218.1 2676.2 -59.0999L3081.5 -1561.6L2881 -1615.3L-948 2551.4L-1093 2738.8L-356.3 2936.6Z" fill="#6C5DFE"/>
<path d="M-672.802 2851.8C-672.802 2851.8 -529.502 2728.8 -431.502 2429.3C-376.302 2260.8 -304.502 2097 -189.802 1959.9C-15.3015 1751.5 232.898 1636.7 494.498 1582C530.598 1574.4 566.598 1569.2 601.698 1557.6C667.898 1535.6 730.698 1504.3 788.198 1464.8C955.298 1349.7 1053.3 1139 1140.9 878.1C1228.5 617.2 1435.4 287.7 1640.8 117.7C1846.3 -52.2999 2017.6 -160.4 2328.9 -349.5C2640.2 -538.6 2990.5 -784.3 3030.5 -1575.2L2312 -1767.7L-599.602 897.5L-1093.1 2739.1L-672.802 2851.8Z" fill="#A20ED3"/>
<path d="M-686.801 1223.1C-686.801 1223.1 -490.801 955.8 -82.7008 869.7C325.399 783.6 506.799 968.4 814.099 440.7C1121.4 -87.0001 1085.6 -286.1 1387.2 -548.8C1688.8 -811.5 1917.9 -915.9 2206.3 -1063.7C2494.7 -1211.5 2643.4 -1280.2 2743.1 -1652.3L1803.6 -1904L-469.301 410.8L-686.801 1223.1Z" fill="#D60A99"/>
<path d="M2047.2 -1838.6C1864.9 -1755.2 1650.5 -1662.6 1542.3 -1454.7C1434.1 -1246.8 1312 -1018.9 1150.8 -837C989.602 -655.1 841.002 -653.6 658.202 -524.8C475.502 -396 347.402 -116.5 272.002 76.5002C196.602 269.5 88.2016 364.9 -77.7984 498.2C-243.798 631.5 -535.898 659.8 -535.898 659.8L-285.598 -274.3L58.0016 -981.8L1207 -2063.8L2047.2 -1838.6Z" fill="#F005C4"/>
<path d="M-378.199 71C-376.499 64.6 -349.699 51.2 -344.399 47.2C-313.299 24.2 -283.899 -0.900146 -256.299 -27.9001C-145.199 -137.1 -123.499 -264.1 -95.7992 -410.5C-76.6992 -511.9 -66.7992 -666 6.60077 -746.2C79.2008 -825.5 140.501 -892.2 394.101 -954.4C551.701 -993 713.901 -1051.1 835.801 -1165.4C977.101 -1297.8 1014.1 -1484 1095.5 -1653.3C1161.9 -1791.3 1256.1 -1937.2 1392.6 -2014L261.701 -2317L-378.199 71Z" fill="#FF744B"/>
</g>
<circle cx="1000" cy="1000" r="902" fill="white"/>
<mask id="mask1" mask-type="alpha" maskUnits="userSpaceOnUse" x="292" y="240" width="1415" height="1520">
<path fill-rule="evenodd" clip-rule="evenodd" d="M1705.06 1202.01C1703.95 1195.05 1699.94 1191.04 1694.74 1187.17C1628.77 1138.15 1562.82 1089.08 1496.99 1039.84C1491.09 1035.44 1484.87 1032.16 1478.08 1029.5C1284.98 954.059 1091.86 878.638 898.865 802.927C781.27 756.794 664.239 709.124 541.541 677.499C536.335 676.167 531.403 674.717 525.976 675.16C470.489 679.564 414.986 683.848 359.517 688.319C355.267 688.661 350.744 688.183 346.034 691.152C343.917 702.024 337.244 712.333 337.039 725.321C342.842 725.321 347.672 725.287 352.485 725.321C413.006 725.97 473.544 726.806 534.083 727.114C547.412 727.182 559.735 729.947 572.058 734.726C869.167 850.016 1166.24 965.358 1463.56 1080.1C1493.97 1091.84 1522.24 1106.37 1548.98 1125.01C1599.28 1160.1 1650.48 1193.87 1702.09 1228.71C1708.17 1219.47 1707.9 1219.47 1705.06 1202.01Z" fill="black"/>
<path fill-rule="evenodd" clip-rule="evenodd" d="M1677.92 1247.72C1639.52 1224.46 1601.12 1201.18 1562.58 1178.12C1547.71 1169.21 1533.63 1158.85 1517.28 1152.57C1195.93 1029.06 874.555 905.573 553.226 781.936C545.87 779.103 538.497 777.567 530.749 776.782C485.964 772.327 441.196 767.736 396.428 763.23C372.892 760.858 349.339 758.605 325.41 756.233C321.69 767.6 316.262 777.669 315.887 789.634C368.949 799.84 421.159 809.551 473.214 820.014C496.853 824.775 521.191 826.789 543.891 835.443C849.79 952.15 1155.66 1068.96 1461.5 1185.85C1492.12 1197.56 1523.61 1207.27 1552.97 1221.87C1587.1 1238.83 1620.37 1257.49 1654.11 1275.24C1657.83 1277.2 1661.12 1280.56 1666.86 1279.86C1672.87 1271.38 1679.2 1262.44 1685.16 1254C1683.33 1249.99 1680.31 1249.16 1677.92 1247.72Z" fill="black"/>
<path fill-rule="evenodd" clip-rule="evenodd" d="M644.811 926.051C602.876 910.178 561.334 893.06 518.768 879.167C472.498 864.062 425.238 852.029 378.388 838.717C356.303 832.453 334.184 826.326 310.887 819.806C310.887 831.907 310.887 842.455 310.887 855.221C746.806 1019.19 1182.61 1183.1 1619.11 1347.29C1627.86 1334.88 1636.02 1323.33 1644.93 1310.67C1613.93 1296.93 1584.99 1282.49 1554.91 1271.03C1251.64 1155.76 948.202 1040.93 644.811 926.051Z" fill="black"/>
<path fill-rule="evenodd" clip-rule="evenodd" d="M368.072 653.811C406.235 647.582 444.363 641.096 482.543 634.986C500.037 632.17 517.037 628.603 535.35 634.235C593.447 652.071 652.04 668.268 710.428 685.233C751.185 697.06 792.915 705.987 832.443 721.467C1041.21 803.237 1249.71 885.741 1458.31 967.921C1464.19 970.242 1469.77 972.751 1474.76 976.813C1538.51 1028.8 1602.25 1080.79 1666.2 1132.52C1675.8 1140.27 1684.48 1149.38 1696.4 1155.32C1697.78 1146.48 1693.89 1139.19 1693.89 1131.49C1693.89 1122.55 1689.47 1116.44 1682.84 1110.64C1607.32 1044.78 1531.95 978.724 1456.7 912.52C1450.74 907.297 1444.34 903.628 1437.07 900.743C1305.28 848.5 1173.55 796.12 1041.79 743.825C1008.63 730.666 976.133 715.015 941.999 705.338C798.564 664.666 654.617 625.872 510.892 586.224C504.082 584.347 497.785 584.381 491.009 586.156C472.798 590.935 454.433 595.134 436.171 599.708C414.257 605.203 392.376 610.887 370.513 616.468C366.451 629.217 362.679 641.045 358.992 652.617C362.337 655.177 365.341 654.272 368.072 653.811Z" fill="black"/>
<path fill-rule="evenodd" clip-rule="evenodd" d="M623.871 1023.27C578.284 1006.22 531.81 991.353 487.673 970.667C431.778 944.469 376.172 917.639 320.361 891.269C316.811 889.597 313.449 885.603 308.09 888.522C308.09 898.933 308.09 909.532 308.09 920.694C309.814 921.837 311.691 923.271 313.739 924.431C372.349 958.105 430.924 991.797 489.602 1025.3C494.995 1028.39 500.935 1030.59 506.789 1032.78C669.527 1093.13 832.282 1153.43 995.037 1213.72C1176.77 1281.04 1358.52 1348.34 1541.02 1415.91C1556.25 1405.78 1571.71 1395.51 1589.27 1383.82C1582.43 1381.19 1578.13 1379.48 1573.79 1377.86C1257.12 1259.7 940.438 1141.67 623.871 1023.27Z" fill="black"/>
<path fill-rule="evenodd" clip-rule="evenodd" d="M1488.08 1442.26C1440.56 1424.83 1393.05 1407.37 1345.53 1389.91C1063.63 1286.26 781.743 1182.63 499.806 1079.08C491.118 1075.89 483.097 1071.84 475.433 1066.67C423.378 1031.53 371.203 996.594 319.027 961.622C315.153 959.028 311.706 955.546 305.715 954.454C305.715 965.992 305.715 976.915 305.715 989.408C361.065 1032.28 416.482 1075.19 471.9 1118.13C476.543 1121.73 481.817 1123.87 487.312 1125.88C749.093 1221.37 1010.82 1317 1272.57 1412.58C1331.38 1434.05 1390.25 1455.43 1449.2 1476.89C1464.22 1466.39 1479.99 1457.65 1493.63 1446.25C1491.87 1443.13 1489.87 1442.92 1488.08 1442.26Z" fill="black"/>
<path fill-rule="evenodd" clip-rule="evenodd" d="M500.246 547.888C663.53 591.188 826.899 634.181 990.132 677.601C1023.23 686.407 1057.09 692.705 1089 705.403C1197.5 748.516 1305.83 792.038 1414.27 835.27C1422.95 838.751 1430.47 843.394 1437.32 849.845C1515.88 923.986 1594.58 997.99 1673.32 1071.93C1676.7 1075.12 1679.37 1079.54 1685.68 1080.87C1683.33 1062.42 1681.93 1046 1666.94 1031.31C1588.09 953.956 1510.18 875.617 1432.72 796.885C1415.37 779.271 1396.61 766.112 1373.35 757.391C1292.16 726.96 1213.43 690.811 1128.38 670.023C913.141 617.455 698.757 561.491 483.997 506.96C478.98 505.68 473.894 504.093 468.432 506.431C444.521 516.638 420.507 526.605 396.612 536.624C392.124 550.397 387.874 563.522 382.805 579.104C415.54 568.284 445.442 558.828 475.003 548.4C483.793 545.328 491.575 545.584 500.246 547.888Z" fill="black"/>
<path fill-rule="evenodd" clip-rule="evenodd" d="M478.924 1169.81C472.404 1167.46 466.84 1164.33 461.668 1159.76C413.709 1117.55 365.63 1075.48 317.517 1033.46C313.387 1029.86 309.495 1025.66 302.805 1023.08C302.805 1035.56 302.805 1046.57 302.805 1058.62C351.14 1105.98 400.311 1154.04 449.226 1202.36C456.633 1209.68 464.758 1214.71 474.588 1218.25C729.559 1309.8 984.461 1401.57 1239.4 1493.29C1279.27 1507.63 1319.19 1521.86 1359.55 1536.3C1374.23 1526.59 1388.65 1517.05 1405.72 1505.8C1385.96 1498.55 1368.92 1492.25 1351.87 1486.05C1060.89 1380.58 769.94 1275.13 478.924 1169.81Z" fill="black"/>
<path fill-rule="evenodd" clip-rule="evenodd" d="M470.652 472.709C521.223 485.339 571.964 497.337 622.603 509.711C827.532 559.753 1032.49 609.624 1237.34 660.092C1283.15 671.374 1330.08 678.918 1373.52 698.836C1381.17 702.351 1387.55 706.652 1393.28 712.763C1465.94 790.044 1538.71 867.223 1611.47 944.385C1631.68 965.787 1651.92 987.139 1672.15 1008.51C1671.36 992.651 1673.15 977.188 1661.51 964.251C1570.78 863.485 1480.43 762.378 1390.14 661.236C1385.64 656.201 1380.53 653.487 1374.29 652.037C1258.16 624.831 1142.08 597.643 1025.98 570.386C841.732 527.137 657.438 484.059 473.332 440.213C456.025 436.082 441.433 436.407 427.625 447.739C426.891 448.337 426.14 448.951 424.689 450.163C420.303 463.971 415.678 478.478 410.199 495.699C426.174 487.763 439.538 481.311 452.68 474.45C458.637 471.344 463.996 471.037 470.652 472.709Z" fill="black"/>
<path fill-rule="evenodd" clip-rule="evenodd" d="M1303.16 1559.29C1023.1 1459.14 742.973 1359.15 462.828 1259.22C455.813 1256.73 450.028 1253.18 444.976 1247.65C404.099 1203 363.052 1158.54 322.039 1114.03C315.639 1107.1 309.238 1100.16 300.363 1090.55C300.363 1105.69 300.363 1117.05 300.363 1129.8C345.336 1183.55 391.367 1238.39 437.073 1293.48C442.433 1299.93 449.225 1302.58 456.513 1305.17C687.333 1386.97 918.17 1468.78 1148.99 1550.6C1189.83 1565.09 1230.66 1579.63 1272.13 1594.34C1286.59 1584.75 1300.86 1575.26 1315.19 1565.74C1311.93 1560.58 1307.02 1560.67 1303.16 1559.29Z" fill="black"/>
<path fill-rule="evenodd" clip-rule="evenodd" d="M447.418 1345.91C439.414 1343.08 433.133 1338.85 427.927 1331.95C401.421 1296.79 374.574 1261.91 347.796 1226.99C331.991 1206.39 316.101 1185.85 300.246 1165.29C299.427 1165.51 298.59 1165.7 297.754 1165.92C297.754 1177.3 297.754 1188.69 297.754 1202.29C336.975 1257.96 377.732 1315.57 418.148 1373.43C423.968 1381.75 430.948 1386.67 440.608 1390.05C652.825 1464.07 864.922 1538.42 1077.07 1612.68C1113.83 1625.56 1150.68 1638.21 1187.21 1650.86C1201.53 1641.33 1215.08 1632.3 1230.83 1621.83C1224.46 1619.45 1220.86 1618.07 1217.23 1616.79C960.619 1526.47 704.044 1436.15 447.418 1345.91Z" fill="black"/>
<path fill-rule="evenodd" clip-rule="evenodd" d="M883.789 505.919C1049.55 543.399 1215.27 581.066 1381.07 618.376C1388.17 619.963 1393.1 622.882 1397.76 628.326C1481.81 727.13 1566.03 825.779 1650.27 924.446C1654.06 928.884 1657.37 933.987 1663.28 937.025C1662.39 916.851 1657.11 900.398 1644.18 884.764C1568.52 793.488 1493.57 701.648 1419.48 609.108C1405.63 591.785 1391.1 580.025 1368.67 578.489C1361.06 577.96 1353.64 575.059 1346.09 573.437C1205.94 543.04 1065.76 512.746 925.622 482.246C785.498 451.729 645.426 420.974 505.268 390.543C500.762 389.57 496.205 387.18 491.153 388.973C476.236 394.263 461.268 399.35 443.723 405.408C449.577 407.354 452.581 408.634 455.704 409.334C598.388 441.574 741.123 473.644 883.789 505.919Z" fill="black"/>
<path fill-rule="evenodd" clip-rule="evenodd" d="M544.698 374.244C624.113 390.936 703.562 407.525 782.977 424.183C985.772 466.732 1188.57 509.418 1391.45 551.54C1402.46 553.827 1409.35 558.811 1415.94 567.242C1492.35 665.329 1569.05 763.193 1645.7 861.109C1647.39 863.26 1648.4 866.537 1653.09 865.649C1649.18 852.524 1651.62 838.375 1642.3 826.07C1567.86 727.744 1493.82 629.094 1419.75 530.496C1415.48 524.812 1410.65 521.689 1403.29 520.221C1343.11 508.342 1283.05 495.747 1222.92 483.595C1013.63 441.284 804.294 399.077 594.979 356.784C591.668 356.101 588.51 354.718 585.063 355.947C570.829 361.033 556.577 366.102 541.797 371.359C543.435 373.049 543.982 374.09 544.698 374.244Z" fill="black"/>
<path fill-rule="evenodd" clip-rule="evenodd" d="M434.607 1430.33C424.128 1426.71 416.703 1421.21 410.542 1411.59C376.68 1358.68 342.067 1306.26 307.608 1253.75C304.229 1248.59 301.788 1242.69 294.432 1237.19C294.757 1251.75 289.363 1264.96 295.047 1275.34C308.018 1298.99 320.562 1323.33 337.732 1344.2C361.098 1372.6 386.323 1399.47 410.644 1427.08C415.184 1432.26 420.356 1436.28 426.415 1439.58C477.293 1467.23 528.085 1495.08 578.861 1522.92C585.654 1526.64 592.686 1529.69 600.025 1532.24C733.611 1578.28 867.164 1624.49 1000.73 1670.6C1035.3 1682.53 1069.87 1694.36 1104.26 1706.15C1117.77 1695.98 1132.27 1688.71 1145.12 1677.45C1142.46 1676.17 1141.25 1675.43 1139.95 1674.99C904.866 1593.39 669.762 1511.76 434.607 1430.33Z" fill="black"/>
<path fill-rule="evenodd" clip-rule="evenodd" d="M1639.09 797.417C1640.21 796.939 1641.37 796.461 1642.52 795.983C1638.95 783.302 1640.4 769.87 1631.9 757.821C1565.27 663.506 1499.03 568.901 1432.89 474.211C1428.05 467.299 1422.33 464.124 1414.14 462.605C1344.3 449.736 1274.54 436.441 1204.77 423.316C1125.01 408.314 1045.24 393.38 965.503 378.36C875.796 361.464 786.056 344.601 696.383 327.551C676.875 323.847 652.895 328.745 634.258 341.461C896.772 392.697 1158.71 443.848 1419.31 494.726C1493.3 596.636 1566.17 697.026 1639.09 797.417Z" fill="black"/>
<path fill-rule="evenodd" clip-rule="evenodd" d="M1630.06 731.91C1629.71 708.954 1620.03 689.736 1608.63 672.156C1553.99 587.809 1498.29 504.162 1443.18 420.122C1439.32 414.251 1434.54 411.725 1427.97 410.581C1337.48 394.93 1246.99 379.313 1156.56 363.39C1032.33 341.543 908.027 319.987 783.981 296.997C760.547 292.645 742.165 301.674 722.367 310.856C958.512 353.832 1194.64 396.791 1431.5 439.886C1497.54 537.034 1563.81 634.472 1630.06 731.91Z" fill="black"/>
<path fill-rule="evenodd" clip-rule="evenodd" d="M1554.98 564.546C1556.02 563.898 1557.03 563.266 1558.07 562.618C1532.88 490.593 1488.21 429.253 1448.67 364.328C1375.36 352.415 1301.9 340.604 1228.5 328.521C1107.37 308.586 986.191 288.941 865.251 268C842.961 264.142 825.347 272.454 806.539 281.602C1018.76 317.649 1230.99 353.712 1442.73 389.69C1480.43 448.436 1517.72 506.5 1554.98 564.546Z" fill="black"/>
<path fill-rule="evenodd" clip-rule="evenodd" d="M1454.37 336.1C1453.28 335.758 1451.95 335.229 1450.57 334.973C1361.97 317.701 1273.34 300.446 1184.73 283.242C1107.92 268.325 1031.03 253.988 953.719 241.853C929.671 238.082 907.995 240.334 884.527 253.135C1076.42 283.617 1266.14 313.776 1455.98 343.934C1456.88 341.51 1456.78 338.779 1454.37 336.1Z" fill="black"/>
<path fill-rule="evenodd" clip-rule="evenodd" d="M1055.86 1729.11C979.7 1702.96 903.494 1676.95 827.39 1650.67C822.117 1648.86 817.133 1648.3 809.828 1649.15C869.701 1681.85 927.662 1713.39 985.469 1745.17C997.416 1751.76 1010.01 1756.11 1023.44 1759.59C1036.6 1750.75 1049.63 1742.03 1062.55 1733.38C1060.65 1729.59 1057.94 1729.83 1055.86 1729.11Z" fill="black"/>
</mask>
<g mask="url(#mask1)">
<path d="M595.044 2614.38L1572.82 3091.98L2636.52 908.6L908.59 1828.66L595.044 2614.38Z" fill="#6AEDCB"/>
<path d="M1047.97 1835.6C1284.05 1665.56 1507.85 1779.35 1720.22 1748.22C1855.52 1728.4 1978.18 1655.76 2073.25 1557.57C2223.23 1402.67 2293.83 1170.76 2478.91 1060.15C2515.1 1038.46 2555.35 1021.91 2584.81 991.781C2607.67 968.427 2622.52 938.441 2636.83 909.075L3224.52 -290.43C2944.36 -283.899 2698.97 -111.225 2474.11 55.9389C1521.72 763.695 585.92 1498.78 -429.863 2112.27L595.5 2614.67C671.21 2651.68 804.341 2266.31 815.991 2233.12C869.069 2080.92 924.347 1943.94 1047.97 1835.6Z" fill="#30C7FF"/>
<path d="M-393.746 2131.21C-393.746 2131.21 -187.873 2044.92 -37.3526 2036.66C113.168 2028.4 359.406 1980.61 519.881 1869.44C680.355 1758.26 772.682 1639.68 864.389 1443.22C956.097 1246.75 1157.33 1099.48 1382.14 1071.39C1606.93 1043.4 2042.08 1113.86 2224.23 767.632C2406.39 421.404 2541.79 -106.954 3209.5 -263.268L3905.38 -1681.15L3716.1 -1773.63L-908.259 1632.45L-1089.14 1790.93L-393.746 2131.21Z" fill="#6C5DFE"/>
<path d="M-692.531 1985.2C-692.531 1985.2 -525.869 1890.53 -370.014 1611.25C-282.265 1454.13 -178.893 1304.93 -37.9796 1190.66C176.366 1017 445.928 950.9 717.151 947.276C754.589 946.725 791.461 948.545 828.681 943.815C898.902 934.771 967.545 915.803 1032.5 887.636C1221.34 805.472 1359.93 614.642 1497.92 371.784C1635.91 128.927 1906.07 -159.069 2143.73 -288.474C2381.49 -417.859 2573.15 -492.234 2920.01 -620.074C3266.88 -747.913 3663.6 -924.551 3857.22 -1704.61L3178.93 -2036.07L-239.623 52.6893L-1089.29 1791.21L-692.531 1985.2Z" fill="#C908A4"/>
<path d="M-389.798 360.075C-389.798 360.075 -142.583 131.919 280.679 125.502C703.942 119.086 848.708 338.442 1257.42 -127.466C1666.14 -593.374 1669.19 -798.664 2020.7 -1001.71C2372.22 -1204.75 2620.73 -1264.2 2936.75 -1355.35C3252.77 -1446.5 3414.26 -1486.02 3585.92 -1837.3L2699 -2270.7L-15.1972 -406.793L-389.798 360.075Z" fill="#D60A99"/>
<path d="M2928.94 -2158.19C2731.13 -2110.56 2499.55 -2060 2351.35 -1873.94C2203.14 -1687.89 2037.2 -1484.61 1841.26 -1334.76C1645.31 -1184.9 1496.99 -1212.3 1289.86 -1119.55C1082.82 -1026.77 900.87 -773.256 788.235 -595.663C675.6 -418.071 549.07 -344.117 357.794 -243.609C166.517 -143.102 -129.956 -171.707 -129.956 -171.707L301.001 -1053.53L780.837 -1691.48L2135.77 -2545.88L2928.94 -2158.19Z" fill="#F005C4"/>
</g>
<circle cx="1000" cy="1000" r="546.875" fill="white"/>
<path d="M816.406 1304.69C810.041 1304.69 804.543 1302.37 799.913 1297.72C795.284 1293.08 792.969 1287.57 792.969 1281.18V718.817C792.969 712.433 795.284 706.92 799.913 702.277C804.543 697.634 810.041 695.312 816.406 695.312H990.017C996.383 695.312 1001.88 697.634 1006.51 702.277C1011.14 706.92 1013.45 712.433 1013.45 718.817V1126.23H1253.91C1260.27 1126.23 1265.77 1128.55 1270.4 1133.19C1275.03 1137.83 1277.34 1143.35 1277.34 1149.73V1281.18C1277.34 1287.57 1275.03 1293.08 1270.4 1297.72C1265.77 1302.37 1260.27 1304.69 1253.91 1304.69H816.406Z" fill="black"/>
</svg>
