<svg width="512" height="512" viewBox="0 0 512 512" fill="none" xmlns="http://www.w3.org/2000/svg">
<mask id="mask0" mask-type="alpha" maskUnits="userSpaceOnUse" x="0" y="0" width="512" height="512">
<circle cx="256" cy="256" r="256" fill="#C4C4C4"/>
</mask>
<g mask="url(#mask0)">
<path d="M-83.5 196.5L-6 341.5L2.5 356L263 157.5L369.5 18L263 -20.5L74.5 7.5L-83.5 196.5Z" fill="url(#paint0_linear)"/>
<path d="M61.5 282C38.7 308 -1.33333 324.5 -18.5 329.5V337.5L26.5 609L279 519.5L461 136.5V16.9999C389 9.33328 251.3 -3.60005 216.5 5.99995C173 17.9999 90 249.5 61.5 282Z" fill="url(#paint1_linear)"/>
<path d="M202.5 323C208.1 339.4 134.5 440.834 97 489.5L202.5 611.5L484.5 426C519.167 267.834 557.9 -30.7998 435.5 40.0002C282.5 128.5 195.5 302.5 202.5 323Z" fill="url(#paint2_linear)"/>
<path d="M362 421.5C344.5 480.5 271 507.5 179.5 523.5V545.5L569.5 537.5C582 362.167 585.9 35 501.5 129C396 246.5 383.485 349.065 362 421.5Z" fill="#29D9FF"/>
<circle cx="256" cy="256" r="230" fill="white"/>
</g>
<mask id="mask1" mask-type="alpha" maskUnits="userSpaceOnUse" x="75" y="65" width="365" height="392">
<path fill-rule="evenodd" clip-rule="evenodd" d="M439.502 313.086C439.217 311.295 438.185 310.262 436.845 309.266C419.871 296.652 402.901 284.026 385.962 271.355C384.442 270.222 382.843 269.379 381.095 268.694C331.407 249.282 281.713 229.875 232.051 210.393C201.791 198.522 171.676 186.255 140.104 178.117C138.764 177.775 137.495 177.401 136.098 177.516C121.821 178.649 107.538 179.751 93.265 180.902C92.1714 180.99 91.0076 180.867 89.7954 181.631C89.2509 184.428 87.5337 187.081 87.481 190.423C88.9742 190.423 90.2171 190.414 91.4555 190.423C107.029 190.59 122.607 190.805 138.184 190.884C141.614 190.902 144.785 191.613 147.956 192.843C224.409 222.51 300.853 252.19 377.358 281.716C385.184 284.737 392.457 288.475 399.339 293.271C412.282 302.3 425.457 310.992 438.738 319.955C440.301 317.579 440.231 317.579 439.502 313.086Z" fill="black"/>
<path fill-rule="evenodd" clip-rule="evenodd" d="M432.516 324.848C422.634 318.862 412.753 312.872 402.836 306.939C399.011 304.646 395.387 301.98 391.18 300.364C308.491 268.581 225.793 236.806 143.109 204.992C141.216 204.262 139.319 203.867 137.325 203.665C125.801 202.519 114.281 201.338 102.761 200.178C96.7048 199.568 90.6441 198.988 84.4868 198.377C83.5293 201.302 82.1328 203.894 82.0361 206.972C95.6903 209.599 109.125 212.097 122.52 214.79C128.603 216.015 134.865 216.533 140.706 218.76C219.421 248.791 298.126 278.849 376.828 308.928C384.707 311.941 392.809 314.44 400.363 318.195C409.147 322.56 417.707 327.361 426.389 331.928C427.347 332.433 428.194 333.298 429.67 333.118C431.216 330.935 432.845 328.634 434.378 326.465C433.908 325.433 433.131 325.217 432.516 324.848Z" fill="black"/>
<path fill-rule="evenodd" clip-rule="evenodd" d="M166.675 242.075C155.885 237.991 145.195 233.586 134.242 230.011C122.336 226.124 110.175 223.028 98.1191 219.602C92.4361 217.991 86.7443 216.414 80.7495 214.736C80.7495 217.85 80.7495 220.564 80.7495 223.849C192.921 266.041 305.061 308.22 417.382 350.47C419.635 347.277 421.734 344.304 424.027 341.045C416.051 337.509 408.603 333.794 400.864 330.847C322.826 301.185 244.744 271.637 166.675 242.075Z" fill="black"/>
<path fill-rule="evenodd" clip-rule="evenodd" d="M95.4653 172.023C105.285 170.42 115.097 168.751 124.921 167.179C129.423 166.454 133.797 165.536 138.509 166.985C153.459 171.575 168.536 175.743 183.561 180.108C194.048 183.152 204.786 185.449 214.958 189.432C268.678 210.473 322.329 231.703 376.005 252.85C377.521 253.447 378.957 254.093 380.239 255.138C396.643 268.515 413.046 281.893 429.502 295.204C431.97 297.198 434.206 299.543 437.271 301.072C437.627 298.797 436.626 296.922 436.626 294.941C436.626 292.64 435.488 291.067 433.784 289.574C414.35 272.626 394.956 255.63 375.593 238.594C374.06 237.25 372.413 236.306 370.542 235.564C336.628 222.12 302.732 208.642 268.828 195.185C260.294 191.799 251.932 187.772 243.149 185.282C206.24 174.816 169.199 164.833 132.216 154.631C130.464 154.148 128.843 154.157 127.1 154.614C122.414 155.843 117.688 156.924 112.989 158.101C107.35 159.515 101.719 160.977 96.0934 162.414C95.0481 165.694 94.0775 168.738 93.1289 171.715C93.9897 172.374 94.7627 172.141 95.4653 172.023Z" fill="black"/>
<path fill-rule="evenodd" clip-rule="evenodd" d="M161.287 267.092C149.556 262.704 137.597 258.879 126.24 253.556C111.857 246.815 97.5482 239.911 83.187 233.125C82.2735 232.695 81.4083 231.667 80.0293 232.418C80.0293 235.097 80.0293 237.825 80.0293 240.697C80.4729 240.991 80.956 241.36 81.483 241.659C96.5645 250.324 111.637 258.993 126.736 267.614C128.124 268.409 129.652 268.976 131.159 269.538C173.035 285.067 214.915 300.584 256.795 316.1C303.559 333.421 350.328 350.738 397.289 368.125C401.207 365.521 405.186 362.877 409.705 359.869C407.944 359.192 406.837 358.753 405.722 358.336C324.236 327.931 242.746 297.558 161.287 267.092Z" fill="black"/>
<path fill-rule="evenodd" clip-rule="evenodd" d="M383.665 374.907C371.438 370.423 359.211 365.93 346.985 361.437C274.445 334.765 201.91 308.098 129.362 281.453C127.126 280.632 125.062 279.591 123.09 278.26C109.695 269.218 96.2693 260.228 82.8436 251.229C81.8466 250.561 80.9595 249.665 79.418 249.384C79.418 252.353 79.418 255.164 79.418 258.379C93.6606 269.411 107.921 280.452 122.181 291.502C123.376 292.428 124.733 292.977 126.147 293.496C193.508 318.068 260.857 342.675 328.21 367.269C343.344 372.794 358.491 378.297 373.661 383.818C377.525 381.117 381.583 378.868 385.092 375.934C384.64 375.131 384.126 375.078 383.665 374.907Z" fill="black"/>
<path fill-rule="evenodd" clip-rule="evenodd" d="M129.476 144.766C171.492 155.908 213.531 166.971 255.534 178.144C264.05 180.41 272.763 182.03 280.976 185.298C308.895 196.392 336.769 207.591 364.675 218.715C366.906 219.611 368.843 220.806 370.604 222.466C390.819 241.544 411.07 260.587 431.334 279.612C432.204 280.433 432.889 281.571 434.514 281.913C433.908 277.166 433.547 272.941 429.691 269.16C409.401 249.256 389.353 229.097 369.423 208.838C364.956 204.306 360.129 200.92 354.143 198.675C333.252 190.845 312.992 181.543 291.108 176.194C235.723 162.667 180.557 148.266 125.295 134.234C124.004 133.905 122.695 133.497 121.29 134.098C115.137 136.725 108.957 139.289 102.809 141.867C101.654 145.412 100.56 148.789 99.2559 152.799C107.679 150.014 115.374 147.581 122.98 144.898C125.242 144.107 127.245 144.173 129.476 144.766Z" fill="black"/>
<path fill-rule="evenodd" clip-rule="evenodd" d="M123.986 304.8C122.308 304.194 120.877 303.391 119.546 302.214C107.205 291.353 94.8333 280.527 82.4527 269.714C81.3899 268.787 80.3886 267.707 78.667 267.044C78.667 270.254 78.667 273.087 78.667 276.188C91.1046 288.375 103.757 300.742 116.344 313.176C118.25 315.06 120.341 316.355 122.871 317.264C188.48 340.822 254.072 364.437 319.672 388.038C329.931 391.727 340.204 395.39 350.59 399.106C354.367 396.607 358.078 394.152 362.47 391.258C357.385 389.391 353.002 387.77 348.614 386.176C273.738 359.035 198.871 331.902 123.986 304.8Z" fill="black"/>
<path fill-rule="evenodd" clip-rule="evenodd" d="M121.86 125.421C134.873 128.671 147.93 131.759 160.961 134.943C213.693 147.819 266.435 160.652 319.145 173.639C330.933 176.542 343.01 178.483 354.187 183.608C356.155 184.513 357.797 185.62 359.273 187.192C377.969 207.078 396.696 226.938 415.418 246.793C420.618 252.301 425.827 257.795 431.031 263.293C430.829 259.213 431.29 255.234 428.295 251.905C404.948 225.976 381.698 199.959 358.465 173.933C357.305 172.638 355.992 171.939 354.385 171.566C324.503 164.565 294.634 157.569 264.757 150.556C217.347 139.427 169.924 128.342 122.55 117.059C118.097 115.996 114.342 116.08 110.789 118.996C110.6 119.15 110.407 119.308 110.033 119.62C108.905 123.173 107.714 126.906 106.305 131.337C110.415 129.295 113.854 127.635 117.236 125.869C118.769 125.07 120.148 124.991 121.86 125.421Z" fill="black"/>
<path fill-rule="evenodd" clip-rule="evenodd" d="M336.08 405.021C264.015 379.249 191.932 353.522 119.845 327.808C118.04 327.167 116.551 326.253 115.251 324.83C104.732 313.341 94.1702 301.901 83.6167 290.447C81.9697 288.664 80.3228 286.876 78.0391 284.404C78.0391 288.299 78.0391 291.224 78.0391 294.505C89.6115 308.335 101.456 322.446 113.217 336.622C114.597 338.283 116.344 338.963 118.22 339.631C177.615 360.681 237.014 381.731 296.409 402.785C306.918 406.514 317.424 410.256 328.096 414.041C331.816 411.573 335.487 409.131 339.176 406.681C338.337 405.354 337.073 405.376 336.08 405.021Z" fill="black"/>
<path fill-rule="evenodd" clip-rule="evenodd" d="M115.879 350.115C113.819 349.386 112.203 348.297 110.864 346.522C104.043 337.475 97.1347 328.498 90.244 319.513C86.1772 314.212 82.0884 308.928 78.0084 303.636C77.7976 303.693 77.5824 303.742 77.3672 303.799C77.3672 306.728 77.3672 309.657 77.3672 313.158C87.4596 327.484 97.9472 342.306 108.347 357.194C109.845 359.338 111.641 360.602 114.127 361.472C168.734 380.519 223.311 399.65 277.902 418.759C287.362 422.075 296.844 425.329 306.242 428.583C309.927 426.133 313.414 423.809 317.468 421.113C315.829 420.502 314.903 420.147 313.967 419.817C247.936 396.576 181.914 373.334 115.879 350.115Z" fill="black"/>
<path fill-rule="evenodd" clip-rule="evenodd" d="M228.168 133.967C270.821 143.611 313.465 153.304 356.127 162.904C357.954 163.313 359.224 164.064 360.423 165.465C382.052 190.889 403.721 216.273 425.399 241.663C426.374 242.804 427.226 244.118 428.746 244.899C428.518 239.708 427.161 235.474 423.832 231.452C404.363 207.964 385.078 184.332 366.013 160.519C362.447 156.062 358.71 153.036 352.939 152.641C350.98 152.504 349.07 151.758 347.129 151.341C311.063 143.519 274.993 135.723 238.932 127.875C202.875 120.023 166.832 112.108 130.766 104.278C129.607 104.028 128.434 103.413 127.134 103.874C123.296 105.235 119.444 106.544 114.929 108.103C116.436 108.604 117.209 108.933 118.012 109.113C154.728 117.409 191.457 125.662 228.168 133.967Z" fill="black"/>
<path fill-rule="evenodd" clip-rule="evenodd" d="M140.912 100.084C161.347 104.379 181.791 108.648 202.226 112.934C254.41 123.883 306.593 134.867 358.799 145.706C361.631 146.295 363.406 147.577 365.101 149.746C384.763 174.986 404.5 200.169 424.223 225.365C424.658 225.918 424.917 226.761 426.125 226.533C425.119 223.156 425.747 219.515 423.35 216.348C404.192 191.047 385.141 165.662 366.08 140.291C364.982 138.828 363.739 138.025 361.847 137.647C346.361 134.59 330.906 131.349 315.434 128.222C261.577 117.335 207.712 106.474 153.85 95.5911C152.998 95.4154 152.186 95.0597 151.299 95.3759C147.636 96.6846 143.969 97.989 140.166 99.3417C140.587 99.7765 140.728 100.044 140.912 100.084Z" fill="black"/>
<path fill-rule="evenodd" clip-rule="evenodd" d="M112.585 371.836C109.888 370.905 107.978 369.491 106.392 367.014C97.679 353.4 88.7724 339.912 79.9053 326.399C79.0357 325.072 78.4077 323.553 76.5148 322.139C76.5983 325.885 75.2104 329.284 76.6729 331.954C80.0107 338.041 83.2387 344.304 87.6568 349.675C93.6692 356.983 100.16 363.896 106.419 371.002C107.587 372.333 108.918 373.369 110.477 374.217C123.569 381.332 136.639 388.499 149.704 395.662C151.452 396.619 153.262 397.406 155.15 398.06C189.525 409.909 223.891 421.798 258.261 433.664C267.155 436.734 276.052 439.778 284.902 442.812C288.376 440.195 292.109 438.324 295.416 435.425C294.731 435.096 294.419 434.907 294.085 434.793C233.592 413.796 173.095 392.79 112.585 371.836Z" fill="black"/>
<path fill-rule="evenodd" clip-rule="evenodd" d="M422.523 208.975C422.813 208.852 423.112 208.729 423.406 208.606C422.488 205.343 422.862 201.887 420.674 198.786C403.529 174.517 386.484 150.173 369.466 125.807C368.219 124.029 366.747 123.212 364.639 122.821C346.668 119.51 328.719 116.088 310.765 112.711C290.242 108.851 269.715 105.008 249.196 101.143C226.113 96.7951 203.021 92.456 179.946 88.0686C174.926 87.1156 168.756 88.376 163.96 91.6479C231.51 104.832 298.912 117.994 365.97 131.086C385.009 157.31 403.762 183.143 422.523 208.975Z" fill="black"/>
<path fill-rule="evenodd" clip-rule="evenodd" d="M420.201 192.119C420.109 186.212 417.619 181.267 414.685 176.743C400.627 155.039 386.292 133.515 372.111 111.889C371.118 110.379 369.888 109.729 368.198 109.434C344.912 105.407 321.627 101.389 298.359 97.2911C266.391 91.6696 234.405 86.1227 202.486 80.2069C196.456 79.087 191.726 81.4103 186.631 83.7731C247.396 94.8317 308.157 105.886 369.107 116.975C386.099 141.973 403.152 167.046 420.201 192.119Z" fill="black"/>
<path fill-rule="evenodd" clip-rule="evenodd" d="M400.882 149.052C401.15 148.886 401.409 148.723 401.677 148.556C395.194 130.023 383.701 114.239 373.525 97.5321C354.662 94.4666 335.76 91.4275 316.871 88.318C285.702 83.1884 254.52 78.1334 223.4 72.7447C217.664 71.7521 213.132 73.8909 208.292 76.245C262.9 85.5205 317.512 94.8004 371.997 104.058C381.698 119.175 391.294 134.116 400.882 149.052Z" fill="black"/>
<path fill-rule="evenodd" clip-rule="evenodd" d="M374.991 90.2685C374.71 90.1807 374.368 90.0446 374.012 89.9787C351.214 85.5342 328.407 81.094 305.605 76.6671C285.842 72.8287 266.057 69.1395 246.162 66.017C239.974 65.0464 234.396 65.6261 228.357 68.9199C277.735 76.7637 326.554 84.5241 375.404 92.2844C375.637 91.6607 375.61 90.9581 374.991 90.2685Z" fill="black"/>
<path fill-rule="evenodd" clip-rule="evenodd" d="M272.443 448.72C252.846 441.992 233.237 435.299 213.654 428.535C212.297 428.07 211.014 427.925 209.135 428.144C224.541 436.559 239.456 444.675 254.331 452.853C257.405 454.548 260.646 455.668 264.103 456.564C267.489 454.289 270.84 452.045 274.164 449.818C273.677 448.843 272.979 448.904 272.443 448.72Z" fill="black"/>
</mask>
<g mask="url(#mask1)">
<path d="M-63.3725 -49.7081L-67.8995 133.813L-67.6236 152.578L294.705 103.135L474.952 26.2398L392.684 -69.784L194.152 -146.343L-63.3725 -49.7081Z" fill="url(#paint3_linear)"/>
<path d="M30.4259 113.166C-6.03496 125.874 -54.008 119.866 -73.4369 115.274L-77.8405 123.046L-183.572 411.567L110.986 463.609L498.613 191.723L564.391 75.6338C498.667 28.5538 372.016 -59.8071 332.925 -69.6367C284.061 -81.9237 76.0019 97.2813 30.4259 113.166Z" fill="url(#paint4_linear)"/>
<path d="M144.833 230.609C141.246 249.624 13.9126 307.649 -49.3055 334.285L-13.9715 510.874L362.087 485.896C482.827 351.326 684.837 82.5372 526.959 83.9414C329.611 85.6968 149.317 206.841 144.833 230.609Z" fill="url(#paint5_linear)"/>
<path d="M245.561 414.094C196.084 461.777 109.82 447.549 12.1242 412.726L0.0143572 434.098L383.286 641.001C491.941 477.553 675.818 161.872 542.085 206.731C374.919 262.805 306.304 355.553 245.561 414.094Z" fill="#29D9FF"/>
</g>
<circle cx="256" cy="256" r="140" fill="white"/>
<path d="M255.175 334C239.888 334 226.907 331.906 216.234 327.717C205.706 323.528 197.774 317.967 192.437 311.033C187.101 303.956 184.288 296.228 184 287.85C184 286.55 184.433 285.467 185.298 284.6C186.308 283.589 187.461 283.083 188.759 283.083H229.864C231.883 283.083 233.469 283.372 234.623 283.95C235.921 284.383 237.436 285.322 239.166 286.767C243.349 290.089 248.685 291.75 255.175 291.75C260.079 291.75 263.973 291.244 266.858 290.233C269.887 289.078 271.401 287.561 271.401 285.683C271.401 283.083 269.454 281.133 265.56 279.833C261.666 278.389 254.31 276.944 243.493 275.5C206.283 270.589 187.678 254.7 187.678 227.833C187.678 218.156 190.418 209.561 195.899 202.05C201.523 194.394 209.312 188.472 219.263 184.283C229.215 180.094 240.681 178 253.661 178C267.218 178 279.117 180.311 289.357 184.933C299.597 189.556 307.457 195.406 312.938 202.483C318.419 209.417 321.303 216.206 321.592 222.85C321.592 224.15 321.087 225.306 320.077 226.317C319.212 227.183 318.202 227.617 317.048 227.617H273.781C271.761 227.617 270.175 227.4 269.021 226.967C267.867 226.389 266.569 225.45 265.127 224.15C262.098 221.55 258.276 220.25 253.661 220.25C246.738 220.25 243.277 222.272 243.277 226.317C243.277 228.483 244.935 230.289 248.253 231.733C251.714 233.178 258.06 234.478 267.29 235.633C281.713 237.511 293.251 240.328 301.905 244.083C310.702 247.839 317.048 252.894 320.943 259.25C324.981 265.461 327 273.333 327 282.867C327 293.122 323.899 302.15 317.697 309.95C311.496 317.606 302.914 323.528 291.953 327.717C281.136 331.906 268.877 334 255.175 334Z" fill="black"/>
<defs>
<linearGradient id="paint0_linear" x1="143" y1="-20.5" x2="143" y2="356" gradientUnits="userSpaceOnUse">
<stop stop-color="#CE08A0"/>
<stop offset="1" stop-color="#E30B96"/>
</linearGradient>
<linearGradient id="paint1_linear" x1="221.25" y1="2.59033" x2="221.25" y2="609" gradientUnits="userSpaceOnUse">
<stop stop-color="#CF0899"/>
<stop offset="1" stop-color="#B505BF"/>
</linearGradient>
<linearGradient id="paint2_linear" x1="307.982" y1="29.3237" x2="307.982" y2="611.5" gradientUnits="userSpaceOnUse">
<stop stop-color="#636BF7"/>
<stop offset="1" stop-color="#6439D2"/>
</linearGradient>
<linearGradient id="paint3_linear" x1="276.11" y1="-135.838" x2="68.866" y2="229.916" gradientUnits="userSpaceOnUse">
<stop stop-color="#CE08A0"/>
<stop offset="1" stop-color="#E30B96"/>
</linearGradient>
<linearGradient id="paint4_linear" x1="339.416" y1="-70.3343" x2="5.61964" y2="518.766" gradientUnits="userSpaceOnUse">
<stop stop-color="#CF0899"/>
<stop offset="1" stop-color="#B505BF"/>
</linearGradient>
<linearGradient id="paint5_linear" x1="408.957" y1="3.37764" x2="88.4995" y2="568.937" gradientUnits="userSpaceOnUse">
<stop stop-color="#636BF7"/>
<stop offset="1" stop-color="#6439D2"/>
</linearGradient>
</defs>
</svg>
