<svg width="2000" height="2000" viewBox="0 0 2000 2000" fill="none" xmlns="http://www.w3.org/2000/svg">
<mask id="mask0" mask-type="alpha" maskUnits="userSpaceOnUse" x="0" y="0" width="2000" height="2000">
<circle cx="1000" cy="1000" r="1000" fill="black"/>
</mask>
<g mask="url(#mask0)">
<path d="M231.102 3627.2L1266.8 3904.5L1883.3 1592.3L386.002 2808.2L231.102 3627.2Z" fill="#6AEDCB"/>
<path d="M522.099 2788.6C718.299 2579.6 956.199 2647.4 1155.7 2577.2C1282.8 2532.5 1387.7 2439.1 1461.1 2326.2C1576.9 2148.1 1601.4 1910.5 1759.5 1768.6C1790.4 1740.8 1826.2 1717.2 1849 1682.5C1866.7 1655.6 1875.4 1623.8 1883.7 1592.7L2225.6 321.8C1955.9 381 1751.2 594.3 1565.3 798.4C777.899 1662.6 11.6992 2550.1 -854.801 3335.1L231.599 3627.4C311.799 3648.9 367.799 3251.1 372.799 3216.8C395.399 3059.6 422.999 2916.7 522.099 2788.6Z" fill="#30C7FF"/>
<path d="M-816.3 3346.6C-816.3 3346.6 -633.5 3224.3 -489.5 3187.9C-345.5 3151.5 -116.4 3058.8 17.8 2921C152 2783.2 218.9 2651.1 270.5 2443.8C322.1 2236.5 488.9 2056.1 701 1986.5C913.1 1917 1347.2 1903 1458 1533.8C1568.8 1164.6 1600 628.1 2216.2 350.9L2621.5 -1151.6L2421 -1205.3L-1408 2961.4L-1553 3148.8L-816.3 3346.6Z" fill="#6C5DFE"/>
<path d="M-1132.8 3261.8C-1132.8 3261.8 -989.502 3138.8 -891.502 2839.3C-836.302 2670.8 -764.502 2507 -649.802 2369.9C-475.302 2161.5 -227.102 2046.7 34.4984 1992C70.5984 1984.4 106.598 1979.2 141.698 1967.6C207.898 1945.6 270.698 1914.3 328.198 1874.8C495.298 1759.7 593.298 1549 680.898 1288.1C768.498 1027.2 975.399 697.7 1180.8 527.7C1386.3 357.7 1557.6 249.6 1868.9 60.4998C2180.2 -128.6 2530.5 -374.3 2570.5 -1165.2L1852 -1357.7L-1059.6 1307.5L-1553.1 3149.1L-1132.8 3261.8Z" fill="#A20ED3"/>
<path d="M-1146.8 1633.1C-1146.8 1633.1 -950.801 1365.8 -542.701 1279.7C-134.601 1193.6 46.7993 1378.4 354.099 850.7C661.399 323 625.599 123.9 927.199 -138.8C1228.8 -401.5 1457.9 -505.9 1746.3 -653.7C2034.7 -801.5 2183.4 -870.2 2283.1 -1242.3L1343.6 -1494L-929.301 820.8L-1146.8 1633.1Z" fill="#D60A99"/>
<path d="M1587.2 -1428.6C1404.9 -1345.2 1190.5 -1252.6 1082.3 -1044.7C974.102 -836.8 852.002 -608.9 690.802 -427C529.602 -245.1 381.002 -243.6 198.202 -114.8C15.5015 14.0002 -112.598 293.5 -187.998 486.5C-263.398 679.5 -371.798 774.9 -537.798 908.2C-703.798 1041.5 -995.898 1069.8 -995.898 1069.8L-745.598 135.7L-401.998 -571.8L747.002 -1653.8L1587.2 -1428.6Z" fill="#F005C4"/>
<path d="M-838.199 481C-836.499 474.6 -809.699 461.2 -804.399 457.2C-773.299 434.2 -743.899 409.1 -716.299 382.1C-605.199 272.9 -583.499 145.9 -555.799 -0.5C-536.699 -101.9 -526.799 -256 -453.399 -336.2C-380.799 -415.5 -319.499 -482.2 -65.8992 -544.4C91.7008 -583 253.901 -641.1 375.801 -755.4C517.101 -887.8 554.101 -1074 635.501 -1243.3C701.901 -1381.3 796.101 -1527.2 932.601 -1604L-198.299 -1907L-838.199 481Z" fill="#FF744B"/>
</g>
<path d="M368.697 954.932C363.978 954.932 359.731 953.282 355.955 949.984C352.652 946.214 351 941.973 351 937.261V478.53C351 473.347 352.652 469.106 355.955 465.807C359.259 462.037 363.506 460.153 368.697 460.153H569.033C630.384 460.153 678.521 474.054 713.444 501.855C748.367 529.657 765.828 570.418 765.828 624.137C765.828 677.855 748.367 718.145 713.444 745.004C678.521 771.392 630.384 784.586 569.033 784.586H488.332V937.261C488.332 941.973 486.68 946.214 483.377 949.984C480.073 953.282 475.826 954.932 470.635 954.932H368.697ZM565.493 683.51C584.842 683.51 599.944 678.562 610.799 668.667C622.125 658.3 627.788 643.221 627.788 623.43C627.788 605.052 622.597 590.209 612.214 578.9C602.304 567.59 586.73 561.936 565.493 561.936H486.209V683.51H565.493Z" fill="white"/>
<path d="M826.922 536.49C821.731 536.49 817.483 534.841 814.18 531.542C810.876 527.772 809.224 523.296 809.224 518.112V452.378C809.224 447.194 810.876 442.953 814.18 439.655C817.955 435.885 822.203 434 826.922 434H915.409C920.6 434 924.848 435.885 928.151 439.655C931.927 442.953 933.814 447.194 933.814 452.378V518.112C933.814 523.296 931.927 527.772 928.151 531.542C924.848 534.841 920.6 536.49 915.409 536.49H826.922ZM826.922 954.932C822.203 954.932 817.955 953.282 814.18 949.984C810.876 946.214 809.224 941.973 809.224 937.261V605.052C809.224 599.869 810.876 595.628 814.18 592.329C817.955 589.031 822.203 587.382 826.922 587.382H915.409C920.6 587.382 924.848 589.031 928.151 592.329C931.927 595.628 933.814 599.869 933.814 605.052V937.261C933.814 942.444 931.927 946.685 928.151 949.984C924.848 953.282 920.6 954.932 915.409 954.932H826.922Z" fill="white"/>
<path d="M1172.82 962C1115.25 962 1069.94 946.685 1036.91 916.056C1003.87 884.956 986.882 839.954 985.938 781.052V759.141C987.825 703.066 1005.29 659.242 1038.32 627.671C1071.36 596.099 1115.95 580.313 1172.11 580.313C1212.7 580.313 1246.92 588.56 1274.76 605.052C1303.08 621.074 1324.08 643.456 1337.76 672.201C1351.92 700.474 1359 732.752 1359 769.036V786.707C1359 791.89 1357.11 796.367 1353.34 800.137C1350.03 803.435 1345.79 805.084 1340.59 805.084H1116.19V809.325C1116.66 830.53 1121.62 847.73 1131.06 860.924C1140.5 873.647 1153.95 880.008 1171.41 880.008C1182.73 880.008 1191.7 877.888 1198.31 873.647C1205.39 868.934 1211.99 863.044 1218.13 855.976C1222.38 851.264 1225.68 848.436 1228.04 847.494C1230.87 846.08 1235.12 845.373 1240.78 845.373H1333.52C1337.76 845.373 1341.3 846.787 1344.13 849.614C1347.44 851.971 1349.09 855.033 1349.09 858.803C1349.09 871.055 1342.01 885.427 1327.85 901.92C1314.17 918.412 1293.87 932.549 1266.97 944.329C1240.55 956.11 1209.16 962 1172.82 962ZM1228.75 732.988V731.574C1228.75 708.956 1223.79 691.521 1213.88 679.269C1203.97 666.546 1190.05 660.185 1172.11 660.185C1154.18 660.185 1140.26 666.546 1130.35 679.269C1120.91 691.521 1116.19 708.956 1116.19 731.574V732.988H1228.75Z" fill="white"/>
<path d="M368.694 1536.93C363.976 1536.93 359.729 1535.28 355.955 1531.98C352.652 1528.21 351 1523.97 351 1519.26V1060.45C351 1055.27 352.652 1051.02 355.955 1047.72C359.257 1043.95 363.504 1042.07 368.694 1042.07H554.84C624.674 1042.07 678.937 1058.8 717.629 1092.26C756.321 1125.25 776.611 1172.85 778.498 1235.07C778.97 1248.73 779.206 1266.88 779.206 1289.5C779.206 1312.12 778.97 1330.03 778.498 1343.23C773.78 1472.36 700.407 1536.93 558.379 1536.93H368.694ZM554.84 1430.89C584.567 1430.89 606.508 1423.82 626.664 1409.68C640.819 1395.54 642.369 1372.92 643.312 1341.81C644.256 1328.15 644.728 1310.47 644.728 1288.79C644.728 1267.11 644.256 1249.68 643.312 1236.48C642.369 1206.32 634.111 1184.17 618.54 1170.03C603.441 1155.42 581.028 1148.11 551.301 1148.11H484.062V1430.89H554.84Z" fill="white"/>
<path d="M798.164 1536.93C794.389 1536.93 790.851 1535.52 787.548 1532.69C784.716 1529.39 783.301 1525.86 783.301 1522.08C783.301 1519.26 783.537 1517.14 784.009 1515.72L948.921 1062.57C953.64 1048.9 963.077 1042.07 977.232 1042.07H1087.65C1101.8 1042.07 1111.24 1048.9 1115.96 1062.57L1280.87 1515.72C1281.34 1517.14 1281.58 1519.26 1281.58 1522.08C1281.58 1525.86 1279.93 1529.39 1276.62 1532.69C1273.79 1535.52 1270.49 1536.93 1266.71 1536.93H1174.7C1163.38 1536.93 1155.36 1531.75 1150.64 1521.38L1125.16 1452.8H939.72L914.24 1521.38C909.521 1531.75 901.5 1536.93 890.175 1536.93H798.164ZM969.447 1346.76H1095.43L1032.44 1166.49L969.447 1346.76Z" fill="white"/>
<path d="M1509.17 1544C1442.17 1544 1389.32 1527.74 1350.63 1495.22C1311.94 1462.7 1291.41 1414.86 1289.05 1351.71C1288.58 1338.51 1288.35 1318.25 1288.35 1290.91C1288.35 1263.58 1288.58 1243.08 1289.05 1229.41C1290.94 1167.2 1311.47 1119.36 1350.63 1085.9C1390.27 1051.97 1443.11 1035 1509.17 1035C1574.76 1035 1627.14 1051.97 1666.3 1085.9C1705.94 1119.36 1726.7 1167.2 1728.58 1229.41C1729.53 1256.74 1730 1277.25 1730 1290.91C1730 1305.05 1729.53 1325.32 1728.58 1351.71C1726.23 1414.86 1705.7 1462.7 1667.01 1495.22C1628.79 1527.74 1576.18 1544 1509.17 1544ZM1509.17 1437.96C1533.71 1437.96 1553.29 1430.65 1567.92 1416.04C1582.55 1400.96 1590.33 1378.1 1591.28 1347.47C1592.22 1320.13 1592.69 1300.58 1592.69 1288.79C1592.69 1277.01 1592.22 1257.92 1591.28 1231.53C1590.33 1200.9 1582.55 1178.27 1567.92 1163.66C1553.29 1148.58 1533.71 1141.04 1509.17 1141.04C1484.17 1141.04 1464.35 1148.58 1449.72 1163.66C1435.09 1178.27 1427.31 1200.9 1426.36 1231.53C1425.89 1244.73 1425.66 1263.81 1425.66 1288.79C1425.66 1314.24 1425.89 1333.8 1426.36 1347.47C1427.31 1378.1 1435.09 1400.96 1449.72 1416.04C1464.35 1430.65 1484.17 1437.96 1509.17 1437.96Z" fill="white"/>
</svg>
