<svg width="2000" height="2000" viewBox="0 0 2000 2000" fill="none" xmlns="http://www.w3.org/2000/svg">
<mask id="mask0" mask-type="alpha" maskUnits="userSpaceOnUse" x="0" y="0" width="2000" height="2000">
<circle cx="1000" cy="1000" r="1000" fill="black"/>
</mask>
<g mask="url(#mask0)">
<path d="M691.102 3217.2L1726.8 3494.5L2343.3 1182.3L846.002 2398.2L691.102 3217.2Z" fill="#6AEDCB"/>
<path d="M982.099 2378.6C1178.3 2169.6 1416.2 2237.4 1615.7 2167.2C1742.8 2122.5 1847.7 2029.1 1921.1 1916.2C2036.9 1738.1 2061.4 1500.5 2219.5 1358.6C2250.4 1330.8 2286.2 1307.2 2309 1272.5C2326.7 1245.6 2335.4 1213.8 2343.7 1182.7L2685.6 -88.2002C2415.9 -29.0002 2211.2 184.3 2025.3 388.4C1237.9 1252.6 471.699 2140.1 -394.801 2925.1L691.599 3217.4C771.799 3238.9 827.799 2841.1 832.799 2806.8C855.399 2649.6 882.999 2506.7 982.099 2378.6Z" fill="#30C7FF"/>
<path d="M-356.3 2936.6C-356.3 2936.6 -173.5 2814.3 -29.5 2777.9C114.5 2741.5 343.6 2648.8 477.8 2511C612 2373.2 678.9 2241.1 730.5 2033.8C782.1 1826.5 948.9 1646.1 1161 1576.5C1373.1 1507 1807.2 1493 1918 1123.8C2028.8 754.6 2060 218.1 2676.2 -59.0999L3081.5 -1561.6L2881 -1615.3L-948 2551.4L-1093 2738.8L-356.3 2936.6Z" fill="#6C5DFE"/>
<path d="M-672.802 2851.8C-672.802 2851.8 -529.502 2728.8 -431.502 2429.3C-376.302 2260.8 -304.502 2097 -189.802 1959.9C-15.3015 1751.5 232.898 1636.7 494.498 1582C530.598 1574.4 566.598 1569.2 601.698 1557.6C667.898 1535.6 730.698 1504.3 788.198 1464.8C955.298 1349.7 1053.3 1139 1140.9 878.1C1228.5 617.2 1435.4 287.7 1640.8 117.7C1846.3 -52.3002 2017.6 -160.4 2328.9 -349.5C2640.2 -538.6 2990.5 -784.3 3030.5 -1575.2L2312 -1767.7L-599.602 897.5L-1093.1 2739.1L-672.802 2851.8Z" fill="#A20ED3"/>
<path d="M-686.801 1223.1C-686.801 1223.1 -490.801 955.8 -82.7008 869.7C325.399 783.6 506.799 968.4 814.099 440.7C1121.4 -87.0001 1085.6 -286.1 1387.2 -548.8C1688.8 -811.5 1917.9 -915.9 2206.3 -1063.7C2494.7 -1211.5 2643.4 -1280.2 2743.1 -1652.3L1803.6 -1904L-469.301 410.8L-686.801 1223.1Z" fill="#D60A99"/>
<path d="M2047.2 -1838.6C1864.9 -1755.2 1650.5 -1662.6 1542.3 -1454.7C1434.1 -1246.8 1312 -1018.9 1150.8 -837C989.602 -655.1 841.002 -653.6 658.202 -524.8C475.502 -396 347.402 -116.5 272.002 76.5002C196.602 269.5 88.2016 364.9 -77.7984 498.2C-243.798 631.5 -535.898 659.8 -535.898 659.8L-285.598 -274.3L58.0016 -981.8L1207 -2063.8L2047.2 -1838.6Z" fill="#F005C4"/>
<path d="M-378.199 71C-376.499 64.6 -349.699 51.2 -344.399 47.2C-313.299 24.2 -283.899 -0.900146 -256.299 -27.9001C-145.199 -137.1 -123.499 -264.1 -95.7992 -410.5C-76.6992 -511.9 -66.7992 -666 6.60077 -746.2C79.2008 -825.5 140.501 -892.2 394.101 -954.4C551.701 -993 713.901 -1051.1 835.801 -1165.4C977.101 -1297.8 1014.1 -1484 1095.5 -1653.3C1161.9 -1791.3 1256.1 -1937.2 1392.6 -2014L261.701 -2317L-378.199 71Z" fill="#FF744B"/>
</g>
<circle cx="1000" cy="1000" r="902" fill="white"/>
<mask id="mask1" mask-type="alpha" maskUnits="userSpaceOnUse" x="292" y="240" width="1415" height="1520">
<path fill-rule="evenodd" clip-rule="evenodd" d="M1705.06 1202.02C1703.96 1195.05 1699.94 1191.04 1694.74 1187.17C1628.77 1138.15 1562.82 1089.08 1497 1039.84C1491.09 1035.44 1484.88 1032.16 1478.08 1029.5C1284.98 954.06 1091.87 878.639 898.867 802.927C781.273 756.794 664.241 709.125 541.544 677.499C536.338 676.168 531.406 674.717 525.978 675.161C470.492 679.564 414.989 683.848 359.52 688.32C355.27 688.661 350.747 688.183 346.036 691.153C343.92 702.025 337.247 712.333 337.042 725.322C342.845 725.322 347.675 725.288 352.488 725.322C413.009 725.97 473.547 726.807 534.085 727.114C547.415 727.182 559.738 729.947 572.06 734.726C869.17 850.016 1166.25 965.358 1463.56 1080.1C1493.97 1091.84 1522.24 1106.37 1548.98 1125.01C1599.28 1160.1 1650.48 1193.87 1702.09 1228.71C1708.17 1219.48 1707.9 1219.48 1705.06 1202.02Z" fill="black"/>
<path fill-rule="evenodd" clip-rule="evenodd" d="M1677.92 1247.72C1639.52 1224.46 1601.12 1201.18 1562.58 1178.12C1547.71 1169.21 1533.63 1158.85 1517.28 1152.57C1195.94 1029.06 874.556 905.572 553.228 781.936C545.872 779.103 538.499 777.567 530.75 776.782C485.965 772.327 441.197 767.736 396.429 763.23C372.893 760.858 349.34 758.605 325.412 756.232C321.691 767.599 316.264 777.669 315.888 789.633C368.951 799.84 421.16 809.551 473.216 820.013C496.854 824.775 521.192 826.789 543.892 835.442C849.792 952.149 1155.66 1068.96 1461.51 1185.85C1492.12 1197.56 1523.61 1207.27 1552.97 1221.87C1587.1 1238.83 1620.37 1257.49 1654.11 1275.24C1657.83 1277.2 1661.13 1280.56 1666.86 1279.86C1672.87 1271.38 1679.2 1262.44 1685.16 1254C1683.33 1249.99 1680.31 1249.16 1677.92 1247.72Z" fill="black"/>
<path fill-rule="evenodd" clip-rule="evenodd" d="M644.814 926.051C602.879 910.179 561.337 893.06 518.771 879.167C472.501 864.062 425.241 852.03 378.391 838.717C356.306 832.454 334.187 826.326 310.89 819.807C310.89 831.907 310.89 842.455 310.89 855.222C746.809 1019.19 1182.61 1183.1 1619.11 1347.29C1627.86 1334.88 1636.02 1323.33 1644.93 1310.67C1613.94 1296.93 1584.99 1282.49 1554.92 1271.04C1251.65 1155.76 948.204 1040.93 644.814 926.051Z" fill="black"/>
<path fill-rule="evenodd" clip-rule="evenodd" d="M368.074 653.811C406.236 647.582 444.365 641.096 482.545 634.986C500.039 632.17 517.038 628.603 535.352 634.235C593.449 652.07 652.042 668.267 710.429 685.232C751.186 697.06 792.916 705.986 832.444 721.466C1041.21 803.237 1249.71 885.74 1458.31 967.92C1464.2 970.241 1469.78 972.75 1474.76 976.812C1538.51 1028.8 1602.25 1080.79 1666.21 1132.52C1675.8 1140.27 1684.48 1149.38 1696.4 1155.32C1697.78 1146.48 1693.89 1139.19 1693.89 1131.49C1693.89 1122.55 1689.47 1116.44 1682.85 1110.64C1607.32 1044.77 1531.95 978.724 1456.7 912.519C1450.75 907.297 1444.35 903.627 1437.08 900.743C1305.28 848.499 1173.55 796.119 1041.79 743.825C1008.63 730.666 976.135 715.015 942 705.338C798.565 664.666 654.619 625.872 510.894 586.224C504.084 584.347 497.786 584.381 491.01 586.156C472.799 590.935 454.435 595.133 436.173 599.707C414.258 605.203 392.378 610.887 370.514 616.468C366.452 629.217 362.68 641.045 358.994 652.616C362.339 655.177 365.343 654.272 368.074 653.811Z" fill="black"/>
<path fill-rule="evenodd" clip-rule="evenodd" d="M623.872 1023.27C578.285 1006.22 531.811 991.353 487.674 970.667C431.778 944.469 376.173 917.639 320.362 891.27C316.812 889.597 313.45 885.603 308.091 888.522C308.091 898.933 308.091 909.532 308.091 920.694C309.815 921.837 311.692 923.271 313.74 924.432C372.35 958.106 430.925 991.797 489.603 1025.3C494.996 1028.39 500.936 1030.59 506.79 1032.78C669.528 1093.13 832.283 1153.43 995.038 1213.72C1176.77 1281.04 1358.52 1348.34 1541.02 1415.91C1556.25 1405.78 1571.71 1395.51 1589.27 1383.82C1582.43 1381.19 1578.13 1379.48 1573.79 1377.86C1257.13 1259.7 940.439 1141.67 623.872 1023.27Z" fill="black"/>
<path fill-rule="evenodd" clip-rule="evenodd" d="M1488.08 1442.26C1440.56 1424.83 1393.05 1407.37 1345.53 1389.91C1063.63 1286.26 781.745 1182.63 499.808 1079.08C491.121 1075.89 483.099 1071.84 475.436 1066.67C423.38 1031.53 371.205 996.594 319.03 961.622C315.155 959.028 311.708 955.546 305.717 954.454C305.717 965.992 305.717 976.915 305.717 989.408C361.067 1032.28 416.485 1075.19 471.903 1118.13C476.545 1121.73 481.819 1123.87 487.315 1125.88C749.095 1221.37 1010.82 1317 1272.57 1412.58C1331.38 1434.05 1390.25 1455.43 1449.2 1476.89C1464.22 1466.39 1479.99 1457.65 1493.63 1446.25C1491.87 1443.13 1489.87 1442.92 1488.08 1442.26Z" fill="black"/>
<path fill-rule="evenodd" clip-rule="evenodd" d="M500.248 547.888C663.532 591.188 826.902 634.181 990.135 677.6C1023.23 686.407 1057.09 692.705 1089.01 705.403C1197.5 748.516 1305.83 792.037 1414.28 835.269C1422.95 838.751 1430.47 843.393 1437.32 849.845C1515.88 923.986 1594.58 997.99 1673.33 1071.93C1676.71 1075.12 1679.37 1079.54 1685.68 1080.87C1683.33 1062.42 1681.93 1046 1666.94 1031.31C1588.09 953.956 1510.18 875.617 1432.73 796.885C1415.37 779.271 1396.61 766.112 1373.35 757.391C1292.16 726.959 1213.43 690.811 1128.38 670.022C913.144 617.455 698.76 561.491 484 506.96C478.982 505.68 473.896 504.093 468.435 506.431C444.523 516.637 420.509 526.605 396.615 536.623C392.126 550.397 387.876 563.522 382.807 579.104C415.543 568.283 445.445 558.828 475.006 548.4C483.795 545.328 491.578 545.584 500.248 547.888Z" fill="black"/>
<path fill-rule="evenodd" clip-rule="evenodd" d="M478.924 1169.81C472.405 1167.46 466.841 1164.33 461.669 1159.76C413.71 1117.55 365.631 1075.48 317.518 1033.46C313.387 1029.86 309.496 1025.66 302.806 1023.08C302.806 1035.56 302.806 1046.57 302.806 1058.62C351.141 1105.98 400.312 1154.04 449.227 1202.36C456.634 1209.68 464.758 1214.72 474.589 1218.25C729.56 1309.8 984.462 1401.57 1239.4 1493.29C1279.27 1507.63 1319.19 1521.86 1359.55 1536.3C1374.23 1526.59 1388.65 1517.05 1405.72 1505.8C1385.96 1498.55 1368.92 1492.25 1351.87 1486.05C1060.89 1380.58 769.941 1275.13 478.924 1169.81Z" fill="black"/>
<path fill-rule="evenodd" clip-rule="evenodd" d="M470.653 472.709C521.224 485.339 571.966 497.337 622.605 509.711C827.533 559.753 1032.5 609.624 1237.34 660.092C1283.15 671.374 1330.08 678.918 1373.52 698.835C1381.17 702.351 1387.55 706.652 1393.28 712.762C1465.94 790.044 1538.72 867.223 1611.47 944.385C1631.68 965.787 1651.92 987.139 1672.15 1008.51C1671.36 992.651 1673.16 977.188 1661.52 964.251C1570.79 863.485 1480.43 762.378 1390.14 661.236C1385.64 656.201 1380.54 653.487 1374.29 652.037C1258.16 624.831 1142.09 597.643 1025.98 570.386C841.734 527.137 657.439 484.059 473.333 440.213C456.027 436.082 441.434 436.407 427.626 447.739C426.893 448.337 426.142 448.951 424.691 450.163C420.305 463.971 415.679 478.478 410.201 495.699C426.176 487.763 439.54 481.311 452.681 474.45C458.638 471.344 463.997 471.036 470.653 472.709Z" fill="black"/>
<path fill-rule="evenodd" clip-rule="evenodd" d="M1303.16 1559.29C1023.1 1459.14 742.972 1359.16 462.827 1259.23C455.813 1256.73 450.027 1253.18 444.975 1247.65C404.098 1203.01 363.051 1158.54 322.038 1114.03C315.638 1107.1 309.238 1100.16 300.363 1090.55C300.363 1105.69 300.363 1117.05 300.363 1129.8C345.335 1183.55 391.366 1238.39 437.073 1293.48C442.432 1299.93 449.225 1302.58 456.512 1305.17C687.332 1386.98 918.169 1468.78 1148.99 1550.6C1189.83 1565.09 1230.66 1579.63 1272.13 1594.34C1286.59 1584.75 1300.86 1575.26 1315.19 1565.74C1311.93 1560.58 1307.02 1560.67 1303.16 1559.29Z" fill="black"/>
<path fill-rule="evenodd" clip-rule="evenodd" d="M447.419 1345.91C439.414 1343.08 433.134 1338.85 427.928 1331.95C401.422 1296.79 374.575 1261.91 347.796 1226.99C331.992 1206.39 316.102 1185.85 300.247 1165.29C299.427 1165.51 298.591 1165.7 297.755 1165.92C297.755 1177.3 297.755 1188.69 297.755 1202.29C336.976 1257.96 377.733 1315.57 418.148 1373.43C423.968 1381.75 430.949 1386.67 440.609 1390.05C652.826 1464.07 864.923 1538.42 1077.07 1612.68C1113.83 1625.56 1150.68 1638.21 1187.21 1650.86C1201.53 1641.33 1215.08 1632.3 1230.83 1621.82C1224.47 1619.45 1220.86 1618.07 1217.23 1616.79C960.62 1526.47 704.045 1436.15 447.419 1345.91Z" fill="black"/>
<path fill-rule="evenodd" clip-rule="evenodd" d="M883.792 505.918C1049.55 543.399 1215.28 581.066 1381.07 618.376C1388.17 619.963 1393.1 622.882 1397.76 628.326C1481.82 727.129 1566.03 825.779 1650.27 924.446C1654.06 928.884 1657.37 933.987 1663.28 937.025C1662.39 916.851 1657.12 900.398 1644.18 884.764C1568.52 793.488 1493.58 701.648 1419.49 609.108C1405.63 591.785 1391.1 580.025 1368.68 578.489C1361.07 577.96 1353.64 575.059 1346.1 573.437C1205.94 543.04 1065.76 512.745 925.624 482.246C785.501 451.729 645.428 420.974 505.27 390.543C500.765 389.57 496.208 387.18 491.156 388.972C476.239 394.263 461.271 399.349 443.725 405.408C449.579 407.354 452.583 408.634 455.707 409.334C598.39 441.574 741.125 473.644 883.792 505.918Z" fill="black"/>
<path fill-rule="evenodd" clip-rule="evenodd" d="M544.701 374.243C624.116 390.935 703.565 407.525 782.98 424.183C985.775 466.732 1188.57 509.417 1391.45 551.54C1402.46 553.827 1409.35 558.811 1415.94 567.242C1492.35 665.328 1569.05 763.193 1645.7 861.109C1647.39 863.259 1648.4 866.536 1653.09 865.649C1649.19 852.524 1651.63 838.375 1642.31 826.07C1567.86 727.744 1493.82 629.094 1419.75 530.496C1415.48 524.812 1410.65 521.689 1403.3 520.221C1343.12 508.342 1283.06 495.746 1222.93 483.594C1013.63 441.284 804.297 399.076 594.982 356.783C591.671 356.101 588.513 354.718 585.066 355.947C570.831 361.033 556.58 366.102 541.8 371.359C543.438 373.049 543.984 374.09 544.701 374.243Z" fill="black"/>
<path fill-rule="evenodd" clip-rule="evenodd" d="M434.608 1430.33C424.128 1426.71 416.704 1421.21 410.543 1411.59C376.681 1358.68 342.068 1306.26 307.609 1253.75C304.23 1248.59 301.789 1242.69 294.433 1237.19C294.757 1251.75 289.364 1264.96 295.048 1275.34C308.019 1298.99 320.563 1323.33 337.733 1344.2C361.098 1372.6 386.324 1399.47 410.645 1427.08C415.185 1432.26 420.357 1436.28 426.416 1439.58C477.294 1467.23 528.086 1495.08 578.862 1522.92C585.655 1526.64 592.686 1529.69 600.025 1532.24C733.612 1578.28 867.165 1624.49 1000.73 1670.6C1035.3 1682.53 1069.87 1694.36 1104.27 1706.15C1117.77 1695.98 1132.27 1688.71 1145.13 1677.45C1142.46 1676.17 1141.25 1675.43 1139.95 1674.99C904.867 1593.39 669.763 1511.76 434.608 1430.33Z" fill="black"/>
<path fill-rule="evenodd" clip-rule="evenodd" d="M1639.09 797.417C1640.21 796.939 1641.37 796.461 1642.52 795.983C1638.95 783.302 1640.4 769.87 1631.9 757.821C1565.27 663.506 1499.03 568.901 1432.9 474.211C1428.05 467.299 1422.33 464.124 1414.14 462.605C1344.3 449.736 1274.54 436.441 1204.77 423.316C1125.02 408.314 1045.24 393.38 965.504 378.36C875.798 361.464 786.057 344.601 696.385 327.551C676.877 323.847 652.897 328.745 634.259 341.461C896.773 392.697 1158.71 443.848 1419.31 494.726C1493.3 596.636 1566.18 697.026 1639.09 797.417Z" fill="black"/>
<path fill-rule="evenodd" clip-rule="evenodd" d="M1630.06 731.909C1629.71 708.953 1620.03 689.736 1608.63 672.156C1553.99 587.809 1498.29 504.161 1443.18 420.121C1439.32 414.25 1434.54 411.724 1427.97 410.581C1337.48 394.93 1246.99 379.313 1156.56 363.389C1032.33 341.543 908.026 319.987 783.98 296.997C760.546 292.645 742.165 301.673 722.367 310.856C958.512 353.831 1194.64 396.79 1431.5 439.885C1497.54 537.033 1563.81 634.471 1630.06 731.909Z" fill="black"/>
<path fill-rule="evenodd" clip-rule="evenodd" d="M1554.98 564.546C1556.02 563.897 1557.03 563.266 1558.07 562.617C1532.88 490.593 1488.21 429.252 1448.67 364.328C1375.36 352.415 1301.9 340.604 1228.5 328.52C1107.37 308.586 986.19 288.941 865.25 267.999C842.96 264.142 825.347 272.454 806.538 281.602C1018.75 317.648 1230.99 353.712 1442.73 389.69C1480.43 448.436 1517.72 506.5 1554.98 564.546Z" fill="black"/>
<path fill-rule="evenodd" clip-rule="evenodd" d="M1454.37 336.1C1453.28 335.758 1451.95 335.229 1450.57 334.973C1361.97 317.701 1273.34 300.446 1184.73 283.242C1107.92 268.325 1031.03 253.988 953.718 241.853C929.67 238.082 907.994 240.334 884.527 253.135C1076.42 283.617 1266.14 313.776 1455.98 343.934C1456.88 341.51 1456.78 338.779 1454.37 336.1Z" fill="black"/>
<path fill-rule="evenodd" clip-rule="evenodd" d="M1055.85 1729.11C979.699 1702.96 903.493 1676.95 827.39 1650.67C822.116 1648.86 817.132 1648.3 809.827 1649.15C869.7 1681.85 927.661 1713.39 985.468 1745.17C997.415 1751.76 1010.01 1756.11 1023.44 1759.59C1036.6 1750.75 1049.62 1742.03 1062.54 1733.38C1060.65 1729.59 1057.94 1729.83 1055.85 1729.11Z" fill="black"/>
</mask>
<g mask="url(#mask1)">
<path d="M595.043 2614.38L1572.82 3091.98L2636.51 908.6L908.589 1828.66L595.043 2614.38Z" fill="#6AEDCB"/>
<path d="M1047.97 1835.6C1284.05 1665.56 1507.85 1779.35 1720.22 1748.22C1855.52 1728.4 1978.18 1655.76 2073.25 1557.57C2223.23 1402.67 2293.83 1170.76 2478.91 1060.15C2515.1 1038.46 2555.35 1021.91 2584.81 991.781C2607.67 968.427 2622.52 938.441 2636.83 909.075L3224.52 -290.43C2944.35 -283.899 2698.97 -111.226 2474.11 55.9387C1521.72 763.695 585.919 1498.78 -429.863 2112.27L595.5 2614.67C671.209 2651.68 804.34 2266.31 815.99 2233.12C869.068 2080.92 924.347 1943.94 1047.97 1835.6Z" fill="#30C7FF"/>
<path d="M-393.746 2131.21C-393.746 2131.21 -187.873 2044.92 -37.3527 2036.66C113.168 2028.4 359.406 1980.61 519.881 1869.44C680.355 1758.26 772.682 1639.68 864.389 1443.22C956.097 1246.75 1157.33 1099.48 1382.14 1071.39C1606.93 1043.4 2042.08 1113.86 2224.23 767.632C2406.39 421.404 2541.79 -106.954 3209.5 -263.269L3905.38 -1681.15L3716.1 -1773.63L-908.259 1632.45L-1089.14 1790.93L-393.746 2131.21Z" fill="#6C5DFE"/>
<path d="M-692.531 1985.2C-692.531 1985.2 -525.869 1890.53 -370.014 1611.25C-282.264 1454.13 -178.893 1304.93 -37.9794 1190.66C176.367 1017 445.928 950.9 717.152 947.276C754.59 946.725 791.461 948.545 828.681 943.815C898.903 934.771 967.546 915.803 1032.5 887.636C1221.34 805.472 1359.93 614.642 1497.92 371.784C1635.91 128.927 1906.07 -159.069 2143.73 -288.474C2381.49 -417.859 2573.15 -492.234 2920.01 -620.074C3266.88 -747.913 3663.6 -924.551 3857.22 -1704.61L3178.93 -2036.07L-239.623 52.6893L-1089.29 1791.21L-692.531 1985.2Z" fill="#C908A4"/>
<path d="M-389.796 360.075C-389.796 360.075 -142.581 131.919 280.681 125.502C703.944 119.086 848.71 338.442 1257.43 -127.466C1666.14 -593.374 1669.19 -798.664 2020.71 -1001.71C2372.22 -1204.75 2620.73 -1264.2 2936.75 -1355.35C3252.78 -1446.5 3414.26 -1486.02 3585.92 -1837.3L2699 -2270.7L-15.1952 -406.793L-389.796 360.075Z" fill="#D60A99"/>
<path d="M2928.94 -2158.19C2731.13 -2110.56 2499.55 -2060 2351.35 -1873.94C2203.14 -1687.89 2037.2 -1484.61 1841.26 -1334.76C1645.31 -1184.9 1496.99 -1212.3 1289.86 -1119.55C1082.82 -1026.77 900.87 -773.256 788.235 -595.663C675.6 -418.071 549.07 -344.117 357.794 -243.609C166.517 -143.102 -129.955 -171.707 -129.955 -171.707L301.001 -1053.53L780.837 -1691.48L2135.78 -2545.88L2928.94 -2158.19Z" fill="#F005C4"/>
</g>
<circle cx="1000" cy="1000" r="546.875" fill="white"/>
<path d="M914.528 1306C908.133 1306 902.609 1303.67 897.957 1299.02C893.306 1294.36 890.98 1288.83 890.98 1282.43V1110.48L694.744 722.059C693.581 719.731 693 717.112 693 714.203C693 708.966 694.744 704.601 698.233 701.11C702.303 697.037 706.955 695 712.187 695H876.153C886.038 695 893.887 697.619 899.702 702.856C906.098 707.511 910.458 712.166 912.784 716.821L1000 892.266L1087.22 716.821C1089.54 712.166 1093.61 707.511 1099.43 702.856C1105.82 697.619 1113.96 695 1123.85 695H1287.81C1293.05 695 1297.41 697.037 1300.89 701.11C1304.96 704.601 1307 708.966 1307 714.203C1307 717.112 1306.42 719.731 1305.26 722.059L1109.02 1110.48V1282.43C1109.02 1288.83 1106.69 1294.36 1102.04 1299.02C1097.39 1303.67 1091.87 1306 1085.47 1306H914.528Z" fill="black"/>
</svg>
