<svg width="1957" height="1957" viewBox="0 0 1957 1957" fill="none" xmlns="http://www.w3.org/2000/svg">
<mask id="mask0" mask-type="alpha" maskUnits="userSpaceOnUse" x="0" y="0" width="1957" height="1957">
<circle cx="978.308" cy="978.691" r="978.308" fill="black"/>
</mask>
<g mask="url(#mask0)">
<path d="M676.111 3147.81L1689.34 3419.09L2292.47 1157.05L827.651 2346.57L676.111 3147.81Z" fill="#6AEDCB"/>
<path d="M960.796 2327.39C1152.74 2122.92 1385.48 2189.25 1580.65 2120.57C1705 2076.84 1807.62 1985.47 1879.43 1875.01C1992.72 1700.78 2016.68 1468.33 2171.35 1329.51C2201.58 1302.31 2236.61 1279.23 2258.91 1245.28C2276.23 1218.96 2284.74 1187.85 2292.86 1157.43L2627.34 -85.9062C2363.49 -27.9904 2163.23 180.683 1981.37 380.356C1211.05 1225.81 461.467 2094.06 -386.237 2862.03L676.597 3147.99C755.058 3169.02 809.843 2779.85 814.735 2746.3C836.844 2592.51 863.846 2452.71 960.796 2327.39Z" fill="#30C7FF"/>
<path d="M-348.571 2873.28C-348.571 2873.28 -169.736 2753.63 -28.8596 2718.02C112.017 2682.41 336.147 2591.72 467.436 2456.91C598.725 2322.1 664.174 2192.86 714.655 1990.06C765.135 1787.26 928.317 1610.77 1135.82 1542.68C1343.32 1474.69 1768 1460.99 1876.4 1099.8C1984.79 738.608 2015.32 213.746 2618.15 -57.4414L3014.66 -1527.35L2818.51 -1579.88L-927.436 2496.43L-1069.29 2679.77L-348.571 2873.28Z" fill="#6C5DFE"/>
<path d="M-658.207 2790.33C-658.207 2790.33 -518.016 2670 -422.141 2376.99C-368.139 2212.15 -297.896 2051.9 -185.684 1917.77C-14.9692 1713.89 227.847 1601.58 483.772 1548.07C519.089 1540.64 554.308 1535.55 588.647 1524.2C653.411 1502.68 714.849 1472.06 771.101 1433.41C934.577 1320.81 1030.45 1114.68 1116.15 859.44C1201.85 604.199 1404.26 281.846 1605.21 115.534C1806.25 -50.7784 1973.83 -156.534 2278.38 -341.532C2582.93 -526.53 2925.63 -766.9 2964.76 -1540.64L2261.85 -1728.97L-586.595 878.419L-1069.39 2680.07L-658.207 2790.33Z" fill="#A20ED3"/>
<path d="M-671.902 1196.95C-671.902 1196.95 -480.154 935.451 -80.9063 851.219C318.341 766.986 495.807 947.778 796.441 431.524C1097.07 -84.729 1062.05 -279.51 1357.11 -536.512C1652.17 -793.513 1876.3 -895.649 2158.44 -1040.24C2440.59 -1184.84 2586.06 -1252.05 2683.6 -1616.08L1764.48 -1862.32L-459.12 402.273L-671.902 1196.95Z" fill="#D60A99"/>
<path d="M2002.79 -1798.34C1824.45 -1716.75 1614.7 -1626.16 1508.85 -1422.77C1402.99 -1219.38 1283.54 -996.419 1125.84 -818.465C968.136 -640.51 822.759 -639.043 643.924 -513.037C465.187 -387.031 339.866 -113.593 266.102 75.2202C192.337 264.034 86.2884 357.364 -76.1108 487.773C-238.51 618.181 -524.274 645.867 -524.274 645.867L-279.403 -267.97L56.7435 -960.124L1180.82 -2018.65L2002.79 -1798.34Z" fill="#F005C4"/>
<path d="M-369.995 69.8459C-368.332 63.5847 -342.113 50.4753 -336.928 46.562C-306.503 24.061 -277.741 -0.494629 -250.739 -26.9089C-142.049 -133.74 -120.82 -257.985 -93.7208 -401.21C-75.0351 -500.41 -65.3499 -651.167 6.45795 -729.628C77.4831 -807.208 137.453 -872.461 385.552 -933.312C539.734 -971.074 698.415 -1027.91 817.671 -1139.73C955.906 -1269.26 992.104 -1451.42 1071.74 -1617.05C1136.7 -1752.06 1228.85 -1894.79 1362.39 -1969.93L256.024 -2266.35L-369.995 69.8459Z" fill="#FF744B"/>
</g>
<circle cx="978.308" cy="978.7" r="882.434" fill="white"/>
<mask id="mask1" mask-type="alpha" maskUnits="userSpaceOnUse" x="95" y="96" width="1766" height="1766">
<circle cx="978.308" cy="978.7" r="882.434" fill="white"/>
</mask>
<g mask="url(#mask1)">
<path d="M609.722 807.412L717.805 643.544L801.547 739.184L609.722 807.412Z" fill="#E1F5FE"/>
<path d="M857.68 933.052L609.719 807.408L801.543 739.18L857.68 933.052Z" fill="#81D4FA"/>
<path d="M980.255 777.216L801.545 739.183L857.682 933.055L980.255 777.216Z" fill="#64B5F6"/>
<path d="M1350.79 807.408L1242.71 643.539L1158.96 739.18L1350.79 807.408Z" fill="#0288D1"/>
<path d="M1102.83 933.051L1350.79 807.407L1158.96 739.179L1102.83 933.051Z" fill="#81D4FA"/>
<path d="M980.255 777.215L1158.97 739.182L1102.83 933.054L980.255 777.215Z" fill="#E1F5FE"/>
<path d="M1102.83 933.055L980.256 777.215L857.682 933.055L1102.83 933.055Z" fill="#B2EBF2"/>
<path d="M850.769 573.208L1109.73 573.208L1242.7 643.547L1158.96 739.187L980.252 777.219L801.542 739.187L717.8 643.547L850.769 573.208Z" fill="#B3E5FC"/>
<path d="M980.254 1174.23L609.719 807.408L857.68 933.052L980.254 1174.23Z" fill="#1E88E5"/>
<path d="M980.253 1174.22L1350.79 807.399L1102.83 933.043L980.253 1174.22Z" fill="#B3E5FC"/>
<path d="M1102.83 933.044L980.253 1174.22L857.679 933.044L1102.83 933.044Z" fill="#E1F5FE"/>
<path d="M745.961 1517.51C787.014 1516.02 819.919 1468.75 823.029 1459.17C826.263 1451.83 829.125 1445.17 831.675 1439.26C836.527 1428.25 841.876 1415.81 847.288 1403C849.589 1397.59 850.646 1395.1 850.646 1395.1L850.584 1395.16C870.364 1348.32 890.207 1299.5 890.207 1299.5C894.063 1291.22 888.403 1281.83 878.948 1280.59C851.579 1277.04 830.555 1289.48 819.173 1313.18L796.034 1367.54C793.857 1374.01 783.842 1373.76 782.287 1367.11C776.502 1342.29 779.239 1294.52 779.239 1294.52C778.057 1272.75 786.019 1143.43 787.201 1135.35C789.502 1119.98 782.598 1104.74 768.478 1103.06C754.048 1101.32 742.105 1108.97 739.804 1126.14C739.119 1131.12 725.186 1264.72 725.186 1264.72C725.248 1272.31 717.1 1273.74 716.54 1265.97C715.296 1248.61 711.191 1103.56 711.44 1096.1C711.937 1080.55 703.354 1066.12 689.109 1065.87C674.554 1065.62 663.545 1074.39 663.234 1091.68C663.171 1097.15 661.43 1215.09 661.181 1261.43C661.181 1264.54 658.631 1267.03 655.334 1267.27C655.272 1267.27 655.272 1267.27 655.21 1267.27C652.1 1267.46 649.363 1265.35 649.052 1262.42C643.765 1219.57 636.487 1126.7 636.3 1119.92C635.865 1104.37 626.473 1090.44 612.228 1090.93C597.673 1091.43 587.223 1100.82 587.97 1118.05C588.219 1123.28 592.946 1220.81 595.558 1268.15C595.745 1271.69 593.195 1274.74 589.525 1275.55C589.463 1275.55 589.401 1275.55 589.401 1275.61C585.109 1276.6 580.817 1274.05 579.821 1270.01C571.175 1235.24 561.596 1191.89 560.663 1186.6C558.113 1171.24 546.855 1158.55 532.797 1160.79C518.429 1163.09 509.347 1173.66 512.457 1190.64C513.453 1196.18 526.079 1275.98 535.347 1314.73C537.338 1323.01 538.706 1331.47 539.515 1339.93C542.874 1375.75 545.238 1392.36 545.238 1392.36C551.831 1488.15 598.606 1515.15 668.21 1518.38L745.961 1517.51Z" fill="#FAC036"/>
<path d="M766.295 1607.99C766.295 1607.99 762.936 1535.52 783.462 1503.86C776.496 1503.86 593.686 1488.62 585.475 1488.62C599.408 1492.61 591.757 1607.93 591.757 1607.93H766.295V1607.99Z" fill="#FAC036"/>
<path d="M745.783 1522.42L668.285 1523.23C647.864 1522.26 628.468 1519.23 612.14 1513.27L762.678 1519.23C756.905 1521.06 751.086 1522.22 745.783 1522.42Z" fill="#FAC036" stroke="#E39E49" stroke-width="15" stroke-miterlimit="10"/>
<path d="M1291.53 1518.29C1361.14 1515.12 1407.97 1488.06 1414.51 1392.27C1414.51 1392.27 1416.87 1375.67 1420.23 1339.84C1421.04 1331.38 1422.41 1322.92 1424.4 1314.65C1433.66 1275.89 1446.29 1196.09 1447.29 1190.55C1450.4 1173.51 1441.31 1162.94 1426.95 1160.7C1412.89 1158.46 1401.63 1171.15 1399.08 1186.51C1398.21 1191.8 1388.63 1235.15 1379.92 1269.92C1378.93 1273.97 1374.63 1276.52 1370.34 1275.52C1370.28 1275.52 1370.22 1275.52 1370.22 1275.46C1366.55 1274.65 1364 1271.54 1364.18 1268.06C1366.8 1220.72 1371.52 1123.19 1371.77 1117.97C1372.52 1100.67 1362.07 1091.34 1347.51 1090.85C1333.27 1090.35 1323.82 1104.28 1323.44 1119.83C1323.26 1126.61 1315.98 1219.48 1310.69 1262.34C1310.32 1265.26 1307.64 1267.37 1304.53 1267.19C1304.47 1267.19 1304.47 1267.19 1304.41 1267.19C1301.11 1267 1298.56 1264.45 1298.56 1261.34C1298.31 1215 1296.63 1097.13 1296.51 1091.59C1296.2 1074.3 1285.25 1065.53 1270.63 1065.78C1256.39 1066.03 1247.81 1080.46 1248.3 1096.01C1248.55 1103.41 1244.51 1248.46 1243.2 1265.88C1242.64 1273.66 1234.43 1272.23 1234.56 1264.64C1234.56 1264.64 1220.56 1131.03 1219.94 1126.05C1217.7 1108.88 1205.76 1101.3 1191.27 1102.98C1177.08 1104.65 1170.24 1119.89 1172.54 1135.26C1173.66 1143.34 1181.62 1272.72 1180.44 1294.49C1180.44 1294.49 1183.18 1342.26 1177.39 1367.08C1175.84 1373.74 1165.82 1373.99 1163.65 1367.52L1140.51 1313.15C1129.13 1289.45 1108.1 1277.01 1080.73 1280.56C1071.22 1281.8 1065.62 1291.2 1069.47 1299.47C1069.47 1299.47 1089.32 1348.3 1109.1 1395.14L1109.03 1395.07C1109.03 1395.07 1110.09 1397.56 1112.39 1402.97C1117.81 1415.79 1123.15 1428.23 1128.01 1439.24C1130.56 1445.21 1133.48 1451.8 1136.65 1459.14C1139.76 1468.78 1172.67 1515.99 1213.72 1517.49L1291.53 1518.29Z" fill="#FAC036"/>
<path d="M1193.38 1607.99C1193.38 1607.99 1196.74 1535.52 1176.22 1503.86C1183.18 1503.86 1365.99 1488.62 1374.2 1488.62C1360.27 1492.61 1367.92 1607.93 1367.92 1607.93H1193.38V1607.99Z" fill="#FAC036"/>
<path d="M1213.9 1522.42C1208.6 1522.22 1202.78 1521.06 1197 1519.23L1347.59 1513.27C1331.27 1519.23 1311.86 1522.26 1291.4 1523.23L1213.9 1522.42Z" fill="#FAC036" stroke="#E39E49" stroke-width="15" stroke-miterlimit="10"/>
<path fill-rule="evenodd" clip-rule="evenodd" d="M818.988 288.615C826.455 286.615 834.128 291.047 836.128 298.514L878.57 457.007C880.57 464.474 876.138 472.148 868.671 474.147C861.205 476.147 853.531 471.715 851.531 464.248L809.089 305.755C807.089 298.288 811.521 290.614 818.988 288.615Z" fill="#444444"/>
<path fill-rule="evenodd" clip-rule="evenodd" d="M536.939 451.449C542.405 445.983 551.267 445.983 556.732 451.449L672.783 567.5C678.249 572.965 678.249 581.827 672.783 587.293C667.317 592.759 658.456 592.759 652.99 587.293L536.939 471.242C531.473 465.776 531.473 456.915 536.939 451.449Z" fill="#444444"/>
<path fill-rule="evenodd" clip-rule="evenodd" d="M1426.71 451.449C1432.17 456.915 1432.17 465.776 1426.71 471.242L1310.65 587.293C1305.19 592.759 1296.33 592.759 1290.86 587.293C1285.4 581.827 1285.4 572.965 1290.86 567.5L1406.91 451.449C1412.38 445.983 1421.24 445.983 1426.71 451.449Z" fill="#444444"/>
<path fill-rule="evenodd" clip-rule="evenodd" d="M1144.65 288.615C1152.12 290.614 1156.55 298.288 1154.55 305.755L1112.11 464.248C1110.11 471.715 1102.44 476.147 1094.97 474.147C1087.5 472.148 1083.07 464.474 1085.07 457.007L1127.51 298.514C1129.51 291.047 1137.19 286.615 1144.65 288.615Z" fill="#444444"/>
</g>
</svg>
