<svg width="2000" height="2000" viewBox="0 0 2000 2000" fill="none" xmlns="http://www.w3.org/2000/svg">
<mask id="mask0" mask-type="alpha" maskUnits="userSpaceOnUse" x="0" y="0" width="2000" height="2000">
<circle cx="1000" cy="1000" r="1000" fill="black"/>
</mask>
<g mask="url(#mask0)">
<path d="M231.102 3627.2L1266.8 3904.5L1883.3 1592.3L386.002 2808.2L231.102 3627.2Z" fill="#6AEDCB"/>
<path d="M522.099 2788.6C718.299 2579.6 956.199 2647.4 1155.7 2577.2C1282.8 2532.5 1387.7 2439.1 1461.1 2326.2C1576.9 2148.1 1601.4 1910.5 1759.5 1768.6C1790.4 1740.8 1826.2 1717.2 1849 1682.5C1866.7 1655.6 1875.4 1623.8 1883.7 1592.7L2225.6 321.8C1955.9 381 1751.2 594.3 1565.3 798.4C777.899 1662.6 11.6992 2550.1 -854.801 3335.1L231.599 3627.4C311.799 3648.9 367.799 3251.1 372.799 3216.8C395.399 3059.6 422.999 2916.7 522.099 2788.6Z" fill="#30C7FF"/>
<path d="M-816.3 3346.6C-816.3 3346.6 -633.5 3224.3 -489.5 3187.9C-345.5 3151.5 -116.4 3058.8 17.8 2921C152 2783.2 218.9 2651.1 270.5 2443.8C322.1 2236.5 488.9 2056.1 701 1986.5C913.1 1917 1347.2 1903 1458 1533.8C1568.8 1164.6 1600 628.1 2216.2 350.9L2621.5 -1151.6L2421 -1205.3L-1408 2961.4L-1553 3148.8L-816.3 3346.6Z" fill="#6C5DFE"/>
<path d="M-1132.8 3261.8C-1132.8 3261.8 -989.502 3138.8 -891.502 2839.3C-836.302 2670.8 -764.502 2507 -649.802 2369.9C-475.302 2161.5 -227.102 2046.7 34.4984 1992C70.5984 1984.4 106.598 1979.2 141.698 1967.6C207.898 1945.6 270.698 1914.3 328.198 1874.8C495.298 1759.7 593.298 1549 680.898 1288.1C768.498 1027.2 975.399 697.7 1180.8 527.7C1386.3 357.7 1557.6 249.6 1868.9 60.5C2180.2 -128.6 2530.5 -374.3 2570.5 -1165.2L1852 -1357.7L-1059.6 1307.5L-1553.1 3149.1L-1132.8 3261.8Z" fill="#A20ED3"/>
<path d="M-1146.8 1633.1C-1146.8 1633.1 -950.801 1365.8 -542.701 1279.7C-134.601 1193.6 46.7993 1378.4 354.099 850.7C661.399 323 625.599 123.9 927.199 -138.8C1228.8 -401.5 1457.9 -505.9 1746.3 -653.7C2034.7 -801.5 2183.4 -870.2 2283.1 -1242.3L1343.6 -1494L-929.301 820.8L-1146.8 1633.1Z" fill="#D60A99"/>
<path d="M1587.2 -1428.6C1404.9 -1345.2 1190.5 -1252.6 1082.3 -1044.7C974.102 -836.8 852.002 -608.9 690.802 -427C529.602 -245.1 381.002 -243.6 198.202 -114.8C15.5015 14.0002 -112.598 293.5 -187.998 486.5C-263.398 679.5 -371.798 774.9 -537.798 908.2C-703.798 1041.5 -995.898 1069.8 -995.898 1069.8L-745.598 135.7L-401.998 -571.8L747.002 -1653.8L1587.2 -1428.6Z" fill="#F005C4"/>
<path d="M-838.199 481C-836.499 474.6 -809.699 461.2 -804.399 457.2C-773.299 434.2 -743.899 409.1 -716.299 382.1C-605.199 272.9 -583.499 145.9 -555.799 -0.5C-536.699 -101.9 -526.799 -256 -453.399 -336.2C-380.799 -415.5 -319.499 -482.2 -65.8992 -544.4C91.7008 -583 253.901 -641.1 375.801 -755.4C517.101 -887.8 554.101 -1074 635.501 -1243.3C701.901 -1381.3 796.101 -1527.2 932.601 -1604L-198.299 -1907L-838.199 481Z" fill="#FF744B"/>
</g>
<circle cx="1000" cy="1000" r="781" fill="white"/>
<path d="M947.312 1527.53C939.5 1527.53 932.469 1524.8 926.219 1519.33C920.75 1513.86 918.016 1506.83 918.016 1498.23V1416.2C859.422 1409.17 809.422 1394.72 768.016 1372.84C727.391 1350.19 696.531 1322.45 675.438 1289.64C655.125 1256.83 644.187 1222.06 642.625 1185.34C642.625 1178.31 644.969 1172.45 649.656 1167.77C655.125 1163.08 661.375 1160.73 668.406 1160.73H824.266C834.422 1160.73 842.234 1162.3 847.703 1165.42C853.172 1168.55 859.422 1174.02 866.453 1181.83C890.672 1224.8 935.203 1246.28 1000.05 1246.28C1042.23 1246.28 1074.66 1240.03 1097.31 1227.53C1120.75 1214.25 1132.47 1196.28 1132.47 1173.62C1132.47 1157.22 1126.22 1143.94 1113.72 1133.78C1102 1122.84 1083.25 1113.47 1057.47 1105.66C1032.47 1097.06 995.359 1087.69 946.141 1077.53C851.609 1058.78 780.906 1030.27 734.031 991.984C687.156 953.703 663.719 899.016 663.719 827.922C663.719 764.641 686.375 711.125 731.688 667.375C777 622.844 839.109 595.109 918.016 584.172V502.141C918.016 493.547 920.75 486.516 926.219 481.047C932.469 475.578 939.5 472.844 947.312 472.844H1049.27C1057.86 472.844 1064.89 475.578 1070.36 481.047C1075.83 486.516 1078.56 493.547 1078.56 502.141V586.516C1130.13 595.891 1174.66 612.687 1212.16 636.906C1249.66 660.344 1278.17 687.687 1297.7 718.937C1318.02 749.406 1328.95 779.094 1330.52 808C1330.52 815.031 1328.17 821.281 1323.48 826.75C1318.8 831.438 1312.94 833.781 1305.91 833.781H1141.84C1123.88 833.781 1110.59 826.75 1102 812.687C1097.31 796.281 1084.81 782.609 1064.5 771.672C1044.97 759.953 1021.14 754.094 993.016 754.094C960.203 754.094 934.813 759.953 916.844 771.672C898.875 783.391 889.891 800.578 889.891 823.234C889.891 845.891 901.609 863.859 925.047 877.141C948.484 889.641 991.844 902.531 1055.13 915.812C1128.56 929.094 1187.16 945.891 1230.91 966.203C1274.66 985.734 1306.69 1011.52 1327 1043.55C1347.31 1074.8 1357.47 1114.64 1357.47 1163.08C1357.47 1231.83 1332.08 1288.47 1281.3 1333C1231.3 1377.53 1163.72 1405.27 1078.56 1416.2V1498.23C1078.56 1506.83 1075.83 1513.86 1070.36 1519.33C1064.89 1524.8 1057.86 1527.53 1049.27 1527.53H947.312Z" fill="black"/>
<path d="M1505.46 1133C1502.36 1133 1499.57 1131.91 1497.09 1129.72C1494.92 1127.23 1493.84 1124.42 1493.84 1121.3V1036.56H1412.05C1408.96 1036.56 1406.17 1035.47 1403.69 1033.28C1401.52 1030.78 1400.44 1027.98 1400.44 1024.85V988.805C1400.44 985.372 1401.52 982.563 1403.69 980.378C1405.86 977.881 1408.65 976.633 1412.05 976.633H1493.84V894.704C1493.84 891.271 1494.92 888.462 1497.09 886.277C1499.57 884.092 1502.36 883 1505.46 883H1545.42C1548.83 883 1551.61 884.092 1553.78 886.277C1556.26 888.462 1557.5 891.271 1557.5 894.704V976.633H1638.36C1641.76 976.633 1644.55 977.881 1646.72 980.378C1649.2 982.563 1650.44 985.372 1650.44 988.805V1024.85C1650.44 1028.29 1649.2 1031.1 1646.72 1033.28C1644.55 1035.47 1641.76 1036.56 1638.36 1036.56H1557.5V1121.3C1557.5 1124.73 1556.26 1127.54 1553.78 1129.72C1551.61 1131.91 1548.83 1133 1545.42 1133H1505.46Z" fill="black"/>
<path d="M454.675 1133C451.577 1133 448.789 1131.91 446.311 1129.72C444.142 1127.23 443.058 1124.42 443.058 1121.3V1036.56H361.273C358.175 1036.56 355.387 1035.47 352.909 1033.28C350.741 1030.78 349.656 1027.98 349.656 1024.85V988.805C349.656 985.372 350.741 982.563 352.909 980.378C355.078 977.881 357.866 976.633 361.273 976.633H443.058V894.704C443.058 891.271 444.142 888.462 446.311 886.277C448.789 884.092 451.577 883 454.675 883H494.638C498.045 883 500.833 884.092 503.002 886.277C505.48 888.462 506.719 891.271 506.719 894.704V976.633H587.574C590.982 976.633 593.77 977.881 595.939 980.378C598.417 982.563 599.656 985.372 599.656 988.805V1024.85C599.656 1028.29 598.417 1031.1 595.939 1033.28C593.77 1035.47 590.982 1036.56 587.574 1036.56H506.719V1121.3C506.719 1124.73 505.48 1127.54 503.002 1129.72C500.833 1131.91 498.045 1133 494.638 1133H454.675Z" fill="black"/>
</svg>
