<svg width="2000" height="2000" viewBox="0 0 2000 2000" fill="none" xmlns="http://www.w3.org/2000/svg">
<mask id="mask0" mask-type="alpha" maskUnits="userSpaceOnUse" x="0" y="0" width="2000" height="2000">
<circle cx="1000" cy="1000" r="1000" fill="black"/>
</mask>
<g mask="url(#mask0)">
<path d="M691.102 3217.2L1726.8 3494.5L2343.3 1182.3L846.002 2398.2L691.102 3217.2Z" fill="#6AEDCB"/>
<path d="M982.099 2378.6C1178.3 2169.6 1416.2 2237.4 1615.7 2167.2C1742.8 2122.5 1847.7 2029.1 1921.1 1916.2C2036.9 1738.1 2061.4 1500.5 2219.5 1358.6C2250.4 1330.8 2286.2 1307.2 2309 1272.5C2326.7 1245.6 2335.4 1213.8 2343.7 1182.7L2685.6 -88.2002C2415.9 -29.0002 2211.2 184.3 2025.3 388.4C1237.9 1252.6 471.699 2140.1 -394.801 2925.1L691.599 3217.4C771.799 3238.9 827.799 2841.1 832.799 2806.8C855.399 2649.6 882.999 2506.7 982.099 2378.6Z" fill="#30C7FF"/>
<path d="M-356.3 2936.6C-356.3 2936.6 -173.5 2814.3 -29.5 2777.9C114.5 2741.5 343.6 2648.8 477.8 2511C612 2373.2 678.9 2241.1 730.5 2033.8C782.1 1826.5 948.9 1646.1 1161 1576.5C1373.1 1507 1807.2 1493 1918 1123.8C2028.8 754.6 2060 218.1 2676.2 -59.0999L3081.5 -1561.6L2881 -1615.3L-948 2551.4L-1093 2738.8L-356.3 2936.6Z" fill="#6C5DFE"/>
<path d="M-672.802 2851.8C-672.802 2851.8 -529.502 2728.8 -431.502 2429.3C-376.302 2260.8 -304.502 2097 -189.802 1959.9C-15.3015 1751.5 232.898 1636.7 494.498 1582C530.598 1574.4 566.598 1569.2 601.698 1557.6C667.898 1535.6 730.698 1504.3 788.198 1464.8C955.298 1349.7 1053.3 1139 1140.9 878.1C1228.5 617.2 1435.4 287.7 1640.8 117.7C1846.3 -52.3002 2017.6 -160.4 2328.9 -349.5C2640.2 -538.6 2990.5 -784.3 3030.5 -1575.2L2312 -1767.7L-599.602 897.5L-1093.1 2739.1L-672.802 2851.8Z" fill="#A20ED3"/>
<path d="M-686.801 1223.1C-686.801 1223.1 -490.801 955.8 -82.7008 869.7C325.399 783.6 506.799 968.4 814.099 440.7C1121.4 -87 1085.6 -286.1 1387.2 -548.8C1688.8 -811.5 1917.9 -915.9 2206.3 -1063.7C2494.7 -1211.5 2643.4 -1280.2 2743.1 -1652.3L1803.6 -1904L-469.301 410.8L-686.801 1223.1Z" fill="#D60A99"/>
<path d="M2047.2 -1838.6C1864.9 -1755.2 1650.5 -1662.6 1542.3 -1454.7C1434.1 -1246.8 1312 -1018.9 1150.8 -837C989.602 -655.1 841.002 -653.6 658.202 -524.8C475.502 -396 347.402 -116.5 272.002 76.5002C196.602 269.5 88.2015 364.9 -77.7984 498.2C-243.798 631.5 -535.898 659.8 -535.898 659.8L-285.598 -274.3L58.0016 -981.8L1207 -2063.8L2047.2 -1838.6Z" fill="#F005C4"/>
<path d="M-378.199 71C-376.499 64.6001 -349.699 51.2 -344.399 47.2C-313.299 24.2 -283.899 -0.900146 -256.299 -27.9001C-145.199 -137.1 -123.499 -264.1 -95.7992 -410.5C-76.6992 -511.9 -66.7992 -666 6.60077 -746.2C79.2008 -825.5 140.501 -892.2 394.101 -954.4C551.701 -993 713.901 -1051.1 835.801 -1165.4C977.101 -1297.8 1014.1 -1484 1095.5 -1653.3C1161.9 -1791.3 1256.1 -1937.2 1392.6 -2014L261.701 -2317L-378.199 71Z" fill="#FF744B"/>
</g>
<circle cx="1000" cy="1000" r="902" fill="white"/>
<path d="M665.778 1286.48C655.956 1286.48 648.239 1284.38 642.626 1280.17C637.715 1275.26 633.506 1268.6 629.998 1260.19L431.105 772.126L429 762.659C429 756.348 431.105 751.089 435.314 746.882C440.225 741.973 446.188 739.519 453.204 739.519H572.119C587.553 739.519 597.726 746.881 602.637 761.607L721.552 1084.53L841.519 761.607C846.43 746.881 856.603 739.519 872.037 739.519H990.952C997.266 739.519 1002.88 741.973 1007.79 746.882C1012.7 751.089 1015.16 756.348 1015.16 762.659L1013.05 772.126L814.158 1260.19C810.651 1268.6 806.09 1275.26 800.478 1280.17C794.865 1284.38 787.148 1286.48 777.326 1286.48H665.778Z" fill="black"/>
<path d="M1297.39 1297C1213.2 1297 1146.9 1274.21 1098.5 1228.63C1050.09 1183.05 1024.83 1116.78 1022.73 1029.83V993.015C1025.53 910.269 1051.14 845.756 1099.55 799.474C1148.66 752.491 1214.26 729 1296.34 729C1355.97 729 1406.13 741.272 1446.82 765.815C1488.22 789.657 1519.08 822.615 1539.43 864.689C1560.48 906.763 1571 955.148 1571 1009.84V1035.09C1571 1042.1 1568.54 1048.41 1563.63 1054.02C1558.72 1058.93 1552.41 1061.39 1544.69 1061.39H1207.94V1068.75C1209.34 1101.71 1217.41 1128.35 1232.14 1148.69C1246.88 1169.02 1268.28 1179.19 1296.34 1179.19C1313.88 1179.19 1328.26 1175.69 1339.48 1168.67C1350.71 1160.96 1360.88 1151.84 1370 1141.33C1376.32 1133.61 1381.23 1129.05 1384.73 1127.65C1388.94 1125.55 1395.26 1124.5 1403.68 1124.5H1534.17C1540.48 1124.5 1545.74 1126.6 1549.95 1130.81C1554.86 1134.31 1557.32 1139.22 1557.32 1145.53C1557.32 1163.77 1546.8 1184.8 1525.75 1208.64C1505.4 1232.49 1475.59 1253.17 1436.3 1270.7C1397.01 1288.23 1350.71 1297 1297.39 1297ZM1385.79 957.252V955.148C1385.79 920.788 1377.72 893.79 1361.58 874.156C1346.15 853.82 1324.4 843.652 1296.34 843.652C1268.98 843.652 1247.23 853.82 1231.09 874.156C1215.66 893.79 1207.94 920.788 1207.94 955.148V957.252H1385.79Z" fill="black"/>
</svg>
