<svg width="2000" height="2000" viewBox="0 0 2000 2000" fill="none" xmlns="http://www.w3.org/2000/svg">
<mask id="mask0" mask-type="alpha" maskUnits="userSpaceOnUse" x="0" y="0" width="2000" height="2000">
<circle cx="1000" cy="1000" r="1000" fill="black"/>
</mask>
<g mask="url(#mask0)">
<path d="M691.102 3217.2L1726.8 3494.5L2343.3 1182.3L846.002 2398.2L691.102 3217.2Z" fill="#6AEDCB"/>
<path d="M982.099 2378.6C1178.3 2169.6 1416.2 2237.4 1615.7 2167.2C1742.8 2122.5 1847.7 2029.1 1921.1 1916.2C2036.9 1738.1 2061.4 1500.5 2219.5 1358.6C2250.4 1330.8 2286.2 1307.2 2309 1272.5C2326.7 1245.6 2335.4 1213.8 2343.7 1182.7L2685.6 -88.2002C2415.9 -29.0002 2211.2 184.3 2025.3 388.4C1237.9 1252.6 471.699 2140.1 -394.801 2925.1L691.599 3217.4C771.799 3238.9 827.799 2841.1 832.799 2806.8C855.399 2649.6 882.999 2506.7 982.099 2378.6Z" fill="#30C7FF"/>
<path d="M-356.3 2936.6C-356.3 2936.6 -173.5 2814.3 -29.5 2777.9C114.5 2741.5 343.6 2648.8 477.8 2511C612 2373.2 678.9 2241.1 730.5 2033.8C782.1 1826.5 948.9 1646.1 1161 1576.5C1373.1 1507 1807.2 1493 1918 1123.8C2028.8 754.6 2060 218.1 2676.2 -59.0999L3081.5 -1561.6L2881 -1615.3L-948 2551.4L-1093 2738.8L-356.3 2936.6Z" fill="#6C5DFE"/>
<path d="M-672.802 2851.8C-672.802 2851.8 -529.502 2728.8 -431.502 2429.3C-376.302 2260.8 -304.502 2097 -189.802 1959.9C-15.3015 1751.5 232.898 1636.7 494.498 1582C530.598 1574.4 566.598 1569.2 601.698 1557.6C667.898 1535.6 730.698 1504.3 788.198 1464.8C955.298 1349.7 1053.3 1139 1140.9 878.1C1228.5 617.2 1435.4 287.7 1640.8 117.7C1846.3 -52.2999 2017.6 -160.4 2328.9 -349.5C2640.2 -538.6 2990.5 -784.3 3030.5 -1575.2L2312 -1767.7L-599.602 897.5L-1093.1 2739.1L-672.802 2851.8Z" fill="#A20ED3"/>
<path d="M-686.801 1223.1C-686.801 1223.1 -490.801 955.8 -82.7008 869.7C325.399 783.6 506.799 968.4 814.099 440.7C1121.4 -87.0001 1085.6 -286.1 1387.2 -548.8C1688.8 -811.5 1917.9 -915.9 2206.3 -1063.7C2494.7 -1211.5 2643.4 -1280.2 2743.1 -1652.3L1803.6 -1904L-469.301 410.8L-686.801 1223.1Z" fill="#D60A99"/>
<path d="M2047.2 -1838.6C1864.9 -1755.2 1650.5 -1662.6 1542.3 -1454.7C1434.1 -1246.8 1312 -1018.9 1150.8 -837C989.602 -655.1 841.002 -653.6 658.202 -524.8C475.502 -396 347.402 -116.5 272.002 76.5002C196.602 269.5 88.2016 364.9 -77.7984 498.2C-243.798 631.5 -535.898 659.8 -535.898 659.8L-285.598 -274.3L58.0016 -981.8L1207 -2063.8L2047.2 -1838.6Z" fill="#F005C4"/>
<path d="M-378.199 71C-376.499 64.6 -349.699 51.2 -344.399 47.2C-313.299 24.2 -283.899 -0.900146 -256.299 -27.9001C-145.199 -137.1 -123.499 -264.1 -95.7992 -410.5C-76.6992 -511.9 -66.7992 -666 6.60077 -746.2C79.2008 -825.5 140.501 -892.2 394.101 -954.4C551.701 -993 713.901 -1051.1 835.801 -1165.4C977.101 -1297.8 1014.1 -1484 1095.5 -1653.3C1161.9 -1791.3 1256.1 -1937.2 1392.6 -2014L261.701 -2317L-378.199 71Z" fill="#FF744B"/>
</g>
<circle cx="1000" cy="1000" r="902" fill="white"/>
<mask id="mask1" mask-type="alpha" maskUnits="userSpaceOnUse" x="529" y="259" width="943" height="1482">
<path fill-rule="evenodd" clip-rule="evenodd" d="M1472 850.264L1157.14 933.761L1086.92 606.974L1180.55 585.819L1217.46 740.66C1217.46 740.66 1302.53 601.123 1189.1 456.634C1124.07 384.382 1092.27 379.437 1021.59 368.447L1021.57 368.444C1019.6 368.138 1017.61 367.827 1015.58 367.511C949.634 358.058 796.368 380.339 750.681 559.262C731.326 674.492 753.157 759.79 901.696 871.42L893.369 995.653C893.369 995.653 727.5 878.847 684.739 796.925C651.655 732.108 594.94 604.049 697.342 425.801C752.482 336.678 861.186 251.155 1052.71 260.157C1149.04 264.208 1384.22 381.915 1347.77 656.938C1341.46 708.476 1314.68 777.12 1314.68 777.12L1443.87 748.312L1472 850.264ZM953.014 1474.58V538.332H1054.97V1474.58H953.014ZM932.532 1739.03C1123.61 1752.98 1234.56 1670.38 1292.18 1582.83C1399.08 1407.51 1345.74 1277.88 1314.68 1211.94C1274.17 1128.89 1111.46 1007.81 1111.46 1007.81L1099.75 1131.81C1245.14 1247.5 1264.72 1333.47 1242.44 1448.02C1192.03 1625.6 1038.09 1644.05 972.593 1632.8C970.416 1632.4 968.276 1632.01 966.171 1631.62C895.79 1618.79 864.257 1613.03 801.323 1539.17C691.943 1391.53 780.617 1254.47 780.617 1254.47L813.476 1410.44L907.776 1391.76L846.109 1063.17L529 1138.34L554.432 1240.74L684.291 1215.54C684.291 1215.54 655.709 1283.28 648.057 1334.59C604.395 1608.49 836.207 1732.5 932.532 1739.03Z" fill="black"/>
</mask>
<g mask="url(#mask1)">
<path d="M2422.5 -357.961L1920.28 -878.325L760.052 243.791L2048.23 61.5677L2422.5 -357.961Z" fill="#6AEDCB"/>
<path d="M1962.75 25.5794C1776.68 78.1686 1662.75 -43.7308 1523.03 -72.5155C1434.03 -90.8679 1340.92 -73.3533 1259.24 -33.616C1130.39 29.0658 1033.62 157.881 892.906 184.933C865.38 190.258 836.483 191.452 811.24 203.582C791.657 212.976 775.572 228.332 759.962 243.422L120.488 859.136C296.957 918.685 489.432 866.566 667.843 813.228C1423.42 587.475 2174.84 340.884 2948.6 188.41L2422.29 -358.25C2383.41 -398.56 2212.73 -188.101 2197.92 -170.014C2130.2 -87.0091 2064.57 -14.0084 1962.75 25.5794Z" fill="#30C7FF"/>
<path d="M2930.35 168.378C2930.35 168.378 2782.17 175.513 2686.28 146.488C2590.4 117.462 2425.75 91.3914 2300.27 124.383C2174.79 157.374 2090.2 210.469 1988.3 312.349C1886.4 414.229 1727.27 460.508 1580.48 426.996C1433.72 393.426 1177.94 250.594 985.541 425.47C793.138 600.347 588.579 899.597 136.039 845.584L-620.601 1573.12L-523.382 1673.87L3138.43 596.741L3287.39 538.836L2930.35 168.378Z" fill="#6C5DFE"/>
<path d="M3083.8 327.431C3083.8 327.431 2958.21 348.704 2797.44 487.744C2706.95 565.945 2608.5 635.659 2494.54 675.025C2321.22 734.812 2137.85 714.875 1967.63 655.541C1944.12 647.383 1921.5 637.872 1897.18 632.374C1851.27 622.074 1804.09 618.332 1757.12 621.171C1620.52 629.604 1490.62 717.317 1349.28 837.661C1207.94 958.006 973.794 1076.52 795.969 1103.37C618.085 1130.19 481.49 1133.11 235.813 1134.18C-9.86334 1135.25 -297.76 1155.48 -595.854 1598.71L-247.486 1959.78L2362.04 1431.57L3287.55 538.698L3083.8 327.431Z" fill="#A20ED3"/>
<path d="M2525.65 1273.69C2525.65 1273.69 2319.42 1360.05 2053.61 1267.93C1787.79 1175.81 1747.19 1005.93 1386.1 1204.1C1025.02 1402.27 976.489 1529.8 710.83 1576.78C445.171 1623.76 276.454 1604.46 58.3725 1589.62C-159.709 1574.78 -269.543 1562.79 -456.538 1743.2L-1.01458 2215.32L2117.52 1667.58L2525.65 1273.69Z" fill="#D60A99"/>
<path d="M-119.085 2092.82C15.2807 2108 171.399 2129.02 306.219 2046.47C441.04 1963.92 590.848 1874.64 747.264 1825.55C903.679 1776.46 990.092 1827.25 1140.53 1816.36C1290.91 1805.43 1462.13 1688.42 1572.81 1603.08C1683.49 1517.74 1779.32 1500.29 1921.61 1480.95C2063.9 1461.62 2242.57 1546.81 2242.57 1546.81L1773.14 1999.7L1328.56 2289.18L288.257 2515.1L-119.085 2092.82Z" fill="#F005C4"/>
<path d="M1946.72 1832.31C1943.51 1835.42 1923.36 1833.85 1918.91 1834.32C1892.93 1836.8 1867.21 1841.09 1841.87 1847.1C1739.69 1871.59 1682.99 1937.45 1616.08 2012.44C1569.79 2064.41 1510.49 2150.04 1440.18 2170.87C1370.65 2191.47 1312.03 2208.71 1143.82 2156.49C1039.31 2124.01 925.358 2101.2 815.161 2124.88C687.457 2152.28 601.335 2247.04 495.425 2316.6C409.067 2373.28 303.894 2424.86 198.295 2421.79L746.613 2990.11L1946.72 1832.31Z" fill="#FF744B"/>
<path d="M950.221 2116.78C969.804 2118.64 626.135 1890.83 390.755 1995.7C390.755 1995.7 250.363 2105.04 121.222 2104.74C40.0631 2104.09 -40.892 2097.35 -121.031 2084.41L198.201 2421.81C198.201 2421.81 341.391 2428.6 495.354 2316.71C649.317 2204.83 751.717 2097.66 950.221 2116.78Z" fill="#F005C4"/>
</g>
</svg>
